<svg width="127" height="95" viewBox="0 0 127 95" fill="none" xmlns="http://www.w3.org/2000/svg">
<path d="M126.421 82.7802H0V82.8434H126.421V82.7802Z" fill="#EBEBEB"/>
<path d="M59.9234 71.5034H11.1023C10.7199 71.5028 10.3533 71.3504 10.0831 71.0797C9.81289 70.809 9.66113 70.4422 9.66113 70.0597V1.43108C9.66446 1.05081 9.81769 0.687217 10.0875 0.419266C10.3574 0.151315 10.722 0.000651416 11.1023 0H59.9234C60.3063 0 60.6735 0.152106 60.9443 0.422857C61.215 0.693607 61.3671 1.06082 61.3671 1.44372V70.0597C61.3671 70.4426 61.215 70.8098 60.9443 71.0806C60.6735 71.3513 60.3063 71.5034 59.9234 71.5034ZM11.1023 0.0505684C10.7366 0.0512382 10.3861 0.19698 10.1278 0.455803C9.86944 0.714627 9.72434 1.06538 9.72434 1.43108V70.0597C9.72434 70.4254 9.86944 70.7762 10.1278 71.035C10.3861 71.2938 10.7366 71.4396 11.1023 71.4402H59.9234C60.2893 71.4396 60.6401 71.2939 60.8988 71.0351C61.1576 70.7764 61.3032 70.4257 61.3039 70.0597V1.43108C61.3032 1.06515 61.1576 0.7144 60.8988 0.455649C60.6401 0.196897 60.2893 0.0512368 59.9234 0.0505684H11.1023Z" fill="#EBEBEB"/>
<path d="M114.615 71.5034H65.7919C65.4092 71.5028 65.0423 71.3505 64.7717 71.0798C64.5011 70.8092 64.3488 70.4424 64.3481 70.0597V1.43108C64.3521 1.05058 64.5059 0.686989 64.7762 0.419107C65.0464 0.151226 65.4113 0.000644312 65.7919 0H114.615C114.995 0.00131591 115.359 0.152273 115.629 0.420153C115.898 0.688033 116.051 1.05125 116.054 1.43108V70.0597C116.054 70.4417 115.903 70.8082 115.633 71.0788C115.363 71.3494 114.997 71.5021 114.615 71.5034ZM65.7919 0.0505684C65.4259 0.0512368 65.0752 0.196897 64.8164 0.455649C64.5577 0.7144 64.412 1.06515 64.4114 1.43108V70.0597C64.412 70.4257 64.5577 70.7764 64.8164 71.0351C65.0752 71.2939 65.4259 71.4396 65.7919 71.4402H114.615C114.981 71.4396 115.332 71.2939 115.591 71.0351C115.85 70.7764 115.995 70.4257 115.996 70.0597V1.43108C115.995 1.06515 115.85 0.7144 115.591 0.455649C115.332 0.196897 114.981 0.0512368 114.615 0.0505684H65.7919Z" fill="#EBEBEB"/>
<path d="M19.5397 85.1872H12.9658V85.2504H19.5397V85.1872Z" fill="#EBEBEB"/>
<path d="M48.0851 84.502H36.6997V84.5652H48.0851V84.502Z" fill="#EBEBEB"/>
<path d="M35.1627 87.5361H19.7925V87.5993H35.1627V87.5361Z" fill="#EBEBEB"/>
<path d="M113.455 87.1113H108.593V87.1745H113.455V87.1113Z" fill="#EBEBEB"/>
<path d="M106.34 87.1113H92.3604V87.1745H106.34V87.1113Z" fill="#EBEBEB"/>
<path d="M83.8217 86.0443H64.9927V86.1075H83.8217V86.0443Z" fill="#EBEBEB"/>
<path d="M66.9699 55.5011H56.3379V82.7801H66.9699V55.5011Z" fill="#F0F0F0"/>
<path d="M18.2954 82.7802H56.3379V55.5011H18.2954V82.7802Z" fill="#F5F5F5"/>
<path d="M20.6267 80.1228H26.9756V74.5679H20.6267V80.1228Z" fill="white"/>
<path d="M20.6267 72.53H26.9756V66.9751H20.6267V72.53Z" fill="#EBEBEB"/>
<g style="mix-blend-mode:multiply" opacity="0.7">
<path d="M66.9673 59.0232H18.1816V60.118H66.9673V59.0232Z" fill="#E6E6E6"/>
</g>
<path d="M67.5564 54.9727H56.3379V59.3899H67.5564V54.9727Z" fill="#F0F0F0"/>
<path d="M17.7039 59.3898L56.3354 59.3898V54.9727L17.7039 54.9727V59.3898Z" fill="#F5F5F5"/>
<path d="M62.9396 46.634H54.6768V55.041H62.9396V46.634Z" fill="#F0F0F0"/>
<path d="M25.9035 55.0385H54.6743V46.6315H25.9035V55.0385Z" fill="#F5F5F5"/>
<g style="mix-blend-mode:multiply" opacity="0.7">
<path d="M62.9394 47.9007H25.8198V48.5809H62.9394V47.9007Z" fill="#E6E6E6"/>
</g>
<path d="M63.3947 46.2219H54.6768V48.1864H63.3947V46.2219Z" fill="#F0F0F0"/>
<path d="M25.4509 48.1864L54.6768 48.1864V46.2219H25.4509V48.1864Z" fill="#F5F5F5"/>
<path d="M72.6689 82.7802H80.7573V41.8503H72.6689V82.7802Z" fill="#E6E6E6"/>
<path d="M74.4009 82.7802H72.6689V79.8776H76.2163L74.4009 82.7802Z" fill="#F0F0F0"/>
<path d="M99.6523 82.7802H107.741V41.8503H99.6523V82.7802Z" fill="#E6E6E6"/>
<path d="M72.669 82.1935H101.162V41.8502H72.669V82.1935Z" fill="#F0F0F0"/>
<path d="M74.0139 54.7047H99.8188V43.6404H74.0139V54.7047Z" fill="#E6E6E6"/>
<path d="M88.6104 48.9349C88.6104 49.2704 88.5109 49.5984 88.3245 49.8774C88.1381 50.1564 87.8731 50.3739 87.5631 50.5023C87.2531 50.6307 86.912 50.6643 86.5829 50.5988C86.2538 50.5334 85.9515 50.3718 85.7142 50.1345C85.4769 49.8972 85.3153 49.5949 85.2499 49.2658C85.1844 48.9367 85.218 48.5956 85.3464 48.2856C85.4748 47.9756 85.6923 47.7106 85.9713 47.5242C86.2503 47.3378 86.5783 47.2383 86.9138 47.2383C87.1367 47.238 87.3575 47.2816 87.5635 47.3668C87.7695 47.4519 87.9566 47.5769 88.1142 47.7345C88.2718 47.8921 88.3968 48.0792 88.4819 48.2852C88.5671 48.4912 88.6107 48.712 88.6104 48.9349Z" fill="#FAFAFA"/>
<path d="M99.4297 82.7802H101.162V79.8776H97.6143L99.4297 82.7802Z" fill="#F0F0F0"/>
<path d="M99.8167 56.4897H74.0117V80.406H99.8167V56.4897Z" fill="#E6E6E6"/>
<path d="M96.2542 61.7514C97.1912 61.7514 97.9507 60.9918 97.9507 60.0548C97.9507 59.1178 97.1912 58.3582 96.2542 58.3582C95.3172 58.3582 94.5576 59.1178 94.5576 60.0548C94.5576 60.9918 95.3172 61.7514 96.2542 61.7514Z" fill="#FAFAFA"/>
<path d="M104.992 37.2966V4.17946L21.7974 4.17946V37.2966L104.992 37.2966Z" fill="#E6E6E6"/>
<path d="M104.625 37.2941V4.17694L21.4307 4.17694V37.2941L104.625 37.2941Z" fill="#F0F0F0"/>
<path d="M102.509 6.29575H23.5469V35.1778H102.509V6.29575Z" fill="white"/>
<path d="M32.7528 18.331L29.9766 23.1425H35.5315L32.7528 18.331Z" fill="#E6E6E6"/>
<path d="M47.1673 18.4675H42.6313V23.0035H47.1673V18.4675Z" fill="#E6E6E6"/>
<path d="M57.0459 17.8354L53.9941 20.0503L55.1597 23.6381H58.9296L60.0952 20.0503L57.0459 17.8354Z" fill="#E6E6E6"/>
<path d="M70.7955 17.9593H67.587L65.9814 20.7355L67.587 23.5142H70.7955L72.3986 20.7355L70.7955 17.9593Z" fill="#E6E6E6"/>
<path d="M81.3366 17.6862L78.8284 18.8948L78.209 21.6103L79.9435 23.7848H82.7273L84.4643 21.6103L83.8448 18.8948L81.3366 17.6862Z" fill="#E6E6E6"/>
<path d="M94.7092 17.7722H92.2541L90.5171 19.5092V21.9643L92.2541 23.7013H94.7092L96.4437 21.9643V19.5092L94.7092 17.7722Z" fill="#E6E6E6"/>
<path d="M63.2104 94.1984C90.2852 94.1984 112.234 92.917 112.234 91.3363C112.234 89.7555 90.2852 88.4741 63.2104 88.4741C36.1355 88.4741 14.187 89.7555 14.187 91.3363C14.187 92.917 36.1355 94.1984 63.2104 94.1984Z" fill="#F5F5F5"/>
<path d="M60.5326 18.8392H102.163C102.371 18.8365 102.578 18.8772 102.769 18.9586C102.961 19.04 103.134 19.1603 103.276 19.312C103.419 19.4637 103.529 19.6434 103.598 19.8397C103.667 20.036 103.695 20.2447 103.68 20.4523L100.284 75.1494C100.252 75.584 100.058 75.9907 99.7404 76.2896C99.4233 76.5885 99.0058 76.7581 98.5701 76.7651H56.9372C56.7294 76.7655 56.5238 76.7233 56.333 76.6409C56.1422 76.5586 55.9703 76.4379 55.8281 76.2865C55.6859 76.135 55.5763 75.9559 55.5061 75.7603C55.4359 75.5647 55.4067 75.3568 55.4202 75.1494L58.8133 20.4523C58.8473 20.0175 59.0425 19.6111 59.3605 19.3127C59.6785 19.0143 60.0966 18.8454 60.5326 18.8392Z" fill="#407BFF"/>
<path opacity="0.4" d="M60.5326 18.8392H102.163C102.371 18.8365 102.578 18.8772 102.769 18.9586C102.961 19.04 103.134 19.1603 103.276 19.312C103.419 19.4637 103.529 19.6434 103.598 19.8397C103.667 20.036 103.695 20.2447 103.68 20.4523L100.284 75.1494C100.252 75.584 100.058 75.9907 99.7404 76.2896C99.4233 76.5885 99.0058 76.7581 98.5701 76.7651H56.9372C56.7294 76.7655 56.5238 76.7233 56.333 76.6409C56.1422 76.5586 55.9703 76.4379 55.8281 76.2865C55.6859 76.135 55.5763 75.9559 55.5061 75.7603C55.4359 75.5647 55.4067 75.3568 55.4202 75.1494L58.8133 20.4523C58.8473 20.0175 59.0425 19.6111 59.3605 19.3127C59.6785 19.0143 60.0966 18.8454 60.5326 18.8392Z" fill="black"/>
<path d="M59.5771 18.8392H101.207C101.416 18.8365 101.622 18.8772 101.814 18.9586C102.005 19.04 102.178 19.1603 102.321 19.312C102.463 19.4637 102.573 19.6434 102.642 19.8397C102.712 20.036 102.74 20.2447 102.724 20.4523L99.3287 75.1494C99.296 75.5844 99.1016 75.9915 98.7839 76.2904C98.4662 76.5894 98.0482 76.7587 97.612 76.7651H55.9817C55.7739 76.7655 55.5682 76.7233 55.3774 76.6409C55.1866 76.5586 55.0148 76.4379 54.8725 76.2865C54.7303 76.135 54.6207 75.9559 54.5505 75.7603C54.4804 75.5647 54.4511 75.3568 54.4646 75.1494L57.8578 20.4523C57.8912 20.0173 58.0862 19.6106 58.4043 19.312C58.7225 19.0135 59.1408 18.8449 59.5771 18.8392Z" fill="#407BFF"/>
<path opacity="0.4" d="M56.7222 73.8119L97.245 74.2974L100.532 21.3221H59.9788L56.7222 73.8119Z" fill="black"/>
<path d="M55.5391 73.2759H96.5853C98.8457 52.5657 99.541 41.385 99.8495 20.6849H58.8032C58.4948 41.385 57.802 52.5657 55.5391 73.2759Z" fill="white"/>
<path opacity="0.3" d="M94.9392 35.0817H87.8723C87.801 35.0826 87.7304 35.0684 87.6651 35.04C87.5997 35.0117 87.5411 34.9699 87.493 34.9174C87.4443 34.8654 87.4066 34.8041 87.3822 34.7372C87.3579 34.6703 87.3474 34.5991 87.3514 34.528L87.7888 27.4636C87.7972 27.331 87.8556 27.2065 87.9524 27.1154C88.0491 27.0244 88.1768 26.9735 88.3097 26.9731H95.3892C95.4604 26.9733 95.5307 26.988 95.596 27.0164C95.6613 27.0447 95.7201 27.086 95.7688 27.1379C95.8176 27.1897 95.8552 27.2509 95.8795 27.3178C95.9038 27.3847 95.9142 27.4558 95.9101 27.5268L95.4701 34.5937C95.4679 34.6608 95.4523 34.7268 95.4243 34.7878C95.3962 34.8488 95.3563 34.9036 95.3069 34.949C95.2575 34.9944 95.1995 35.0295 95.1364 35.0523C95.0733 35.0751 95.0062 35.0851 94.9392 35.0817ZM88.4285 34.04H94.4487L94.8153 28.0173H88.8002L88.4285 34.04Z" fill="#407BFF"/>
<path opacity="0.3" d="M94.2693 45.8451H87.205C87.1339 45.8449 87.0636 45.8303 86.9984 45.802C86.9332 45.7737 86.8745 45.7325 86.8257 45.6808C86.7766 45.6291 86.7387 45.5679 86.7143 45.5009C86.69 45.4339 86.6797 45.3626 86.6841 45.2914L87.1215 38.2245C87.1299 38.0922 87.1884 37.968 87.2852 37.8773C87.382 37.7866 87.5098 37.7363 87.6424 37.7365H94.7093C94.7805 37.7357 94.8511 37.7499 94.9165 37.7782C94.9818 37.8065 95.0405 37.8483 95.0885 37.9009C95.1373 37.9528 95.175 38.0141 95.1993 38.081C95.2236 38.148 95.2341 38.2191 95.2301 38.2903L94.7902 45.3546C94.7824 45.4874 94.7242 45.6123 94.6273 45.7035C94.5305 45.7947 94.4024 45.8454 94.2693 45.8451ZM87.7587 44.8009H93.7788L94.153 38.7782H88.1329L87.7587 44.8009Z" fill="#407BFF"/>
<path opacity="0.3" d="M93.6019 56.6061H86.5375C86.466 56.6063 86.3952 56.5919 86.3295 56.5636C86.2638 56.5353 86.2047 56.4938 86.1557 56.4417C86.1064 56.3903 86.0686 56.329 86.0446 56.2619C86.0206 56.1948 86.0111 56.1234 86.0167 56.0523L86.4541 48.9879C86.4624 48.8553 86.5209 48.7309 86.6176 48.6398C86.7143 48.5487 86.8421 48.4978 86.9749 48.4974H94.0419C94.1129 48.4976 94.1832 48.5123 94.2484 48.5406C94.3136 48.5688 94.3724 48.6101 94.4211 48.6618C94.4695 48.714 94.5069 48.7753 94.5313 48.8422C94.5556 48.909 94.5663 48.9801 94.5627 49.0512L94.1228 56.1307C94.1114 56.2608 94.0515 56.3819 93.955 56.4699C93.8585 56.558 93.7325 56.6065 93.6019 56.6061ZM87.0913 55.5643H93.1114L93.4856 49.5417H87.4655L87.0913 55.5643Z" fill="#407BFF"/>
<path opacity="0.3" d="M92.9344 67.3695H85.8701C85.7986 67.3692 85.728 67.3545 85.6624 67.3263C85.5968 67.298 85.5376 67.2568 85.4883 67.2052C85.439 67.1537 85.4011 67.0924 85.3771 67.0253C85.3532 66.9582 85.3436 66.8868 85.3492 66.8158L85.7866 59.7489C85.7956 59.6167 85.8543 59.4929 85.951 59.4023C86.0476 59.3118 86.175 59.2612 86.3075 59.2609H93.3744C93.4456 59.26 93.5162 59.2742 93.5816 59.3026C93.6469 59.3309 93.7056 59.3727 93.7536 59.4252C93.8024 59.4772 93.8401 59.5385 93.8644 59.6054C93.8887 59.6723 93.8992 59.7435 93.8952 59.8146L93.4553 66.879C93.4469 67.0116 93.3885 67.1361 93.2918 67.2272C93.195 67.3182 93.0673 67.3691 92.9344 67.3695ZM86.4238 66.3253H92.4439L92.8181 60.3026H86.798L86.4238 66.3253Z" fill="#407BFF"/>
<path opacity="0.3" d="M65.7084 30.1033H81.7107C81.949 30.0996 82.1772 30.007 82.3507 29.8438C82.5242 29.6805 82.6305 29.4584 82.6488 29.2209C82.6572 29.1073 82.6419 28.9933 82.6039 28.8859C82.5659 28.7786 82.5061 28.6803 82.4281 28.5974C82.3501 28.5144 82.2557 28.4485 82.151 28.404C82.0462 28.3594 81.9333 28.3371 81.8195 28.3384H65.8197C65.5811 28.341 65.3523 28.4332 65.1785 28.5966C65.0047 28.7601 64.8988 28.9829 64.8816 29.2209C64.8732 29.3342 64.8884 29.448 64.9263 29.5552C64.9641 29.6623 65.0238 29.7605 65.1015 29.8434C65.1792 29.9263 65.2732 29.9923 65.3777 30.037C65.4822 30.0817 65.5948 30.1043 65.7084 30.1033Z" fill="#407BFF"/>
<path opacity="0.3" d="M68.5198 33.7189H81.4779C81.7161 33.7152 81.9443 33.6226 82.1178 33.4594C82.2914 33.2962 82.3977 33.074 82.4159 32.8365C82.4247 32.723 82.4098 32.6088 82.3721 32.5014C82.3344 32.3939 82.2748 32.2955 82.1971 32.2123C82.1193 32.129 82.0251 32.0629 81.9205 32.018C81.8158 31.9731 81.703 31.9505 81.5891 31.9515H68.6361C68.3975 31.9553 68.1689 32.0482 67.9953 32.212C67.8217 32.3757 67.7157 32.5985 67.698 32.8365C67.6897 32.9494 67.7047 33.0628 67.7423 33.1696C67.7798 33.2764 67.839 33.3743 67.9162 33.4572C67.9933 33.54 68.0868 33.606 68.1906 33.6511C68.2945 33.6961 68.4066 33.7192 68.5198 33.7189Z" fill="#407BFF"/>
<path opacity="0.3" d="M64.9271 42.715H80.9294C81.043 42.714 81.1557 42.7365 81.2601 42.7813C81.3646 42.826 81.4587 42.8919 81.5364 42.9748C81.6141 43.0578 81.6737 43.1559 81.7116 43.2631C81.7494 43.3702 81.7646 43.4841 81.7562 43.5974C81.738 43.8349 81.6316 44.0571 81.4581 44.2203C81.2846 44.3836 81.0564 44.4761 80.8182 44.4798H64.8159C64.7022 44.4808 64.5896 44.4583 64.4851 44.4135C64.3807 44.3688 64.2866 44.3029 64.2089 44.22C64.1312 44.137 64.0715 44.0389 64.0337 43.9317C63.9959 43.8246 63.9807 43.7107 63.9891 43.5974C64.0073 43.3599 64.1136 43.1377 64.2871 42.9745C64.4607 42.8112 64.6889 42.7187 64.9271 42.715Z" fill="#407BFF"/>
<path opacity="0.3" d="M68.1939 39.0993H81.1621C81.276 39.098 81.3889 39.1203 81.4936 39.1649C81.5984 39.2094 81.6928 39.2753 81.7707 39.3583C81.8487 39.4412 81.9086 39.5395 81.9466 39.6468C81.9846 39.7542 81.9998 39.8682 81.9914 39.9818C81.9738 40.2198 81.8677 40.4425 81.6942 40.6063C81.5206 40.77 81.292 40.8629 81.0534 40.8667H68.0852C67.9711 40.8681 67.858 40.8457 67.753 40.801C67.6481 40.7563 67.5536 40.6902 67.4756 40.6069C67.3975 40.5237 67.3377 40.4251 67.2999 40.3175C67.2621 40.2098 67.2471 40.0955 67.2559 39.9818C67.2741 39.7442 67.3804 39.5221 67.5539 39.3588C67.7275 39.1956 67.9557 39.1031 68.1939 39.0993Z" fill="#407BFF"/>
<path opacity="0.3" d="M64.3733 51.6276H80.3757C80.6139 51.6239 80.8421 51.5314 81.0156 51.3681C81.1891 51.2049 81.2954 50.9827 81.3137 50.7452C81.3221 50.6317 81.3068 50.5176 81.2688 50.4103C81.2309 50.3029 81.171 50.2047 81.093 50.1217C81.015 50.0387 80.9207 49.9729 80.8159 49.9283C80.7111 49.8837 80.5982 49.8614 80.4844 49.8628H64.4745C64.2363 49.8665 64.008 49.959 63.8345 50.1223C63.661 50.2855 63.5547 50.5077 63.5364 50.7452C63.528 50.8594 63.5434 50.9741 63.5819 51.082C63.6203 51.1898 63.6809 51.2885 63.7597 51.3715C63.8385 51.4546 63.9338 51.5203 64.0395 51.5644C64.1451 51.6085 64.2589 51.63 64.3733 51.6276Z" fill="#407BFF"/>
<path opacity="0.3" d="M73.7131 55.2432H80.1505C80.3887 55.2395 80.6169 55.147 80.7904 54.9838C80.964 54.8205 81.0703 54.5984 81.0885 54.3608C81.0969 54.2472 81.0816 54.133 81.0437 54.0255C81.0057 53.9181 80.9459 53.8197 80.8679 53.7365C80.79 53.6533 80.6956 53.5872 80.5909 53.5424C80.4861 53.4975 80.3732 53.4749 80.2592 53.4759H73.8294C73.591 53.4802 73.3628 53.5733 73.1893 53.737C73.0158 53.9006 72.9096 54.1231 72.8914 54.3608C72.883 54.4737 72.8981 54.5872 72.9356 54.694C72.9732 54.8008 73.0324 54.8987 73.1095 54.9815C73.1867 55.0644 73.2801 55.1304 73.384 55.1754C73.4879 55.2205 73.5999 55.2436 73.7131 55.2432Z" fill="#407BFF"/>
<path opacity="0.3" d="M67.1924 55.2432H70.5881C70.8263 55.2395 71.0545 55.147 71.228 54.9838C71.4015 54.8205 71.5079 54.5984 71.5261 54.3608C71.5345 54.2472 71.5192 54.133 71.4813 54.0255C71.4433 53.9181 71.3835 53.8197 71.3055 53.7365C71.2276 53.6533 71.1332 53.5872 71.0285 53.5424C70.9237 53.4975 70.8107 53.4749 70.6968 53.4759H67.3011C67.0627 53.4802 66.8344 53.5733 66.661 53.737C66.4875 53.9006 66.3813 54.1231 66.3631 54.3608C66.3547 54.4744 66.3699 54.5884 66.4079 54.6958C66.4459 54.8031 66.5058 54.9014 66.5838 54.9843C66.6618 55.0673 66.7561 55.1332 66.8609 55.1777C66.9657 55.2223 67.0786 55.2446 67.1924 55.2432Z" fill="#407BFF"/>
<path opacity="0.3" d="M63.7157 62.3911H79.718C79.9562 62.3874 80.1845 62.2948 80.358 62.1316C80.5315 61.9684 80.6378 61.7462 80.6561 61.5087C80.6645 61.395 80.6492 61.2808 80.6112 61.1734C80.5733 61.0659 80.5134 60.9675 80.4355 60.8843C80.3575 60.8012 80.2632 60.7351 80.1584 60.6902C80.0537 60.6454 79.9407 60.6227 79.8268 60.6237H63.8143C63.5757 60.6275 63.3471 60.7204 63.1736 60.8841C63 61.0479 62.8939 61.2707 62.8763 61.5087C62.8678 61.6231 62.8833 61.738 62.9219 61.846C62.9605 61.9541 63.0213 62.0528 63.1004 62.136C63.1795 62.2191 63.2751 62.2847 63.381 62.3287C63.487 62.3726 63.601 62.3939 63.7157 62.3911Z" fill="#407BFF"/>
<path opacity="0.3" d="M66.5249 66.0067H79.483C79.7215 66.0023 79.9497 65.9092 80.1232 65.7456C80.2966 65.582 80.4029 65.3595 80.4211 65.1217C80.4295 65.0082 80.4142 64.8941 80.3762 64.7868C80.3382 64.6795 80.2783 64.5812 80.2004 64.4982C80.1224 64.4153 80.028 64.3494 79.9233 64.3048C79.8185 64.2603 79.7056 64.238 79.5917 64.2393H66.6336C66.3954 64.243 66.1672 64.3356 65.9937 64.4988C65.8202 64.662 65.7138 64.8842 65.6956 65.1217C65.6872 65.2354 65.7025 65.3496 65.7404 65.457C65.7784 65.5645 65.8383 65.6629 65.9162 65.7461C65.9941 65.8292 66.0885 65.8953 66.1932 65.9402C66.298 65.985 66.4109 66.0077 66.5249 66.0067Z" fill="#407BFF"/>
<path d="M91.0507 33.1475C90.9458 33.1483 90.8433 33.1165 90.7574 33.0565L88.0343 31.1981C87.9303 31.1159 87.8614 30.9973 87.8414 30.8663C87.8215 30.7353 87.8519 30.6016 87.9267 30.4922C88.0015 30.3828 88.1149 30.3058 88.2443 30.2768C88.3736 30.2478 88.5091 30.2689 88.6234 30.3359L90.9495 31.9263C91.7991 30.9022 94.2213 28.1336 96.2364 27.2259C96.299 27.198 96.3665 27.1828 96.435 27.1809C96.5035 27.1791 96.5717 27.1908 96.6357 27.2154C96.6996 27.2399 96.7582 27.2768 96.8079 27.3239C96.8576 27.3711 96.8975 27.4276 96.9254 27.4902C96.9533 27.5527 96.9686 27.6202 96.9704 27.6887C96.9722 27.7572 96.9606 27.8254 96.936 27.8894C96.9115 27.9534 96.8746 28.0119 96.8274 28.0616C96.7803 28.1113 96.7238 28.1513 96.6612 28.1791C94.4615 29.1576 91.4906 32.9123 91.4628 32.9503C91.4134 33.012 91.3506 33.0618 91.2793 33.096C91.2079 33.1301 91.1298 33.1477 91.0507 33.1475Z" fill="#407BFF"/>
<path d="M89.7839 43.7011C89.6486 43.7014 89.5183 43.6498 89.4198 43.5569L87.0507 41.2814C86.9501 41.1851 86.8919 41.0529 86.8888 40.9137C86.8857 40.7746 86.9381 40.6399 87.0343 40.5393C87.1305 40.4387 87.2628 40.3805 87.4019 40.3774C87.5411 40.3743 87.6758 40.4266 87.7764 40.5228L89.7991 42.4672C90.7978 41.5747 93.5917 39.198 95.7055 38.6215C95.7719 38.6034 95.8412 38.5985 95.9095 38.6072C95.9777 38.6159 96.0436 38.638 96.1034 38.6722C96.1631 38.7063 96.2156 38.7519 96.2577 38.8063C96.2998 38.8608 96.3308 38.923 96.3489 38.9894C96.367 39.0558 96.3719 39.1251 96.3632 39.1934C96.3545 39.2616 96.3324 39.3275 96.2983 39.3873C96.2641 39.447 96.2185 39.4995 96.1641 39.5416C96.1097 39.5837 96.0475 39.6147 95.9811 39.6328C93.6751 40.2624 90.1834 43.5342 90.148 43.5671C90.0991 43.6123 90.0418 43.6474 89.9793 43.6704C89.9169 43.6934 89.8504 43.7038 89.7839 43.7011Z" fill="#407BFF"/>
<path opacity="0.4" d="M85.3515 21.9289H86.11C86.3132 21.9309 86.5148 21.8929 86.7033 21.817C86.8919 21.741 87.0636 21.6287 87.2087 21.4864C87.3538 21.3442 87.4694 21.1747 87.549 20.9877C87.6286 20.8007 87.6706 20.5999 87.6726 20.3967V18.9858C87.6726 18.9654 87.6685 18.9451 87.6606 18.9262C87.6527 18.9074 87.6411 18.8902 87.6265 18.8759C87.6119 18.8615 87.5946 18.8502 87.5756 18.8426C87.5566 18.835 87.5363 18.8313 87.5158 18.8316H85.3717C85.3257 18.8323 85.2817 18.8509 85.2491 18.8834C85.2165 18.916 85.1979 18.96 85.1973 19.0061L85.2074 21.7747C85.2073 21.8139 85.2222 21.8517 85.2489 21.8803C85.2757 21.909 85.3124 21.9263 85.3515 21.9289Z" fill="black"/>
<path d="M73.7157 16.2804H86.6258C86.8102 16.2752 86.9935 16.3109 87.1624 16.3851C87.3314 16.4593 87.4817 16.57 87.6027 16.7093C87.7236 16.8487 87.8121 17.0131 87.8618 17.1908C87.9115 17.3685 87.9211 17.555 87.89 17.7368L87.5031 20.6116C87.4403 21.009 87.2407 21.3719 86.9388 21.6378C86.6369 21.9037 86.2517 22.0558 85.8496 22.068H72.9344C72.75 22.0732 72.5667 22.0375 72.3978 21.9633C72.2288 21.8892 72.0785 21.7784 71.9575 21.6391C71.8366 21.4998 71.7481 21.3353 71.6984 21.1576C71.6487 20.98 71.6391 20.7935 71.6702 20.6116L72.0596 17.7368C72.1225 17.339 72.3225 16.9758 72.6249 16.7098C72.9273 16.4439 73.3132 16.292 73.7157 16.2804Z" fill="#407BFF"/>
<path opacity="0.6" d="M73.7157 16.2804H86.6258C86.8102 16.2752 86.9935 16.3109 87.1624 16.3851C87.3314 16.4593 87.4817 16.57 87.6027 16.7093C87.7236 16.8487 87.8121 17.0131 87.8618 17.1908C87.9115 17.3685 87.9211 17.555 87.89 17.7368L87.5031 20.6116C87.4403 21.009 87.2407 21.3719 86.9388 21.6378C86.6369 21.9037 86.2517 22.0558 85.8496 22.068H72.9344C72.75 22.0732 72.5667 22.0375 72.3978 21.9633C72.2288 21.8892 72.0785 21.7784 71.9575 21.6391C71.8366 21.4998 71.7481 21.3353 71.6984 21.1576C71.6487 20.98 71.6391 20.7935 71.6702 20.6116L72.0596 17.7368C72.1225 17.339 72.3225 16.9758 72.6249 16.7098C72.9273 16.4439 73.3132 16.292 73.7157 16.2804Z" fill="white"/>
<path opacity="0.5" d="M86.2919 17.6711H80.4766C80.4226 17.6754 80.3684 17.6685 80.3172 17.6509C80.2661 17.6332 80.2191 17.6052 80.1794 17.5685C80.1396 17.5318 80.1078 17.4872 80.0861 17.4377C80.0644 17.3881 80.0532 17.3346 80.0532 17.2804C80.0532 17.2263 80.0644 17.1728 80.0861 17.1232C80.1078 17.0736 80.1396 17.0291 80.1794 16.9924C80.2191 16.9557 80.2661 16.9277 80.3172 16.91C80.3684 16.8923 80.4226 16.8855 80.4766 16.8898H86.2919C86.3901 16.8977 86.4817 16.9423 86.5485 17.0147C86.6153 17.0871 86.6524 17.1819 86.6524 17.2804C86.6524 17.3789 86.6153 17.4738 86.5485 17.5462C86.4817 17.6186 86.3901 17.6632 86.2919 17.6711Z" fill="white"/>
<path opacity="0.5" d="M78.5426 17.6711H77.9307C77.8767 17.6754 77.8225 17.6685 77.7713 17.6509C77.7202 17.6332 77.6732 17.6052 77.6335 17.5685C77.5937 17.5318 77.562 17.4872 77.5402 17.4377C77.5185 17.3881 77.5073 17.3346 77.5073 17.2804C77.5073 17.2263 77.5185 17.1728 77.5402 17.1232C77.562 17.0736 77.5937 17.0291 77.6335 16.9924C77.6732 16.9557 77.7202 16.9277 77.7713 16.91C77.8225 16.8923 77.8767 16.8855 77.9307 16.8898H78.5426C78.5965 16.8855 78.6508 16.8923 78.7019 16.91C78.7531 16.9277 78.8 16.9557 78.8398 16.9924C78.8796 17.0291 78.9113 17.0736 78.933 17.1232C78.9547 17.1728 78.9659 17.2263 78.9659 17.2804C78.9659 17.3346 78.9547 17.3881 78.933 17.4377C78.9113 17.4872 78.8796 17.5318 78.8398 17.5685C78.8 17.6052 78.7531 17.6332 78.7019 17.6509C78.6508 17.6685 78.5965 17.6754 78.5426 17.6711Z" fill="white"/>
<path d="M42.8462 73.7411L45.3417 74.219L51.2405 46.4772L47.5768 45.7769L42.8462 73.7411Z" fill="#407BFF"/>
<path d="M51.6177 27.2158L54.6063 26.2323L54.8136 25.1476L52.0298 25.0616L51.6177 27.2158Z" fill="#263238"/>
<path d="M51.5414 26.5837L54.9446 25.4763L51.4478 45.39L47.7842 44.6922L51.5414 26.5837Z" fill="#407BFF"/>
<path d="M47.9946 45.8092L51.3521 46.4602L51.562 45.3774L48.2045 44.7264L47.9946 45.8092Z" fill="#263238"/>
<path d="M43.2963 77.0255C43.2635 77.1899 43.3317 77.3416 43.448 77.3643C43.5644 77.3871 43.6857 77.2708 43.7161 77.1115C43.7464 76.9522 43.6781 76.7954 43.5618 76.7727C43.4455 76.7499 43.3267 76.8637 43.2963 77.0255Z" fill="#407BFF"/>
<path d="M43.1243 77.0457L43.8677 77.1873L45.3417 74.219L42.8462 73.7411L43.1243 77.0457Z" fill="#263238"/>
<path d="M47.62 39.6505C47.5672 39.6503 47.5153 39.6367 47.4691 39.6112C47.4229 39.5857 47.3837 39.5491 47.3553 39.5046C47.3269 39.46 47.3101 39.4091 47.3064 39.3565C47.3028 39.3038 47.3123 39.251 47.3343 39.203C48.9019 35.8427 50.1737 28.8239 50.3456 27.1551C50.3702 26.9131 50.4592 26.682 50.6032 26.4859C50.7473 26.2898 50.9412 26.1359 51.1649 26.0401L51.9916 25.6836C52.0295 25.667 52.0702 25.658 52.1116 25.6572C52.1529 25.6563 52.194 25.6636 52.2325 25.6786C52.271 25.6937 52.3062 25.7161 52.336 25.7447C52.3658 25.7734 52.3897 25.8076 52.4063 25.8454C52.4229 25.8833 52.4319 25.924 52.4327 25.9653C52.4336 26.0067 52.4263 26.0478 52.4113 26.0863C52.3962 26.1248 52.3738 26.1599 52.3452 26.1898C52.3165 26.2196 52.2823 26.2435 52.2445 26.2601L51.4177 26.6166C51.2969 26.6689 51.1922 26.7525 51.1145 26.8587C51.0367 26.9649 50.9886 27.0899 50.9752 27.2209C50.7957 28.9731 49.534 35.9894 47.9108 39.4685C47.885 39.5236 47.8438 39.5701 47.7923 39.6024C47.7407 39.6347 47.6809 39.6514 47.62 39.6505Z" fill="#263238"/>
<path d="M35.9718 26.2424C35.3422 27.322 34.7076 28.4674 34.1083 29.59C33.8125 30.1564 33.5243 30.7227 33.2487 31.2916C32.9731 31.8605 32.7152 32.4344 32.4901 33.0059L32.4472 33.1095C32.4381 33.126 32.4321 33.144 32.4295 33.1626C32.4151 33.2461 32.4092 33.3308 32.4118 33.4155C32.4227 33.6661 32.4583 33.9151 32.518 34.1588C32.6626 34.741 32.8485 35.3122 33.0742 35.868C33.2992 36.4496 33.5571 37.0336 33.8327 37.6202C34.1083 38.2068 34.389 38.7934 34.6646 39.3648L33.4636 40.184C32.5673 39.1425 31.7707 38.0192 31.0843 36.8288C30.7196 36.2032 30.4108 35.5467 30.1615 34.8668C30.0229 34.4794 29.9213 34.0799 29.8581 33.6734C29.8241 33.428 29.814 33.1799 29.8277 32.9325C29.838 32.7864 29.8582 32.6411 29.8884 32.4977C29.9036 32.4243 29.9289 32.3409 29.9516 32.2625L29.9921 32.1336C30.4021 30.816 30.9092 29.5305 31.5091 28.2879C32.0971 27.0555 32.7547 25.8576 33.4787 24.7L35.9718 26.2424Z" fill="#FFC3BD"/>
<path d="M34.475 39.0007L35.6052 39.8806L33.8808 41.3066C33.8808 41.3066 33.0945 40.5481 33.2159 39.6151L34.475 39.0007Z" fill="#FFC3BD"/>
<path d="M36.065 41.165L34.9146 42.6442L33.8779 41.3066L35.6048 39.8806L36.065 41.165Z" fill="#FFC3BD"/>
<path d="M42.4772 15.704C42.5101 15.8557 42.6163 15.9568 42.7149 15.9568C42.8135 15.9568 42.8716 15.795 42.8413 15.6433C42.811 15.4916 42.7022 15.3904 42.6036 15.4031C42.505 15.4157 42.457 15.5497 42.4772 15.704Z" fill="#263238"/>
<path d="M42.6113 15.9669C42.8897 16.3975 43.2257 16.788 43.61 17.1275C43.5204 17.2236 43.4108 17.2989 43.2889 17.3483C43.1671 17.3976 43.0359 17.4198 42.9046 17.4132L42.6113 15.9669Z" fill="#ED847E"/>
<path d="M41.7541 14.9682C41.7315 14.9674 41.7099 14.9584 41.6934 14.9429C41.6846 14.9346 41.6776 14.9246 41.6728 14.9136C41.668 14.9025 41.6655 14.8905 41.6655 14.8784C41.6655 14.8664 41.668 14.8544 41.6728 14.8433C41.6776 14.8322 41.6846 14.8222 41.6934 14.814C41.7887 14.7038 41.9095 14.6187 42.0452 14.5658C42.1809 14.5129 42.3275 14.4939 42.4722 14.5105C42.4839 14.5125 42.4952 14.5168 42.5054 14.5232C42.5155 14.5295 42.5243 14.5378 42.5312 14.5476C42.5381 14.5573 42.543 14.5683 42.5457 14.58C42.5484 14.5916 42.5487 14.6037 42.5467 14.6155C42.5448 14.6273 42.5405 14.6385 42.5341 14.6487C42.5278 14.6588 42.5195 14.6676 42.5097 14.6745C42.5 14.6814 42.489 14.6864 42.4773 14.689C42.4657 14.6917 42.4536 14.6921 42.4418 14.6901C42.3267 14.68 42.2108 14.6978 42.1039 14.7417C41.997 14.7857 41.9022 14.8547 41.8274 14.9429C41.8178 14.9523 41.8063 14.9594 41.7936 14.9638C41.7809 14.9681 41.7674 14.9696 41.7541 14.9682Z" fill="#263238"/>
<path d="M38.1258 17.8556C38.4039 19.2741 38.6821 21.8708 37.6909 22.8164C37.6909 22.8164 38.0778 24.2525 40.7098 24.2525C43.6049 24.2525 42.0954 22.8164 42.0954 22.8164C40.5152 22.4371 40.5556 21.2665 40.8312 20.1641L38.1258 17.8556Z" fill="#FFC3BD"/>
<path d="M37.1296 22.9226C36.9198 22.4169 37.3825 20.8998 37.8502 20.7557C38.3787 20.5939 40.3786 20.6849 41.39 21.1021C42.1005 21.8202 42.3053 23.3094 42.3053 23.3094L37.1296 22.9226Z" fill="#263238"/>
<path d="M28.8617 89.1315C28.9395 89.1594 29.022 89.1716 29.1045 89.1672C29.187 89.1629 29.2677 89.1422 29.3421 89.1063C29.3715 89.0805 29.3918 89.0459 29.4 89.0076C29.4082 88.9693 29.4039 88.9295 29.3876 88.8939C29.3788 88.8639 29.3636 88.8362 29.3431 88.8127C29.3226 88.7891 29.2973 88.7702 29.2688 88.7573C29.016 88.6335 28.4066 88.8787 28.3813 88.8888C28.3731 88.8919 28.3661 88.8975 28.3611 88.9047C28.3561 88.9119 28.3535 88.9205 28.3535 88.9293C28.3534 88.9381 28.3557 88.9467 28.3601 88.9543C28.3646 88.9619 28.3711 88.9681 28.3788 88.9723C28.5333 89.0432 28.6953 89.0967 28.8617 89.1315ZM29.1753 88.8231L29.2309 88.8408C29.2473 88.8481 29.2618 88.8589 29.2736 88.8725C29.2854 88.886 29.2941 88.9019 29.2991 88.9192C29.3244 89.0026 29.2991 89.0279 29.284 89.0355C29.1803 89.124 28.7935 89.0355 28.5255 88.9343C28.731 88.8491 28.9531 88.8111 29.1753 88.8231Z" fill="#407BFF"/>
<path d="M28.389 88.9773H28.4118C28.6317 88.9141 29.0995 88.5803 29.1045 88.3604C29.1053 88.3262 29.0941 88.2929 29.0728 88.2661C29.0516 88.2393 29.0217 88.2208 28.9882 88.2137C28.9549 88.2018 28.9195 88.197 28.8842 88.1996C28.8489 88.2022 28.8146 88.2122 28.7834 88.2289C28.5306 88.3604 28.3612 88.8989 28.3561 88.9217C28.3519 88.9285 28.3496 88.9364 28.3496 88.9444C28.3496 88.9525 28.3519 88.9604 28.3561 88.9672L28.389 88.9773ZM28.9377 88.2921H28.9579C29.0135 88.3123 29.0135 88.3401 29.0135 88.3503C29.0135 88.4817 28.7 88.7422 28.475 88.8559C28.5346 88.6427 28.6571 88.4524 28.8264 88.3098C28.8605 88.2916 28.8996 88.2853 28.9377 88.2921Z" fill="#407BFF"/>
<path d="M42.8412 89.4577C43.094 89.4577 43.3317 89.4223 43.4101 89.3111C43.4312 89.2821 43.4426 89.2471 43.4426 89.2112C43.4426 89.1753 43.4312 89.1403 43.4101 89.1113C43.3943 89.0844 43.3731 89.0611 43.3479 89.0428C43.3226 89.0245 43.2939 89.0117 43.2634 89.0051C42.9423 88.9166 42.2647 89.301 42.2369 89.3187C42.2285 89.3233 42.2218 89.3304 42.2178 89.339C42.2137 89.3476 42.2124 89.3573 42.2141 89.3667C42.2156 89.3756 42.2198 89.3837 42.2261 89.3901C42.2325 89.3964 42.2407 89.4006 42.2495 89.4021C42.4447 89.4382 42.6427 89.4568 42.8412 89.4577ZM43.1496 89.081C43.1796 89.0811 43.2093 89.0854 43.2381 89.0936C43.2567 89.0967 43.2743 89.1041 43.2897 89.115C43.305 89.126 43.3177 89.1403 43.3266 89.1568C43.3595 89.2125 43.3494 89.2428 43.3266 89.258C43.2356 89.3844 42.7476 89.3869 42.3861 89.3363C42.6212 89.2015 42.8807 89.1147 43.1496 89.081Z" fill="#407BFF"/>
<path d="M42.257 89.4046H42.2747C42.5098 89.3009 42.9725 88.8812 42.9371 88.6612C42.9371 88.6107 42.8916 88.5475 42.7652 88.5348C42.7199 88.5293 42.674 88.5335 42.6304 88.547C42.5868 88.5605 42.5466 88.5831 42.5124 88.6132C42.2595 88.8155 42.214 89.3363 42.2115 89.3591C42.2102 89.3668 42.2112 89.3748 42.2143 89.3819C42.2175 89.3891 42.2226 89.3952 42.2292 89.3995C42.2375 89.4047 42.2474 89.4066 42.257 89.4046ZM42.7298 88.6183H42.7576C42.8385 88.6183 42.8436 88.6587 42.8461 88.6688C42.8689 88.8003 42.5528 89.129 42.3152 89.2731C42.336 89.0529 42.4243 88.8446 42.568 88.6764C42.6135 88.6387 42.6707 88.6181 42.7298 88.6183Z" fill="#407BFF"/>
<path d="M40.1284 89.3591H42.0652L42.2573 84.8737H40.3206L40.1284 89.3591Z" fill="#FFC3BD"/>
<path d="M26.1514 88.4615L28.0957 88.8711L29.4686 84.6941L27.5218 84.2845L26.1514 88.4615Z" fill="#FFC3BD"/>
<path d="M28.318 88.6815L26.1917 88.2213C26.1541 88.2131 26.1149 88.2179 26.0804 88.2349C26.046 88.2519 26.0183 88.2801 26.002 88.3149L25.2637 89.9179C25.2462 89.957 25.2377 89.9996 25.2389 90.0425C25.2401 90.0854 25.2509 90.1275 25.2706 90.1656C25.2902 90.2038 25.3183 90.237 25.3525 90.2628C25.3868 90.2886 25.4264 90.3064 25.4685 90.3148C26.2144 90.4615 26.5836 90.4969 27.5191 90.6991C28.093 90.823 29.3926 91.1391 30.1865 91.311C30.9805 91.483 31.2561 90.7194 30.9451 90.5778C29.557 89.9431 28.9754 89.3844 28.6012 88.8635C28.5322 88.7703 28.4315 88.7056 28.318 88.6815Z" fill="#263238"/>
<path d="M42.0522 89.1341H39.9486C39.9104 89.1342 39.8733 89.1473 39.8435 89.1712C39.8137 89.1951 39.7928 89.2283 39.7842 89.2655L39.4024 90.9874C39.3923 91.029 39.3919 91.0723 39.4013 91.1141C39.4106 91.1558 39.4295 91.1949 39.4564 91.2281C39.4833 91.2614 39.5176 91.288 39.5564 91.3059C39.5953 91.3238 39.6378 91.3325 39.6806 91.3313C40.4391 91.3186 41.5465 91.2756 42.5048 91.2756C43.6249 91.2756 43.19 91.3363 44.5048 91.3363C45.3012 91.3363 45.5161 90.5323 45.1874 90.4589C43.6704 90.1277 43.8398 90.0923 42.5301 89.2858C42.3888 89.1902 42.2228 89.1375 42.0522 89.1341Z" fill="#263238"/>
<path d="M34.2218 23.2614C32.4064 23.676 30.9121 28.3182 30.9121 28.3182L34.5555 31.0994C35.4993 30.0936 36.1658 28.8599 36.4898 27.5192C37.1143 25.0742 36.0777 22.8265 34.2218 23.2614Z" fill="#263238"/>
<path opacity="0.2" d="M35.7796 26.6621C34.7935 27.6355 34.4724 29.413 34.394 30.9604L34.5559 31.0843C35.5007 30.0792 36.1673 28.8452 36.4901 27.5041C36.528 27.3599 36.5584 27.2133 36.5862 27.0717L35.7796 26.6621Z" fill="black"/>
<path d="M45.0739 23.3524C45.0739 23.3524 47.1345 25.6811 45.1877 40.093H34.8212C34.7504 38.5026 35.7491 30.7379 34.2144 23.2538C35.36 23.0332 36.5188 22.8871 37.6833 22.8164C39.1502 22.7304 40.6209 22.7304 42.0878 22.8164C43.0956 22.9171 44.094 23.0963 45.0739 23.3524Z" fill="#263238"/>
<path opacity="0.2" d="M42.2571 84.8737L42.1585 87.1872H40.2192L40.3178 84.8737H42.2571Z" fill="black"/>
<path opacity="0.2" d="M27.5219 84.2845L29.4688 84.6941L28.7583 86.8483L26.814 86.4387L27.5219 84.2845Z" fill="black"/>
<path d="M37.3168 16.417C37.8225 18.2728 38.0096 19.3853 39.155 20.1565C40.8794 21.3196 43.026 19.9871 43.0917 18.0175C43.1524 16.2476 42.3332 13.5093 40.3358 13.1351C39.897 13.0502 39.4437 13.079 39.0192 13.2187C38.5946 13.3585 38.2129 13.6045 37.9103 13.9335C37.6078 14.2624 37.3944 14.6633 37.2905 15.098C37.1866 15.5327 37.1957 15.9868 37.3168 16.417Z" fill="#FFC3BD"/>
<path d="M39.1675 19.9416H39.1422C38.8429 19.9432 38.5475 19.8735 38.2806 19.738C38.0136 19.6026 37.7829 19.4054 37.6075 19.1628C37.026 18.3512 36.2093 16.9429 36.1157 15.3171C36.854 14.5384 39.6277 14.0251 40.8641 14.3058C41.8931 14.5409 41.744 17.4713 40.7705 19.0566C40.6003 19.328 40.3639 19.5515 40.0834 19.7064C39.803 19.8612 39.4878 19.9421 39.1675 19.9416Z" fill="#FFC3BD"/>
<path opacity="0.8" d="M39.1675 19.9416H39.1422C38.8429 19.9432 38.5475 19.8735 38.2806 19.738C38.0136 19.6026 37.7829 19.4054 37.6075 19.1628C37.026 18.3512 36.2093 16.9429 36.1157 15.3171C36.854 14.5384 39.6277 14.0251 40.8641 14.3058C41.8931 14.5409 41.744 17.4713 40.7705 19.0566C40.6003 19.328 40.3639 19.5515 40.0834 19.7064C39.803 19.8612 39.4878 19.9421 39.1675 19.9416Z" fill="#263238"/>
<path d="M37.2407 15.977C36.9093 15.9679 36.5881 15.8603 36.3179 15.668C36.0478 15.4758 35.8409 15.2075 35.7237 14.8974C35.5037 14.24 35.7363 12.8519 37.0587 12.8115C38.381 12.771 38.5176 12.0175 38.1105 11.8633C38.9752 11.9265 38.7022 12.5308 38.7022 12.5308C38.9322 12.5308 39.1497 11.9113 40.472 11.9619C41.7944 12.0125 42.4391 11.7293 42.2697 11.4335C42.8943 11.5599 42.7198 12.3184 42.1914 12.5232C42.1914 12.5232 43.4429 13.4714 43.7388 12.9505C43.9486 13.3298 43.5339 13.7849 41.9537 13.5776C42.5833 14.46 41.0915 14.2628 40.4569 14.6623C39.8222 15.0617 38.113 16.0402 37.2407 15.977Z" fill="#263238"/>
<path d="M40.4748 16.331C40.6023 16.791 40.8767 17.1968 41.2561 17.4865C41.7618 17.8607 42.136 17.4865 42.1006 16.9201C42.0702 16.4145 41.7668 15.5927 41.2131 15.441C40.6594 15.2893 40.3307 15.7722 40.4748 16.331Z" fill="#FFC3BD"/>
<path d="M41.514 40.093C41.514 40.093 39.3143 54.8943 38.1083 60.4391C36.7884 66.5073 29.7013 86.6006 29.7013 86.6006L26.2349 85.8421C26.2349 85.8421 31.1905 69.4681 32.303 60.9802C33.1551 54.4594 34.8315 40.0829 34.8315 40.0829L41.514 40.093Z" fill="#263238"/>
<path d="M30.533 85.4451L29.8857 86.7093L25.9844 85.8648L26.3131 84.6917L30.533 85.4451Z" fill="#407BFF"/>
<path opacity="0.3" d="M40.123 45.3673C37.582 45.8729 37.8475 55.3418 38.1585 60.2166C38.8892 56.7704 39.9637 50.1409 40.6869 45.4355C40.5117 45.3507 40.3133 45.3267 40.123 45.3673Z" fill="black"/>
<path d="M45.1876 40.093C45.1876 40.093 45.4556 54.5732 45.2432 60.4796C45.0258 66.6236 42.8792 86.7396 42.8792 86.7396H39.5922C39.5922 86.7396 39.4734 66.9826 39.3267 60.9499C39.1675 54.376 38.3735 40.093 38.3735 40.093H45.1876Z" fill="#263238"/>
<path d="M43.5112 85.4325C43.5264 85.4325 43.3241 86.7927 43.3241 86.7927H39.3343L39.2256 85.5791L43.5112 85.4325Z" fill="#407BFF"/>
<path d="M45.1221 23.097C45.6278 23.3069 46.1158 23.6836 46.2625 24.9352C46.404 26.1362 46.131 36.662 45.8023 40.0222C45.7977 40.1375 45.7522 40.2475 45.6738 40.3323C45.5955 40.4171 45.4896 40.4712 45.375 40.4849C43.3042 40.5734 36.8896 39.7087 34.7253 40.088C34.4725 40.1335 34.2525 39.8553 34.2677 39.6025C34.4371 36.3282 34.1918 31.0438 33.7923 27.6886C33.5395 25.4965 33.5395 23.2032 35.3675 22.8139C36.7278 22.5256 43.1449 22.2728 45.1221 23.097Z" fill="#407BFF"/>
<path d="M45.9235 26.0047C46.0398 26.561 46.1763 27.1652 46.3028 27.7417C46.4292 28.3182 46.5859 28.9023 46.7478 29.4711C46.9096 30.04 47.0764 30.5988 47.2686 31.1323C47.4412 31.6383 47.6578 32.1281 47.9159 32.5963C48.01 32.7761 48.1227 32.9456 48.2522 33.1019C48.3002 33.155 48.3381 33.1904 48.3482 33.2006C48.3583 33.2107 48.3482 33.2233 48.3963 33.2385C48.5591 33.2924 48.7308 33.3147 48.902 33.3042C49.1562 33.2932 49.4096 33.2662 49.6605 33.2233C50.8021 32.9829 51.9231 32.6532 53.0132 32.2372L53.7489 33.5014C52.704 34.3404 51.5333 35.0094 50.2799 35.4837C49.9302 35.6122 49.5697 35.7095 49.2028 35.7745C48.7589 35.8583 48.3039 35.8652 47.8577 35.7947C47.5708 35.7461 47.2935 35.6522 47.036 35.5166C46.804 35.3869 46.5884 35.2299 46.3938 35.0488C46.0853 34.7607 45.8128 34.4364 45.5822 34.083C44.8679 32.9089 44.3143 31.6444 43.9362 30.3232C43.7465 29.6987 43.5721 29.0742 43.4305 28.4446C43.2889 27.815 43.1473 27.2032 43.0386 26.5331L45.9235 26.0047Z" fill="#FFC3BD"/>
<path d="M41.6632 25.2462C40.0905 28.4092 43.8275 31.9844 43.8275 31.9844L47.9943 29.81C47.7034 28.1337 47.2259 26.4952 46.5708 24.9251C45.3572 22.2247 42.5684 23.4283 41.6632 25.2462Z" fill="#263238"/>
<path d="M52.626 32.4142L54.0394 31.4838L54.6259 33.5975C54.6259 33.5975 53.9938 34.3383 52.8358 33.5318L52.626 32.4142Z" fill="#FFC3BD"/>
<path d="M55.2709 32.3384L55.2254 32.7834C55.2024 32.9969 55.0994 33.1939 54.9371 33.3346L54.6261 33.5874L54.0396 31.4737L54.2191 31.4281C54.3515 31.3937 54.4904 31.392 54.6237 31.4231C54.7569 31.4543 54.8806 31.5173 54.9841 31.6069C55.0876 31.6965 55.1678 31.8098 55.2178 31.9373C55.2677 32.0647 55.2859 32.2023 55.2709 32.3384Z" fill="#FFC3BD"/>
</svg>
