<svg width="99" height="99" viewBox="0 0 99 99" fill="none" xmlns="http://www.w3.org/2000/svg">
<path d="M99 75.7152H0V75.7647H99V75.7152Z" fill="#EBEBEB"/>
<path d="M46.9261 66.8844H8.69427C8.39477 66.8839 8.10771 66.7645 7.89611 66.5526C7.68452 66.3406 7.56567 66.0533 7.56567 65.7538V12.0107C7.56828 11.7129 7.68827 11.4282 7.89959 11.2183C8.1109 11.0085 8.39648 10.8905 8.69427 10.89H46.9261C47.2259 10.89 47.5135 11.0091 47.7255 11.2211C47.9376 11.4332 48.0567 11.7207 48.0567 12.0206V65.7538C48.0567 66.0537 47.9376 66.3412 47.7255 66.5533C47.5135 66.7653 47.2259 66.8844 46.9261 66.8844ZM8.69427 10.9296C8.4079 10.9301 8.13343 11.0443 7.93111 11.2469C7.7288 11.4496 7.61517 11.7243 7.61517 12.0107V65.7538C7.61517 66.0402 7.7288 66.3149 7.93111 66.5176C8.13343 66.7202 8.4079 66.8344 8.69427 66.8349H46.9261C47.2127 66.8344 47.4873 66.7203 47.69 66.5177C47.8926 66.315 48.0066 66.0404 48.0072 65.7538V12.0107C48.0066 11.7241 47.8926 11.4494 47.69 11.2468C47.4873 11.0442 47.2127 10.9301 46.9261 10.9296H8.69427Z" fill="#EBEBEB"/>
<path d="M89.7555 66.8844H51.5217C51.222 66.8839 50.9347 66.7646 50.7228 66.5527C50.5109 66.3408 50.3916 66.0535 50.3911 65.7538V12.0107C50.3942 11.7127 50.5147 11.428 50.7263 11.2182C50.9379 11.0084 51.2237 10.8905 51.5217 10.89H89.7555C90.0529 10.891 90.338 11.0092 90.5489 11.219C90.7598 11.4288 90.8795 11.7132 90.8821 12.0107V65.7538C90.8821 66.053 90.7635 66.34 90.5524 66.5519C90.3412 66.7638 90.0547 66.8834 89.7555 66.8844ZM51.5217 10.9296C51.2351 10.9301 50.9605 11.0442 50.7578 11.2468C50.5552 11.4494 50.4411 11.7241 50.4406 12.0107V65.7538C50.4411 66.0404 50.5552 66.315 50.7578 66.5177C50.9605 66.7203 51.2351 66.8344 51.5217 66.8349H89.7555C90.0421 66.8344 90.3167 66.7203 90.5194 66.5177C90.722 66.315 90.836 66.0404 90.8366 65.7538V12.0107C90.836 11.7241 90.722 11.4494 90.5194 11.2468C90.3167 11.0442 90.0421 10.9301 89.7555 10.9296H51.5217Z" fill="#EBEBEB"/>
<path d="M89.0802 77.6002H82.8293V77.6497H89.0802V77.6002Z" fill="#EBEBEB"/>
<path d="M66.3974 77.0636H59.7822V77.1131H66.3974V77.0636Z" fill="#EBEBEB"/>
<path d="M90.886 79.4396H78.5249V79.4891H90.886V79.4396Z" fill="#EBEBEB"/>
<path d="M14.1945 79.1069H10.387V79.1564H14.1945V79.1069Z" fill="#EBEBEB"/>
<path d="M21.9562 79.1069H15.9587V79.1564H21.9562V79.1069Z" fill="#EBEBEB"/>
<path d="M48.3397 78.2714H37.5369V78.3209H48.3397V78.2714Z" fill="#EBEBEB"/>
<path d="M90.377 50.5375C88.3693 49.696 85.0429 50.5078 82.2867 53.8501C81.0136 55.3945 79.786 57.6596 79.4553 59.9782C79.4771 57.3329 79.5048 54.4916 79.5305 51.8087C79.8344 50.4928 80.3132 49.2235 80.9542 48.0348C82.9757 43.9718 84.6469 44.4213 87.3931 41.2414C91.961 35.9509 94.5785 25.9697 90.0344 29.9554C85.9141 33.559 83.9202 37.1666 82.5362 40.297C80.6631 44.5282 79.9107 47.4804 79.5444 50.4425C79.5701 47.9239 79.5939 45.6113 79.6157 43.8273C79.687 38.0081 79.8454 36.137 79.8751 35.5588C79.9463 34.159 80.4077 33.3432 80.5364 33.1432C81.6194 31.4424 83.3203 30.3296 84.9854 28.3912C88.8682 23.8788 91.1096 18.2932 89.2385 17.7665C87.2842 17.226 84.7162 19.6891 81.863 25.4727C80.2275 28.7872 79.8097 29.5713 79.487 36.0657C79.4593 36.63 79.3345 38.7565 79.2751 41.7107C78.8138 38.5328 77.9366 35.3747 76.4061 33.2818C73.4539 29.2446 71.2086 28.8585 69.5731 29.2446C67.9376 29.6307 68.6227 33.8699 70.4681 36.135C73.2401 39.5446 77.8733 38.8199 79.2454 43.3561C79.1761 47.3616 79.1266 52.4344 79.0989 57.1586C78.6316 54.7193 78.1426 52.6898 77.0694 50.7791C75.0736 47.227 72.6184 45.6766 70.9314 47.3497C69.88 48.3912 71.0997 51.3097 73.2975 52.4977C75.529 53.7134 77.3605 55.3945 78.0693 56.4062C78.2336 56.6419 78.7821 57.5447 79.0949 58.0655C79.0652 63.8332 79.0692 68.9238 79.1187 70.6603L79.3979 70.686C79.3801 70.2385 79.3979 67.3042 79.4216 63.4214C79.9087 58.5763 83.3302 58.313 85.5181 57.3903C89.4286 55.737 92.3847 51.381 90.377 50.5375Z" fill="#E6E6E6"/>
<path d="M76.4279 75.7152H82.1976C82.3395 75.7236 82.4801 75.6849 82.5975 75.605C82.715 75.5251 82.8028 75.4086 82.8471 75.2737L83.2589 68.112H75.3706L75.7785 75.2677C75.822 75.4036 75.9094 75.5212 76.0269 75.6022C76.1444 75.6831 76.2854 75.7229 76.4279 75.7152Z" fill="#E6E6E6"/>
<path d="M75.5153 70.5533H83.1145C83.2967 70.5533 83.4492 70.3138 83.4709 69.997L83.6254 67.5814C83.6491 67.2091 83.4828 66.8844 83.271 66.8844H75.351C75.1371 66.8844 74.9708 67.2091 74.9965 67.5814L75.151 69.997C75.1787 70.3138 75.3331 70.5533 75.5153 70.5533Z" fill="#F5F5F5"/>
<path d="M36.828 60.2851H29.3376V74.4044H36.828V60.2851Z" fill="#F0F0F0"/>
<path d="M67.718 74.4044H30.7771V75.7152H67.718V74.4044Z" fill="#F0F0F0"/>
<path d="M36.8281 74.4025H69.1555V60.2831H36.8281V74.4025Z" fill="#FAFAFA"/>
<path d="M39.7742 66.3478H66.2112V62.0037H39.7742V66.3478Z" fill="#F0F0F0"/>
<path d="M39.7742 71.9294H66.2112V67.5853H39.7742V71.9294Z" fill="#F0F0F0"/>
<path d="M56.2361 61.4632H49.7496C49.4981 61.4632 49.2942 61.6671 49.2942 61.9186V61.9384C49.2942 62.1899 49.4981 62.3938 49.7496 62.3938H56.2361C56.4876 62.3938 56.6915 62.1899 56.6915 61.9384V61.9186C56.6915 61.6671 56.4876 61.4632 56.2361 61.4632Z" fill="#FAFAFA"/>
<path d="M56.2361 67.0448H49.7496C49.4981 67.0448 49.2942 67.2487 49.2942 67.5002V67.52C49.2942 67.7715 49.4981 67.9754 49.7496 67.9754H56.2361C56.4876 67.9754 56.6915 67.7715 56.6915 67.52V67.5002C56.6915 67.2487 56.4876 67.0448 56.2361 67.0448Z" fill="#FAFAFA"/>
<path d="M70.1555 59.0179H36.8301V60.2831H70.1555V59.0179Z" fill="#F0F0F0"/>
<path d="M28.2901 60.2851H36.8279V59.0198H28.2901V60.2851Z" fill="#E6E6E6"/>
<path d="M22.1443 64.643C21.2889 64.1956 19.7881 64.4272 18.4436 65.7994C17.7302 66.5211 17.2188 67.4176 16.9606 68.3991C17.0695 67.2329 17.1903 65.9776 17.3032 64.7935C17.4878 64.2237 17.7475 63.6811 18.0754 63.1798C19.1228 61.4612 19.8455 61.7225 21.178 60.4217C23.3996 58.2575 24.94 53.9451 22.7759 55.5311C21.2273 56.6552 19.9588 58.1215 19.0693 59.8158C18.0793 61.6156 17.6358 62.8907 17.3606 64.1857C17.4675 63.0749 17.5586 62.0532 17.6437 61.2652C17.8972 58.6912 18.0397 57.8754 18.0734 57.622C18.1106 57.2471 18.2428 56.888 18.4575 56.5785C19.0079 55.8677 19.7999 55.44 20.6038 54.648C22.4908 52.8007 23.6926 50.4148 22.8868 50.1138C22.0433 49.801 20.8137 50.7929 19.3346 53.2382C18.4852 54.6421 18.2714 54.9727 17.8793 57.8299C17.8437 58.0793 17.7091 59.0179 17.5705 60.3167C17.4873 58.8951 17.22 57.4675 16.622 56.4835C15.4717 54.5866 14.4935 54.3312 13.757 54.45C13.0204 54.5688 13.163 56.4577 13.8896 57.5289C14.9885 59.1406 17.0576 58.9961 17.4952 61.0533C17.3131 62.8195 17.0992 65.0608 16.9012 67.1477C16.7884 66.0508 16.6498 65.1361 16.2478 64.251C15.5014 62.6056 14.4658 61.8275 13.6738 62.5027C13.1709 62.9224 13.5986 64.2569 14.5252 64.8787C15.4519 65.5004 16.2102 66.3122 16.4854 66.7874C16.5488 66.8963 16.7567 67.318 16.8814 67.5596C16.6319 70.092 16.4458 72.3393 16.4023 73.1075L16.531 73.1254C16.5409 72.9274 16.6577 71.6324 16.8181 69.9178C17.2141 67.7932 18.7387 67.8071 19.7405 67.4824C21.5285 66.9042 22.9996 65.0905 22.1443 64.643Z" fill="#F0F0F0"/>
<path d="M8.89817 60.2316C10.005 59.7326 11.8682 60.1346 13.4522 61.9582C14.2939 62.9147 14.8701 64.0753 15.1233 65.3242C15.0698 63.8491 15.0144 62.2651 14.9589 60.7702C14.7697 60.0412 14.484 59.3407 14.1095 58.6872C12.9215 56.4518 11.9949 56.727 10.4168 54.9945C7.78937 52.1116 6.17963 46.5854 8.77541 48.7357C10.6354 50.2631 12.1191 52.198 13.1116 54.3906C14.2184 56.723 14.6817 58.3506 14.9312 60.0039C14.8797 58.6001 14.8302 57.3111 14.7906 56.3152C14.6659 53.0719 14.5491 52.0304 14.5233 51.7077C14.5051 51.2361 14.369 50.7766 14.1273 50.3712C13.4977 49.4386 12.5433 48.8446 11.5731 47.7873C9.34169 45.3281 8.00915 42.2433 9.04271 41.9265C10.1258 41.5958 11.5949 42.9304 13.272 46.1122C14.2343 47.9378 14.4778 48.3674 14.759 51.9849C14.7847 52.2997 14.8837 53.4838 14.957 55.1311C15.1668 53.3491 15.6084 51.579 16.4321 50.3791C18.0161 48.0823 19.2635 47.8348 20.1802 48.0249C21.0969 48.215 20.7742 50.5989 19.7842 51.8819C18.2873 53.8243 15.6955 53.4877 14.9985 56.0399C15.0956 58.2714 15.1965 61.1008 15.2856 63.7342C15.5094 62.368 15.7529 61.2275 16.3212 60.1465C17.3825 58.1348 18.7289 57.2339 19.6872 58.1427C20.2812 58.707 19.6535 60.3524 18.4437 61.0533C17.234 61.7542 16.236 62.7462 15.8559 63.3204C15.7668 63.4531 15.4757 63.9659 15.3094 64.2609C15.4124 67.4764 15.4856 70.3157 15.4836 71.284L15.3193 71.2978C15.3193 71.0483 15.2718 69.4129 15.1965 67.2467C14.85 64.548 12.9413 64.4569 11.7078 63.9758C9.50405 63.1165 7.79135 60.7306 8.89817 60.2316Z" fill="#E6E6E6"/>
<path d="M13.5809 75.7152H18.6992C18.8257 75.7219 18.9509 75.6868 19.0554 75.6152C19.1599 75.5436 19.2379 75.4396 19.2773 75.3192L19.6397 68.9713H12.6404L13.0047 75.3192C13.0435 75.4396 13.121 75.5438 13.2253 75.6154C13.3295 75.6871 13.4546 75.7222 13.5809 75.7152Z" fill="#E6E6E6"/>
<path d="M12.769 71.1374H19.5109C19.6733 71.1374 19.8079 70.9236 19.8277 70.6424L19.9643 68.5001C19.9861 68.1694 19.8396 67.8823 19.6495 67.8823H12.6324C12.4344 67.8823 12.2958 68.1694 12.3156 68.5001L12.4542 70.6424C12.474 70.9236 12.6086 71.1374 12.769 71.1374Z" fill="#F5F5F5"/>
<path d="M54.0996 15.8123H11.9177V39.6634H54.0996V15.8123Z" fill="#E6E6E6"/>
<path d="M55.4182 15.8123H12.1414V39.6634H55.4182V15.8123Z" fill="#F5F5F5"/>
<path d="M54.3647 37.7843V17.6933C54.3647 17.2362 53.9942 16.8656 53.5371 16.8656L14.0203 16.8656C13.5632 16.8656 13.1926 17.2362 13.1926 17.6933V37.7843C13.1926 38.2414 13.5632 38.612 14.0203 38.612H53.5371C53.9942 38.612 54.3647 38.2414 54.3647 37.7843Z" fill="white"/>
<path d="M49.5001 84.6569C70.7024 84.6569 87.8903 83.6534 87.8903 82.4155C87.8903 81.1777 70.7024 80.1742 49.5001 80.1742C28.2978 80.1742 11.1099 81.1777 11.1099 82.4155C11.1099 83.6534 28.2978 84.6569 49.5001 84.6569Z" fill="#F5F5F5"/>
<path d="M79.5782 61.8572H74.8262V61.6592H79.5782C80.1371 61.6476 80.6829 61.4884 81.1604 61.1977C81.6379 60.907 82.0299 60.4951 82.2967 60.0039L82.4709 60.0989C82.187 60.6214 81.7698 61.0593 81.2617 61.3682C80.7535 61.677 80.1727 61.8457 79.5782 61.8572Z" fill="#407BFF"/>
<path d="M73.8856 61.6592H71.9392V61.8572H73.8856V61.6592Z" fill="#407BFF"/>
<path d="M79.5781 61.1642H23.9797C23.6749 61.1701 23.3723 61.1111 23.092 60.9911C22.8117 60.871 22.5602 60.6927 22.3542 60.4679C22.1482 60.2432 21.9924 59.9772 21.8971 59.6875C21.8018 59.3979 21.7693 59.0913 21.8017 58.7882L24.8054 24.3362C24.8725 23.695 25.1708 23.1003 25.6445 22.663C26.1182 22.2257 26.7349 21.9759 27.3794 21.9602H82.9777C83.2825 21.9546 83.5849 22.0138 83.8651 22.1339C84.1452 22.2541 84.3965 22.4324 84.6025 22.6571C84.8084 22.8818 84.9643 23.1477 85.0597 23.4371C85.155 23.7266 85.1878 24.0331 85.1558 24.3362L82.1699 58.7882C82.1023 59.4323 81.8015 60.0295 81.3241 60.4671C80.8467 60.9048 80.2257 61.1527 79.5781 61.1642Z" fill="#407BFF"/>
<path d="M78.4198 60.4415H24.2074C23.9478 60.4453 23.6904 60.3939 23.4523 60.2906C23.2141 60.1873 23.0007 60.0345 22.8261 59.8423C22.6516 59.6502 22.5199 59.4231 22.4399 59.1761C22.3599 58.9292 22.3333 58.668 22.362 58.41L25.0984 27.025C25.1147 26.8677 25.1879 26.7218 25.3042 26.6146C25.4205 26.5075 25.5719 26.4464 25.73 26.4429H82.8273C82.9018 26.4416 82.9757 26.4562 83.0441 26.4857C83.1126 26.5152 83.1739 26.559 83.2241 26.614C83.2743 26.6691 83.3122 26.7343 83.3353 26.8051C83.3584 26.876 83.3661 26.951 83.3579 27.025L80.6196 58.41C80.5641 58.9588 80.3098 59.4683 79.9046 59.8425C79.4994 60.2167 78.9712 60.4298 78.4198 60.4415Z" fill="white"/>
<path d="M31.1176 24.8807C30.7436 24.8871 30.3726 24.8138 30.029 24.6658C29.6855 24.5178 29.3774 24.2984 29.1252 24.0222C28.8729 23.746 28.6823 23.4193 28.566 23.0638C28.4497 22.7082 28.4104 22.3321 28.4506 21.9602C28.532 21.1709 28.8988 20.4385 29.4822 19.9007C30.0656 19.3629 30.8253 19.0567 31.6186 19.0397C31.9925 19.0333 32.3635 19.1065 32.707 19.2545C33.0504 19.4026 33.3584 19.622 33.6105 19.8982C33.8626 20.1745 34.053 20.5012 34.169 20.8567C34.2851 21.2123 34.3242 21.5884 34.2837 21.9602H33.0957C33.1196 21.7394 33.0962 21.5161 33.0272 21.305C32.9581 21.094 32.8448 20.9 32.695 20.7361C32.5452 20.5722 32.3621 20.4421 32.1581 20.3545C31.9541 20.2668 31.7337 20.2236 31.5117 20.2277C31.0401 20.2363 30.588 20.4173 30.2407 20.7365C29.8934 21.0557 29.675 21.491 29.6267 21.9602C29.6028 22.181 29.6261 22.4043 29.6952 22.6154C29.7643 22.8264 29.8775 23.0203 30.0274 23.1842C30.1772 23.3481 30.3602 23.4782 30.5643 23.5659C30.7683 23.6536 30.9887 23.6968 31.2107 23.6927L31.1176 24.8807Z" fill="#263238"/>
<path d="M42.869 24.8807C42.4943 24.8882 42.1224 24.8158 41.7779 24.6683C41.4334 24.5208 41.1243 24.3015 40.8712 24.0252C40.6181 23.7489 40.4268 23.4218 40.31 23.0657C40.1933 22.7096 40.1537 22.3327 40.194 21.9602C40.2754 21.1709 40.6423 20.4385 41.2256 19.9007C41.809 19.3629 42.5687 19.0567 43.362 19.0397C43.7359 19.0333 44.1069 19.1065 44.4504 19.2545C44.7938 19.4026 45.1018 19.622 45.3539 19.8982C45.606 20.1745 45.7964 20.5012 45.9125 20.8567C46.0285 21.2123 46.0676 21.5884 46.0271 21.9602H44.8391C44.863 21.7394 44.8397 21.5161 44.7706 21.305C44.7015 21.094 44.5883 20.9 44.4384 20.7361C44.2886 20.5722 44.1056 20.4421 43.9015 20.3545C43.6975 20.2668 43.4771 20.2236 43.2551 20.2277C42.7835 20.2363 42.3314 20.4173 41.9841 20.7365C41.6368 21.0557 41.4184 21.491 41.3701 21.9602C41.3465 22.1809 41.3701 22.4041 41.4393 22.615C41.5085 22.8259 41.6218 23.0197 41.7715 23.1835C41.9213 23.3474 42.1042 23.4775 42.3081 23.5652C42.512 23.653 42.7322 23.6965 42.9541 23.6927L42.869 24.8807Z" fill="#263238"/>
<path d="M54.6203 24.8807C54.2465 24.8868 53.8756 24.8133 53.5323 24.6652C53.1891 24.517 52.8812 24.2976 52.6292 24.0214C52.3771 23.7453 52.1867 23.4186 52.0705 23.0633C51.9543 22.7079 51.915 22.3319 51.9552 21.9602C52.0358 21.1706 52.4024 20.4377 52.9859 19.8998C53.5695 19.3618 54.3297 19.0559 55.1232 19.0397C55.4971 19.0333 55.8682 19.1065 56.2116 19.2545C56.555 19.4026 56.863 19.622 57.1151 19.8982C57.3672 20.1745 57.5576 20.5012 57.6737 20.8567C57.7897 21.2123 57.8288 21.5884 57.7883 21.9602H56.6003C56.6246 21.7393 56.6014 21.5159 56.5325 21.3047C56.4635 21.0935 56.3503 20.8994 56.2004 20.7355C56.0505 20.5715 55.8673 20.4414 55.6631 20.3538C55.4589 20.2663 55.2384 20.2233 55.0163 20.2277C54.5449 20.2364 54.0931 20.4175 53.7461 20.7367C53.3992 21.0559 53.1812 21.4912 53.1333 21.9602C53.1094 22.181 53.1327 22.4043 53.2018 22.6154C53.2709 22.8264 53.3841 23.0203 53.534 23.1842C53.6838 23.3481 53.8669 23.4782 54.0709 23.5659C54.2749 23.6536 54.4953 23.6968 54.7173 23.6927L54.6203 24.8807Z" fill="#263238"/>
<path d="M66.3715 24.8807C65.9977 24.8868 65.6268 24.8133 65.2835 24.6652C64.9403 24.517 64.6324 24.2976 64.3804 24.0214C64.1284 23.7452 63.9379 23.4186 63.8218 23.0633C63.7056 22.7079 63.6663 22.3319 63.7064 21.9602C63.7874 21.1707 64.1541 20.4381 64.7376 19.9002C65.3211 19.3624 66.081 19.0563 66.8744 19.0397C67.2484 19.0333 67.6195 19.1065 67.963 19.2546C68.3066 19.4026 68.6147 19.622 68.8669 19.8982C69.1191 20.1744 69.3097 20.5011 69.4261 20.8566C69.5424 21.2121 69.5817 21.5883 69.5415 21.9602H68.3535C68.3774 21.7394 68.3541 21.5161 68.285 21.305C68.2159 21.094 68.1027 20.9 67.9528 20.7361C67.803 20.5722 67.62 20.4421 67.4159 20.3545C67.2119 20.2668 66.9915 20.2236 66.7695 20.2277C66.2981 20.2364 65.8463 20.4174 65.4993 20.7367C65.1524 21.0559 64.9344 21.4911 64.8865 21.9602C64.8626 22.181 64.8859 22.4043 64.955 22.6153C65.0241 22.8264 65.1373 23.0203 65.2872 23.1842C65.437 23.3481 65.6201 23.4782 65.8241 23.5659C66.0281 23.6536 66.2485 23.6968 66.4705 23.6927L66.3715 24.8807Z" fill="#263238"/>
<path d="M78.1227 24.8807C77.7489 24.8868 77.3781 24.8133 77.0348 24.6652C76.6915 24.517 76.3836 24.2976 76.1316 24.0214C75.8796 23.7452 75.6892 23.4186 75.573 23.0633C75.4568 22.7079 75.4175 22.3319 75.4577 21.9602C75.5386 21.1707 75.9054 20.4381 76.4888 19.9002C77.0723 19.3624 77.8323 19.0563 78.6257 19.0397C78.9997 19.0333 79.3707 19.1065 79.7143 19.2546C80.0578 19.4026 80.3659 19.622 80.6181 19.8982C80.8704 20.1744 81.061 20.5011 81.1773 20.8566C81.2936 21.2121 81.3329 21.5883 81.2927 21.9602H80.1047C80.1287 21.7394 80.1053 21.5161 80.0362 21.305C79.9671 21.094 79.8539 20.9 79.7041 20.7361C79.5542 20.5722 79.3712 20.4421 79.1671 20.3545C78.9631 20.2668 78.7428 20.2236 78.5207 20.2277C78.0495 20.2368 77.5978 20.418 77.251 20.7372C76.9041 21.0563 76.686 21.4913 76.6377 21.9602C76.6138 22.181 76.6372 22.4043 76.7062 22.6153C76.7753 22.8264 76.8886 23.0203 77.0384 23.1842C77.1883 23.3481 77.3713 23.4782 77.5753 23.5659C77.7794 23.6536 77.9997 23.6968 78.2217 23.6927L78.1227 24.8807Z" fill="#263238"/>
<path d="M78.2773 59.0179H24.6846C24.672 59.0183 24.6594 59.0159 24.6477 59.0109C24.636 59.006 24.6256 58.9985 24.6171 58.9891C24.6086 58.9796 24.6023 58.9685 24.5986 58.9563C24.5948 58.9442 24.5938 58.9314 24.5955 58.9189L27.2666 28.2962C27.269 28.2694 27.2813 28.2444 27.301 28.2262C27.3208 28.2079 27.3466 28.1976 27.3735 28.1972H80.9642C80.9769 28.1968 80.9896 28.1992 81.0013 28.2042C81.0131 28.2091 81.0236 28.2165 81.0323 28.2259C81.0409 28.2353 81.0474 28.2464 81.0514 28.2586C81.0554 28.2707 81.0567 28.2835 81.0552 28.2962L78.3842 58.9189C78.3818 58.9457 78.3695 58.9706 78.3498 58.9889C78.33 59.0072 78.3042 59.0175 78.2773 59.0179ZM24.8015 58.8199H78.1941L80.8493 28.3952H27.4566L24.8015 58.8199Z" fill="#E0E0E0"/>
<path d="M78.804 52.8937H25.2193C25.2067 52.8938 25.1943 52.8912 25.1827 52.8861C25.1712 52.881 25.1609 52.8736 25.1525 52.8642C25.1441 52.8549 25.1378 52.8438 25.1339 52.8319C25.1301 52.8199 25.1288 52.8072 25.1302 52.7947C25.1322 52.7678 25.1443 52.7425 25.1642 52.7242C25.184 52.7058 25.2101 52.6956 25.2371 52.6957H78.8278C78.8405 52.6954 78.8532 52.6977 78.865 52.7027C78.8767 52.7076 78.8873 52.7151 78.8959 52.7245C78.9045 52.7338 78.911 52.745 78.915 52.7571C78.919 52.7692 78.9203 52.782 78.9189 52.7947C78.9154 52.8225 78.9018 52.8481 78.8806 52.8664C78.8593 52.8847 78.8321 52.8944 78.804 52.8937Z" fill="#E0E0E0"/>
<path d="M79.3445 46.7696H25.7538C25.7411 46.7696 25.7286 46.767 25.717 46.762C25.7054 46.7569 25.695 46.7495 25.6864 46.7402C25.6778 46.7309 25.6713 46.7199 25.6672 46.7079C25.6631 46.6959 25.6616 46.6832 25.6627 46.6706C25.6656 46.6436 25.6783 46.6187 25.6984 46.6004C25.7184 46.5822 25.7445 46.5719 25.7716 46.5716H79.3623C79.375 46.5712 79.3877 46.5736 79.3995 46.5786C79.4112 46.5835 79.4218 46.5909 79.4304 46.6003C79.439 46.6097 79.4455 46.6208 79.4495 46.633C79.4535 46.6451 79.4548 46.6579 79.4534 46.6706C79.4501 46.6974 79.4372 46.7221 79.4173 46.7403C79.3973 46.7584 79.3715 46.7688 79.3445 46.7696Z" fill="#E0E0E0"/>
<path d="M79.8791 40.6435H26.2884C26.2757 40.6438 26.263 40.6414 26.2512 40.6365C26.2395 40.6315 26.2289 40.6241 26.2203 40.6147C26.2117 40.6053 26.2052 40.5942 26.2012 40.5821C26.1972 40.57 26.1959 40.5571 26.1973 40.5445C26.2006 40.5177 26.2134 40.4929 26.2334 40.4748C26.2534 40.4566 26.2792 40.4462 26.3062 40.4455H79.8969C79.9095 40.4454 79.922 40.448 79.9335 40.453C79.945 40.4581 79.9553 40.4656 79.9637 40.4749C79.9721 40.4843 79.9785 40.4953 79.9823 40.5073C79.9861 40.5193 79.9874 40.5319 79.986 40.5445C79.984 40.5714 79.9719 40.5966 79.952 40.615C79.9322 40.6334 79.9061 40.6435 79.8791 40.6435Z" fill="#E0E0E0"/>
<path d="M80.4138 34.5193H26.8231C26.8103 34.5197 26.7977 34.5173 26.7859 34.5123C26.7742 34.5074 26.7636 34.5 26.755 34.4906C26.7463 34.4812 26.7398 34.4701 26.7359 34.4579C26.7319 34.4458 26.7306 34.433 26.732 34.4203C26.7344 34.3935 26.7467 34.3686 26.7665 34.3503C26.7862 34.332 26.812 34.3217 26.8389 34.3213H80.4316C80.4443 34.3209 80.4569 34.3233 80.4685 34.3282C80.4802 34.3332 80.4907 34.3407 80.4991 34.3501C80.5076 34.3595 80.5139 34.3707 80.5177 34.3828C80.5214 34.395 80.5224 34.4078 80.5207 34.4203C80.5187 34.4473 80.5065 34.4725 80.4867 34.4909C80.4669 34.5092 80.4408 34.5194 80.4138 34.5193Z" fill="#E0E0E0"/>
<path d="M71.577 59.0179C71.5643 59.0183 71.5517 59.0159 71.54 59.0109C71.5284 59.006 71.5179 58.9985 71.5094 58.9891C71.5009 58.9796 71.4946 58.9685 71.4909 58.9563C71.4872 58.9442 71.4861 58.9314 71.4879 58.9189L74.1589 28.2962C74.1613 28.2694 74.1736 28.2444 74.1934 28.2262C74.2131 28.2079 74.2389 28.1976 74.2658 28.1972C74.2786 28.1968 74.2912 28.1992 74.303 28.2042C74.3147 28.2091 74.3253 28.2165 74.3339 28.2259C74.3426 28.2353 74.3491 28.2464 74.353 28.2586C74.357 28.2707 74.3583 28.2835 74.3569 28.2962L71.6859 58.9189C71.683 58.9458 71.6703 58.9708 71.6502 58.989C71.6302 59.0073 71.6041 59.0175 71.577 59.0179Z" fill="#E0E0E0"/>
<path d="M64.8785 59.0179C64.8658 59.0182 64.8531 59.0158 64.8413 59.0109C64.8296 59.0059 64.819 58.9985 64.8104 58.9891C64.8018 58.9797 64.7952 58.9686 64.7913 58.9565C64.7873 58.9444 64.786 58.9315 64.7874 58.9189L67.4584 28.2962C67.4613 28.2692 67.474 28.2442 67.4941 28.226C67.5142 28.2078 67.5402 28.1975 67.5673 28.1972C67.58 28.1968 67.5926 28.1991 67.6043 28.2041C67.616 28.2091 67.6264 28.2165 67.6349 28.226C67.6434 28.2354 67.6497 28.2466 67.6534 28.2587C67.6572 28.2708 67.6582 28.2836 67.6564 28.2962L64.9854 58.9189C64.9834 58.9458 64.9713 58.971 64.9514 58.9894C64.9316 59.0078 64.9055 59.0179 64.8785 59.0179Z" fill="#E0E0E0"/>
<path d="M58.1803 59.0179C58.1675 59.0182 58.1548 59.0158 58.1431 59.0109C58.1313 59.0059 58.1208 58.9985 58.1122 58.9891C58.1035 58.9797 58.097 58.9686 58.093 58.9565C58.0891 58.9444 58.0878 58.9315 58.0892 58.9189L60.7602 28.2962C60.7631 28.2692 60.7758 28.2442 60.7959 28.226C60.8159 28.2078 60.842 28.1975 60.8691 28.1972C60.8818 28.1968 60.8944 28.1991 60.9061 28.2041C60.9177 28.2091 60.9282 28.2165 60.9367 28.226C60.9451 28.2354 60.9515 28.2466 60.9552 28.2587C60.9589 28.2708 60.9599 28.2836 60.9582 28.2962L58.2872 58.9189C58.2847 58.9457 58.2725 58.9706 58.2527 58.9889C58.233 59.0071 58.2072 59.0175 58.1803 59.0179Z" fill="#E0E0E0"/>
<path d="M51.4798 59.0179C51.4671 59.0182 51.4544 59.0158 51.4426 59.0109C51.4309 59.0059 51.4203 58.9985 51.4117 58.9891C51.4031 58.9797 51.3966 58.9686 51.3926 58.9565C51.3886 58.9444 51.3873 58.9315 51.3887 58.9189L54.0538 28.2962C54.0563 28.2694 54.0685 28.2444 54.0883 28.2262C54.108 28.2079 54.1338 28.1976 54.1607 28.1972C54.1735 28.1968 54.1862 28.1992 54.1979 28.2042C54.2097 28.2091 54.2202 28.2165 54.2288 28.2259C54.2375 28.2353 54.244 28.2464 54.248 28.2586C54.2519 28.2707 54.2532 28.2835 54.2518 28.2962L51.5887 58.9189C51.5862 58.946 51.5737 58.9712 51.5535 58.9895C51.5334 59.0079 51.5071 59.018 51.4798 59.0179Z" fill="#E0E0E0"/>
<path d="M44.7816 59.0179C44.7689 59.0183 44.7563 59.0159 44.7446 59.0109C44.7329 59.006 44.7225 58.9985 44.714 58.9891C44.7055 58.9796 44.6992 58.9685 44.6955 58.9563C44.6918 58.9442 44.6907 58.9314 44.6925 58.9189L47.3635 28.2962C47.3655 28.2692 47.3776 28.244 47.3975 28.2256C47.4173 28.2073 47.4434 28.1971 47.4704 28.1972C47.4832 28.1968 47.4958 28.1992 47.5076 28.2042C47.5193 28.2091 47.5299 28.2165 47.5385 28.2259C47.5472 28.2353 47.5537 28.2464 47.5576 28.2586C47.5616 28.2707 47.5629 28.2835 47.5615 28.2962L44.8905 58.9189C44.8876 58.9458 44.8749 58.9708 44.8548 58.989C44.8347 59.0073 44.8087 59.0175 44.7816 59.0179Z" fill="#E0E0E0"/>
<path d="M38.0833 59.0179C38.0706 59.0182 38.0579 59.0158 38.0462 59.0109C38.0344 59.0059 38.0239 58.9985 38.0152 58.9891C38.0066 58.9797 38.0001 58.9686 37.9961 58.9565C37.9921 58.9444 37.9908 58.9315 37.9923 58.9189L40.6633 28.2962C40.6662 28.2692 40.6789 28.2442 40.6989 28.226C40.719 28.2078 40.7451 28.1975 40.7722 28.1972C40.7849 28.1968 40.7975 28.1991 40.8091 28.2041C40.8208 28.2091 40.8312 28.2165 40.8397 28.226C40.8482 28.2354 40.8545 28.2466 40.8583 28.2587C40.862 28.2708 40.863 28.2836 40.8613 28.2962L38.1903 58.9189C38.1883 58.9458 38.1761 58.971 38.1563 58.9894C38.1364 59.0078 38.1104 59.0179 38.0833 59.0179Z" fill="#E0E0E0"/>
<path d="M31.3848 59.0179C31.3721 59.0182 31.3594 59.0158 31.3477 59.0109C31.3359 59.0059 31.3254 58.9985 31.3167 58.9891C31.3081 58.9797 31.3016 58.9686 31.2976 58.9565C31.2937 58.9444 31.2923 58.9315 31.2938 58.9189L33.9648 28.2962C33.9677 28.2692 33.9804 28.2442 34.0004 28.226C34.0205 28.2078 34.0466 28.1975 34.0737 28.1972C34.0864 28.1968 34.099 28.1991 34.1106 28.2041C34.1223 28.2091 34.1328 28.2165 34.1412 28.226C34.1497 28.2354 34.1561 28.2466 34.1598 28.2587C34.1635 28.2708 34.1645 28.2836 34.1628 28.2962L31.4918 58.9189C31.4893 58.9457 31.477 58.9706 31.4573 58.9889C31.4376 59.0071 31.4118 59.0175 31.3848 59.0179Z" fill="#E0E0E0"/>
<path d="M58.5425 39.9326H54.4498C54.3688 39.934 54.2884 39.9181 54.214 39.8859C54.1397 39.8537 54.073 39.8061 54.0185 39.7461C53.964 39.6862 53.9228 39.6153 53.8979 39.5382C53.8729 39.4611 53.8646 39.3796 53.8737 39.299L54.1905 35.6657C54.2074 35.4943 54.2868 35.335 54.4134 35.2182C54.5401 35.1014 54.7052 35.0352 54.8775 35.0321H58.9702C59.0514 35.0305 59.132 35.0462 59.2066 35.0783C59.2812 35.1103 59.3481 35.1579 59.4029 35.2179C59.4576 35.2779 59.4989 35.3489 59.524 35.4261C59.5491 35.5033 59.5574 35.585 59.5483 35.6657L59.2315 39.299C59.2145 39.4708 59.1349 39.6304 59.0078 39.7472C58.8807 39.8641 58.7151 39.9301 58.5425 39.9326Z" fill="#407BFF"/>
<path opacity="0.6" d="M58.5425 39.9326H54.4498C54.3688 39.934 54.2884 39.9181 54.214 39.8859C54.1397 39.8537 54.073 39.8061 54.0185 39.7461C53.964 39.6862 53.9228 39.6153 53.8979 39.5382C53.8729 39.4611 53.8646 39.3796 53.8737 39.299L54.1905 35.6657C54.2074 35.4943 54.2868 35.335 54.4134 35.2182C54.5401 35.1014 54.7052 35.0352 54.8775 35.0321H58.9702C59.0514 35.0305 59.132 35.0462 59.2066 35.0783C59.2812 35.1103 59.3481 35.1579 59.4029 35.2179C59.4576 35.2779 59.4989 35.3489 59.524 35.4261C59.5491 35.5033 59.5574 35.585 59.5483 35.6657L59.2315 39.299C59.2145 39.4708 59.1349 39.6304 59.0078 39.7472C58.8807 39.8641 58.7151 39.9301 58.5425 39.9326Z" fill="white"/>
<path d="M87.0982 39.9326H82.7957L83.2214 35.0321H87.5259L85.9082 37.4834L87.0982 39.9326Z" fill="white"/>
<path d="M87.2586 40.0316H82.6868L83.1323 34.9331H87.714L86.033 37.4834L87.2586 40.0316ZM82.9026 39.8336H86.9359L85.7934 37.4834L87.3457 35.1311H83.3124L82.9026 39.8336Z" fill="#407BFF"/>
<path d="M71.367 46.0568H67.2744C67.1933 46.0584 67.1129 46.0427 67.0385 46.0108C66.964 45.9789 66.8972 45.9314 66.8425 45.8717C66.7878 45.8119 66.7464 45.7412 66.7212 45.6642C66.696 45.5872 66.6875 45.5057 66.6962 45.4252L67.013 41.7899C67.0309 41.6186 67.1108 41.4598 67.2378 41.3434C67.3647 41.2271 67.5299 41.1612 67.702 41.1583H71.7947C71.8756 41.157 71.9559 41.1729 72.0302 41.2049C72.1045 41.2369 72.1712 41.2844 72.2258 41.344C72.2805 41.4037 72.3218 41.4743 72.3472 41.5512C72.3725 41.628 72.3813 41.7094 72.3729 41.7899L72.0561 45.4252C72.0382 45.5964 71.9582 45.7552 71.8313 45.8716C71.7043 45.988 71.5392 46.0538 71.367 46.0568Z" fill="#407BFF"/>
<path opacity="0.4" d="M71.367 46.0568H67.2744C67.1933 46.0584 67.1129 46.0427 67.0385 46.0108C66.964 45.9789 66.8972 45.9314 66.8425 45.8717C66.7878 45.8119 66.7464 45.7412 66.7212 45.6642C66.696 45.5872 66.6875 45.5057 66.6962 45.4252L67.013 41.7899C67.0309 41.6186 67.1108 41.4598 67.2378 41.3434C67.3647 41.2271 67.5299 41.1612 67.702 41.1583H71.7947C71.8756 41.157 71.9559 41.1729 72.0302 41.2049C72.1045 41.2369 72.1712 41.2844 72.2258 41.344C72.2805 41.4037 72.3218 41.4743 72.3472 41.5512C72.3725 41.628 72.3813 41.7094 72.3729 41.7899L72.0561 45.4252C72.0382 45.5964 71.9582 45.7552 71.8313 45.8716C71.7043 45.988 71.5392 46.0538 71.367 46.0568Z" fill="white"/>
<path d="M79.2099 33.8085H68.3437C68.2625 33.8101 68.1819 33.7944 68.1073 33.7624C68.0326 33.7303 67.9657 33.6827 67.911 33.6227C67.8562 33.5628 67.8149 33.4918 67.7899 33.4145C67.7648 33.3373 67.7565 33.2556 67.7655 33.1749L68.0823 29.5416C68.0993 29.3701 68.1786 29.2109 68.3053 29.0941C68.4319 28.9773 68.5971 28.911 68.7694 28.908H79.6376C79.7187 28.9067 79.7991 28.9226 79.8736 28.9548C79.9481 28.9869 80.0149 29.0345 80.0695 29.0944C80.1242 29.1544 80.1655 29.2252 80.1907 29.3023C80.2159 29.3794 80.2245 29.461 80.2157 29.5416L79.8989 33.1749C79.8819 33.3467 79.8023 33.5062 79.6752 33.6231C79.5482 33.7399 79.3825 33.8059 79.2099 33.8085Z" fill="#407BFF"/>
<path d="M35.8616 39.105C34.2102 39.105 32.8341 38.5209 31.858 37.4022C30.6047 35.9627 30.4166 34.1768 31.365 32.7393C32.7728 30.6108 36.4417 29.4763 38.8553 29.7911C38.868 29.7927 38.8801 29.7969 38.891 29.8035C38.9019 29.8101 38.9113 29.8189 38.9185 29.8294C38.9258 29.8398 38.9308 29.8517 38.9332 29.8642C38.9357 29.8767 38.9354 29.8896 38.9325 29.902C38.9264 29.9281 38.911 29.9512 38.8892 29.9669C38.8673 29.9825 38.8405 29.9897 38.8137 29.9871C36.4595 29.6802 32.8916 30.7791 31.5293 32.8383C30.4562 34.4619 31.0759 36.1885 32.0144 37.2656C33.3232 38.7664 35.1072 38.9783 36.3704 38.8892C38.784 38.7209 41.4273 37.3408 42.95 35.4559C43.3757 34.9292 44.0291 33.9174 43.6291 33.0799C43.0351 31.8265 41.0551 31.9136 39.4038 32.1275C39.3913 32.1291 39.3787 32.1282 39.3667 32.1247C39.3546 32.1213 39.3434 32.1154 39.3337 32.1074C39.3241 32.0994 39.3161 32.0895 39.3105 32.0783C39.3048 32.0671 39.3015 32.0549 39.3008 32.0423C39.3001 32.0154 39.3094 31.9891 39.327 31.9686C39.3446 31.9481 39.3691 31.9349 39.3959 31.9315C40.5007 31.7869 43.0866 31.4523 43.8093 32.9848C44.2568 33.9273 43.5558 35.0163 43.1004 35.5826C41.5422 37.5111 38.8355 38.9248 36.3684 39.0951C36.1982 39.0991 36.0358 39.105 35.8616 39.105Z" fill="#407BFF"/>
<path d="M68.904 44.9658H68.8882C68.8572 44.9637 68.8274 44.9534 68.8016 44.936C68.7759 44.9186 68.7552 44.8948 68.7417 44.8668C68.5377 44.3999 68.2573 43.9703 67.9121 43.5956C67.8732 43.557 67.8513 43.5046 67.8511 43.4498C67.8509 43.3951 67.8725 43.3425 67.9111 43.3036C67.9497 43.2647 68.0021 43.2428 68.0569 43.2426C68.1117 43.2424 68.1643 43.264 68.2031 43.3026C68.5206 43.6345 68.7833 44.0148 68.9813 44.4292C69.6616 43.7305 70.3987 43.0895 71.185 42.5126C71.2259 42.4808 71.2776 42.4664 71.3291 42.4723C71.3805 42.4782 71.4276 42.504 71.4602 42.5443C71.4753 42.5661 71.4859 42.5907 71.4913 42.6167C71.4967 42.6427 71.4969 42.6696 71.4917 42.6956C71.4865 42.7217 71.4762 42.7464 71.4612 42.7684C71.4463 42.7903 71.4271 42.8091 71.4048 42.8234C70.5613 43.4402 69.7771 44.1342 69.0624 44.8965C69.0422 44.9184 69.0177 44.9358 68.9905 44.9477C68.9632 44.9596 68.9338 44.9658 68.904 44.9658Z" fill="white"/>
<path d="M61.6115 58.0793C61.3268 58.0841 61.0444 58.0282 60.783 57.9155C60.5215 57.8027 60.2871 57.6357 60.0951 57.4254C59.9032 57.2151 59.7582 56.9664 59.6697 56.6958C59.5812 56.4252 59.5513 56.1389 59.582 55.8558C59.6438 55.254 59.9239 54.6957 60.3694 54.2864C60.8148 53.8771 61.3947 53.6451 61.9996 53.6342C62.2841 53.6292 62.5665 53.6848 62.8279 53.7973C63.0894 53.9098 63.3239 54.0767 63.5158 54.2869C63.7078 54.497 63.8528 54.7456 63.9413 55.0161C64.0298 55.2866 64.0597 55.5728 64.0291 55.8558C63.9672 56.4578 63.6872 57.0163 63.2418 57.4259C62.7964 57.8356 62.2165 58.068 61.6115 58.0793ZM61.9738 54.0302C61.478 54.0411 61.0033 54.2326 60.6387 54.5687C60.2742 54.9049 60.0448 55.3625 59.9938 55.8558C59.9685 56.0884 59.993 56.3237 60.0656 56.5461C60.1382 56.7685 60.2573 56.9729 60.415 57.1458C60.5727 57.3186 60.7653 57.456 60.9801 57.5486C61.195 57.6413 61.427 57.6872 61.661 57.6833C62.1569 57.672 62.6317 57.4801 62.9962 57.1436C63.3608 56.8072 63.59 56.3492 63.641 55.8558C63.6657 55.6234 63.6407 55.3885 63.5679 55.1664C63.495 54.9444 63.3758 54.7404 63.2183 54.5678C63.0607 54.3953 62.8683 54.2581 62.6537 54.1654C62.4392 54.0728 62.2075 54.0267 61.9738 54.0302Z" fill="#407BFF"/>
<path d="M42.57 45.8073C42.2853 45.812 42.0029 45.7562 41.7415 45.6434C41.48 45.5307 41.2456 45.3636 41.0536 45.1533C40.8617 44.9431 40.7167 44.6944 40.6282 44.4238C40.5397 44.1531 40.5098 43.8668 40.5405 43.5838C40.6025 42.9805 40.8836 42.4209 41.3307 42.011C41.7777 41.6012 42.3596 41.3696 42.966 41.3602C43.2506 41.3555 43.5331 41.4113 43.7945 41.5241C44.0559 41.6368 44.2904 41.8039 44.4823 42.0142C44.6743 42.2244 44.8193 42.4732 44.9077 42.7438C44.9962 43.0144 45.0261 43.3007 44.9955 43.5838C44.9331 44.1869 44.6518 44.7462 44.2048 45.156C43.7579 45.5657 43.1762 45.7974 42.57 45.8073ZM42.9224 41.7562C42.4263 41.7672 41.9513 41.9589 41.5867 42.2955C41.2221 42.632 40.993 43.0901 40.9424 43.5838C40.9171 43.8163 40.9416 44.0517 41.0142 44.2741C41.0868 44.4965 41.2059 44.7009 41.3636 44.8738C41.5213 45.0466 41.7139 45.1839 41.9287 45.2766C42.1436 45.3693 42.3756 45.4152 42.6096 45.4113C43.1055 45.3999 43.5803 45.208 43.9448 44.8716C44.3093 44.5351 44.5386 44.0772 44.5896 43.5838C44.6145 43.3516 44.5899 43.1167 44.5174 42.8947C44.4449 42.6727 44.3262 42.4687 44.169 42.2959C44.0118 42.1232 43.8198 41.9858 43.6056 41.8928C43.3914 41.7997 43.1599 41.7532 42.9264 41.7562H42.9224Z" fill="#407BFF"/>
<path opacity="0.1" d="M46.439 51.1315H25.8668C25.6769 51.1343 25.4885 51.0967 25.3141 51.0212C25.1398 50.9458 24.9834 50.8342 24.8554 50.6938C24.7274 50.5535 24.6307 50.3875 24.5715 50.207C24.5124 50.0264 24.4923 49.8354 24.5125 49.6465C24.5544 49.2449 24.7415 48.8724 25.0386 48.5989C25.3357 48.3255 25.7225 48.17 26.1262 48.1615H46.6984C46.8883 48.1588 47.0767 48.1964 47.2511 48.2718C47.4254 48.3473 47.5817 48.4589 47.7098 48.5992C47.8378 48.7396 47.9345 48.9055 47.9937 49.0861C48.0528 49.2666 48.0729 49.4576 48.0527 49.6465C48.0108 50.0481 47.8237 50.4207 47.5266 50.6941C47.2295 50.9675 46.8427 51.1231 46.439 51.1315Z" fill="black"/>
<path d="M19.0852 46.4132L19.8574 46.7438L18.8218 48.013C18.6409 47.6978 18.4999 47.3612 18.4021 47.0111C18.3875 46.9599 18.3834 46.9063 18.3901 46.8534C18.3967 46.8006 18.414 46.7496 18.4408 46.7036C18.4676 46.6575 18.5034 46.6174 18.5461 46.5855C18.5887 46.5537 18.6374 46.5307 18.6892 46.5181L19.0852 46.4132Z" fill="#FF8B7B"/>
<path d="M20.2117 48.114L19.7484 48.6288C19.7134 48.6679 19.67 48.6984 19.6214 48.7182C19.5728 48.7379 19.5203 48.7463 19.468 48.7426C19.4156 48.739 19.3648 48.7235 19.3194 48.6972C19.274 48.671 19.2352 48.6347 19.2059 48.5912L18.8218 48.0209L19.8573 46.7518L20.2751 47.7418C20.3022 47.8032 20.3106 47.8712 20.2993 47.9374C20.2881 48.0036 20.2576 48.065 20.2117 48.114Z" fill="#FF8B7B"/>
<path d="M47.4487 50.6325L20.6692 48.51C20.48 48.4975 20.2956 48.4451 20.1281 48.3562C19.9606 48.2674 19.8138 48.1441 19.6973 47.9945C19.5808 47.845 19.4972 47.6724 19.4522 47.4883C19.4071 47.3041 19.4014 47.1125 19.4356 46.926C19.5092 46.5289 19.7253 46.1724 20.0432 45.9234C20.3611 45.6744 20.759 45.55 21.1622 45.5736L47.9417 47.6942C48.131 47.7064 48.3156 47.7586 48.4832 47.8474C48.6509 47.9361 48.7978 48.0594 48.9144 48.2091C49.0309 48.3587 49.1144 48.5314 49.1594 48.7157C49.2044 48.9 49.2098 49.0917 49.1752 49.2782C49.1017 49.6755 48.8857 50.0322 48.5678 50.2816C48.2499 50.5309 47.852 50.6557 47.4487 50.6325Z" fill="#407BFF"/>
<path d="M28.5537 38.1368C28.8883 38.8912 29.2308 39.6653 29.5773 40.4177C29.9238 41.1701 30.2822 41.9344 30.6663 42.5957C30.7478 42.7337 30.8384 42.866 30.9376 42.9917C31.0564 43.1323 31.189 43.2769 31.3237 43.4254C31.5989 43.7204 31.8939 44.0194 32.189 44.3124C32.783 44.9064 33.377 45.5004 33.971 46.1201L33.377 46.8943C32.6265 46.4618 31.8995 45.9899 31.199 45.4806C30.8465 45.2252 30.502 44.9599 30.1575 44.6708C29.9852 44.5262 29.8149 44.3718 29.6407 44.2035C29.4587 44.0133 29.2925 43.8087 29.1437 43.5917C28.6479 42.849 28.2027 42.0737 27.8112 41.2711C27.4251 40.489 27.0707 39.7109 26.74 38.8951L28.5537 38.1368Z" fill="#FF8B7B"/>
<path d="M22.0057 38.016C21.5562 38.7506 21.0949 39.4891 20.6336 40.2197L19.2575 42.4136L19.0892 42.6868L19.0694 42.7225V42.7383V42.7502C19.0595 42.7653 19.0509 42.7812 19.0436 42.7977C18.9976 42.9306 18.9696 43.0692 18.9605 43.2095C18.9379 43.5926 18.9491 43.9769 18.9941 44.3579C19.0793 45.1658 19.2396 46.0192 19.4099 46.8448L18.4912 47.1854C18.0719 46.3727 17.74 45.5179 17.5012 44.6351C17.371 44.1613 17.2933 43.6746 17.2695 43.1838C17.2557 42.887 17.2837 42.5897 17.3527 42.3007C17.3804 42.2136 17.4022 42.1344 17.4398 42.0413L17.5012 41.9067L17.5269 41.8532L17.5448 41.8176L17.6972 41.5186C18.0932 40.7266 18.5308 39.9584 18.9723 39.1981C19.4139 38.4377 19.8732 37.6913 20.3583 36.9508L22.0057 38.016Z" fill="#FF8B7B"/>
<path d="M27.2449 32.5334C27.2092 32.6304 27.231 32.7314 27.2944 32.7591C27.3577 32.7868 27.4389 32.7274 27.4765 32.6284C27.5142 32.5294 27.4904 32.4304 27.427 32.4027C27.3637 32.375 27.2825 32.4344 27.2449 32.5334Z" fill="#263238"/>
<path d="M27.221 32.7294C27.2253 33.0797 27.2759 33.4279 27.3715 33.7649C27.286 33.7853 27.1972 33.7864 27.1112 33.7683C27.0253 33.7501 26.9444 33.7131 26.8745 33.66L27.221 32.7294Z" fill="#FF5652"/>
<path d="M27.6072 31.9552C27.5945 31.9529 27.5827 31.9466 27.5736 31.9374C27.5142 31.8887 27.4441 31.8549 27.369 31.8387C27.294 31.8225 27.2161 31.8244 27.1419 31.8443C27.134 31.8464 27.1257 31.8469 27.1176 31.8457C27.1095 31.8445 27.1017 31.8417 27.0947 31.8374C27.0877 31.8332 27.0816 31.8276 27.0768 31.821C27.072 31.8143 27.0686 31.8068 27.0667 31.7988C27.0631 31.7831 27.0659 31.7665 27.0744 31.7528C27.083 31.7391 27.0965 31.7293 27.1122 31.7255C27.2065 31.7003 27.3054 31.6984 27.4006 31.7197C27.4957 31.7411 27.5843 31.7852 27.6587 31.8483C27.6645 31.854 27.669 31.8608 27.6721 31.8683C27.6753 31.8757 27.6769 31.8838 27.6769 31.8919C27.6769 31.9 27.6753 31.908 27.6721 31.9154C27.669 31.9229 27.6645 31.9297 27.6587 31.9354C27.6523 31.9425 27.6443 31.948 27.6353 31.9514C27.6264 31.9549 27.6168 31.9562 27.6072 31.9552Z" fill="#263238"/>
<path d="M23.6353 32.7274C23.5105 33.7927 23.7145 35.1351 22.9858 35.6697C22.9858 35.6697 23.1383 36.6597 24.8906 36.931C26.8171 37.2161 25.9162 36.1053 25.9162 36.1053C24.8926 35.6954 25.0054 34.9173 25.2688 34.2065L23.6353 32.7274Z" fill="#FF8B7B"/>
<path d="M22.374 36.3389C22.3483 35.8479 22.374 35.1074 22.6789 35.0005C23.0116 34.8836 24.9777 35.0401 25.9638 35.933C25.7381 36.3783 25.6226 36.8713 25.6272 37.3705L22.374 36.3389Z" fill="#263238"/>
<path d="M16.3488 80.5009C16.1705 80.4861 15.9969 80.4363 15.8379 80.3543C15.8324 80.3516 15.8277 80.3474 15.8246 80.3421C15.8214 80.3369 15.8199 80.3308 15.8201 80.3246C15.8205 80.3189 15.8226 80.3134 15.8262 80.3088C15.8297 80.3042 15.8344 80.3008 15.8399 80.2989C15.8577 80.2989 16.2537 80.1405 16.4339 80.2256C16.4533 80.2349 16.4705 80.2482 16.4845 80.2646C16.4985 80.2809 16.5089 80.3 16.5151 80.3207C16.5261 80.3448 16.5292 80.3718 16.5239 80.3978C16.5185 80.4238 16.5051 80.4474 16.4854 80.4652C16.4458 80.4935 16.3971 80.5062 16.3488 80.5009ZM15.931 80.3306C16.1131 80.4117 16.3725 80.4751 16.4418 80.4177C16.4418 80.4177 16.4695 80.3959 16.4418 80.3385C16.4379 80.326 16.4315 80.3145 16.423 80.3046C16.4145 80.2947 16.4041 80.2867 16.3923 80.2811C16.2369 80.2536 16.077 80.2707 15.931 80.3306Z" fill="#407BFF"/>
<path d="M15.8518 80.3583C15.8435 80.358 15.8357 80.3544 15.83 80.3484C15.8272 80.3439 15.8257 80.3388 15.8257 80.3335C15.8257 80.3283 15.8272 80.3231 15.83 80.3187C15.83 80.3029 15.9409 79.9425 16.1151 79.8574C16.1366 79.8476 16.1599 79.8425 16.1834 79.8425C16.207 79.8425 16.2303 79.8476 16.2517 79.8574C16.2749 79.8629 16.2954 79.8765 16.3095 79.8957C16.3237 79.9149 16.3305 79.9385 16.329 79.9623C16.329 80.1108 16.0102 80.3246 15.8676 80.3583H15.8518ZM16.1844 79.9009C16.1666 79.9011 16.149 79.9051 16.1329 79.9128C16.0204 80.0078 15.9396 80.1349 15.9013 80.2771C16.0498 80.2098 16.2537 80.0415 16.2597 79.9524C16.2597 79.9524 16.2597 79.9227 16.222 79.9088C16.2102 79.9035 16.1974 79.9008 16.1844 79.9009Z" fill="#407BFF"/>
<path d="M26.3022 81.077C26.1694 81.0765 26.0368 81.0639 25.9062 81.0394C25.9006 81.0373 25.8958 81.0335 25.8924 81.0285C25.889 81.0236 25.8872 81.0177 25.8872 81.0117C25.8872 81.0057 25.889 80.9998 25.8924 80.9949C25.8958 80.9899 25.9006 80.9861 25.9062 80.984C25.9716 80.9444 26.5497 80.6137 26.6883 80.8434C26.7024 80.8634 26.7099 80.8873 26.7099 80.9117C26.7099 80.9362 26.7024 80.96 26.6883 80.98C26.6289 81.0533 26.4686 81.077 26.3022 81.077ZM25.9993 80.9939C26.2448 81.0295 26.5755 81.0236 26.6309 80.9444C26.6309 80.9444 26.6487 80.9186 26.6309 80.8751C26.5438 80.7444 26.1914 80.8929 25.9993 80.9939Z" fill="#407BFF"/>
<path d="M25.9063 81.0414C25.9012 81.0434 25.8955 81.0434 25.8904 81.0414C25.8858 81.0385 25.882 81.0344 25.8796 81.0295C25.8772 81.0246 25.8761 81.0191 25.8766 81.0137C25.8817 80.8308 25.9456 80.6545 26.0587 80.5108C26.0822 80.491 26.1093 80.4761 26.1385 80.467C26.1677 80.4578 26.1985 80.4545 26.229 80.4573C26.3161 80.4672 26.3419 80.5107 26.3478 80.5464C26.3716 80.6969 26.0766 80.9721 25.9201 81.0434L25.9063 81.0414ZM26.2053 80.5127C26.1661 80.5129 26.1282 80.5269 26.0983 80.5523C26.007 80.6651 25.953 80.8035 25.9439 80.9483C26.1003 80.8513 26.3023 80.6335 26.2864 80.5424C26.2864 80.5424 26.2864 80.5108 26.2231 80.5048L26.2053 80.5127Z" fill="#407BFF"/>
<path d="M24.4749 81.0097H25.7777L25.7916 77.9902H24.4867L24.4749 81.0097Z" fill="#FF8B7B"/>
<path d="M14.3767 80.0752L15.5984 80.3583L16.624 77.3724L15.4023 77.0893L14.3767 80.0752Z" fill="#FF8B7B"/>
<path d="M15.7885 80.1563L14.3689 79.794C14.3441 79.787 14.3177 79.7892 14.2944 79.8001C14.2712 79.811 14.2526 79.8299 14.2421 79.8534L13.7531 80.9246C13.7413 80.9513 13.7355 80.9802 13.7361 81.0094C13.7368 81.0386 13.7439 81.0673 13.757 81.0934C13.77 81.1195 13.7887 81.1424 13.8117 81.1605C13.8346 81.1785 13.8613 81.1913 13.8897 81.1978C14.3887 81.3146 14.6362 81.3463 15.2599 81.5027C15.644 81.5998 16.4281 81.8393 16.9587 81.972C17.4893 82.1047 17.6695 81.5918 17.4616 81.4909C16.533 81.0295 16.2301 80.6414 15.9766 80.2791C15.9303 80.2174 15.8637 80.1739 15.7885 80.1563Z" fill="#263238"/>
<path d="M25.7639 80.8592H24.3402C24.3146 80.8592 24.2897 80.8681 24.2699 80.8843C24.25 80.9005 24.2364 80.9232 24.2313 80.9483L24.0195 82.1066C24.0145 82.1353 24.016 82.1647 24.0237 82.1928C24.0314 82.2208 24.0452 82.2468 24.0641 82.269C24.083 82.2911 24.1065 82.3088 24.1331 82.3207C24.1596 82.3327 24.1884 82.3387 24.2175 82.3383C24.7303 82.3383 25.4708 82.3007 26.1163 82.3007C26.8727 82.3007 26.8865 82.3403 27.7716 82.3403C28.3062 82.3403 28.4349 81.7997 28.2092 81.7463C27.1796 81.5245 26.9855 81.5008 26.0826 80.9543C25.9871 80.894 25.8768 80.8612 25.7639 80.8592Z" fill="#263238"/>
<path d="M21.4593 35.5806C20.2198 35.6796 18.4714 38.7882 18.4714 38.7882L20.7168 40.8217C21.416 40.0389 22.0522 39.202 22.6195 38.3189C23.5006 36.9072 22.7265 35.4796 21.4593 35.5806Z" fill="#407BFF"/>
<path opacity="0.6" d="M21.4593 35.5806C20.2198 35.6796 18.4714 38.7882 18.4714 38.7882L20.7168 40.8217C21.416 40.0389 22.0522 39.202 22.6195 38.3189C23.5006 36.9072 22.7265 35.4796 21.4593 35.5806Z" fill="white"/>
<path opacity="0.2" d="M22.0929 37.818L20.6099 40.7207L20.7148 40.8177C20.7148 40.8177 21.289 40.19 21.9285 39.3248L22.0929 37.818Z" fill="black"/>
<path d="M27.6706 42.5502C27.4469 43.9877 27.0925 45.7657 26.548 47.9556L19.6516 46.926C19.715 45.936 20.7703 41.5226 20.5624 36.7844C20.555 36.6266 20.5802 36.469 20.6363 36.3214C20.6924 36.1737 20.7783 36.0392 20.8886 35.9261C20.9989 35.813 21.1312 35.7238 21.2775 35.664C21.4237 35.6043 21.5806 35.5752 21.7385 35.5786C22.0791 35.5786 22.4533 35.6043 22.8216 35.64C23.8065 35.7298 24.7855 35.8752 25.754 36.0756C26.418 36.2436 27.0681 36.4628 27.6983 36.731C27.6983 36.731 28.1933 37.4576 27.926 40.4811C27.8726 41.081 27.7914 41.7641 27.6706 42.5502Z" fill="#407BFF"/>
<path opacity="0.6" d="M27.6706 42.5502C27.4469 43.9877 27.0925 45.7657 26.548 47.9556L19.6516 46.926C19.715 45.936 20.7703 41.5226 20.5624 36.7844C20.555 36.6266 20.5802 36.469 20.6363 36.3214C20.6924 36.1737 20.7783 36.0392 20.8886 35.9261C20.9989 35.813 21.1312 35.7238 21.2775 35.664C21.4237 35.6043 21.5806 35.5752 21.7385 35.5786C22.0791 35.5786 22.4533 35.6043 22.8216 35.64C23.8065 35.7298 24.7855 35.8752 25.754 36.0756C26.418 36.2436 27.0681 36.4628 27.6983 36.731C27.6983 36.731 28.1933 37.4576 27.926 40.4811C27.8726 41.081 27.7914 41.7641 27.6706 42.5502Z" fill="white"/>
<path opacity="0.2" d="M27.6704 42.5502C27.1101 42.1958 26.5854 40.5702 26.821 39.7129L27.9258 40.4851C27.8724 41.081 27.7912 41.7641 27.6704 42.5502Z" fill="black"/>
<path d="M26.1201 37.62C25.7637 38.808 27.9219 42.3066 27.9219 42.3066L30.4959 40.9602C30.1173 39.8637 29.6094 38.8162 28.9831 37.8398C27.9516 36.3211 26.5319 36.2775 26.1201 37.62Z" fill="#407BFF"/>
<path opacity="0.6" d="M26.1201 37.62C25.7637 38.808 27.9219 42.3066 27.9219 42.3066L30.4959 40.9602C30.1173 39.8637 29.6094 38.8162 28.9831 37.8398C27.9516 36.3211 26.5319 36.2775 26.1201 37.62Z" fill="white"/>
<path opacity="0.2" d="M25.7895 77.9922L25.7836 79.5485H24.4807L24.4867 77.9922H25.7895Z" fill="black"/>
<path opacity="0.2" d="M15.4024 77.0913L16.6241 77.3724L16.0935 78.9129L14.8738 78.6298L15.4024 77.0913Z" fill="black"/>
<path d="M24.0867 30.9751C23.7085 32.2166 23.4253 32.9215 23.7976 33.7927C23.9131 34.0779 24.1047 34.3259 24.3515 34.5097C24.5983 34.6935 24.8909 34.8061 25.1972 34.8351C25.5036 34.8641 25.812 34.8084 26.0889 34.6742C26.3658 34.54 26.6006 34.3323 26.7676 34.0738C27.4289 33.0838 27.9358 31.2266 26.9478 30.2584C26.7404 30.0424 26.4797 29.885 26.192 29.8022C25.9042 29.7194 25.5997 29.7141 25.3093 29.7868C25.0189 29.8596 24.7528 30.0078 24.5381 30.2165C24.3234 30.4252 24.1677 30.6869 24.0867 30.9751Z" fill="#FF8B7B"/>
<path d="M26.0805 32.3393C25.932 32.9749 25.5459 34.1213 24.5955 34.254C24.0648 34.3273 23.1818 34.1708 23.1006 33.7432C23.0194 33.3155 23.3481 33.3729 23.2649 33.0224C23.1818 32.672 22.7481 31.4384 23.2412 30.5752C22.5561 30.6326 23.0253 29.6168 24.2549 29.3872C23.8748 29.2387 24.0569 28.1992 25.9538 28.6942C26.8408 28.9219 27.5001 29.2703 27.5793 29.7475C28.3872 30.0881 28.601 30.9454 28.1001 31.2583C27.5991 31.5711 26.8745 31.2187 26.8745 31.2187C26.8745 31.2187 27.217 33.0323 26.0805 32.3393Z" fill="#263238"/>
<path d="M25.5637 32.2423C25.5463 32.5274 25.6336 32.809 25.8092 33.0343C26.0448 33.3353 26.124 33.3373 26.2211 33.0026C26.3102 32.7017 26.526 32.0285 26.2112 31.8503C25.8963 31.6721 25.5914 31.8958 25.5637 32.2423Z" fill="#FF8B7B"/>
<path d="M24.1026 47.5913C24.1026 47.5913 23.0315 57.816 22.3741 61.5463C21.6415 65.633 16.7747 78.7723 16.7747 78.7723L14.4541 78.1981C15.6421 73.6441 17.4023 65.1638 18.4735 61.9166C19.2813 56.9804 18.4735 50.7751 19.6615 46.93L24.1026 47.5913Z" fill="#263238"/>
<path d="M17.3151 78.012L16.8874 78.8495L14.2817 78.1942L14.4976 77.4022L17.3151 78.012Z" fill="#407BFF"/>
<path opacity="0.2" d="M23.4411 51.579C23.515 51.5643 23.591 51.5643 23.6649 51.579C23.3223 54.6322 22.8352 58.707 22.4511 61.0454C22.1304 57.6477 21.8334 51.8958 23.4411 51.579Z" fill="black"/>
<path d="M26.5478 47.9556C26.5478 47.9556 27.0884 58.8812 27.1676 62.8551C27.2488 66.9893 26.2588 79.2475 26.2588 79.2475H24.0491C24.0491 79.2475 23.2155 67.8803 23.665 62.3363C23.1323 58.113 22.0156 47.2883 22.0156 47.2883L26.5478 47.9556Z" fill="#263238"/>
<path d="M34.5212 45.9954C34.1619 45.9656 33.8006 46.017 33.4639 46.1459L33.3035 46.4112C33.2723 46.4637 33.2534 46.5226 33.2481 46.5834C33.2428 46.6443 33.2514 46.7055 33.2731 46.7626C33.2948 46.8197 33.3291 46.8712 33.3734 46.9132C33.4178 46.9552 33.471 46.9866 33.5292 47.0052L34.3034 47.2527L34.6816 47.3675C34.7612 47.3921 34.8465 47.3911 34.9254 47.3644C35.0043 47.3377 35.0728 47.2869 35.1211 47.219L35.2835 46.9933C35.3418 46.9136 35.3682 46.815 35.3576 46.7169C35.347 46.6187 35.3001 46.528 35.2261 46.4627L34.8776 46.1478C34.7783 46.06 34.6533 46.0065 34.5212 45.9954Z" fill="#FF8B7B"/>
<path d="M26.6489 78.3664L26.5598 79.2832H23.873L23.77 78.4654L26.6489 78.3664Z" fill="#407BFF"/>
</svg>
