<svg width="89" height="81" viewBox="0 0 89 81" fill="none" xmlns="http://www.w3.org/2000/svg">
<path d="M12.9083 73.4276C30.1183 82.4195 58.0252 82.4195 75.2353 73.4276C92.4453 64.4357 92.4473 49.858 75.2353 40.8661C58.0232 31.8742 30.1183 31.8742 12.9083 40.8661C-4.30174 49.858 -4.30378 64.4357 12.9083 73.4276Z" fill="#F5F5F5"/>
<path d="M57.5212 71.1535C62.7111 71.1535 66.9183 69.1484 66.9183 66.675C66.9183 64.2016 62.7111 62.1965 57.5212 62.1965C52.3313 62.1965 48.124 64.2016 48.124 66.675C48.124 69.1484 52.3313 71.1535 57.5212 71.1535Z" fill="#EBEBEB"/>
<path d="M74.168 60.9397C78.172 60.9397 81.4179 59.3928 81.4179 57.4846C81.4179 55.5764 78.172 54.0295 74.168 54.0295C70.1639 54.0295 66.918 55.5764 66.918 57.4846C66.918 59.3928 70.1639 60.9397 74.168 60.9397Z" fill="#EBEBEB"/>
<path d="M22.4957 56.5164C22.0863 54.3549 20.588 51.2744 18.7602 49.5571C17.0019 47.9073 14.3922 47.3321 13.3524 48.0936C12.3126 48.855 12.9942 50.5007 15.0124 52.5066C17.2905 54.7684 21.6647 61.0441 22.4957 64.5995V56.5164Z" fill="#407BFF"/>
<g opacity="0.2">
<path d="M22.4957 56.5164C22.0863 54.3549 20.588 51.2744 18.7602 49.5571C17.0019 47.9073 14.3922 47.3321 13.3524 48.0936C12.3126 48.855 12.9942 50.5007 15.0124 52.5066C17.2905 54.7684 21.6647 61.0441 22.4957 64.5995V56.5164Z" fill="black"/>
</g>
<path d="M22.4957 61.7175C22.47 61.7171 22.4454 61.7073 22.4265 61.6899C22.4077 61.6726 22.3958 61.6488 22.3933 61.6233C21.8775 56.1787 18.0704 50.0586 14.4106 48.7834C14.385 48.7741 14.3641 48.7552 14.3522 48.7307C14.3404 48.7063 14.3385 48.6782 14.3471 48.6524C14.3564 48.6268 14.3753 48.6059 14.3997 48.594C14.4242 48.5822 14.4523 48.5803 14.4781 48.5889C18.273 49.9091 22.0699 55.9924 22.6021 61.6049C22.6044 61.632 22.5961 61.6589 22.5789 61.6799C22.5617 61.7009 22.537 61.7144 22.51 61.7175H22.4957Z" fill="white"/>
<path d="M22.4962 67.2133C22.4962 67.2133 21.788 67.7783 19.4259 67.5572C17.0638 67.3361 15.8459 65.6475 15.8459 64.9229C15.8459 64.1983 18.0176 64.0734 18.4884 62.2763C18.0095 62.7895 17.3725 63.1275 16.679 63.2363C15.4509 63.4676 14.4643 63.0746 14.1839 60.8373C14.7892 60.9258 15.4067 60.8747 15.9892 60.6879C16.9615 60.3747 17.1928 59.8405 16.939 59.7259C16.6851 59.6113 15.3301 59.7259 14.4622 59.3963C13.5944 59.0668 14.2576 54.5473 14.8266 54.226C15.3956 53.9046 18.0872 54.662 18.6112 55.0672C19.0779 55.4275 19.7329 56.0518 19.43 57.372C19.7888 57.0365 20.0685 56.6254 20.2487 56.1684C20.5025 55.5544 20.6868 55.6977 21.0675 55.9331C21.2961 56.0619 21.4945 56.2382 21.6495 56.45C21.8045 56.6618 21.9124 56.9043 21.966 57.1612C22.0582 57.7343 21.9087 59.7116 21.1023 60.3543C21.1023 60.3543 21.876 60.4525 22.5085 59.1466C22.5085 59.1466 23.7366 59.642 24.015 60.4443C24.2933 61.2467 24.5963 65.1746 22.4962 67.2133Z" fill="#407BFF"/>
<path d="M22.7047 67.6595C22.6797 67.6593 22.6556 67.65 22.6368 67.6335C22.618 67.617 22.6058 67.5942 22.6023 67.5695C22.062 63.1462 18.699 57.3351 15.4015 55.1532C15.3787 55.138 15.3628 55.1144 15.3575 55.0875C15.3521 55.0606 15.3576 55.0327 15.3728 55.0099C15.388 54.9871 15.4117 54.9713 15.4385 54.9659C15.4654 54.9605 15.4933 54.9661 15.5161 54.9813C18.8545 57.2021 22.2708 63.0725 22.805 67.5449C22.8085 67.5718 22.8012 67.5989 22.7847 67.6204C22.7682 67.6419 22.7438 67.656 22.717 67.6595H22.7047Z" fill="white"/>
<path d="M22.9113 68.2777C22.7892 68.1931 22.6886 68.0811 22.6175 67.9507C22.5464 67.8202 22.5068 67.6749 22.502 67.5265V18.6249C22.5103 18.471 22.5549 18.3213 22.6321 18.1879C22.7093 18.0545 22.8169 17.9412 22.9461 17.8573L53.6491 0.127367C53.7774 0.0468733 53.9252 0.00288581 54.0767 0.000137206C54.2281 -0.00261139 54.3774 0.0359823 54.5086 0.111767C54.6397 0.187551 54.7477 0.297658 54.821 0.430243C54.8942 0.562828 54.9299 0.712873 54.9243 0.864237L23.771 68.2613C23.6391 68.3315 23.4925 68.3695 23.3431 68.3723C23.1938 68.3752 23.0458 68.3428 22.9113 68.2777Z" fill="#E0E0E0"/>
<path d="M23.3271 19.5541L35.7987 11.3933L34.9676 10.9123L22.9403 17.8573C22.811 17.9412 22.7034 18.0545 22.6262 18.1879C22.549 18.3212 22.5044 18.471 22.4961 18.6249V19.0731L23.3271 19.5541Z" fill="#37474F"/>
<path opacity="0.2" d="M23.3271 19.5541L35.7987 11.3933L34.9676 10.9123L22.9403 17.8573C22.811 17.9412 22.7034 18.0545 22.6262 18.1879C22.549 18.3212 22.5044 18.471 22.4961 18.6249V19.0731L23.3271 19.5541Z" fill="#37474F"/>
<path d="M27.492 20.9931L22.6246 18.193C22.5453 18.325 22.5009 18.475 22.4956 18.629V67.5224C22.4903 67.6736 22.5263 67.8233 22.5997 67.9556C22.6731 68.0879 22.7812 68.1977 22.9123 68.2733C23.0433 68.3488 23.1925 68.3872 23.3438 68.3844C23.495 68.3815 23.6427 68.3376 23.7708 68.2572L27.492 66.1182V20.9931Z" fill="#263238"/>
<path opacity="0.4" d="M27.492 20.9931L22.6246 18.193C22.5453 18.325 22.5009 18.475 22.4956 18.629V67.5224C22.4903 67.6736 22.5263 67.8233 22.5997 67.9556C22.6731 68.0879 22.7812 68.1977 22.9123 68.2733C23.0433 68.3488 23.1925 68.3872 23.3438 68.3844C23.495 68.3815 23.6427 68.3376 23.7708 68.2572L27.492 66.1182V20.9931Z" fill="#263238"/>
<path d="M23.7703 68.2613L54.4733 50.5314C54.6025 50.4474 54.7101 50.3342 54.7873 50.2008C54.8645 50.0674 54.9091 49.9177 54.9175 49.7638V0.864238C54.9175 0.58177 54.7128 0.467146 54.4733 0.60838L23.7703 18.3383C23.6411 18.4222 23.5335 18.5355 23.4563 18.6689C23.3791 18.8023 23.3345 18.952 23.3262 19.1059V68.0054C23.3262 68.2879 23.5247 68.4025 23.7703 68.2613Z" fill="#455A64"/>
<path opacity="0.1" d="M23.7703 68.2613L54.4733 50.5314C54.6025 50.4474 54.7101 50.3342 54.7873 50.2008C54.8645 50.0674 54.9091 49.9177 54.9175 49.7638V0.864238C54.9175 0.58177 54.7128 0.467146 54.4733 0.60838L23.7703 18.3383C23.6411 18.4222 23.5335 18.5355 23.4563 18.6689C23.3791 18.8023 23.3345 18.952 23.3262 19.1059V68.0054C23.3262 68.2879 23.5247 68.4025 23.7703 68.2613Z" fill="#455A64"/>
<path d="M25.8775 30.4005L33.2462 26.143C33.7354 25.8605 34.1325 26.0611 34.1325 26.5913C34.1106 26.8889 34.019 27.1772 33.865 27.4329C33.7111 27.6886 33.4991 27.9044 33.2462 28.063L25.8775 32.3204C25.3863 32.6029 24.9912 32.4023 24.9912 31.8722C25.0126 31.5744 25.104 31.2859 25.258 31.0301C25.4121 30.7744 25.6243 30.5586 25.8775 30.4005Z" fill="#407BFF"/>
<path d="M25.8775 33.4216L30.7552 30.6052C31.2444 30.3227 31.6415 30.5233 31.6415 31.0534C31.6196 31.3511 31.528 31.6394 31.374 31.8951C31.22 32.1507 31.008 32.3666 30.7552 32.5251L25.8775 35.3416C25.3863 35.6241 24.9912 35.4235 24.9912 34.8933C25.0126 34.5956 25.104 34.307 25.258 34.0513C25.4121 33.7956 25.6243 33.5798 25.8775 33.4216Z" fill="#407BFF"/>
<path d="M25.3453 38.592L26.2992 38.0414C26.5038 37.9288 26.6533 38.0209 26.6533 38.2461V39.3473C26.6466 39.4703 26.6111 39.5899 26.5496 39.6966C26.4881 39.8033 26.4023 39.894 26.2992 39.9614L25.3453 40.5038C25.1406 40.6184 24.9912 40.5263 24.9912 40.2991V39.1979C24.9993 39.0764 25.0354 38.9584 25.0969 38.8532C25.1583 38.7481 25.2434 38.6587 25.3453 38.592Z" fill="#407BFF"/>
<path opacity="0.2" d="M25.3453 38.592L26.2992 38.0414C26.5038 37.9288 26.6533 38.0209 26.6533 38.2461V39.3473C26.6466 39.4703 26.6111 39.5899 26.5496 39.6966C26.4881 39.8033 26.4023 39.894 26.2992 39.9614L25.3453 40.5038C25.1406 40.6184 24.9912 40.5263 24.9912 40.2991V39.1979C24.9993 39.0764 25.0354 38.9584 25.0969 38.8532C25.1583 38.7481 25.2434 38.6587 25.3453 38.592Z" fill="black"/>
<path d="M25.3453 42.434L26.2992 41.8834C26.5038 41.7687 26.6533 41.8608 26.6533 42.088V43.1893C26.6461 43.3121 26.6104 43.4316 26.5489 43.5382C26.4875 43.6448 26.4019 43.7356 26.2992 43.8033L25.3453 44.3539C25.1406 44.4665 24.9912 44.3744 24.9912 44.1492V43.048C24.9975 42.925 25.0329 42.8052 25.0945 42.6984C25.156 42.5917 25.242 42.5011 25.3453 42.434Z" fill="#407BFF"/>
<g opacity="0.2">
<path d="M25.3443 42.434L26.2982 41.8834C26.5029 41.7687 26.6523 41.8608 26.6523 42.088V43.1893C26.6452 43.3121 26.6094 43.4316 26.548 43.5382C26.4865 43.6448 26.4009 43.7356 26.2982 43.8033L25.3443 44.3539C25.1397 44.4665 24.9902 44.3744 24.9902 44.1492V43.048C24.9966 42.925 25.0319 42.8052 25.0935 42.6984C25.155 42.5917 25.241 42.5011 25.3443 42.434Z" fill="black"/>
</g>
<path d="M27.9276 41.4228L33.6915 38.0926C33.9372 37.9513 34.1357 38.0516 34.1357 38.3177C34.1246 38.4665 34.0786 38.6105 34.0014 38.7382C33.9242 38.8659 33.8181 38.9736 33.6915 39.0525L27.9276 42.3828C27.6819 42.524 27.4834 42.4237 27.4834 42.1576C27.4945 42.0089 27.5405 41.8648 27.6177 41.7372C27.6949 41.6095 27.801 41.5018 27.9276 41.4228Z" fill="#407BFF"/>
<path opacity="0.2" d="M27.9276 41.4228L33.6915 38.0926C33.9372 37.9513 34.1357 38.0516 34.1357 38.3177C34.1246 38.4665 34.0786 38.6105 34.0014 38.7382C33.9242 38.8659 33.8181 38.9736 33.6915 39.0525L27.9276 42.3828C27.6819 42.524 27.4834 42.4237 27.4834 42.1576C27.4945 42.0089 27.5405 41.8648 27.6177 41.7372C27.6949 41.6095 27.801 41.5018 27.9276 41.4228Z" fill="black"/>
<path d="M25.3453 46.2739L26.2992 45.7233C26.5038 45.6087 26.6533 45.7008 26.6533 45.928V47.0292C26.6463 47.1521 26.6106 47.2717 26.5492 47.3783C26.4877 47.4849 26.402 47.5757 26.2992 47.6433L25.3453 48.1939C25.1406 48.3064 24.9912 48.2143 24.9912 47.9892V46.888C24.9975 46.7649 25.0329 46.6451 25.0945 46.5384C25.156 46.4316 25.242 46.341 25.3453 46.2739Z" fill="#E0E0E0"/>
<path d="M27.9276 45.2627L33.6915 41.9366C33.9372 41.7954 34.1357 41.8957 34.1357 42.1618C34.1249 42.3106 34.079 42.4548 34.0018 42.5825C33.9246 42.7102 33.8183 42.8178 33.6915 42.8966L27.9276 46.2268C27.6819 46.3681 27.4834 46.2678 27.4834 46.0017C27.4939 45.8522 27.5396 45.7073 27.6168 45.5789C27.694 45.4505 27.8005 45.3421 27.9276 45.2627Z" fill="#F0F0F0"/>
<path d="M25.3453 50.124L26.2992 49.5734C26.5038 49.4588 26.6533 49.5509 26.6533 49.7781V50.8793C26.6463 51.0022 26.6106 51.1218 26.5492 51.2284C26.4877 51.3351 26.402 51.4258 26.2992 51.4934L25.3453 52.044C25.1406 52.1566 24.9912 52.0645 24.9912 51.8393V50.7381C24.9975 50.615 25.0329 50.4952 25.0945 50.3885C25.156 50.2818 25.242 50.1911 25.3453 50.124Z" fill="#E0E0E0"/>
<path d="M27.9276 49.1129L33.6915 45.7847C33.9372 45.6414 34.1357 45.7438 34.1357 46.0078C34.1249 46.1569 34.079 46.3014 34.0018 46.4294C33.9247 46.5575 33.8183 46.6655 33.6915 46.7447L27.9276 50.0729C27.6819 50.2141 27.4834 50.1138 27.4834 49.8477C27.4945 49.699 27.5405 49.5549 27.6177 49.4272C27.6949 49.2996 27.801 49.1919 27.9276 49.1129Z" fill="#F0F0F0"/>
<path d="M25.3453 53.964L26.2992 53.4134C26.5038 53.2987 26.6533 53.3908 26.6533 53.618V54.7193C26.6463 54.8422 26.6106 54.9617 26.5492 55.0683C26.4877 55.175 26.402 55.2657 26.2992 55.3333L25.3453 55.8839C25.1406 55.9965 24.9912 55.9044 24.9912 55.6792V54.578C24.9975 54.455 25.0329 54.3352 25.0945 54.2284C25.156 54.1217 25.242 54.0311 25.3453 53.964Z" fill="#E0E0E0"/>
<path d="M27.9276 52.9528L33.6915 49.6246C33.9372 49.4814 34.1357 49.5837 34.1357 49.8477C34.1249 49.9969 34.079 50.1413 34.0018 50.2694C33.9247 50.3974 33.8183 50.5054 33.6915 50.5846L27.9276 53.9128C27.6819 54.054 27.4834 53.9537 27.4834 53.6877C27.4945 53.5389 27.5405 53.3948 27.6177 53.2672C27.6949 53.1395 27.801 53.0318 27.9276 52.9528Z" fill="#F0F0F0"/>
<path d="M25.4333 57.7425L29.5271 55.3742C29.7727 55.233 29.9712 55.3333 29.9712 55.5994C29.9601 55.7482 29.9141 55.8922 29.8369 56.0199C29.7598 56.1475 29.6536 56.2552 29.5271 56.3342L25.4333 58.7024C25.1898 58.8437 24.9912 58.7434 24.9912 58.4793C25.002 58.3305 25.0476 58.1862 25.1244 58.0582C25.2012 57.9302 25.307 57.822 25.4333 57.7425Z" fill="#407BFF"/>
<path d="M25.4333 59.6624L33.6924 54.8953C33.938 54.754 34.1366 54.8543 34.1366 55.1184C34.1258 55.2675 34.0799 55.412 34.0027 55.54C33.9256 55.668 33.8192 55.7761 33.6924 55.8553L25.4333 60.6224C25.1898 60.7636 24.9912 60.6633 24.9912 60.3993C25.002 60.2504 25.0476 60.1061 25.1244 59.9781C25.2012 59.8501 25.307 59.742 25.4333 59.6624Z" fill="#407BFF"/>
<path opacity="0.8" d="M25.4333 59.6624L33.6924 54.8953C33.938 54.754 34.1366 54.8543 34.1366 55.1184C34.1258 55.2675 34.0799 55.412 34.0027 55.54C33.9256 55.668 33.8192 55.7761 33.6924 55.8553L25.4333 60.6224C25.1898 60.7636 24.9912 60.6633 24.9912 60.3993C25.002 60.2504 25.0476 60.1061 25.1244 59.9781C25.2012 59.8501 25.307 59.742 25.4333 59.6624Z" fill="white"/>
<path d="M25.4333 59.6624L31.1993 56.3342C31.4429 56.193 31.6415 56.2933 31.6415 56.5594C31.6304 56.7079 31.5846 56.8518 31.5079 56.9794C31.4311 57.1071 31.3254 57.2149 31.1993 57.2942L25.4333 60.6224C25.1898 60.7637 24.9912 60.6634 24.9912 60.3993C25.002 60.2504 25.0476 60.1061 25.1244 59.9781C25.2012 59.8501 25.307 59.742 25.4333 59.6624Z" fill="#407BFF"/>
<path d="M25.4333 61.5865L29.5271 59.2182C29.7727 59.077 29.9712 59.1773 29.9712 59.4434C29.9601 59.5922 29.9141 59.7362 29.8369 59.8639C29.7598 59.9915 29.6536 60.0992 29.5271 60.1782L25.4333 62.5464C25.1898 62.6877 24.9912 62.5874 24.9912 62.3233C25.002 62.1744 25.0476 62.0302 25.1244 61.9022C25.2012 61.7742 25.307 61.666 25.4333 61.5865Z" fill="#407BFF"/>
<path d="M27.9276 37.5809L33.6915 34.2527C33.9372 34.1114 34.1357 34.2117 34.1357 34.4778C34.1246 34.6266 34.0786 34.7706 34.0014 34.8983C33.9242 35.026 33.8181 35.1336 33.6915 35.2126L27.9276 38.5408C27.6819 38.6821 27.4834 38.5818 27.4834 38.3177C27.4942 38.1686 27.5401 38.0242 27.6173 37.8961C27.6944 37.7681 27.8008 37.6601 27.9276 37.5809Z" fill="#407BFF"/>
<path opacity="0.2" d="M27.9276 37.5809L33.6915 34.2527C33.9372 34.1114 34.1357 34.2117 34.1357 34.4778C34.1246 34.6266 34.0786 34.7706 34.0014 34.8983C33.9242 35.026 33.8181 35.1336 33.6915 35.2126L27.9276 38.5408C27.6819 38.6821 27.4834 38.5818 27.4834 38.3177C27.4942 38.1686 27.5401 38.0242 27.6173 37.8961C27.6944 37.7681 27.8008 37.6601 27.9276 37.5809Z" fill="black"/>
<path d="M25.4333 61.5865L29.5271 59.2182C29.7727 59.077 29.9712 59.1773 29.9712 59.4434C29.9601 59.5922 29.9141 59.7362 29.8369 59.8639C29.7598 59.9915 29.6536 60.0992 29.5271 60.1782L25.4333 62.5464C25.1898 62.6877 24.9912 62.5874 24.9912 62.3233C25.002 62.1744 25.0476 62.0302 25.1244 61.9022C25.2012 61.7742 25.307 61.666 25.4333 61.5865Z" fill="#407BFF"/>
<path d="M25.4333 63.5003L33.6924 58.7331C33.938 58.5919 34.1366 58.6922 34.1366 58.9562C34.1258 59.1054 34.0799 59.2498 34.0027 59.3779C33.9256 59.5059 33.8192 59.6139 33.6924 59.6931L25.4333 64.4521C25.1898 64.5953 24.9912 64.493 24.9912 64.229C25.0032 64.0815 25.0494 63.9389 25.1261 63.8124C25.2029 63.6859 25.3081 63.579 25.4333 63.5003Z" fill="#407BFF"/>
<path opacity="0.8" d="M25.4333 63.5003L33.6924 58.7331C33.938 58.5919 34.1366 58.6922 34.1366 58.9562C34.1258 59.1054 34.0799 59.2498 34.0027 59.3779C33.9256 59.5059 33.8192 59.6139 33.6924 59.6931L25.4333 64.4521C25.1898 64.5953 24.9912 64.493 24.9912 64.229C25.0032 64.0815 25.0494 63.9389 25.1261 63.8124C25.2029 63.6859 25.3081 63.579 25.4333 63.5003Z" fill="white"/>
<path d="M25.4333 63.5003L32.8614 59.2019C33.107 59.0607 33.3056 59.1609 33.3056 59.427C33.2944 59.5758 33.2484 59.7198 33.1713 59.8475C33.0941 59.9752 32.9879 60.0829 32.8614 60.1619L25.4333 64.4603C25.1898 64.6036 24.9912 64.5012 24.9912 64.2372C25.002 64.0883 25.0476 63.944 25.1244 63.816C25.2012 63.688 25.307 63.5798 25.4333 63.5003Z" fill="#407BFF"/>
<path d="M54.4775 0.608382L35.7979 11.3933V61.3163L54.4775 50.5334C54.6068 50.4495 54.7144 50.3362 54.7916 50.2028C54.8688 50.0695 54.9133 49.9197 54.9217 49.7658V0.86424C54.9196 0.58996 54.715 0.467148 54.4775 0.608382Z" fill="#EBEBEB"/>
<path opacity="0.6" d="M54.4775 0.608382L35.7979 11.3933V61.3163L54.4775 50.5334C54.6068 50.4495 54.7144 50.3362 54.7916 50.2028C54.8688 50.0695 54.9133 49.9197 54.9217 49.7658V0.86424C54.9196 0.58996 54.715 0.467148 54.4775 0.608382Z" fill="#FAFAFA"/>
<path d="M35.7978 13.3133V17.1532L34.1357 19.0731H35.7978V22.913L53.2575 12.8322V3.23245L35.7978 13.3133Z" fill="#407BFF"/>
<g opacity="0.6">
<path d="M38.0818 13.4463L45.1558 9.35256C45.4976 9.14787 45.7698 9.31571 45.7698 9.71076C45.7586 9.9254 45.6972 10.1344 45.5905 10.321C45.4839 10.5076 45.335 10.6667 45.1558 10.7854L38.0818 14.8689C37.738 15.0735 37.4678 14.9057 37.4678 14.5107C37.4801 14.2977 37.5421 14.0905 37.6487 13.9057C37.7553 13.7209 37.9036 13.5636 38.0818 13.4463Z" fill="white"/>
</g>
<path d="M37.683 16.5555L51.3744 8.65051C51.4973 8.58091 51.5955 8.63004 51.5955 8.76309C51.5902 8.83755 51.5674 8.90972 51.529 8.97374C51.4906 9.03775 51.4377 9.09181 51.3744 9.13152L37.683 17.0263C37.5602 17.0959 37.4619 17.0467 37.4619 16.9137C37.4687 16.841 37.4922 16.7709 37.5306 16.7088C37.5689 16.6466 37.6211 16.5942 37.683 16.5555Z" fill="#407BFF"/>
<path d="M37.683 16.5555L51.3744 8.65051C51.4973 8.58091 51.5955 8.63004 51.5955 8.76309C51.5902 8.83755 51.5674 8.90972 51.529 8.97374C51.4906 9.03775 51.4377 9.09181 51.3744 9.13152L37.683 17.0263C37.5602 17.0959 37.4619 17.0467 37.4619 16.9137C37.4687 16.841 37.4922 16.7709 37.5306 16.7088C37.5689 16.6466 37.6211 16.5942 37.683 16.5555Z" fill="#407BFF"/>
<path opacity="0.6" d="M37.683 16.5555L51.3744 8.65051C51.4973 8.58091 51.5955 8.63004 51.5955 8.76309C51.5902 8.83755 51.5674 8.90972 51.529 8.97374C51.4906 9.03775 51.4377 9.09181 51.3744 9.13152L37.683 17.0263C37.5602 17.0959 37.4619 17.0467 37.4619 16.9137C37.4687 16.841 37.4922 16.7709 37.5306 16.7088C37.5689 16.6466 37.6211 16.5942 37.683 16.5555Z" fill="white"/>
<path d="M37.683 17.9883L51.3744 10.0833C51.4973 10.0117 51.5955 10.0628 51.5955 10.1959C51.5902 10.2701 51.5674 10.342 51.529 10.4057C51.4906 10.4693 51.4376 10.523 51.3744 10.5623L37.683 18.4673C37.5602 18.5389 37.4619 18.4877 37.4619 18.3547C37.4672 18.2805 37.49 18.2086 37.5284 18.1449C37.5668 18.0812 37.6198 18.0276 37.683 17.9883Z" fill="#407BFF"/>
<path opacity="0.6" d="M37.683 17.9883L51.3744 10.0833C51.4973 10.0117 51.5955 10.0628 51.5955 10.1959C51.5902 10.2701 51.5674 10.342 51.529 10.4057C51.4906 10.4693 51.4376 10.523 51.3744 10.5623L37.683 18.4673C37.5602 18.5389 37.4619 18.4877 37.4619 18.3547C37.4672 18.2805 37.49 18.2086 37.5284 18.1449C37.5668 18.0812 37.6198 18.0276 37.683 17.9883Z" fill="white"/>
<path opacity="0.6" d="M37.683 19.4211L51.3744 11.5161C51.4973 11.4465 51.5955 11.4956 51.5955 11.6287C51.5902 11.7032 51.5674 11.7753 51.529 11.8393C51.4906 11.9034 51.4377 11.9574 51.3744 11.9971L37.683 19.9021C37.5602 19.9717 37.4619 19.9226 37.4619 19.7895C37.4672 19.7151 37.49 19.6429 37.5284 19.5789C37.5668 19.5149 37.6198 19.4608 37.683 19.4211Z" fill="white"/>
<path d="M38.1995 23.4534L39.1595 22.9008C39.3642 22.7861 39.5136 22.8783 39.5136 23.1055V24.2067C39.5068 24.3296 39.4712 24.4492 39.4097 24.5559C39.3482 24.6625 39.2625 24.7533 39.1595 24.8207L38.2057 25.3713C38.001 25.4839 37.8516 25.3918 37.8516 25.1666V24.0675C37.8572 23.945 37.8916 23.8255 37.9521 23.7188C38.0126 23.6121 38.0973 23.5212 38.1995 23.4534Z" fill="#407BFF"/>
<path opacity="0.2" d="M38.1995 23.4534L39.1595 22.9008C39.3642 22.7861 39.5136 22.8783 39.5136 23.1055V24.2067C39.5068 24.3296 39.4712 24.4492 39.4097 24.5559C39.3482 24.6625 39.2625 24.7533 39.1595 24.8207L38.2057 25.3713C38.001 25.4839 37.8516 25.3918 37.8516 25.1666V24.0675C37.8572 23.945 37.8916 23.8255 37.9521 23.7188C38.0126 23.6121 38.0973 23.5212 38.1995 23.4534Z" fill="white"/>
<path d="M40.7821 22.4423L46.546 19.112C46.7917 18.9708 46.9902 19.0711 46.9902 19.3372C46.9791 19.4859 46.9331 19.63 46.8559 19.7577C46.7787 19.8853 46.6726 19.993 46.546 20.072L40.7821 23.4022C40.5364 23.5435 40.3379 23.4432 40.3379 23.1771C40.349 23.0283 40.395 22.8843 40.4722 22.7566C40.5494 22.629 40.6555 22.5213 40.7821 22.4423Z" fill="#407BFF"/>
<path opacity="0.8" d="M40.7821 22.4423L46.546 19.112C46.7917 18.9708 46.9902 19.0711 46.9902 19.3372C46.9791 19.4859 46.9331 19.63 46.8559 19.7577C46.7787 19.8853 46.6726 19.993 46.546 20.072L40.7821 23.4022C40.5364 23.5435 40.3379 23.4432 40.3379 23.1771C40.349 23.0283 40.395 22.8843 40.4722 22.7566C40.5494 22.629 40.6555 22.5213 40.7821 22.4423Z" fill="white"/>
<path d="M38.0658 26.8922L52.5985 18.5C52.7213 18.4284 52.8196 18.4795 52.8196 18.6105C52.8144 18.6851 52.7917 18.7573 52.7533 18.8213C52.7149 18.8854 52.6618 18.9394 52.5985 18.979L38.0658 27.3711C37.943 27.4428 37.8447 27.3916 37.8447 27.2585C37.85 27.1843 37.8728 27.1125 37.9112 27.0488C37.9496 26.9851 38.0026 26.9314 38.0658 26.8922Z" fill="#407BFF"/>
<path d="M38.0658 28.3311L52.5985 19.9389C52.7213 19.8694 52.8196 19.9185 52.8196 20.0515C52.8143 20.126 52.7915 20.1982 52.7531 20.2622C52.7147 20.3262 52.6617 20.3802 52.5985 20.42L38.0658 28.8121C37.943 28.8817 37.8447 28.8326 37.8447 28.6995C37.85 28.6251 37.8728 28.5529 37.9112 28.4889C37.9496 28.4249 38.0026 28.3708 38.0658 28.3311Z" fill="#407BFF"/>
<path d="M38.0658 29.7721L52.5985 21.3799C52.7213 21.3083 52.8196 21.3595 52.8196 21.4905C52.8144 21.565 52.7917 21.6372 52.7533 21.7012C52.7149 21.7653 52.6618 21.8193 52.5985 21.8589L38.0658 30.251C37.943 30.3227 37.8447 30.2715 37.8447 30.1405C37.8499 30.066 37.8726 29.9938 37.911 29.9297C37.9494 29.8657 38.0025 29.8117 38.0658 29.7721Z" fill="#407BFF"/>
<path d="M38.0658 31.2151L52.5985 22.823C52.7213 22.7534 52.8196 22.8025 52.8196 22.9356C52.8143 23.01 52.7915 23.0822 52.7531 23.1462C52.7147 23.2102 52.6617 23.2643 52.5985 23.304L38.0658 31.6961C37.943 31.7657 37.8447 31.7166 37.8447 31.5836C37.85 31.5091 37.8728 31.4369 37.9112 31.3729C37.9496 31.3089 38.0026 31.2548 38.0658 31.2151Z" fill="#407BFF"/>
<path d="M38.0658 26.8922L52.5985 18.5C52.7213 18.4284 52.8196 18.4795 52.8196 18.6105C52.8144 18.6851 52.7917 18.7573 52.7533 18.8213C52.7149 18.8854 52.6618 18.9394 52.5985 18.979L38.0658 27.3711C37.943 27.4428 37.8447 27.3916 37.8447 27.2585C37.85 27.1843 37.8728 27.1125 37.9112 27.0488C37.9496 26.9851 38.0026 26.9314 38.0658 26.8922Z" fill="#E0E0E0"/>
<path d="M38.0658 28.3311L52.5985 19.9389C52.7213 19.8694 52.8196 19.9185 52.8196 20.0515C52.8143 20.126 52.7915 20.1982 52.7531 20.2622C52.7147 20.3262 52.6617 20.3802 52.5985 20.42L38.0658 28.8121C37.943 28.8817 37.8447 28.8326 37.8447 28.6995C37.85 28.6251 37.8728 28.5529 37.9112 28.4889C37.9496 28.4249 38.0026 28.3708 38.0658 28.3311Z" fill="#E0E0E0"/>
<path d="M38.0658 29.7721L52.5985 21.3799C52.7213 21.3083 52.8196 21.3595 52.8196 21.4905C52.8144 21.565 52.7917 21.6372 52.7533 21.7012C52.7149 21.7653 52.6618 21.8193 52.5985 21.8589L38.0658 30.251C37.943 30.3227 37.8447 30.2715 37.8447 30.1405C37.8499 30.066 37.8726 29.9938 37.911 29.9297C37.9494 29.8657 38.0025 29.8117 38.0658 29.7721Z" fill="#E0E0E0"/>
<path d="M38.0658 31.2151L52.5985 22.823C52.7213 22.7534 52.8196 22.8025 52.8196 22.9356C52.8143 23.01 52.7915 23.0822 52.7531 23.1462C52.7147 23.2102 52.6617 23.2643 52.5985 23.304L38.0658 31.6961C37.943 31.7657 37.8447 31.7166 37.8447 31.5836C37.85 31.5091 37.8728 31.4369 37.9112 31.3729C37.9496 31.3089 38.0026 31.2548 38.0658 31.2151Z" fill="#E0E0E0"/>
<path opacity="0.8" d="M38.0658 26.8922L52.5985 18.5C52.7213 18.4284 52.8196 18.4795 52.8196 18.6105C52.8144 18.6851 52.7917 18.7573 52.7533 18.8213C52.7149 18.8854 52.6618 18.9394 52.5985 18.979L38.0658 27.3711C37.943 27.4428 37.8447 27.3916 37.8447 27.2585C37.85 27.1843 37.8728 27.1125 37.9112 27.0488C37.9496 26.9851 38.0026 26.9314 38.0658 26.8922Z" fill="#E0E0E0"/>
<path opacity="0.8" d="M38.0658 28.3311L52.5985 19.9389C52.7213 19.8694 52.8196 19.9185 52.8196 20.0515C52.8143 20.126 52.7915 20.1982 52.7531 20.2622C52.7147 20.3262 52.6617 20.3802 52.5985 20.42L38.0658 28.8121C37.943 28.8817 37.8447 28.8326 37.8447 28.6995C37.85 28.6251 37.8728 28.5529 37.9112 28.4889C37.9496 28.4249 38.0026 28.3708 38.0658 28.3311Z" fill="#E0E0E0"/>
<path opacity="0.8" d="M38.0658 29.7721L52.5985 21.3799C52.7213 21.3083 52.8196 21.3595 52.8196 21.4905C52.8144 21.565 52.7917 21.6372 52.7533 21.7012C52.7149 21.7653 52.6618 21.8193 52.5985 21.8589L38.0658 30.251C37.943 30.3227 37.8447 30.2715 37.8447 30.1405C37.8499 30.066 37.8726 29.9938 37.911 29.9297C37.9494 29.8657 38.0025 29.8117 38.0658 29.7721Z" fill="#E0E0E0"/>
<path opacity="0.8" d="M38.0658 31.2151L52.5985 22.823C52.7213 22.7534 52.8196 22.8025 52.8196 22.9356C52.8143 23.01 52.7915 23.0822 52.7531 23.1462C52.7147 23.2102 52.6617 23.2643 52.5985 23.304L38.0658 31.6961C37.943 31.7657 37.8447 31.7166 37.8447 31.5836C37.85 31.5091 37.8728 31.4369 37.9112 31.3729C37.9496 31.3089 38.0026 31.2548 38.0658 31.2151Z" fill="#E0E0E0"/>
<path d="M38.0658 37.3311L52.5985 28.939C52.7213 28.8674 52.8196 28.9185 52.8196 29.0495C52.8144 29.124 52.7917 29.1963 52.7533 29.2603C52.7149 29.3244 52.6618 29.3784 52.5985 29.418L38.0658 37.8101C37.943 37.8818 37.8447 37.8306 37.8447 37.6975C37.85 37.6233 37.8728 37.5515 37.9112 37.4878C37.9496 37.4241 38.0026 37.3704 38.0658 37.3311Z" fill="#E0E0E0"/>
<path d="M38.0658 38.7701L52.5985 30.378C52.7213 30.3084 52.8196 30.3575 52.8196 30.4905C52.8143 30.565 52.7915 30.6372 52.7531 30.7012C52.7147 30.7652 52.6617 30.8193 52.5985 30.859L38.0658 39.2511C37.943 39.3207 37.8447 39.2716 37.8447 39.1385C37.85 39.0641 37.8728 38.9919 37.9112 38.9279C37.9496 38.8639 38.0026 38.8098 38.0658 38.7701Z" fill="#E0E0E0"/>
<path d="M38.0658 40.2111L52.5985 31.8189C52.7213 31.7473 52.8196 31.7985 52.8196 31.9295C52.8144 32.004 52.7917 32.0762 52.7533 32.1402C52.7149 32.2043 52.6618 32.2583 52.5985 32.2979L38.0658 40.69C37.943 40.7617 37.8447 40.7105 37.8447 40.5795C37.8499 40.505 37.8726 40.4328 37.911 40.3687C37.9494 40.3047 38.0025 40.2507 38.0658 40.2111Z" fill="#E0E0E0"/>
<path d="M38.0658 41.6541L52.5985 33.262C52.7213 33.1924 52.8196 33.2415 52.8196 33.3746C52.8143 33.449 52.7915 33.5212 52.7531 33.5852C52.7147 33.6492 52.6617 33.7033 52.5985 33.743L38.0658 42.1351C37.943 42.2047 37.8447 42.1556 37.8447 42.0226C37.85 41.9481 37.8728 41.8759 37.9112 41.8119C37.9496 41.7479 38.0026 41.6938 38.0658 41.6541Z" fill="#E0E0E0"/>
<path opacity="0.8" d="M38.0658 37.3311L52.5985 28.939C52.7213 28.8674 52.8196 28.9185 52.8196 29.0495C52.8144 29.124 52.7917 29.1963 52.7533 29.2603C52.7149 29.3244 52.6618 29.3784 52.5985 29.418L38.0658 37.8101C37.943 37.8818 37.8447 37.8306 37.8447 37.6975C37.85 37.6233 37.8728 37.5515 37.9112 37.4878C37.9496 37.4241 38.0026 37.3704 38.0658 37.3311Z" fill="#E0E0E0"/>
<path opacity="0.8" d="M38.0658 38.7701L52.5985 30.378C52.7213 30.3084 52.8196 30.3575 52.8196 30.4905C52.8143 30.565 52.7915 30.6372 52.7531 30.7012C52.7147 30.7652 52.6617 30.8193 52.5985 30.859L38.0658 39.2511C37.943 39.3207 37.8447 39.2716 37.8447 39.1385C37.85 39.0641 37.8728 38.9919 37.9112 38.9279C37.9496 38.8639 38.0026 38.8098 38.0658 38.7701Z" fill="#E0E0E0"/>
<path opacity="0.8" d="M38.0658 40.2111L52.5985 31.8189C52.7213 31.7473 52.8196 31.7985 52.8196 31.9295C52.8144 32.004 52.7917 32.0762 52.7533 32.1402C52.7149 32.2043 52.6618 32.2583 52.5985 32.2979L38.0658 40.69C37.943 40.7617 37.8447 40.7105 37.8447 40.5795C37.8499 40.505 37.8726 40.4328 37.911 40.3687C37.9494 40.3047 38.0025 40.2507 38.0658 40.2111Z" fill="#E0E0E0"/>
<path opacity="0.8" d="M38.0658 41.6541L52.5985 33.262C52.7213 33.1924 52.8196 33.2415 52.8196 33.3746C52.8143 33.449 52.7915 33.5212 52.7531 33.5852C52.7147 33.6492 52.6617 33.7033 52.5985 33.743L38.0658 42.1351C37.943 42.2047 37.8447 42.1556 37.8447 42.0226C37.85 41.9481 37.8728 41.8759 37.9112 41.8119C37.9496 41.7479 38.0026 41.6938 38.0658 41.6541Z" fill="#E0E0E0"/>
<path d="M38.0658 47.9748L52.5985 39.5827C52.7213 39.5111 52.8196 39.5622 52.8196 39.6932C52.8144 39.7677 52.7917 39.84 52.7533 39.904C52.7149 39.9681 52.6618 40.0221 52.5985 40.0617L38.0658 48.4538C37.943 48.5254 37.8447 48.4743 37.8447 48.3412C37.85 48.267 37.8728 48.1952 37.9112 48.1315C37.9496 48.0678 38.0026 48.0141 38.0658 47.9748Z" fill="#E0E0E0"/>
<path d="M38.0658 49.4138L52.5985 41.0216C52.7213 40.9521 52.8196 41.0012 52.8196 41.1342C52.8143 41.2087 52.7915 41.2809 52.7531 41.3449C52.7147 41.4089 52.6617 41.4629 52.5985 41.5027L38.0658 49.8948C37.943 49.9644 37.8447 49.9153 37.8447 49.7822C37.85 49.7078 37.8728 49.6356 37.9112 49.5716C37.9496 49.5076 38.0026 49.4535 38.0658 49.4138Z" fill="#E0E0E0"/>
<path d="M38.0658 50.8548L52.5985 42.4626C52.7213 42.391 52.8196 42.4421 52.8196 42.5731C52.8144 42.6476 52.7917 42.7199 52.7533 42.7839C52.7149 42.848 52.6618 42.902 52.5985 42.9416L38.0658 51.3337C37.943 51.4054 37.8447 51.3542 37.8447 51.2232C37.8499 51.1487 37.8726 51.0765 37.911 51.0124C37.9494 50.9484 38.0025 50.8943 38.0658 50.8548Z" fill="#E0E0E0"/>
<path d="M38.0658 52.2978L52.5985 43.9057C52.7213 43.8361 52.8196 43.8852 52.8196 44.0183C52.8143 44.0927 52.7915 44.1649 52.7531 44.2289C52.7147 44.2929 52.6617 44.347 52.5985 44.3867L38.0658 52.7788C37.943 52.8484 37.8447 52.7993 37.8447 52.6663C37.85 52.5918 37.8728 52.5196 37.9112 52.4556C37.9496 52.3916 38.0026 52.3375 38.0658 52.2978Z" fill="#E0E0E0"/>
<path opacity="0.8" d="M38.0658 47.9748L52.5985 39.5827C52.7213 39.5111 52.8196 39.5622 52.8196 39.6932C52.8144 39.7677 52.7917 39.84 52.7533 39.904C52.7149 39.9681 52.6618 40.0221 52.5985 40.0617L38.0658 48.4538C37.943 48.5254 37.8447 48.4743 37.8447 48.3412C37.85 48.267 37.8728 48.1952 37.9112 48.1315C37.9496 48.0678 38.0026 48.0141 38.0658 47.9748Z" fill="#E0E0E0"/>
<path opacity="0.8" d="M38.0658 49.4138L52.5985 41.0216C52.7213 40.9521 52.8196 41.0012 52.8196 41.1342C52.8143 41.2087 52.7915 41.2809 52.7531 41.3449C52.7147 41.4089 52.6617 41.4629 52.5985 41.5027L38.0658 49.8948C37.943 49.9644 37.8447 49.9153 37.8447 49.7822C37.85 49.7078 37.8728 49.6356 37.9112 49.5716C37.9496 49.5076 38.0026 49.4535 38.0658 49.4138Z" fill="#E0E0E0"/>
<path opacity="0.8" d="M38.0658 50.8548L52.5985 42.4626C52.7213 42.391 52.8196 42.4421 52.8196 42.5731C52.8144 42.6476 52.7917 42.7199 52.7533 42.7839C52.7149 42.848 52.6618 42.902 52.5985 42.9416L38.0658 51.3337C37.943 51.4054 37.8447 51.3542 37.8447 51.2232C37.8499 51.1487 37.8726 51.0765 37.911 51.0124C37.9494 50.9484 38.0025 50.8943 38.0658 50.8548Z" fill="#E0E0E0"/>
<path opacity="0.8" d="M38.0658 52.2978L52.5985 43.9057C52.7213 43.8361 52.8196 43.8852 52.8196 44.0183C52.8143 44.0927 52.7915 44.1649 52.7531 44.2289C52.7147 44.2929 52.6617 44.347 52.5985 44.3867L38.0658 52.7788C37.943 52.8484 37.8447 52.7993 37.8447 52.6663C37.85 52.5918 37.8728 52.5196 37.9112 52.4556C37.9496 52.3916 38.0026 52.3375 38.0658 52.2978Z" fill="#E0E0E0"/>
<path d="M38.1995 34.0132L39.1595 33.4626C39.3642 33.35 39.5136 33.4421 39.5136 33.6673V34.7726C39.5073 34.8956 39.4719 35.0154 39.4104 35.1222C39.3488 35.2289 39.2628 35.3195 39.1595 35.3866L38.2057 35.9372C38.001 36.0498 37.8516 35.9598 37.8516 35.7326V34.6313C37.8567 34.5082 37.8909 34.388 37.9514 34.2805C38.0119 34.1731 38.0969 34.0815 38.1995 34.0132Z" fill="#407BFF"/>
<path opacity="0.2" d="M38.1995 34.0132L39.1595 33.4626C39.3642 33.35 39.5136 33.4421 39.5136 33.6673V34.7726C39.5073 34.8956 39.4719 35.0154 39.4104 35.1222C39.3488 35.2289 39.2628 35.3195 39.1595 35.3866L38.2057 35.9372C38.001 36.0498 37.8516 35.9598 37.8516 35.7326V34.6313C37.8567 34.5082 37.8909 34.388 37.9514 34.2805C38.0119 34.1731 38.0969 34.0815 38.1995 34.0132Z" fill="white"/>
<path d="M40.7821 33.002L46.546 29.6738C46.7917 29.5326 46.9902 29.6329 46.9902 29.8969C46.9794 30.0461 46.9335 30.1905 46.8563 30.3186C46.7792 30.4466 46.6728 30.5546 46.546 30.6338L40.7821 33.9538C40.5364 34.0951 40.3379 33.9948 40.3379 33.7307C40.3499 33.583 40.3964 33.4402 40.4735 33.3137C40.5507 33.1872 40.6563 33.0804 40.7821 33.002Z" fill="#407BFF"/>
<path opacity="0.8" d="M40.7821 33.002L46.546 29.6738C46.7917 29.5326 46.9902 29.6329 46.9902 29.8969C46.9794 30.0461 46.9335 30.1905 46.8563 30.3186C46.7792 30.4466 46.6728 30.5546 46.546 30.6338L40.7821 33.9538C40.5364 34.0951 40.3379 33.9948 40.3379 33.7307C40.3499 33.583 40.3964 33.4402 40.4735 33.3137C40.5507 33.1872 40.6563 33.0804 40.7821 33.002Z" fill="white"/>
<path d="M38.1995 44.575L39.1595 44.0244C39.3642 43.9098 39.5136 44.0019 39.5136 44.2291V45.3303C39.5071 45.4533 39.4717 45.573 39.4101 45.6797C39.3486 45.7864 39.2627 45.8771 39.1595 45.9443L38.2057 46.4949C38.001 46.6075 37.8516 46.5154 37.8516 46.2903V45.189C37.8572 45.0665 37.8916 44.9471 37.9521 44.8404C38.0126 44.7337 38.0973 44.6428 38.1995 44.575Z" fill="#407BFF"/>
<path opacity="0.2" d="M38.1995 44.575L39.1595 44.0244C39.3642 43.9098 39.5136 44.0019 39.5136 44.2291V45.3303C39.5071 45.4533 39.4717 45.573 39.4101 45.6797C39.3486 45.7864 39.2627 45.8771 39.1595 45.9443L38.2057 46.4949C38.001 46.6075 37.8516 46.5154 37.8516 46.2903V45.189C37.8572 45.0665 37.8916 44.9471 37.9521 44.8404C38.0126 44.7337 38.0973 44.6428 38.1995 44.575Z" fill="white"/>
<path d="M40.7821 43.5741L46.546 40.2438C46.7917 40.1026 46.9902 40.2029 46.9902 40.469C46.9792 40.6181 46.9333 40.7625 46.8561 40.8905C46.779 41.0185 46.6727 41.1266 46.546 41.2059L40.7821 44.5341C40.5364 44.6753 40.3379 44.575 40.3379 44.3089C40.349 44.1602 40.395 44.0161 40.4722 43.8884C40.5494 43.7608 40.6555 43.6531 40.7821 43.5741Z" fill="#407BFF"/>
<path opacity="0.8" d="M40.7821 43.5741L46.546 40.2438C46.7917 40.1026 46.9902 40.2029 46.9902 40.469C46.9792 40.6181 46.9333 40.7625 46.8561 40.8905C46.779 41.0185 46.6727 41.1266 46.546 41.2059L40.7821 44.5341C40.5364 44.6753 40.3379 44.575 40.3379 44.3089C40.349 44.1602 40.395 44.0161 40.4722 43.8884C40.5494 43.7608 40.6555 43.6531 40.7821 43.5741Z" fill="white"/>
<path d="M39.5563 53.8718L40.5101 53.3212C40.7148 53.2087 40.8662 53.3008 40.8662 53.5259V54.6271C40.8595 54.7503 40.8238 54.8702 40.7619 54.9769C40.7 55.0836 40.6137 55.1742 40.5101 55.2412L39.5563 55.7918C39.3618 55.9064 39.2021 55.8143 39.2021 55.5871V54.4859C39.2093 54.363 39.245 54.2435 39.3065 54.1369C39.368 54.0303 39.4535 53.9396 39.5563 53.8718Z" fill="#407BFF"/>
<path d="M38.0658 57.6135L42.0019 55.3415C42.1247 55.2719 42.223 55.321 42.223 55.4541C42.2177 55.5285 42.1949 55.6007 42.1565 55.6647C42.1181 55.7287 42.0651 55.7828 42.0019 55.8225L38.0658 58.0945C37.943 58.1641 37.8447 58.115 37.8447 57.982C37.85 57.9075 37.8728 57.8353 37.9112 57.7713C37.9496 57.7073 38.0026 57.6532 38.0658 57.6135Z" fill="#E0E0E0"/>
<path d="M44.8513 50.8138L45.8051 50.2632C45.9996 50.1506 46.1592 50.2428 46.1592 50.4679V51.5691C46.1526 51.6921 46.117 51.8118 46.0555 51.9185C45.994 52.0251 45.9082 52.1158 45.8051 52.1832L44.8513 52.7338C44.6466 52.8464 44.4951 52.7563 44.4951 52.5291V51.4279C44.502 51.3047 44.5378 51.1849 44.5997 51.0782C44.6616 50.9715 44.7478 50.881 44.8513 50.8138Z" fill="#407BFF"/>
<path d="M43.3597 54.5555L47.2959 52.2835C47.4187 52.2118 47.5169 52.263 47.5169 52.3961C47.5116 52.4703 47.4888 52.5421 47.4504 52.6058C47.412 52.6695 47.359 52.7232 47.2959 52.7624L43.3597 55.0365C43.2369 55.1082 43.1387 55.057 43.1387 54.926C43.1435 54.8511 43.166 54.7785 43.2045 54.7141C43.2429 54.6496 43.2961 54.5953 43.3597 54.5555Z" fill="#E0E0E0"/>
<path d="M50.1451 47.7558L51.099 47.2052C51.2934 47.0906 51.4531 47.1827 51.4531 47.4099V48.5111C51.4461 48.634 51.4104 48.7536 51.349 48.8602C51.2875 48.9668 51.2018 49.0576 51.099 49.1252L50.1451 49.6758C49.9404 49.7883 49.791 49.6962 49.791 49.4711V48.3699C49.7973 48.2468 49.8327 48.127 49.8943 48.0203C49.9558 47.9135 50.0418 47.8229 50.1451 47.7558Z" fill="#407BFF"/>
<path opacity="0.2" d="M39.5563 53.8718L40.5101 53.3212C40.7148 53.2087 40.8662 53.3008 40.8662 53.5259V54.6271C40.8595 54.7503 40.8238 54.8702 40.7619 54.9769C40.7 55.0836 40.6137 55.1742 40.5101 55.2412L39.5563 55.7918C39.3618 55.9064 39.2021 55.8143 39.2021 55.5871V54.4859C39.2093 54.363 39.245 54.2435 39.3065 54.1369C39.368 54.0303 39.4535 53.9396 39.5563 53.8718Z" fill="white"/>
<path opacity="0.2" d="M44.8513 50.8138L45.8051 50.2632C45.9996 50.1506 46.1592 50.2428 46.1592 50.4679V51.5691C46.1526 51.6921 46.117 51.8118 46.0555 51.9185C45.994 52.0251 45.9082 52.1158 45.8051 52.1832L44.8513 52.7338C44.6466 52.8464 44.4951 52.7563 44.4951 52.5291V51.4279C44.502 51.3047 44.5378 51.1849 44.5997 51.0782C44.6616 50.9715 44.7478 50.881 44.8513 50.8138Z" fill="white"/>
<path opacity="0.2" d="M50.1451 47.7558L51.099 47.2052C51.2934 47.0906 51.4531 47.1827 51.4531 47.4099V48.5111C51.4461 48.634 51.4104 48.7536 51.349 48.8602C51.2875 48.9668 51.2018 49.0576 51.099 49.1252L50.1451 49.6758C49.9404 49.7883 49.791 49.6962 49.791 49.4711V48.3699C49.7973 48.2468 49.8327 48.127 49.8943 48.0203C49.9558 47.9135 50.0418 47.8229 50.1451 47.7558Z" fill="white"/>
<path d="M48.6527 51.4975L52.5888 49.2255C52.7116 49.1538 52.8099 49.205 52.8099 49.336C52.8048 49.4105 52.782 49.4827 52.7436 49.5468C52.7052 49.6108 52.6521 49.6648 52.5888 49.7044L48.6527 51.9764C48.5319 52.0481 48.4316 51.9969 48.4316 51.8639C48.4374 51.7898 48.4604 51.7181 48.4988 51.6545C48.5372 51.5909 48.5899 51.5371 48.6527 51.4975Z" fill="#E0E0E0"/>
<mask id="mask0_43_30024" style="mask-type:luminance" maskUnits="userSpaceOnUse" x="24" y="16" width="10" height="12">
<path d="M29.1474 17.3456C26.8508 18.6392 24.9902 21.863 24.9902 24.5444C24.9902 27.2258 26.8508 28.327 29.1474 27.0006C31.444 25.6743 33.3046 22.4525 33.3046 19.7998C33.3046 17.147 31.4419 16.0499 29.1474 17.3456Z" fill="white"/>
</mask>
<g mask="url(#mask0_43_30024)">
<path d="M29.1474 17.3456C26.8508 18.6392 24.9902 21.863 24.9902 24.5444C24.9902 27.2258 26.8508 28.327 29.1474 27.0006C31.444 25.6743 33.3046 22.4525 33.3046 19.7998C33.3046 17.147 31.4419 16.0499 29.1474 17.3456Z" fill="#FAFAFA"/>
<path d="M31.1612 25.6088L27.833 26.5012C27.7757 26.5199 27.7147 26.524 27.6554 26.5131C27.5961 26.5023 27.5404 26.4768 27.4935 26.439C27.4465 26.4012 27.4097 26.3522 27.3865 26.2966C27.3632 26.241 27.3542 26.1805 27.3602 26.1205V20.4548C27.372 19.9858 27.5286 19.532 27.8086 19.1556C28.0886 18.7792 28.4782 18.4987 28.924 18.3527L30.0621 18.0477C30.9279 17.8164 31.63 18.3813 31.63 19.3085V24.9763C31.6263 25.1171 31.5793 25.2534 31.4954 25.3665C31.4116 25.4797 31.2949 25.5643 31.1612 25.6088Z" fill="#37474F"/>
<path d="M31.3216 27.0743L30.9716 25.529C30.9716 25.529 30.9716 23.4432 30.6748 23.2508C30.378 23.0584 30.292 23.0215 30.292 23.0215C30.6727 22.8905 31.4751 22.7923 31.7248 23.5251C31.9643 24.2169 32.3225 25.922 32.4924 26.7612L31.3216 27.0743Z" fill="#F28F8F"/>
<path d="M31.2926 27.0825L30.1055 23.04C30.6315 22.8353 31.307 22.6654 31.6345 23.2078C31.9292 23.695 32.4 26.2474 32.4921 26.7612L31.2926 27.0825Z" fill="#407BFF"/>
<g opacity="0.4">
<path d="M31.2917 27.0825L30.1045 23.04C30.6305 22.8353 31.306 22.6654 31.6335 23.2078C31.9282 23.695 32.399 26.2474 32.4911 26.7612L31.2917 27.0825Z" fill="black"/>
</g>
<path d="M31.4519 27.0395L30.2852 27.3527C30.3321 27.0176 30.4426 26.6946 30.6106 26.4009C30.8441 26.0644 31.1801 25.8124 31.5685 25.6825C31.4845 26.1298 31.4454 26.5844 31.4519 27.0395Z" fill="#407BFF"/>
<path d="M31.4519 27.0395L30.2852 27.3527C30.3321 27.0176 30.4426 26.6946 30.6106 26.4009C30.8441 26.0644 31.1801 25.8124 31.5685 25.6825C31.4845 26.1298 31.4454 26.5844 31.4519 27.0395Z" fill="#407BFF"/>
<g opacity="0.7">
<path d="M31.4519 27.0395L30.2852 27.3527C30.3321 27.0176 30.4426 26.6946 30.6106 26.4009C30.8441 26.0644 31.1801 25.8124 31.5685 25.6825C31.4845 26.1298 31.4454 26.5844 31.4519 27.0395Z" fill="black"/>
</g>
<path d="M31.2022 27.1071L27.9272 27.9811L27.5669 26.8655C27.5669 26.8655 28.5228 24.6283 27.3418 24.0532C27.4912 23.9406 28.75 23.4493 28.75 23.4493L30.103 23.04C30.3609 22.9704 31.4028 23.433 31.6668 24.4584C31.761 24.8207 31.7282 25.1462 31.1981 27.0334C31.2042 27.058 31.2022 27.0825 31.2022 27.1071Z" fill="#407BFF"/>
<path d="M30.9326 18.7436C31.1578 18.8255 31.4361 19.3577 31.4095 20.641C31.387 21.73 31.0595 22.0739 30.8958 22.2049C30.6505 22.3276 30.38 22.3914 30.1057 22.3911V23.04C30.1057 23.04 30.5314 23.4493 30.5048 23.7605C30.4782 24.0716 29.8908 24.2927 29.4937 24.1084C29.2036 23.9449 28.9528 23.72 28.7588 23.4493V21.9551C28.7289 21.9896 28.6925 22.0177 28.6516 22.038C28.6107 22.0582 28.5662 22.0701 28.5207 22.0729C28.4751 22.0758 28.4295 22.0696 28.3864 22.0546C28.3433 22.0397 28.3036 22.0163 28.2696 21.9858C28.2057 21.9421 28.1512 21.8859 28.1094 21.8208C28.0675 21.7556 28.0392 21.6826 28.026 21.6063C28.0128 21.53 28.0151 21.4518 28.0327 21.3763C28.0503 21.3009 28.0828 21.2297 28.1284 21.1671C28.3331 20.899 28.6913 20.8601 28.8305 21.1282C29.0037 20.7076 29.3139 20.3579 29.7106 20.1355C30.3574 19.7425 30.7095 19.3925 30.9326 18.7436Z" fill="#FFA8A7"/>
<path d="M30.2832 20.6717C30.2841 20.7106 30.2729 20.7487 30.2513 20.7809C30.2297 20.8132 30.1986 20.838 30.1624 20.8519C30.147 20.8572 30.1306 20.8587 30.1145 20.8562C30.0984 20.8538 30.0831 20.8474 30.07 20.8378C30.0569 20.8281 30.0464 20.8154 30.0393 20.8007C30.0322 20.7861 30.0288 20.7699 30.0294 20.7536C30.0285 20.7148 30.0396 20.6767 30.0612 20.6444C30.0828 20.6122 30.1139 20.5874 30.1501 20.5735C30.1655 20.5682 30.182 20.5667 30.1981 20.5691C30.2142 20.5716 30.2294 20.5779 30.2425 20.5876C30.2556 20.5973 30.2662 20.61 30.2732 20.6246C30.2803 20.6393 30.2837 20.6555 30.2832 20.6717Z" fill="#37474F"/>
<path d="M30.3161 21.5806L30.6108 21.601C30.6022 21.646 30.5788 21.6867 30.5443 21.7168C30.5098 21.7468 30.4662 21.7644 30.4205 21.7668C30.3386 21.7607 30.2915 21.6727 30.3161 21.5806Z" fill="#F28F8F"/>
<path d="M31.3232 19.9758L31.0674 19.855C31.0826 19.8155 31.1119 19.7829 31.1497 19.7636C31.1875 19.7444 31.2311 19.7397 31.2721 19.7507C31.2904 19.7619 31.3062 19.7768 31.3188 19.7942C31.3313 19.8117 31.3402 19.8315 31.3449 19.8525C31.3497 19.8735 31.3502 19.8952 31.3465 19.9163C31.3428 19.9375 31.3349 19.9577 31.3232 19.9758Z" fill="#37474F"/>
<path d="M29.9148 20.4548L30.1706 20.1948C30.1571 20.181 30.1407 20.1703 30.1227 20.1632C30.1047 20.1562 30.0853 20.153 30.066 20.154C30.0467 20.155 30.0277 20.16 30.0105 20.1688C29.9933 20.1776 29.9781 20.19 29.9659 20.2051C29.9304 20.2348 29.906 20.2756 29.8967 20.321C29.8875 20.3663 29.8938 20.4135 29.9148 20.4548Z" fill="#37474F"/>
<path d="M31.2637 20.3115C31.2649 20.3504 31.2539 20.3886 31.2323 20.4209C31.2106 20.4532 31.1794 20.478 31.143 20.4916C31.1274 20.497 31.1108 20.4985 31.0945 20.4959C31.0782 20.4934 31.0628 20.4869 31.0497 20.477C31.0365 20.467 31.026 20.454 31.0191 20.4391C31.0122 20.4242 31.009 20.4078 31.0099 20.3913C31.0093 20.3526 31.0206 20.3146 31.0421 20.2824C31.0637 20.2502 31.0946 20.2254 31.1307 20.2112C31.1462 20.2058 31.1629 20.2043 31.1792 20.2069C31.1954 20.2094 31.2108 20.2159 31.224 20.2259C31.2371 20.2358 31.2476 20.2488 31.2546 20.2637C31.2615 20.2786 31.2646 20.295 31.2637 20.3115Z" fill="#37474F"/>
<path d="M30.666 20.3934L30.6844 21.206L31.0877 20.9644L30.666 20.3934Z" fill="#F28F8F"/>
<path d="M30.1048 22.3911C29.7814 22.432 29.1142 22.4054 29.0098 22.1516C29.0476 22.2763 29.1309 22.3822 29.2431 22.4484C29.4478 22.5794 30.1048 22.6081 30.1048 22.6081V22.3911Z" fill="#F28F8F"/>
<path d="M27.9457 27.9791L27.8086 27.4919L28.1688 27.9197L27.9457 27.9791Z" fill="#407BFF"/>
<path d="M27.6778 28.0507C27.5308 27.3504 27.3317 26.6621 27.0822 25.9915C26.7383 25.0479 27.1231 24.2333 27.3544 24.0532C27.5857 23.873 28.7627 23.4493 28.7627 23.4493C29.1884 24.6611 29.3051 26.2842 29.3153 27.6127L27.6778 28.0507Z" fill="#407BFF"/>
<path opacity="0.4" d="M27.6778 28.0507C27.5308 27.3504 27.3317 26.6621 27.0822 25.9915C26.7383 25.0479 27.1231 24.2333 27.3544 24.0532C27.5857 23.873 28.7627 23.4493 28.7627 23.4493C29.1884 24.6611 29.3051 26.2842 29.3153 27.6127L27.6778 28.0507Z" fill="black"/>
<path d="M27.0968 28.2062L25.928 28.5194C25.8954 28.4974 25.8646 28.4728 25.8359 28.4457C25.8359 28.4457 26.3886 26.3129 26.5646 25.6047C26.7407 24.8965 26.8757 24.4093 27.3506 24.0532C28.2042 24.6079 27.8091 26.1491 27.8091 26.1491L27.0968 28.2062Z" fill="#407BFF"/>
<path opacity="0.4" d="M27.0968 28.2062L25.928 28.5194C25.8954 28.4974 25.8646 28.4728 25.8359 28.4457C25.8359 28.4457 26.3886 26.3129 26.5646 25.6047C26.7407 24.8965 26.8757 24.4093 27.3506 24.0532C28.2042 24.6079 27.8091 26.1491 27.8091 26.1491L27.0968 28.2062Z" fill="black"/>
</g>
<path d="M10.0793 14.5762V10.5213C10.067 9.73534 10.5788 8.9473 11.6165 8.34962C13.6634 7.16449 16.9916 7.16449 19.0425 8.34962C20.0803 8.9473 20.592 9.73534 20.5797 10.5213V14.5618C20.5797 15.3438 20.0762 16.7418 19.0425 17.3374C16.9957 18.5225 13.6675 18.5225 11.6165 17.3374C10.5931 16.7479 10.0814 15.3601 10.0793 14.5844V14.5762Z" fill="#EBEBEB"/>
<path d="M15.3294 5.49014L23.9938 10.4927L15.3294 15.4952L6.66504 10.4927L15.3294 5.49014Z" fill="#F5F5F5"/>
<path d="M10.9941 12.9919L15.2618 10.5561C15.2795 10.5461 15.2989 10.5395 15.319 10.537C15.3391 10.5344 15.3596 10.5358 15.3791 10.5411C15.3987 10.5465 15.417 10.5556 15.4331 10.568C15.4491 10.5804 15.4626 10.5958 15.4727 10.6135C15.4828 10.6311 15.4893 10.6505 15.4918 10.6706C15.4944 10.6907 15.493 10.7112 15.4877 10.7307C15.4824 10.7503 15.4732 10.7686 15.4608 10.7847C15.4484 10.8007 15.433 10.8142 15.4154 10.8243L11.2991 13.1679L10.9941 12.9919Z" fill="#E0E0E0"/>
<path d="M23.9944 10.4927V10.8509L15.3301 15.8514V15.4952L23.9944 10.4927Z" fill="#E6E6E6"/>
<path d="M6.66504 10.4927V10.8509L15.3294 15.8514V15.4952L6.66504 10.4927Z" fill="#F0F0F0"/>
<path d="M10.7793 13.2252L11.0433 13.3767C11.0833 13.3115 11.1388 13.2573 11.205 13.2191L11.2972 13.1659L10.9963 12.9939C10.9074 13.0536 10.8332 13.1327 10.7793 13.2252Z" fill="#E0E0E0"/>
<path d="M20.5905 12.8159L15.3301 16.3876L10.084 12.8241L15.3301 15.8514L20.5905 12.8159Z" fill="#E0E0E0"/>
<path d="M10.4419 17.4377C10.5153 17.4756 10.5967 17.4953 10.6793 17.4953C10.7619 17.4953 10.8433 17.4756 10.9167 17.4377L11.3077 19.9615C11.3077 20.4384 10.0693 20.4384 10.0693 19.9615L10.4419 17.4377Z" fill="#F5F5F5"/>
<path d="M10.419 18.8787L10.3413 20.2624C10.3157 20.2546 10.291 20.2443 10.2676 20.2317L10.419 18.8787Z" fill="#EBEBEB"/>
<path d="M11.0046 20.2726L10.8408 18.021L11.0844 20.2398C11.0585 20.2523 11.0318 20.2633 11.0046 20.2726Z" fill="#EBEBEB"/>
<path d="M10.7262 20.3176H10.6484L10.6894 18.5307L10.7262 20.3176Z" fill="#EBEBEB"/>
<path d="M10.6774 17.6485C10.7681 17.6462 10.856 17.6162 10.9291 17.5625C10.9602 17.5396 10.9814 17.5056 10.9882 17.4675C10.9951 17.4295 10.9871 17.3902 10.966 17.3579C10.9436 17.326 10.9097 17.3041 10.8715 17.2969C10.8333 17.2896 10.7937 17.2975 10.7613 17.319C10.7418 17.3378 10.7157 17.3484 10.6886 17.3484C10.6615 17.3484 10.6354 17.3378 10.6159 17.319C10.6 17.3048 10.5813 17.2941 10.5611 17.2875C10.5408 17.281 10.5193 17.2787 10.4981 17.2809C10.4769 17.2831 10.4564 17.2897 10.4379 17.3002C10.4194 17.3108 10.4033 17.325 10.3906 17.3422C10.3779 17.3593 10.3689 17.3789 10.3642 17.3997C10.3594 17.4204 10.3591 17.442 10.3632 17.4629C10.3672 17.4838 10.3756 17.5037 10.3878 17.5212C10.3999 17.5387 10.4156 17.5535 10.4338 17.5646C10.5042 17.6173 10.5894 17.6466 10.6774 17.6485Z" fill="#E0E0E0"/>
<path d="M10.6869 17.2555C10.707 17.2558 10.7269 17.2521 10.7455 17.2446C10.7641 17.2371 10.7811 17.226 10.7953 17.2119C10.8096 17.1978 10.821 17.181 10.8287 17.1625C10.8364 17.144 10.8404 17.1241 10.8404 17.104V13.5261C10.8406 13.4457 10.8619 13.3667 10.9021 13.297C10.9423 13.2274 11.0001 13.1694 11.0697 13.129L15.4152 10.6523C15.4497 10.6326 15.475 10.6 15.4857 10.5617C15.4965 10.5234 15.4917 10.4825 15.4725 10.4477C15.4629 10.4304 15.45 10.4151 15.4344 10.4029C15.4189 10.3906 15.4011 10.3816 15.3821 10.3762C15.3631 10.3709 15.3432 10.3694 15.3235 10.3718C15.3039 10.3743 15.285 10.3805 15.2678 10.3903L10.9121 12.8711C10.796 12.9382 10.6995 13.0345 10.6323 13.1505C10.5651 13.2666 10.5296 13.3982 10.5293 13.5323V17.1102C10.5301 17.1301 10.5348 17.1496 10.5431 17.1677C10.5515 17.1858 10.5633 17.202 10.578 17.2155C10.5926 17.229 10.6098 17.2395 10.6285 17.2464C10.6471 17.2532 10.667 17.2563 10.6869 17.2555Z" fill="#FAFAFA"/>
<path d="M11.0229 17.104C11.0233 17.0376 11.004 16.9725 10.9674 16.917C10.9307 16.8615 10.8784 16.8182 10.8171 16.7925C10.7558 16.7667 10.6883 16.7598 10.623 16.7725C10.5578 16.7852 10.4978 16.817 10.4506 16.8639C10.4035 16.9108 10.3713 16.9706 10.3582 17.0358C10.345 17.1009 10.3516 17.1685 10.3769 17.23C10.4023 17.2914 10.4453 17.344 10.5005 17.381C10.5558 17.4179 10.6208 17.4377 10.6872 17.4377C10.7312 17.438 10.7748 17.4295 10.8155 17.4129C10.8563 17.3962 10.8933 17.3717 10.9245 17.3407C10.9557 17.3097 10.9804 17.2728 10.9973 17.2322C11.0142 17.1916 11.0229 17.148 11.0229 17.104Z" fill="#F5F5F5"/>
<path d="M10.3557 17.1225C10.3697 17.1571 10.391 17.1883 10.4181 17.214C10.4453 17.2396 10.4776 17.2592 10.513 17.2712C10.5483 17.2832 10.5858 17.2875 10.623 17.2838C10.6602 17.28 10.6961 17.2683 10.7283 17.2494C10.7694 17.2246 10.8034 17.1896 10.827 17.1479C10.8506 17.1061 10.863 17.0589 10.863 17.0109C10.863 16.9629 10.8506 16.9158 10.827 16.874C10.8034 16.8322 10.7694 16.7972 10.7283 16.7725C10.7909 16.7811 10.8498 16.8074 10.898 16.8482C10.9463 16.889 10.982 16.9426 11.001 17.0029C11.0199 17.0632 11.0214 17.1277 11.0051 17.1888C10.9888 17.2499 10.9556 17.3051 10.9091 17.348C10.8627 17.3909 10.8051 17.4197 10.7429 17.4311C10.6807 17.4425 10.6166 17.436 10.558 17.4124C10.4993 17.3888 10.4486 17.349 10.4117 17.2977C10.3749 17.2463 10.3533 17.1856 10.3496 17.1225H10.3557Z" fill="#EBEBEB"/>
<path d="M69.9875 15.1288L68.4053 14.218L69.2752 14.0337L70.141 14.6376L69.9875 15.1288Z" fill="#E0E0E0"/>
<path d="M67.2182 6.97616C67.2182 4.51992 65.7137 3.37982 63.8654 4.44623L61.1349 6.02232C59.2927 7.08873 57.7842 9.96253 57.7842 12.427C57.7842 12.5272 57.7842 12.6316 57.7842 12.7197C57.7842 12.7749 57.7842 12.822 57.7842 12.8752C57.7842 12.9284 57.7944 12.9714 57.7985 13.0185C57.8026 13.0656 57.8108 13.127 57.819 13.1802C57.8602 13.4711 57.9329 13.7566 58.0359 14.0317C58.0789 14.134 58.124 14.2364 58.1731 14.3223C58.1958 14.3698 58.2218 14.4156 58.2509 14.4595L58.2775 14.5025C58.323 14.5758 58.3758 14.6444 58.4351 14.7072C58.4678 14.744 58.4985 14.7829 58.5333 14.8177L58.6398 14.92C58.6766 14.9487 58.7114 14.9835 58.7503 15.0121C58.787 15.0418 58.8261 15.0684 58.867 15.092L58.9877 15.1616C59.1442 15.246 59.3137 15.3034 59.4892 15.3315C59.5027 15.3282 59.5167 15.3282 59.5302 15.3315C59.5772 15.3315 59.6202 15.3417 59.6673 15.3417C59.717 15.3458 59.767 15.3458 59.8167 15.3417C59.9483 15.3431 60.0795 15.3287 60.2077 15.2987C60.2843 15.2835 60.3602 15.2643 60.4349 15.2414C60.674 15.1681 60.9036 15.0664 61.1185 14.9385L63.849 13.3624C64.0362 13.2537 64.2154 13.132 64.3853 12.998C64.3853 12.9653 64.3853 12.9366 64.3853 12.9059C64.3853 12.8752 64.3853 12.8097 64.3853 12.7729C64.3853 12.691 64.3853 12.6071 64.3853 12.5232C64.3792 10.4292 65.64 7.95865 67.2182 6.97616Z" fill="#E0E0E0"/>
<path d="M67.6791 5.20561L66.0928 4.29271C66.103 4.29271 66.2545 5.39597 66.2545 5.39597L67.4314 5.53516L67.6791 5.20561Z" fill="#E0E0E0"/>
<path d="M60.3493 15.9332L58.8838 15.1022L59.766 14.7235L60.3493 15.9332Z" fill="#E0E0E0"/>
<path d="M61.1347 14.963C61.1243 15.5696 60.9294 16.1586 60.5759 16.6517C60.5104 16.7376 60.6107 16.8134 60.6844 16.7745C61.0189 16.6009 61.3154 16.3622 61.5564 16.0724C62.0193 15.5253 62.343 14.8743 62.5 14.175L61.1347 14.963Z" fill="#E0E0E0"/>
<path d="M60.5928 16.7704L62.1791 17.6833C62.1791 17.6833 63.0695 16.9321 63.0695 15.4113L61.3481 15.2946C61.3481 15.2946 61.3071 16.2853 60.5928 16.7704Z" fill="#E0E0E0"/>
<path d="M64.8174 12.296C64.8174 12.3724 64.8174 12.4461 64.8174 12.517C64.8174 12.558 64.8174 12.5928 64.8174 12.6316C64.8174 12.6705 64.8174 12.7033 64.8297 12.7401C64.8419 12.777 64.8297 12.822 64.844 12.8629C64.8677 13.0443 64.9102 13.2226 64.9709 13.3951C64.9797 13.4265 64.9906 13.4573 65.0036 13.4872C65.0186 13.5283 65.0357 13.5687 65.0548 13.608C65.0708 13.646 65.0892 13.683 65.1101 13.7185C65.1263 13.7542 65.1455 13.7884 65.1674 13.8209L65.1879 13.8536C65.2239 13.91 65.2636 13.964 65.3066 14.0153C65.3289 14.0452 65.3536 14.0732 65.3803 14.0992L65.4581 14.175C65.4846 14.1999 65.5126 14.2231 65.542 14.2446C65.57 14.2662 65.5994 14.2861 65.63 14.3039C65.6607 14.3223 65.6893 14.3408 65.7221 14.3571L65.8163 14.4022L65.9145 14.437C65.9744 14.4551 66.0352 14.4701 66.0967 14.482H66.1274C66.1614 14.4851 66.1957 14.4851 66.2297 14.482C66.2664 14.4862 66.3035 14.4862 66.3402 14.482C66.4283 14.482 66.516 14.4731 66.6022 14.4554C66.6713 14.4437 66.7397 14.428 66.8069 14.4083C66.9866 14.3533 67.1591 14.277 67.3207 14.1811L69.3676 12.998C69.5502 12.8927 69.7222 12.77 69.8813 12.6316C69.9386 12.5825 69.9959 12.5293 70.0533 12.4761C70.1564 12.38 70.2542 12.2781 70.346 12.1711L70.477 12.0524C70.5118 12.0114 70.5445 11.9685 70.5793 11.9255C70.5878 11.9106 70.5981 11.8968 70.61 11.8845C70.7463 11.7043 70.872 11.5164 70.9866 11.3216C71.0173 11.2705 71.046 11.2173 71.0767 11.164C71.1074 11.1108 71.136 11.0576 71.1647 11.0023C71.1934 10.9471 71.22 10.8918 71.2486 10.8386L71.3264 10.6707C71.353 10.6155 71.3776 10.5561 71.4021 10.5029C71.4451 10.4047 71.484 10.2982 71.5188 10.2041C71.5188 10.1856 71.5331 10.1672 71.5393 10.1488C71.5618 10.0915 71.5802 10.0342 71.5986 9.97686C71.6355 9.86633 71.6682 9.7558 71.701 9.64117C71.773 9.37215 71.827 9.09863 71.8627 8.82243C71.8627 8.77535 71.8729 8.73032 71.8791 8.68324C71.8852 8.63616 71.8791 8.60341 71.8893 8.56248C71.8995 8.52154 71.8893 8.4806 71.8893 8.43966C71.8893 8.36325 71.8893 8.28751 71.8893 8.21246C71.8893 6.37029 70.7615 5.50856 69.3737 6.30888L67.3268 7.49401C65.9452 8.29024 64.8174 10.4456 64.8174 12.296Z" fill="#E0E0E0"/>
<path d="M72.6286 7.09488L71.0545 6.19017L70.4609 6.60978L72.297 7.72122L72.6286 7.09488Z" fill="#E0E0E0"/>
<path d="M67.2238 15.2148L65.6416 14.3039L66.882 13.9334L67.2238 15.2148Z" fill="#E0E0E0"/>
<path d="M69.0705 13.1966C69.0705 13.5241 69.4798 13.9703 69.9486 14.0542C70.012 14.0665 69.9956 14.2057 69.9199 14.2589C69.6406 14.4106 69.3183 14.464 69.005 14.4104C68.8015 14.4043 68.6032 14.3442 68.4306 14.2363C68.2579 14.1284 68.1171 13.9766 68.0225 13.7963L69.0705 13.1966Z" fill="#407BFF"/>
<path d="M65.4494 5.35708L62.7168 6.93522C60.8747 8.00163 59.3682 10.8754 59.3682 13.3378C59.3682 13.4401 59.3682 13.5425 59.3682 13.6326C59.3682 13.6878 59.3682 13.7349 59.3682 13.7881C59.3682 13.8413 59.3784 13.8823 59.3845 13.9293C59.3907 13.9764 59.3968 14.0419 59.405 14.0931C59.442 14.3829 59.5106 14.6677 59.6097 14.9425C59.6527 15.0469 59.6977 15.1472 59.7468 15.2352C59.7694 15.2821 59.7954 15.3273 59.8246 15.3703C59.8332 15.3853 59.8428 15.3996 59.8533 15.4133C59.8977 15.4907 59.9498 15.5634 60.0088 15.6303C60.0416 15.6671 60.0743 15.7081 60.1091 15.7408L60.2135 15.8432C60.2504 15.8718 60.2872 15.9066 60.324 15.9353C60.3611 15.9644 60.4001 15.9911 60.4407 16.0151L60.5635 16.0847C60.7194 16.1688 60.8882 16.2262 61.063 16.2546C61.0762 16.2501 61.0906 16.2501 61.1039 16.2546C61.151 16.2546 61.196 16.2546 61.241 16.2546C61.2908 16.2576 61.3407 16.2576 61.3905 16.2546C61.522 16.2551 61.6531 16.2407 61.7814 16.2116C61.8581 16.1964 61.9339 16.1772 62.0086 16.1543C62.2472 16.0804 62.4766 15.9794 62.6923 15.8534C62.6821 16.4597 62.4864 17.0484 62.1314 17.54C62.0659 17.628 62.1662 17.7038 62.242 17.6649C62.5769 17.4911 62.8735 17.2516 63.1139 16.9607C63.5756 16.4136 63.8992 15.7636 64.0575 15.0654L63.8528 15.1779L65.4146 14.2773C65.5657 14.1902 65.7114 14.0938 65.8506 13.9887C65.8386 13.9367 65.8297 13.8841 65.824 13.8311C65.824 13.7963 65.8117 13.7451 65.8076 13.6919C65.8002 13.6465 65.7954 13.6007 65.7933 13.5548V13.5302C65.7912 13.4961 65.7912 13.4619 65.7933 13.4279C65.7933 13.3501 65.7933 13.2682 65.7933 13.1863C65.7933 11.1149 67.0214 8.77944 68.6016 7.86449L68.7755 7.76215C68.7592 5.39393 67.2711 4.305 65.4494 5.35708Z" fill="#F0F0F0"/>
<path d="M70.9658 7.21564L68.9189 8.39873C67.5332 9.2011 66.4033 11.3564 66.4033 13.2068C66.4033 13.2825 66.4033 13.3562 66.4033 13.4279C66.4033 13.4995 66.4033 13.5036 66.4033 13.5425C66.4033 13.5814 66.4033 13.6141 66.4136 13.651C66.4169 13.6915 66.4223 13.7318 66.4299 13.7717C66.4524 13.9539 66.495 14.1331 66.5568 14.306C66.5647 14.3377 66.5756 14.3685 66.5896 14.3981C66.6035 14.4386 66.6199 14.4783 66.6387 14.5168C66.6551 14.5553 66.6735 14.5929 66.694 14.6294C66.7109 14.6651 66.7307 14.6993 66.7533 14.7317C66.7581 14.7433 66.7643 14.7543 66.7718 14.7645C66.8106 14.8218 66.8495 14.875 66.8905 14.9262C66.9141 14.9556 66.9394 14.9836 66.9662 15.0101L67.044 15.0858C67.0705 15.1107 67.0985 15.134 67.1279 15.1554C67.1549 15.1775 67.1837 15.1974 67.2139 15.2148C67.2446 15.2332 67.2732 15.2516 67.306 15.268L67.4001 15.313L67.4984 15.3478C67.5583 15.366 67.6191 15.381 67.6806 15.3929H67.7113C67.7453 15.396 67.7796 15.396 67.8136 15.3929C67.851 15.398 67.8888 15.398 67.9262 15.3929C68.0141 15.3934 68.1019 15.3851 68.1882 15.3683C68.2572 15.3564 68.3256 15.3407 68.3929 15.3212C68.5728 15.2669 68.7454 15.1906 68.9066 15.094L69.5985 14.6969C69.6944 14.8753 69.8359 15.0251 70.0084 15.1311C70.181 15.2372 70.3785 15.2957 70.581 15.3007C70.8945 15.3536 71.2168 15.2995 71.4959 15.1472C71.5696 15.1002 71.588 14.961 71.5225 14.9425C71.0538 14.8586 70.6465 14.4124 70.6465 14.0849L70.9576 13.9048C71.1399 13.7989 71.3119 13.6763 71.4713 13.5384C71.5287 13.4893 71.586 13.4361 71.6412 13.3828C71.7451 13.2867 71.8435 13.1849 71.936 13.0779C71.9728 13.0349 72.0097 12.9939 72.0465 12.9448C72.0834 12.8957 72.1141 12.8629 72.1489 12.8199L72.1796 12.779C72.3159 12.5988 72.4416 12.4109 72.5562 12.2161L72.6483 12.0585C72.679 12.0053 72.7077 11.9521 72.7363 11.8968C72.765 11.8415 72.7895 11.7863 72.8182 11.7331L72.898 11.5652C72.9246 11.5079 72.9471 11.4506 72.9717 11.3974C73.0147 11.2991 73.0556 11.1927 73.0904 11.0985L73.1088 11.0433C73.1314 10.986 73.1518 10.9286 73.1682 10.8713C73.2071 10.7588 73.2378 10.6503 73.2726 10.5356C73.3446 10.2666 73.3986 9.99311 73.4343 9.7169C73.4343 9.66983 73.4445 9.6248 73.4486 9.57772C73.4527 9.53064 73.4486 9.49584 73.4589 9.45695C73.4691 9.41806 73.4589 9.37508 73.4589 9.33414C73.4589 9.25841 73.4589 9.18063 73.4589 9.10489C73.4814 7.26886 72.3515 6.41532 70.9658 7.21564Z" fill="#F0F0F0"/>
<path d="M54.5218 34.2915C53.7481 34.05 52.9539 34.6764 52.434 35.9413C51.9141 37.2063 50.8232 40.4239 50.6615 41.2816C50.4998 42.1392 54.1595 44.006 54.0572 43.9568C53.9549 43.9077 54.5218 34.2915 54.5218 34.2915Z" fill="#263238"/>
<path d="M52.8206 64.0652C52.7101 64.1062 52.6835 64.3149 52.6671 64.7284C52.6548 65.0416 52.5873 65.5881 52.9536 65.6966C53.32 65.8051 53.8584 65.7498 54.0937 65.455C54.3864 65.0866 54.585 64.7632 55.0025 64.3129C55.3669 63.924 55.7578 63.5597 55.9052 63.0131C56.0383 62.5178 55.9277 62.3049 55.59 62.1616C55.1274 61.957 54.3987 62.6079 54.0364 62.7102C53.7233 62.7982 52.9291 64.0243 52.8206 64.0652Z" fill="#263238"/>
<path d="M52.8213 63.6824V64.1901C53.0118 64.312 53.232 64.3796 53.4581 64.3857C53.6843 64.3919 53.9078 64.3363 54.1047 64.2249C54.1272 64.1757 54.2377 63.4982 54.2377 63.4982L52.8213 63.6824Z" fill="#FFA8A7"/>
<path d="M56.9331 66.9922C56.9331 66.9922 56.7878 67.4344 56.71 67.811C56.6466 68.118 56.5585 68.6297 56.665 68.8631C56.7714 69.0964 57.1931 69.2438 57.8419 69.2377C58.2636 69.2377 58.9206 69.5222 59.3689 69.7719C59.8171 70.0216 60.8017 70.1342 61.2909 70.0769C61.8681 70.0093 62.4678 69.6675 62.562 69.4342C62.6561 69.2008 62.5313 68.945 61.1681 68.3636C61.1558 68.3636 59.2727 67.7496 58.6115 67.0189L56.9331 66.9922Z" fill="#263238"/>
<path d="M56.9326 66.4437C56.9326 66.4437 56.9326 66.8203 56.9326 67.0352C56.9326 67.2501 57.1864 67.5715 57.8455 67.549C58.3081 67.5326 58.6295 67.4077 58.611 67.027V66.4764L56.9326 66.4437Z" fill="#FFA8A7"/>
<path d="M52.489 56.9421C52.6022 56.0425 52.803 55.1561 53.0887 54.2955C53.0887 54.2955 52.9086 52.0133 52.8206 49.8498C52.7264 47.5122 52.8206 44.5729 52.7817 43.9916C52.7817 43.9916 60.3244 42.4647 60.4595 45.1665C60.5946 47.8684 60.1606 54.7459 60.0726 55.933C59.9846 57.1202 59.7779 58.1703 59.5323 60.0943C59.2866 62.0184 58.6112 66.4764 58.6112 66.4764C58.3503 66.6094 58.0606 66.6759 57.7679 66.6702C57.4751 66.6645 57.1883 66.5867 56.9327 66.4437C56.9327 66.4437 56.4026 61.04 56.4579 59.6706C56.501 58.6535 56.6758 57.6462 56.9778 56.674L56.7096 52.5086C56.5827 50.5703 56.4497 49.643 56.419 48.7977L56.2573 48.7158C56.2573 48.7158 56.0915 52.0604 56.0035 53.2476C55.9155 54.4347 55.7251 55.5728 55.3894 57.7773C55.0906 59.689 54.2043 63.7357 54.2043 63.7357C53.3425 64.2024 52.8288 63.6763 52.8288 63.6763C52.8288 63.6763 52.2598 58.6001 52.489 56.9421Z" fill="#455A64"/>
<path d="M56.4196 48.8038C56.4196 48.8038 54.5898 47.9011 53.6748 47.0885C53.6748 47.0885 54.5242 48.2859 55.6418 48.8181C55.6418 48.8181 56.0389 52.9712 56.0369 52.8893L56.2661 48.7956L56.4196 48.8038Z" fill="#37474F"/>
<path d="M58.0488 33.4359L57.6026 35.8922L55.3838 35.7305L55.8484 32.9447L58.0488 33.4359Z" fill="#FFA8A7"/>
<path d="M53.0396 35.5504C53.2586 34.8831 54.106 34.1565 54.9534 34.3223C56.2138 34.5355 57.4558 34.8455 58.6685 35.2495C59.4443 35.5258 60.1504 36.1972 60.2159 38.7517L60.6089 46.3578L59.6694 46.5625L59.3419 44.839L59.1904 46.5625C58.208 46.8081 56.5029 46.6055 55.3833 46.3578C53.0499 45.8481 52.7694 44.88 52.7694 44.88C52.7694 44.88 52.7387 40.6 52.8083 38.7517C52.8738 37.1715 52.8882 36.0007 53.0396 35.5504Z" fill="#37474F"/>
<path d="M59.6904 30.5253C59.6904 30.5253 60.2288 31.3215 60.1592 31.4055C60.0347 31.4893 59.896 31.5497 59.7498 31.5835L59.6904 30.5253Z" fill="#FFA8A7"/>
<path d="M58.0488 28.0036C58.5667 28.2656 59.4612 28.7486 59.7068 30.642C59.9606 32.5865 59.627 33.2129 59.365 33.4708C59.1869 33.6447 58.2208 33.655 57.7377 33.5096C57.1236 33.3275 55.7686 32.8096 55.1464 31.8108C54.4136 30.6359 54.2499 29.0618 55.0768 28.4355C56.2374 27.5553 57.6108 27.7825 58.0488 28.0036Z" fill="#FFA8A7"/>
<path d="M59.8151 28.6545C59.6452 29.1212 59.3587 30.2633 58.1674 30.7402C58.1674 30.7402 57.9975 30.0116 57.3855 30.0893C56.7735 30.1671 56.6691 30.947 57.0457 31.4321C57.4224 31.9172 57.7867 31.7412 57.7867 31.7412C57.7867 31.7412 57.8686 32.7851 57.1726 33.2579C57.1726 33.2579 56.3314 33.7901 55.441 33.3807C55.0316 33.1965 54.4728 32.2365 54.1412 31.4484C53.4371 29.7823 53.3368 28.4457 54.3991 28.024C54.5301 27.2667 54.872 26.9822 55.5577 26.841C57.0334 26.536 58.149 27.5062 59.3894 27.3363C60.0382 27.2462 60.0096 28.1223 59.8151 28.6545Z" fill="#37474F"/>
<path d="M54.3746 28.2779L53.6787 27.848C53.7057 27.7998 53.7421 27.7575 53.7859 27.7238C53.8296 27.69 53.8797 27.6655 53.9332 27.6516C53.9867 27.6377 54.0424 27.6348 54.0971 27.6431C54.1517 27.6513 54.2041 27.6705 54.2511 27.6996C54.2981 27.7286 54.3388 27.7669 54.3706 27.812C54.4024 27.8572 54.4248 27.9083 54.4363 27.9623C54.4479 28.0164 54.4484 28.0722 54.4378 28.1264C54.4272 28.1806 54.4057 28.2322 54.3746 28.2779Z" fill="#37474F"/>
<path d="M57.8849 34.3304L58.1387 35.0653C58.1387 35.0653 57.9525 35.3928 57.1603 35.4091C56.3682 35.4255 55.5229 35.1737 55.2609 34.836C55.2012 34.7699 55.157 34.6913 55.1315 34.606C55.106 34.5207 55.0999 34.4307 55.1135 34.3427C55.1135 34.3427 55.4287 33.6468 55.7275 33.6775L55.6784 33.9804C55.6784 33.9804 55.746 34.2281 56.4644 34.4185C57.582 34.7152 57.8849 34.3304 57.8849 34.3304Z" fill="#455A64"/>
<path d="M64.251 39.2142C64.5703 38.8479 64.6931 38.0353 65.1189 37.4785C65.5446 36.9218 65.7022 36.5144 65.87 36.758C66.0932 37.0794 65.5896 37.7241 65.7022 37.7814C65.8148 37.8388 66.2303 38.6943 66.2733 39.1651C66.3163 39.6359 65.0677 40.8231 65.0677 40.8231L64.251 39.2142Z" fill="#FFA8A7"/>
<path d="M57.8848 34.3304C57.9363 34.3294 57.9871 34.3424 58.0318 34.368C58.0765 34.3936 58.1134 34.4308 58.1386 34.4758C58.2638 34.7018 58.3758 34.9348 58.4743 35.1737L58.1386 35.0653L57.8848 34.3304Z" fill="#455A64"/>
<path d="M65.667 37.716C65.667 37.716 67.1755 37.585 67.3945 37.716C67.6136 37.847 67.5481 38.4999 67.3945 38.9011C67.241 39.3023 66.4714 39.5622 65.7571 40.0453C65.7571 39.9716 65.667 37.716 65.667 37.716Z" fill="#FFA8A7"/>
<path d="M58.4748 35.1819C59.1236 35.4091 59.6906 35.6691 60.2965 36.8071C61.0743 38.2686 62.548 40.6061 62.548 40.6061L64.2449 39.1099C64.2449 39.1099 64.5007 38.8622 64.9777 39.6502C65.1174 39.8624 65.2059 40.1041 65.2361 40.3563C65.2662 40.6086 65.2373 40.8644 65.1516 41.1035C65.1516 41.1035 63.1928 43.4021 62.8182 43.7521C62.4436 44.1022 61.8234 43.8299 61.4202 43.2793C61.017 42.7287 58.4686 39.5458 58.4686 39.5458C58.4686 39.5458 57.0849 37.7078 58.4748 35.1819Z" fill="#37474F"/>
<path d="M75.9773 31.3604H71.1446C70.9622 31.3604 70.7873 31.288 70.6583 31.159C70.5294 31.03 70.4569 30.8551 70.4569 30.6727V22.9949C70.4569 22.3907 70.6969 21.8113 71.1242 21.384C71.5514 20.9568 72.1309 20.7168 72.7351 20.7168H74.393C74.9962 20.7184 75.574 20.9591 76 21.3862C76.4259 21.8132 76.665 22.3918 76.665 22.9949L76.665 30.6727C76.665 30.8551 76.5926 31.03 76.4636 31.159C76.3346 31.288 76.1597 31.3604 75.9773 31.3604Z" fill="#37474F"/>
<path d="M70.3294 28.7405C69.8607 30.1221 69.0747 34.0971 69.0747 34.0971C69.0747 34.0971 67.4372 36.0989 66.903 36.584C66.6103 36.8542 65.9512 37.3393 65.9512 37.3393L67.1486 38.2195C68.2297 37.3879 69.2452 36.4744 70.1861 35.4869C70.3954 35.2642 70.5423 34.9903 70.6119 34.6927L71.4306 31.1803C71.4306 31.1803 71.4306 28.3556 71.8625 27.9852C72.2944 27.6147 72.4193 27.5369 72.4193 27.5369C71.8646 27.496 70.6978 27.6536 70.3294 28.7405Z" fill="#F28F8F"/>
<path d="M72.6754 27.496C71.912 27.4079 70.9336 27.4243 70.4566 28.2779C69.9797 29.1314 69.1855 33.5444 69.1855 33.5444C69.1855 33.5444 69.9367 34.1278 70.7473 34.1176L72.6754 27.496Z" fill="#407BFF"/>
<path d="M70.5527 31.6081C70.6902 32.266 70.7432 32.9387 70.7103 33.6099C70.651 34.4942 70.041 36.0375 70.041 36.0375C70.041 36.0375 70.5179 36.5615 71.8627 36.3507C72.9578 36.1808 72.5709 32.871 71.9426 32.2365C71.5761 31.8579 71.0791 31.6332 70.5527 31.6081Z" fill="#407BFF"/>
<path opacity="0.3" d="M70.5527 31.6081C70.6902 32.266 70.7432 32.9387 70.7103 33.6099C70.651 34.4942 70.041 36.0375 70.041 36.0375C70.041 36.0375 70.5179 36.5615 71.8627 36.3507C72.9578 36.1808 72.5709 32.871 71.9426 32.2365C71.5761 31.8579 71.0791 31.6332 70.5527 31.6081Z" fill="black"/>
<path d="M73.0826 54.9833C73.0913 55.1343 73.0534 55.2843 72.9741 55.4131C72.7716 55.7477 72.5335 56.0592 72.2638 56.3424C71.8852 56.7518 71.3182 57.2328 70.9109 57.5869C70.6857 57.7916 70.6775 58.0822 71.0009 58.1866C71.6037 58.3334 72.2399 58.2449 72.7796 57.939C73.189 57.722 73.758 56.7108 74.0937 56.5676C74.4806 56.3936 74.6955 56.3076 74.8265 56.1295C74.9256 56.0283 74.9874 55.8965 75.0019 55.7556C75.0164 55.6147 74.9827 55.4731 74.9063 55.3538C74.7242 55.014 74.4499 54.492 74.3373 54.5514L74.3721 54.6578C74.2841 54.9342 73.5308 55.2555 73.144 55.1798L73.0826 54.9833Z" fill="#37474F"/>
<path d="M77.0273 43.4349C77.2012 41.5927 77.7007 38.6288 77.189 36.4346L70.3934 36.7949C70.2051 38.9584 69.984 45.713 70.2214 46.4867C70.4957 47.3996 72.9458 53.7183 73.087 54.9894C73.0968 55.1386 73.0588 55.287 72.9786 55.4131C72.7763 55.7484 72.5382 56.0607 72.2683 56.3444C72.0841 56.5491 71.8589 56.7538 71.6215 56.9585C71.6016 56.9877 71.5896 57.0215 71.5867 57.0567C71.5867 57.2614 72.1025 57.3249 72.4054 57.2369C72.7832 57.1035 73.1087 56.8533 73.3347 56.5225C73.5087 56.2912 73.8996 55.847 74.1535 55.5134C74.2382 55.4104 74.3103 55.2978 74.3684 55.1777C74.4361 55.0278 74.4478 54.8586 74.4011 54.7008L74.3847 54.6496C74.2519 54.2353 74.1695 53.8065 74.1391 53.3724C74.045 51.9785 73.8055 48.7588 73.5844 47.9011C73.431 47.2762 73.1977 46.6735 72.8905 46.1081L73.6663 40.0719C73.6663 40.0719 73.7482 45.3937 73.9897 46.7508C74.1801 47.8377 74.2538 49.1968 74.4769 51.0615C74.6815 52.8463 74.919 55.9903 74.919 55.9903C74.9251 55.9914 74.9313 55.9914 74.9374 55.9903V57.4927H76.2085V56.6208C76.2085 56.2271 76.2414 55.8341 76.3068 55.4459C76.5114 54.2587 76.9372 51.5425 77.0252 50.6235C77.1644 49.1661 76.6383 47.3341 76.6383 47.3341C76.6383 47.3341 76.8574 45.232 77.0273 43.4349Z" fill="#FFA8A7"/>
<path d="M74.6326 27.5594C74.6326 27.5594 76.4604 27.7641 76.6794 27.8685C74.9642 29.0741 76.354 31.7575 76.354 31.7575L75.6969 33.8187C76.4277 34.7541 77.0581 35.3109 77.449 36.3364C77.883 37.4826 78.2678 39.1877 78.1655 42.6816C76.528 43.9098 71.5459 43.7767 69.6055 42.6816C69.6055 42.6816 69.933 39.597 70.3198 37.2001C70.5757 35.6179 71.1795 33.8945 71.0772 33.3111C70.3075 30.9449 70.2584 30.5192 70.3976 29.9911C70.7804 28.5051 72.2951 27.5001 72.6676 27.5001L74.6326 27.5594Z" fill="#407BFF"/>
<path opacity="0.6" d="M74.6326 27.5594C74.6326 27.5594 76.4604 27.7641 76.6794 27.8685C74.9642 29.0741 76.354 31.7575 76.354 31.7575L75.6969 33.8187C76.4277 34.7541 77.0581 35.3109 77.449 36.3364C77.883 37.4826 78.2678 39.1877 78.1655 42.6816C76.528 43.9098 71.5459 43.7767 69.6055 42.6816C69.6055 42.6816 69.933 39.597 70.3198 37.2001C70.5757 35.6179 71.1795 33.8945 71.0772 33.3111C70.3075 30.9449 70.2584 30.5192 70.3976 29.9911C70.7804 28.5051 72.2951 27.5001 72.6676 27.5001L74.6326 27.5594Z" fill="white"/>
<path d="M74.9253 56.8562V56.674C74.7656 57.286 74.4464 57.8448 74.0001 58.2931C73.5908 58.6635 73.0381 59.0934 72.8948 59.5089C72.7515 59.9244 73.5519 60.1107 74.08 60.0575C74.5917 59.9949 75.0631 59.7483 75.4063 59.3636C75.742 58.9788 75.7359 58.7168 75.8914 58.5039C76.047 58.291 76.4093 58.0577 76.4932 57.812C76.5194 57.5829 76.4942 57.3507 76.4195 57.1325C76.3602 56.9053 76.2947 56.6535 76.2148 56.674V56.8152C76.0307 56.9601 75.8023 57.0374 75.568 57.0342C75.3899 57.0383 74.9233 56.9994 74.9253 56.8562Z" fill="#37474F"/>
<path d="M76.2085 56.8111C76.0243 56.956 75.796 57.0333 75.5617 57.0301C75.3734 57.0301 74.9149 56.9994 74.9169 56.8562V56.674C74.7573 57.286 74.438 57.8447 73.9918 58.2931L73.6827 58.5694C73.4657 58.8109 73.5271 59.0217 74.0368 59.0647C74.5465 59.1077 74.9947 58.8007 75.3795 58.3278C75.7076 57.8523 75.9854 57.344 76.2085 56.8111Z" fill="#FFA8A7"/>
<path d="M71.4758 21.9715C71.1483 22.1659 70.743 22.9949 70.7819 24.7184C70.8167 26.1839 71.2916 26.5462 71.531 26.6506C71.7705 26.755 72.229 26.6915 72.6752 26.6179V27.496C72.6752 27.496 72.0612 28.2144 72.096 28.6176C72.1308 29.0209 72.9884 29.115 73.5677 28.722C73.9859 28.3977 74.3458 28.0046 74.632 27.5594L74.6218 25.5392C74.6218 25.5392 74.8859 25.793 75.3321 25.4041C75.7005 25.0827 75.8233 24.5382 75.5368 24.2476C75.4624 24.1776 75.3723 24.1265 75.2741 24.0984C75.1759 24.0703 75.0724 24.0661 74.9723 24.0861C74.8721 24.1062 74.7782 24.1499 74.6984 24.2135C74.6186 24.2772 74.5551 24.3591 74.5133 24.4523C74.5133 24.4523 74.2657 23.7625 73.2361 23.4288C72.3068 23.1198 71.8012 22.7698 71.4758 21.9715Z" fill="#FFA8A7"/>
<path d="M72.4199 24.352C72.42 24.3881 72.4306 24.4233 72.4505 24.4534C72.4704 24.4835 72.4987 24.5071 72.5319 24.5213C72.5651 24.5354 72.6017 24.5395 72.6372 24.533C72.6727 24.5266 72.7055 24.5098 72.7315 24.4849C72.7576 24.4599 72.7758 24.4279 72.7838 24.3927C72.7918 24.3575 72.7893 24.3207 72.7766 24.287C72.7639 24.2532 72.7415 24.2239 72.7123 24.2027C72.6831 24.1815 72.6484 24.1694 72.6123 24.1678C72.5876 24.1672 72.563 24.1716 72.5399 24.1805C72.5169 24.1895 72.4958 24.2029 72.478 24.22C72.4601 24.2371 72.4458 24.2576 72.4358 24.2802C72.4259 24.3029 72.4205 24.3273 72.4199 24.352Z" fill="#37474F"/>
<path d="M72.3702 25.5924L71.9424 25.7295C71.9499 25.7581 71.9631 25.7848 71.9812 25.8081C71.9994 25.8314 72.022 25.8509 72.0478 25.8652C72.0736 25.8795 72.1021 25.8885 72.1314 25.8916C72.1608 25.8946 72.1905 25.8917 72.2187 25.883C72.2765 25.8633 72.3244 25.8222 72.3526 25.768C72.3808 25.7139 72.3871 25.651 72.3702 25.5924Z" fill="#F28F8F"/>
<path d="M70.9095 23.785L71.2821 23.5271C71.2663 23.5019 71.2456 23.4802 71.2212 23.4633C71.1968 23.4463 71.1692 23.4345 71.1401 23.4286C71.111 23.4227 71.081 23.4227 71.0519 23.4287C71.0228 23.4348 70.9953 23.4466 70.9709 23.4636C70.921 23.4988 70.8867 23.552 70.8753 23.6119C70.8638 23.6719 70.8761 23.7339 70.9095 23.785Z" fill="#37474F"/>
<path d="M72.9556 23.9242L72.5811 23.6663C72.5968 23.6412 72.6175 23.6195 72.6418 23.6025C72.6662 23.5855 72.6937 23.5736 72.7227 23.5675C72.7518 23.5614 72.7817 23.5612 72.8108 23.5669C72.8399 23.5726 72.8676 23.5842 72.8922 23.6008C72.9417 23.6366 72.9759 23.69 72.9876 23.75C72.9994 23.81 72.988 23.8723 72.9556 23.9242Z" fill="#37474F"/>
<path d="M70.9951 24.2169C70.9948 24.253 71.005 24.2885 71.0247 24.3189C71.0444 24.3492 71.0725 24.3731 71.1057 24.3876C71.1388 24.4021 71.1755 24.4064 71.2111 24.4002C71.2467 24.394 71.2797 24.3774 71.306 24.3525C71.3323 24.3277 71.3506 24.2956 71.3588 24.2604C71.367 24.2252 71.3646 24.1883 71.352 24.1544C71.3393 24.1205 71.317 24.0911 71.2878 24.0698C71.2585 24.0485 71.2237 24.0363 71.1875 24.0347C71.1379 24.0336 71.0899 24.0521 71.0539 24.0862C71.0178 24.1203 70.9967 24.1673 70.9951 24.2169Z" fill="#37474F"/>
<path d="M71.863 24.1125L71.8343 25.2219L71.251 25.0418L71.863 24.1125Z" fill="#F28F8F"/>
<path d="M72.6758 26.6179C73.1466 26.5544 74.1086 26.276 74.2682 25.8933C74.2075 26.0871 74.0889 26.2578 73.9285 26.3825C73.6378 26.6301 72.6758 26.9106 72.6758 26.9106V26.6179Z" fill="#F28F8F"/>
<path d="M76.0142 32.695L74.7227 34.443L75.697 33.8187L76.0142 32.695Z" fill="#407BFF"/>
<path d="M65.8389 37.3393C65.5626 37.6955 65.3927 38.3873 65.2474 38.6207C65.102 38.854 64.928 39.0567 65.2474 39.0996C65.5667 39.1426 66.0334 38.5183 66.2073 38.1397C66.2954 37.9261 66.4616 37.7541 66.672 37.6587C66.5226 37.6075 66.6003 37.0077 66.4959 36.9238C66.4959 36.9238 65.9515 37.1469 65.8389 37.3393Z" fill="#F28F8F"/>
<path d="M65.7568 40.0412C66.0454 39.8263 66.0557 39.5622 66.1109 39.1426C66.1662 38.723 67.3227 38.2686 67.3595 38.5818C67.3964 38.8949 67.5008 39.1569 67.1548 39.5377C66.8089 39.9184 66.2849 40.3236 65.7568 40.0412Z" fill="#F28F8F"/>
<path d="M74.6326 27.5594C74.6326 27.5594 76.3438 27.7088 76.6795 27.8685C77.0152 28.0282 77.574 28.9943 77.0745 30.3964C76.5751 31.7985 76.1207 33.4482 76.1719 33.7798C76.223 34.1114 77.4163 35.8267 77.4163 35.8267C77.0871 36.0697 76.7149 36.2482 76.3192 36.3527L75.7052 35.0182L75.8484 36.4367C75.2316 36.5866 74.5979 36.6555 73.9633 36.6414C73.9633 36.6414 73.384 31.1926 74.6326 27.5594Z" fill="#407BFF"/>
<path d="M78.8487 34.2424C78.9859 33.436 78.8487 33.1719 78.5663 32.3818L77.1335 33.3091C77.251 33.6073 77.3201 33.9224 77.3381 34.2424C77.3259 34.4758 77.0086 36.7887 76.7118 37.5952C76.6583 37.7386 76.5532 37.8569 76.4171 37.9268C76.1219 38.107 75.8544 38.329 75.6229 38.5859C75.4039 38.7906 75.2278 38.8274 75.2504 38.897C75.2842 38.9725 75.3447 39.0328 75.4202 39.0664C75.4957 39.1 75.581 39.1046 75.6597 39.0792C75.838 39.0213 76.009 38.943 76.1694 38.8458C76.0272 39.1469 75.8379 39.4233 75.6086 39.6646C75.0825 40.2254 75.0354 40.5898 76.0179 40.6655C76.632 40.7126 77.1457 40.3687 77.7004 39.0485C77.8723 38.5645 78.0138 38.0702 78.1241 37.5686C78.423 36.4244 78.7136 35.055 78.8487 34.2424Z" fill="#FFA8A7"/>
<path d="M76.6795 27.8685C77.3693 28.1776 77.5658 28.7875 77.8216 29.6841C78.0775 30.5806 78.8799 33.2702 78.8799 33.2702C78.8799 33.2702 78.1921 34.0889 77.2424 33.8597L76.0143 30.8774C76.0143 30.8774 75.4411 28.9308 76.6795 27.8685Z" fill="#407BFF"/>
</svg>
