<svg width="129" height="82" viewBox="0 0 129 82" fill="none" xmlns="http://www.w3.org/2000/svg">
<path d="M0.970215 68.0122V75.5381H11.9771H24.116V68.0122H0.970215Z" fill="#F5F5F5"/>
<path d="M0 65.9078V68.0122H24.9248V65.9078H11.9772H0Z" fill="#E0E0E0"/>
<path d="M12.4627 75.5381H24.1165V68.0122H24.9251V65.9078H11.9775V67.8174L12.4627 75.5381Z" fill="#E0E0E0"/>
<path d="M8.90283 69.2251H4.20898V70.3572H8.90283V69.2251Z" fill="#E0E0E0"/>
<path d="M9.63029 71.7742H3.604V74.1671H9.63029V71.7742Z" fill="white"/>
<path d="M4.53223 58.391V65.917H15.5372H27.6762V58.391H4.53223Z" fill="#F5F5F5"/>
<path d="M3.56006 56.2867V58.3911H28.4867V56.2867H15.5373H3.56006Z" fill="#E0E0E0"/>
<path d="M16.0223 65.917H27.6761V58.3911H28.4865V56.2867H15.5371V58.1962L16.0223 65.917Z" fill="#E0E0E0"/>
<path d="M12.4624 59.604H7.76855V60.7361H12.4624V59.604Z" fill="#E0E0E0"/>
<path d="M13.1903 62.155H7.16406V64.5478H13.1903V62.155Z" fill="white"/>
<path d="M18.7645 1.06506H1.62842V25.9035H18.7645V1.06506Z" fill="#E0E0E0"/>
<path d="M17.9041 1.06506H0.768066V25.9035H17.9041V1.06506Z" fill="#F5F5F5"/>
<path d="M15.7762 3.75566H2.89844V23.2129H15.7762V3.75566Z" fill="white"/>
<path d="M15.7757 23.2129C15.7757 23.2129 15.7757 23.1798 15.7757 23.1173C15.7757 23.0548 15.7757 22.9611 15.7757 22.8417C15.7757 22.5972 15.7757 22.2388 15.7757 21.7739C15.7757 20.8421 15.7757 19.4821 15.7647 17.7655C15.7647 14.3361 15.7518 9.47686 15.7445 3.75566L15.7868 3.79793H2.91084L2.95679 3.75198C2.95679 11.0923 2.95679 17.8593 2.95679 23.2092L2.92003 23.1725L12.293 23.1908L14.8825 23.2H15.5625C15.7169 23.2 15.7978 23.2 15.7978 23.2H15.5699H14.8973H12.3243L2.92738 23.2203H2.89062V23.1835C2.89062 17.8335 2.89062 11.0666 2.89062 3.72625V3.67847H2.93841H15.8143H15.8566V3.7575C15.8566 9.48973 15.8419 14.3582 15.8364 17.7968C15.8364 19.5078 15.8364 20.8641 15.8235 21.7941C15.8235 22.2554 15.8235 22.6101 15.8235 22.8527C15.8235 22.9703 15.8235 23.0622 15.8235 23.1247C15.8235 23.1872 15.7757 23.2129 15.7757 23.2129Z" fill="#E0E0E0"/>
<path d="M17.9538 1.06506C17.8649 1.22213 17.7622 1.37097 17.6469 1.50982C17.4484 1.77447 17.1653 2.13653 16.8437 2.52799C16.5221 2.91945 16.2189 3.26312 15.9965 3.51307C15.8852 3.65195 15.7622 3.78107 15.6289 3.89902C15.7253 3.74706 15.8348 3.60378 15.956 3.4708L16.772 2.47101L17.5954 1.46939C17.7033 1.3248 17.8232 1.18954 17.9538 1.06506Z" fill="#E0E0E0"/>
<path d="M15.835 23.1504C16.4749 24.1685 17.2283 25.1106 18.0808 25.9586L15.835 23.1504Z" fill="white"/>
<path d="M18.0881 25.9586C17.9448 25.8547 17.8135 25.7351 17.6967 25.6021C17.0993 24.9925 16.5654 24.3237 16.1033 23.6062C16.0001 23.4628 15.9126 23.3088 15.8423 23.1467C15.9578 23.2798 16.0634 23.4211 16.1584 23.5694C16.3422 23.8341 16.6123 24.198 16.9211 24.5858C17.2299 24.9736 17.5276 25.3209 17.7445 25.5543C17.8684 25.6808 17.9833 25.8159 18.0881 25.9586Z" fill="#E0E0E0"/>
<path d="M0.76416 25.8833L3.00817 23.1137L0.76416 25.8833Z" fill="white"/>
<path d="M3.01 23.1137C2.67375 23.6036 2.31181 24.0753 1.92568 24.527C1.56265 24.9992 1.17494 25.4519 0.76416 25.8833C1.10144 25.3936 1.46398 24.9219 1.85033 24.47C2.21308 23.998 2.60016 23.5453 3.01 23.1137Z" fill="#E0E0E0"/>
<path d="M0.76416 1.06506C1.15574 1.4785 1.52388 1.91353 1.86687 2.36809C2.23084 2.80204 2.57015 3.25609 2.88319 3.7281C2.49664 3.31376 2.13283 2.87878 1.79335 2.42507C1.4264 1.99032 1.08285 1.53634 0.76416 1.06506Z" fill="#E0E0E0"/>
<path d="M11.7642 7.7052H7.45264V19.9489H11.7642V7.7052Z" fill="#E0E0E0"/>
<path d="M111.219 72.9063C110.815 72.559 109.911 71.4581 110.607 70.1771C110.863 69.7066 111.407 69.4751 111.894 69.2674C112.381 69.0597 112.901 68.8815 113.309 68.5323C114.075 67.8798 114.287 66.7955 114.796 65.9262C115.38 64.9264 116.47 64.1784 117.622 64.2299C118.942 64.2905 120.043 65.3675 120.541 66.597C121.039 67.8265 121.057 69.1902 121.068 70.5171C121.068 71.2523 121.041 72.0775 120.502 72.5737C120.006 73.0313 119.258 73.0368 118.585 73.0148L111.374 72.7942" fill="#F5F5F5"/>
<path d="M125.012 53.0779H106.047L109.464 73.4467C109.534 73.8713 109.724 74.2672 110.011 74.5883C110.297 74.9094 110.669 75.1426 111.083 75.2606L111.149 75.279C111.206 75.2919 111.259 75.3121 111.318 75.3213C111.445 75.3473 111.575 75.362 111.704 75.3654V75.3856L111.798 75.3709H120.252C120.408 75.3705 120.564 75.3552 120.717 75.3249C121.21 75.2484 121.665 75.0123 122.011 74.6528C122.357 74.2933 122.576 73.8303 122.634 73.3346L124.288 59.299L124.361 58.7476H124.352L125.003 53.1826L125.012 53.0779ZM121.434 66.0696H119.489L119.686 60.1591H121.941L121.434 66.0696ZM122.128 60.1591H123.992L123.297 66.0696H121.623L122.128 60.1591ZM116.569 72.6233L116.45 67.4884H119.252L119.081 72.6233H116.569ZM113.538 67.4884H116.262L116.38 72.6233H113.937L113.538 67.4884ZM113.748 72.6233H111.465C111.248 71.2376 110.965 69.4347 110.66 67.4884H113.349L113.748 72.6233ZM113.424 66.0696L112.965 60.1591H116.089L116.225 66.0696H113.424ZM116.413 66.0696L116.277 60.1591H119.489L119.306 66.0696H116.413ZM116.246 58.7403L116.119 53.2672H119.721L119.537 58.7403H116.246ZM116.062 58.7403H112.858L112.434 53.2672H115.926L116.062 58.7403ZM112.671 58.7403H109.282C109.163 57.9849 109.049 57.27 108.946 56.6249C108.593 54.4195 108.46 53.5796 108.394 53.2672H112.254L112.671 58.7403ZM112.781 60.1591L113.241 66.0696H110.438C110.344 65.4704 110.254 64.8639 110.153 64.2575C109.933 62.8607 109.714 61.4658 109.506 60.1591H112.781ZM110.249 66.0696H108.411L107.418 60.1591H109.31C109.605 61.9859 109.933 64.0185 110.247 66.0696H110.249ZM110.473 67.4884C110.75 69.2656 111.024 71.017 111.276 72.6233H109.519L108.657 67.4884H110.473ZM119.272 72.6233L119.443 67.4884H121.314L120.877 72.6233H119.272ZM119.734 58.7403L119.918 53.2672H122.531L122.062 58.7403H119.734ZM108.209 53.2672C108.284 53.6623 108.63 55.8162 109.093 58.7403H107.189L106.27 53.2672H108.209ZM122.531 72.6233H121.061L121.511 67.4884H123.141L122.531 72.6233ZM124.159 58.7403H122.246L122.713 53.2672H124.801L124.159 58.7403Z" fill="#E0E0E0"/>
<path d="M125.434 2.39568V19.0741H101.48L100.616 2.5133L125.434 2.39568Z" fill="#E0E0E0"/>
<path d="M100.616 2.51328V19.0392H124.571V2.51328H100.616Z" fill="white"/>
<path d="M124.685 19.1531H100.502V2.39934H124.685V19.1531ZM100.73 18.9252H124.451V2.62723H100.73V18.9252Z" fill="#E0E0E0"/>
<path d="M121.976 4.56616H103.211V16.9863H121.976V4.56616Z" fill="white"/>
<path d="M121.976 4.56616H121.884H121.617H120.586L116.727 4.58086L103.219 4.60843L103.272 4.55329C103.272 8.34844 103.272 12.5534 103.272 16.9716L103.213 16.9128L121.978 16.9238L121.932 16.9716C121.941 13.1912 121.95 10.0925 121.956 7.93492C121.956 6.85611 121.965 6.01438 121.968 5.43546C121.968 5.14998 121.968 4.93127 121.968 4.77935C121.968 4.63048 121.968 4.55145 121.968 4.55145C121.968 4.55145 121.968 4.62313 121.968 4.77016C121.968 4.91718 121.968 5.13772 121.968 5.41708C121.968 5.99232 121.968 6.83222 121.98 7.90552C121.98 10.0705 121.994 13.1801 122.005 16.9716V17.0194H121.957L103.193 17.0304H103.134V16.99C103.134 12.5792 103.134 8.36681 103.134 4.57167V4.51837H103.189L116.732 4.5441L120.592 4.5588H121.612H121.871L121.976 4.56616Z" fill="#E0E0E0"/>
<path d="M100.616 2.47102C100.764 2.5425 100.902 2.63201 101.028 2.7375C101.274 2.92129 101.607 3.16572 101.967 3.45426C102.327 3.7428 102.645 4.0148 102.868 4.2188C102.997 4.32063 103.112 4.43861 103.211 4.56983C103.189 4.59556 102.612 4.11956 101.894 3.54615C101.175 2.97275 100.596 2.49307 100.616 2.47102Z" fill="#E0E0E0"/>
<path d="M124.571 2.51327C124.591 2.539 124.019 3.01868 123.31 3.58658C122.6 4.15447 121.996 4.59188 121.976 4.56615C121.955 4.54042 122.527 4.06074 123.236 3.49285C123.946 2.92495 124.55 2.48755 124.571 2.51327Z" fill="#E0E0E0"/>
<path d="M124.552 19.041L121.878 16.8779L124.552 19.041Z" fill="white"/>
<path d="M121.878 16.8779C121.9 16.8521 122.514 17.3153 123.251 17.9126C123.988 18.5099 124.571 19.0153 124.551 19.041C124.53 19.0667 123.915 18.6036 123.178 18.0045C122.441 17.4053 121.86 16.9018 121.878 16.8779Z" fill="#E0E0E0"/>
<path d="M100.616 19.0392C100.596 19.0134 101.155 18.5374 101.864 17.9769C102.574 17.4164 103.164 16.9826 103.184 17.0084C103.204 17.0341 102.647 17.5101 101.938 18.0706C101.228 18.6312 100.636 19.0649 100.616 19.0392Z" fill="#E0E0E0"/>
<path d="M107.021 8.43482V12.5939H118.83V8.43482H107.021Z" fill="#E0E0E0"/>
<path d="M125.012 75.5381C125.012 75.5639 97.3853 75.5859 63.3136 75.5859C29.2418 75.5859 1.60986 75.5639 1.60986 75.5381C1.60986 75.5124 29.2308 75.4904 63.3136 75.4904C97.3964 75.4904 125.012 75.5106 125.012 75.5381Z" fill="#263238"/>
<path d="M16.7866 11.2927H110.289C110.617 11.2927 110.932 11.4232 111.165 11.6555C111.397 11.8878 111.527 12.2029 111.527 12.5314V72.2061C111.527 72.9157 111.245 73.596 110.743 74.0977C110.241 74.5995 109.561 74.8815 108.852 74.882H18.04C17.3299 74.882 16.6488 74.5999 16.1466 74.0977C15.6444 73.5956 15.3623 72.9145 15.3623 72.2043V12.7152C15.3628 12.3377 15.5131 11.9759 15.7801 11.7092C16.0472 11.4425 16.4092 11.2927 16.7866 11.2927Z" fill="#455A64"/>
<path d="M11.3413 70.1808H115.529V73.228C115.529 73.8967 115.263 74.5381 114.79 75.0109C114.317 75.4838 113.676 75.7495 113.007 75.7495H13.8628C13.1941 75.7495 12.5527 75.4838 12.0798 75.0109C11.607 74.5381 11.3413 73.8967 11.3413 73.228V70.1808Z" fill="#455A64"/>
<path d="M108.677 13.816H17.9429V67.5196H108.677V13.816Z" fill="#F5F5F5"/>
<path d="M53.9644 70.1808L55.2582 72.2374H73.451L74.6511 70.1808H53.9644Z" fill="#263238"/>
<path d="M111.544 70.1606H15.377V70.4675H111.544V70.1606Z" fill="#263238"/>
<path d="M43.6341 11.2927H33.6436V7.77137C33.6436 5.28844 35.656 3.18779 38.1389 3.18779L43.6341 3.27416V11.2927Z" fill="#E0E0E0"/>
<path d="M37.9238 3.18227C37.9238 3.18227 43.6101 2.66584 43.6101 10.0815V67.7622H88.2329V7.98455C88.2327 7.34025 88.1054 6.70233 87.8584 6.10726C87.6114 5.51219 87.2495 4.97166 86.7934 4.51658C86.3373 4.06151 85.796 3.70082 85.2003 3.45515C84.6047 3.20948 83.9665 3.08365 83.3222 3.08486L37.9238 3.18227Z" fill="white"/>
<path d="M37.9239 3.18227L70.9371 3.07568L78.9317 3.05363L83.1826 3.04076C83.9273 3.02031 84.667 3.1678 85.3469 3.47227C86.0268 3.77675 86.6295 4.2304 87.1101 4.79958C87.6019 5.3855 87.951 6.07751 88.1301 6.8212C88.1772 7.00805 88.2122 7.19774 88.2348 7.3891C88.2606 7.57288 88.2587 7.77321 88.2716 7.96618C88.2716 8.34968 88.2716 8.73562 88.2716 9.12402C88.2716 10.6715 88.2716 12.2441 88.2716 13.8418C88.2716 17.0335 88.2716 20.3165 88.2716 23.6908C88.2716 37.1695 88.2716 51.9935 88.2716 67.5417V67.81H88.2238H43.601H43.5569V67.7659C43.5569 47.7959 43.5698 30.8381 43.5753 18.8793C43.5753 15.8873 43.5753 13.2077 43.5753 10.8718C43.5753 10.2874 43.5753 9.725 43.5422 9.18651C43.51 8.66971 43.4388 8.1561 43.329 7.65007C43.2234 7.18894 43.077 6.73812 42.8916 6.30293C42.7171 5.91425 42.5027 5.54471 42.252 5.20023C41.8227 4.62732 41.2724 4.15607 40.6402 3.82001C40.1784 3.57573 39.6829 3.40108 39.17 3.30173C38.8588 3.23849 38.5427 3.20282 38.2253 3.19514C38.0121 3.19514 37.9019 3.19514 37.9019 3.19514C38.0096 3.18871 38.1176 3.18871 38.2253 3.19514C38.5437 3.20044 38.861 3.23365 39.1736 3.29438C39.6864 3.39246 40.1819 3.56587 40.6439 3.80898C41.2804 4.14393 41.8347 4.61596 42.2667 5.19104C42.5197 5.53541 42.7365 5.90493 42.9137 6.29374C43.101 6.73066 43.2492 7.18331 43.3566 7.6464C43.4677 8.15417 43.5402 8.66962 43.5734 9.18835C43.6139 9.72867 43.6084 10.2911 43.6084 10.8755C43.6084 13.2114 43.6084 15.891 43.6084 18.883C43.6084 30.8492 43.6175 47.8069 43.6249 67.7696L43.5808 67.7273H88.2036L88.1558 67.7751V67.5546C88.1558 52.0009 88.1558 37.1824 88.1558 23.7036C88.1558 20.333 88.1558 17.05 88.1558 13.8546V9.12402C88.1448 8.35029 88.2128 7.57472 88.018 6.83958C87.8504 6.11455 87.519 5.43749 87.0494 4.86023C86.5777 4.29991 85.9857 3.85313 85.3176 3.55309C84.6494 3.25304 83.9222 3.10745 83.19 3.12714H78.9298L70.9224 3.14L37.9239 3.18227Z" fill="#263238"/>
<path d="M62.7108 20.6877C62.7108 20.7134 59.9963 20.7355 56.6459 20.7355C53.2955 20.7355 50.5811 20.7134 50.5811 20.6877C50.5811 20.662 53.2937 20.6399 56.6459 20.6399C59.9982 20.6399 62.7108 20.6657 62.7108 20.6877Z" fill="#263238"/>
<path d="M65.4272 22.1359C65.4272 22.1635 62.1063 22.1837 58.0079 22.1837C53.9095 22.1837 50.5903 22.1635 50.5903 22.1359C50.5903 22.1084 53.9113 22.0882 58.0079 22.0882C62.1044 22.0882 65.4272 22.1102 65.4272 22.1359Z" fill="#263238"/>
<path d="M66.4013 27.8424C66.4013 27.8682 62.9719 27.8902 58.7412 27.8902C54.5105 27.8902 51.0811 27.8682 51.0811 27.8424C51.0811 27.8167 54.5105 27.7946 58.7412 27.7946C62.9719 27.7946 66.4013 27.8149 66.4013 27.8424Z" fill="#263238"/>
<path d="M76.4081 33.4037C76.4081 33.4295 70.674 33.4515 63.602 33.4515C56.53 33.4515 50.7959 33.4295 50.7959 33.4037C50.7959 33.378 56.5281 33.356 63.602 33.356C70.6758 33.356 76.4081 33.3762 76.4081 33.4037Z" fill="#263238"/>
<path d="M76.4081 35.0615C76.4081 35.0891 70.674 35.1093 63.602 35.1093C56.53 35.1093 50.7959 35.0891 50.7959 35.0615C50.7959 35.0339 56.5281 35.0137 63.602 35.0137C70.6758 35.0137 76.4081 35.0358 76.4081 35.0615Z" fill="#263238"/>
<path d="M76.4081 36.7211C76.4081 36.7486 70.674 36.7688 63.602 36.7688C56.53 36.7688 50.7959 36.7486 50.7959 36.7211C50.7959 36.6935 56.5281 36.6733 63.602 36.6733C70.6758 36.6733 76.4081 36.6953 76.4081 36.7211Z" fill="#263238"/>
<path d="M76.4081 38.3806C76.4081 38.4064 70.674 38.4284 63.602 38.4284C56.53 38.4284 50.7959 38.4064 50.7959 38.3806C50.7959 38.3549 56.5281 38.3329 63.602 38.3329C70.6758 38.3329 76.4081 38.3549 76.4081 38.3806Z" fill="#263238"/>
<path d="M76.4081 40.0402C76.4081 40.0659 70.674 40.088 63.602 40.088C56.53 40.088 50.7959 40.0659 50.7959 40.0402C50.7959 40.0145 56.5281 39.9924 63.602 39.9924C70.6758 39.9924 76.4081 40.0126 76.4081 40.0402Z" fill="#263238"/>
<path d="M60.5089 41.6998C60.5089 41.7255 58.3329 41.7475 55.6515 41.7475C52.9701 41.7475 50.7959 41.7255 50.7959 41.6998C50.7959 41.674 52.9701 41.652 55.6515 41.652C58.3329 41.652 60.5089 41.6722 60.5089 41.6998Z" fill="#263238"/>
<path d="M54.836 12.116C54.8346 11.9738 54.8627 11.8328 54.9185 11.7019C54.9743 11.571 55.0566 11.4531 55.1601 11.3556C55.2637 11.258 55.3864 11.183 55.5203 11.1352C55.6543 11.0873 55.7968 11.0678 55.9387 11.0777C56.1004 11.0689 56.2619 11.0976 56.4107 11.1613C56.5595 11.2251 56.6917 11.3222 56.797 11.4452L56.4386 11.7705C56.3834 11.698 56.3123 11.6392 56.2307 11.5988C56.149 11.5583 56.0592 11.5372 55.9681 11.5371C55.817 11.5371 55.6721 11.5971 55.5652 11.704C55.4584 11.8108 55.3984 11.9557 55.3984 12.1068C55.3984 12.2579 55.4584 12.4029 55.5652 12.5097C55.6721 12.6165 55.817 12.6766 55.9681 12.6766C56.0592 12.6765 56.149 12.6554 56.2307 12.6149C56.3123 12.5744 56.3834 12.5157 56.4386 12.4432L56.797 12.7666C56.6926 12.8913 56.5609 12.9902 56.412 13.0556C56.2631 13.1209 56.1011 13.151 55.9387 13.1434C55.7977 13.1532 55.6562 13.1339 55.523 13.0868C55.3897 13.0396 55.2676 12.9656 55.1642 12.8692C55.0608 12.7729 54.9783 12.6563 54.9218 12.5267C54.8654 12.3972 54.8361 12.2574 54.836 12.116Z" fill="#263238"/>
<path d="M58.6418 12.6766V13.1121H57.041V11.1181H58.605V11.5536H57.5979V11.89H58.4856V12.3127H57.5979V12.6802L58.6418 12.6766Z" fill="#263238"/>
<path d="M59.8277 12.5791H59.5208V13.1084H58.9565V11.1181H59.8755C60.4268 11.1181 60.7613 11.3993 60.7613 11.8532C60.7662 11.9851 60.7315 12.1154 60.6617 12.2274C60.592 12.3394 60.4903 12.428 60.3698 12.4817L60.8017 13.1084H60.1971L59.8277 12.5791ZM59.8277 11.5591H59.5152V12.1436H59.8277C60.0611 12.1436 60.1787 12.0351 60.1787 11.8532C60.1787 11.6713 60.0666 11.5628 59.8332 11.5628L59.8277 11.5591Z" fill="#263238"/>
<path d="M61.4592 11.5647H60.8472V11.1181H62.6336V11.5647H62.0234V13.1121H61.4592V11.5647Z" fill="#263238"/>
<path d="M62.8452 11.1181H63.4094V13.1121H62.8452V11.1181Z" fill="#263238"/>
<path d="M64.3757 11.5536V11.9929H65.2561V12.4284H64.3757V13.1121H63.8115V11.1181H65.3755V11.5536H64.3757Z" fill="#263238"/>
<path d="M65.6401 11.1181H66.2044V13.1121H65.6401V11.1181Z" fill="#263238"/>
<path d="M66.5044 12.116C66.5033 11.9738 66.5316 11.833 66.5875 11.7022C66.6434 11.5715 66.7257 11.4537 66.8292 11.3562C66.9327 11.2587 67.0552 11.1837 67.1891 11.1357C67.3229 11.0878 67.4653 11.068 67.6071 11.0776C67.7685 11.0689 67.9298 11.0976 68.0783 11.1613C68.2268 11.2251 68.3587 11.3222 68.4636 11.4452L68.1052 11.7705C68.0501 11.6979 67.979 11.6391 67.8973 11.5986C67.8157 11.5581 67.7258 11.537 67.6347 11.5371C67.4836 11.5371 67.3387 11.5971 67.2318 11.704C67.125 11.8108 67.065 11.9557 67.065 12.1068C67.065 12.2579 67.125 12.4028 67.2318 12.5097C67.3387 12.6165 67.4836 12.6766 67.6347 12.6766C67.7258 12.6766 67.8157 12.6556 67.8973 12.6151C67.979 12.5746 68.0501 12.5158 68.1052 12.4432L68.4636 12.7666C68.3596 12.8913 68.2282 12.9902 68.0796 13.0555C67.931 13.1209 67.7693 13.151 67.6071 13.1434C66.9694 13.1526 66.5044 12.7225 66.5044 12.116Z" fill="#263238"/>
<path d="M70.0106 12.7243H69.1688L69.0108 13.1121H68.4355L69.3159 11.1181H69.8672L70.7494 13.1121H70.1631L70.0106 12.7243ZM69.847 12.309L69.5897 11.6713L69.3324 12.309H69.847Z" fill="#263238"/>
<path d="M71.2404 11.5647H70.6284V11.1181H72.4148V11.5647H71.8046V13.1121H71.2404V11.5647Z" fill="#263238"/>
<path d="M72.624 11.1181H73.1882V13.1121H72.624V11.1181Z" fill="#263238"/>
<path d="M73.4878 12.116C73.4878 11.5169 73.9583 11.0776 74.5905 11.0776C75.2227 11.0776 75.6932 11.5169 75.6932 12.116C75.6932 12.7152 75.2227 13.1526 74.5905 13.1526C73.9583 13.1526 73.4878 12.7133 73.4878 12.116ZM75.1419 12.116C75.1358 12.0111 75.0991 11.9102 75.0363 11.8258C74.9735 11.7415 74.8875 11.6774 74.7887 11.6413C74.6899 11.6053 74.5828 11.599 74.4805 11.6232C74.3781 11.6474 74.2851 11.701 74.2129 11.7774C74.1407 11.8538 74.0924 11.9497 74.0741 12.0532C74.0557 12.1567 74.068 12.2633 74.1095 12.3599C74.1511 12.4565 74.2199 12.5388 74.3077 12.5967C74.3954 12.6546 74.4982 12.6856 74.6034 12.6857C74.6764 12.6857 74.7486 12.6706 74.8156 12.6414C74.8826 12.6123 74.9428 12.5696 74.9926 12.5162C75.0424 12.4628 75.0807 12.3997 75.1051 12.3308C75.1295 12.262 75.1395 12.1889 75.1345 12.116H75.1419Z" fill="#263238"/>
<path d="M77.8986 11.1181V13.1121H77.4336L76.5533 12.0499V13.1121H76.002V11.1181H76.4651L77.3454 12.1803V11.1181H77.8986Z" fill="#263238"/>
<path d="M80.1595 48.7038C80.1595 48.7295 77.6159 48.7516 74.4806 48.7516C71.3452 48.7516 68.7998 48.7295 68.7998 48.7038C68.7998 48.678 71.3434 48.656 74.4806 48.656C77.6178 48.656 80.1595 48.678 80.1595 48.7038Z" fill="#263238"/>
<path d="M80.1595 50.3064C80.1595 50.3321 77.6159 50.3542 74.4806 50.3542C71.3452 50.3542 68.7998 50.3321 68.7998 50.3064C68.7998 50.2807 71.3379 50.2549 74.4824 50.2549C77.627 50.2549 80.1595 50.2807 80.1595 50.3064Z" fill="#263238"/>
<path d="M79.4057 57.27C79.403 57.2431 79.403 57.216 79.4057 57.1891C79.4057 57.1321 79.3965 57.055 79.3892 56.9557C79.3892 56.9042 79.3855 56.8473 79.3782 56.7848C79.3782 56.7205 79.358 56.6525 79.3469 56.579C79.3241 56.4076 79.2891 56.2381 79.2422 56.0717C79.1262 55.6117 78.9403 55.1722 78.6908 54.7687C78.1077 53.7931 77.2026 53.0515 76.1315 52.6714C75.0603 52.2913 73.8902 52.2966 72.8226 52.6864C72.6045 52.765 72.3921 52.8583 72.1867 52.9658C71.9786 53.0803 71.7785 53.2086 71.5876 53.3499C71.3937 53.4945 71.2095 53.6517 71.0362 53.8203C70.8648 53.9984 70.7051 54.1875 70.5584 54.3864C70.255 54.7936 70.0197 55.2473 69.8618 55.7299C69.5261 56.7285 69.5261 57.8096 69.8618 58.8083C70.0197 59.2908 70.255 59.7446 70.5584 60.1517C70.7051 60.3506 70.8648 60.5397 71.0362 60.7178C71.2095 60.8865 71.3937 61.0436 71.5876 61.1883C71.9626 61.4721 72.3792 61.6965 72.8226 61.8536C73.6412 62.1506 74.5241 62.2248 75.3809 62.0686C76.0634 61.9409 76.7112 61.67 77.2814 61.2737C77.8517 60.8774 78.3314 60.3647 78.689 59.7694C78.9384 59.3659 79.1244 58.9264 79.2403 58.4664C79.2875 58.3001 79.3225 58.1306 79.3451 57.9592C79.3561 57.8857 79.369 57.8177 79.3763 57.7552C79.3837 57.6927 79.3763 57.6339 79.3874 57.5824C79.3874 57.4832 79.4002 57.3986 79.4039 57.349C79.4011 57.3227 79.4011 57.2963 79.4039 57.27C79.4064 57.2963 79.4064 57.3227 79.4039 57.349V57.5843C79.4039 57.6357 79.4039 57.6945 79.4039 57.757C79.4039 57.8195 79.3874 57.8893 79.3763 57.9647C79.3578 58.1372 79.3258 58.308 79.2808 58.4756C79.1709 58.941 78.9899 59.3868 78.7441 59.797C78.1592 60.7916 77.2445 61.55 76.1589 61.9407C75.0733 62.3315 73.8851 62.3299 72.8005 61.9363C72.5781 61.8568 72.3613 61.7623 72.1518 61.6532C71.9391 61.5377 71.7352 61.4069 71.5416 61.2618C71.3424 61.1153 71.1533 60.9557 70.9756 60.7839C70.8006 60.6026 70.6379 60.4098 70.4885 60.2069C70.1788 59.792 69.9386 59.3296 69.7773 58.8377C69.4343 57.8201 69.4343 56.7181 69.7773 55.7005C69.939 55.2087 70.1792 54.7464 70.4885 54.3313C70.638 54.1285 70.8013 53.9363 70.9774 53.756C71.1546 53.5838 71.3431 53.4235 71.5416 53.2764C72.0991 52.8647 72.7369 52.5747 73.4137 52.4253C74.0904 52.2758 74.791 52.2703 75.47 52.4089C76.149 52.5475 76.7914 52.8272 77.3554 53.2299C77.9194 53.6327 78.3925 54.1494 78.7441 54.7466C78.9895 55.157 79.1705 55.6027 79.2808 56.068C79.326 56.2362 79.358 56.4076 79.3763 56.5808C79.3874 56.6561 79.3984 56.7241 79.4039 56.7866C79.4094 56.8491 79.4039 56.9079 79.4039 56.9612V57.1946C79.4066 57.2197 79.4072 57.2449 79.4057 57.27Z" fill="#0D92F4"/>
<path d="M77.5576 57.9991C77.962 56.2987 76.9115 54.5924 75.211 54.1879C73.5106 53.7834 71.8043 54.834 71.3998 56.5344C70.9954 58.2348 72.0459 59.9412 73.7463 60.3456C75.4468 60.7501 77.1531 59.6995 77.5576 57.9991Z" fill="#0D92F4"/>
<path d="M81.5194 54.5445L81.3871 54.618L80.9919 54.8275L79.4721 55.6196L77.07 56.8712C76.8258 56.9984 76.5616 57.0829 76.2889 57.1211C76.1404 57.1398 75.9896 57.1268 75.8464 57.0831C75.7033 57.0394 75.571 56.9659 75.4582 56.8675C75.3384 56.7638 75.2531 56.6259 75.2138 56.4724C75.1913 56.3923 75.1891 56.3078 75.2074 56.2266C75.2257 56.1455 75.2639 56.0701 75.3185 56.0074C75.4332 55.8819 75.5919 55.8056 75.7615 55.7942C75.8503 55.7822 75.9406 55.7993 76.0188 55.8431C76.0971 55.8868 76.1589 55.9548 76.1952 56.0368V56.0497C76.1998 56.5803 76.011 57.0945 75.664 57.496C75.4827 57.7131 75.2585 57.8904 75.0056 58.0169C74.7526 58.1434 74.4762 58.2163 74.1938 58.2312C73.8958 58.2472 73.5977 58.2032 73.317 58.1019C73.0364 58.0006 72.7789 57.8439 72.5599 57.6412C72.3231 57.4338 72.1583 57.1564 72.0894 56.8491C72.0577 56.6873 72.0796 56.5195 72.1519 56.3713C72.2253 56.2196 72.3524 56.1004 72.5085 56.0368C72.5893 56.0058 72.6768 55.9957 72.7626 56.0076C72.8484 56.0195 72.9298 56.0529 72.9992 56.1048C73.1316 56.2104 73.2284 56.3541 73.2767 56.5165C73.329 56.6734 73.3545 56.8381 73.352 57.0035C73.3594 57.0854 73.3594 57.1679 73.352 57.2498C73.3481 57.3326 73.3376 57.4149 73.3208 57.496C73.1915 58.1644 72.8278 58.7646 72.2953 59.1887C72.0268 59.4111 71.7149 59.575 71.3794 59.67C71.044 59.7649 70.6924 59.7888 70.3472 59.7401C69.6358 59.6208 68.9975 59.2326 68.5645 58.6557C68.3117 58.3323 68.1368 57.955 68.0535 57.553C67.9634 57.1536 67.9947 56.7362 68.1436 56.3547C68.2244 56.1639 68.3616 56.0023 68.5369 55.8916C68.7146 55.7818 68.9268 55.7418 69.1324 55.7795C69.233 55.8024 69.3273 55.8472 69.4086 55.9108C69.4899 55.9743 69.5563 56.055 69.6028 56.1471C69.6925 56.3212 69.758 56.5067 69.7977 56.6984C69.9702 57.4414 69.9229 58.2185 69.6617 58.9351C69.4144 59.625 68.9374 60.209 68.3108 60.5891C67.7147 60.9527 67.0139 61.106 66.3205 61.0247C65.9895 60.9845 65.6694 60.8809 65.3776 60.7196C65.0953 60.5605 64.8458 60.349 64.6425 60.0966C64.2498 59.622 64.0347 59.0254 64.0342 58.4095C64.0402 58.1196 64.1026 57.8337 64.218 57.5677C64.2675 57.4361 64.3436 57.316 64.4416 57.2151C64.5397 57.1143 64.6575 57.0347 64.7877 56.9815C64.9201 56.9402 65.0613 56.9364 65.1957 56.9704C65.3219 57.0119 65.4369 57.0817 65.532 57.1744C65.7093 57.3531 65.8421 57.5709 65.9198 57.8103C65.9996 58.0314 66.0412 58.2645 66.0429 58.4995C66.0429 58.6135 66.0429 58.7237 66.0429 58.834C66.0429 58.9443 66.0337 59.0509 66.0227 59.1556C65.9538 59.8776 65.7433 60.5789 65.4034 61.2195C65.1897 61.6233 64.9254 61.9982 64.6168 62.3351C64.512 62.4509 64.4238 62.5317 64.365 62.5869C64.3062 62.642 64.2749 62.6677 64.2749 62.6677C64.2749 62.6677 64.3025 62.6365 64.3595 62.5795C64.4164 62.5225 64.4992 62.4398 64.6021 62.3222C64.9023 61.9814 65.1602 61.6056 65.3703 61.203C65.7009 60.5645 65.9044 59.868 65.9694 59.1519C65.9805 59.0472 65.986 58.9406 65.9878 58.8322C65.9896 58.7237 65.9878 58.6135 65.9878 58.5013C65.9846 58.2724 65.9429 58.0457 65.8647 57.8305C65.791 57.602 65.6652 57.3937 65.4971 57.2222C65.4091 57.1379 65.3028 57.075 65.1865 57.0384C65.0653 57.0081 64.9381 57.0119 64.8189 57.0495C64.6979 57.1003 64.5887 57.1755 64.4979 57.2703C64.4072 57.3652 64.3369 57.4777 64.2915 57.6008C64.1843 57.8584 64.1275 58.1342 64.1242 58.4131C64.1279 59.0113 64.3383 59.5898 64.7197 60.0506C64.9182 60.2989 65.1637 60.5056 65.4421 60.6589C65.7206 60.8122 66.0266 60.909 66.3425 60.9438C67.0171 61.0213 67.6982 60.8712 68.2778 60.5175C68.8873 60.1457 69.3501 59.5752 69.5881 58.902C69.8429 58.2024 69.8883 57.4436 69.7186 56.7186C69.6819 56.5352 69.62 56.3577 69.5348 56.1912C69.4948 56.11 69.4373 56.0388 69.3664 55.9825C69.2956 55.9263 69.2131 55.8864 69.125 55.8659C68.9431 55.8329 68.7554 55.8696 68.5994 55.9688C68.4395 56.0679 68.3152 56.2153 68.2447 56.3897C68.1026 56.7523 68.0731 57.1494 68.1601 57.5291C68.2408 57.9172 68.41 58.2813 68.6545 58.5932C69.073 59.1494 69.6885 59.5242 70.3747 59.6408C70.7075 59.6861 71.046 59.6616 71.3687 59.5689C71.6915 59.4762 71.9914 59.3173 72.2493 59.1023C72.7648 58.6931 73.1168 58.1129 73.2418 57.4666C73.2711 57.3104 73.2834 57.1514 73.2785 56.9925C73.2815 56.8365 73.2579 56.6811 73.2087 56.533C73.1652 56.3891 73.0802 56.2612 72.9643 56.1655C72.9067 56.1227 72.8393 56.0953 72.7683 56.0856C72.6972 56.076 72.6249 56.0845 72.5581 56.1103C72.4233 56.1664 72.3136 56.2696 72.2493 56.4007C72.1854 56.5318 72.166 56.6803 72.1942 56.8234C72.2614 57.1091 72.417 57.3664 72.639 57.5585C72.8486 57.754 73.0955 57.9053 73.3648 58.0035C73.6341 58.1017 73.9204 58.1447 74.2066 58.1301C74.4775 58.116 74.7426 58.046 74.9852 57.9245C75.2278 57.8031 75.4426 57.6328 75.6163 57.4244C75.9526 57.0377 76.1368 56.5419 76.1345 56.0295V56.0423C76.1043 55.973 76.0516 55.9159 75.9849 55.8802C75.9182 55.8445 75.8414 55.8323 75.767 55.8457C75.6171 55.854 75.4762 55.9198 75.3737 56.0295C75.326 56.0839 75.2926 56.1494 75.2765 56.22C75.2605 56.2906 75.2623 56.3641 75.2818 56.4338C75.3165 56.5766 75.3949 56.7051 75.506 56.8013C75.611 56.8943 75.7347 56.9637 75.8688 57.0049C76.0029 57.0462 76.1443 57.0582 76.2834 57.0403C76.5495 57.0052 76.8076 56.9244 77.0461 56.8013L79.4537 55.5755L80.9846 54.8018L81.3834 54.6014L81.5194 54.5445Z" fill="#263238"/>
<path d="M65.0557 9.20672C65.0557 9.23429 61.1687 9.25634 56.3737 9.25634C51.5788 9.25634 47.6899 9.23429 47.6899 9.20672C47.6899 9.17915 51.577 9.15894 56.3737 9.15894C61.1705 9.15894 65.0557 9.18099 65.0557 9.20672Z" fill="#E0E0E0"/>
<path d="M67.9507 9.20672C67.5516 9.27287 67.1443 9.27287 66.7451 9.20672C67.1445 9.14301 67.5514 9.14301 67.9507 9.20672Z" fill="#E0E0E0"/>
<path d="M85.2375 9.20672C85.2375 9.23429 81.6904 9.25634 77.3182 9.25634C72.946 9.25634 69.3989 9.23429 69.3989 9.20672C69.3989 9.17915 72.9423 9.15894 77.3182 9.15894C81.6941 9.15894 85.2375 9.18099 85.2375 9.20672Z" fill="#E0E0E0"/>
<path d="M65.0557 14.0384C65.0557 14.066 61.1687 14.0862 56.3737 14.0862C51.5788 14.0862 47.6899 14.066 47.6899 14.0384C47.6899 14.0108 51.577 13.9906 56.3737 13.9906C61.1705 13.9906 65.0557 14.0127 65.0557 14.0384Z" fill="#E0E0E0"/>
<path d="M67.9507 14.0384C67.5514 14.1021 67.1445 14.1021 66.7451 14.0384C67.1445 13.9747 67.5514 13.9747 67.9507 14.0384Z" fill="#E0E0E0"/>
<path d="M85.2375 14.0384C85.2375 14.066 81.6904 14.0862 77.3182 14.0862C72.946 14.0862 69.3989 14.066 69.3989 14.0384C69.3989 14.0108 72.9423 13.9906 77.3182 13.9906C81.6941 13.9906 85.2375 14.0127 85.2375 14.0384Z" fill="#E0E0E0"/>
<path d="M80.988 33.163L76.432 43.7508C76.4102 43.8001 76.4038 43.8549 76.4138 43.9079C76.4237 43.9609 76.4495 44.0096 76.4877 44.0477C76.526 44.0857 76.5748 44.1113 76.6279 44.1209C76.681 44.1306 76.7357 44.1239 76.7849 44.1018L80.297 42.5507C80.3315 42.5348 80.3689 42.5265 80.4069 42.5262C80.4448 42.5258 80.4824 42.5336 80.5172 42.5489C80.5519 42.5642 80.583 42.5866 80.6084 42.6148C80.6338 42.643 80.653 42.6763 80.6646 42.7124L81.85 46.2686C81.8681 46.321 81.9021 46.3664 81.9472 46.3985C81.9924 46.4306 82.0464 46.4478 82.1018 46.4478C82.1572 46.4478 82.2112 46.4306 82.2563 46.3985C82.3014 46.3664 82.3354 46.321 82.3536 46.2686L86.6376 34.8483L80.988 33.163Z" fill="#0D92F4"/>
<path d="M86.9263 34.9328L89.1078 46.2503C89.118 46.3031 89.1439 46.3517 89.182 46.3897C89.2202 46.4277 89.2689 46.4533 89.3219 46.4632C89.3748 46.4731 89.4295 46.4669 89.4788 46.4453C89.5282 46.4237 89.5698 46.3878 89.5985 46.3422L91.6311 43.0873C91.6509 43.0557 91.677 43.0286 91.7078 43.0076C91.7387 42.9867 91.7735 42.9724 91.8102 42.9656C91.8468 42.9589 91.8845 42.9598 91.9207 42.9685C91.957 42.9771 91.9911 42.9931 92.0208 43.0157L94.9999 45.2927C95.044 45.3259 95.0972 45.3448 95.1523 45.3466C95.2074 45.3485 95.2618 45.3334 95.308 45.3032C95.3542 45.2731 95.39 45.2295 95.4105 45.1782C95.431 45.127 95.4352 45.0708 95.4226 45.0171L92.5446 33.163L86.9263 34.9328Z" fill="#0D92F4"/>
<g opacity="0.3">
<path d="M80.988 33.163L76.432 43.7508C76.4102 43.8001 76.4038 43.8549 76.4138 43.9079C76.4237 43.9609 76.4495 44.0096 76.4877 44.0477C76.526 44.0857 76.5748 44.1113 76.6279 44.1209C76.681 44.1306 76.7357 44.1239 76.7849 44.1018L80.297 42.5507C80.3315 42.5348 80.3689 42.5265 80.4069 42.5262C80.4448 42.5258 80.4824 42.5336 80.5172 42.5489C80.5519 42.5642 80.583 42.5866 80.6084 42.6148C80.6338 42.643 80.653 42.6763 80.6646 42.7124L81.85 46.2686C81.8681 46.321 81.9021 46.3664 81.9472 46.3985C81.9924 46.4306 82.0464 46.4478 82.1018 46.4478C82.1572 46.4478 82.2112 46.4306 82.2563 46.3985C82.3014 46.3664 82.3354 46.321 82.3536 46.2686L86.6376 34.8483L80.988 33.163Z" fill="black"/>
</g>
<g opacity="0.3">
<path d="M86.9263 34.9328L89.1078 46.2503C89.118 46.3031 89.1439 46.3517 89.182 46.3897C89.2202 46.4277 89.2689 46.4533 89.3219 46.4632C89.3748 46.4731 89.4295 46.4669 89.4788 46.4453C89.5282 46.4237 89.5698 46.3878 89.5985 46.3422L91.6311 43.0873C91.6509 43.0557 91.677 43.0286 91.7078 43.0076C91.7387 42.9867 91.7735 42.9724 91.8102 42.9656C91.8468 42.9589 91.8845 42.9598 91.9207 42.9685C91.957 42.9771 91.9911 42.9931 92.0208 43.0157L94.9999 45.2927C95.044 45.3259 95.0972 45.3448 95.1523 45.3466C95.2074 45.3485 95.2618 45.3334 95.308 45.3032C95.3542 45.2731 95.39 45.2295 95.4105 45.1782C95.431 45.127 95.4352 45.0708 95.4226 45.0171L92.5446 33.163L86.9263 34.9328Z" fill="black"/>
</g>
<path d="M87.1469 14.6119L88.6429 13.5129L89.8191 14.9483L91.5412 14.2572L92.3223 15.9407L94.1638 15.6981L94.5001 17.5231L96.3435 17.7455L96.2167 19.598L97.9461 20.2707L97.3635 22.0332L98.8705 23.1175L97.8689 24.6797L99.0598 26.1021L97.698 27.3666L98.4992 29.0409L96.8672 29.9267L97.2256 31.748L95.4245 32.2001L95.3179 34.0527L93.4617 34.0435L92.8975 35.8115L91.1019 35.341L90.115 36.9123L88.494 36.01L87.1469 37.2873L85.8016 36.01L84.1806 36.9123L83.1937 35.341L81.3981 35.8115L80.8339 34.0435L78.9777 34.0527L78.8711 32.2001L77.07 31.748L77.4284 29.9267L75.7964 29.0409L76.5958 27.3666L75.2358 26.1021L76.4268 24.6797L75.4251 23.1175L76.9322 22.0332L76.3477 20.2707L78.079 19.598L77.9522 17.7455L79.7955 17.5231L80.1319 15.6981L81.9734 15.9407L82.7545 14.2572L84.4765 14.9483L85.6509 13.5129L87.1469 14.6119Z" fill="#0D92F4"/>
<path d="M93.0927 31.3456C96.3763 28.062 96.3763 22.7382 93.0927 19.4547C89.8091 16.1711 84.4854 16.1711 81.2018 19.4547C77.9182 22.7382 77.9182 28.062 81.2018 31.3456C84.4854 34.6291 89.8091 34.6291 93.0927 31.3456Z" fill="white"/>
<path d="M88.9809 23.4077L91.236 23.7385C91.3196 23.7507 91.3981 23.7859 91.4626 23.8404C91.5272 23.8949 91.5752 23.9663 91.6012 24.0467C91.6272 24.127 91.6302 24.2131 91.6098 24.295C91.5895 24.377 91.5465 24.4516 91.4859 24.5104L89.8521 26.1002C89.7993 26.1512 89.7598 26.2144 89.7371 26.2843C89.7143 26.3541 89.709 26.4285 89.7216 26.5008L90.1057 28.7522C90.1198 28.8353 90.1105 28.9207 90.0786 28.9988C90.0468 29.0768 89.9937 29.1444 89.9255 29.194C89.8572 29.2435 89.7765 29.2729 89.6924 29.279C89.6083 29.285 89.5242 29.2674 89.4496 29.2282L87.428 28.1641C87.3632 28.1296 87.2909 28.1116 87.2175 28.1116C87.1441 28.1116 87.0719 28.1296 87.0071 28.1641L84.9855 29.2227C84.9107 29.2615 84.8266 29.2788 84.7426 29.2724C84.6587 29.2661 84.5781 29.2364 84.5101 29.1867C84.4421 29.137 84.3893 29.0693 84.3577 28.9913C84.326 28.9132 84.3169 28.8278 84.3312 28.7448L84.719 26.499C84.7315 26.4268 84.7263 26.3526 84.7039 26.2828C84.6815 26.2131 84.6425 26.1498 84.5903 26.0983L82.9583 24.5049C82.8977 24.446 82.8548 24.3712 82.8345 24.2891C82.8142 24.207 82.8174 24.1209 82.8436 24.0405C82.8698 23.9601 82.9181 23.8886 82.9828 23.8343C83.0476 23.7799 83.1264 23.7449 83.2101 23.733L85.467 23.4077C85.5395 23.3977 85.6084 23.37 85.6677 23.327C85.727 23.2841 85.7748 23.2272 85.807 23.1615L86.8196 21.1178C86.857 21.0422 86.9148 20.9786 86.9864 20.9341C87.058 20.8897 87.1406 20.8661 87.2249 20.8661C87.3092 20.8661 87.3918 20.8897 87.4634 20.9341C87.535 20.9786 87.5927 21.0422 87.6301 21.1178L88.6354 23.1651C88.6688 23.2307 88.7177 23.2871 88.778 23.3294C88.8382 23.3717 88.9079 23.3986 88.9809 23.4077Z" fill="#0D92F4"/>
<path d="M119.813 32.0787C119.813 32.0787 117.622 41.0529 107.813 38.9963C107.813 38.9963 110.657 29.9082 119.813 32.0787Z" fill="#263238"/>
<path d="M115.078 45.6695C115.078 45.6695 110.576 52.3832 103.132 47.7408C103.132 47.7408 108.205 41.1301 115.078 45.6695Z" fill="#263238"/>
<path d="M107.9 55.9118C107.9 55.9118 101.331 61.497 95.0347 54.5739C95.0457 54.5739 102.164 49.2588 107.9 55.9118Z" fill="#263238"/>
<path d="M100.943 34.1977C100.943 34.1977 108.228 37.6988 104.692 45.7228C104.692 45.7228 97.4349 41.6428 100.943 34.1977Z" fill="#263238"/>
<path d="M99.3628 43.8721C99.3628 43.8721 102.996 48.7773 97.5801 52.9915C97.5801 52.9915 94.1782 47.7003 99.3628 43.8721Z" fill="#263238"/>
<path d="M116.214 21.5846C116.214 21.5846 117.05 28.8588 109.193 30.024C109.197 30.024 108.809 22.4851 116.214 21.5846Z" fill="#263238"/>
<path d="M104.946 14.2332C104.946 14.2332 111.3 16.8871 108.541 24.3414C108.541 24.3267 102.173 21.1472 104.946 14.2332Z" fill="#263238"/>
<path d="M101.111 24.8523C101.111 24.8523 109.524 25.8116 108.784 34.9696C108.784 34.9696 100.192 33.4295 101.111 24.8523Z" fill="#263238"/>
<path d="M89.1372 56.8179C89.1372 56.8179 89.1721 56.805 89.2438 56.7848L89.5581 56.7021C89.8356 56.6286 90.2454 56.5312 90.7637 56.3621C92.2281 55.9089 93.644 55.3117 94.9907 54.5794C96.9899 53.487 98.8353 52.1342 100.479 50.5564C101.45 49.6282 102.356 48.6333 103.189 47.5791L103.822 46.73L104.14 46.3018C104.242 46.1547 104.336 46.0022 104.437 45.8515L105.031 44.9326L105.582 43.9732C105.672 43.8115 105.766 43.6516 105.854 43.4917C105.942 43.3318 106.018 43.1609 106.099 42.9973C106.26 42.6683 106.424 42.3449 106.58 42.0177C106.736 41.6906 106.86 41.3561 106.999 41.029C107.067 40.8654 107.141 40.7037 107.203 40.5401L107.387 40.0439L107.738 39.0662C107.835 38.7372 107.922 38.4101 108.027 38.0884C108.074 37.9267 108.122 37.7668 108.168 37.6069C108.214 37.447 108.247 37.2853 108.288 37.1254L108.51 36.1771C108.99 33.9499 109.201 31.6729 109.137 29.3954C109.086 27.8608 108.915 26.3326 108.626 24.8247C108.51 24.2917 108.409 23.8819 108.348 23.6026C108.317 23.4647 108.293 23.36 108.276 23.2846C108.26 23.2093 108.256 23.1762 108.256 23.1762C108.256 23.1762 108.267 23.2111 108.286 23.2828L108.367 23.5989C108.435 23.8764 108.55 24.2862 108.662 24.8174C109.429 28.5737 109.407 32.4483 108.596 36.1955C108.523 36.5079 108.449 36.8252 108.374 37.1475C108.335 37.3073 108.304 37.4709 108.256 37.6308C108.208 37.7907 108.163 37.9524 108.115 38.1142L107.826 39.0937L107.475 40.0751C107.416 40.2405 107.358 40.406 107.291 40.5732C107.225 40.7404 107.155 40.9003 107.086 41.0657L106.667 42.0582C106.51 42.3853 106.345 42.7106 106.185 43.0396L105.939 43.5358C105.849 43.6975 105.755 43.8574 105.665 44.0192L105.114 44.9822L104.516 45.9011C104.415 46.0518 104.321 46.2043 104.217 46.3514L103.897 46.7833L103.263 47.6342C102.429 48.6929 101.522 49.6915 100.548 50.6225C98.8981 52.2023 97.0438 53.5541 95.0348 54.6419C93.6791 55.3704 92.253 55.9597 90.7784 56.4007C90.2583 56.5643 89.8448 56.6562 89.5654 56.7223L89.2493 56.7977L89.1372 56.8179Z" fill="#263238"/>
<path d="M98.5745 47.8271C98.5841 47.8954 98.5841 47.9647 98.5745 48.033C98.5634 48.1635 98.5432 48.3546 98.5157 48.5843C98.4587 49.053 98.3613 49.6981 98.2234 50.4056C98.0856 51.1132 97.9312 51.7491 97.8081 52.2031C97.7456 52.4309 97.6941 52.6147 97.6537 52.7415C97.6379 52.8086 97.6138 52.8734 97.582 52.9345C97.5866 52.8661 97.5983 52.7983 97.617 52.7324C97.6519 52.5835 97.6941 52.4015 97.7419 52.181C97.8485 51.7234 97.9919 51.0875 98.1297 50.3817C98.2676 49.676 98.3741 49.0346 98.4477 48.5696C98.4826 48.3528 98.5138 48.169 98.5377 48.0183C98.5435 47.9535 98.5558 47.8895 98.5745 47.8271Z" fill="#455A64"/>
<path d="M100.365 55.1124C100.296 55.1153 100.227 55.1092 100.159 55.094L99.6076 55.0113C99.1372 54.9414 98.4847 54.8495 97.7698 54.765C97.0549 54.6805 96.3933 54.6198 95.9191 54.5812L95.3567 54.5316C95.2873 54.5291 95.2183 54.5193 95.1509 54.5022C95.2198 54.4932 95.2896 54.4932 95.3586 54.5022C95.4927 54.5022 95.6857 54.5022 95.9228 54.5206C96.4006 54.5445 97.0567 54.5941 97.7808 54.6786C98.5049 54.7632 99.1555 54.8624 99.6187 54.9543C99.8539 54.9984 100.041 55.037 100.17 55.0664C100.237 55.0735 100.302 55.089 100.365 55.1124Z" fill="#455A64"/>
<path d="M109.219 46.2117C109.141 46.2393 109.059 46.259 108.977 46.2705L108.311 46.401C107.749 46.5131 106.975 46.6748 106.126 46.8788C105.277 47.0828 104.514 47.296 103.963 47.4541L103.311 47.6379C103.232 47.6653 103.152 47.6849 103.07 47.6967C103.142 47.6558 103.219 47.6237 103.3 47.6011C103.45 47.546 103.667 47.4725 103.945 47.3842C104.496 47.2096 105.251 46.9873 106.102 46.7814C106.953 46.5756 107.732 46.423 108.308 46.3293C108.591 46.2815 108.82 46.2484 108.98 46.2282C109.059 46.2147 109.139 46.2091 109.219 46.2117Z" fill="#455A64"/>
<path d="M102.789 39.329C102.845 39.398 102.895 39.4725 102.937 39.5513C103.031 39.6984 103.154 39.9189 103.296 40.1891C104.033 41.6275 104.484 43.1954 104.623 44.8057C104.648 45.1127 104.659 45.3571 104.659 45.5409C104.668 45.6301 104.668 45.72 104.659 45.8092C104.641 45.7215 104.631 45.6323 104.63 45.5427C104.621 45.3718 104.599 45.1237 104.564 44.8168C104.39 43.221 103.944 41.667 103.244 40.2222C103.11 39.9446 102.998 39.7241 102.915 39.5716C102.865 39.495 102.823 39.4137 102.789 39.329Z" fill="#455A64"/>
<path d="M112.547 35.1442C112.488 35.1958 112.423 35.2414 112.354 35.2802L111.814 35.6312C111.362 35.9326 110.748 36.3664 110.105 36.8846C109.462 37.4029 108.91 37.9175 108.523 38.2979L108.067 38.7537C108.015 38.8128 107.957 38.8664 107.894 38.9136C107.936 38.8477 107.985 38.7862 108.039 38.7298C108.138 38.6141 108.287 38.4505 108.475 38.2538C108.967 37.7413 109.492 37.2601 110.044 36.813C110.596 36.3656 111.175 35.9526 111.777 35.5761C112.011 35.4328 112.2 35.3225 112.329 35.249C112.397 35.2053 112.471 35.1701 112.547 35.1442Z" fill="#455A64"/>
<path d="M103.36 28.5004C103.386 28.5155 103.409 28.5334 103.43 28.5537L103.614 28.7191C103.774 28.8643 104.002 29.0867 104.276 29.3495C104.827 29.8898 105.562 30.6599 106.327 31.5549C107.091 32.4499 107.735 33.3008 108.181 33.9294C108.404 34.2436 108.58 34.5009 108.698 34.6811L108.832 34.8906C108.861 34.9402 108.876 34.9659 108.872 34.9678C108.85 34.9485 108.831 34.9262 108.815 34.9016L108.666 34.7031L108.126 33.968C107.667 33.3505 107.023 32.5087 106.253 31.6155C105.483 30.7223 104.765 29.9449 104.232 29.3936L103.588 28.7522L103.416 28.5684C103.377 28.5261 103.359 28.5041 103.36 28.5004Z" fill="#455A64"/>
<path d="M113.494 23.9481C113.439 24.0291 113.378 24.1053 113.31 24.1759L112.799 24.7788C112.371 25.2897 111.796 26.0083 111.204 26.8353C110.612 27.6623 110.12 28.4397 109.774 29.0113L109.381 29.6876C109.336 29.7736 109.284 29.8554 109.225 29.9321C109.259 29.8414 109.3 29.7536 109.348 29.6693C109.432 29.5039 109.563 29.2668 109.728 28.9764C110.059 28.3956 110.546 27.6109 111.14 26.7802C111.733 25.9495 112.32 25.2345 112.761 24.7347C112.981 24.4829 113.165 24.2844 113.295 24.1502C113.356 24.0774 113.422 24.0097 113.494 23.9481Z" fill="#455A64"/>
<path d="M105.889 17.0414C105.939 17.1278 105.983 17.2174 106.021 17.3098C106.101 17.4825 106.205 17.7362 106.345 18.0449C106.611 18.6735 106.964 19.5519 107.326 20.5315C107.688 21.5111 107.992 22.4061 108.199 23.0585C108.304 23.3838 108.383 23.6485 108.438 23.8323C108.47 23.9264 108.495 24.0229 108.512 24.1208C108.467 24.0319 108.43 23.939 108.401 23.8433L108.135 23.0788C107.913 22.4337 107.598 21.5423 107.236 20.5646C106.874 19.5869 106.532 18.7065 106.282 18.0706C106.161 17.7637 106.062 17.5193 105.987 17.3153C105.945 17.2275 105.912 17.1358 105.889 17.0414Z" fill="#455A64"/>
<path d="M9.77002 30.081C9.77002 30.081 11.8413 38.5608 21.1095 36.6182C21.104 36.6182 18.4171 28.0299 9.77002 30.081Z" fill="#263238"/>
<path d="M14.2432 42.9238C14.2432 42.9238 18.4978 49.268 25.5275 44.8811C25.5275 44.8811 20.7344 38.6343 14.2432 42.9238Z" fill="#263238"/>
<path d="M21.0215 52.6019C21.0215 52.6019 27.2297 57.882 33.1751 51.3393C33.1751 51.3393 26.4431 46.3146 21.0215 52.6019Z" fill="#263238"/>
<path d="M27.597 32.0842C27.597 32.0842 20.7124 35.3923 24.0536 42.9734C24.0518 42.9734 30.918 39.1195 27.597 32.0842Z" fill="#263238"/>
<path d="M29.0896 41.2256C29.0896 41.2256 25.6565 45.8607 30.7731 49.8433C30.7731 49.8433 33.9893 44.8443 29.0896 41.2256Z" fill="#263238"/>
<path d="M13.1664 20.1639C13.1664 20.1639 12.3762 27.0375 19.801 28.1383C19.801 28.1383 20.1613 21.0149 13.1664 20.1639Z" fill="#263238"/>
<path d="M23.8147 13.2077C23.8147 13.2077 17.8087 15.7164 20.4166 22.7645C20.4166 22.7553 26.4337 19.7467 23.8147 13.2077Z" fill="#263238"/>
<path d="M27.4389 23.2515C27.4389 23.2515 19.4865 24.1594 20.1867 32.8083C20.1867 32.812 28.3082 31.3582 27.4389 23.2515Z" fill="#263238"/>
<path d="M40.4968 54.0464L40.3883 54.0262L40.0741 53.9564C39.7984 53.892 39.3904 53.8056 38.8739 53.6531C37.4108 53.2456 35.9859 52.7112 34.6157 52.056C33.6668 51.6077 32.7462 51.1019 31.8589 50.5416C30.8376 49.9034 29.8629 49.1934 28.9422 48.4171C27.9217 47.5619 26.9687 46.6292 26.0917 45.6272L25.4228 44.8204C25.2059 44.5429 25.0001 44.2544 24.785 43.9695C24.6784 43.8262 24.5719 43.681 24.4634 43.5376L24.1675 43.0873C23.9727 42.7823 23.765 42.4809 23.5757 42.1684C23.2082 41.5289 22.8406 40.9077 22.5374 40.2571C22.2066 39.623 21.9456 38.9706 21.6736 38.331C19.7557 33.5628 19.274 28.3378 20.2878 23.2993C20.3981 22.7737 20.5102 22.3712 20.5745 22.0955C20.6095 21.9613 20.6352 21.8566 20.6536 21.7831C20.672 21.7096 20.6848 21.6783 20.6848 21.6783C20.6848 21.6783 20.6848 21.7151 20.6628 21.7868C20.6407 21.8584 20.6242 21.9705 20.5929 22.0992C20.5341 22.3767 20.4275 22.781 20.3228 23.3066C20.0423 24.7959 19.8831 26.3054 19.8468 27.8204C19.7939 31.4039 20.4445 34.963 21.7618 38.2961C22.032 38.9301 22.2929 39.5826 22.6237 40.2148C22.9233 40.8617 23.2982 41.4811 23.6566 42.1188C23.8404 42.4312 24.0517 42.7308 24.2466 43.0377L24.5425 43.4898L24.8622 43.9199C25.0754 44.2048 25.2813 44.4933 25.4963 44.769L26.1634 45.5721C27.8302 47.4762 29.7626 49.1301 31.9012 50.4828C34.0695 51.8536 36.4207 52.911 38.885 53.6237C39.3977 53.7818 39.8039 53.8736 40.0796 53.9435L40.3902 54.0244L40.4968 54.0464Z" fill="#263238"/>
<path d="M29.8338 44.962C29.8539 45.0217 29.8681 45.0832 29.8761 45.1457C29.9 45.2891 29.9275 45.4619 29.9606 45.6659C30.0304 46.1051 30.1334 46.7116 30.262 47.3787C30.3907 48.0459 30.5267 48.645 30.6296 49.0787C30.6755 49.2791 30.7141 49.4463 30.7472 49.5933C30.7654 49.653 30.7759 49.7148 30.7784 49.7771C30.7487 49.7187 30.7259 49.657 30.7104 49.5933C30.6737 49.4757 30.6222 49.3011 30.5634 49.0861C30.4458 48.656 30.3024 48.0569 30.1701 47.3879C30.0378 46.7189 29.9496 46.1014 29.8963 45.6659C29.8687 45.4453 29.8503 45.2652 29.8411 45.1402C29.8317 45.0813 29.8292 45.0215 29.8338 44.962Z" fill="#455A64"/>
<path d="M28.1484 51.8465C28.2077 51.8224 28.2693 51.8045 28.3322 51.7932C28.4535 51.7657 28.6336 51.7289 28.8542 51.6866C29.2971 51.6039 29.9128 51.5028 30.5964 51.4257C31.2801 51.3485 31.9013 51.2988 32.3516 51.2786C32.5776 51.2676 32.7596 51.2603 32.8846 51.2603C32.9498 51.2516 33.0159 51.2516 33.0812 51.2603C33.0182 51.2772 32.9534 51.2865 32.8882 51.2878L32.3571 51.3356C31.9087 51.3742 31.2893 51.433 30.6075 51.5194C29.9256 51.6058 29.321 51.6866 28.8652 51.7528L28.3377 51.8281C28.2757 51.8424 28.2121 51.8486 28.1484 51.8465Z" fill="#455A64"/>
<path d="M19.7754 43.4329C19.8543 43.4301 19.9333 43.4369 20.0106 43.4531C20.1613 43.4715 20.3782 43.5027 20.6447 43.5468C21.1813 43.635 21.9165 43.7784 22.7215 43.9732C23.5264 44.168 24.245 44.3775 24.7615 44.5448C25.0188 44.6275 25.2264 44.6991 25.3698 44.7506C25.445 44.773 25.5177 44.8032 25.5866 44.8407C25.5082 44.8315 25.431 44.813 25.3569 44.7855L24.7412 44.6017C24.2211 44.4529 23.5007 44.2544 22.6976 44.0596C21.8944 43.8648 21.1648 43.7122 20.6337 43.6056L20.0051 43.4825C19.9272 43.4731 19.8503 43.4565 19.7754 43.4329Z" fill="#455A64"/>
<path d="M25.8528 36.9324C25.8231 37.0116 25.7862 37.0879 25.7426 37.1603C25.6654 37.3037 25.5588 37.5132 25.432 37.776C25.1034 38.4571 24.8329 39.1648 24.6233 39.8914C24.4159 40.6186 24.269 41.3618 24.1841 42.1133C24.1528 42.4018 24.1308 42.6371 24.1216 42.7988C24.1203 42.8835 24.1105 42.9679 24.0922 43.0506C24.0817 42.9665 24.0786 42.8816 24.083 42.797C24.083 42.6334 24.0922 42.3982 24.1161 42.1078C24.1823 41.3482 24.3214 40.5968 24.5314 39.8638C24.7418 39.1318 25.0231 38.4221 25.3713 37.7448C25.5055 37.4856 25.6213 37.2798 25.7095 37.1419C25.7493 37.067 25.7974 36.9967 25.8528 36.9324Z" fill="#455A64"/>
<path d="M16.6309 32.9792C16.7008 33.0049 16.7679 33.0375 16.8312 33.0766C16.958 33.1446 17.1381 33.2494 17.3586 33.3854C17.9284 33.7405 18.4759 34.1303 18.998 34.5524C19.5194 34.9754 20.0141 35.4302 20.4793 35.9143C20.6631 36.0981 20.7972 36.2543 20.891 36.3645C20.943 36.421 20.9891 36.4826 21.0288 36.5483C20.9679 36.5041 20.9124 36.4529 20.8634 36.3958L20.4297 35.9602C20.0621 35.5926 19.5438 35.1185 18.9355 34.6241C18.3272 34.1297 17.7464 33.7236 17.3201 33.4405L16.811 33.106C16.7461 33.071 16.6857 33.0284 16.6309 32.9792Z" fill="#455A64"/>
<path d="M25.3125 26.6993C25.2466 26.7823 25.1748 26.8603 25.0974 26.9327L24.4928 27.5484C23.9874 28.0685 23.3 28.8036 22.5796 29.6472C21.8591 30.4908 21.2453 31.2866 20.8097 31.871L20.2988 32.5639C20.2402 32.6514 20.1751 32.7343 20.104 32.812C20.1515 32.7179 20.2062 32.6275 20.2676 32.5418C20.3778 32.3709 20.5451 32.1265 20.7546 31.8306C21.1773 31.2351 21.7856 30.432 22.5079 29.5847C23.2302 28.7375 23.9212 28.017 24.445 27.5006C24.706 27.2451 24.9192 27.0411 25.0717 26.9051C25.1469 26.8308 25.2273 26.762 25.3125 26.6993Z" fill="#455A64"/>
<path d="M15.7354 22.3969C15.8066 22.4524 15.8731 22.5139 15.9338 22.5807C16.057 22.7075 16.2297 22.895 16.4374 23.1321C16.9812 23.7536 17.4928 24.4026 17.9702 25.0765C18.5215 25.8613 18.992 26.6038 19.3044 27.1514C19.4607 27.4253 19.582 27.6495 19.672 27.8075C19.7185 27.887 19.7572 27.9707 19.7878 28.0575C19.7321 27.9844 19.6823 27.9069 19.6389 27.8259L19.2548 27.1863C18.9277 26.6479 18.4609 25.9146 17.9022 25.1316C17.3435 24.3487 16.7995 23.6706 16.3951 23.1872C16.2114 22.9556 16.0404 22.7645 15.9155 22.6175C15.8478 22.5505 15.7874 22.4766 15.7354 22.3969Z" fill="#455A64"/>
<path d="M22.9252 15.8707C22.902 15.962 22.8713 16.0511 22.8333 16.1372C22.7616 16.321 22.6679 16.5618 22.5539 16.8503C22.3187 17.4513 22.0026 18.2838 21.6534 19.2083C21.3042 20.1327 21.0138 20.9744 20.797 21.5846C20.6941 21.8768 20.6132 22.1194 20.5452 22.3069C20.5189 22.3971 20.4838 22.4845 20.4404 22.5678C20.4555 22.4754 20.4782 22.3844 20.5084 22.2958C20.5581 22.112 20.6352 21.8713 20.7326 21.5607C20.9293 20.945 21.2142 20.0904 21.5578 19.1715C21.9015 18.2526 22.2342 17.4182 22.4859 16.8227C22.6128 16.525 22.7175 16.2861 22.7929 16.1207C22.829 16.0334 22.8733 15.9497 22.9252 15.8707Z" fill="#455A64"/>
<path d="M40.488 24.5251C41.8278 24.6997 42.0263 26.0726 42.5225 27.2249C43.0187 28.3772 43.9689 29.4028 44.7003 30.4338C45.0863 30.9851 45.6193 31.4685 45.7516 32.1154C45.8968 32.7917 45.588 33.492 45.4428 34.1812C45.2976 34.8703 45.4006 35.7139 46.0622 36.019C45.9879 36.1058 45.8944 36.174 45.7891 36.2184C45.6838 36.2627 45.5697 36.2819 45.4557 36.2745C45.4557 36.5924 45.1488 36.8662 44.8143 36.9581C44.4772 37.0253 44.1298 37.0215 43.7943 36.9471C43.8843 37.1585 43.6932 37.4139 43.4561 37.4985C43.2155 37.5643 42.9616 37.5643 42.721 37.4985C42.4822 37.4307 42.232 37.4125 41.9858 37.4452C41.4345 37.5646 41.1129 38.1803 40.5615 38.2575C39.8043 38.3678 39.2603 37.3992 38.5123 37.5683C38.1613 37.6473 37.9279 37.9542 37.6394 38.1638C37.3508 38.3733 36.8638 38.32 36.7204 38.0186C36.3198 38.524 35.7004 39.0147 35.048 39.1488C35.0946 39.0384 35.1075 38.9166 35.0849 38.7988C35.0623 38.681 35.0054 38.5726 34.9212 38.4872C34.5634 38.7793 34.1337 38.9698 33.677 39.0386C33.8142 38.9125 33.9224 38.7582 33.9941 38.5862C34.0659 38.4142 34.0994 38.2287 34.0923 38.0425C33.9386 38.1631 33.7594 38.2472 33.5683 38.2883C33.3773 38.3294 33.1793 38.3264 32.9896 38.2795C33.6623 37.8954 33.7247 37.0022 33.4895 36.3314C33.2543 35.6606 32.7948 35.0596 32.7066 34.3521C32.6092 33.582 33.5134 32.608 33.337 31.8526C33.065 30.6874 33.0852 29.978 33.133 28.89C33.1642 28.1788 33.4785 27.5465 33.7909 26.8831C34.1567 26.0613 34.7833 25.383 35.5736 24.9533C36.2849 24.5527 37.3104 24.1851 38.1245 24.1667C39.5764 24.1355 40.1664 24.0896 41.315 24.8578" fill="#263238"/>
<path d="M36.0143 34.0121C35.5375 33.0864 35.1421 32.1209 34.8326 31.1267C34.5223 30.1277 34.4654 29.0673 34.6672 28.0409C34.7021 27.8884 35.0347 26.8426 35.1928 26.8371C35.3049 26.8371 35.1413 27.7873 35.2112 27.8774C35.871 28.7264 36.1669 29.8163 36.2238 30.8896C36.27 31.9356 36.1998 32.9835 36.0143 34.0139" fill="#263238"/>
<path d="M42.3624 42.8154C40.7579 42.9991 36.8985 41.312 36.6834 39.7131L35.3822 30.0901C34.9522 27.5172 36.0898 25.128 38.6757 24.7604L38.9164 24.7402C40.0855 24.6462 41.2471 24.9961 42.1698 25.7202C43.0925 26.4444 43.7085 27.4895 43.8951 28.6474C44.2627 30.8804 44.6303 33.3505 44.7093 34.5579C44.8784 37.0556 42.4138 37.6437 42.4138 37.6437C42.4138 37.6437 42.4763 38.2207 42.5664 38.9504C42.7704 40.5897 42.5094 42.3871 42.3624 42.8098V42.8154Z" fill="#FFBE9D"/>
<path d="M42.4138 37.6437C41.2602 37.7332 40.1051 37.4902 39.0854 36.9434C39.0854 36.9434 40.0191 38.7574 42.491 38.3328L42.4138 37.6437Z" fill="#EB996E"/>
<path d="M42.9648 30.8198C42.9731 30.9124 42.9449 31.0045 42.8862 31.0766C42.8275 31.1487 42.7429 31.195 42.6506 31.2057C42.6055 31.2132 42.5593 31.2116 42.5148 31.2009C42.4703 31.1901 42.4285 31.1705 42.3918 31.1433C42.355 31.116 42.3242 31.0816 42.3011 31.0421C42.278 31.0026 42.2631 30.9589 42.2573 30.9135C42.249 30.8209 42.2772 30.7287 42.3359 30.6566C42.3946 30.5845 42.4792 30.5382 42.5716 30.5275C42.6167 30.5197 42.663 30.5212 42.7075 30.5318C42.7521 30.5424 42.7941 30.562 42.8309 30.5893C42.8676 30.6166 42.8985 30.6512 42.9215 30.6908C42.9445 30.7304 42.9593 30.7743 42.9648 30.8198Z" fill="#263238"/>
<path d="M43.452 29.7905C43.4116 29.8402 43.1267 29.6619 42.7426 29.6931C42.3585 29.7244 42.0938 29.9394 42.0479 29.8953C42.0019 29.8512 42.0644 29.7887 42.1802 29.6913C42.3366 29.5622 42.5293 29.4851 42.7316 29.4708C42.9309 29.4536 43.1305 29.5007 43.3013 29.6049C43.4263 29.6858 43.4722 29.7667 43.452 29.7905Z" fill="#263238"/>
<path d="M39.3592 31.1009C39.3653 31.1933 39.3363 31.2845 39.278 31.3564C39.2198 31.4282 39.1365 31.4755 39.045 31.4887C38.9999 31.496 38.9538 31.4942 38.9094 31.4833C38.865 31.4725 38.8233 31.4529 38.7866 31.4256C38.75 31.3984 38.7191 31.3641 38.6959 31.3247C38.6728 31.2854 38.6577 31.2418 38.6517 31.1965C38.6456 31.1042 38.6746 31.013 38.7329 30.9411C38.7911 30.8692 38.8744 30.8219 38.9659 30.8087C39.011 30.8017 39.057 30.8037 39.1013 30.8147C39.1455 30.8256 39.1872 30.8452 39.2238 30.8724C39.2604 30.8996 39.2912 30.9338 39.3145 30.9731C39.3377 31.0123 39.3529 31.0558 39.3592 31.1009Z" fill="#263238"/>
<path d="M39.6995 30.1802C39.6591 30.2298 39.3724 30.0534 38.9901 30.0846C38.6079 30.1158 38.3395 30.3309 38.2954 30.2868C38.2513 30.2427 38.3101 30.1802 38.4259 30.0809C38.5822 29.952 38.7751 29.8755 38.9773 29.8622C39.1772 29.8448 39.3775 29.8919 39.5488 29.9964C39.6738 30.0772 39.7271 30.1581 39.6995 30.1802Z" fill="#263238"/>
<path d="M41.3132 33.0178C41.51 32.9377 41.7163 32.8833 41.927 32.8561C42.0244 32.8377 42.1108 32.8101 42.1255 32.7421C42.1264 32.6403 42.0955 32.5408 42.0373 32.4573L41.6881 31.735C41.2011 30.7058 40.839 29.8549 40.8813 29.8365C40.9236 29.8181 41.3518 30.636 41.8388 31.6652L42.177 32.4003C42.2479 32.5136 42.2765 32.6483 42.2578 32.7807C42.2465 32.8164 42.2272 32.8489 42.2014 32.876C42.1756 32.9031 42.144 32.9239 42.109 32.9369C42.0554 32.9555 41.9999 32.9679 41.9436 32.9737C41.7361 33.0149 41.5243 33.0297 41.3132 33.0178Z" fill="#263238"/>
<path d="M39.5432 28.7522C39.4991 28.8533 39.1187 28.7798 38.6647 28.8073C38.2108 28.8349 37.8377 28.9341 37.7844 28.8367C37.7605 28.7908 37.8303 28.6952 37.9829 28.6033C38.1869 28.4924 38.4134 28.429 38.6454 28.4178C38.8774 28.4067 39.1089 28.4481 39.3227 28.539C39.4917 28.6143 39.5708 28.7007 39.5432 28.7522Z" fill="#263238"/>
<path d="M43.2906 28.901C43.2189 28.9948 42.8991 28.9341 42.5223 28.9654C42.1456 28.9966 41.835 29.0903 41.7541 29.0058C41.7174 28.9654 41.7541 28.8735 41.8901 28.7779C42.0725 28.6602 42.2818 28.5905 42.4984 28.5754C42.715 28.5603 42.9319 28.6002 43.1288 28.6915C43.2685 28.7687 43.3218 28.8551 43.2906 28.901Z" fill="#263238"/>
<path d="M35.7347 31.9225C35.6905 31.9078 33.9795 31.5549 34.1707 33.2549C34.3618 34.9549 36.0306 34.4146 36.0287 34.3576C36.0269 34.3006 35.7347 31.9225 35.7347 31.9225Z" fill="#FFBE9D"/>
<path d="M35.4372 33.7787C35.4372 33.7787 35.4097 33.8026 35.3619 33.832C35.2947 33.8692 35.2159 33.8797 35.1413 33.8614C34.9576 33.8154 34.7738 33.5471 34.726 33.2402C34.7059 33.0947 34.7185 32.9465 34.7627 32.8065C34.7724 32.7516 34.7954 32.6999 34.8297 32.656C34.8639 32.6121 34.9085 32.5773 34.9594 32.5547C34.9923 32.542 35.0286 32.5411 35.0621 32.5521C35.0956 32.5632 35.1243 32.5855 35.1432 32.6153C35.1726 32.6613 35.1652 32.6962 35.1744 32.698C35.1836 32.6999 35.2075 32.6649 35.1854 32.5969C35.1717 32.5555 35.1437 32.5204 35.1064 32.4977C35.0556 32.4673 34.9949 32.4581 34.9373 32.472C34.8692 32.4941 34.8078 32.5333 34.759 32.5857C34.7101 32.6381 34.6753 32.702 34.658 32.7715C34.6027 32.9269 34.5857 33.0934 34.6084 33.2567C34.658 33.5986 34.8693 33.9 35.123 33.9441C35.1702 33.9526 35.2187 33.9502 35.2649 33.9371C35.3111 33.9241 35.3537 33.9007 35.3894 33.8687C35.4372 33.8209 35.4427 33.7805 35.4372 33.7787Z" fill="#EB996E"/>
<path d="M42.4523 25.9623C42.7096 25.7785 41.776 24.9846 41.0629 24.7604C39.9841 24.4204 38.3889 24.3248 37.4773 24.7071C36.3746 25.1665 35.509 25.8447 35.0642 26.9474C34.6428 28.0651 34.5267 29.2748 34.7279 30.4522C34.7575 30.816 34.8845 31.1651 35.0954 31.463C35.3785 31.8103 35.8637 31.9923 35.9059 32.5124C35.9178 32.7032 36.0035 32.8818 36.1448 33.0105C36.4977 33.3027 36.8396 32.9461 36.9774 32.6135C37.2696 31.9022 37.2145 31.1009 37.1612 30.3346C37.1485 29.7866 37.0454 29.2445 36.8561 28.7301C36.7385 28.4563 36.5731 28.2045 36.4701 27.9251C36.4107 27.7887 36.3816 27.641 36.3847 27.4922C36.3879 27.3433 36.4233 27.197 36.4885 27.0632C36.5216 27.01 36.5597 26.9601 36.6025 26.9143C36.8143 26.6783 37.085 26.5029 37.387 26.406C37.689 26.3091 38.0113 26.2943 38.3209 26.363C39.3188 26.5854 41.017 26.8923 41.4048 26.5155C41.9561 25.9642 42.0719 25.6517 42.0719 25.6517L42.4523 25.9623Z" fill="#263238"/>
<path d="M40.2873 33.3468C40.2653 33.3468 40.2616 33.4479 40.313 33.5912C40.3839 33.7799 40.5125 33.9413 40.6806 34.0525C40.8422 34.1601 41.0222 34.2367 41.2117 34.2786C41.3533 34.3117 41.4452 34.3153 41.4525 34.2933C41.4599 34.2712 41.3827 34.2216 41.254 34.1591C41.0908 34.0863 40.9335 34.0009 40.7835 33.9036C40.4417 33.6849 40.3406 33.3321 40.2873 33.3468Z" fill="#263238"/>
<path d="M35.79 32.1448C35.8047 32.1742 35.8176 32.2055 35.8323 32.2404C35.8323 32.2441 35.8158 32.2055 35.79 32.1448Z" fill="#0D92F4"/>
<path d="M35.2076 31.8765C35.2076 31.8765 35.4925 31.5089 35.7902 32.1375C35.4355 31.3031 33.0776 25.2695 39.5431 24.4737C39.5431 24.4737 37.2072 24.062 35.7994 25.2235C35.7994 25.2309 32.9361 26.9419 35.2076 31.8765Z" fill="#455A64"/>
<path d="M47.5708 62.3443L32.5427 62.5483C32.5427 62.5483 28.3396 60.7894 27.1854 60.7417C26.0313 60.6939 23.7376 60.8409 22.6772 62.5483C21.5745 64.3126 21.4293 67.4241 24.8054 69.6846C28.0952 71.89 43.1342 73.9227 45.2055 73.7279L48.9951 68.6334C48.9951 68.6334 49.0355 64.4523 48.9951 64.2519C48.9547 64.0516 48.3188 62.2616 48.3188 62.2616L47.5708 62.3443Z" fill="#263238"/>
<path d="M38.5745 69.4016L30.7876 72.2925L34.3365 82C35.2425 81.603 35.2683 75.902 35.2683 75.902L40.3334 74.248L38.5745 69.4016Z" fill="#0D92F4"/>
<g opacity="0.6">
<path d="M34.5919 72.7465C34.5295 72.6636 34.4387 72.6068 34.337 72.5868C34.2352 72.5667 34.1297 72.585 34.0405 72.638C33.9539 72.6974 33.8938 72.7881 33.8729 72.891C33.8519 72.9939 33.8719 73.1009 33.9284 73.1894C33.9949 73.2774 34.0916 73.3377 34.2 73.3584C34.3083 73.3791 34.4205 73.3588 34.5147 73.3015C34.5969 73.2303 34.6483 73.1301 34.6582 73.0218C34.6682 72.9136 34.6358 72.8057 34.568 72.7207" fill="white"/>
</g>
<path d="M30.7876 72.2925L31.5742 72.0021L34.6985 81.4358C34.6985 81.4358 34.6691 81.9375 34.3457 82L30.7876 72.2925Z" fill="#263238"/>
<path d="M35.3749 76.0417C35.3272 76.0564 35.2206 75.8267 34.9816 75.6502C34.7427 75.4738 34.5001 75.4205 34.502 75.3709C34.5038 75.3213 34.8052 75.29 35.0882 75.5106C35.3713 75.7311 35.4227 76.0344 35.3749 76.0417Z" fill="#263238"/>
<path d="M35.3272 77.2124C35.2849 77.24 35.1287 77.0654 34.8696 76.9772C34.6104 76.8889 34.3825 76.9202 34.366 76.8724C34.3494 76.8246 34.6086 76.6886 34.9284 76.8118C35.2481 76.9349 35.3713 77.1959 35.3272 77.2124Z" fill="#263238"/>
<path d="M34.3195 78.2361C34.2938 78.1975 34.5033 78.0523 34.8102 78.0707C35.1171 78.0891 35.2991 78.282 35.266 78.317C35.2329 78.3519 35.0455 78.2655 34.7955 78.2471C34.5456 78.2287 34.3416 78.282 34.3195 78.2361Z" fill="#263238"/>
<path d="M36.4888 75.5363C36.4373 75.5363 36.4244 75.2919 36.305 75.0309C36.1855 74.7699 36.0275 74.5916 36.0587 74.5512C36.0899 74.5108 36.3325 74.6505 36.4649 74.9611C36.5972 75.2716 36.5347 75.5473 36.4888 75.5363Z" fill="#263238"/>
<path d="M37.5565 74.882C37.5363 74.882 37.4389 74.713 37.3727 74.395C37.3404 74.2082 37.3305 74.0181 37.3433 73.8289C37.3511 73.7165 37.3665 73.6048 37.3893 73.4945C37.4001 73.4305 37.4206 73.3686 37.4499 73.3107C37.4721 73.2671 37.5082 73.2322 37.5525 73.2115C37.5968 73.1909 37.6467 73.1857 37.6943 73.1967C37.7359 73.2083 37.7742 73.2294 37.8061 73.2585C37.8381 73.2875 37.8627 73.3237 37.8781 73.364C37.9005 73.423 37.9147 73.4849 37.9204 73.5478C37.9559 73.8523 37.9135 74.1609 37.7973 74.4446C37.6705 74.746 37.5216 74.8875 37.5069 74.8747C37.4922 74.8618 37.5914 74.6909 37.6796 74.4024C37.7306 74.2328 37.7596 74.0574 37.766 73.8804C37.7686 73.7766 37.763 73.6728 37.7495 73.5698C37.7385 73.4577 37.7072 73.3695 37.6521 73.3603C37.6319 73.3603 37.6245 73.3603 37.6006 73.3897C37.5802 73.4343 37.5654 73.4812 37.5565 73.5294C37.5336 73.6313 37.5164 73.7343 37.505 73.8381C37.4889 74.0167 37.4889 74.1963 37.505 74.3748C37.5335 74.5425 37.5507 74.712 37.5565 74.882Z" fill="#263238"/>
<path d="M37.4647 74.8471C37.4518 74.8343 37.5878 74.678 37.8874 74.5475C38.0628 74.4744 38.2491 74.4309 38.4388 74.4189C38.5524 74.4136 38.6662 74.4192 38.7788 74.4354C38.8525 74.4381 38.9242 74.4598 38.987 74.4984C39.0499 74.5371 39.1016 74.5914 39.1371 74.656C39.1528 74.6993 39.1554 74.7462 39.1446 74.791C39.1338 74.8357 39.1101 74.8763 39.0765 74.9078C39.0293 74.9542 38.9754 74.9932 38.9166 75.0235C38.8142 75.0797 38.7039 75.1199 38.5895 75.143C38.3975 75.1834 38.1985 75.1752 38.0105 75.1191C37.6908 75.0217 37.5621 74.8453 37.5768 74.8343C37.7274 74.8994 37.8821 74.9546 38.0399 74.9997C38.2105 75.032 38.3861 75.027 38.5545 74.985C38.6518 74.9614 38.7452 74.9243 38.8321 74.8747C38.9295 74.8214 38.9975 74.7516 38.9736 74.7166C38.9497 74.6817 38.8486 74.6155 38.7512 74.6064C38.6498 74.5889 38.5471 74.5803 38.4443 74.5806C38.2678 74.5839 38.0926 74.6124 37.9242 74.6652C37.6411 74.7552 37.4812 74.871 37.4647 74.8471Z" fill="#263238"/>
<path d="M44.9979 68.2015L52.533 71.6934L48.2325 81.0903C47.3595 80.6253 47.7822 74.939 47.7822 74.939L42.8623 72.8972L44.9979 68.2015Z" fill="#0D92F4"/>
<g opacity="0.6">
<path d="M48.7047 71.8496C48.7733 71.7741 48.867 71.7261 48.9683 71.7142C49.0696 71.7024 49.1718 71.7276 49.256 71.7853C49.3357 71.8511 49.3871 71.9449 49.3997 72.0474C49.4124 72.1499 49.3853 72.2534 49.324 72.3366C49.251 72.4188 49.1501 72.4711 49.0408 72.4833C48.9316 72.4956 48.8216 72.4669 48.7322 72.4028C48.6566 72.3243 48.6143 72.2196 48.6143 72.1106C48.6143 72.0015 48.6566 71.8968 48.7322 71.8183" fill="white"/>
</g>
<path d="M52.5328 71.697L51.7719 71.3442L47.9253 80.504C47.9253 80.504 47.9161 81.0076 48.2322 81.0939L52.5328 71.697Z" fill="#263238"/>
<path d="M47.6643 75.0658C47.7121 75.0842 47.837 74.8636 48.0888 74.6982C48.3406 74.5328 48.5869 74.5144 48.5887 74.4575C48.5906 74.4005 48.2928 74.3546 47.9933 74.5512C47.6937 74.7479 47.6183 75.0658 47.6643 75.0658Z" fill="#263238"/>
<path d="M47.6292 76.2439C47.6678 76.2751 47.8369 76.1116 48.1033 76.0454C48.3698 75.9792 48.5941 76.027 48.6124 75.9811C48.6308 75.9351 48.3864 75.7863 48.0611 75.8763C47.7358 75.9664 47.5777 76.2237 47.6292 76.2439Z" fill="#263238"/>
<path d="M48.5483 77.3447C48.5777 77.3061 48.3773 77.1389 48.0723 77.1407C47.7672 77.1426 47.5687 77.3135 47.5981 77.3502C47.6275 77.387 47.8223 77.3153 48.0741 77.3172C48.3259 77.319 48.5189 77.387 48.5483 77.3447Z" fill="#263238"/>
<path d="M46.5947 74.4832C46.6462 74.4832 46.6793 74.2425 46.8153 73.9925C46.9513 73.7426 47.1259 73.5753 47.0983 73.5331C47.0707 73.4908 46.8171 73.6121 46.6609 73.9006C46.5047 74.1892 46.5488 74.4887 46.5947 74.4832Z" fill="#263238"/>
<path d="M45.5823 73.7481C45.6025 73.7573 45.7128 73.59 45.7955 73.2776C45.8434 73.0939 45.8687 72.905 45.8708 72.7152C45.8711 72.6028 45.8644 72.4905 45.8506 72.3789C45.8456 72.3125 45.8301 72.2474 45.8047 72.1859C45.7856 72.1409 45.7522 72.1035 45.7097 72.0796C45.6671 72.0556 45.6178 72.0465 45.5694 72.0536C45.5271 72.0621 45.4873 72.0803 45.4532 72.1067C45.4191 72.1332 45.3915 72.1672 45.3728 72.2061C45.3457 72.2644 45.3271 72.3263 45.3176 72.3899C45.2955 72.5013 45.2838 72.6145 45.2827 72.7281C45.2823 72.9195 45.3114 73.1098 45.3691 73.2923C45.4073 73.4651 45.4962 73.6225 45.6246 73.7444C45.6503 73.7297 45.5547 73.5606 45.4904 73.2592C45.4528 73.086 45.4374 72.9088 45.4444 72.7317C45.4501 72.628 45.4636 72.5247 45.4849 72.423C45.5051 72.3127 45.5437 72.2263 45.5988 72.2208C45.6209 72.2208 45.6282 72.2208 45.6466 72.2557C45.6642 72.3011 45.6754 72.3488 45.6797 72.3973C45.6955 72.5014 45.7053 72.6063 45.7091 72.7115C45.7138 72.8905 45.7021 73.0695 45.6742 73.2463C45.6329 73.4115 45.6022 73.579 45.5823 73.7481Z" fill="#263238"/>
<path d="M45.6758 73.7187C45.6905 73.7058 45.5673 73.5349 45.2788 73.386C45.1062 73.2978 44.9197 73.24 44.7274 73.2151C44.6147 73.2002 44.5009 73.1965 44.3874 73.2041C44.3157 73.2016 44.2445 73.2171 44.1803 73.2492C44.1161 73.2813 44.0609 73.329 44.0199 73.3879C44.0017 73.4302 43.9958 73.4768 44.003 73.5223C44.0101 73.5679 44.03 73.6104 44.0603 73.6452C44.1039 73.6947 44.1547 73.7375 44.211 73.772C44.3087 73.8367 44.416 73.8857 44.529 73.9172C44.7165 73.9723 44.9148 73.9798 45.106 73.9392C45.435 73.8675 45.5765 73.7003 45.5618 73.6893C45.4059 73.7414 45.247 73.7838 45.0858 73.8161C44.9143 73.836 44.7405 73.8178 44.5767 73.7628C44.4816 73.7314 44.3912 73.6869 44.3084 73.6305C44.2147 73.5698 44.1522 73.4945 44.1798 73.4632C44.2073 73.432 44.3121 73.3713 44.4077 73.3676C44.5104 73.3584 44.6137 73.3584 44.7164 73.3676C44.8924 73.3838 45.0651 73.4253 45.2292 73.4908C45.5085 73.6139 45.6574 73.7407 45.6758 73.7187Z" fill="#263238"/>
<path d="M48.3188 62.2634C48.3188 62.2634 54.8082 59.8393 57.1974 60.1536C58.5336 60.3373 60.6213 61.3482 60.7812 63.061C60.9411 64.7739 60.5221 67.062 58.2083 68.1776C55.8944 69.2931 46.6813 73.4283 44.4924 74.0587C42.3036 74.6891 36.8415 76.1869 36.8415 76.1869L34.7739 70.2874C34.7739 70.2874 46.0895 66.3691 46.6868 65.9299C47.2841 65.4907 48.7967 64.8952 48.7967 64.8952L48.3188 62.2634Z" fill="#263238"/>
<path d="M25.7593 63.0684L25.8052 63.0555L25.9357 63.0169C26.0497 62.982 26.2187 62.9324 26.4411 62.8791C26.7084 62.8136 26.9798 62.7664 27.2534 62.7376C27.6166 62.7045 27.982 62.7045 28.3451 62.7376C28.7858 62.7741 29.2214 62.8572 29.6445 62.9857C29.8799 63.0557 30.1091 63.1448 30.33 63.2522L31.0357 63.5977C32.0079 64.0608 33.0904 64.5368 34.2464 64.9926C36.5584 65.9115 38.7786 66.36 40.3609 66.7183C41.1549 66.9021 41.7981 67.0381 42.2392 67.1447L42.7501 67.2642L42.8825 67.2954H42.9284L42.8843 67.2807L42.752 67.244C42.638 67.2127 42.4671 67.1649 42.2466 67.1098C41.8055 66.9977 41.1659 66.8451 40.372 66.6632C38.7914 66.2956 36.5768 65.8435 34.2722 64.9209C33.118 64.4651 32.0355 63.9928 31.0633 63.5315L30.3539 63.1989C30.1293 63.0913 29.8964 63.0021 29.6573 62.9324C29.2305 62.8049 28.7912 62.7236 28.347 62.6898C27.9802 62.6561 27.6111 62.6561 27.2443 62.6898C26.9689 62.7219 26.6963 62.7735 26.4283 62.8442C26.2077 62.9011 26.0386 62.9544 25.9265 62.993L25.7979 63.0408C25.784 63.0485 25.771 63.0577 25.7593 63.0684Z" fill="#455A64"/>
<path d="M26.0991 62.2119C26.0991 62.223 26.2976 62.188 26.6156 62.1531C27.0288 62.1094 27.4448 62.0978 27.8598 62.1182C28.2757 62.1402 28.6893 62.1949 29.0966 62.2818C29.4091 62.3479 29.6002 62.4031 29.602 62.392C29.5613 62.37 29.5181 62.3527 29.4734 62.3406C29.3528 62.2987 29.2301 62.2631 29.1058 62.234C28.2888 62.0298 27.44 61.9862 26.6064 62.1053C26.4483 62.1274 26.3197 62.1513 26.2388 62.1733C26.1909 62.1808 26.1441 62.1938 26.0991 62.2119Z" fill="#455A64"/>
<path d="M51.0498 63.98C51.0498 63.991 51.2336 63.8513 51.5479 63.6583C52.3598 63.1555 53.2706 62.8339 54.2182 62.7155C54.5858 62.6714 54.81 62.6659 54.8082 62.653C54.755 62.6476 54.7015 62.6476 54.6483 62.653C54.5029 62.6523 54.3575 62.6591 54.2127 62.6733C53.2513 62.766 52.327 63.0922 51.5203 63.6234C51.3678 63.7263 51.2465 63.8072 51.1674 63.8807C51.1247 63.9094 51.0852 63.9426 51.0498 63.98Z" fill="#455A64"/>
<path d="M47.7932 72.7961L47.7417 72.8163L47.5947 72.8788C47.4642 72.9302 47.2749 73.0203 47.0213 73.1177C46.5159 73.318 45.7679 73.5937 44.8159 73.908C42.899 74.5347 40.1422 75.3323 36.8451 76.163L36.8837 76.1832C36.2681 74.4777 35.5973 72.5939 34.8768 70.6146L34.8566 70.6587L37.3377 69.6387L51.0866 63.98C51.6471 63.3882 52.1617 62.8662 52.6451 62.4435C53.0536 62.0821 53.4899 61.7534 53.95 61.4603C54.2394 61.2782 54.5382 61.1114 54.845 60.9604L55.0857 60.8483L55.1666 60.8078L55.0839 60.8428L54.8395 60.9494C54.5298 61.0953 54.2285 61.2585 53.9371 61.4382C53.4733 61.7288 53.0332 62.0557 52.6212 62.416C52.1342 62.8368 51.6159 63.3569 51.0535 63.9469C47.7031 65.3216 42.7832 67.3395 37.2973 69.5835L34.8125 70.6054L34.7812 70.6182L34.7923 70.6495C35.509 72.6288 36.189 74.509 36.8047 76.2163L36.8139 76.242H36.8433C40.1404 75.404 42.8935 74.5972 44.8085 73.9613C45.766 73.6397 46.5122 73.3603 47.0139 73.1526C47.2657 73.0534 47.455 72.9597 47.5837 72.9045L47.7289 72.8365L47.7932 72.7961Z" fill="#455A64"/>
<path d="M31.7507 41.5803C31.7507 41.5803 29.8835 42.6573 29.5049 43.9217C29.2733 44.6899 27.5311 54.5132 27.2554 56.4503C26.9797 58.3874 27.5605 59.8227 28.3875 60.466C29.2145 61.1092 31.7177 61.9638 31.7177 61.9638L35.2408 63.1051L36.2498 60.5321L32.8976 55.7152L33.221 52.4695L31.7507 41.5803Z" fill="#0D92F4"/>
<path d="M35.4243 39.884L36.5895 39.0239C36.5895 39.0239 38.1076 40.5769 39.8517 40.3931C41.5958 40.2093 42.6287 38.875 42.6287 38.875L47.8298 39.9355C48.179 40.0053 48.8149 40.2258 49.4232 41.0951C50.1032 42.0655 53.3212 46.3661 53.3212 46.3661H55.5744C55.8792 46.3662 56.1782 46.4494 56.4392 46.6068C56.7002 46.7642 56.9134 46.9898 57.0557 47.2593C57.4398 47.9944 57.9011 48.9721 57.857 49.3783C57.7798 50.0638 57.9122 51.9513 56.9933 52.5357C56.701 52.7195 55.6553 53.2819 54.8467 53.2451C53.6502 53.1881 52.2608 52.5651 51.4613 52.0064C50.7832 51.5322 49.2082 49.8947 48.6017 49.2496V49.2588L48.212 62.903L34.5808 62.5207L31.7505 41.5803C31.7505 41.5803 35.2865 39.884 35.4243 39.884Z" fill="#0D92F4"/>
<path d="M48.6495 43.5395C48.6311 43.5395 48.5962 45.2303 48.5705 47.3162C48.5448 49.4022 48.5411 51.093 48.5613 51.093C48.5815 51.093 48.6164 49.404 48.6403 47.3162C48.6642 45.2284 48.6697 43.5395 48.6495 43.5395Z" fill="#263238"/>
<path d="M30.1001 54.5683C30.1001 54.5683 30.2159 54.5867 30.4217 54.6253C30.7122 54.6834 30.9951 54.774 31.2653 54.8955C31.6663 55.0751 32.044 55.3028 32.3901 55.5736C32.815 55.9078 33.2115 56.2766 33.5755 56.6764C33.9651 57.0972 34.3216 57.5144 34.6561 57.8838C34.9489 58.2151 35.2587 58.5311 35.5842 58.8303C35.8044 59.0296 36.0377 59.2138 36.2826 59.3817C36.369 59.4441 36.4407 59.4846 36.4866 59.514C36.5096 59.53 36.5343 59.5435 36.5601 59.5544C36.5407 59.5341 36.5184 59.5168 36.494 59.503C36.4498 59.468 36.3818 59.4239 36.2991 59.3596C36.0609 59.1818 35.8333 58.9904 35.6173 58.7862C35.3435 58.5307 35.0347 58.2054 34.6984 57.8342C34.3621 57.4629 34.0129 57.0439 33.6214 56.6212C33.2543 56.22 32.8534 55.851 32.4231 55.5185C32.0717 55.2474 31.6877 55.0214 31.28 54.8459C31.0053 54.7276 30.717 54.6436 30.4217 54.5959C30.3414 54.5821 30.2604 54.5729 30.1791 54.5683C30.1529 54.5655 30.1264 54.5655 30.1001 54.5683Z" fill="#263238"/>
<path d="M29.7915 53.6439C29.7915 53.6568 29.9973 53.6862 30.3226 53.7762C31.1743 54.0105 31.947 54.4702 32.5593 55.1068C32.7945 55.3494 32.9269 55.5185 32.9269 55.5112C32.9063 55.4661 32.8797 55.4241 32.8478 55.3862C32.7702 55.276 32.6855 55.1711 32.5942 55.0719C31.9939 54.4076 31.2075 53.9395 30.3373 53.7285C30.2068 53.695 30.0742 53.6704 29.9404 53.6549C29.8912 53.6462 29.8414 53.6425 29.7915 53.6439Z" fill="#263238"/>
<g opacity="0.3">
<path d="M55.1646 51.2492C54.4424 51.4459 53.5749 50.4075 52.9188 49.7569C52.5788 49.4187 52.2241 49.0585 52.0991 48.5954C52.0089 48.2057 52.0483 47.7973 52.2112 47.432C52.3332 47.1028 52.4943 46.7893 52.6909 46.4984C52.6321 47.0589 52.4924 47.919 52.6817 48.6229C52.8398 49.2092 53.211 49.6778 53.6006 50.1208C53.9903 50.5637 54.5196 51.082 55.1591 51.2492" fill="black"/>
</g>
<path d="M52.0847 50.6556C52.0994 50.6556 52.0148 50.4167 51.9468 50.0252C51.9087 49.796 51.8866 49.5645 51.8807 49.3323C51.8777 49.0482 51.8974 48.7643 51.9395 48.4832C51.9857 48.2031 52.0545 47.9271 52.1453 47.6581C52.2226 47.4386 52.3153 47.2248 52.4228 47.0185C52.6066 46.6675 52.7591 46.4671 52.7481 46.4671C52.7055 46.5072 52.6679 46.5523 52.636 46.6013C52.5937 46.6544 52.555 46.7103 52.5202 46.7685C52.4691 46.8432 52.4219 46.9205 52.3787 47.0001C52.2642 47.2053 52.1659 47.4191 52.0847 47.6397C51.9888 47.9116 51.9169 48.1914 51.8696 48.4759C51.8274 48.7612 51.8096 49.0495 51.8163 49.3378C51.8252 49.5731 51.8528 49.8072 51.899 50.0381C51.9156 50.1373 51.9413 50.2218 51.9615 50.3027C51.9778 50.3686 51.9974 50.4336 52.0203 50.4975C52.0377 50.5518 52.0592 50.6046 52.0847 50.6556Z" fill="#263238"/>
<path d="M42.0611 39.4117C42.0611 39.43 42.2118 39.5238 42.379 39.6726C42.5463 39.8215 42.6675 39.963 42.6675 39.9501C42.6089 39.8208 42.5241 39.705 42.4184 39.6101C42.3128 39.5152 42.1886 39.4433 42.0537 39.3988L42.0611 39.4117Z" fill="#263238"/>
<path d="M40.6456 40.2277C40.6309 40.2424 40.7669 40.3894 40.8772 40.6063C40.9875 40.8231 41.0297 41.0198 41.0518 41.0179C41.0597 40.8624 41.0207 40.708 40.9397 40.575C40.88 40.4316 40.7773 40.3102 40.6456 40.2277Z" fill="#263238"/>
<path d="M38.2124 41.0823C38.2765 40.9518 38.3288 40.8159 38.3686 40.6761C38.4293 40.5436 38.4755 40.405 38.5065 40.2626C38.3345 40.5034 38.2327 40.7871 38.2124 41.0823Z" fill="#263238"/>
<path d="M36.6484 40.3434C36.6687 40.3434 36.722 40.11 36.8763 39.8583C37.0307 39.6065 37.2145 39.4484 37.1998 39.4319C37.0363 39.5215 36.9033 39.6578 36.8175 39.8233C36.7119 39.9766 36.6531 40.1573 36.6484 40.3434Z" fill="#263238"/>
<path d="M32.1583 44.7616C32.1399 44.7616 32.3696 46.6289 32.6747 48.9243C32.9798 51.2198 33.2389 53.0797 33.2591 53.0779C33.2793 53.076 33.0478 51.2106 32.7427 48.9151C32.4376 46.6197 32.1785 44.7598 32.1583 44.7616Z" fill="#263238"/>
<path d="M52.5916 47.7793C52.5847 47.8435 52.5847 47.9082 52.5916 47.9723C52.5958 48.0476 52.605 48.1225 52.6191 48.1965C52.6283 48.2406 52.6357 48.2866 52.643 48.3362C52.6504 48.3858 52.6688 48.4355 52.6835 48.4888C52.7489 48.7419 52.8388 48.9881 52.9518 49.2239C53.0923 49.5105 53.2597 49.7831 53.4517 50.0381C53.6484 50.2902 53.8721 50.52 54.1188 50.7236C54.3219 50.8884 54.5471 51.0239 54.7878 51.1261C54.8393 51.1481 54.887 51.1702 54.9348 51.1867L55.0708 51.2253L55.1903 51.2584C55.227 51.2584 55.262 51.2676 55.2932 51.2712C55.354 51.2814 55.4154 51.2869 55.477 51.2878C55.2446 51.242 55.0174 51.173 54.7988 51.0819C54.5669 50.9737 54.3495 50.8366 54.1519 50.6739C53.9109 50.471 53.6922 50.2431 53.4995 49.9939C53.3103 49.7433 53.1436 49.4763 53.0014 49.1963C52.8888 48.9648 52.7954 48.7245 52.7221 48.4777C52.6136 48.0495 52.6099 47.7775 52.5916 47.7793Z" fill="#263238"/>
<g opacity="0.3">
<path d="M32.5977 63.3753C32.0188 63.0959 31.8883 62.3461 31.8295 61.7065C31.6567 59.8319 31.4833 57.9579 31.3093 56.0846C31.2285 55.2024 31.1899 54.1971 31.8111 53.5667C32.379 52.9915 33.2813 52.9566 34.0882 52.9584C39.0779 52.9731 43.4851 53.1201 48.4748 53.1422L48.2212 61.8719L32.5977 63.3753Z" fill="black"/>
</g>
<path d="M50.6251 54.482L50.094 64.6067C50.0837 64.7945 50.0017 64.9713 49.8649 65.1005C49.7281 65.2298 49.547 65.3016 49.3589 65.3014L33.2336 65.3308C33.0449 65.331 32.8632 65.2586 32.7264 65.1286C32.5895 64.9986 32.5079 64.8209 32.4985 64.6324L31.8828 54.6786C31.8626 54.267 32.1567 53.7156 32.5757 53.7082H49.8826C49.9831 53.7071 50.0828 53.7266 50.1755 53.7655C50.2681 53.8043 50.3518 53.8618 50.4214 53.9343C50.491 54.0068 50.545 54.0929 50.58 54.187C50.6151 54.2812 50.6304 54.3816 50.6251 54.482Z" fill="#E0E0E0"/>
<path d="M50.6253 54.482C50.6261 54.4697 50.6261 54.4575 50.6253 54.4452C50.6285 54.4073 50.6285 54.3692 50.6253 54.3313C50.6062 54.2029 50.5534 54.0819 50.4724 53.9806C50.3914 53.8792 50.285 53.8011 50.164 53.7542C50.0394 53.7087 49.9067 53.6899 49.7744 53.6991H48.7948L42.5461 53.688L33.2779 53.6789H32.62C32.5029 53.6735 32.387 53.7036 32.2873 53.7652C32.1897 53.8279 32.1059 53.9099 32.041 54.006C31.9095 54.1981 31.839 54.4255 31.8389 54.6584C31.8517 54.8845 31.8664 55.1124 31.8793 55.3403C31.9344 56.2592 31.9932 57.1781 32.0502 58.1283C32.1678 60.0231 32.2891 61.9877 32.4178 63.9928L32.4417 64.3604C32.4527 64.4872 32.4509 64.6085 32.4729 64.7408C32.4988 64.8691 32.557 64.9888 32.6419 65.0884C32.7267 65.1881 32.8356 65.2645 32.9581 65.3106C33.0796 65.3527 33.2083 65.3702 33.3367 65.362H34.4394H37.334L42.8071 65.3492L47.7601 65.3381H48.9032H49.1826C49.2777 65.3395 49.3728 65.3352 49.4675 65.3253C49.6541 65.2996 49.8249 65.2062 49.9472 65.0629C50.0695 64.9196 50.1349 64.7362 50.1309 64.5479C50.1401 64.3641 50.1493 64.1987 50.1585 64.0259C50.1769 63.6804 50.1934 63.3441 50.2099 63.0151C50.3441 60.3815 50.4525 58.2496 50.5261 56.7664C50.5628 56.0313 50.5904 55.4597 50.6088 55.0701C50.6179 54.8771 50.6253 54.7301 50.629 54.629C50.6326 54.5279 50.629 54.4783 50.629 54.4783L50.6179 54.629C50.6179 54.7301 50.6032 54.8771 50.5922 55.0701C50.5702 55.4597 50.5371 56.0295 50.4966 56.7664C50.4158 58.2367 50.3 60.3704 50.1566 63.0041C50.1401 63.333 50.1217 63.6712 50.1033 64.0149C50.0948 64.1876 50.0856 64.3622 50.0758 64.5387C50.0778 64.713 50.0179 64.8823 49.9067 65.0165C49.7919 65.1511 49.6317 65.2387 49.4564 65.2628C49.3659 65.2693 49.275 65.2693 49.1844 65.2628H47.7583H42.8053H37.3322H34.4376H33.3349C33.2154 65.271 33.0954 65.2554 32.982 65.2168C32.8703 65.1746 32.7711 65.1047 32.6936 65.0138C32.6162 64.9228 32.563 64.8137 32.5391 64.6967C32.5189 64.5828 32.5189 64.4504 32.5097 64.3291L32.4858 63.9616C32.3608 61.9528 32.2395 59.9918 32.1182 58.097C32.0594 57.1505 32.0006 56.2188 31.9344 55.309C31.9216 55.0811 31.9069 54.8551 31.894 54.629C31.8925 54.4106 31.9565 54.1968 32.0778 54.0152C32.1312 53.9234 32.208 53.8475 32.3003 53.7952C32.3927 53.7429 32.4973 53.7161 32.6034 53.7174H33.2614H42.5278L48.7764 53.7064H49.756C49.8861 53.6955 50.017 53.7124 50.1401 53.756C50.2415 53.7958 50.3321 53.8587 50.4048 53.9398C50.5069 54.046 50.5748 54.1805 50.5996 54.3258C50.6109 54.3773 50.6195 54.4295 50.6253 54.482Z" fill="#263238"/>
<path d="M40.1772 59.4239C40.1772 59.6119 40.233 59.7956 40.3374 59.9518C40.4418 60.1081 40.5902 60.2298 40.7638 60.3018C40.9374 60.3737 41.1285 60.3925 41.3128 60.3558C41.4971 60.3192 41.6664 60.2287 41.7993 60.0958C41.9322 59.9629 42.0227 59.7936 42.0593 59.6093C42.096 59.425 42.0772 59.2339 42.0052 59.0603C41.9333 58.8867 41.8115 58.7383 41.6553 58.6339C41.499 58.5295 41.3153 58.4738 41.1274 58.4738C40.8756 58.4742 40.6342 58.5745 40.4561 58.7526C40.278 58.9307 40.1777 59.1721 40.1772 59.4239Z" fill="white"/>
<path d="M40.1772 59.4239C40.1864 59.4239 40.1772 59.3394 40.2213 59.196C40.2773 58.993 40.3995 58.8144 40.5686 58.6888C40.7052 58.5864 40.8675 58.5241 41.0375 58.5087C41.2074 58.4934 41.3783 58.5257 41.5309 58.602C41.6836 58.6783 41.812 58.7957 41.9017 58.9408C41.9914 59.086 42.0389 59.2533 42.0389 59.4239C42.039 59.5586 42.0094 59.6917 41.9523 59.8137C41.8952 59.9357 41.812 60.0437 41.7085 60.13C41.605 60.2163 41.4839 60.2787 41.3536 60.313C41.2233 60.3472 41.0871 60.3524 40.9546 60.3282C40.8133 60.303 40.6798 60.2451 40.565 60.1591C40.3959 60.0335 40.2736 59.8549 40.2176 59.6518C40.179 59.5085 40.1827 59.4239 40.1735 59.4239C40.1707 59.4441 40.1707 59.4645 40.1735 59.4846C40.1739 59.5433 40.1807 59.6019 40.1937 59.6592C40.2421 59.8732 40.3637 60.0636 40.5374 60.1977C40.6575 60.2906 40.798 60.3536 40.9472 60.3815C41.1191 60.415 41.2969 60.4017 41.4618 60.3429C41.6457 60.2783 41.8054 60.159 41.9194 60.001C42.0368 59.8427 42.1036 59.6526 42.111 59.4556C42.1184 59.2586 42.0661 59.0641 41.961 58.8973C41.8559 58.7306 41.7029 58.5996 41.5219 58.5213C41.341 58.4431 41.1407 58.4214 40.9472 58.4591C40.798 58.4869 40.6575 58.5499 40.5374 58.6429C40.3635 58.7776 40.242 58.9686 40.1937 59.1832C40.1806 59.2405 40.1738 59.299 40.1735 59.3578C40.1714 59.3799 40.1726 59.4022 40.1772 59.4239Z" fill="#263238"/>
<path d="M50.083 55.6067C50.0628 55.6067 49.9837 57.3067 49.8992 59.4056C49.8146 61.5044 49.7724 63.2081 49.7926 63.2081C49.8128 63.2081 49.89 61.508 49.9764 59.4092C50.0628 57.3104 50.1014 55.6067 50.083 55.6067Z" fill="#263238"/>
<path d="M54.9294 42.3982C55.0231 42.3173 54.6114 40.7276 54.6114 40.7276C54.6114 40.7276 55.7049 38.943 55.7343 38.3678C55.7637 37.7925 55.3024 36.6108 55.3024 36.6108L52.1634 35.804C52.1634 35.804 51.1563 37.6767 50.9541 38.3384C50.7519 39 51.3051 41.2495 51.3051 41.2495L51.8363 42.4018C51.8363 42.4018 53.4352 43.6644 54.9294 42.3982Z" fill="#FFBE9D"/>
<path d="M55.7272 38.7114C55.8498 38.4854 55.9603 38.2528 56.058 38.0149C56.2564 37.5426 56.5009 37.0813 56.058 36.8166C55.9891 36.7712 55.9113 36.7412 55.8298 36.7285C55.7483 36.7158 55.665 36.7208 55.5856 36.7431C55.5856 36.7431 55.6536 36.3461 55.4166 36.1918C55.3479 36.1484 55.2699 36.1221 55.189 36.1151C55.1081 36.1081 55.0267 36.1205 54.9516 36.1513C54.9516 36.1513 55.0251 35.6 54.6851 35.3555C54.5568 35.2711 54.4076 35.224 54.2541 35.2195C54.1006 35.215 53.9489 35.2531 53.8158 35.3298C53.8158 35.3298 54.086 32.8818 54.1099 32.7568C54.1944 32.2808 54.0198 31.86 53.5456 31.9776C53.371 32.0199 53.2755 32.2036 53.0715 33.0013C52.8675 33.7989 52.5403 35.1589 52.5403 35.1589C52.5403 35.1589 51.989 36.1164 51.7298 36.6292C51.4707 37.1419 50.9543 38.331 50.912 38.6508C50.7999 39.4613 51.2796 40.5346 51.2796 40.5346L54.6153 40.7184C54.6153 40.7184 55.6003 38.943 55.7272 38.7114Z" fill="#FFBE9D"/>
<path d="M55.5193 36.8479C55.4247 36.9639 55.3387 37.0868 55.262 37.2154L54.9974 37.6179C54.9422 37.6968 54.8943 37.7805 54.854 37.8679C54.807 37.9669 54.7935 38.0785 54.8154 38.1858C54.825 38.2421 54.8495 38.2948 54.8863 38.3384C54.9232 38.3821 54.971 38.415 55.0249 38.4339C55.1259 38.459 55.2326 38.4459 55.3245 38.3972C55.4025 38.3578 55.4769 38.3117 55.5469 38.2593C55.613 38.2115 55.6737 38.1674 55.7307 38.1233C55.8391 38.0388 55.9236 37.9671 55.9788 37.9157C56.0339 37.8642 56.0651 37.833 56.0615 37.8293C56.0578 37.8256 55.9236 37.9267 55.6939 38.0847C55.568 38.1798 55.4346 38.2647 55.2951 38.3384C55.2173 38.3777 55.1281 38.3881 55.0433 38.3678C55.0009 38.3528 54.9633 38.3266 54.9345 38.2919C54.9057 38.2573 54.8868 38.2156 54.8797 38.1711C54.862 38.078 54.8735 37.9817 54.9128 37.8954C54.9511 37.8108 54.9966 37.7297 55.0488 37.6528L55.2988 37.243C55.3833 37.1178 55.4571 36.9856 55.5193 36.8479Z" fill="#EB996E"/>
<path d="M52.7757 37.1401C52.8058 36.9646 52.7938 36.7845 52.7408 36.6145C52.7109 36.4397 52.6397 36.2746 52.5331 36.133C52.5147 36.1421 52.6085 36.3553 52.6728 36.631C52.7371 36.9067 52.7628 37.1401 52.7757 37.1401Z" fill="#EB996E"/>
<path d="M51.4614 37.855C51.7688 37.5566 52.1564 37.3541 52.577 37.2724C52.9961 37.1922 53.4249 37.1761 53.8488 37.2246C54.1869 37.254 54.5839 37.3423 54.7291 37.6455C54.8743 37.9487 54.6979 38.3623 54.3965 38.5405C54.0799 38.6981 53.7219 38.7528 53.3728 38.6967C53.0267 38.6396 52.6748 38.6254 52.3252 38.6545" fill="#FFBE9D"/>
<path d="M52.3254 38.6545C52.3254 38.6545 52.4191 38.6545 52.5882 38.6545C52.8275 38.6648 53.0661 38.6875 53.3031 38.7225C53.4695 38.7436 53.6373 38.7503 53.8048 38.7427C54.0003 38.737 54.1923 38.6887 54.3672 38.6012C54.5637 38.4994 54.7132 38.3256 54.7844 38.116C54.8229 38.0043 54.8311 37.8845 54.8083 37.7686C54.7803 37.6498 54.7161 37.5425 54.6245 37.4617C54.4399 37.3173 54.2168 37.2303 53.9831 37.2118C53.7726 37.1876 53.5609 37.1747 53.349 37.1732C52.9889 37.1665 52.6303 37.2212 52.2886 37.3349C52.0581 37.4125 51.8424 37.5287 51.6509 37.6786C51.6001 37.7194 51.5517 37.763 51.5057 37.8091C51.4744 37.8422 51.4597 37.8605 51.4616 37.8624C51.4634 37.8642 51.5314 37.798 51.6674 37.6988C51.8616 37.5605 52.0761 37.4532 52.3033 37.3809C52.642 37.2776 52.9951 37.2292 53.349 37.2375C53.5579 37.2412 53.7665 37.2553 53.9739 37.2798C54.1933 37.2973 54.4027 37.3784 54.5767 37.5132C54.6578 37.585 54.7149 37.6799 54.7403 37.7852C54.7606 37.8888 54.753 37.996 54.7182 38.0958C54.6531 38.2888 54.5162 38.4493 54.336 38.5442C54.1699 38.6291 53.9875 38.6774 53.8011 38.6857C53.6369 38.6937 53.4722 38.6894 53.3086 38.6729C53.0698 38.6413 52.8291 38.6259 52.5882 38.6269C52.5229 38.6292 52.4579 38.6354 52.3934 38.6453C52.3474 38.6453 52.3254 38.6508 52.3254 38.6545Z" fill="#EB996E"/>
<path d="M55.4953 36.8865C55.1443 37.4194 54.8337 38.0057 54.5378 38.5718C54.4674 38.7443 54.3519 38.8948 54.2033 39.0073C54.0765 39.0845 53.7622 38.943 53.6226 38.8952L54.5856 36.7027" fill="#FFBE9D"/>
<path d="M54.586 36.7027C54.5531 36.7546 54.5248 36.8094 54.5015 36.8662L54.2883 37.3257C54.1045 37.7153 53.8637 38.263 53.5917 38.8805L53.5752 38.9154L53.6119 38.9283C53.7219 38.9724 53.8342 39.0104 53.9483 39.0423C53.9965 39.0543 54.0457 39.0617 54.0953 39.0643C54.122 39.0657 54.1487 39.0626 54.1743 39.0551C54.2005 39.0489 54.225 39.0369 54.246 39.0202C54.3237 38.9642 54.3899 38.8936 54.4408 38.8125C54.5401 38.6563 54.6099 38.5001 54.6889 38.3567C54.8396 38.0645 54.9775 37.8054 55.0988 37.5867C55.2201 37.368 55.3193 37.1952 55.391 37.0758C55.4303 37.0171 55.4653 36.9557 55.4957 36.892C55.4469 36.9489 55.4039 37.0104 55.3671 37.0758C55.2899 37.1915 55.1833 37.3606 55.0565 37.5757C54.9297 37.7907 54.7863 38.0498 54.632 38.3402C54.5511 38.4835 54.4776 38.6434 54.3838 38.7886C54.3352 38.8613 54.2728 38.9238 54.2001 38.9724C54.1629 38.9918 54.1219 39.0028 54.08 39.0047C54.0381 39.0066 53.9963 38.9993 53.9575 38.9834C53.8453 38.9519 53.7349 38.9145 53.6267 38.8713L53.6469 38.9191C53.9189 38.2979 54.156 37.7484 54.3232 37.3533L54.5162 36.8846C54.5449 36.8262 54.5683 36.7653 54.586 36.7027Z" fill="#EB996E"/>
<path d="M54.8469 36.0502C54.5369 36.827 54.2269 37.6038 53.9169 38.3806C53.86 38.5495 53.7755 38.7079 53.667 38.8493C53.6111 38.9186 53.5393 38.9733 53.4577 39.0089C53.3761 39.0444 53.2871 39.0596 53.1983 39.0533C53.0795 39.0222 52.9745 38.9523 52.9 38.8548C52.8254 38.7572 52.7855 38.6376 52.7866 38.5148C52.794 38.2694 52.8529 38.0284 52.9594 37.8072C53.2384 37.0992 53.4615 36.3704 53.6265 35.6275" fill="#FFBE9D"/>
<path d="M53.6265 35.6275C53.6155 35.6496 53.6074 35.6731 53.6026 35.6974L53.5475 35.9032C53.4997 36.087 53.4299 36.3406 53.3325 36.6567C53.2351 36.9728 53.1064 37.3459 52.9465 37.7594C52.8487 37.9708 52.783 38.1957 52.7517 38.4266C52.743 38.5533 52.7677 38.68 52.8234 38.7941C52.8781 38.9177 52.9781 39.0157 53.1028 39.068C53.1662 39.0909 53.2337 39.0999 53.3009 39.0945C53.3681 39.0892 53.4334 39.0694 53.4924 39.0367C53.6046 38.9756 53.699 38.8863 53.7662 38.7776C53.878 38.5754 53.9721 38.3638 54.0474 38.1454C54.2073 37.7392 54.3506 37.3735 54.4719 37.0611L54.7531 36.3259C54.7825 36.245 54.8064 36.1789 54.8248 36.1256C54.835 36.1026 54.8424 36.0786 54.8469 36.0539C54.8319 36.0741 54.8201 36.0964 54.8119 36.1201C54.7899 36.1734 54.7605 36.2377 54.7274 36.3167L54.4297 37.0372C54.3047 37.3478 54.1558 37.7116 53.9923 38.116C53.9164 38.3298 53.8229 38.5369 53.7129 38.7353C53.6516 38.8331 53.5662 38.9135 53.4648 38.9687C53.4147 38.9973 53.3591 39.0147 53.3017 39.0197C53.2443 39.0248 53.1865 39.0174 53.1322 38.9981C53.0245 38.9513 52.9381 38.8661 52.8896 38.7592C52.8386 38.6548 52.8163 38.5387 52.8252 38.4229C52.8528 38.1991 52.9148 37.9808 53.009 37.776C53.1671 37.3661 53.2884 36.9894 53.3766 36.6733C53.4648 36.3572 53.5328 36.0925 53.5732 35.9124C53.5916 35.8205 53.6063 35.7507 53.6155 35.7029C53.6226 35.6784 53.6263 35.653 53.6265 35.6275Z" fill="#EB996E"/>
<path d="M56.984 48.0955C56.8994 47.7867 54.7786 41.5142 54.7786 41.5142L51.272 41.0951L52.7055 46.4984C52.7055 46.4984 52.4831 47.8713 52.7055 48.6836C52.9279 49.4959 54.7271 51.7068 55.646 51.1757C56.565 50.6446 57.0667 48.4042 56.984 48.0955Z" fill="#FFBE9D"/>
<path d="M52.6982 40.5401C52.7661 40.5484 52.835 40.5396 52.8986 40.5144C53.0562 40.4653 53.2009 40.382 53.3226 40.2705C53.4443 40.159 53.5399 40.022 53.6025 39.8693C53.6325 39.8082 53.647 39.7407 53.6447 39.6726C53.5571 39.8774 53.4325 40.0643 53.2772 40.224C53.1057 40.3647 52.9093 40.472 52.6982 40.5401Z" fill="#EB996E"/>
</svg>
