<svg width="134" height="110" viewBox="0 0 134 110" fill="none" xmlns="http://www.w3.org/2000/svg">
<path d="M134 82.195H0V82.2541H134V82.195Z" fill="#EBEBEB"/>
<path d="M120.573 85.9993H111.697V86.0584H120.573V85.9993Z" fill="#EBEBEB"/>
<path d="M88.7669 86.6424H86.438V86.7015H88.7669V86.6424Z" fill="#EBEBEB"/>
<path d="M111.429 83.8052H106.286V83.8643H111.429V83.8052Z" fill="#EBEBEB"/>
<path d="M25.6342 84.2024H14.0593V84.2615H25.6342V84.2024Z" fill="#EBEBEB"/>
<path d="M29.7184 84.2024H28.022V84.2615H29.7184V84.2024Z" fill="#EBEBEB"/>
<path d="M60.3401 85.2001H35.2339V85.2593H60.3401V85.2001Z" fill="#EBEBEB"/>
<path d="M63.516 71.65H11.7678C11.3624 71.6493 10.9739 71.5068 10.6875 71.2537C10.4011 71.0006 10.2402 70.6576 10.2402 70.2999V6.12387C10.2438 5.76827 10.4062 5.42826 10.6922 5.1777C10.9782 4.92713 11.3648 4.78624 11.7678 4.78563H63.516C63.9218 4.78563 64.311 4.92787 64.598 5.18105C64.885 5.43424 65.0462 5.77763 65.0462 6.13569V70.2999C65.0462 70.658 64.885 71.0014 64.598 71.2545C64.311 71.5077 63.9218 71.65 63.516 71.65ZM11.7678 4.83292C11.3802 4.83355 11.0087 4.96983 10.7349 5.21186C10.461 5.4539 10.3072 5.78189 10.3072 6.12387V70.2999C10.3072 70.6419 10.461 70.9699 10.7349 71.2119C11.0087 71.4539 11.3802 71.5902 11.7678 71.5908H63.516C63.9038 71.5902 64.2756 71.454 64.5499 71.212C64.8241 70.9701 64.9785 70.6421 64.9792 70.2999V6.12387C64.9785 5.78168 64.8241 5.45368 64.5499 5.21172C64.2756 4.96976 63.9038 4.83355 63.516 4.83292H11.7678Z" fill="#EBEBEB"/>
<path d="M121.487 71.65H69.7363C69.3307 71.6493 68.9419 71.5069 68.655 71.2538C68.3682 71.0008 68.2068 70.6578 68.2061 70.2999V6.12387C68.2103 5.76805 68.3733 5.42805 68.6597 5.17755C68.9462 4.92705 69.333 4.78624 69.7363 4.78563H121.487C121.89 4.78686 122.276 4.92803 122.561 5.17853C122.846 5.42903 123.009 5.76868 123.012 6.12387V70.2999C123.012 70.6571 122.852 70.9998 122.566 71.2529C122.28 71.5059 121.892 71.6487 121.487 71.65ZM69.7363 4.83292C69.3485 4.83355 68.9767 4.96976 68.7024 5.21172C68.4282 5.45368 68.2738 5.78168 68.2731 6.12387V70.2999C68.2738 70.6421 68.4282 70.9701 68.7024 71.212C68.9767 71.454 69.3485 71.5902 69.7363 71.5908H121.487C121.875 71.5902 122.247 71.454 122.521 71.212C122.795 70.9701 122.95 70.6421 122.95 70.2999V6.12387C122.95 5.78168 122.795 5.45368 122.521 5.21172C122.247 4.96976 121.875 4.83355 121.487 4.83292H69.7363Z" fill="#EBEBEB"/>
<path d="M113.46 29.4176H19.1833V32.9642H113.46V29.4176Z" fill="#E6E6E6"/>
<path d="M113.581 29.044H112.659V33.3401H113.581V29.044Z" fill="#E0E0E0"/>
<path d="M82.4234 29.044H81.5015V33.3401H82.4234V29.044Z" fill="#E0E0E0"/>
<path d="M51.2657 29.044H50.3438V33.3401H51.2657V29.044Z" fill="#E0E0E0"/>
<path d="M20.1053 29.044H19.1833V33.3401H20.1053V29.044Z" fill="#E0E0E0"/>
<path d="M101.057 29.044H94.7273V33.3401H101.057V29.044Z" fill="#E0E0E0"/>
<path d="M98.4231 23.7431H97.3618V29.6044H98.4231V23.7431Z" fill="#E0E0E0"/>
<path d="M99.8115 25.084C100.871 24.1496 100.871 22.6346 99.8115 21.7002C98.7523 20.7657 97.0351 20.7657 95.9759 21.7002C94.9167 22.6346 94.9167 24.1496 95.9759 25.084C97.0351 26.0184 98.7523 26.0184 99.8115 25.084Z" fill="#E0E0E0"/>
<path d="M99.8192 23.3932C99.8186 23.7293 99.7052 24.0578 99.4931 24.337C99.2811 24.6163 98.9799 24.8338 98.6278 24.9621C98.2756 25.0904 97.8883 25.1237 97.5147 25.0579C97.1411 24.992 96.798 24.8299 96.5288 24.5921C96.2595 24.3542 96.0763 24.0513 96.0022 23.7216C95.928 23.3919 95.9663 23.0502 96.1123 22.7397C96.2582 22.4292 96.5052 22.1639 96.822 21.9772C97.1388 21.7905 97.5113 21.6909 97.8922 21.6909C98.1455 21.6909 98.3963 21.7349 98.6303 21.8205C98.8642 21.9061 99.0768 22.0315 99.2557 22.1896C99.4347 22.3477 99.5766 22.5354 99.6733 22.7419C99.7699 22.9484 99.8195 23.1698 99.8192 23.3932Z" fill="#EBEBEB"/>
<path d="M113.46 36.5107H19.1833V40.0573H113.46V36.5107Z" fill="#E6E6E6"/>
<path d="M113.581 36.1372H112.659V40.4332H113.581V36.1372Z" fill="#E0E0E0"/>
<path d="M82.4234 36.1372H81.5015V40.4332H82.4234V36.1372Z" fill="#E0E0E0"/>
<path d="M51.2657 36.1372H50.3438V40.4332H51.2657V36.1372Z" fill="#E0E0E0"/>
<path d="M20.1053 36.1372H19.1833V40.4332H20.1053V36.1372Z" fill="#E0E0E0"/>
<path d="M19.1833 43.8403V47.3868H86.3468C87.185 47.3868 88.015 47.5325 88.7894 47.8156C89.5637 48.0986 90.2673 48.5135 90.8599 49.0365C91.4525 49.5595 91.9224 50.1804 92.2429 50.8637C92.5635 51.547 92.7283 52.2793 92.7279 53.0187V82.0082H96.7479V52.9691C96.7479 50.548 95.6577 48.226 93.7172 46.514C91.7767 44.802 89.1448 43.8403 86.4004 43.8403H19.1833Z" fill="#E6E6E6"/>
<path d="M82.4234 43.4667H81.5015V47.7627H82.4234V43.4667Z" fill="#E0E0E0"/>
<path d="M51.2657 43.4667H50.3438V47.7627H51.2657V43.4667Z" fill="#E0E0E0"/>
<path d="M20.1053 43.4667H19.1833V47.7627H20.1053V43.4667Z" fill="#E0E0E0"/>
<path d="M97.1714 82.1146V81.3013H92.3018V82.1146H97.1714Z" fill="#E0E0E0"/>
<path d="M97.1741 57.2273V56.414H92.3045V57.2273H97.1741Z" fill="#E0E0E0"/>
<path d="M66.9999 92.8725C95.698 92.8725 118.962 91.6742 118.962 90.1961C118.962 88.7179 95.698 87.5196 66.9999 87.5196C38.3018 87.5196 15.0374 88.7179 15.0374 90.1961C15.0374 91.6742 38.3018 92.8725 66.9999 92.8725Z" fill="#F5F5F5"/>
<path d="M73.0273 85.0701H76.1736C76.4359 85.0701 76.6874 85.162 76.8728 85.3256C77.0583 85.4893 77.1625 85.7112 77.1625 85.9426V86.6519H72.0383V85.9426C72.0383 85.7112 72.1425 85.4893 72.328 85.3256C72.5134 85.162 72.765 85.0701 73.0273 85.0701Z" stroke="#263238" stroke-width="2" stroke-miterlimit="10"/>
<path d="M69.2055 86.03H80.4615C80.6286 86.03 80.7888 86.0886 80.9069 86.1928C81.025 86.297 81.0913 86.4383 81.0913 86.5857V90.6051H68.5757V86.5928C68.5747 86.5192 68.5902 86.4462 68.6213 86.378C68.6525 86.3097 68.6987 86.2476 68.7573 86.1953C68.8159 86.1429 68.8857 86.1014 68.9626 86.073C69.0396 86.0446 69.1221 86.03 69.2055 86.03Z" fill="#263238"/>
<path opacity="0.2" d="M69.2055 86.03H75.3856C75.5526 86.03 75.7128 86.0886 75.8309 86.1928C75.9491 86.297 76.0154 86.4383 76.0154 86.5857V90.6051H68.5757V86.5928C68.5747 86.5192 68.5902 86.4462 68.6213 86.378C68.6525 86.3097 68.6987 86.2476 68.7573 86.1953C68.8159 86.1429 68.8857 86.1014 68.9626 86.073C69.0396 86.0446 69.1221 86.03 69.2055 86.03Z" fill="white"/>
<path opacity="0.2" d="M81.102 87.3801H68.5757V87.6189H81.102V87.3801Z" fill="black"/>
<path d="M36.3516 43.0884L37.4906 41.9062C37.4906 41.9062 37.2226 40.9274 37.4906 40.6909C37.7586 40.4545 38.2946 39.6884 38.852 39.5797C39.4094 39.4709 40.6396 40.6105 40.2054 41.1638C39.7712 41.7171 39.4014 42.2254 39.0798 42.2301H38.7636L37.3324 43.4549L36.3516 43.0884Z" fill="#E4897B"/>
<path d="M28.4081 45.4764C29.9169 45.6561 32.3557 45.9753 33.417 45.3487C34.4783 44.7222 36.9305 42.2372 36.9305 42.2372L38.241 42.8969C38.241 42.8969 35.0598 47.1929 34.1594 47.5239C33.2589 47.855 27.9954 47.8455 27.9954 47.8455L28.4081 45.4764Z" fill="#407BFF"/>
<path opacity="0.6" d="M38.2329 42.8969C38.2329 42.8969 35.0518 47.1929 34.1513 47.5216C33.6609 47.7036 31.8733 47.784 30.3484 47.8171C29.0754 47.8502 27.9873 47.8455 27.9873 47.8455L28.2875 46.1266L28.4 45.4764C29.9089 45.6561 32.3477 45.9776 33.4089 45.3487C34.4702 44.7198 36.9224 42.2396 36.9224 42.2396L38.2329 42.8969Z" fill="white"/>
<path opacity="0.2" d="M30.3484 47.8171C29.0754 47.8502 27.9873 47.8455 27.9873 47.8455L28.2875 46.1266C29.1163 46.5384 29.8226 47.1178 30.3484 47.8171Z" fill="black"/>
<path d="M20.8452 42.2372C20.4896 42.4044 20.1941 42.656 19.9919 42.9634C19.7897 43.2709 19.6889 43.6221 19.7008 43.9774C19.6794 45.2825 18.8834 47.1527 19.0951 48.4697C19.3068 49.7866 20.8612 49.6211 21.3544 47.9614C21.8475 46.3016 20.9711 45.2163 21.1721 44.2233C21.2463 43.9158 21.3905 43.6248 21.596 43.3679C21.8014 43.1111 22.0639 42.8937 22.3674 42.729L20.8452 42.2372Z" fill="#263238"/>
<path d="M35.5824 88.7845L34.0977 89.0162L33.4893 87.2311L32.9346 85.5903L34.6471 85.063L35.1429 87.0349L35.5824 88.7845Z" fill="#E4897B"/>
<path opacity="0.2" d="M35.1509 87.0751L33.4974 87.2666L32.9373 85.6092L34.6471 85.0725L35.1509 87.0751Z" fill="black"/>
<path d="M25.669 89.3898H24.1628L23.9136 87.5149L23.6885 85.8054L25.4787 85.543L25.5806 87.5787L25.669 89.3898Z" fill="#E4897B"/>
<path opacity="0.2" d="M25.5806 87.5953L23.9136 87.5314L23.6885 85.8125L25.4787 85.5477L25.5806 87.5953Z" fill="black"/>
<path d="M35.2904 86.0348L32.8489 86.4154C30.386 81.001 28.6333 76.4851 27.3978 72.7281C26.7305 70.7042 26.173 68.9049 25.7898 67.309L25.8621 73.2033V86.4816H23.4501C17.4201 61.1427 21.6921 55.3666 21.6921 55.3666L28.9066 54.3073C29.1917 55.4868 29.394 56.6807 29.5123 57.8822L29.8366 59.9936L32.6559 72.8463L35.2904 86.0348Z" fill="#263238"/>
<path d="M23.8092 88.4843C23.8092 88.3448 25.7468 88.4535 25.7468 88.4535C25.7468 88.4535 26.9367 89.5222 28.0945 89.7634C29.2523 90.0045 28.6037 90.6146 27.3119 90.6146H24.1201C23.1981 90.6122 23.7717 89.9218 23.8092 88.4843Z" fill="#263238"/>
<path d="M26.7651 88.8886C26.485 88.8586 26.213 88.7857 25.9611 88.6734C25.9539 88.6709 25.9475 88.6668 25.9424 88.6616C25.9372 88.6502 25.9372 88.6375 25.9424 88.6261C25.9424 88.6096 26.1112 88.2124 26.3739 88.1154C26.4134 88.0996 26.4564 88.0914 26.4998 88.0914C26.5433 88.0914 26.5862 88.0996 26.6258 88.1154C26.7115 88.1532 26.7544 88.2005 26.7517 88.2596C26.7491 88.3187 26.607 88.4393 26.4516 88.5126C26.598 88.4912 26.7483 88.5059 26.8857 88.5552C26.9109 88.5672 26.9329 88.5837 26.9505 88.6037C26.968 88.6236 26.9806 88.6466 26.9876 88.671C27.002 88.7019 27.0053 88.7358 26.9972 88.7684C26.989 88.8009 26.9698 88.8305 26.942 88.8531C26.8895 88.8827 26.827 88.8952 26.7651 88.8886ZM26.1407 88.6521C26.4248 88.7585 26.7785 88.8531 26.8723 88.7869C26.8723 88.7869 26.9045 88.7633 26.8723 88.6947C26.8685 88.6821 26.8618 88.6704 26.8525 88.6602C26.8433 88.65 26.8318 88.6416 26.8187 88.6356C26.596 88.5842 26.3615 88.5875 26.1407 88.645V88.6521ZM26.4864 88.1793C26.4597 88.1794 26.4333 88.1842 26.4087 88.1934C26.2562 88.2809 26.1397 88.4094 26.0764 88.5599C26.3631 88.4653 26.6392 88.3235 26.6445 88.2549C26.6445 88.2313 26.6017 88.2076 26.5749 88.1982C26.5477 88.1847 26.5175 88.1766 26.4864 88.1745V88.1793Z" fill="#407BFF"/>
<path d="M33.6983 88.4843C33.6983 88.3448 35.636 88.4535 35.636 88.4535C35.636 88.4535 36.8259 89.5222 37.981 89.7634C39.1361 90.0045 38.4929 90.6146 37.1984 90.6146H34.0039C33.0846 90.6122 33.6581 89.9218 33.6983 88.4843Z" fill="#263238"/>
<path d="M36.6543 88.8886C36.3742 88.8583 36.1022 88.7855 35.8503 88.6734L35.8342 88.6616C35.8315 88.656 35.8301 88.6499 35.8301 88.6438C35.8301 88.6377 35.8315 88.6317 35.8342 88.6261C35.8342 88.6096 36.0031 88.2124 36.2657 88.1154C36.3048 88.0997 36.3473 88.0915 36.3903 88.0915C36.4333 88.0915 36.4758 88.0997 36.5149 88.1154C36.6034 88.1532 36.6463 88.2005 36.6436 88.2596C36.6409 88.3187 36.4989 88.4393 36.3407 88.5126C36.4871 88.4912 36.6374 88.5059 36.7749 88.5552C36.8008 88.5667 36.8235 88.583 36.8415 88.603C36.8596 88.623 36.8725 88.6462 36.8794 88.671C36.8935 88.7021 36.8964 88.7362 36.8878 88.7688C36.8792 88.8013 36.8594 88.8308 36.8312 88.8531C36.7787 88.8827 36.7161 88.8952 36.6543 88.8886ZM36.0299 88.6521C36.3139 88.7585 36.6677 88.8531 36.7588 88.7869C36.7588 88.7869 36.791 88.7633 36.7722 88.6947C36.7625 88.6695 36.7424 88.6484 36.7159 88.6356C36.4907 88.5825 36.2531 88.5858 36.0299 88.645V88.6521ZM36.3756 88.1792C36.348 88.1794 36.3207 88.1842 36.2952 88.1934C36.1442 88.2818 36.0288 88.4101 35.9655 88.5599C36.2496 88.4653 36.5283 88.3235 36.5337 88.2549C36.5337 88.2313 36.4908 88.2076 36.464 88.1982C36.4368 88.1847 36.4067 88.1766 36.3756 88.1745V88.1792Z" fill="#407BFF"/>
<path opacity="0.2" d="M27.3976 72.7281C26.7303 70.7042 26.2104 68.9049 25.811 67.309C25.845 65.4183 26.0007 63.5309 26.2774 61.6558C26.2774 61.6558 27.336 68.9475 27.3976 72.7281Z" fill="black"/>
<path d="M23.8171 56.4021L27.6013 56.1066V55.0237L23.8171 55.3122V56.4021Z" fill="black"/>
<path d="M23.485 55.3382L21.5849 55.4824L21.416 56.5913L23.485 56.4282V55.3382Z" fill="black"/>
<path d="M27.8909 55.0024V56.0853L28.7404 56.0191V54.9386L27.8909 55.0024Z" fill="black"/>
<path d="M26.6016 55.1254C26.5562 55.0889 26.5028 55.0611 26.4447 55.0436C26.3866 55.0261 26.3251 55.0193 26.2639 55.0237L25.3688 55.0923C25.2581 55.1006 25.1551 55.1453 25.0801 55.2176C25.0051 55.2899 24.9637 55.3844 24.9641 55.4824V55.986C24.9641 56.0403 24.977 56.0941 25.002 56.1437C25.0269 56.1934 25.0633 56.2379 25.1088 56.2745C25.1899 56.3421 25.2975 56.3794 25.409 56.3785H25.4599L26.355 56.3099C26.4657 56.3016 26.5688 56.2569 26.6437 56.1846C26.7187 56.1123 26.7601 56.0178 26.7597 55.9198V55.4186C26.7581 55.3627 26.7432 55.3077 26.7159 55.2572C26.6887 55.2067 26.6497 55.1618 26.6016 55.1254ZM26.3202 56.1066L25.4278 56.1752C25.3976 56.1779 25.3672 56.1748 25.3386 56.1662C25.3099 56.1577 25.2837 56.1438 25.2616 56.1255C25.2398 56.1077 25.2223 56.0861 25.2103 56.0621C25.1984 56.0382 25.1921 56.0122 25.1919 55.986V55.4824C25.1924 55.4348 25.213 55.389 25.2496 55.354C25.2863 55.319 25.3364 55.2974 25.3902 55.2933L26.2827 55.2271H26.3014C26.3549 55.2277 26.4062 55.2454 26.4462 55.2767C26.4683 55.2948 26.4859 55.3167 26.4979 55.3412C26.5099 55.3656 26.516 55.3919 26.5158 55.4186V55.4942H26.481L26.2318 55.5108C26.1917 55.5138 26.1546 55.5306 26.1285 55.5576C26.1024 55.5846 26.0894 55.6196 26.0924 55.655C26.0937 55.6726 26.0991 55.6898 26.1081 55.7056C26.1171 55.7214 26.1295 55.7354 26.1448 55.7469C26.16 55.7583 26.1777 55.767 26.1968 55.7723C26.2158 55.7777 26.2359 55.7796 26.2559 55.778L26.5051 55.7614V55.9269C26.5031 55.9712 26.4834 56.0135 26.4496 56.0464C26.4158 56.0792 26.37 56.1005 26.3202 56.1066Z" fill="white"/>
<path d="M20.1644 48.7865C20.4324 49.5668 20.6522 50.243 20.8237 50.8459C21.2604 52.3637 21.5155 53.9177 21.5848 55.4824L28.7404 54.9386C29.0272 50.4912 28.9012 48.0465 28.7699 46.8241C28.6279 45.5213 28.4001 45.474 28.4001 45.474C28.4001 45.474 26.7921 45.3369 25.4065 45.3464C24.3279 45.378 23.2531 45.4776 22.1905 45.6443C21.4205 45.7571 20.6581 45.9079 19.9072 46.0959C19.8176 46.1177 19.7341 46.1557 19.6619 46.2073C19.5897 46.2589 19.5304 46.3232 19.4876 46.3959C19.4449 46.4687 19.4196 46.5485 19.4134 46.6303C19.4072 46.7122 19.4202 46.7942 19.4516 46.8714C19.5293 47.0723 19.6016 47.2639 19.6713 47.453C19.8536 47.9212 20.0144 48.3704 20.1644 48.7865Z" fill="#407BFF"/>
<path opacity="0.6" d="M19.4514 46.8714C19.5291 47.07 19.6015 47.2639 19.6711 47.453C19.6926 47.505 19.7113 47.557 19.7328 47.6067C19.8132 47.8431 19.8963 48.0583 19.974 48.2687L20.1589 48.7912C20.3599 49.3563 20.5287 49.8647 20.6681 50.3305C20.719 50.5101 20.7699 50.6851 20.8182 50.853L20.8825 51.0752C21.1477 52.0179 21.334 52.9765 21.4399 53.9432C21.4989 54.4421 21.5391 54.941 21.5793 55.4824L28.7349 54.941C29.0217 50.4912 28.893 48.0488 28.7617 46.8265C28.617 45.5237 28.3919 45.4764 28.3919 45.4764C28.3919 45.4764 27.1242 45.3653 25.8619 45.3511H25.4063C25.2777 45.3511 25.1383 45.3511 25.0151 45.3676C24.8918 45.3842 24.6881 45.3818 24.5246 45.3936C23.7717 45.4369 23.022 45.5158 22.2788 45.6301L22.1957 45.6419L21.7428 45.7128C21.1264 45.8169 20.5153 45.9493 19.9097 46.0935C19.8197 46.1154 19.7359 46.1534 19.6634 46.2051C19.5909 46.2569 19.5313 46.3213 19.4883 46.3943C19.4453 46.4673 19.4198 46.5474 19.4134 46.6294C19.4071 46.7115 19.42 46.7939 19.4514 46.8714Z" fill="white"/>
<path d="M24.5407 46.6941C22.871 46.5049 22.3699 45.876 22.3699 45.876C23.4419 44.9941 22.5494 43.4667 22.5494 43.4667L24.5594 43.7977C24.5125 44.0447 24.4866 44.2944 24.4817 44.5448C24.4656 45.6206 25.0177 45.6301 25.0177 45.6301C25.3688 46.2141 24.5407 46.6941 24.5407 46.6941Z" fill="#E4897B"/>
<path opacity="0.2" d="M24.5596 43.7977C24.5127 44.0447 24.4867 44.2944 24.4818 44.5448C24.0796 44.535 23.6879 44.4296 23.3479 44.2399C23.0078 44.0502 22.732 43.7831 22.5496 43.4667L24.5596 43.7977Z" fill="black"/>
<path d="M29.3086 55.3382L26.0926 55.6503L25.7335 54.5721L25.6048 55.6503L21.1748 55.8536L21.2713 54.2458L21.3383 53.1322L21.3008 53.0353L20.9792 52.2219L20.4753 50.9405L20.2368 48.9638L19.8723 45.9776L20.6147 45.8169L21.3517 45.6608L21.8957 45.5473L25.1037 48.0252L25.6048 45.0816L26.1087 45.1359L26.9127 45.2187L28.0731 45.344L29.1692 49.0679L29.0031 52.3236L28.9388 53.598L28.9146 54.0827L29.3086 55.3382Z" fill="#407BFF"/>
<path opacity="0.7" d="M29.0029 52.3236L28.9386 53.6004L21.2711 54.2435L21.3381 53.1322L21.3006 53.0376L23.525 52.8319C23.466 51.95 23.2838 50.4179 22.721 49.2405C22.1135 48.0571 21.4104 46.9137 20.6172 45.8192L21.3542 45.6632C22.1306 46.5787 22.7617 47.5833 23.2302 48.6494C23.7328 49.9916 24.1444 51.3591 24.463 52.7445L27.5075 52.4631C27.6235 51.2081 27.592 49.9459 27.4137 48.6967C27.2046 47.4956 26.5561 46.0344 26.1139 45.1359L26.9179 45.2211C27.4056 46.1479 28.0301 47.5216 28.1533 48.6848C28.2676 49.9188 28.29 51.158 28.2203 52.3945L29.0029 52.3236Z" fill="white"/>
<path opacity="0.2" d="M20.9792 52.2243L20.4753 50.9405L20.2368 48.9662C20.3592 48.9268 20.4858 48.8982 20.6147 48.8811C20.6147 48.8811 21.483 50.8553 20.9792 52.2243Z" fill="black"/>
<path d="M25.996 40.8115C25.996 40.8115 26.8295 38.0357 23.852 37.8679C20.0143 37.6551 18.8297 42.5493 22.5763 43.2823C26.323 44.0152 25.996 40.8115 25.996 40.8115Z" fill="#263238"/>
<path d="M25.9961 43.0884C25.98 43.1404 25.964 43.1924 25.9479 43.2397C25.853 43.5472 25.6418 43.8169 25.3493 44.0039C25.0568 44.191 24.7007 44.2843 24.3399 44.2682C24.212 44.2724 24.0839 44.2684 23.9566 44.2564L23.6886 44.2257C20.6924 43.7977 20.545 38.9791 23.4501 38.8325C25.1948 38.7474 25.8085 39.5418 26.0363 41.1283C26.1576 41.7784 26.144 42.4426 25.9961 43.0884Z" fill="#E4897B"/>
<path d="M24.8999 41.1023C25.0506 41.3251 25.2305 41.5314 25.4359 41.7171C25.3887 41.7833 25.3217 41.8367 25.2422 41.8713C25.1627 41.9059 25.0739 41.9205 24.9857 41.9133L24.8999 41.1023Z" fill="#DE5753"/>
<path d="M23.8226 41.029C23.8226 41.1543 23.7664 41.2655 23.6699 41.2655C23.5734 41.2655 23.4876 41.1733 23.4769 41.0479C23.4662 40.9226 23.5359 40.8115 23.6297 40.8115C23.7235 40.8115 23.8119 40.9013 23.8226 41.029Z" fill="#263238"/>
<path d="M23.584 40.821L23.8841 40.6909C23.8841 40.6909 23.7582 40.9321 23.584 40.821Z" fill="#263238"/>
<path d="M25.6046 40.8777C25.6046 41.0054 25.5457 41.1141 25.4519 41.1141C25.3581 41.1141 25.2696 41.0243 25.2562 40.899C25.2428 40.7737 25.3152 40.6626 25.409 40.6626C25.5028 40.6626 25.5912 40.7524 25.6046 40.8777Z" fill="#263238"/>
<path d="M25.3716 40.6696L25.6717 40.542C25.6717 40.542 25.5377 40.7831 25.3716 40.6696Z" fill="#263238"/>
<path d="M23.7394 39.9651C23.6006 39.9568 23.4614 39.9768 23.3327 40.0236C23.204 40.0703 23.0891 40.1425 22.9971 40.2346" stroke="#263238" stroke-width="0.72468" stroke-linecap="round" stroke-linejoin="round"/>
<path d="M25.0071 39.8374C25.1245 39.8047 25.2489 39.7962 25.3706 39.8126C25.4924 39.829 25.6082 39.8698 25.7092 39.932" stroke="#263238" stroke-width="0.72468" stroke-linecap="round" stroke-linejoin="round"/>
<path d="M21.708 41.5279C21.708 41.5279 22.445 40.2228 22.2628 39.251C22.2628 39.251 25.6476 37.8324 26.0148 40.9274C26.0148 40.9274 26.1836 38.1587 23.174 38.2414C20.1643 38.3242 20.4216 42.2018 22.043 43.2823C22.0296 43.2823 21.2444 42.346 21.708 41.5279Z" fill="#263238"/>
<path d="M22.0055 41.84C21.9776 41.6626 21.871 41.5023 21.7092 41.3941C21.5475 41.286 21.3436 41.2389 21.1425 41.2631C20.6065 41.3411 20.4055 42.3342 21.767 42.5044C21.976 42.528 22.0618 42.3578 22.0055 41.84Z" fill="#E4897B"/>
<path d="M24.0691 42.197C24.1283 42.3505 24.24 42.4841 24.3888 42.5794C24.5375 42.6746 24.7161 42.7269 24.8999 42.729" stroke="#263238" stroke-width="0.5" stroke-linecap="round" stroke-linejoin="round"/>
<path d="M24.656 41.1733C24.6565 41.2988 24.6147 41.4216 24.536 41.5262C24.4573 41.6307 24.3452 41.7123 24.2138 41.7606C24.0825 41.8088 23.9378 41.8216 23.7983 41.7972C23.6587 41.7728 23.5305 41.7124 23.4299 41.6237C23.3292 41.5349 23.2608 41.4218 23.2332 41.2987C23.2055 41.1755 23.22 41.0479 23.2747 40.932C23.3294 40.8162 23.4218 40.7172 23.5404 40.6478C23.6589 40.5783 23.7981 40.5415 23.9404 40.542C24.1302 40.542 24.3122 40.6085 24.4464 40.7269C24.5806 40.8453 24.656 41.0058 24.656 41.1733Z" stroke="#263238" stroke-width="0.5" stroke-linecap="round" stroke-linejoin="round"/>
<path d="M26.5319 40.9203C26.5314 41.045 26.489 41.1668 26.4101 41.2703C26.3311 41.3738 26.2192 41.4544 26.0884 41.5018C25.9576 41.5492 25.8138 41.5614 25.6752 41.5368C25.5365 41.5121 25.4093 41.4518 25.3095 41.3635C25.2097 41.2751 25.1418 41.1626 25.1144 41.0402C25.087 40.9178 25.1013 40.791 25.1556 40.6758C25.2098 40.5606 25.3015 40.4621 25.4191 40.3928C25.5367 40.3236 25.675 40.2866 25.8164 40.2866C25.9107 40.2863 26.0041 40.3025 26.0913 40.3343C26.1784 40.366 26.2576 40.4127 26.3241 40.4717C26.3907 40.5306 26.4433 40.6006 26.479 40.6776C26.5147 40.7546 26.5327 40.8371 26.5319 40.9203Z" stroke="#263238" stroke-width="0.5" stroke-linecap="round" stroke-linejoin="round"/>
<path d="M24.656 41.0408C24.656 41.0408 24.924 40.7713 25.1223 40.9841" stroke="#263238" stroke-width="0.5" stroke-linecap="round" stroke-linejoin="round"/>
<path d="M23.225 41.1733L21.6492 41.2702" stroke="#263238" stroke-width="0.5" stroke-linecap="round" stroke-linejoin="round"/>
<path d="M22.8016 38.031C23.5625 38.0096 24.3183 38.1473 25.0072 38.4329C25.9586 38.8893 26.0042 39.5891 26.0042 39.5891L25.6719 39.4804L25.0072 39.0075C25.0957 39.1528 25.1418 39.3154 25.1412 39.4804C25.1412 39.4804 24.9242 39.0973 24.6562 39.0335C24.6926 39.1298 24.6971 39.2332 24.6691 39.3317C24.6411 39.4301 24.5817 39.5195 24.498 39.5891C24.4381 39.3887 24.3018 39.2125 24.1121 39.0902C24.1121 39.0902 24.163 39.3101 23.6646 39.5891C23.6713 39.4856 23.6488 39.3822 23.5993 39.2881C23.5497 39.1941 23.4745 39.1123 23.3805 39.05C23.3805 39.05 23.142 39.4496 22.815 39.5087C22.815 39.5087 23.0589 39.3101 23.0106 39.1895C22.738 39.4057 22.3982 39.5448 22.0351 39.5891C21.4777 39.6293 20.7514 38.6103 22.8016 38.031Z" fill="#263238"/>
<path d="M21.1721 39.679C21.1721 39.679 22.3165 43.9088 24.7204 44.3486L25.1921 44.2233C25.1921 44.2233 23.9138 44.2422 23.0213 42.9796C22.1289 41.7171 21.5205 39.6128 21.5205 39.6128L21.1721 39.679Z" fill="black"/>
<path d="M26.6553 38.9129C25.46 40.2157 22.3217 39.2652 21.2122 40.0147C20.1027 40.7642 20.2796 41.4333 20.2796 41.4452C19.505 41.6556 19.9258 40.5325 19.9258 40.5325C19.1057 38.3313 20.6226 37.0616 22.9515 36.8205C25.133 36.584 25.7334 38.5323 25.7334 38.5323L26.6553 38.9129Z" fill="#407BFF"/>
<path opacity="0.2" d="M25.728 38.5204C25.2375 39.2888 22.169 39.0902 21.0219 39.4307C19.8749 39.7712 19.9204 40.5207 19.9204 40.5207C19.1003 38.3195 20.6172 37.0498 22.9462 36.8086C25.133 36.5816 25.728 38.5204 25.728 38.5204Z" fill="black"/>
<path d="M21.3408 37.317C22.2681 37.0191 23.3026 37.7118 23.7073 38.2154C24.112 38.719 24.9562 38.5323 24.9722 37.979C24.9883 37.4257 24.4041 36.3547 24.4041 36.3547C24.4041 36.3547 20.5636 36.2932 20.0571 38.1918C20.3545 37.7756 20.8093 37.4657 21.3408 37.317Z" fill="#407BFF"/>
<path d="M24.1763 44.3651C24.364 44.1877 24.6092 44.0655 24.8784 44.0152C25.0728 43.9657 25.279 43.9657 25.4734 44.0152C25.4126 44.1133 25.3292 44.1992 25.2286 44.2672C25.128 44.3352 25.0124 44.3839 24.8892 44.4101C24.7755 44.4555 24.6507 44.4751 24.5263 44.4673C24.4018 44.4594 24.2815 44.4243 24.1763 44.3651Z" fill="#263238"/>
<path d="M22.4503 45.3487L23.8251 45.9327L24.4844 46.4718L24.6425 45.9091L24.5594 44.9752L25.6475 45.3487L26.0039 46.564L25.3581 46.2377L24.8757 47.5239L23.4847 46.6941L23.1792 47.2189L21.8955 45.8169L22.4503 45.3487Z" fill="#407BFF"/>
<path opacity="0.5" d="M21.8955 45.8169L23.1792 47.2189L23.4847 46.6941L24.8757 47.5239L25.3581 46.2377L26.0039 46.564L25.6475 45.3487L24.5594 44.9752L24.6425 45.9091L24.4844 46.4718L23.8251 45.9327L22.4503 45.3487L21.8955 45.8169Z" fill="white"/>
<path opacity="0.2" d="M23.1794 47.2189L23.485 46.6941L24.8759 47.5239L23.5546 46.2495L23.1794 47.2189Z" fill="black"/>
<path opacity="0.2" d="M24.8757 47.5239L25.3581 46.2377L26.004 46.564L25.2536 45.7554L24.8757 47.5239Z" fill="black"/>
<path d="M28.2526 50.6544C28.2526 50.6544 28.0007 54.1867 31.5812 53.9645C34.7114 53.7801 37.9033 44.3817 38.651 42.0339C38.6996 41.8822 38.8033 41.7487 38.9461 41.6539C39.0888 41.5591 39.2629 41.5082 39.4416 41.509H39.9321" stroke="#263238" stroke-miterlimit="10"/>
<path d="M28.9147 50.9357H25.428L25.9961 46.1242H29.4855L28.9147 50.9357Z" fill="#263238"/>
<path opacity="0.2" d="M26.2105 50.9357H25.428L25.9961 46.1242H26.7787L26.2105 50.9357Z" fill="white"/>
<path d="M40.2161 41.5232C40.2166 41.5738 40.2001 41.6234 40.1686 41.6657C40.1371 41.708 40.0921 41.7411 40.0393 41.7608C39.9864 41.7805 39.9281 41.7859 39.8718 41.7763C39.8155 41.7667 39.7637 41.7426 39.7229 41.7069C39.6822 41.6713 39.6544 41.6258 39.643 41.5762C39.6316 41.5266 39.6372 41.4752 39.659 41.4284C39.6808 41.3816 39.7179 41.3416 39.7656 41.3134C39.8132 41.2852 39.8693 41.2702 39.9266 41.2702C40.0029 41.2702 40.0762 41.2968 40.1304 41.3441C40.1846 41.3915 40.2154 41.4559 40.2161 41.5232Z" fill="#263238"/>
<path d="M23.5544 51.314L24.6559 50.6544C24.6559 50.6544 24.7149 50.1106 24.8355 49.9994C24.9561 49.8883 26.7704 49.4107 27.1456 49.4391C27.5208 49.4675 27.5878 50.6544 27.2341 50.9665C26.8803 51.2786 25.4331 51.5434 25.3259 51.4393L24.1762 52.073L23.5544 51.314Z" fill="#E4897B"/>
<path d="M19.548 46.3276C18.5188 46.8123 17.2994 53.6855 18.8351 54.7967C20.3707 55.908 24.8758 51.9075 24.8758 51.9075L24.1308 50.4889C24.1308 50.4889 21.3784 52.5388 20.6762 52.1912C19.9741 51.8436 20.6762 49.9001 20.6762 49.9001C20.7892 49.2308 20.7892 48.5503 20.6762 47.881C20.6206 47.5671 20.4916 47.267 20.2974 46.9995C20.1031 46.7321 19.8479 46.5033 19.548 46.3276Z" fill="#407BFF"/>
<path opacity="0.6" d="M19.548 46.3276C18.5188 46.8123 17.2994 53.6855 18.8351 54.7967C20.3707 55.908 24.8758 51.9075 24.8758 51.9075L24.1308 50.4889C24.1308 50.4889 21.3784 52.5388 20.6762 52.1912C19.9741 51.8436 20.6762 49.9001 20.6762 49.9001C20.7892 49.2308 20.7892 48.5503 20.6762 47.881C20.6206 47.5671 20.4916 47.267 20.2974 46.9995C20.1031 46.7321 19.8479 46.5033 19.548 46.3276Z" fill="white"/>
<path d="M113.461 63.2092C113.461 66.8668 112.322 69.8294 110.917 69.8294H78.5616C77.1546 69.8294 76.0156 66.8621 76.0156 63.2092C76.0156 59.5562 77.1546 56.5889 78.5616 56.5889H110.917C112.322 56.5842 113.461 59.5491 113.461 63.2092Z" fill="#407BFF"/>
<path opacity="0.4" d="M113.461 63.2092C113.461 66.8668 112.322 69.8294 110.917 69.8294H78.5616C77.1546 69.8294 76.0156 66.8621 76.0156 63.2092C76.0156 59.5562 77.1546 56.5889 78.5616 56.5889H110.917C112.322 56.5842 113.461 59.5491 113.461 63.2092Z" fill="white"/>
<path d="M81.3381 55.9458H78.6581C77.0099 55.9458 75.6753 59.1732 75.6753 63.1571C75.6753 67.1411 77.0153 70.3661 78.6581 70.3661H81.3381C82.9837 70.3661 84.3183 67.1387 84.3183 63.1571C84.3183 59.1756 82.9837 55.9458 81.3381 55.9458Z" fill="#407BFF"/>
<path opacity="0.4" d="M78.6581 70.3661C80.304 70.3661 81.6383 67.1385 81.6383 63.1571C81.6383 59.1757 80.304 55.9482 78.6581 55.9482C77.0122 55.9482 75.678 59.1757 75.678 63.1571C75.678 67.1385 77.0122 70.3661 78.6581 70.3661Z" fill="white"/>
<path opacity="0.2" d="M81.3381 55.9458H78.6581C77.0099 55.9458 75.6753 59.1732 75.6753 63.1571C75.6753 67.1411 77.0153 70.3661 78.6581 70.3661H81.3381C82.9837 70.3661 84.3183 67.1387 84.3183 63.1571C84.3183 59.1756 82.9837 55.9458 81.3381 55.9458Z" fill="white"/>
<path d="M78.1221 55.9458H75.4421C73.7939 55.9458 72.4592 59.1732 72.4592 63.1571C72.4592 67.1411 73.7992 70.3661 75.4421 70.3661H78.1221C79.7676 70.3661 81.1022 67.1387 81.1022 63.1571C81.1022 59.1756 79.7676 55.9458 78.1221 55.9458Z" fill="#407BFF"/>
<path opacity="0.4" d="M75.4421 70.3661C77.088 70.3661 78.4222 67.1385 78.4222 63.1571C78.4222 59.1757 77.088 55.9482 75.4421 55.9482C73.7962 55.9482 72.4619 59.1757 72.4619 63.1571C72.4619 67.1385 73.7962 70.3661 75.4421 70.3661Z" fill="white"/>
<path opacity="0.2" d="M78.1221 55.9458H75.4421C73.7939 55.9458 72.4592 59.1732 72.4592 63.1571C72.4592 67.1411 73.7992 70.3661 75.4421 70.3661H78.1221C79.7676 70.3661 81.1022 67.1387 81.1022 63.1571C81.1022 59.1756 79.7676 55.9458 78.1221 55.9458Z" fill="white"/>
<path d="M77.2807 63.2092C77.2807 66.8668 76.1417 69.8294 74.7374 69.8294H50.4217C49.0147 69.8294 47.8757 66.8621 47.8757 63.2092C47.8757 59.5562 49.0147 56.5889 50.4217 56.5889H74.7374C76.1417 56.5842 77.2807 59.5491 77.2807 63.2092Z" fill="#407BFF"/>
<path opacity="0.4" d="M77.2807 63.2092C77.2807 66.8668 76.1417 69.8294 74.7374 69.8294H50.4217C49.0147 69.8294 47.8757 66.8621 47.8757 63.2092C47.8757 59.5562 49.0147 56.5889 50.4217 56.5889H74.7374C76.1417 56.5842 77.2807 59.5491 77.2807 63.2092Z" fill="white"/>
<path d="M56.9502 55.9458H54.2702C52.622 55.9458 51.2874 59.1732 51.2874 63.1571C51.2874 67.1411 52.6274 70.3661 54.2702 70.3661H56.9502C58.5957 70.3661 59.9304 67.1387 59.9304 63.1571C59.9304 59.1756 58.5957 55.9458 56.9502 55.9458Z" fill="#407BFF"/>
<path opacity="0.4" d="M54.2702 70.3661C55.9161 70.3661 57.2504 67.1385 57.2504 63.1571C57.2504 59.1757 55.9161 55.9482 54.2702 55.9482C52.6243 55.9482 51.29 59.1757 51.29 63.1571C51.29 67.1385 52.6243 70.3661 54.2702 70.3661Z" fill="white"/>
<path opacity="0.2" d="M56.9502 55.9458H54.2702C52.622 55.9458 51.2874 59.1732 51.2874 63.1571C51.2874 67.1411 52.6274 70.3661 54.2702 70.3661H56.9502C58.5957 70.3661 59.9304 67.1387 59.9304 63.1571C59.9304 59.1756 58.5957 55.9458 56.9502 55.9458Z" fill="white"/>
<path d="M53.8333 56.5842H40.0715V69.8247H53.8333C55.2377 69.8247 56.3767 66.8574 56.3767 63.2044C56.3767 59.5515 55.2377 56.5842 53.8333 56.5842Z" fill="#407BFF"/>
<path opacity="0.4" d="M53.8333 56.5842H40.0715V69.8247H53.8333C55.2377 69.8247 56.3767 66.8574 56.3767 63.2044C56.3767 59.5515 55.2377 56.5842 53.8333 56.5842Z" fill="white"/>
<path d="M51.9411 19.3147H36.9224V90.5271H51.9411V19.3147Z" fill="#407BFF"/>
<path opacity="0.4" d="M51.9411 19.3147H36.9224V90.5271H51.9411V19.3147Z" fill="white"/>
<path d="M52.1368 73.1915H36.7268C36.5195 73.1915 36.3516 73.3397 36.3516 73.5225V75.3857C36.3516 75.5685 36.5195 75.7167 36.7268 75.7167H52.1368C52.344 75.7167 52.512 75.5685 52.512 75.3857V73.5225C52.512 73.3397 52.344 73.1915 52.1368 73.1915Z" fill="#407BFF"/>
<path d="M52.1368 51.6758H36.7268C36.5195 51.6758 36.3516 51.824 36.3516 52.0068V53.8699C36.3516 54.0527 36.5195 54.2009 36.7268 54.2009H52.1368C52.344 54.2009 52.512 54.0527 52.512 53.8699V52.0068C52.512 51.824 52.344 51.6758 52.1368 51.6758Z" fill="#407BFF"/>
<path d="M53.316 90.6122H35.5476L36.3516 89.7941H52.512L53.316 90.6122Z" fill="#407BFF"/>
<path d="M52.1368 37.9624H36.7268C36.5195 37.9624 36.3516 38.1106 36.3516 38.2935V42.5209C36.3516 42.7038 36.5195 42.852 36.7268 42.852H52.1368C52.344 42.852 52.512 42.7038 52.512 42.5209V38.2935C52.512 38.1106 52.344 37.9624 52.1368 37.9624Z" fill="#407BFF"/>
<path opacity="0.2" d="M52.1368 73.1915H36.7268C36.5195 73.1915 36.3516 73.3397 36.3516 73.5225V75.3857C36.3516 75.5685 36.5195 75.7167 36.7268 75.7167H52.1368C52.344 75.7167 52.512 75.5685 52.512 75.3857V73.5225C52.512 73.3397 52.344 73.1915 52.1368 73.1915Z" fill="white"/>
<path opacity="0.2" d="M52.1368 51.6758H36.7268C36.5195 51.6758 36.3516 51.824 36.3516 52.0068V53.8699C36.3516 54.0527 36.5195 54.2009 36.7268 54.2009H52.1368C52.344 54.2009 52.512 54.0527 52.512 53.8699V52.0068C52.512 51.824 52.344 51.6758 52.1368 51.6758Z" fill="white"/>
<path opacity="0.2" d="M52.1368 37.9624H36.7268C36.5195 37.9624 36.3516 38.1106 36.3516 38.2935V42.5209C36.3516 42.7038 36.5195 42.852 36.7268 42.852H52.1368C52.344 42.852 52.512 42.7038 52.512 42.5209V38.2935C52.512 38.1106 52.344 37.9624 52.1368 37.9624Z" fill="white"/>
<path d="M36.9171 38.6694H36.2712C35.8746 38.6694 35.553 39.4473 35.553 40.4072C35.553 41.3671 35.8746 42.145 36.2712 42.145H36.9171C37.3164 42.145 37.638 41.3671 37.638 40.4072C37.638 39.4473 37.3164 38.6694 36.9171 38.6694Z" fill="#407BFF"/>
<path opacity="0.4" d="M36.2712 42.145C36.6679 42.145 36.9895 41.367 36.9895 40.4072C36.9895 39.4474 36.6679 38.6694 36.2712 38.6694C35.8745 38.6694 35.553 39.4474 35.553 40.4072C35.553 41.367 35.8745 42.145 36.2712 42.145Z" fill="white"/>
<path opacity="0.1" d="M36.9171 38.6694H36.2712C35.8746 38.6694 35.553 39.4473 35.553 40.4072C35.553 41.3671 35.8746 42.145 36.2712 42.145H36.9171C37.3164 42.145 37.638 41.3671 37.638 40.4072C37.638 39.4473 37.3164 38.6694 36.9171 38.6694Z" fill="white"/>
<path d="M35.912 39.861H32.8193C32.6156 39.861 32.4495 40.0975 32.4495 40.4072C32.4495 40.7169 32.6156 40.9534 32.8193 40.9534H35.912C36.1157 40.9534 36.2792 40.7169 36.2792 40.4072C36.2792 40.0975 36.1077 39.861 35.912 39.861Z" fill="#407BFF"/>
<path opacity="0.4" d="M33.1865 40.4072C33.1865 40.7075 33.023 40.9534 32.8193 40.9534C32.6156 40.9534 32.4495 40.7169 32.4495 40.4072C32.4495 40.0975 32.6156 39.861 32.8193 39.861C33.023 39.861 33.1865 40.1069 33.1865 40.4072Z" fill="white"/>
<path opacity="0.1" d="M35.912 39.861H32.8193C32.6156 39.861 32.4495 40.0975 32.4495 40.4072C32.4495 40.7169 32.6156 40.9534 32.8193 40.9534H35.912C36.1157 40.9534 36.2792 40.7169 36.2792 40.4072C36.2792 40.0975 36.1077 39.861 35.912 39.861Z" fill="white"/>
<path d="M32.2057 38.92H33.3259C34.0147 38.92 34.5721 39.5868 34.5721 40.4072C34.5721 41.2276 34.0147 41.8944 33.3259 41.8944H32.2057C31.5196 41.8944 30.9622 41.2276 30.9622 40.4072C30.9622 39.5868 31.5196 38.92 32.2057 38.92Z" fill="#407BFF"/>
<path opacity="0.1" d="M32.2057 38.92H33.3259C34.0147 38.92 34.5721 39.5868 34.5721 40.4072C34.5721 41.2276 34.0147 41.8944 33.3259 41.8944H32.2057C31.5196 41.8944 30.9622 41.2276 30.9622 40.4072C30.9622 39.5868 31.5196 38.92 32.2057 38.92Z" fill="white"/>
<path opacity="0.2" d="M32.0798 40.4072C32.0798 41.2276 32.6373 41.8944 33.326 41.8944C34.0148 41.8944 34.5722 41.2276 34.5722 40.4072C34.5722 39.5868 34.0148 38.92 33.326 38.92C32.6373 38.92 32.0798 39.5868 32.0798 40.4072Z" fill="black"/>
<path d="M81.4212 64.4977H81.8554C82.6808 64.4977 83.3481 63.6844 83.3481 62.6795C83.3481 61.6747 82.6808 60.8613 81.8554 60.8613H81.4212C80.5958 60.8613 79.9285 61.677 79.9285 62.6795C79.9285 63.682 80.5958 64.4977 81.4212 64.4977Z" fill="#407BFF"/>
<path opacity="0.4" d="M80.3625 62.6795C80.3625 61.677 81.0326 60.8613 81.8553 60.8613C82.6781 60.8613 83.3481 61.677 83.3481 62.6795C83.3481 63.682 82.6808 64.4977 81.8553 64.4977C81.0299 64.4977 80.3625 63.6844 80.3625 62.6795Z" fill="white"/>
<path opacity="0.2" d="M81.4212 64.4977H81.8554C82.6808 64.4977 83.3481 63.6844 83.3481 62.6795C83.3481 61.6747 82.6808 60.8613 81.8554 60.8613H81.4212C80.5958 60.8613 79.9285 61.677 79.9285 62.6795C79.9285 63.682 80.5958 64.4977 81.4212 64.4977Z" fill="white"/>
<path d="M82.3457 59.1472C80.7779 59.1472 79.5049 60.7715 79.5049 62.7741C79.5049 64.7767 80.7779 66.4034 82.3457 66.4034C83.9135 66.4034 85.1865 64.7791 85.1865 62.7741C85.1865 60.7691 83.9162 59.1472 82.3457 59.1472ZM81.204 62.6795H80.0543C80.0636 62.0635 80.2226 61.4564 80.5206 60.8992L81.3541 62.2445C81.2681 62.3779 81.2168 62.5265 81.204 62.6795ZM81.204 62.916C81.2207 63.0535 81.27 63.1865 81.3487 63.3061L80.5152 64.6514C80.2241 64.108 80.0652 63.5169 80.0489 62.916H81.204ZM82.4609 62.916H84.6478C84.6326 63.5236 84.4719 64.1215 84.1761 64.6703L82.4127 63.1193C82.435 63.0529 82.4503 62.9849 82.4582 62.916H82.4609ZM82.4609 62.6795C82.4535 62.5994 82.4364 62.5201 82.41 62.4431L84.1734 60.8897C84.4769 61.4523 84.6387 62.0661 84.6478 62.689L82.4609 62.6795ZM84.0394 60.6651L82.276 62.2043C82.222 62.1318 82.1518 62.0699 82.0696 62.0222L82.4502 59.639C83.08 59.6673 83.6374 60.0622 84.0394 60.6651ZM82.1795 59.639L81.8204 61.9655C81.7159 61.9697 81.6156 62.0028 81.5336 62.0601L80.668 60.6509C81.0512 60.0764 81.5872 59.6933 82.1795 59.639ZM80.668 64.8997L81.539 63.4976C81.6202 63.5546 81.7195 63.5877 81.8231 63.5922L82.1768 65.9187C81.5846 65.8549 81.0486 65.4719 80.668 64.8997ZM82.4502 65.9235L82.0857 63.5284C82.1679 63.4807 82.2381 63.4188 82.2921 63.3463L84.0448 64.8855C83.6348 65.4908 83.08 65.888 82.4448 65.9235H82.4502Z" fill="#407BFF"/>
<path d="M87.8637 61.4524L86.4138 60.7762C86.2102 60.5375 86.0367 60.2798 85.8966 60.0078C85.8215 59.7714 84.8245 58.932 84.4333 59.029C84.042 59.1259 83.0745 60.684 83.439 60.8992C83.9726 61.1548 84.5348 61.3609 85.1167 61.5139C85.3217 61.5308 85.5281 61.5308 85.7331 61.5139L87.0731 62.4597L87.8637 61.4524Z" fill="#263238"/>
<path d="M95.8904 60.8755C95.8904 60.8755 91.2862 62.3911 90.7689 62.4029C90.2517 62.4147 86.832 60.6344 86.832 60.6344L85.76 61.9017C85.76 61.9017 88.8447 64.2849 89.587 64.7933C90.3294 65.3016 96.5738 64.0627 96.5738 64.0627C96.745 63.5208 96.7724 62.9514 96.6539 62.3987C96.5353 61.846 96.2741 61.3248 95.8904 60.8755Z" fill="#263238"/>
<path opacity="0.3" d="M95.8904 60.8755C95.8904 60.8755 91.2862 62.3911 90.7689 62.4029C90.2517 62.4147 86.832 60.6344 86.832 60.6344L85.76 61.9017C85.76 61.9017 88.8447 64.2849 89.587 64.7933C90.3294 65.3016 96.5738 64.0627 96.5738 64.0627C96.745 63.5208 96.7724 62.9514 96.6539 62.3987C96.5353 61.846 96.2741 61.3248 95.8904 60.8755Z" fill="white"/>
<path d="M91.8113 89.2763L89.9997 89.6121L88.0674 86.8079L89.8764 86.4698L91.8113 89.2763Z" fill="#E4897B"/>
<path d="M89.6352 88.9358H91.6559C91.6891 88.9362 91.7212 88.9464 91.747 88.9649C91.7727 88.9833 91.7907 89.0089 91.798 89.0375L92.1276 90.3474C92.1346 90.3753 92.1353 90.4043 92.1295 90.4325C92.1237 90.4606 92.1116 90.4875 92.0939 90.5115C92.0762 90.5355 92.0532 90.5562 92.0263 90.5722C91.9994 90.5883 91.9692 90.5995 91.9373 90.6051C91.9195 90.6075 91.9015 90.6075 91.8837 90.6051C91.2271 90.6051 90.7501 90.5602 89.9273 90.5602C89.4208 90.5602 87.8905 90.6075 87.191 90.6075C86.4916 90.6075 86.387 89.9974 86.6845 89.9407C87.9709 89.7043 88.9384 89.352 89.3511 89.0257C89.4296 88.9652 89.531 88.9331 89.6352 88.9358Z" fill="#263238"/>
<path d="M89.0832 89.1936C88.9703 89.2009 88.8579 89.1742 88.7643 89.1179C88.7331 89.0959 88.709 89.0671 88.6945 89.0343C88.6799 89.0015 88.6753 88.9659 88.6812 88.9311C88.6798 88.9109 88.6855 88.8907 88.6975 88.8734C88.7095 88.856 88.7272 88.8424 88.7482 88.8342C88.9331 88.7491 89.4718 89.0422 89.5308 89.0706C89.5384 89.0728 89.5448 89.0774 89.5488 89.0835C89.5527 89.0896 89.554 89.0968 89.5522 89.1037C89.5503 89.1108 89.5464 89.1174 89.5407 89.1228C89.5351 89.1282 89.528 89.1322 89.5201 89.1345C89.3771 89.1672 89.2307 89.187 89.0832 89.1936ZM88.8367 88.8886C88.8203 88.8829 88.8021 88.8829 88.7858 88.8886C88.7858 88.8886 88.7616 88.9004 88.7589 88.9288C88.756 88.9519 88.7593 88.9753 88.7686 88.9971C88.7779 89.0189 88.793 89.0384 88.8126 89.0541C88.9998 89.1296 89.2127 89.1389 89.4075 89.0801C89.233 88.9848 89.0391 88.9206 88.8367 88.8909V88.8886Z" fill="#407BFF"/>
<path d="M89.512 89.1439H89.4933C89.3217 89.0612 88.9894 88.7372 89.0243 88.5812C89.0294 88.5551 89.0449 88.5315 89.068 88.5146C89.0911 88.4977 89.1202 88.4886 89.1502 88.489C89.1804 88.4855 89.211 88.4877 89.2401 88.4954C89.2692 88.5032 89.2961 88.5163 89.3191 88.5339C89.512 88.6734 89.5522 89.0966 89.5549 89.1155C89.555 89.1222 89.553 89.1288 89.5493 89.1346C89.5455 89.1405 89.54 89.1453 89.5335 89.1486L89.512 89.1439ZM89.177 88.5457H89.1583C89.1073 88.5457 89.1047 88.5717 89.102 88.5812C89.0805 88.6758 89.2923 88.9217 89.4638 89.0351C89.4524 88.8684 89.3842 88.7085 89.2681 88.5765C89.2421 88.5565 89.2088 88.5456 89.1743 88.5457H89.177Z" fill="#407BFF"/>
<path opacity="0.2" d="M89.8764 86.4698L88.0674 86.8079L89.0643 88.2549L90.876 87.9168L89.8764 86.4698Z" fill="black"/>
<path d="M97.793 79.7716C97.6965 79.7716 96.595 79.7716 96.4932 79.755C94.5084 79.5769 92.5492 79.222 90.6455 78.6958C88.9383 78.2442 87.7591 77.821 87.7591 77.821C87.3705 79.8165 91.0394 87.4723 91.0394 87.4723L88.0432 87.6354C88.0432 87.6354 79.6601 76.7286 83.2326 73.3287C85.8992 70.7917 93.1352 73.5462 93.1352 73.5462L95.0246 70.0256L103.035 70.4299C103.035 70.4299 104.766 80.1002 97.793 79.7716Z" fill="#263238"/>
<path d="M88.1827 87.9499L91.1709 87.5267L90.8841 86.8103L87.6333 87.4085L88.1827 87.9499Z" fill="#407BFF"/>
<path d="M112.107 86.283L112.265 87.7489L108.43 88.1887L108.275 86.7228L112.107 86.283Z" fill="#E4897B"/>
<path d="M112.093 87.9688L111.903 86.1884C111.901 86.1592 111.91 86.1301 111.928 86.1057C111.946 86.0813 111.974 86.063 112.005 86.0537L113.452 85.6423C113.514 85.6252 113.582 85.6306 113.64 85.6571C113.697 85.6837 113.741 85.7294 113.76 85.7841C113.762 85.7999 113.762 85.8157 113.76 85.8314C113.811 86.4083 113.817 86.8316 113.892 87.5551C113.94 87.9996 114.136 89.3401 114.203 89.9549C114.27 90.5696 113.589 90.7067 113.498 90.4609C113.098 89.3543 112.621 88.5363 112.214 88.2053C112.142 88.1422 112.099 88.058 112.093 87.9688Z" fill="#263238"/>
<path d="M112.437 88.4275C112.457 88.5262 112.438 88.6281 112.383 88.716C112.361 88.7452 112.33 88.7689 112.295 88.7846C112.259 88.8004 112.219 88.8077 112.179 88.8058C112.157 88.8089 112.134 88.8058 112.113 88.7969C112.092 88.788 112.075 88.7738 112.064 88.7562C111.952 88.6025 112.23 88.1012 112.263 88.0468C112.265 88.0406 112.27 88.0353 112.276 88.0315C112.282 88.0277 112.29 88.0256 112.297 88.0256C112.306 88.0253 112.314 88.0274 112.321 88.0317C112.328 88.036 112.333 88.0421 112.335 88.0492C112.385 88.1716 112.419 88.2985 112.437 88.4275ZM112.115 88.6758C112.115 88.6911 112.121 88.706 112.131 88.7183C112.131 88.7183 112.147 88.7372 112.179 88.7372C112.206 88.7379 112.232 88.7329 112.256 88.7226C112.28 88.7123 112.301 88.697 112.316 88.6781C112.384 88.5076 112.375 88.3207 112.292 88.1556C112.196 88.3173 112.136 88.494 112.115 88.6758Z" fill="#407BFF"/>
<path d="M112.338 88.0587V88.0752C112.26 88.2336 111.925 88.5481 111.748 88.5481C111.718 88.5459 111.69 88.5345 111.669 88.5159C111.648 88.4973 111.635 88.4727 111.633 88.4464C111.625 88.4205 111.625 88.3935 111.631 88.3673C111.637 88.3411 111.649 88.3165 111.668 88.2951C111.804 88.1107 112.279 88.0374 112.303 88.0327C112.31 88.0321 112.317 88.0331 112.324 88.0356C112.33 88.038 112.336 88.0419 112.34 88.0468C112.34 88.0509 112.34 88.055 112.338 88.0587ZM111.694 88.4086V88.4251C111.694 88.4701 111.729 88.4724 111.74 88.4724C111.85 88.4724 112.107 88.2738 112.22 88.1107C112.032 88.1369 111.857 88.2127 111.718 88.3282C111.7 88.3517 111.692 88.3801 111.694 88.4086Z" fill="#407BFF"/>
<path opacity="0.2" d="M108.277 86.7228L108.433 88.1887L110.411 87.9617L110.253 86.4935L108.277 86.7228Z" fill="black"/>
<path d="M109.784 88.5741C109.784 88.5741 98.9697 91.3641 96.2764 89.6806C94.9524 88.8531 94.4459 86.7583 94.3682 84.3797C94.3306 82.7646 94.4282 81.1493 94.6603 79.5469C95.0114 76.984 95.5688 74.8773 95.8127 74.5605C95.8127 74.5605 103.049 74.3832 102.85 75.9791C102.652 77.5751 98.7929 85.7983 99.6344 86.4509C100.476 87.1035 109.591 86.1388 109.591 86.1388L109.784 88.5741Z" fill="#263238"/>
<path d="M109.215 85.9497L109.438 88.8909L110.274 88.7041L109.896 85.7936L109.215 85.9497Z" fill="#407BFF"/>
<path opacity="0.5" d="M88.1827 87.9499L91.1709 87.5267L90.8841 86.8103L87.6333 87.4085L88.1827 87.9499Z" fill="white"/>
<path opacity="0.5" d="M109.215 85.9497L109.438 88.8909L110.274 88.7041L109.896 85.7936L109.215 85.9497Z" fill="white"/>
<path d="M91.4924 57.3715C91.5326 57.4874 91.4736 57.608 91.3879 57.608C91.3021 57.608 91.2056 57.5418 91.1762 57.4259C91.1467 57.3101 91.1949 57.1895 91.2807 57.1895C91.3664 57.1895 91.4656 57.2604 91.4924 57.3715Z" fill="#263238"/>
<path d="M91.6264 57.459C91.5567 57.8516 91.4249 58.2336 91.2351 58.5939C91.3419 58.6342 91.4574 58.6536 91.5735 58.6507C91.6896 58.6479 91.8037 58.6228 91.9078 58.5774L91.6264 57.459Z" fill="#892B29"/>
<path d="M91.16 56.7166C91.1399 56.7221 91.123 56.7343 91.1129 56.7507C91.1029 56.767 91.1006 56.7862 91.1064 56.8041C91.1136 56.8176 91.1259 56.8285 91.1413 56.8348C91.1587 56.8491 91.1818 56.8567 91.2056 56.8561C91.3023 56.8294 91.4048 56.823 91.5048 56.8373C91.6048 56.8517 91.6997 56.8865 91.7818 56.9389C91.7968 56.9518 91.817 56.9591 91.8381 56.9591C91.8591 56.9591 91.8793 56.9518 91.8944 56.9389C91.9091 56.9256 91.9173 56.9078 91.9173 56.8892C91.9173 56.8706 91.9091 56.8528 91.8944 56.8396C91.7924 56.7681 91.6723 56.7196 91.5444 56.6982C91.4165 56.6768 91.2846 56.6831 91.16 56.7166Z" fill="#263238"/>
<path d="M92.0419 59.107C92.0847 59.1732 92.1303 59.237 92.1785 59.2985C92.4561 59.6501 92.8475 59.9195 93.3015 60.0716C93.416 60.1117 93.5344 60.1425 93.6552 60.1639C93.9714 60.2283 94.2999 60.2295 94.6166 60.1673C94.9334 60.1051 95.2303 59.9811 95.4857 59.8045C95.7144 59.6435 95.9047 59.4442 96.0458 59.2181C96.6541 58.2724 96.3674 57.4188 96.0163 55.9411C95.9414 55.594 95.7668 55.2697 95.5093 54.9991C95.2518 54.7285 94.92 54.5207 94.5456 54.3955C94.1711 54.2703 93.7665 54.2318 93.3704 54.2839C92.9743 54.3359 92.5999 54.4767 92.2831 54.6927C90.8519 55.6597 91.2834 57.8799 92.0419 59.107Z" fill="#B97964"/>
<path opacity="0.2" d="M93.3015 60.0716C93.4161 60.1117 93.5345 60.1425 93.6553 60.1639C93.9714 60.2283 94.2999 60.2295 94.6167 60.1673C94.9334 60.1051 95.2304 59.9811 95.4857 59.8045C95.3574 59.6473 95.207 59.5051 95.0381 59.3813C94.396 59.4592 93.7931 59.6989 93.3015 60.0716Z" fill="black"/>
<path d="M97.2034 61.1687C96.5897 62.0152 94.5234 62.2492 94.5234 62.2492C94.5234 62.2492 93.1834 62.2492 93.3442 61.8402C94.0437 61.5588 94.3063 61.1734 94.3331 60.7526C94.3399 60.4941 94.2889 60.237 94.183 59.996C94.1294 59.8612 94.0625 59.7288 93.9955 59.5988L95.9652 57.4023C95.9679 58.5419 96.1716 60.5847 97.2034 61.1687Z" fill="#B97964"/>
<path d="M91.9909 54.078C92.3715 53.8132 93.5131 53.3356 94.3011 53.3356C96.7425 53.3356 96.8203 54.5745 96.8203 54.5745C96.6168 54.3741 96.3542 54.2276 96.0618 54.1513C98.715 56.3359 96.3057 59.0266 96.3057 59.0266C95.2846 58.8682 94.1617 59.4191 94.1617 59.4191C94.1617 59.4191 93.5131 58.1565 92.9825 57.8231C92.3865 57.3907 92.0064 56.7693 91.9239 56.0924C91.9239 55.5533 91.4174 55.9222 91.4174 55.9222C90.9055 55.6716 91.4335 54.4681 91.9909 54.078Z" fill="#263238"/>
<path d="M93.5052 57.4472C93.5152 57.5917 93.4889 57.7363 93.4282 57.8707C93.3675 58.0052 93.2739 58.1262 93.1541 58.2251C92.8567 58.4308 92.5083 58.0667 92.4225 57.6174C92.3501 57.2179 92.4091 56.6173 92.7923 56.6031C93.1756 56.5889 93.5025 57.0382 93.5052 57.4472Z" fill="#B97964"/>
<path d="M92.1438 55.4044C92.1438 55.4044 92.0661 58.8327 92.8915 59.8967C92.8915 59.8967 91.8517 59.2559 91.8624 55.5628L92.1438 55.4044Z" fill="black"/>
<path d="M93.3015 54.967C93.3015 54.967 94.7594 56.2154 95.8556 56.4494C96.9517 56.6835 97.3456 56.1042 97.3456 56.1042L97.2036 55.0639C97.2036 55.0639 97.2331 55.8654 96.7909 55.9458C96.3487 56.0262 95.3329 55.8489 94.1269 54.8157L93.3015 54.967Z" fill="#407BFF"/>
<path opacity="0.4" d="M93.3015 54.967C93.3015 54.967 94.7594 56.2154 95.8556 56.4494C96.9517 56.6835 97.3456 56.1042 97.3456 56.1042L97.2036 55.0639C97.2036 55.0639 97.2331 55.8654 96.7909 55.9458C96.3487 56.0262 95.3329 55.8489 94.1269 54.8157L93.3015 54.967Z" fill="white"/>
<path d="M90.852 56.0191C90.852 56.0191 90.7099 54.4988 91.388 53.7895C92.066 53.0802 94.001 52.6901 95.2552 52.9525C96.5095 53.215 97.1929 54.6431 97.2438 54.9339C97.359 55.6101 94.4941 54.4184 92.87 54.9552C91.2459 55.4919 90.852 56.0191 90.852 56.0191Z" fill="#407BFF"/>
<path opacity="0.2" d="M90.852 56.0191C90.852 56.0191 90.7099 54.4988 91.388 53.7895C92.066 53.0802 94.001 52.6901 95.2552 52.9525C96.5095 53.215 97.1929 54.6431 97.2438 54.9339C97.359 55.6101 94.4941 54.4184 92.87 54.9552C91.2459 55.4919 90.852 56.0191 90.852 56.0191Z" fill="black"/>
<path d="M91.5969 53.6027C91.5969 53.6027 91.6961 52.8485 91.9641 52.657C92.2321 52.4655 94.4672 52.2196 95.1399 52.4584C95.8126 52.6972 96.8336 53.7612 97.0293 55.0214L95.9439 55.1467C95.9439 55.1467 95.5874 53.728 94.62 53.3214C93.5078 52.8674 91.5969 53.6027 91.5969 53.6027Z" fill="#407BFF"/>
<path d="M90.332 56.7852C90.332 56.7852 91.2111 56.9672 91.9132 56.0144C92.6154 55.0616 94.1323 54.993 95.3329 55.2318C96.1828 55.4011 97.0593 55.4411 97.9245 55.35L97.2357 54.9339C97.2357 54.9339 96.3567 55.1159 94.8237 54.6974C93.2908 54.2789 91.2781 55.1892 90.8573 56.0191L90.332 56.7852Z" fill="#407BFF"/>
<path d="M103.199 70.6735L93.8695 71.9999C93.7141 70.0753 93.4488 68.2334 93.1486 66.5831C93.1164 66.3892 93.0789 66.2001 93.0441 66.0133C92.9664 65.6043 92.8538 65.1361 92.7252 64.6538C92.4062 63.448 91.9962 62.1452 91.8113 61.4217C91.8113 61.4217 95.2658 60.3175 98.0155 60.9323C101.266 61.6581 103.199 70.6735 103.199 70.6735Z" fill="#407BFF"/>
<path opacity="0.2" d="M100.57 78.0125C100.508 78.1969 98.541 83.8737 94.3682 84.3797C94.3306 82.7646 94.4282 81.1493 94.6603 79.5469C95.6008 79.6816 96.5511 79.7559 97.5038 79.7692C98.5329 79.7361 100.302 78.6201 100.57 78.0125Z" fill="black"/>
<path opacity="0.7" d="M102.939 69.6L93.7758 71.0068C93.7409 70.6262 93.6981 70.2479 93.6498 69.8743L97.7422 69.165C97.4742 67.9994 96.9382 65.888 96.1744 64.3133C95.5382 63.0492 94.5809 61.9312 93.3765 61.0458C93.5373 61.0127 93.7061 60.9819 93.883 60.9536C96.7318 62.845 98.171 67.1789 98.6695 69.0042L101.258 68.5503C101.031 67.4839 100.454 65.1172 99.6235 63.3912C99.1672 62.4657 98.5325 61.6169 97.7475 60.8826C97.8413 60.8992 97.9351 60.9181 98.0155 60.9394C98.2616 60.997 98.494 61.0931 98.7016 61.2231C100.805 63.5189 101.861 67.056 102.202 68.3848L102.577 68.3209C102.724 68.7985 102.842 69.2359 102.939 69.6Z" fill="white"/>
<path opacity="0.2" d="M93.1488 66.5831C93.1166 66.3892 93.0791 66.2001 93.0443 66.0133C92.9665 65.6043 92.854 65.1361 92.7253 64.6538C92.9501 64.4774 93.2165 64.3474 93.5052 64.2731C93.5052 64.2731 93.7759 65.713 93.1488 66.5831Z" fill="black"/>
<path d="M84.1171 65.6374L82.4876 65.479C82.1975 65.3228 81.9279 65.1389 81.6836 64.9304C81.5148 64.7365 80.2445 64.2779 79.9148 64.4954C79.5852 64.7129 79.3386 66.4744 79.7701 66.5571C80.3722 66.6219 80.9802 66.6314 81.5845 66.5855C81.7816 66.5328 81.9727 66.4639 82.1553 66.3798L83.8008 66.8148L84.1171 65.6374Z" fill="#263238"/>
<path d="M92.3957 61.6345C92.3957 61.6345 87.6923 65.4009 87.2153 65.5783C86.7382 65.7556 82.8254 65.207 82.8254 65.207L82.3457 66.7321C82.3457 66.7321 86.2076 67.9474 87.1081 68.1814C88.0085 68.4155 93.3015 65.2354 93.3015 65.2354C93.3015 65.2354 94.2878 62.7126 92.3957 61.6345Z" fill="#263238"/>
<path opacity="0.4" d="M92.3957 61.6345C92.3957 61.6345 87.6923 65.4009 87.2153 65.5783C86.7382 65.7556 82.8254 65.207 82.8254 65.207L82.3457 66.7321C82.3457 66.7321 86.2076 67.9474 87.1081 68.1814C88.0085 68.4155 93.3015 65.2354 93.3015 65.2354C93.3015 65.2354 94.2878 62.7126 92.3957 61.6345Z" fill="white"/>
</svg>
