<svg width="136" height="100" viewBox="0 0 136 100" fill="none" xmlns="http://www.w3.org/2000/svg">
<path d="M121.765 92.9653H112.801V93.033H121.765V92.9653Z" fill="#EBEBEB"/>
<path d="M89.6449 93.7014H87.293V93.7691H89.6449V93.7014Z" fill="#EBEBEB"/>
<path d="M112.531 90.4536H107.337V90.5213H112.531V90.4536Z" fill="#EBEBEB"/>
<path d="M25.8876 90.9082H14.1982V90.9759H25.8876V90.9082Z" fill="#EBEBEB"/>
<path d="M30.012 90.9082H28.2988V90.9759H30.012V90.9082Z" fill="#EBEBEB"/>
<path d="M60.9365 92.0505H35.582V92.1182H60.9365V92.0505Z" fill="#EBEBEB"/>
<path d="M64.1432 76.5396H11.8862C11.4764 76.5396 11.0833 76.3768 10.7935 76.087C10.5036 75.7972 10.3408 75.4041 10.3408 74.9942V1.53187C10.3444 1.12436 10.5088 0.734744 10.7982 0.447845C11.0877 0.160945 11.4787 -1.56235e-05 11.8862 1.13742e-09H64.1432C64.5531 1.13742e-09 64.9461 0.162819 65.236 0.452639C65.5258 0.74246 65.6886 1.13554 65.6886 1.54541V74.9942C65.6886 75.4041 65.5258 75.7972 65.236 76.087C64.9461 76.3768 64.5531 76.5396 64.1432 76.5396ZM11.8862 0.0541301C11.4945 0.0548455 11.1191 0.210765 10.8421 0.487742C10.5651 0.764718 10.4092 1.14017 10.4085 1.53187V74.9942C10.4092 75.3859 10.5651 75.7614 10.8421 76.0383C11.1191 76.3153 11.4945 76.4712 11.8862 76.472H64.1432C64.5349 76.4712 64.9103 76.3153 65.1873 76.0383C65.4643 75.7614 65.6202 75.3859 65.6209 74.9942V1.53187C65.6202 1.14017 65.4643 0.764718 65.1873 0.487742C64.9103 0.210765 64.5349 0.0548455 64.1432 0.0541301H11.8862Z" fill="#EBEBEB"/>
<path d="M122.688 76.5396H70.4253C70.0156 76.5389 69.623 76.3759 69.3333 76.0862C69.0437 75.7965 68.8806 75.4039 68.8799 74.9942V1.53187C68.8842 1.12458 69.0488 0.735375 69.3381 0.448626C69.6273 0.161878 70.018 0.000689693 70.4253 0H122.688C123.094 0.00140859 123.484 0.162998 123.772 0.449745C124.06 0.736493 124.224 1.12529 124.228 1.53187V74.9942C124.228 75.4031 124.066 75.7954 123.777 76.0851C123.488 76.3747 123.097 76.5382 122.688 76.5396ZM70.4253 0.0541301C70.0336 0.0548455 69.6581 0.210765 69.3812 0.487742C69.1042 0.764718 68.9483 1.14017 68.9475 1.53187V74.9942C68.9483 75.3859 69.1042 75.7614 69.3812 76.0383C69.6581 76.3153 70.0336 76.4712 70.4253 76.472H122.688C123.079 76.4712 123.455 76.3153 123.732 76.0383C124.009 75.7614 124.165 75.3859 124.165 74.9942V1.53187C124.165 1.14017 124.009 0.764718 123.732 0.487742C123.455 0.210765 123.079 0.0548455 122.688 0.0541301H70.4253Z" fill="#EBEBEB"/>
<path d="M135.325 88.6104H0V88.678H135.325V88.6104Z" fill="#EBEBEB"/>
<path d="M54.9743 71.6162H22.334V12.5308L22.6669 12.2114C26.9608 8.07736 32.6936 5.77435 38.6541 5.78889C44.6148 5.77378 50.3478 8.07688 54.6414 12.2114L54.9743 12.5308V71.6162ZM24.4992 69.451H52.8091V13.4618C48.9462 9.91928 43.8954 7.95398 38.6541 7.95398C33.4128 7.95398 28.3621 9.91928 24.4992 13.4618V69.451Z" fill="#E0E0E0"/>
<path d="M53.2206 23.0509V21.427H39.4662V7.67261H37.8423V21.427H24.0879V23.0509H37.8423V37.8852H24.0879V39.5091H37.8423V54.3461H24.0879V55.97H37.8423V69.7217H39.4662V55.97H53.2206V54.3461H39.4662V39.5091H53.2206V37.8852H39.4662V23.0509H53.2206Z" fill="#F5F5F5"/>
<path d="M56.0565 72.6991H21.251V12.0899L21.5676 11.7732C26.1032 7.24424 32.2509 4.70044 38.6605 4.70044C45.0701 4.70044 51.2177 7.24424 55.7533 11.7732L56.07 12.0899L56.0565 72.6991ZM23.4162 70.5339H53.8913V12.9911C49.7914 9.06213 44.3323 6.86864 38.6537 6.86864C32.9752 6.86864 27.5161 9.06213 23.4162 12.9911V70.5339Z" fill="#EBEBEB"/>
<path d="M112.504 71.6162H79.8633V12.5308L80.1962 12.2114C84.4901 8.07737 90.2229 5.77435 96.1834 5.78889C102.145 5.77365 107.879 8.07671 112.173 12.2114L112.504 12.5308V71.6162ZM82.0285 69.451H110.338V13.4618C106.476 9.91928 101.425 7.95398 96.1834 7.95398C90.9421 7.95398 85.8913 9.91928 82.0285 13.4618V69.451Z" fill="#E0E0E0"/>
<path d="M110.75 23.0509V21.427H96.9957V7.67261H95.3718V21.427H81.6201V23.0509H95.3718V37.8852H81.6201V39.5091H95.3718V54.3461H81.6201V55.97H95.3718V69.7217H96.9957V55.97H110.75V54.3461H96.9957V39.5091H110.75V37.8852H96.9957V23.0509H110.75Z" fill="#F5F5F5"/>
<path d="M113.586 72.6989H78.7803V12.0897L79.0996 11.7731C83.6342 7.24838 89.7785 4.70728 96.1844 4.70728C102.59 4.70728 108.735 7.24838 113.269 11.7731L113.586 12.0897V72.6989ZM80.9455 70.5337H111.421V12.991C107.321 9.06198 101.862 6.86849 96.183 6.86849C90.5045 6.86849 85.0454 9.06198 80.9455 12.991V70.5337Z" fill="#EBEBEB"/>
<path d="M67.9815 85.4656H73.4162C73.6135 85.4656 73.7734 85.3056 73.7734 85.1083V84.1719C73.7734 83.9746 73.6135 83.8146 73.4162 83.8146H67.9815C67.7842 83.8146 67.6243 83.9746 67.6243 84.1719V85.1083C67.6243 85.3056 67.7842 85.4656 67.9815 85.4656Z" fill="#EBEBEB"/>
<path d="M61.5323 85.4656H66.967C67.1643 85.4656 67.3242 85.3056 67.3242 85.1083V84.1719C67.3242 83.9746 67.1643 83.8146 66.967 83.8146H61.5323C61.335 83.8146 61.1751 83.9746 61.1751 84.1719V85.1083C61.1751 85.3056 61.335 85.4656 61.5323 85.4656Z" fill="#F5F5F5"/>
<path d="M64.4063 83.4194H69.841C70.0383 83.4194 70.1982 83.2595 70.1982 83.0622V82.1257C70.1982 81.9284 70.0383 81.7685 69.841 81.7685H64.4063C64.209 81.7685 64.0491 81.9284 64.0491 82.1257V83.0622C64.0491 83.2595 64.209 83.4194 64.4063 83.4194Z" fill="#F5F5F5"/>
<path d="M57.9708 83.4194H63.4054C63.6027 83.4194 63.7627 83.2595 63.7627 83.0622V82.1257C63.7627 81.9284 63.6027 81.7685 63.4054 81.7685H57.9708C57.7735 81.7685 57.6135 81.9284 57.6135 82.1257V83.0622C57.6135 83.2595 57.7735 83.4194 57.9708 83.4194Z" fill="#F0F0F0"/>
<path d="M22.3341 84.4426H27.7687C27.966 84.4426 28.126 84.2827 28.126 84.0854V83.1489C28.126 82.9516 27.966 82.7917 27.7687 82.7917H22.3341C22.1368 82.7917 21.9768 82.9516 21.9768 83.1489V84.0854C21.9768 84.2827 22.1368 84.4426 22.3341 84.4426Z" fill="#F0F0F0"/>
<path d="M15.8849 84.4426H21.3195C21.5168 84.4426 21.6768 84.2827 21.6768 84.0854V83.1489C21.6768 82.9516 21.5168 82.7917 21.3195 82.7917H15.8849C15.6876 82.7917 15.5276 82.9516 15.5276 83.1489V84.0854C15.5276 84.2827 15.6876 84.4426 15.8849 84.4426Z" fill="#F5F5F5"/>
<path d="M18.756 82.3992H24.1906C24.3879 82.3992 24.5479 82.2392 24.5479 82.0419V81.1055C24.5479 80.9082 24.3879 80.7482 24.1906 80.7482H18.756C18.5587 80.7482 18.3987 80.9082 18.3987 81.1055V82.0419C18.3987 82.2392 18.5587 82.3992 18.756 82.3992Z" fill="#F5F5F5"/>
<path d="M12.3194 82.3992H17.7541C17.9514 82.3992 18.1113 82.2392 18.1113 82.0419V81.1055C18.1113 80.9082 17.9514 80.7482 17.7541 80.7482H12.3194C12.1221 80.7482 11.9622 80.9082 11.9622 81.1055V82.0419C11.9622 82.2392 12.1221 82.3992 12.3194 82.3992Z" fill="#F5F5F5"/>
<path d="M18.4444 6.48999L23.8791 6.48999C24.0764 6.48999 24.2363 6.33004 24.2363 6.13273V5.19629C24.2363 4.99898 24.0764 4.83903 23.8791 4.83903L18.4444 4.83903C18.2471 4.83903 18.0872 4.99898 18.0872 5.19629V6.13273C18.0872 6.33004 18.2471 6.48999 18.4444 6.48999Z" fill="#F5F5F5"/>
<path d="M21.3165 4.44653L26.7511 4.44653C26.9484 4.44653 27.1084 4.28658 27.1084 4.08928V3.15283C27.1084 2.95552 26.9484 2.79557 26.7511 2.79557L21.3165 2.79557C21.1192 2.79557 20.9592 2.95552 20.9592 3.15283V4.08928C20.9592 4.28658 21.1192 4.44653 21.3165 4.44653Z" fill="#F5F5F5"/>
<path d="M14.88 4.44653L20.3146 4.44653C20.5119 4.44653 20.6719 4.28658 20.6719 4.08928V3.15283C20.6719 2.95552 20.5119 2.79557 20.3146 2.79557L14.88 2.79557C14.6827 2.79557 14.5227 2.95552 14.5227 3.15283V4.08928C14.5227 4.28658 14.6827 4.44653 14.88 4.44653Z" fill="#F0F0F0"/>
<path d="M115.878 8.34131H121.313C121.51 8.34131 121.67 8.18136 121.67 7.98405V7.04761C121.67 6.8503 121.51 6.69035 121.313 6.69035L115.878 6.69035C115.681 6.69035 115.521 6.8503 115.521 7.04761V7.98405C115.521 8.18136 115.681 8.34131 115.878 8.34131Z" fill="#F0F0F0"/>
<path d="M112.298 6.29517L117.733 6.29517C117.93 6.29517 118.09 6.13522 118.09 5.93791V5.00146C118.09 4.80416 117.93 4.64421 117.733 4.64421L112.298 4.64421C112.101 4.64421 111.941 4.80416 111.941 5.00146V5.93791C111.941 6.13522 112.101 6.29517 112.298 6.29517Z" fill="#F5F5F5"/>
<path d="M96.5836 72.6504H80.3906V88.8433H96.5836V72.6504Z" fill="#F5F5F5"/>
<path d="M106.533 72.6504H96.5869V88.8433H106.533V72.6504Z" fill="#EBEBEB"/>
<path d="M100.564 72.6504V78.7806L100.822 78.5478L101.276 78.832L101.674 78.5478L102.186 78.832L102.724 78.5478L103.065 78.832L103.46 78.6236V72.6504H100.564Z" fill="#E0E0E0"/>
<path opacity="0.7" d="M100.564 72.6504V78.7806L100.822 78.5478L101.276 78.832L101.674 78.5478L102.186 78.832L102.724 78.5478L103.065 78.832L103.46 78.6236V72.6504H100.564Z" fill="#E0E0E0"/>
<path d="M111.711 79.2026H102.067V88.8459H111.711V79.2026Z" fill="#F5F5F5"/>
<path d="M117.629 79.2026H111.707V88.8459H117.629V79.2026Z" fill="#E6E6E6"/>
<path d="M109.868 81.9118H100.225L102.068 79.2026H111.708L109.868 81.9118Z" fill="#E6E6E6"/>
<path d="M113.453 81.9118H119.375L117.632 79.2026H111.707L113.453 81.9118Z" fill="#F5F5F5"/>
<path d="M80.1686 79.2026H70.5254V88.8459H80.1686V79.2026Z" fill="#F5F5F5"/>
<path d="M86.0888 79.2026H80.167V88.8459H86.0888V79.2026Z" fill="#E6E6E6"/>
<path d="M78.3258 76.7832H68.6826L70.5257 79.2028H80.1663L78.3258 76.7832Z" fill="#E6E6E6"/>
<path d="M81.9127 76.7832H87.8345L86.0915 79.2028H80.167L81.9127 76.7832Z" fill="#EBEBEB"/>
<path d="M66.357 99.7911C95.3388 99.7911 118.833 98.4194 118.833 96.7273C118.833 95.0353 95.3388 93.6636 66.357 93.6636C37.3752 93.6636 13.8809 95.0353 13.8809 96.7273C13.8809 98.4194 37.3752 99.7911 66.357 99.7911Z" fill="#F5F5F5"/>
<path d="M86.1743 47.1714H50.2835C49.8276 47.1714 49.458 47.541 49.458 47.9969V49.0632C49.458 49.5191 49.8276 49.8887 50.2835 49.8887H86.1743C86.6302 49.8887 86.9998 49.5191 86.9998 49.0632V47.9969C86.9998 47.541 86.6302 47.1714 86.1743 47.1714Z" fill="#407BFF"/>
<path opacity="0.8" d="M86.1743 47.1714H50.2835C49.8276 47.1714 49.458 47.541 49.458 47.9969V49.0632C49.458 49.5191 49.8276 49.8887 50.2835 49.8887H86.1743C86.6302 49.8887 86.9998 49.5191 86.9998 49.0632V47.9969C86.9998 47.541 86.6302 47.1714 86.1743 47.1714Z" fill="white"/>
<path d="M86.1713 51.3719H50.2832C49.6712 51.3712 49.0844 51.1277 48.6516 50.6949C48.2188 50.2621 47.9753 49.6753 47.9746 49.0632V47.9969C47.9753 47.3848 48.2188 46.798 48.6516 46.3652C49.0844 45.9324 49.6712 45.6889 50.2832 45.6882H86.1713C86.7837 45.6889 87.3707 45.9323 87.804 46.365C88.2372 46.7978 88.4813 47.3846 88.4827 47.9969V49.0632C88.4813 49.6755 88.2372 50.2623 87.804 50.6951C87.3707 51.1278 86.7837 51.3712 86.1713 51.3719ZM50.2832 46.1835C49.8023 46.1842 49.3412 46.3754 49.0008 46.7153C48.6605 47.0551 48.4686 47.5159 48.4672 47.9969V49.0632C48.4679 49.5444 48.6596 50.0056 49.0001 50.3456C49.3406 50.6856 49.8021 50.8766 50.2832 50.8766H86.1713C86.6525 50.8766 87.114 50.6856 87.4545 50.3456C87.795 50.0056 87.9867 49.5444 87.9874 49.0632V47.9969C87.986 47.5159 87.7941 47.0551 87.4537 46.7153C87.1134 46.3754 86.6523 46.1842 86.1713 46.1835H50.2832Z" fill="#263238"/>
<g opacity="0.3">
<path d="M86.1713 51.3719H50.2832C49.6712 51.3712 49.0844 51.1277 48.6516 50.6949C48.2188 50.2621 47.9753 49.6753 47.9746 49.0632V47.9969C47.9753 47.3848 48.2188 46.798 48.6516 46.3652C49.0844 45.9324 49.6712 45.6889 50.2832 45.6882H86.1713C86.7837 45.6889 87.3707 45.9323 87.804 46.365C88.2372 46.7978 88.4813 47.3846 88.4827 47.9969V49.0632C88.4813 49.6755 88.2372 50.2623 87.804 50.6951C87.3707 51.1278 86.7837 51.3712 86.1713 51.3719ZM50.2832 46.1835C49.8023 46.1842 49.3412 46.3754 49.0008 46.7153C48.6605 47.0551 48.4686 47.5159 48.4672 47.9969V49.0632C48.4679 49.5444 48.6596 50.0056 49.0001 50.3456C49.3406 50.6856 49.8021 50.8766 50.2832 50.8766H86.1713C86.6525 50.8766 87.114 50.6856 87.4545 50.3456C87.795 50.0056 87.9867 49.5444 87.9874 49.0632V47.9969C87.986 47.5159 87.7941 47.0551 87.4537 46.7153C87.1134 46.3754 86.6523 46.1842 86.1713 46.1835H50.2832Z" fill="white"/>
</g>
<path d="M77.9223 47.1714H50.2836C50.0673 47.1756 49.8612 47.2644 49.7094 47.4187C49.5577 47.5729 49.4723 47.7805 49.4717 47.9969V49.0632C49.4723 49.2796 49.5577 49.4872 49.7094 49.6414C49.8612 49.7957 50.0673 49.8845 50.2836 49.8887H75.205L77.9223 47.1714Z" fill="#407BFF"/>
<path d="M102.952 51.3719H92.1615C92.0648 51.3721 91.969 51.3525 91.8801 51.3144C91.7912 51.2762 91.7111 51.2202 91.6446 51.1499L89.6039 49.001C89.4777 48.8686 89.4072 48.6927 89.4072 48.5098C89.4072 48.3268 89.4777 48.1509 89.6039 48.0185L91.6392 45.9048C91.7058 45.8365 91.7853 45.7821 91.8731 45.745C91.961 45.7078 92.0553 45.6885 92.1507 45.6882H102.947C103.136 45.6882 103.317 45.7632 103.45 45.8967C103.584 46.0302 103.659 46.2113 103.659 46.4V50.6628C103.659 50.8504 103.584 51.0303 103.452 51.1632C103.32 51.2961 103.14 51.3712 102.952 51.3719Z" fill="#407BFF"/>
<path d="M95.3869 46.8467V47.3636L94.1284 50.2406H93.2759L94.4911 47.4936H93.3733V48.0348H92.6777V46.844L95.3869 46.8467Z" fill="white"/>
<path d="M98.2645 49.5936V50.2324H95.7042V49.7262L97.0114 48.4921C97.1184 48.3928 97.2097 48.2778 97.282 48.1511C97.3268 48.0677 97.3518 47.975 97.3551 47.8804C97.3584 47.8213 97.3476 47.7623 97.3236 47.7081C97.2996 47.654 97.2631 47.6064 97.2171 47.5692C97.0978 47.4885 96.9548 47.4504 96.8111 47.4609C96.673 47.4585 96.5361 47.4872 96.4106 47.5448C96.2902 47.6023 96.1867 47.6899 96.1101 47.7992L95.5391 47.4176C95.6741 47.2171 95.8613 47.0571 96.0804 46.9548C96.3307 46.8404 96.6036 46.784 96.8788 46.7897C97.1049 46.7849 97.3296 46.8264 97.5392 46.9115C97.716 46.9844 97.8688 47.1053 97.9803 47.2606C98.0899 47.4193 98.145 47.6093 98.1373 47.8019C98.1387 47.9809 98.0989 48.1578 98.0209 48.3189C97.903 48.5235 97.7511 48.7066 97.5716 48.8602L96.7922 49.5936H98.2645Z" fill="white"/>
<path d="M98.8141 48.4217C98.6631 48.2285 98.5811 47.9903 98.5811 47.7451C98.5811 47.4999 98.6631 47.2617 98.8141 47.0685C98.8932 46.988 98.9875 46.924 99.0916 46.8804C99.1957 46.8367 99.3075 46.8142 99.4203 46.8142C99.5332 46.8142 99.645 46.8367 99.749 46.8804C99.8531 46.924 99.9475 46.988 100.027 47.0685C100.175 47.263 100.255 47.5007 100.255 47.7451C100.255 47.9895 100.175 48.2272 100.027 48.4217C99.9475 48.5023 99.8531 48.5662 99.749 48.6099C99.645 48.6535 99.5332 48.676 99.4203 48.676C99.3075 48.676 99.1957 48.6535 99.0916 48.6099C98.9875 48.5662 98.8932 48.5023 98.8141 48.4217ZM99.6802 48.1511C99.7508 48.0299 99.7838 47.8905 99.7749 47.7505C99.7838 47.6097 99.7509 47.4694 99.6802 47.3473C99.6513 47.3054 99.6127 47.2712 99.5677 47.2475C99.5226 47.2239 99.4725 47.2115 99.4217 47.2115C99.3708 47.2115 99.3207 47.2239 99.2757 47.2475C99.2307 47.2712 99.1921 47.3054 99.1632 47.3473C99.0986 47.4728 99.0649 47.612 99.0649 47.7532C99.0649 47.8945 99.0986 48.0336 99.1632 48.1592C99.1921 48.2011 99.2307 48.2353 99.2757 48.259C99.3207 48.2826 99.3708 48.295 99.4217 48.295C99.4725 48.295 99.5226 48.2826 99.5677 48.259C99.6127 48.2353 99.6513 48.2011 99.6802 48.1592V48.1511ZM101.439 46.8547H102.013L99.7018 50.2405H99.1253L101.439 46.8547ZM101.285 50.1674C101.157 50.0886 101.054 49.9751 100.987 49.8399C100.914 49.6863 100.878 49.5176 100.882 49.3474C100.878 49.1763 100.915 49.0068 100.987 48.8521C101.054 48.7177 101.157 48.605 101.285 48.5273C101.416 48.4506 101.566 48.4113 101.718 48.4136C101.832 48.4097 101.945 48.4301 102.05 48.4735C102.155 48.5169 102.249 48.5823 102.327 48.6653C102.476 48.8595 102.557 49.0973 102.557 49.3419C102.557 49.5866 102.476 49.8244 102.327 50.0186C102.249 50.1012 102.155 50.1666 102.05 50.2104C101.945 50.2543 101.832 50.2756 101.718 50.273C101.566 50.2753 101.416 50.236 101.285 50.1593V50.1674ZM101.978 49.7452C102.043 49.6196 102.076 49.4805 102.076 49.3392C102.076 49.198 102.043 49.0589 101.978 48.9333C101.949 48.8881 101.909 48.8514 101.862 48.8271C101.814 48.8028 101.761 48.7918 101.707 48.7952C101.657 48.7947 101.607 48.8068 101.562 48.8304C101.517 48.854 101.478 48.8885 101.45 48.9306C101.379 49.0527 101.347 49.193 101.355 49.3338C101.347 49.4738 101.38 49.6132 101.45 49.7344C101.478 49.7765 101.517 49.8109 101.562 49.8345C101.607 49.8582 101.657 49.8702 101.707 49.8697C101.76 49.8737 101.813 49.8635 101.861 49.8402C101.908 49.8169 101.949 49.7813 101.978 49.7371V49.7452Z" fill="white"/>
<path d="M114.937 22.3017L112.569 22.3396C112.269 21.6992 111.914 21.0861 111.508 20.5073L112.725 18.4747C112.1 17.7003 111.394 16.9945 110.62 16.3691L108.587 17.587C108.008 17.1798 107.394 16.8248 106.752 16.526L106.793 14.1551C105.868 13.7986 104.908 13.5401 103.929 13.3838L102.776 15.4597C102.427 15.4299 102.075 15.411 101.718 15.411C101.361 15.411 101.009 15.4299 100.66 15.4597L99.507 13.3838C98.5209 13.5389 97.5538 13.7975 96.6219 14.1551L96.6625 16.526C96.0215 16.8248 95.4083 17.1798 94.8302 17.587L92.7976 16.3691C92.023 16.9952 91.3164 17.701 90.6892 18.4747L91.9099 20.5073C91.5017 21.0848 91.1466 21.6981 90.8489 22.3396L88.478 22.3017C88.1156 23.2277 87.8516 24.1893 87.6904 25.1706L89.7663 26.3208C89.7338 26.67 89.7149 27.0245 89.7149 27.3791C89.7149 27.7336 89.7338 28.0909 89.7663 28.4373L87.6904 29.5984C87.8491 30.5831 88.1113 31.5484 88.4726 32.4781L90.8435 32.4402C91.1412 33.0817 91.4963 33.695 91.9044 34.2725L90.6838 36.3051C91.311 37.0788 92.0176 37.7846 92.7922 38.4107L94.8247 37.1928C95.4029 37.6 96.0161 37.955 96.657 38.2538L96.6164 40.6219C97.5453 40.9812 98.5097 41.2407 99.4934 41.396L100.646 39.3201C100.996 39.3499 101.347 39.3688 101.705 39.3688C102.062 39.3688 102.414 39.3499 102.763 39.3201L103.916 41.396C104.9 41.241 105.864 40.9815 106.793 40.6219L106.752 38.2538C107.394 37.955 108.008 37.6 108.587 37.1928L110.62 38.4107C111.394 37.7853 112.1 37.0795 112.725 36.3051L111.508 34.2725C111.914 33.6937 112.269 33.0806 112.569 32.4402L114.937 32.4781C115.297 31.5497 115.555 30.5851 115.708 29.6011L113.635 28.4481C113.665 28.1017 113.684 27.7471 113.684 27.3899C113.684 27.0326 113.665 26.6808 113.635 26.3316L115.708 25.1814C115.555 24.1965 115.297 23.231 114.937 22.3017Z" fill="#407BFF"/>
<path opacity="0.4" d="M114.937 22.3017L112.569 22.3396C112.269 21.6992 111.914 21.0861 111.508 20.5073L112.725 18.4747C112.1 17.7003 111.394 16.9945 110.62 16.3691L108.587 17.587C108.008 17.1798 107.394 16.8248 106.752 16.526L106.793 14.1551C105.868 13.7986 104.908 13.5401 103.929 13.3838L102.776 15.4597C102.427 15.4299 102.075 15.411 101.718 15.411C101.361 15.411 101.009 15.4299 100.66 15.4597L99.507 13.3838C98.5209 13.5389 97.5538 13.7975 96.6219 14.1551L96.6625 16.526C96.0215 16.8248 95.4083 17.1798 94.8302 17.587L92.7976 16.3691C92.023 16.9952 91.3164 17.701 90.6892 18.4747L91.9099 20.5073C91.5017 21.0848 91.1466 21.6981 90.8489 22.3396L88.478 22.3017C88.1156 23.2277 87.8516 24.1893 87.6904 25.1706L89.7663 26.3208C89.7338 26.67 89.7149 27.0245 89.7149 27.3791C89.7149 27.7336 89.7338 28.0909 89.7663 28.4373L87.6904 29.5984C87.8491 30.5831 88.1113 31.5484 88.4726 32.4781L90.8435 32.4402C91.1412 33.0817 91.4963 33.695 91.9044 34.2725L90.6838 36.3051C91.311 37.0788 92.0176 37.7846 92.7922 38.4107L94.8247 37.1928C95.4029 37.6 96.0161 37.955 96.657 38.2538L96.6164 40.6219C97.5453 40.9812 98.5097 41.2407 99.4934 41.396L100.646 39.3201C100.996 39.3499 101.347 39.3688 101.705 39.3688C102.062 39.3688 102.414 39.3499 102.763 39.3201L103.916 41.396C104.9 41.241 105.864 40.9815 106.793 40.6219L106.752 38.2538C107.394 37.955 108.008 37.6 108.587 37.1928L110.62 38.4107C111.394 37.7853 112.1 37.0795 112.725 36.3051L111.508 34.2725C111.914 33.6937 112.269 33.0806 112.569 32.4402L114.937 32.4781C115.297 31.5497 115.555 30.5851 115.708 29.6011L113.635 28.4481C113.665 28.1017 113.684 27.7471 113.684 27.3899C113.684 27.0326 113.665 26.6808 113.635 26.3316L115.708 25.1814C115.555 24.1965 115.297 23.231 114.937 22.3017Z" fill="white"/>
<path opacity="0.2" d="M101.705 34.4943C105.63 34.4943 108.812 31.3123 108.812 27.387C108.812 23.4618 105.63 20.2798 101.705 20.2798C97.7797 20.2798 94.5977 23.4618 94.5977 27.387C94.5977 31.3123 97.7797 34.4943 101.705 34.4943Z" fill="black"/>
<path d="M105.486 28.8649C105.649 28.6829 105.739 28.4473 105.739 28.2032C105.739 27.9591 105.649 27.7235 105.486 27.5414L105.467 27.5198V27.5063C104.725 26.7647 103.983 26.0222 103.24 25.2788C102.346 24.3857 100.958 25.7714 101.854 26.6672L102.395 27.2085H98.6061C97.3449 27.2085 97.3422 29.1708 98.6061 29.1708H102.395L101.854 29.712C100.958 30.6079 102.346 31.9936 103.24 31.1005L105.467 28.873V28.8568L105.486 28.8649Z" fill="#407BFF"/>
<path opacity="0.4" d="M105.486 28.8649C105.649 28.6829 105.739 28.4473 105.739 28.2032C105.739 27.9591 105.649 27.7235 105.486 27.5414L105.467 27.5198V27.5063C104.725 26.7647 103.983 26.0222 103.24 25.2788C102.346 24.3857 100.958 25.7714 101.854 26.6672L102.395 27.2085H98.6061C97.3449 27.2085 97.3422 29.1708 98.6061 29.1708H102.395L101.854 29.712C100.958 30.6079 102.346 31.9936 103.24 31.1005L105.467 28.873V28.8568L105.486 28.8649Z" fill="black"/>
<path d="M105.486 28.0529C105.649 27.8709 105.739 27.6353 105.739 27.3912C105.739 27.1471 105.649 26.9115 105.486 26.7294L105.467 26.7078V26.6942C104.725 25.9527 103.983 25.2102 103.24 24.4668C102.346 23.5737 100.958 24.9594 101.854 25.8552L102.395 26.3965H98.6061C97.3449 26.3965 97.3422 28.3587 98.6061 28.3587H102.395L101.854 28.9C100.958 29.7959 102.346 31.1816 103.24 30.2885L105.467 28.061V28.0448L105.486 28.0529Z" fill="#407BFF"/>
<path d="M105.326 12.3877C105.93 12.5352 106.525 12.7159 107.109 12.929C107.255 12.9831 107.32 12.7477 107.174 12.6962C106.59 12.4832 105.994 12.3025 105.39 12.1549C105.239 12.1198 105.174 12.3552 105.326 12.3904V12.3877Z" fill="#407BFF"/>
<path d="M90.6681 16.5746C93.6072 13.66 97.5687 12.0089 101.708 11.9736C101.74 11.9736 101.771 11.9607 101.794 11.9379C101.817 11.9151 101.83 11.8841 101.83 11.8518C101.83 11.8195 101.817 11.7885 101.794 11.7657C101.771 11.7428 101.74 11.73 101.708 11.73C97.5029 11.7703 93.4798 13.4502 90.4949 16.4122C90.4835 16.4236 90.4745 16.4371 90.4683 16.452C90.4622 16.4668 90.459 16.4827 90.459 16.4988C90.459 16.5149 90.4622 16.5308 90.4683 16.5457C90.4745 16.5606 90.4835 16.5741 90.4949 16.5854C90.5062 16.5968 90.5197 16.6058 90.5346 16.612C90.5495 16.6181 90.5654 16.6213 90.5815 16.6213C90.5975 16.6213 90.6135 16.6181 90.6283 16.612C90.6432 16.6058 90.6567 16.5968 90.6681 16.5854V16.5746Z" fill="#407BFF"/>
<path d="M85.3171 30.2072C85.4657 29.6426 85.5689 29.067 85.6257 28.4859L88.2916 27.8011C88.2916 27.4628 88.2916 27.1272 88.2916 26.7916L85.6122 26.1421C85.4814 24.9821 85.17 23.8497 84.6892 22.786L86.6542 20.859C86.4945 20.5613 86.324 20.2717 86.1426 19.9875L83.5011 20.7616C82.8068 19.8262 81.9714 19.0044 81.0246 18.3257L81.7635 15.6706C81.4929 15.4947 81.1843 15.3323 80.8866 15.1754L78.9921 17.1673C78.4576 16.9339 77.9056 16.7429 77.3411 16.5963C76.7773 16.4479 76.2026 16.3447 75.6225 16.2877L74.935 13.6218C74.5967 13.6218 74.2611 13.6218 73.9282 13.6218L73.276 16.3013C72.1157 16.4324 70.9833 16.7447 69.9199 17.2269L67.9929 15.2593C67.6952 15.4189 67.4056 15.5894 67.1214 15.7708L67.8955 18.4123C66.9601 19.1066 66.1383 19.942 65.4596 20.8888L62.791 20.1418C62.6151 20.4259 62.4527 20.721 62.2957 21.0187L64.2877 22.9132C64.0543 23.4468 63.8633 23.9979 63.7166 24.5615C63.5696 25.1255 63.4664 25.7001 63.4081 26.2801L60.7422 26.9675C60.7422 27.3059 60.7422 27.6415 60.7422 27.9771L63.4216 28.6266C63.5527 29.7868 63.8651 30.9193 64.3472 31.9827L62.3823 33.9097C62.542 34.2074 62.7098 34.497 62.8911 34.7812L65.5327 34.0071C66.227 34.9425 67.0624 35.7642 68.0091 36.443L67.2703 39.098C67.5544 39.274 67.8494 39.4363 68.1499 39.5933L70.0444 37.6013C70.5779 37.8348 71.1291 38.0257 71.6927 38.1724C72.2573 38.321 72.8329 38.4242 73.414 38.481L74.0987 41.1469C74.437 41.1469 74.7727 41.1469 75.1083 41.1469L75.7578 38.4674C76.9182 38.337 78.0507 38.0247 79.1139 37.5418L81.0409 39.5094C81.3386 39.3497 81.6282 39.1792 81.9124 38.9979L81.1383 36.3564C82.0743 35.6628 82.8962 34.8273 83.5742 33.8799L86.2292 34.6188C86.4052 34.3346 86.5675 34.0396 86.7245 33.7392L84.7325 31.8446C84.9701 31.315 85.1655 30.7675 85.3171 30.2072Z" fill="#407BFF"/>
<path opacity="0.2" d="M85.3171 30.2072C85.4657 29.6426 85.5689 29.067 85.6257 28.4859L88.2916 27.8011C88.2916 27.4628 88.2916 27.1272 88.2916 26.7916L85.6122 26.1421C85.4814 24.9821 85.17 23.8497 84.6892 22.786L86.6542 20.859C86.4945 20.5613 86.324 20.2717 86.1426 19.9875L83.5011 20.7616C82.8068 19.8262 81.9714 19.0044 81.0246 18.3257L81.7635 15.6706C81.4929 15.4947 81.1843 15.3323 80.8866 15.1754L78.9921 17.1673C78.4576 16.9339 77.9056 16.7429 77.3411 16.5963C76.7773 16.4479 76.2026 16.3447 75.6225 16.2877L74.935 13.6218C74.5967 13.6218 74.2611 13.6218 73.9282 13.6218L73.276 16.3013C72.1157 16.4324 70.9833 16.7447 69.9199 17.2269L67.9929 15.2593C67.6952 15.4189 67.4056 15.5894 67.1214 15.7708L67.8955 18.4123C66.9601 19.1066 66.1383 19.942 65.4596 20.8888L62.791 20.1418C62.6151 20.4259 62.4527 20.721 62.2957 21.0187L64.2877 22.9132C64.0543 23.4468 63.8633 23.9979 63.7166 24.5615C63.5696 25.1255 63.4664 25.7001 63.4081 26.2801L60.7422 26.9675C60.7422 27.3059 60.7422 27.6415 60.7422 27.9771L63.4216 28.6266C63.5527 29.7868 63.8651 30.9193 64.3472 31.9827L62.3823 33.9097C62.542 34.2074 62.7098 34.497 62.8911 34.7812L65.5327 34.0071C66.227 34.9425 67.0624 35.7642 68.0091 36.443L67.2703 39.098C67.5544 39.274 67.8494 39.4363 68.1499 39.5933L70.0444 37.6013C70.5779 37.8348 71.1291 38.0257 71.6927 38.1724C72.2573 38.321 72.8329 38.4242 73.414 38.481L74.0987 41.1469C74.437 41.1469 74.7727 41.1469 75.1083 41.1469L75.7578 38.4674C76.9182 38.337 78.0507 38.0247 79.1139 37.5418L81.0409 39.5094C81.3386 39.3497 81.6282 39.1792 81.9124 38.9979L81.1383 36.3564C82.0743 35.6628 82.8962 34.8273 83.5742 33.8799L86.2292 34.6188C86.4052 34.3346 86.5675 34.0396 86.7245 33.7392L84.7325 31.8446C84.9701 31.315 85.1655 30.7675 85.3171 30.2072Z" fill="white"/>
<path opacity="0.3" d="M74.516 34.4645C78.4247 34.4645 81.5934 31.2958 81.5934 27.3871C81.5934 23.4783 78.4247 20.3096 74.516 20.3096C70.6072 20.3096 67.4385 23.4783 67.4385 27.3871C67.4385 31.2958 70.6072 34.4645 74.516 34.4645Z" fill="black"/>
<path d="M77.917 28.7566C78.0635 28.5929 78.1445 28.3809 78.1445 28.1612C78.1445 27.9415 78.0635 27.7295 77.917 27.5658L77.9008 27.5468L75.8953 25.5413C75.0833 24.7294 73.8438 25.9852 74.6476 26.789C74.8127 26.9568 74.9805 27.1219 75.1456 27.287H71.7354C70.5987 27.287 70.596 29.0544 71.7354 29.0544H75.1402C74.9751 29.2195 74.8073 29.3846 74.6422 29.5524C73.8302 30.3643 75.086 31.6039 75.8899 30.8L77.8954 28.7945L77.917 28.7566Z" fill="#407BFF"/>
<path opacity="0.4" d="M77.917 28.7566C78.0635 28.5929 78.1445 28.3809 78.1445 28.1612C78.1445 27.9415 78.0635 27.7295 77.917 27.5658L77.9008 27.5468L75.8953 25.5413C75.0833 24.7294 73.8438 25.9852 74.6476 26.789C74.8127 26.9568 74.9805 27.1219 75.1456 27.287H71.7354C70.5987 27.287 70.596 29.0544 71.7354 29.0544H75.1402C74.9751 29.2195 74.8073 29.3846 74.6422 29.5524C73.8302 30.3643 75.086 31.6039 75.8899 30.8L77.8954 28.7945L77.917 28.7566Z" fill="black"/>
<path d="M77.917 28.0257C78.0635 27.8619 78.1445 27.65 78.1445 27.4303C78.1445 27.2106 78.0635 26.9986 77.917 26.8348L77.9008 26.8159L75.8953 24.8104C75.0833 23.9984 73.8438 25.2542 74.6476 26.0581C74.8127 26.2259 74.9805 26.391 75.1456 26.5561H71.7354C70.5987 26.5561 70.596 28.3234 71.7354 28.3234H75.1402C74.9751 28.4885 74.8073 28.6536 74.6422 28.8214C73.8302 29.6333 75.086 30.8729 75.8899 30.0691L77.8954 28.0636C77.8965 28.0591 77.8965 28.0545 77.8954 28.05L77.917 28.0257Z" fill="#407BFF"/>
<path d="M74.5156 42.1105C70.9468 42.0779 67.5065 40.7737 64.8129 38.4324C64.6938 38.3295 64.5206 38.5027 64.6396 38.6056C67.3806 40.991 70.8822 42.321 74.5156 42.3568C74.5479 42.3568 74.5789 42.344 74.6017 42.3211C74.6246 42.2983 74.6374 42.2673 74.6374 42.235C74.6374 42.2027 74.6246 42.1717 74.6017 42.1489C74.5789 42.126 74.5479 42.1132 74.5156 42.1132V42.1105Z" fill="#407BFF"/>
<path d="M78.7314 41.4934C77.836 41.7573 76.9182 41.9385 75.9897 42.0347C75.8355 42.0509 75.8355 42.3054 75.9897 42.2783C76.9397 42.1833 77.8792 42.0021 78.7964 41.737C78.8276 41.7284 78.8541 41.7077 78.8701 41.6795C78.8861 41.6514 78.8902 41.618 78.8816 41.5868C78.873 41.5556 78.8523 41.529 78.8242 41.513C78.796 41.4971 78.7626 41.4929 78.7314 41.5015V41.4934Z" fill="#407BFF"/>
<path d="M60.0623 22.9809L58.0081 23.0161C57.7486 22.4611 57.4416 21.9296 57.0906 21.4274L58.1461 19.6682C57.6026 18.998 56.9913 18.3858 56.3219 17.8413L54.56 18.8996C54.0593 18.5455 53.5275 18.2375 52.9713 17.9793L53.0065 15.9278C52.2016 15.6173 51.366 15.3932 50.5138 15.2593L49.5286 17.051C49.2255 17.024 48.9197 17.0077 48.6111 17.0077C48.3026 17.0077 47.9968 17.024 47.6936 17.051L46.6949 15.2539C45.8436 15.3878 45.0089 15.6119 44.205 15.9224L44.2374 17.9739C43.6824 18.2327 43.1516 18.5407 42.6514 18.8941L40.8679 17.8413C40.1972 18.3843 39.5857 18.9967 39.0437 19.6682L40.0992 21.4274C39.7463 21.9289 39.4384 22.4605 39.179 23.0161L37.1275 22.9809C36.8173 23.7859 36.5932 24.6215 36.459 25.4736L38.2561 26.4723C38.229 26.7727 38.2128 27.0786 38.2128 27.3871C38.2128 27.6957 38.229 28.0015 38.2561 28.3046L36.459 29.3033C36.5932 30.1555 36.8173 30.991 37.1275 31.796L39.179 31.7608C39.4384 32.3164 39.7463 32.8481 40.0992 33.3495L39.0437 35.1087C39.585 35.78 40.1966 36.3915 40.8679 36.9329L42.6298 35.8774C43.1299 36.2308 43.6607 36.5388 44.2158 36.7976L44.1833 38.8491C44.9872 39.1596 45.8219 39.3837 46.6733 39.5176L47.672 37.7205C47.9751 37.7476 48.2809 37.7638 48.5895 37.7638C48.898 37.7638 49.2039 37.7476 49.507 37.7205L50.503 39.5176C51.3552 39.3837 52.1908 39.1596 52.9957 38.8491L52.9605 36.7976C53.5167 36.5394 54.0485 36.2314 54.5492 35.8774L56.3111 36.9329C56.9811 36.3901 57.5925 35.7787 58.1353 35.1087L57.0797 33.3495C57.4308 32.8474 57.7378 32.3158 57.9972 31.7608L60.0515 31.796C60.3604 30.9906 60.5845 30.1552 60.72 29.3033L58.9229 28.3046C58.9472 28.0015 58.9635 27.6984 58.9635 27.3871C58.9635 27.0759 58.9472 26.7727 58.9229 26.4723L60.72 25.4736C60.588 24.6221 60.3676 23.7867 60.0623 22.9809Z" fill="#407BFF"/>
<path opacity="0.3" d="M60.0623 22.9809L58.0081 23.0161C57.7486 22.4611 57.4416 21.9296 57.0906 21.4274L58.1461 19.6682C57.6026 18.998 56.9913 18.3858 56.3219 17.8413L54.56 18.8996C54.0593 18.5455 53.5275 18.2375 52.9713 17.9793L53.0065 15.9278C52.2016 15.6173 51.366 15.3932 50.5138 15.2593L49.5286 17.051C49.2255 17.024 48.9197 17.0077 48.6111 17.0077C48.3026 17.0077 47.9968 17.024 47.6936 17.051L46.6949 15.2539C45.8436 15.3878 45.0089 15.6119 44.205 15.9224L44.2374 17.9739C43.6824 18.2327 43.1516 18.5407 42.6514 18.8941L40.8679 17.8413C40.1972 18.3843 39.5857 18.9967 39.0437 19.6682L40.0992 21.4274C39.7463 21.9289 39.4384 22.4605 39.179 23.0161L37.1275 22.9809C36.8173 23.7859 36.5932 24.6215 36.459 25.4736L38.2561 26.4723C38.229 26.7727 38.2128 27.0786 38.2128 27.3871C38.2128 27.6957 38.229 28.0015 38.2561 28.3046L36.459 29.3033C36.5932 30.1555 36.8173 30.991 37.1275 31.796L39.179 31.7608C39.4384 32.3164 39.7463 32.8481 40.0992 33.3495L39.0437 35.1087C39.585 35.78 40.1966 36.3915 40.8679 36.9329L42.6298 35.8774C43.1299 36.2308 43.6607 36.5388 44.2158 36.7976L44.1833 38.8491C44.9872 39.1596 45.8219 39.3837 46.6733 39.5176L47.672 37.7205C47.9751 37.7476 48.2809 37.7638 48.5895 37.7638C48.898 37.7638 49.2039 37.7476 49.507 37.7205L50.503 39.5176C51.3552 39.3837 52.1908 39.1596 52.9957 38.8491L52.9605 36.7976C53.5167 36.5394 54.0485 36.2314 54.5492 35.8774L56.3111 36.9329C56.9811 36.3901 57.5925 35.7787 58.1353 35.1087L57.0797 33.3495C57.4308 32.8474 57.7378 32.3158 57.9972 31.7608L60.0515 31.796C60.3604 30.9906 60.5845 30.1552 60.72 29.3033L58.9229 28.3046C58.9472 28.0015 58.9635 27.6984 58.9635 27.3871C58.9635 27.0759 58.9472 26.7727 58.9229 26.4723L60.72 25.4736C60.588 24.6221 60.3676 23.7867 60.0623 22.9809Z" fill="white"/>
<path opacity="0.4" d="M48.6005 35.8311C53.2641 35.8311 57.0448 32.0505 57.0448 27.3869C57.0448 22.7233 53.2641 18.9426 48.6005 18.9426C43.9369 18.9426 40.1562 22.7233 40.1562 27.3869C40.1562 32.0505 43.9369 35.8311 48.6005 35.8311Z" fill="black"/>
<path d="M51.4555 28.6511C51.5858 28.5057 51.6578 28.3173 51.6578 28.122C51.6578 27.9267 51.5858 27.7383 51.4555 27.5929V27.5739L49.6719 25.7931C48.9574 25.0785 47.8477 26.1882 48.5623 26.9027L48.9872 27.3358H45.9613C44.9491 27.3358 44.9491 28.9055 45.9613 28.9055H48.9872L48.5433 29.3494C47.8288 30.0639 48.9385 31.1736 49.653 30.459L51.4366 28.6755L51.4555 28.6511Z" fill="#407BFF"/>
<path opacity="0.4" d="M51.4555 28.6511C51.5858 28.5057 51.6578 28.3173 51.6578 28.122C51.6578 27.9267 51.5858 27.7383 51.4555 27.5929V27.5739L49.6719 25.7931C48.9574 25.0785 47.8477 26.1882 48.5623 26.9027L48.9872 27.3358H45.9613C44.9491 27.3358 44.9491 28.9055 45.9613 28.9055H48.9872L48.5433 29.3494C47.8288 30.0639 48.9385 31.1736 49.653 30.459L51.4366 28.6755L51.4555 28.6511Z" fill="black"/>
<path d="M51.4555 28.0015C51.5858 27.856 51.6578 27.6676 51.6578 27.4723C51.6578 27.2771 51.5858 27.0887 51.4555 26.9432V26.9243L49.6719 25.1434C48.9574 24.4289 47.8477 25.5385 48.5623 26.2531L49.0061 26.6942H45.9613C44.9491 26.6942 44.9491 28.264 45.9613 28.264H48.9872L48.5433 28.6889C47.8288 29.4034 48.9385 30.5131 49.653 29.7986L51.4366 28.015L51.4555 28.0015Z" fill="#407BFF"/>
<path d="M37.9266 19.8196C39.159 18.1413 40.7651 16.7728 42.6178 15.8224C44.4705 14.8721 46.519 14.3661 48.6011 14.3444C48.6334 14.3444 48.6643 14.3316 48.6872 14.3087C48.71 14.2859 48.7228 14.2549 48.7228 14.2226C48.7228 14.1903 48.71 14.1593 48.6872 14.1365C48.6643 14.1137 48.6334 14.1008 48.6011 14.1008C46.4771 14.1233 44.3876 14.6407 42.4985 15.6118C40.6094 16.5829 38.9726 17.981 37.7182 19.6951C37.6235 19.8196 37.8346 19.9414 37.9266 19.8169V19.8196Z" fill="#407BFF"/>
<path d="M50.3218 14.458C50.8875 14.5357 51.4478 14.6478 51.9998 14.7936C52.1514 14.8315 52.2164 14.5961 52.0648 14.5582C51.513 14.4119 50.9526 14.3007 50.3868 14.2253C50.2352 14.2036 50.1675 14.4391 50.3218 14.458Z" fill="#407BFF"/>
<path d="M40.7657 40.3267C40.7657 40.3267 43.391 45.8046 44.5385 47.3852C45.5318 48.7574 49.1802 52.1324 49.1802 52.1324L50.187 52.0241C50.3424 52.0068 50.4993 52.0372 50.6371 52.1111C50.7748 52.1851 50.8869 52.2992 50.9583 52.4382L51.072 52.6574C51.1177 52.7462 51.1802 52.8253 51.256 52.8902L51.4347 53.0445C51.5647 53.1551 51.6543 53.3057 51.6896 53.4727C51.7249 53.6397 51.7037 53.8137 51.6295 53.9674L51.4915 54.238C51.4402 54.3455 51.3645 54.4397 51.2706 54.5129C51.1767 54.5862 51.067 54.6366 50.9502 54.6602L49.8676 54.8822C49.7298 54.9093 49.5873 54.8984 49.4552 54.8508C49.3232 54.8031 49.2066 54.7204 49.1179 54.6115L48.1977 53.4992C48.1977 53.4992 43.3422 49.9401 42.0973 48.3893C41.0932 47.1389 39.1201 42.7057 39.1201 42.7057L40.7657 40.3267Z" fill="#CE7A63"/>
<path d="M54.921 67.3753C54.921 65.3245 54.1063 63.3577 52.6562 61.9076C51.2061 60.4575 49.2393 59.6428 47.1885 59.6428C45.1377 59.6428 43.171 60.4575 41.7208 61.9076C40.2707 63.3577 39.4561 65.3245 39.4561 67.3753H54.921Z" fill="#407BFF"/>
<path opacity="0.5" d="M54.921 67.3753C54.921 65.3245 54.1063 63.3577 52.6562 61.9076C51.2061 60.4575 49.2393 59.6428 47.1885 59.6428C45.1377 59.6428 43.171 60.4575 41.7208 61.9076C40.2707 63.3577 39.4561 65.3245 39.4561 67.3753H54.921Z" fill="white"/>
<g opacity="0.3">
<path d="M53.0209 64.8773C52.8807 64.9376 52.7229 64.9432 52.5787 64.8932C52.4345 64.8431 52.3142 64.7409 52.2415 64.6066C51.7449 63.7005 51.0138 62.9447 50.1249 62.4181C49.2359 61.8916 48.2217 61.6138 47.1884 61.6138C46.1552 61.6138 45.141 61.8916 44.252 62.4181C43.363 62.9447 42.632 63.7005 42.1354 64.6066C42.0623 64.7404 41.942 64.8422 41.7979 64.8923C41.6538 64.9423 41.4963 64.9369 41.356 64.8773C41.2785 64.8446 41.2087 64.7962 41.151 64.7351C41.0933 64.674 41.0489 64.6016 41.0206 64.5225C40.9924 64.4433 40.9809 64.3592 40.9869 64.2753C40.9929 64.1915 41.0163 64.1099 41.0555 64.0355C41.6552 62.9322 42.5414 62.011 43.6207 61.3691C44.7001 60.7272 45.9326 60.3884 47.1884 60.3884C48.4442 60.3884 49.6768 60.7272 50.7562 61.3691C51.8355 62.011 52.7217 62.9322 53.3214 64.0355C53.3602 64.1099 53.3832 64.1916 53.389 64.2753C53.3948 64.359 53.3833 64.443 53.355 64.522C53.3268 64.6011 53.2826 64.6734 53.2251 64.7346C53.1676 64.7957 53.0981 64.8443 53.0209 64.8773Z" fill="black"/>
</g>
<path d="M53.6022 44.4865L48.4463 61.7485C48.7102 61.8071 48.9698 61.8839 49.2231 61.9786C50.6557 57.1881 52.0865 52.3976 53.5155 47.6071L54.3843 44.703C54.5359 44.1996 53.751 43.9858 53.6022 44.4865Z" fill="#263238"/>
<g opacity="0.5">
<path d="M53.6022 44.4865L48.4463 61.7485C48.7102 61.8071 48.9698 61.8839 49.2231 61.9786C50.6557 57.1881 52.0865 52.3976 53.5155 47.6071L54.3843 44.703C54.5359 44.1996 53.751 43.9858 53.6022 44.4865Z" fill="white"/>
</g>
<path d="M50.828 57.3205C52.0784 53.1309 53.3297 48.943 54.5819 44.757C54.8066 44.0046 53.6292 43.6744 53.4073 44.4322C52.1533 48.6201 50.902 52.8079 49.6534 56.9958C49.4288 57.7482 50.6034 58.0784 50.828 57.3205Z" fill="#263238"/>
<path d="M38.7738 67.3752H55.6271C56.192 67.3752 56.7338 67.5997 57.1333 67.9991C57.5327 68.3986 57.7571 68.9403 57.7571 69.5053V95.6256H36.6465V69.5053C36.6465 68.9408 36.8705 68.3994 37.2694 68.0001C37.6683 67.6007 38.2093 67.376 38.7738 67.3752Z" fill="#407BFF"/>
<path opacity="0.7" d="M38.7738 67.3752H55.6271C56.192 67.3752 56.7338 67.5997 57.1333 67.9991C57.5327 68.3986 57.7571 68.9403 57.7571 69.5053V95.6256H36.6465V69.5053C36.6465 68.9408 36.8705 68.3994 37.2694 68.0001C37.6683 67.6007 38.2093 67.376 38.7738 67.3752Z" fill="white"/>
<path d="M47.7402 89.6307L49.0935 94.7731L51.3751 94.1397L50.4007 88.6375L47.7402 89.6307Z" fill="#CE7A63"/>
<path d="M51.8216 93.5876C51.8094 93.5876 51.7974 93.5844 51.787 93.5782C51.7765 93.572 51.7679 93.5631 51.762 93.5524C51.757 93.5411 51.7556 93.5285 51.758 93.5164C51.7604 93.5043 51.7666 93.4932 51.7756 93.4848C51.8053 93.4523 52.5171 92.7432 52.9502 92.7432C53.0304 92.7424 53.1079 92.7725 53.1667 92.8271C53.2031 92.8559 53.2297 92.8954 53.2428 92.94C53.2559 92.9845 53.2548 93.0321 53.2398 93.0761C53.1748 93.233 52.8798 93.3711 52.5794 93.4523C52.3311 93.519 52.0776 93.5643 51.8216 93.5876ZM51.9867 93.4604C52.4522 93.3927 53.0693 93.2222 53.1288 93.0355C53.1288 93.0111 53.145 92.9732 53.0828 92.9137C53.0659 92.8958 53.0453 92.8819 53.0223 92.873C52.9994 92.8641 52.9747 92.8604 52.9502 92.8623C52.9117 92.8619 52.8734 92.8674 52.8365 92.8785C52.5189 93.0168 52.2305 93.2143 51.9867 93.4604Z" fill="#407BFF"/>
<path d="M51.7917 93.5904C51.7813 93.5882 51.7718 93.5829 51.7645 93.5752C51.7573 93.5674 51.7526 93.5576 51.7511 93.5471C51.7511 93.5146 51.632 92.8461 51.8729 92.5105C51.9064 92.4617 51.9493 92.4201 51.999 92.3881C52.0487 92.356 52.1043 92.3341 52.1625 92.3237C52.3249 92.2967 52.3953 92.3643 52.4331 92.4293C52.5604 92.6864 52.1219 93.3685 51.8675 93.5741C51.8597 93.5773 51.8509 93.5773 51.8431 93.5741C51.8374 93.5819 51.8293 93.5877 51.8201 93.5906C51.8108 93.5935 51.8009 93.5934 51.7917 93.5904ZM52.1544 92.4428C52.0815 92.4624 52.0181 92.5075 51.9758 92.57C51.853 92.8276 51.8115 93.1165 51.8567 93.3982C52.1084 93.1276 52.379 92.6269 52.3195 92.4672C52.3195 92.4672 52.2924 92.4131 52.1869 92.432H52.1544V92.4428Z" fill="#407BFF"/>
<path d="M51.4833 93.3144L48.8472 94.0343C48.7989 94.0473 48.7564 94.0763 48.7269 94.1167C48.6973 94.1571 48.6825 94.2063 48.6848 94.2563L48.7931 96.5324C48.7948 96.5803 48.806 96.6274 48.826 96.6709C48.8461 96.7144 48.8745 96.7535 48.9097 96.786C48.945 96.8185 48.9863 96.8436 49.0313 96.86C49.0763 96.8764 49.1241 96.8838 49.172 96.8816C49.1971 96.8857 49.2227 96.8857 49.2478 96.8816C50.195 96.6109 51.0259 96.324 52.2114 96.002C53.6079 95.6231 53.294 95.8856 54.9476 95.4607C55.9382 95.2036 55.8137 94.0289 55.3807 94.0885C53.3941 94.3591 53.0368 93.8449 52.1085 93.3604C51.913 93.2683 51.6902 93.2519 51.4833 93.3144Z" fill="#263238"/>
<path d="M22.4553 88.375L20.2793 93.2277L22.4526 94.1696L25.1483 89.2736L22.4553 88.375Z" fill="#CE7A63"/>
<path d="M23.1495 94.018C23.1391 94.0111 23.1312 94.0011 23.1268 93.9894C23.1225 93.9778 23.1219 93.9651 23.1251 93.953C23.1275 93.9411 23.1339 93.9303 23.1433 93.9224C23.1526 93.9146 23.1643 93.9101 23.1765 93.9097C23.2198 93.9097 24.2212 93.7988 24.5568 94.0721C24.6199 94.1214 24.6616 94.1932 24.6732 94.2724C24.6831 94.3176 24.6787 94.3647 24.6608 94.4073C24.6429 94.4499 24.6122 94.486 24.5731 94.5106C24.4242 94.5918 24.1076 94.5106 23.8234 94.3915C23.5886 94.2863 23.3631 94.1613 23.1495 94.018ZM23.3579 94.018C23.7611 94.2589 24.3403 94.5079 24.5135 94.405C24.5352 94.405 24.565 94.3671 24.5541 94.2832C24.5518 94.2588 24.544 94.2351 24.5314 94.2141C24.5187 94.193 24.5015 94.175 24.481 94.1614C24.4514 94.1359 24.4175 94.1158 24.3809 94.1019C24.0479 94.0114 23.701 93.9839 23.3579 94.0207V94.018Z" fill="#407BFF"/>
<path d="M23.1222 94.0018C23.1164 93.9929 23.1133 93.9826 23.1133 93.972C23.1133 93.9614 23.1164 93.9511 23.1222 93.9422C23.1222 93.9152 23.4686 93.3224 23.8665 93.2115C23.9234 93.1946 23.9831 93.1893 24.0422 93.1958C24.1012 93.2023 24.1583 93.2205 24.2102 93.2494C24.3537 93.3306 24.3672 93.428 24.3455 93.493C24.2806 93.7636 23.5119 94.0343 23.1845 94.0343C23.1765 94.0366 23.168 94.0366 23.1601 94.0343C23.1517 94.0321 23.144 94.028 23.1374 94.0224C23.1308 94.0168 23.1256 94.0097 23.1222 94.0018ZM24.1263 93.3387C24.0578 93.3058 23.9791 93.301 23.9071 93.3252C23.6494 93.4469 23.4357 93.6455 23.2954 93.8935C23.6527 93.8502 24.1859 93.6229 24.24 93.4578C24.24 93.4415 24.24 93.4009 24.1588 93.3495H24.1263V93.3387Z" fill="#407BFF"/>
<path d="M23.0539 93.593L20.5504 92.4968C20.504 92.4762 20.4519 92.472 20.4028 92.4848C20.3536 92.4975 20.3103 92.5266 20.2798 92.5672L18.9265 94.4076C18.8694 94.4857 18.8453 94.5832 18.8594 94.6789C18.8736 94.7747 18.9249 94.861 19.0023 94.9191C19.0239 94.9334 19.0465 94.946 19.07 94.957C19.9793 95.3387 20.8021 95.6391 21.9253 96.1344C23.2515 96.7163 22.8455 96.7271 24.3936 97.4308C25.3274 97.8557 25.9688 96.8624 25.5926 96.6351C23.8713 95.6093 23.9227 94.976 23.5059 94.0152C23.4115 93.8242 23.2509 93.6741 23.0539 93.593Z" fill="#263238"/>
<path d="M41.8936 29.709C41.8936 29.709 43.7475 29.1407 43.282 28.2935C42.876 27.5601 42.1994 28.4451 42.1994 28.4451L41.8936 29.709Z" fill="#263238"/>
<path opacity="0.6" d="M41.8936 29.709C41.8936 29.709 43.7475 29.1407 43.282 28.2935C42.876 27.5601 42.1994 28.4451 42.1994 28.4451L41.8936 29.709Z" fill="black"/>
<path d="M40.5626 35.9206L40.2026 37.6365L37.6504 36.765L38.4136 34.7947L40.5626 35.9206Z" fill="#CE7A63"/>
<path opacity="0.2" d="M40.3839 36.7758C40.196 36.6731 40.0324 36.5313 39.904 36.3599C39.7756 36.1886 39.6854 35.9916 39.6396 35.7825L40.0592 35.6553L40.5626 35.9259L40.3839 36.7758Z" fill="black"/>
<path d="M43.391 31.5684C43.4073 31.7227 43.3369 31.8553 43.2341 31.8634C43.1312 31.8715 43.0284 31.747 43.0202 31.5927C43.0121 31.4385 43.0744 31.3086 43.1772 31.3032C43.2801 31.2977 43.3775 31.4168 43.391 31.5684Z" fill="#263238"/>
<path d="M43.0991 32.05L43.9679 33.1895C43.8314 33.2884 43.6737 33.3541 43.5074 33.3814C43.3411 33.4086 43.1707 33.3967 43.0098 33.3465L43.0991 32.05Z" fill="#BA4D3C"/>
<path d="M37.2736 31.4169C37.371 33.4657 37.3656 34.3345 38.4049 35.4144C40.0017 36.5268 42.5188 36.497 43.0465 34.478C43.5229 32.6538 43.2847 29.6063 41.2494 28.7348C40.5634 28.4293 39.7846 28.4069 39.0822 28.6724C38.3798 28.938 37.8105 29.4701 37.4982 30.153C37.3243 30.5505 37.2473 30.9838 37.2736 31.4169Z" fill="#CE7A63"/>
<path d="M43.1682 30.2043C43.1549 30.2076 43.1426 30.2139 43.1323 30.2229C43.1219 30.2318 43.1138 30.2431 43.1087 30.2557C43.0749 30.3505 43.019 30.4358 42.9455 30.5045C42.8721 30.5733 42.7832 30.6235 42.6865 30.6509C42.676 30.6528 42.666 30.6568 42.657 30.6626C42.6481 30.6685 42.6404 30.676 42.6343 30.6848C42.6283 30.6936 42.6241 30.7035 42.6219 30.7139C42.6197 30.7243 42.6195 30.7351 42.6215 30.7456C42.6272 30.7667 42.6408 30.7849 42.6593 30.7964C42.6779 30.8079 42.7002 30.812 42.7216 30.8078C42.8457 30.7772 42.9602 30.7161 43.0547 30.6301C43.1492 30.5441 43.2208 30.4359 43.2629 30.3153C43.2669 30.3053 43.2688 30.2947 43.2686 30.284C43.2684 30.2733 43.2662 30.2627 43.2619 30.2529C43.2576 30.2431 43.2514 30.2342 43.2437 30.2268C43.236 30.2194 43.2269 30.2136 43.2169 30.2097C43.2014 30.2039 43.1846 30.202 43.1682 30.2043Z" fill="#263238"/>
<path d="M36.3184 37.3927L36.8353 36.7892C36.9927 36.6079 37.2013 36.4785 37.4337 36.4181C37.6661 36.3577 37.9114 36.3691 38.1371 36.4509L39.9018 37.0869C40.0732 37.1488 40.2281 37.2493 40.3543 37.3807C40.4806 37.5122 40.5749 37.6709 40.6298 37.8447L40.8301 38.4753L36.3184 37.3927Z" fill="#407BFF"/>
<path opacity="0.5" d="M36.3184 37.3927L36.8353 36.7892C36.9927 36.6079 37.2013 36.4785 37.4337 36.4181C37.6661 36.3577 37.9114 36.3691 38.1371 36.4509L39.9018 37.0869C40.0732 37.1488 40.2281 37.2493 40.3543 37.3807C40.4806 37.5122 40.5749 37.6709 40.6298 37.8447L40.8301 38.4753L36.3184 37.3927Z" fill="white"/>
<path d="M40.0889 52.8955C40.0889 52.8955 46.1352 68.0167 47.6482 73.2564C48.8823 77.5192 51.375 90.6673 51.375 90.6673L47.5859 91.6335C47.5859 91.6335 44.2921 78.7208 42.8604 74.5176C41.6479 70.9613 38.53 63.9028 35.9399 61.1746C35.5041 60.7145 34.2781 60.1976 33.8559 59.724C32.9871 58.7442 31.983 56.2245 31.7096 54.9416C31.5851 54.357 31.7096 52.5518 31.7096 52.5518L40.0889 52.8955Z" fill="#263238"/>
<path d="M40.0887 52.8955C40.0887 52.8955 38.6434 57.483 38.0182 58.9553C37.6826 59.7538 36.8382 61.2748 36.508 62.0732C34.9545 65.8217 32.4916 73.6299 31.0761 77.3622C29.6795 81.0349 24.4858 91.6335 24.4858 91.6335L21.0566 90.126C21.0566 90.126 25.4547 79.5003 26.651 75.8628C27.8175 72.3227 29.5577 65.0368 30.026 61.3452C30.1694 60.203 30.1044 57.8917 30.2154 56.7441C30.3156 55.6886 30.846 52.5491 30.846 52.5491L40.0887 52.8955Z" fill="#263238"/>
<path d="M30.7539 52.9201L40.6678 54.3031L42.9467 40.5974C43.0279 40.1123 42.9243 39.6143 42.6562 39.2019C42.3881 38.7895 41.975 38.4926 41.4987 38.3699L37.106 37.2305C36.723 37.131 36.3238 37.1104 35.9326 37.17C35.5414 37.2297 35.1664 37.3683 34.8304 37.5774C34.4945 37.7865 34.2046 38.0618 33.9783 38.3865C33.7521 38.7112 33.5943 39.0785 33.5145 39.4661L30.7539 52.9201Z" fill="#407BFF"/>
<path opacity="0.2" d="M42.0511 45.9859L42.4896 43.3471L40.6816 41.8152L42.0511 45.9859Z" fill="black"/>
<path d="M21.0596 89.1897L20.5508 90.3751L24.5104 92.202L25.0842 91.0842L21.0596 89.1897Z" fill="#407BFF"/>
<path d="M47.1094 90.9677L47.4693 92.2046L51.6861 91.103L51.4235 89.8743L47.1094 90.9677Z" fill="#407BFF"/>
<path d="M41.6506 32.7485C41.6506 32.7485 42.1919 32.0556 41.7968 30.9379C41.4016 29.8201 43.6913 27.4844 42.2379 26.7969C41.334 26.3693 41.0714 27.5737 41.0714 27.5737C41.0714 27.5737 40.5166 26.7103 39.7182 27.0703C39.2581 27.2787 39.3799 27.8822 39.3799 27.8822C39.3799 27.8822 36.1158 28.3992 36.7952 31.425C36.7211 32.0649 36.7916 32.7131 37.0014 33.3221C37.2113 33.931 37.5552 34.4851 38.0077 34.9435C38.0077 34.9435 39.185 34.5131 40.1539 35.1167C40.1593 35.1194 40.2784 33.8717 41.6506 32.7485Z" fill="#263238"/>
<path d="M37.1004 31.8879C37.1004 31.8879 36.0747 31.0597 35.9935 30.2099C35.9123 29.36 36.8081 30.7972 37.1004 31.8879Z" fill="#263238"/>
<path d="M41.4854 31.9743C41.6411 32.1138 41.7676 32.2827 41.8578 32.4713C41.9479 32.6599 41.9998 32.8644 42.0104 33.0732C42.0321 33.6307 41.4908 33.7769 41.0253 33.5116C40.5597 33.2464 40.0834 32.6997 40.2864 32.1909C40.3341 32.08 40.4085 31.9827 40.503 31.9077C40.5974 31.8326 40.709 31.7821 40.8277 31.7607C40.9465 31.7392 41.0687 31.7475 41.1834 31.7848C41.2982 31.8221 41.4019 31.8872 41.4854 31.9743Z" fill="#CE7A63"/>
<path opacity="0.6" d="M32.2559 56.7144C32.651 59.6915 34.6403 62.5874 35.7526 64.0219C36.0233 63.302 36.275 62.647 36.5078 62.0813C33.1246 59.3315 32.2559 56.7144 32.2559 56.7144Z" fill="black"/>
<path d="M42.3024 39.363C42.3024 39.363 44.8059 43.7259 46.0184 44.9438C47.0685 45.9939 51.1174 48.4271 51.1174 48.4271L52.4923 48.4027C52.6029 48.3995 52.7126 48.4224 52.8128 48.4694C52.9129 48.5164 53.0006 48.5863 53.0688 48.6734C53.153 48.7841 53.2678 48.8678 53.399 48.9142L53.5181 48.9576C53.6728 49.0112 53.8041 49.1169 53.8895 49.2566C53.9749 49.3963 54.0091 49.5613 53.9863 49.7235L53.9051 50.3135C53.8862 50.446 53.8301 50.5705 53.7434 50.6725C53.6568 50.7745 53.543 50.8499 53.4152 50.89L52.3083 51.2391C52.1945 51.2751 52.0735 51.2815 51.9565 51.2579C51.8396 51.2342 51.7306 51.1812 51.6398 51.1038L50.2676 49.94C50.2676 49.94 45.201 47.7748 43.864 46.5407C42.8599 45.6232 40.9004 41.9829 40.9004 41.9829L42.3024 39.363Z" fill="#CE7A63"/>
<path d="M42.7063 39.0113L45.3857 42.5135L41.9512 44.5948L39.8537 40.9464C39.6781 40.6377 39.62 40.2759 39.6901 39.9278C39.7603 39.5796 39.9539 39.2685 40.2353 39.0519L40.6331 38.7487C40.7862 38.6292 40.9615 38.5411 41.1487 38.4895C41.336 38.438 41.5317 38.424 41.7244 38.4484C41.9171 38.4728 42.1031 38.5351 42.2716 38.6317C42.4401 38.7283 42.5879 38.8573 42.7063 39.0113Z" fill="#407BFF"/>
</svg>
