<svg width="78" height="72" viewBox="0 0 78 72" fill="none" xmlns="http://www.w3.org/2000/svg">
<path d="M9.39456 12.62C9.21085 13.1741 8.91508 13.6845 8.52564 14.1195C8.17808 14.5217 7.81065 14.6259 7.32406 14.4091C7.09133 14.2948 6.83617 14.2334 6.5769 14.2294C6.31764 14.2254 6.0607 14.2789 5.82455 14.3859C5.27341 14.6243 5.01025 14.525 4.60642 14.0417C3.88083 13.1992 3.49963 12.1141 3.53889 11.003C3.55875 10.288 3.8186 9.64911 4.44256 9.23203C4.6678 9.07345 4.9321 8.97945 5.20689 8.96019C5.48168 8.94094 5.7565 8.99717 6.00165 9.1228C6.15971 9.20393 6.33432 9.24761 6.51197 9.25048C6.68961 9.25335 6.86554 9.21533 7.02614 9.13935C7.29194 9.00564 7.58669 8.93975 7.88412 8.94755C8.18155 8.95534 8.47244 9.03659 8.73087 9.18404C8.7779 9.2098 8.82323 9.23855 8.86659 9.2701C9.25553 9.55643 9.25884 9.60111 8.91955 9.93213C8.74972 10.1012 8.61888 10.3054 8.53618 10.5303C8.45348 10.7552 8.42093 10.9955 8.44079 11.2343C8.46065 11.4732 8.53246 11.7048 8.65117 11.913C8.76989 12.1211 8.93266 12.3009 9.12809 12.4396L9.39456 12.62Z" fill="#E0E0E0"/>
<path d="M7.92512 7.21449C8.05753 7.95596 7.23661 8.93577 6.53982 8.80171C6.37928 7.94106 7.37067 7.1218 7.92512 7.21449Z" fill="#E0E0E0"/>
<path d="M11.5896 17.2757C11.7555 17.2706 11.9192 17.2359 12.0729 17.1731C12.2925 17.082 12.4825 16.9315 12.6217 16.7386C12.7608 16.5457 12.8435 16.318 12.8607 16.0807C12.8607 14.8378 12.8607 13.042 12.8607 10.8226C12.8607 9.71201 12.8607 8.49552 12.8607 7.18966V6.19662C12.8607 6.03111 12.8607 5.85567 12.8607 5.68685C12.8535 5.51818 12.8125 5.35268 12.7398 5.20026C12.6653 5.04407 12.5596 4.90476 12.4292 4.79091C12.2989 4.67707 12.1466 4.59108 11.9818 4.53823C11.8115 4.48928 11.634 4.47024 11.4572 4.48196H1.36118C1.05152 4.48259 0.752975 4.59743 0.522715 4.80448C0.292455 5.01153 0.146661 5.29625 0.11325 5.6041C0.10001 5.80436 0.11325 6.01621 0.11325 6.22144V8.66103C0.11325 10.2598 0.11325 11.8057 0.11325 13.2688V15.4204C0.11325 15.5942 0.11325 15.7663 0.11325 15.9368C0.108336 16.1058 0.135287 16.2742 0.192694 16.4333C0.305855 16.7416 0.535145 16.9935 0.831555 17.135C0.974187 17.2037 1.12873 17.2441 1.2867 17.2542C1.44393 17.2641 1.60448 17.2542 1.76171 17.2542H4.40156L9.6614 17.2658H11.0914H11.4638H11.5896C11.5896 17.2658 11.5465 17.2658 11.4638 17.2658H11.0914H9.6614L4.40156 17.2774H1.73192C1.56641 17.2774 1.41745 17.2774 1.2536 17.2774C1.0884 17.2659 0.926768 17.2238 0.776937 17.1532C0.46681 17.0051 0.226438 16.7422 0.10663 16.42C0.0475862 16.2562 0.0195247 16.0828 0.0238761 15.9086C0.0238761 15.7431 0.0238761 15.566 0.0238761 15.3922C0.0238761 14.6949 0.0238761 13.9777 0.0238761 13.2406C0.0238761 11.7726 0.0238761 10.2317 0.0238761 8.63289V5.91856C0.0238761 5.81429 0.0238761 5.71002 0.0238761 5.6041C0.0583486 5.27756 0.212926 4.97547 0.4576 4.75649C0.702273 4.53751 1.01959 4.41725 1.34794 4.41906H10.9011H11.4472C11.6309 4.40799 11.8151 4.4287 11.9918 4.4803C12.1642 4.53532 12.3235 4.62509 12.4598 4.74408C12.5962 4.86307 12.7067 5.00875 12.7845 5.17212C12.8613 5.33209 12.9041 5.50622 12.9103 5.68354C12.9103 5.84905 12.9103 6.02449 12.9103 6.19496C12.9103 6.52598 12.9103 6.85699 12.9103 7.18801C12.9103 8.49387 12.9103 9.71035 12.9103 10.8209C12.9103 13.042 12.9103 14.8378 12.8938 16.0807C12.8721 16.3859 12.7424 16.6733 12.528 16.8913C12.3135 17.1094 12.0283 17.244 11.7236 17.2708L11.5896 17.2757Z" fill="#E0E0E0"/>
<path d="M5.20878 28.9043C4.39613 28.8166 4.38124 28.8083 4.39117 28.0304C4.4011 27.2525 4.4011 26.4564 4.40275 25.6686C4.40275 25.5246 4.41599 25.4286 4.59971 25.4303C5.85426 25.4485 7.11046 25.4584 8.36501 25.4733C8.40619 25.4767 8.4471 25.4828 8.48749 25.4915C8.48749 26.009 8.48749 26.5254 8.48749 27.0407C8.48749 27.4247 8.48749 27.8086 8.48749 28.1992C8.48749 28.7669 8.36832 28.8861 7.80063 28.9142C7.7576 28.9142 7.71291 28.9242 7.62354 28.9357C7.62354 29.2668 7.63347 29.5978 7.62354 29.9189C7.62821 29.9841 7.61769 30.0496 7.59281 30.1102C7.56793 30.1707 7.52937 30.2246 7.48015 30.2678C7.43092 30.3109 7.37238 30.342 7.3091 30.3587C7.24582 30.3755 7.17953 30.3773 7.11543 30.3641C7.06348 30.3616 7.01257 30.3487 6.96579 30.3259C6.919 30.3032 6.87732 30.2712 6.84327 30.2319C6.80922 30.1926 6.78352 30.1468 6.76771 30.0972C6.7519 30.0477 6.74632 29.9955 6.75131 29.9437C6.75131 29.6656 6.75131 29.3876 6.75131 29.1162C6.75131 28.9506 6.69173 28.8877 6.53119 28.8977C6.44191 28.9035 6.35234 28.9035 6.26306 28.8977C6.12073 28.8861 6.07107 28.9506 6.07273 29.0864C6.07273 29.3468 6.07273 29.6066 6.07273 29.8659C6.07273 30.1969 5.90722 30.3624 5.63413 30.3624C5.36104 30.3624 5.20381 30.1969 5.2005 29.8659C5.19719 29.5349 5.20878 29.2287 5.20878 28.9043Z" fill="#E0E0E0"/>
<path d="M7.78261 23.0288C7.67834 23.2191 7.5658 23.4409 7.46484 23.6262C8.29238 24.0251 8.52078 24.6491 8.48271 25.2217H4.40625C4.42433 24.8829 4.53289 24.5551 4.72063 24.2725C4.90838 23.9898 5.16845 23.7627 5.47378 23.6147L5.15766 22.9973L5.21558 22.9642L5.56977 23.5716C6.14726 23.335 6.79466 23.335 7.37215 23.5716L7.71641 22.9924L7.78261 23.0288Z" fill="#E0E0E0"/>
<path d="M9.57856 26.7726C9.57856 27.0854 9.57856 27.3982 9.57856 27.711C9.57856 28.0238 9.41305 28.186 9.14989 28.191C9.08908 28.195 9.02811 28.1859 8.97118 28.1641C8.91424 28.1424 8.86269 28.1086 8.82007 28.065C8.77745 28.0214 8.74477 27.9692 8.72428 27.9118C8.70379 27.8544 8.69597 27.7932 8.70136 27.7325C8.70136 27.0986 8.70136 26.4631 8.7146 25.8292C8.71379 25.7702 8.72498 25.7116 8.74748 25.6571C8.76999 25.6026 8.80334 25.5532 8.84552 25.5119C8.8877 25.4707 8.93782 25.4385 8.99284 25.4172C9.04786 25.3959 9.10664 25.386 9.16559 25.3882C9.22455 25.3903 9.28245 25.4044 9.33579 25.4296C9.38913 25.4548 9.43679 25.4906 9.47588 25.5348C9.51496 25.5789 9.54466 25.6306 9.56317 25.6866C9.58167 25.7426 9.5886 25.8018 9.58352 25.8606C9.58352 26.1651 9.58352 26.4697 9.58352 26.7726H9.57856Z" fill="#E0E0E0"/>
<path d="M4.19091 26.7328C4.19091 27.0374 4.20084 27.3419 4.19091 27.6464C4.17436 28.0337 3.85989 28.2588 3.56363 28.095C3.50668 28.0645 3.45695 28.0221 3.41782 27.9707C3.3787 27.9193 3.35109 27.8601 3.33689 27.797C3.32365 27.1185 3.32972 26.4393 3.35509 25.7596C3.36502 25.4717 3.5206 25.3508 3.75562 25.3575C3.81636 25.354 3.87713 25.3638 3.9337 25.3862C3.99027 25.4085 4.04128 25.443 4.08319 25.4871C4.12509 25.5312 4.15688 25.5839 4.17634 25.6416C4.1958 25.6992 4.20247 25.7604 4.19587 25.8209C4.2058 26.1254 4.19587 26.43 4.19587 26.7328H4.19091Z" fill="#E0E0E0"/>
<path d="M11.5795 33.0768C11.7452 33.0704 11.9087 33.0357 12.0627 32.9741C12.2824 32.8832 12.4724 32.7328 12.6113 32.5399C12.7502 32.3469 12.8325 32.119 12.8489 31.8818C12.8489 30.6372 12.8489 28.8414 12.8489 26.6236C12.8489 25.513 12.8489 24.2966 12.8489 22.9907C12.8489 22.6597 12.8489 22.3287 12.8489 21.9977C12.8489 21.8321 12.8489 21.6666 12.8489 21.4895C12.8428 21.3207 12.8016 21.155 12.7281 21.003C12.6539 20.8468 12.5485 20.7075 12.4184 20.5937C12.2883 20.4798 12.1363 20.3938 11.9717 20.3409C11.8015 20.2916 11.624 20.272 11.4471 20.283H10.8843H1.33286C1.1263 20.2847 0.923132 20.3357 0.740343 20.432C0.558268 20.527 0.402531 20.6655 0.287017 20.8353C0.171504 21.0051 0.0998046 21.2009 0.0783114 21.4051C0.0634157 21.6037 0.0783114 21.8173 0.0783114 22.0225C0.0783114 22.8467 0.0783114 23.6588 0.0783114 24.4588C0.0783114 26.0576 0.0783114 27.6034 0.0783114 29.0665C0.0783114 29.7997 0.0783114 30.5163 0.0783114 31.2181V31.7378C0.0729853 31.9067 0.0993707 32.0751 0.1561 32.2343C0.270771 32.5418 0.499606 32.7931 0.794961 32.9361C0.938648 33.0034 1.09348 33.0438 1.25176 33.0552C1.40734 33.0635 1.56954 33.0552 1.72677 33.0552H2.65361H4.39641L9.65294 33.0619H11.0829H11.4537C11.5381 33.0619 11.5811 33.0619 11.5811 33.0619H11.4537H11.0829H9.65294L4.3931 33.0734H1.72181C1.5563 33.0734 1.40734 33.0734 1.24349 33.0734C1.0775 33.0635 0.915026 33.0214 0.765169 32.9493C0.45536 32.8016 0.215033 32.5393 0.0948623 32.2178C0.0360781 32.0538 0.00802453 31.8805 0.0121083 31.7064V31.1883C0.0121083 30.4932 0.0121083 29.7765 0.0121083 29.0367C0.0121083 27.5687 0.0121083 26.0278 0.0121083 24.429V21.6815C0.0121083 21.5789 0.0121083 21.4747 0.0121083 21.3671C0.0411574 21.1571 0.120209 20.9571 0.242614 20.784C0.36502 20.6109 0.527201 20.4697 0.715517 20.3724C0.908464 20.2708 1.1231 20.2175 1.34114 20.2168H11.4371C11.6202 20.2052 11.8038 20.2253 11.98 20.2764C12.1528 20.3314 12.3126 20.4213 12.4492 20.5406C12.5859 20.6599 12.6966 20.806 12.7744 20.9699C12.8502 21.1296 12.893 21.303 12.9002 21.4796C12.9002 21.6534 12.9002 21.8222 12.9002 21.991C12.9002 22.3287 12.9002 22.6597 12.9002 22.9841C12.9002 24.2899 12.9002 25.5064 12.9002 26.617C12.9002 28.8364 12.9002 30.6339 12.8853 31.8768C12.8665 32.1179 12.7808 32.349 12.6378 32.544C12.4948 32.7391 12.3003 32.8903 12.076 32.9808C11.9603 33.0262 11.8389 33.0552 11.7152 33.0668L11.5795 33.0768Z" fill="#E0E0E0"/>
<path d="M9.40146 42.3303H6.24854V40.0132L9.40146 39.5531V42.3303Z" fill="#E0E0E0"/>
<path d="M6.24023 42.6464H9.39647V45.3839L6.24023 44.9784V42.6464Z" fill="#E0E0E0"/>
<path d="M5.89905 40.0297V42.3303H3.48926C3.48926 41.6981 3.48926 41.084 3.48926 40.47C3.48926 40.4253 3.5687 40.3508 3.61835 40.3425C4.37473 40.23 5.12613 40.1323 5.89905 40.0297Z" fill="#E0E0E0"/>
<path d="M3.51758 42.6381H5.90255V44.9221L3.51758 44.616V42.6381Z" fill="#E0E0E0"/>
<path d="M11.5694 48.8762C11.7353 48.8722 11.8991 48.838 12.0527 48.7752C12.2722 48.6835 12.4619 48.5327 12.6007 48.3395C12.7395 48.1464 12.822 47.9185 12.8389 47.6812C12.8389 46.4382 12.8389 44.6425 12.8389 42.423C12.8389 41.3124 12.8389 40.096 12.8389 38.7918C12.8389 38.4607 12.8389 38.1297 12.8389 37.7987C12.8389 37.6332 12.8389 37.4594 12.8389 37.2906C12.8319 37.1219 12.7908 36.9564 12.718 36.804C12.6437 36.6476 12.5381 36.5082 12.4077 36.3943C12.2773 36.2804 12.125 36.1946 11.96 36.142C11.7898 36.0925 11.6123 36.0729 11.4354 36.0841H10.8892H1.33772C1.13128 36.0851 0.92811 36.1356 0.7452 36.2314C0.565387 36.33 0.411204 36.4695 0.295019 36.6385C0.182553 36.8082 0.112195 37.0022 0.0897888 37.2045C0.074893 37.4048 0.0897889 37.6183 0.0815135 37.8219V40.2598C0.0815135 41.857 0.0815135 43.4045 0.0815135 44.8676C0.0815135 45.6008 0.0815135 46.3174 0.0815135 47.0192V47.5372C0.0763045 47.7061 0.102686 47.8745 0.159302 48.0337C0.272981 48.3414 0.502179 48.5925 0.798163 48.7338C0.941305 48.8027 1.09643 48.8431 1.25496 48.853C1.41054 48.8629 1.57274 48.853 1.72832 48.853H4.38141L9.6396 48.8646L4.38141 48.8745H2.63861H1.70846C1.55122 48.8745 1.39399 48.8745 1.23014 48.8745C0.976587 48.8576 0.73335 48.7677 0.529813 48.6155C0.326275 48.4634 0.171147 48.2556 0.0831686 48.0172C0.0242526 47.8538 -0.00380807 47.681 0.000414656 47.5074V46.9894C0.000414656 46.2942 0.000414656 45.5776 0.000414656 44.8378C0.000414656 43.3681 0.000414656 41.8272 0.000414656 40.23C0.000414656 39.4301 0.000414656 38.6174 0.000414656 37.7921V37.4826C0.000414656 37.38 0.000414529 37.2757 0.00868993 37.1681C0.0431625 36.8416 0.19774 36.5395 0.442414 36.3205C0.687087 36.1015 1.0044 35.9813 1.33275 35.9831H10.8842H11.4304C11.614 35.9729 11.7981 35.9936 11.9749 36.0443C12.1478 36.0993 12.3075 36.1893 12.4441 36.3086C12.5808 36.4279 12.6915 36.574 12.7694 36.7378C12.8454 36.8975 12.8882 37.0709 12.8951 37.2476C12.8951 37.4214 12.8951 37.5902 12.8951 37.759V38.752C12.8951 40.0562 12.8951 41.2727 12.8951 42.3833C12.8951 44.6044 12.8951 46.4002 12.8786 47.6448C12.8653 47.8935 12.7808 48.1332 12.6353 48.3353C12.4898 48.5375 12.2893 48.6936 12.0577 48.7851C11.9415 48.8306 11.8194 48.8596 11.6952 48.8712C11.6108 48.8778 11.5694 48.8762 11.5694 48.8762Z" fill="#E0E0E0"/>
<path d="M17.5474 7.39821C17.5477 7.48273 17.5229 7.56545 17.4762 7.63589C17.4295 7.70633 17.3629 7.76132 17.2849 7.79389C17.2069 7.82646 17.121 7.83516 17.0381 7.81887C16.9551 7.80258 16.8789 7.76204 16.819 7.70239C16.7591 7.64274 16.7183 7.56665 16.7017 7.48378C16.6851 7.4009 16.6934 7.31496 16.7257 7.23684C16.758 7.15871 16.8127 7.09193 16.883 7.04493C16.9532 6.99794 17.0358 6.97285 17.1204 6.97285C17.2333 6.97285 17.3417 7.01761 17.4217 7.09733C17.5018 7.17706 17.5469 7.28524 17.5474 7.39821Z" fill="#E0E0E0"/>
<path d="M17.1006 7.3982C17.0814 7.40072 17.0619 7.40072 17.0427 7.3982H16.8772L16.6041 7.40813C16.481 7.40641 16.3582 7.41975 16.2383 7.44786C15.971 7.51256 15.7305 7.65888 15.5502 7.86649C15.3699 8.0741 15.2587 8.33271 15.232 8.60641C15.2171 8.82654 15.232 9.06983 15.232 9.31975C15.232 11.3307 15.232 14.1013 15.2436 17.1615C15.2552 20.2218 15.2436 22.9924 15.232 25.0049C15.2379 25.2351 15.1941 25.4638 15.1035 25.6754C15.013 25.8871 14.8779 26.0767 14.7074 26.2313C14.4493 26.4651 14.121 26.6065 13.7739 26.6335C13.4909 26.6451 13.2774 26.6335 13.1268 26.6335C13.2724 26.6335 13.4925 26.6335 13.7706 26.6186C14.1631 26.5806 14.5263 26.3944 14.7864 26.098C15.0466 25.8016 15.184 25.4173 15.1708 25.0231C15.1708 23.0106 15.1625 20.24 15.1575 17.1797C15.1526 14.1195 15.1675 11.3489 15.1708 9.33796C15.1708 9.08639 15.1708 8.85136 15.1824 8.61965C15.2068 8.40316 15.2822 8.19556 15.4025 8.01389C15.5936 7.72228 15.8902 7.51589 16.23 7.43793C16.3523 7.41177 16.4774 7.40065 16.6024 7.40483H16.8772H17.0427L17.1006 7.3982Z" fill="#E0E0E0"/>
<path d="M13.3189 26.66C13.3192 26.7445 13.2944 26.8273 13.2477 26.8977C13.201 26.9681 13.1344 27.0231 13.0564 27.0557C12.9784 27.0883 12.8925 27.097 12.8096 27.0807C12.7266 27.0644 12.6504 27.0238 12.5905 26.9642C12.5306 26.9045 12.4898 26.8285 12.4732 26.7456C12.4566 26.6627 12.4649 26.5768 12.4972 26.4986C12.5295 26.4205 12.5842 26.3537 12.6544 26.3067C12.7247 26.2597 12.8073 26.2347 12.8919 26.2347C13.0048 26.2347 13.1132 26.2794 13.1932 26.3591C13.2732 26.4389 13.3184 26.5471 13.3189 26.66Z" fill="#E0E0E0"/>
<path d="M26.4932 66.6285V71.266H33.274H40.755V66.6285H26.4932Z" fill="#F5F5F5"/>
<path d="M25.894 65.3326V66.6285H41.2532V65.3326H33.274H25.894Z" fill="#E0E0E0"/>
<path d="M33.574 71.266H40.7554V66.6285H41.2535V65.3326H33.2744V66.5094L33.574 71.266Z" fill="#E0E0E0"/>
<path d="M31.3809 67.3766H28.4878V68.0751H31.3809V67.3766Z" fill="#E0E0E0"/>
<path d="M31.8292 68.9473H28.1152V70.4219H31.8292V68.9473Z" fill="white"/>
<path d="M72.973 42.2029H58.2925V69.9536H72.973V42.2029Z" fill="#E0E0E0"/>
<path d="M68.6151 42.2029H53.9346V69.9536H68.6151V42.2029Z" fill="#F5F5F5"/>
<path d="M67.5342 47.9162H54.9341V43.517H67.5342V47.9162ZM55.088 47.7606H67.3803V43.6709H55.088V47.7606Z" fill="#E0E0E0"/>
<path d="M58.9294 43.5948H63.7109V43.6544C63.7109 43.8716 63.6246 44.08 63.471 44.2337C63.3173 44.3873 63.1089 44.4736 62.8917 44.4736H59.747C59.5297 44.4736 59.3213 44.3873 59.1677 44.2337C59.0141 44.08 58.9277 43.8716 58.9277 43.6544V43.5964L58.9294 43.5948Z" fill="#EBEBEB"/>
<path d="M67.5342 53.5037H54.9341V49.1045H67.5342V53.5037ZM55.088 53.3481H67.3803V49.2584H55.088V53.3481Z" fill="#E0E0E0"/>
<path d="M58.9294 49.1823H63.7109V49.2402C63.7109 49.4575 63.6246 49.6659 63.471 49.8196C63.3173 49.9732 63.1089 50.0595 62.8917 50.0595H59.747C59.5297 50.0595 59.3213 49.9732 59.1677 49.8196C59.0141 49.6659 58.9277 49.4575 58.9277 49.2402V49.1823H58.9294Z" fill="#EBEBEB"/>
<path d="M67.5342 59.0913H54.9341V54.6921H67.5342V59.0913ZM55.088 58.9357H67.3803V54.8477H55.088V58.9357Z" fill="#E0E0E0"/>
<path d="M58.9294 54.7699H63.7109V54.8278C63.7109 55.0451 63.6246 55.2535 63.471 55.4071C63.3173 55.5608 63.1089 55.6471 62.8917 55.6471H59.747C59.5297 55.6471 59.3213 55.5608 59.1677 55.4071C59.0141 55.2535 58.9277 55.0451 58.9277 54.8278V54.7699H58.9294Z" fill="#EBEBEB"/>
<path d="M67.5342 64.6739H54.9341V60.2796H67.5342V64.6739ZM55.088 64.5183H67.3803V60.4302H55.088V64.5183Z" fill="#E0E0E0"/>
<path d="M58.9294 60.3574H63.7109V60.4153C63.7109 60.6326 63.6246 60.841 63.471 60.9947C63.3173 61.1483 63.1089 61.2346 62.8917 61.2346H59.747C59.5297 61.2346 59.3213 61.1483 59.1677 60.9947C59.0141 60.841 58.9277 60.6326 58.9277 60.4153V60.3574H58.9294Z" fill="#EBEBEB"/>
<path d="M69.2292 41.1651H53.2842V42.5471H69.2292V41.1651Z" fill="#EBEBEB"/>
<path d="M74.0238 41.1651H69.229V42.5471H74.0238V41.1651Z" fill="#E0E0E0"/>
<path d="M54.7058 69.9536H53.9346V71.3703H54.7058V69.9536Z" fill="#E0E0E0"/>
<path d="M59.4739 69.9536H58.7026V71.3703H59.4739V69.9536Z" fill="#E0E0E0"/>
<path d="M68.18 69.9536H67.4087V71.3703H68.18V69.9536Z" fill="#E0E0E0"/>
<path d="M72.534 69.9536H71.7627V71.3703H72.534V69.9536Z" fill="#E0E0E0"/>
<path d="M67.5279 37.4743L69.0141 41.276L68.0906 41.2711L67.3491 38.9357L67.5279 37.4743Z" fill="#E0E0E0"/>
<path d="M62.4533 33.9622L61.9419 41.2462L67.2166 41.3555L67.8092 33.9622H62.4533Z" fill="#EBEBEB"/>
<path d="M62.981 34.5481L62.5557 40.6107L66.4749 40.7944L67.0227 34.5117L62.981 34.5481Z" fill="#FAFAFA"/>
<path d="M63.8402 35.4055L63.5225 39.6673H65.6856L66.0663 35.4055H63.8402Z" fill="#E0E0E0"/>
<path d="M73.2543 0V15.6935H50.7138L49.9028 0.109235L73.2543 0Z" fill="#E0E0E0"/>
<path d="M49.9028 0.109235V15.6604L72.4434 15.6604V0.109235L49.9028 0.109235Z" fill="white"/>
<path d="M72.5456 15.7679H49.7949V0.00331497H72.5456V15.7679ZM50.0051 15.5528H72.3321V0.21682H50.0084L50.0051 15.5528Z" fill="#E0E0E0"/>
<path d="M70.0018 2.04237H52.3438V13.7289H70.0018V2.04237Z" fill="white"/>
<path d="M70.0002 2.04237H69.9141H69.6625H68.6927L65.0515 2.05561L52.3405 2.08209L52.3918 2.03078C52.3918 5.60079 52.3918 9.55643 52.3918 13.7156L52.3372 13.6594L69.9936 13.671L69.9505 13.7156C69.9588 10.1589 69.9671 7.24262 69.9737 5.21184C69.9737 4.19728 69.982 3.4045 69.9853 2.86163C69.9853 2.59185 69.9853 2.38662 69.9853 2.24263C69.9853 2.09864 69.9853 2.02913 69.9853 2.02913C69.9853 2.02913 69.9853 2.09698 69.9853 2.23436C69.9853 2.37173 69.9853 2.57861 69.9853 2.84342C69.9853 3.38463 69.9853 4.16749 69.9969 5.18536C69.9969 7.22111 70.0101 10.1506 70.02 13.7156V13.7587H69.9753L52.319 13.7703H52.2627V13.7156C52.2627 9.55643 52.2627 5.60575 52.2627 2.03078V1.97947H52.314L65.0581 2.0043L68.6844 2.01754H69.6443H69.8893C69.9268 2.02295 69.9639 2.03125 70.0002 2.04237Z" fill="#E0E0E0"/>
<path d="M49.9029 0.0662003C50.0415 0.134294 50.1716 0.218753 50.2902 0.317772C50.5202 0.48328 50.8347 0.719956 51.174 0.991389C51.5133 1.26282 51.8112 1.51936 52.0214 1.71135C52.1428 1.80724 52.2513 1.91851 52.3441 2.04236C52.3226 2.06554 51.7814 1.61866 51.1045 1.07745C50.4275 0.536243 49.883 0.0910264 49.9029 0.0662003Z" fill="#E0E0E0"/>
<path d="M72.4413 0.109234C72.4612 0.134061 71.9299 0.585897 71.2563 1.11883C70.5826 1.65177 70.0199 2.06554 70 2.04237C69.9802 2.0192 70.5131 1.5657 71.1867 1.03277C71.8604 0.499833 72.4231 0.0860634 72.4413 0.109234Z" fill="#E0E0E0"/>
<path d="M72.4252 15.662L69.9111 13.6263L72.4252 15.662Z" fill="white"/>
<path d="M69.9109 13.6263C69.9307 13.6014 70.5084 14.0384 71.2035 14.6011C71.8986 15.1638 72.4432 15.6388 72.4249 15.662C72.4067 15.6852 71.8275 15.2499 71.1323 14.6872C70.4372 14.1244 69.8976 13.6494 69.9109 13.6263Z" fill="#E0E0E0"/>
<path d="M49.9029 15.6604C49.883 15.6355 50.4093 15.1887 51.0763 14.6673C51.7433 14.146 52.2994 13.7322 52.3193 13.7554C52.3392 13.7785 51.8129 14.2271 51.1459 14.7484C50.4789 15.2698 49.9211 15.6835 49.9029 15.6604Z" fill="#E0E0E0"/>
<path d="M55.9287 5.68354V9.59615H67.0393V5.68354L55.9287 5.68354Z" fill="#E0E0E0"/>
<path d="M72.9809 71.372C72.9809 71.3952 56.9266 71.415 37.1286 71.415C17.3305 71.415 1.27295 71.3952 1.27295 71.372C1.27295 71.3488 17.3272 71.3289 37.1286 71.3289C56.93 71.3289 72.9809 71.3472 72.9809 71.372Z" fill="#263238"/>
<path d="M41.7993 62.226L21.5577 62.2128C20.9789 62.2125 20.4058 62.0983 19.8711 61.8766C19.3365 61.6549 18.8507 61.3301 18.4416 60.9207C18.0325 60.5112 17.708 60.0252 17.4867 59.4904C17.2654 58.9556 17.1516 58.3824 17.1519 57.8036L17.1618 7.06057C17.1622 5.89177 17.6267 4.77096 18.4532 3.94449C19.2797 3.11803 20.4005 2.65353 21.5693 2.65309L41.8092 2.66468C42.3886 2.66468 42.9623 2.77882 43.4975 3.00059C44.0328 3.22235 44.5191 3.5474 44.9287 3.95715C45.3383 4.36691 45.6632 4.85334 45.8847 5.38867C46.1063 5.92401 46.2202 6.49775 46.22 7.07712L46.2101 57.8185C46.2099 58.3975 46.0956 58.9708 45.8738 59.5057C45.652 60.0406 45.3271 60.5265 44.9175 60.9358C44.5079 61.345 44.0217 61.6696 43.4867 61.891C42.9517 62.1124 42.3783 62.2262 41.7993 62.226Z" fill="#263238"/>
<path d="M41.7463 4.47532H37.8221C37.5644 4.4814 37.3196 4.58929 37.1413 4.77539C36.9629 4.96149 36.8656 5.21065 36.8704 5.46836V6.18005C36.8753 6.43776 36.7779 6.68692 36.5996 6.87302C36.4213 7.05912 36.1765 7.16701 35.9188 7.17309H28.269C28.0112 7.16701 27.7662 7.05918 27.5876 6.87312C27.409 6.68707 27.3112 6.43792 27.3157 6.18005V5.46174C27.3206 5.20403 27.2232 4.95487 27.0448 4.76877C26.8665 4.58267 26.6217 4.47478 26.364 4.46869H21.5477C20.7294 4.46782 19.9441 4.79195 19.3647 5.36985C18.7852 5.94774 18.459 6.73209 18.4577 7.55045L18.4478 57.0787C18.4482 57.8974 18.7735 58.6824 19.3522 59.2614C19.9309 59.8405 20.7158 60.1662 21.5345 60.1671L41.7264 60.1787C42.1321 60.1791 42.5338 60.0996 42.9087 59.9446C43.2836 59.7897 43.6242 59.5624 43.9112 59.2757C44.1982 58.9891 44.4259 58.6486 44.5812 58.2739C44.7365 57.8992 44.8165 57.4976 44.8165 57.0919L44.8264 7.56369C44.8264 6.74604 44.5022 5.96175 43.9248 5.3828C43.3474 4.80385 42.564 4.47751 41.7463 4.47532Z" fill="white"/>
<path d="M44.7602 12.7408C44.7602 12.754 38.8715 12.7656 31.609 12.7656C24.3465 12.7656 18.4561 12.754 18.4561 12.7408C18.4561 12.7275 24.3432 12.716 31.609 12.716C38.8748 12.716 44.7602 12.7259 44.7602 12.7408Z" fill="#EBEBEB"/>
<path d="M22.1188 10.3873C22.0988 10.3872 22.0795 10.3802 22.0642 10.3674L21.2946 9.69213C21.2862 9.68426 21.2796 9.67477 21.275 9.66424C21.2705 9.65371 21.2681 9.64236 21.2681 9.63089C21.2679 9.61923 21.2703 9.60767 21.2752 9.59707C21.28 9.58647 21.2872 9.5771 21.2962 9.56965L22.0658 8.93079C22.0741 8.92405 22.0836 8.91899 22.0938 8.91592C22.104 8.91285 22.1147 8.91183 22.1253 8.9129C22.1359 8.91398 22.1462 8.91714 22.1556 8.92219C22.165 8.92725 22.1733 8.93411 22.18 8.94238C22.187 8.95029 22.1924 8.95956 22.1957 8.9696C22.199 8.97964 22.2002 8.99025 22.1993 9.00079C22.1984 9.01132 22.1953 9.02155 22.1903 9.03086C22.1852 9.04017 22.1784 9.04836 22.1701 9.05492L21.4733 9.6342L22.1718 10.2466C22.1877 10.2612 22.1974 10.2813 22.199 10.3029C22.2005 10.3244 22.1937 10.3457 22.18 10.3624C22.1721 10.3706 22.1625 10.377 22.152 10.3812C22.1415 10.3855 22.1302 10.3876 22.1188 10.3873Z" fill="#263238"/>
<path d="M37.5394 9.83943C37.5394 9.8626 35.3166 9.88246 32.5741 9.88246C29.8317 9.88246 27.6089 9.8626 27.6089 9.83943C27.6089 9.81626 29.83 9.79805 32.5741 9.79805C35.3182 9.79805 37.5394 9.81626 37.5394 9.83943Z" fill="#263238"/>
<path d="M27.6436 34.9801L27.7015 34.8642C27.8315 34.9747 27.9976 35.0336 28.1682 35.0297C28.433 35.0297 28.5489 34.9188 28.5489 34.7798C28.5489 34.3909 27.6783 34.6292 27.6783 34.1062C27.6783 33.8977 27.8438 33.7189 28.1997 33.7189C28.3547 33.7175 28.5069 33.7606 28.6383 33.843L28.5869 33.9622C28.4712 33.8881 28.337 33.848 28.1997 33.8463C27.9415 33.8463 27.8256 33.9605 27.8256 34.1029C27.8256 34.4902 28.6962 34.2551 28.6962 34.7649C28.6962 34.9718 28.5307 35.1505 28.1682 35.1505C27.9782 35.1608 27.7912 35.1001 27.6436 34.9801Z" fill="#263238"/>
<path d="M29.4755 34.6623V35.1588H29.3282V34.6623L28.7622 33.7371H28.9277L29.4127 34.5316L29.8976 33.7371H30.0465L29.4755 34.6623Z" fill="#263238"/>
<path d="M30.1079 34.9801L30.1658 34.8642C30.2959 34.9747 30.462 35.0336 30.6326 35.0297C30.8974 35.0297 31.0132 34.9188 31.0132 34.7798C31.0132 34.3909 30.1427 34.6292 30.1427 34.1062C30.1427 33.8977 30.3082 33.7189 30.664 33.7189C30.8191 33.7175 30.9713 33.7606 31.1026 33.843L31.0513 33.9622C30.9356 33.8881 30.8014 33.848 30.664 33.8463C30.4058 33.8463 30.29 33.9605 30.29 34.1029C30.29 34.4902 31.1605 34.2551 31.1605 34.7649C31.1605 34.9718 30.995 35.1505 30.6326 35.1505C30.4426 35.1608 30.2556 35.1001 30.1079 34.9801Z" fill="#263238"/>
<path d="M31.7397 33.8662H31.2432V33.7371H32.3868V33.8662H31.8903V35.1522H31.7397V33.8662Z" fill="#263238"/>
<path d="M33.6249 35.0215V35.1522H32.6318V33.7371H33.6017V33.8662H32.7742V34.3627H33.5057V34.4902H32.7742V35.0148L33.6249 35.0215Z" fill="#263238"/>
<path d="M35.4455 33.7371V35.1522H35.3065V34.0201L34.7504 34.9718H34.6809L34.1248 34.0268V35.1522H33.9824V33.7371H34.1066L34.7206 34.7864L35.328 33.7371H35.4455Z" fill="#263238"/>
<path d="M26.4736 36.9695V36.1419H26.8162V36.9595C26.8162 37.2426 26.9387 37.3584 27.1472 37.3584C27.3558 37.3584 27.4783 37.2426 27.4783 36.9595V36.1419H27.8176V36.9695C27.8176 37.4064 27.5676 37.6481 27.1456 37.6481C26.7235 37.6481 26.4736 37.4064 26.4736 36.9695Z" fill="#263238"/>
<path d="M29.4408 36.6765C29.4408 37.0075 29.1925 37.2128 28.797 37.2128H28.4974V37.6216H28.1548V36.132H28.797C29.1925 36.1386 29.4408 36.3439 29.4408 36.6765ZM29.0932 36.6765C29.0932 36.511 28.9873 36.4183 28.7771 36.4183H28.4974V36.9331H28.7771C28.9873 36.9331 29.0932 36.8387 29.0932 36.6765Z" fill="#263238"/>
<path d="M30.7069 36.8569H31.0214V37.4594C30.8463 37.5834 30.6368 37.6494 30.4223 37.6481C30.3185 37.6529 30.2149 37.6366 30.1176 37.6002C30.0203 37.5639 29.9315 37.5081 29.8563 37.4364C29.7812 37.3647 29.7214 37.2785 29.6806 37.183C29.6397 37.0876 29.6187 36.9848 29.6187 36.8809C29.6187 36.7771 29.6397 36.6743 29.6806 36.5788C29.7214 36.4834 29.7812 36.3972 29.8563 36.3255C29.9315 36.2538 30.0203 36.198 30.1176 36.1616C30.2149 36.1253 30.3185 36.109 30.4223 36.1138C30.5382 36.1083 30.6539 36.1285 30.7612 36.1728C30.8685 36.2171 30.9647 36.2846 31.0429 36.3704L30.8228 36.5739C30.7748 36.5203 30.7158 36.4777 30.6498 36.4491C30.5838 36.4206 30.5124 36.4067 30.4405 36.4084C30.3145 36.4084 30.1937 36.4585 30.1046 36.5475C30.0155 36.6366 29.9654 36.7574 29.9654 36.8834C29.9654 37.0094 30.0155 37.1302 30.1046 37.2193C30.1937 37.3084 30.3145 37.3584 30.4405 37.3584C30.5332 37.3605 30.6249 37.3389 30.7069 37.2955V36.8569Z" fill="#263238"/>
<path d="M32.2845 37.6216L31.9965 37.2095H31.682V37.6216H31.3345V36.132H31.9766C32.3722 36.132 32.6205 36.3372 32.6205 36.6699C32.6246 36.7701 32.5973 36.8692 32.5424 36.9531C32.4875 37.0371 32.4077 37.1018 32.3143 37.1383L32.6453 37.615L32.2845 37.6216ZM31.9535 36.4183H31.682V36.9364H31.9617C32.1719 36.9364 32.2779 36.8387 32.2779 36.6765C32.2779 36.5143 32.1719 36.4183 31.9617 36.4183H31.9535Z" fill="#263238"/>
<path d="M33.8735 37.3038H33.1849L33.0525 37.6216H32.7017L33.3637 36.132H33.703L34.365 37.6216H34.0042L33.8735 37.3038ZM33.7642 37.044L33.5292 36.4763L33.2942 37.044H33.7642Z" fill="#263238"/>
<path d="M34.5186 36.1386H35.1922C35.6771 36.1386 36.0098 36.4316 36.0098 36.8801C36.0098 37.3286 35.6788 37.6216 35.1922 37.6216H34.5186V36.1386ZM35.1806 37.3402C35.3026 37.3402 35.4196 37.2917 35.5059 37.2055C35.5922 37.1192 35.6407 37.0021 35.6407 36.8801C35.6407 36.7581 35.5922 36.641 35.5059 36.5548C35.4196 36.4685 35.3026 36.42 35.1806 36.42H34.8661V37.3402H35.1806Z" fill="#263238"/>
<path d="M37.4167 37.3468V37.6216H36.2681V36.132H37.3886V36.4084H36.609V36.7295H37.2926V36.996H36.604V37.3402L37.4167 37.3468Z" fill="#263238"/>
<path d="M27.417 48.0171C27.4161 47.9468 27.4295 47.877 27.4565 47.812C27.4835 47.747 27.5234 47.6882 27.574 47.6392C27.6245 47.5902 27.6845 47.5521 27.7503 47.5272C27.8161 47.5022 27.8863 47.491 27.9566 47.4941C28.0263 47.4914 28.0958 47.5035 28.1605 47.5294C28.2252 47.5554 28.2838 47.5947 28.3323 47.6447L28.2644 47.7126C28.2246 47.6727 28.1771 47.6414 28.1247 47.6206C28.0723 47.5999 28.0162 47.59 27.9599 47.5918C27.9017 47.5882 27.8434 47.5965 27.7885 47.6163C27.7337 47.636 27.6834 47.6668 27.6409 47.7068C27.5984 47.7467 27.5646 47.7949 27.5414 47.8484C27.5183 47.902 27.5063 47.9597 27.5063 48.018C27.5063 48.0763 27.5183 48.134 27.5414 48.1875C27.5646 48.241 27.5984 48.2892 27.6409 48.3292C27.6834 48.3691 27.7337 48.3999 27.7885 48.4197C27.8434 48.4395 27.9017 48.4478 27.9599 48.4442C28.0165 48.4461 28.073 48.436 28.1254 48.4146C28.1779 48.3932 28.2253 48.361 28.2644 48.32L28.3323 48.3895C28.2836 48.4398 28.2248 48.4792 28.1597 48.5052C28.0947 48.5312 28.0249 48.5431 27.9549 48.5401C27.8848 48.5431 27.8148 48.5317 27.7492 48.5066C27.6836 48.4816 27.6237 48.4434 27.5734 48.3944C27.5231 48.3455 27.4832 48.2868 27.4563 48.2219C27.4295 48.157 27.4161 48.0874 27.417 48.0171Z" fill="#263238"/>
<path d="M29.4244 47.5024V48.5319H29.3168V48.0569H28.673V48.5319H28.5654V47.5024H28.673V47.9576H29.3168V47.4975L29.4244 47.5024Z" fill="#263238"/>
<path d="M30.487 48.4375V48.5319H29.7588V47.5024H30.4655V47.5967H29.868V47.9575H30.401V48.0502H29.868V48.4326L30.487 48.4375Z" fill="#263238"/>
<path d="M30.6456 48.0171C30.6446 47.9468 30.658 47.877 30.685 47.812C30.712 47.747 30.752 47.6882 30.8025 47.6392C30.853 47.5902 30.913 47.5521 30.9788 47.5272C31.0446 47.5022 31.1148 47.491 31.1851 47.4941C31.2548 47.4914 31.3243 47.5035 31.389 47.5294C31.4538 47.5554 31.5123 47.5947 31.5608 47.6447L31.4913 47.7126C31.452 47.6726 31.4047 47.6412 31.3526 47.6204C31.3004 47.5996 31.2445 47.5899 31.1884 47.5918C31.1302 47.5882 31.0719 47.5965 31.0171 47.6163C30.9622 47.636 30.912 47.6668 30.8695 47.7068C30.827 47.7467 30.7931 47.7949 30.77 47.8484C30.7468 47.902 30.7349 47.9597 30.7349 48.018C30.7349 48.0763 30.7468 48.134 30.77 48.1875C30.7931 48.241 30.827 48.2892 30.8695 48.3292C30.912 48.3691 30.9622 48.3999 31.0171 48.4197C31.0719 48.4395 31.1302 48.4478 31.1884 48.4442C31.2449 48.4463 31.3011 48.4363 31.3533 48.4149C31.4056 48.3935 31.4526 48.3611 31.4913 48.32L31.5608 48.3895C31.5121 48.4398 31.4533 48.4792 31.3883 48.5052C31.3232 48.5312 31.2534 48.5431 31.1835 48.5401C31.1133 48.5433 31.0431 48.5321 30.9774 48.5071C30.9117 48.4821 30.8518 48.444 30.8014 48.395C30.751 48.346 30.7112 48.2872 30.6844 48.2222C30.6576 48.1572 30.6444 48.0874 30.6456 48.0171Z" fill="#263238"/>
<path d="M32.1124 48.0486L31.9022 48.2621V48.5319H31.793V47.5024H31.9022V48.1231L32.5063 47.5007H32.6304L32.1852 47.9675L32.6619 48.5302H32.5328L32.1124 48.0486Z" fill="#263238"/>
<path d="M32.8389 47.5024H32.9464V48.5319H32.8389V47.5024Z" fill="#263238"/>
<path d="M34.148 47.5024V48.5319H34.0587L33.3966 47.7043V48.5319H33.2891V47.5024H33.3784L34.0405 48.3382V47.5024H34.148Z" fill="#263238"/>
<path d="M35.2007 48.0171H35.3066V48.4094C35.2012 48.4979 35.0668 48.5445 34.9293 48.5401C34.7905 48.5401 34.6575 48.485 34.5594 48.387C34.4614 48.2889 34.4063 48.1558 34.4062 48.0171C34.4063 47.8784 34.4614 47.7454 34.5594 47.6473C34.6575 47.5492 34.7905 47.4941 34.9293 47.4941C34.9999 47.4908 35.0704 47.5024 35.1362 47.528C35.2021 47.5537 35.2618 47.5929 35.3116 47.6431L35.2437 47.7126C35.2032 47.6723 35.1548 47.6408 35.1015 47.62C35.0483 47.5993 34.9913 47.5896 34.9342 47.5918C34.876 47.5882 34.8177 47.5965 34.7628 47.6163C34.708 47.636 34.6577 47.6668 34.6153 47.7068C34.5728 47.7467 34.5389 47.7949 34.5157 47.8484C34.4926 47.902 34.4806 47.9596 34.4806 48.018C34.4806 48.0763 34.4926 48.134 34.5157 48.1875C34.5389 48.241 34.5728 48.2892 34.6153 48.3292C34.6577 48.3691 34.708 48.3999 34.7628 48.4197C34.8177 48.4394 34.876 48.4478 34.9342 48.4441C35.0299 48.4475 35.124 48.4196 35.2023 48.3647L35.2007 48.0171Z" fill="#263238"/>
<path d="M35.5366 48.4541C35.5366 48.4384 35.5413 48.423 35.55 48.41C35.5587 48.3969 35.5711 48.3867 35.5857 48.3807C35.6002 48.3747 35.6162 48.3731 35.6316 48.3762C35.647 48.3792 35.6611 48.3868 35.6722 48.3979C35.6834 48.409 35.6909 48.4232 35.694 48.4386C35.697 48.454 35.6955 48.47 35.6895 48.4845C35.6834 48.499 35.6733 48.5114 35.6602 48.5201C35.6471 48.5289 35.6318 48.5335 35.6161 48.5335C35.595 48.5335 35.5748 48.5252 35.5599 48.5103C35.545 48.4954 35.5366 48.4752 35.5366 48.4541Z" fill="#263238"/>
<path d="M35.8496 48.4541C35.8494 48.4437 35.8513 48.4334 35.8551 48.4238C35.8589 48.4142 35.8646 48.4054 35.8718 48.398C35.8791 48.3906 35.8877 48.3847 35.8973 48.3807C35.9068 48.3767 35.9171 48.3746 35.9274 48.3746C35.9379 48.3744 35.9483 48.3763 35.9581 48.3802C35.9678 48.3841 35.9767 48.39 35.9841 48.3974C35.9915 48.4048 35.9974 48.4137 36.0013 48.4234C36.0052 48.4331 36.0071 48.4436 36.0069 48.4541C36.0069 48.4751 35.9985 48.4953 35.9836 48.5102C35.9687 48.5251 35.9485 48.5335 35.9274 48.5335C35.9171 48.5335 35.9068 48.5314 35.8973 48.5274C35.8877 48.5234 35.8791 48.5175 35.8718 48.5101C35.8646 48.5027 35.8589 48.494 35.8551 48.4843C35.8513 48.4747 35.8494 48.4644 35.8496 48.4541Z" fill="#263238"/>
<path d="M36.1607 48.4541C36.1604 48.4437 36.1623 48.4334 36.1661 48.4238C36.1699 48.4142 36.1756 48.4054 36.1829 48.398C36.1901 48.3906 36.1987 48.3847 36.2083 48.3807C36.2178 48.3767 36.2281 48.3746 36.2385 48.3746C36.2489 48.3744 36.2594 48.3763 36.2691 48.3802C36.2789 48.3841 36.2877 48.39 36.2951 48.3974C36.3025 48.4048 36.3084 48.4137 36.3123 48.4234C36.3162 48.4331 36.3181 48.4436 36.3179 48.4541C36.3179 48.4751 36.3095 48.4953 36.2946 48.5102C36.2797 48.5251 36.2595 48.5335 36.2385 48.5335C36.2281 48.5335 36.2178 48.5314 36.2083 48.5274C36.1987 48.5234 36.1901 48.5175 36.1829 48.5101C36.1756 48.5027 36.1699 48.494 36.1661 48.4843C36.1623 48.4747 36.1604 48.4644 36.1607 48.4541Z" fill="#263238"/>
<path d="M29.4609 21.2115C29.7841 21.0165 30.132 20.8657 30.4953 20.763L30.7088 19.7385L32.4383 19.7087L32.6866 20.7249C33.0534 20.8143 33.4064 20.9529 33.7359 21.137L34.6115 20.5643L35.8544 21.7659L35.3132 22.6597C35.509 22.9827 35.6604 23.3307 35.7634 23.6941L36.7862 23.9059L36.816 25.6355L35.8031 25.8854C35.7129 26.2522 35.5737 26.6051 35.3893 26.9347L35.9637 27.8086L34.7621 29.0532L33.8683 28.5104C33.5451 28.7059 33.1972 28.8573 32.8339 28.9606L32.6204 29.9851L30.8908 30.0148L30.6426 28.9986C30.276 28.9085 29.9232 28.7699 29.5933 28.5865L28.7194 29.1592L27.4748 27.9576L28.016 27.0638C27.8209 26.7404 27.6695 26.3926 27.5658 26.0294L26.5347 25.8159L26.5049 24.088L27.5194 23.8381C27.6097 23.4713 27.7489 23.1184 27.9332 22.7888L27.3622 21.9149L28.5638 20.6703L29.4575 21.2115H29.4609ZM30.3827 23.5154C30.1274 23.7794 29.956 24.1132 29.8904 24.4747C29.8248 24.8361 29.8679 25.2089 30.0141 25.5458C30.1604 25.8828 30.4033 26.1688 30.7122 26.3676C31.021 26.5665 31.3819 26.6693 31.7492 26.6631C32.1165 26.6568 32.4736 26.5418 32.7755 26.3325C33.0774 26.1232 33.3105 25.8291 33.4452 25.4874C33.5799 25.1457 33.6102 24.7717 33.5324 24.4127C33.4545 24.0537 33.2719 23.7259 33.0077 23.4707C32.6536 23.1287 32.1782 22.9412 31.686 22.9496C31.1937 22.958 30.725 23.1615 30.3827 23.5154Z" fill="#0D92F4"/>
<path d="M37.6536 16.4564C37.8175 16.4277 37.9845 16.4216 38.1501 16.4382L38.405 16.0493L39.1266 16.3207L39.0637 16.7808C39.2055 16.8773 39.3336 16.9925 39.4444 17.1234L39.8995 17.0291L40.2173 17.7308L39.8482 18.0105C39.8754 18.1746 39.8809 18.3416 39.8648 18.5071L40.2537 18.762L39.9756 19.4902L39.5139 19.4256C39.417 19.5632 39.3017 19.6868 39.1713 19.7931L39.2656 20.2482L38.5655 20.5676L38.2842 20.1969C38.1201 20.2242 37.9531 20.2298 37.7876 20.2135L37.5311 20.6024L36.8111 20.3326L36.874 19.8725C36.7373 19.7747 36.6138 19.6595 36.5066 19.5299L36.0515 19.6243L35.732 18.9225L36.1028 18.6411C36.0754 18.4771 36.0699 18.3101 36.0862 18.1446L35.6973 17.8897L35.967 17.1681L36.4288 17.231C36.5256 17.0944 36.6403 16.9714 36.7698 16.8652L36.6771 16.4084L37.3772 16.0907L37.6585 16.4614L37.6536 16.4564ZM37.6536 17.5604C37.5043 17.6279 37.3785 17.7382 37.292 17.8772C37.2055 18.0163 37.1622 18.1779 37.1676 18.3416C37.173 18.5053 37.2269 18.6637 37.3223 18.7968C37.4178 18.9299 37.5507 19.0316 37.704 19.0891C37.8573 19.1467 38.0243 19.1574 38.1838 19.12C38.3432 19.0826 38.488 18.9987 38.5997 18.8789C38.7115 18.7592 38.7852 18.609 38.8115 18.4473C38.8378 18.2857 38.8156 18.1198 38.7476 17.9708C38.6566 17.7728 38.4913 17.6187 38.2874 17.5418C38.0835 17.465 37.8575 17.4716 37.6585 17.5604H37.6536Z" fill="#0D92F4"/>
<path d="M24.8465 18.5336C24.9505 18.4309 25.068 18.3429 25.1957 18.2721L25.1841 17.8682L25.8313 17.7027L26.015 18.0619C26.1612 18.0632 26.3065 18.0843 26.447 18.1248L26.725 17.8302L27.2993 18.1711L27.1752 18.5551C27.2769 18.6599 27.3647 18.7773 27.4367 18.9043L27.8405 18.8927L28.0061 19.5415L27.6469 19.7252C27.6455 19.8707 27.6249 20.0154 27.5857 20.1555L27.8786 20.4336L27.5377 21.0079L27.1537 20.8838C27.0497 20.9864 26.9322 21.0744 26.8045 21.1453L26.8161 21.5491L26.1689 21.7146L25.9852 21.3555C25.839 21.3542 25.6937 21.333 25.5532 21.2926L25.2752 21.5872L24.7009 21.2462L24.825 20.8623C24.7233 20.7574 24.6355 20.6401 24.5635 20.513L24.1596 20.5246L23.9941 19.8758L24.3549 19.6921C24.3564 19.5466 24.3769 19.4019 24.4162 19.2618L24.1232 18.9837L24.4642 18.4094L24.8482 18.5336H24.8465ZM25.3976 19.3164C25.3253 19.4383 25.2908 19.5788 25.2983 19.7203C25.3059 19.8618 25.3552 19.9978 25.44 20.1113C25.5249 20.2248 25.6414 20.3106 25.775 20.3578C25.9086 20.405 26.0532 20.4116 26.1905 20.3767C26.3278 20.3418 26.4517 20.267 26.5465 20.1617C26.6413 20.0564 26.7028 19.9253 26.7232 19.7851C26.7435 19.6449 26.7219 19.5018 26.6609 19.3739C26.6 19.246 26.5025 19.139 26.3808 19.0665C26.2993 19.0188 26.2092 18.9877 26.1157 18.9749C26.0221 18.9621 25.927 18.9678 25.8357 18.9918C25.7444 19.0158 25.6587 19.0575 25.5835 19.1146C25.5084 19.1718 25.4452 19.2431 25.3976 19.3247V19.3164Z" fill="#0D92F4"/>
<path d="M39.921 42.1052H23.8121C22.7865 42.1052 21.9551 42.9366 21.9551 43.9622V44.1856C21.9551 45.2112 22.7865 46.0426 23.8121 46.0426H39.921C40.9466 46.0426 41.778 45.2112 41.778 44.1856V43.9622C41.778 42.9366 40.9466 42.1052 39.921 42.1052Z" fill="#F5F5F5"/>
<path d="M31.1176 42.1052H23.8121C22.7865 42.1052 21.9551 42.9366 21.9551 43.9622V44.1856C21.9551 45.2112 22.7865 46.0426 23.8121 46.0426H31.1176C32.1432 46.0426 32.9746 45.2112 32.9746 44.1856V43.9622C32.9746 42.9366 32.1432 42.1052 31.1176 42.1052Z" fill="#0D92F4"/>
<path d="M37.7146 44.3611C37.7146 44.5663 37.5739 44.7219 37.2876 44.7219C37.2086 44.7245 37.13 44.7112 37.0564 44.6828C36.9827 44.6543 36.9156 44.6113 36.8589 44.5564L36.9052 44.4885C36.9548 44.5386 37.0143 44.5778 37.0798 44.6037C37.1453 44.6296 37.2155 44.6417 37.2859 44.6391C37.511 44.6391 37.6268 44.5249 37.6268 44.3627C37.6268 44.2005 37.5193 44.083 37.1882 44.083H36.9416L37.0062 43.4922H37.6533V43.5716H37.0807L37.0343 44.0019H37.2081C37.5788 44.0036 37.7146 44.1509 37.7146 44.3611Z" fill="#0D92F4"/>
<path d="M38.6794 44.3611C38.6794 44.5663 38.5387 44.7219 38.2524 44.7219C38.1735 44.7245 38.0949 44.7112 38.0212 44.6828C37.9476 44.6543 37.8804 44.6113 37.8237 44.5564L37.8684 44.4885C37.9184 44.5385 37.9782 44.5776 38.044 44.6035C38.1097 44.6294 38.1801 44.6415 38.2507 44.6391C38.4758 44.6391 38.5818 44.5249 38.5818 44.3627C38.5818 44.2005 38.4758 44.083 38.1448 44.083H37.8982L37.9628 43.4922H38.6165V43.5716H38.0455L37.9975 44.0019H38.173C38.5437 44.0036 38.6794 44.1509 38.6794 44.3611Z" fill="#0D92F4"/>
<path d="M38.812 43.8199C38.812 43.6213 38.9229 43.4888 39.0818 43.4888C39.2407 43.4888 39.3516 43.6196 39.3516 43.8199C39.3516 44.0201 39.239 44.1509 39.0818 44.1509C38.9246 44.1509 38.812 44.0152 38.812 43.8199ZM39.2854 43.8199C39.2854 43.6544 39.2026 43.5501 39.0818 43.5501C38.961 43.5501 38.8782 43.6527 38.8782 43.8199C38.8782 43.987 38.961 44.0896 39.0818 44.0896C39.2026 44.0896 39.2787 43.9854 39.2787 43.8199H39.2854ZM39.8249 43.4888H39.8994L39.0719 44.7086H38.9974L39.8249 43.4888ZM39.5419 44.3859C39.5419 44.1873 39.6528 44.0549 39.8117 44.0549C39.9706 44.0549 40.0798 44.1856 40.0798 44.3859C40.0798 44.5862 39.9706 44.7169 39.8117 44.7169C39.6528 44.7169 39.5419 44.5895 39.5419 44.3909V44.3859ZM40.0136 44.3859C40.0136 44.2204 39.9308 44.1161 39.8117 44.1161C39.6925 44.1161 39.6065 44.2171 39.6065 44.3859C39.6065 44.5547 39.6892 44.6557 39.8117 44.6557C39.9342 44.6557 40.0136 44.558 40.0136 44.3909V44.3859Z" fill="#0D92F4"/>
<g opacity="0.2">
<path d="M26.7484 42.1052L25.2671 45.9946H26.3561L27.7365 42.1052H26.7484Z" fill="white"/>
</g>
<g opacity="0.2">
<path d="M29.4209 42.1052L27.938 45.9946H29.027L30.409 42.1052H29.4209Z" fill="white"/>
</g>
<g opacity="0.2">
<path d="M32.0379 42.3982L30.6592 46.0195H31.308C31.4788 45.9819 31.6453 45.9265 31.8045 45.854L32.7562 43.176C32.5872 42.8596 32.3399 42.5917 32.0379 42.3982Z" fill="white"/>
</g>
<g opacity="0.2">
<path d="M24.1528 42.1052L22.7891 45.6818C23.0788 45.8706 23.4135 45.9791 23.7589 45.9963L25.1393 42.1052H24.1528Z" fill="white"/>
</g>
<path d="M39.9206 46.0426C40.0699 46.0328 40.2182 46.0112 40.3642 45.9781C40.7824 45.8717 41.1501 45.6222 41.4036 45.273C41.5841 45.0226 41.698 44.7305 41.7346 44.424C41.7527 44.248 41.7566 44.0709 41.7462 43.8943C41.7403 43.7043 41.7034 43.5164 41.6369 43.3382C41.5259 43.0318 41.3346 42.7608 41.0831 42.5535C40.8315 42.3462 40.529 42.2102 40.2069 42.1598C39.9651 42.1338 39.7217 42.1255 39.4787 42.135L23.8068 42.1482C23.6205 42.151 23.4355 42.18 23.2573 42.2343C23.0801 42.2907 22.9127 42.3738 22.7607 42.4809C22.4568 42.6922 22.2256 42.9922 22.0987 43.3399C21.8802 44.0218 21.9514 44.8444 22.4297 45.374C22.6601 45.6395 22.9625 45.8327 23.3003 45.9301C23.6313 46.031 23.9872 45.9946 24.3347 46.0013H26.3705L33.4161 46.0112L38.1662 46.0244L39.4572 46.0327H38.1662L33.4161 46.0459L26.3705 46.0559H23.8233C23.6431 46.0557 23.4637 46.0307 23.2904 45.9814C22.9335 45.8794 22.6144 45.675 22.3726 45.3935C22.1307 45.1119 21.9768 44.7656 21.9299 44.3975C21.9106 44.2117 21.9062 44.0246 21.9167 43.8381C21.9252 43.648 21.9631 43.4604 22.0292 43.282C22.1622 42.9186 22.403 42.6044 22.7194 42.3816C22.8786 42.2708 23.0531 42.1838 23.2374 42.1234C23.4244 42.0673 23.6182 42.0372 23.8134 42.034L39.4853 42.0473C39.7311 42.0377 39.9773 42.0466 40.2218 42.0738C40.4557 42.1121 40.6803 42.1941 40.8839 42.3154C41.2585 42.5374 41.5436 42.8834 41.6899 43.2935C41.9266 44.0648 41.7875 44.8179 41.4333 45.2647C41.1731 45.6168 40.7967 45.8654 40.3708 45.9665C40.3078 45.983 40.2436 45.9947 40.1788 46.0013C40.1324 46.0093 40.0853 46.0132 40.0381 46.0128C39.9603 46.0443 39.9206 46.0426 39.9206 46.0426Z" fill="#263238"/>
<path d="M24.5716 56.2959V57.6199C24.5717 57.6461 24.5649 57.6718 24.5517 57.6943C24.5385 57.7169 24.5195 57.7355 24.4967 57.7482C24.4738 57.7609 24.448 57.7672 24.4218 57.7665C24.3957 57.7658 24.3702 57.758 24.3481 57.744L23.3054 57.082C23.2846 57.0689 23.2674 57.0507 23.2555 57.0291C23.2436 57.0076 23.2373 56.9834 23.2373 56.9587C23.2373 56.9341 23.2436 56.9098 23.2555 56.8883C23.2674 56.8667 23.2846 56.8485 23.3054 56.8354L24.3481 56.1734C24.3701 56.1595 24.3954 56.1517 24.4214 56.1509C24.4474 56.1501 24.4731 56.1563 24.4959 56.1688C24.5187 56.1813 24.5378 56.1997 24.5511 56.222C24.5644 56.2444 24.5715 56.2699 24.5716 56.2959Z" fill="#E0E0E0"/>
<path d="M33.1368 56.9446C33.1368 57.1253 33.0832 57.302 32.9828 57.4522C32.8824 57.6025 32.7397 57.7196 32.5728 57.7887C32.4059 57.8578 32.2222 57.8759 32.0449 57.8407C31.8677 57.8054 31.7049 57.7184 31.5772 57.5907C31.4494 57.4629 31.3624 57.3001 31.3271 57.1229C31.2919 56.9457 31.31 56.762 31.3791 56.595C31.4483 56.4281 31.5654 56.2854 31.7156 56.185C31.8658 56.0846 32.0425 56.031 32.2232 56.031C32.4653 56.0315 32.6975 56.1279 32.8687 56.2991C33.0399 56.4703 33.1363 56.7025 33.1368 56.9446Z" fill="#E0E0E0"/>
<path d="M41.0762 56.1502H40.0087C39.8378 56.1502 39.6992 56.2888 39.6992 56.4597V57.5272C39.6992 57.6982 39.8378 57.8367 40.0087 57.8367H41.0762C41.2472 57.8367 41.3857 57.6982 41.3857 57.5272V56.4597C41.3857 56.2888 41.2472 56.1502 41.0762 56.1502Z" fill="#E0E0E0"/>
<path d="M42.2976 9.33297C42.24 9.33297 42.1837 9.31589 42.1358 9.28388C42.0879 9.25187 42.0506 9.20638 42.0285 9.15315C42.0065 9.09992 42.0007 9.04135 42.0119 8.98485C42.0232 8.92834 42.0509 8.87644 42.0917 8.8357C42.1324 8.79496 42.1843 8.76722 42.2408 8.75598C42.2973 8.74474 42.3559 8.75051 42.4091 8.77255C42.4623 8.7946 42.5078 8.83194 42.5398 8.87984C42.5719 8.92774 42.5889 8.98406 42.5889 9.04168C42.5889 9.11893 42.5582 9.19302 42.5036 9.24765C42.449 9.30228 42.3749 9.33297 42.2976 9.33297Z" fill="#263238"/>
<path d="M42.2975 10.1738C42.2396 10.1737 42.1829 10.1564 42.1349 10.124C42.0868 10.0916 42.0495 10.0457 42.0277 9.99194C42.0059 9.93823 42.0007 9.87924 42.0126 9.82252C42.0245 9.7658 42.0531 9.71393 42.0947 9.67354C42.1362 9.63315 42.1889 9.60608 42.2459 9.5958C42.303 9.58551 42.3618 9.59247 42.4149 9.61579C42.4679 9.63911 42.5128 9.67773 42.5438 9.72671C42.5748 9.77569 42.5905 9.8328 42.5888 9.89074C42.5867 9.96655 42.555 10.0385 42.5006 10.0914C42.4462 10.1442 42.3734 10.1738 42.2975 10.1738Z" fill="#263238"/>
<path d="M42.2976 11.0129C42.2401 11.0129 42.184 10.9959 42.1361 10.964C42.0883 10.9322 42.051 10.8869 42.0288 10.8338C42.0067 10.7808 42.0007 10.7224 42.0117 10.666C42.0227 10.6096 42.0501 10.5576 42.0905 10.5168C42.1309 10.4759 42.1825 10.4479 42.2388 10.4363C42.2951 10.4247 42.3535 10.43 42.4068 10.4515C42.4601 10.4731 42.5058 10.5099 42.5382 10.5574C42.5706 10.6048 42.5883 10.6608 42.5889 10.7183C42.5894 10.7568 42.5821 10.795 42.5677 10.8308C42.5533 10.8665 42.5319 10.899 42.5048 10.9264C42.4777 10.9538 42.4454 10.9756 42.4099 10.9904C42.3743 11.0052 42.3362 11.0129 42.2976 11.0129Z" fill="#263238"/>
<path d="M10.1626 59.6557C10.0716 59.2568 9.87629 58.7851 9.47079 58.7454C9.34947 58.7415 9.22932 58.7701 9.1228 58.8283C9.01629 58.8865 8.92728 58.9722 8.86503 59.0764C8.73552 59.2837 8.66143 59.5207 8.64987 59.7649C8.5528 61.4957 8.70159 63.2315 9.09178 64.9205L10.5813 65.0479C10.7171 63.2397 10.5759 61.4213 10.1626 59.6557Z" fill="#455A64"/>
<path d="M9.47101 58.7454C9.41655 58.807 9.3678 58.8735 9.32536 58.944C9.23173 59.1487 9.18859 59.3729 9.19957 59.5977C9.19957 59.8824 9.19957 60.2267 9.2244 60.604C9.24923 60.9814 9.2724 61.3985 9.32039 61.8321C9.41473 62.7027 9.53887 63.4872 9.61169 64.0565C9.64976 64.3412 9.67624 64.5729 9.69113 64.7318C9.69113 64.8063 9.70272 64.8675 9.70603 64.9172C9.70856 64.9386 9.70856 64.9603 9.70603 64.9817C9.69911 64.9613 9.69412 64.9402 9.69113 64.9188C9.69113 64.8692 9.67458 64.8079 9.663 64.7351C9.63817 64.5696 9.60341 64.3395 9.56204 64.0631C9.47763 63.4954 9.34522 62.7126 9.25088 61.8404C9.20288 61.4034 9.17309 60.9863 9.15985 60.6057C9.15985 60.417 9.15985 60.2349 9.14992 60.0661C9.13999 59.8973 9.14992 59.7351 9.14992 59.5961C9.14387 59.3663 9.19566 59.1386 9.30053 58.9341C9.34222 58.859 9.40053 58.7944 9.47101 58.7454Z" fill="#263238"/>
<path d="M10.267 59.1459C10.2769 59.1624 10.1941 59.2303 10.0832 59.2982C9.97235 59.366 9.87304 59.409 9.86311 59.3925C9.85318 59.3759 9.93594 59.3081 10.0468 59.2402C10.1577 59.1724 10.257 59.1293 10.267 59.1459Z" fill="#263238"/>
<path d="M10.5896 60.3375C10.5896 60.3557 10.4705 60.3706 10.3248 60.3375C10.1792 60.3044 10.0733 60.2498 10.0799 60.2333C10.0865 60.2167 10.199 60.2432 10.3381 60.2697C10.4771 60.2962 10.5913 60.3177 10.5896 60.3375Z" fill="#263238"/>
<path d="M8.75096 60.4418C8.75096 60.46 8.64007 60.4898 8.49774 60.4865C8.3554 60.4832 8.24285 60.4501 8.24616 60.4319C8.329 60.4117 8.4149 60.4072 8.49939 60.4187C8.63511 60.422 8.74765 60.422 8.75096 60.4418Z" fill="#263238"/>
<path d="M9.00056 59.3627C9.00056 59.3809 8.88636 59.3743 8.76885 59.3064C8.65134 59.2386 8.5901 59.1492 8.60334 59.1409C8.61658 59.1327 8.69603 59.1906 8.80361 59.2518C8.91119 59.3131 9.00387 59.3428 9.00056 59.3627Z" fill="#263238"/>
<path d="M10.6461 61.5921C10.6345 61.607 10.5253 61.5441 10.4012 61.4514C10.277 61.3587 10.1877 61.271 10.1993 61.2545C10.2108 61.2379 10.3201 61.3041 10.4425 61.3968C10.565 61.4895 10.6461 61.5772 10.6461 61.5921Z" fill="#263238"/>
<path d="M9.75735 60.566C9.7408 60.5742 9.68122 60.4915 9.62494 60.3806C9.56867 60.2697 9.53557 60.1721 9.55212 60.1638C9.56867 60.1555 9.62825 60.2383 9.68618 60.3491C9.74411 60.46 9.77556 60.5577 9.75735 60.566Z" fill="#263238"/>
<path d="M9.64307 61.9479C9.62652 61.9479 9.65796 61.8271 9.71589 61.6914C9.77382 61.5557 9.83506 61.4547 9.85161 61.463C9.86816 61.4713 9.83671 61.5855 9.77879 61.7195C9.72086 61.8536 9.66128 61.9562 9.64307 61.9479Z" fill="#263238"/>
<path d="M9.99202 63.4408C9.92704 63.3605 9.87967 63.2675 9.85299 63.1677C9.80595 63.0752 9.77995 62.9735 9.77686 62.8698C9.79506 62.8698 9.85795 62.9857 9.91588 63.1429C9.96277 63.2354 9.98876 63.3371 9.99202 63.4408Z" fill="#263238"/>
<path d="M8.86839 64.5216C8.85514 64.5083 8.92135 64.4223 9.01569 64.3312C9.11003 64.2402 9.19609 64.1773 9.20933 64.1906C9.22257 64.2038 9.15637 64.2899 9.06203 64.3809C8.96769 64.4719 8.88163 64.5348 8.86839 64.5216Z" fill="#263238"/>
<path d="M8.83511 62.3816C8.83511 62.3998 8.73581 62.3915 8.62657 62.3617C8.51734 62.3319 8.43127 62.2939 8.43624 62.2756C8.4412 62.2574 8.53389 62.2674 8.64478 62.2955C8.75567 62.3236 8.84008 62.3567 8.83511 62.3816Z" fill="#263238"/>
<path d="M11.6157 60.0016C11.6024 60.0165 11.5081 59.9503 11.4055 59.8543C11.3029 59.7583 11.2284 59.6706 11.24 59.6573C11.2515 59.6441 11.3475 59.7086 11.4502 59.8046C11.5528 59.9006 11.6289 59.9883 11.6157 60.0016Z" fill="#263238"/>
<path d="M14.9191 55.7497C14.9903 55.3358 14.9858 54.9124 14.9059 54.5001C14.8016 54.0946 14.5219 53.709 14.1197 53.5948C13.6596 53.4657 13.1614 53.7255 12.8701 54.1062C12.5789 54.4868 12.4564 54.9635 12.3471 55.4302C11.584 58.6356 11.1541 61.9114 11.0645 65.2051L12.9628 65.6057C14.037 62.2392 14.5169 59.2634 14.9191 55.7497Z" fill="#455A64"/>
<path d="M13.8549 53.5617C13.8549 53.5617 13.8549 53.5716 13.8449 53.5915L13.8069 53.6759L13.6562 53.9969C13.6248 54.0665 13.5834 54.1426 13.5487 54.2287L13.4361 54.5117C13.3947 54.6126 13.3517 54.7219 13.3054 54.8427L13.1796 55.2151C12.9783 55.8262 12.8126 56.4485 12.6831 57.0787C12.5291 57.7887 12.405 58.5799 12.2925 59.4107C12.0756 61.0774 11.9614 62.5951 11.8323 63.6907C11.7728 64.2386 11.7231 64.6838 11.6801 64.9867C11.6602 65.134 11.6437 65.2515 11.6304 65.3376L11.6172 65.4286C11.6172 65.4501 11.6172 65.46 11.6172 65.46V65.4286C11.6172 65.4038 11.6172 65.3723 11.6172 65.3359C11.6172 65.2498 11.6387 65.1323 11.6536 64.9834C11.6884 64.6772 11.7314 64.2336 11.7843 63.6858C11.8936 62.5901 12.0078 61.0708 12.2246 59.4024C12.3371 58.5749 12.4646 57.7771 12.6218 57.0655C12.7531 56.4314 12.9222 55.8058 13.1283 55.1919L13.259 54.8212C13.307 54.707 13.3534 54.5977 13.3947 54.4902C13.4361 54.3826 13.4775 54.2965 13.5139 54.2088C13.5503 54.1211 13.5934 54.0433 13.6281 53.9787L13.7936 53.6626L13.8366 53.5815C13.8423 53.5745 13.8483 53.5679 13.8549 53.5617Z" fill="#263238"/>
<path d="M14.0322 53.5749C14.1235 53.6996 14.193 53.839 14.2374 53.987C14.3558 54.3919 14.3857 54.8175 14.3251 55.2349C14.1994 56.2859 13.9941 57.7341 13.7624 59.3296C13.5307 60.9251 13.2791 62.3683 13.1004 63.4094C13.006 63.9307 12.9349 64.3511 12.8703 64.6407L12.8041 64.9718L12.7843 65.0578C12.7843 65.0777 12.7843 65.0876 12.776 65.0876C12.7745 65.0772 12.7745 65.0666 12.776 65.0562C12.776 65.033 12.776 65.0049 12.7892 64.9685L12.8438 64.6374C12.8935 64.3395 12.9647 63.9191 13.0507 63.4028C13.2262 62.3601 13.4612 60.9201 13.7012 59.3213C13.9412 57.7225 14.1447 56.2793 14.2821 55.2316C14.3469 54.8202 14.3255 54.3997 14.2192 53.9969C14.1695 53.851 14.107 53.7097 14.0322 53.5749Z" fill="#263238"/>
<path d="M15.0055 58.6113C14.8812 58.5933 14.7612 58.553 14.6513 58.4921C14.5305 58.4529 14.4182 58.3911 14.3203 58.3101C14.4444 58.329 14.5642 58.3693 14.6745 58.4292C14.795 58.4693 14.9072 58.531 15.0055 58.6113Z" fill="#263238"/>
<path d="M15.3746 56.6815C15.1457 56.814 14.8953 56.9053 14.6348 56.9513C14.8637 56.8187 15.1141 56.7274 15.3746 56.6815Z" fill="#263238"/>
<path d="M15.3679 55.0843C15.2738 55.1073 15.1756 55.1073 15.0816 55.0843C14.9851 55.0816 14.8905 55.0567 14.8052 55.0115C14.8992 54.9885 14.9974 54.9885 15.0915 55.0115C15.188 55.0142 15.2826 55.0392 15.3679 55.0843Z" fill="#263238"/>
<path d="M13.4693 53.9274C13.4527 53.9357 13.3766 53.8265 13.3038 53.6808C13.2463 53.5977 13.2084 53.5026 13.1929 53.4028C13.2094 53.4028 13.2872 53.5037 13.3584 53.6494C13.4156 53.7327 13.4535 53.8276 13.4693 53.9274Z" fill="#263238"/>
<path d="M12.7495 54.841C12.7495 54.8609 12.6254 54.8642 12.4764 54.851C12.3275 54.8377 12.2083 54.8112 12.21 54.7914C12.299 54.7664 12.3927 54.7635 12.4831 54.7831C12.5753 54.7807 12.6667 54.8006 12.7495 54.841Z" fill="#263238"/>
<path d="M12.1453 56.7295C12.1453 56.7477 12.0129 56.703 11.8656 56.6318C11.7183 56.5607 11.6074 56.4878 11.6157 56.4663C11.7151 56.4784 11.8106 56.5123 11.8954 56.5656C12.0427 56.6418 12.1536 56.7129 12.1453 56.7295Z" fill="#263238"/>
<path d="M11.9817 58.3432C11.9817 58.3614 11.8725 58.3928 11.7318 58.411C11.6472 58.4331 11.5583 58.4331 11.4736 58.411C11.4736 58.3912 11.5829 58.3614 11.7236 58.3415C11.8642 58.3217 11.9784 58.3233 11.9817 58.3432Z" fill="#263238"/>
<path d="M11.5743 60.9714C11.4917 61.0129 11.4003 61.0339 11.3079 61.0327C11.1606 61.0476 11.0398 61.0459 11.0381 61.0327C11.0364 61.0194 11.154 60.9863 11.3013 60.9698C11.4486 60.9532 11.5727 60.9516 11.5743 60.9714Z" fill="#263238"/>
<path d="M11.3242 62.4196C11.3325 62.4378 11.2299 62.4991 11.0974 62.557C10.965 62.6149 10.8525 62.648 10.8442 62.6315C10.8359 62.6149 10.9386 62.552 11.071 62.4941C11.2034 62.4362 11.3159 62.4031 11.3242 62.4196Z" fill="#263238"/>
<path d="M12.3985 64.1608C12.266 63.9915 12.1717 63.7956 12.1221 63.5865C12.2536 63.7563 12.3478 63.952 12.3985 64.1608Z" fill="#263238"/>
<path d="M12.938 61.4332C12.9496 61.4464 12.8487 61.554 12.7113 61.6699C12.5739 61.7857 12.4515 61.8701 12.4399 61.8553C12.4283 61.8404 12.5292 61.7344 12.6666 61.6186C12.804 61.5027 12.9248 61.4183 12.938 61.4332Z" fill="#263238"/>
<path d="M12.9631 59.9834C12.9482 59.995 12.8654 59.9172 12.7794 59.8096C12.6933 59.702 12.6354 59.606 12.6503 59.5944C12.6652 59.5828 12.7479 59.6606 12.834 59.7682C12.9201 59.8758 12.978 59.9718 12.9631 59.9834Z" fill="#263238"/>
<path d="M13.3306 58.1545C13.3438 58.1677 13.2594 58.272 13.1403 58.3879C13.0211 58.5037 12.9135 58.5848 12.9003 58.5716C12.887 58.5583 12.9731 58.4541 13.0923 58.3382C13.2114 58.2224 13.3173 58.1413 13.3306 58.1545Z" fill="#263238"/>
<path d="M13.559 56.8238C13.5457 56.837 13.4431 56.7444 13.3306 56.6169C13.218 56.4895 13.1386 56.3753 13.1518 56.3637C13.1651 56.3521 13.2693 56.4431 13.3819 56.5706C13.4944 56.698 13.5739 56.8122 13.559 56.8238Z" fill="#263238"/>
<path d="M13.956 55.033C13.9283 55.1296 13.8797 55.2189 13.8137 55.2945C13.721 55.4286 13.6333 55.5295 13.6167 55.518C13.6444 55.4214 13.693 55.3321 13.759 55.2565C13.8451 55.1224 13.9328 55.0214 13.956 55.033Z" fill="#263238"/>
<path d="M14.5604 53.3895C14.538 53.4856 14.4945 53.5756 14.4329 53.6527C14.3469 53.7884 14.2674 53.891 14.2476 53.8811C14.2697 53.7844 14.3132 53.6939 14.375 53.6163C14.4611 53.4806 14.5438 53.3796 14.5604 53.3895Z" fill="#263238"/>
<path d="M15.0634 54.1906C15.0634 54.2088 14.9905 54.2568 14.8846 54.2982C14.7787 54.3396 14.6877 54.3594 14.681 54.3429C14.6744 54.3263 14.7539 54.2767 14.8598 54.2353C14.9657 54.1939 15.0568 54.174 15.0634 54.1906Z" fill="#263238"/>
<path d="M14.6494 60.2167C14.5191 60.2099 14.3926 60.17 14.282 60.1009C14.1618 60.0511 14.0559 59.972 13.9741 59.8708C14.0899 59.9143 14.2008 59.9698 14.3051 60.0363C14.4256 60.0848 14.541 60.1452 14.6494 60.2167Z" fill="#263238"/>
<path d="M14.332 61.4779C14.2507 61.5206 14.1605 61.5432 14.0688 61.5441C13.9796 61.5652 13.8866 61.5652 13.7974 61.5441C13.7974 61.5242 13.9132 61.4945 14.0605 61.4779C14.2078 61.4613 14.3286 61.458 14.332 61.4779Z" fill="#263238"/>
<path d="M13.8966 63.6461C13.8834 63.6593 13.746 63.5484 13.6235 63.3697C13.5381 63.2682 13.481 63.146 13.458 63.0155C13.5391 63.1141 13.6112 63.2199 13.6732 63.3316C13.7566 63.4298 13.8314 63.535 13.8966 63.6461Z" fill="#263238"/>
<path d="M10.755 64.4289C10.7434 64.414 10.8278 64.3329 10.942 64.2485C11.0562 64.1641 11.1588 64.1062 11.1704 64.1227C11.182 64.1393 11.0976 64.2187 10.9834 64.3031C10.8692 64.3875 10.7666 64.4438 10.755 64.4289Z" fill="#263238"/>
<path d="M6.87707 57.3915C6.80169 57.0293 6.60784 56.7026 6.32612 56.4628C6.0444 56.2231 5.69086 56.084 5.3213 56.0675C4.65927 56.1833 4.40439 56.8338 4.32825 57.5008C4.25212 58.1677 4.45735 58.8248 4.65927 59.4686C5.3213 61.5209 5.97726 63.5721 6.62716 65.6222L8.49409 65.417C7.8966 62.6679 7.55897 60.1207 6.87707 57.3915Z" fill="#455A64"/>
<path d="M5.34939 56.0112C5.26708 56.1065 5.19185 56.2077 5.1243 56.3141C4.9534 56.6111 4.85634 56.9449 4.84128 57.2872C4.83359 57.7932 4.91137 58.2968 5.07134 58.7768C5.23685 59.3313 5.41394 59.9354 5.60262 60.5759L6.55264 63.8463C6.67015 64.2617 6.76449 64.5994 6.834 64.8394L6.90682 65.1108C6.91696 65.1421 6.92416 65.1742 6.92834 65.2068C6.91314 65.1774 6.90148 65.1463 6.89358 65.1141C6.87207 65.0463 6.84393 64.9569 6.80752 64.846L6.50629 63.8529C6.25638 63.0105 5.91378 61.8586 5.53476 60.5858C5.34939 59.9486 5.17064 59.3412 5.0101 58.7867C4.84979 58.2973 4.77586 57.7838 4.79163 57.269C4.8099 56.9173 4.91633 56.5758 5.10113 56.276C5.16965 56.1754 5.25341 56.086 5.34939 56.0112Z" fill="#263238"/>
<path d="M8.08068 65.2184C8.06345 65.1901 8.04904 65.1601 8.03765 65.129C8.01448 65.0694 7.97475 64.9817 7.93172 64.8675C7.844 64.6391 7.7298 64.3015 7.61229 63.8745C7.49478 63.4475 7.37893 62.9426 7.26638 62.375C7.15384 61.8073 7.03963 61.1816 6.9155 60.5246C6.79137 59.8675 6.64242 59.2518 6.47525 58.704C6.33021 58.2136 6.14932 57.7346 5.93404 57.2707C5.78856 56.9589 5.62269 56.657 5.43752 56.367C5.37297 56.2628 5.31504 56.1883 5.27201 56.1337C5.2509 56.1082 5.23362 56.0797 5.2207 56.0492C5.24386 56.0727 5.26491 56.0982 5.2836 56.1254C5.32166 56.1767 5.3829 56.2495 5.4491 56.3521C5.64661 56.637 5.82148 56.937 5.97211 57.2492C6.19569 57.7122 6.38274 58.192 6.53153 58.6841C6.69703 59.2402 6.84764 59.8609 6.9784 60.5163C7.10915 61.1717 7.21673 61.7973 7.32265 62.3683C7.42858 62.9393 7.54278 63.4441 7.65367 63.8662C7.76456 64.2882 7.87214 64.6275 7.95324 64.8592C7.98965 64.9751 8.02606 65.0645 8.04592 65.1257C8.06029 65.1555 8.07192 65.1865 8.08068 65.2184Z" fill="#263238"/>
<path d="M4.68771 59.1591C4.68771 59.1773 4.59006 59.2171 4.46096 59.2485C4.33186 59.28 4.22263 59.2899 4.21932 59.2717C4.21601 59.2535 4.31531 59.2138 4.44441 59.1823C4.57351 59.1509 4.68771 59.1393 4.68771 59.1591Z" fill="#263238"/>
<path d="M4.49416 57.888C4.3925 57.9166 4.28674 57.9278 4.18135 57.9211C4.0767 57.9385 3.96989 57.9385 3.86523 57.9211C3.96291 57.8755 4.07044 57.855 4.17804 57.8615C4.28398 57.8439 4.39265 57.853 4.49416 57.888Z" fill="#263238"/>
<path d="M4.70415 56.7295C4.69256 56.7444 4.5916 56.6782 4.47906 56.5838C4.36651 56.4895 4.28541 56.4001 4.297 56.3852C4.30859 56.3703 4.4112 56.4365 4.52375 56.5309C4.63629 56.6252 4.71573 56.7162 4.70415 56.7295Z" fill="#263238"/>
<path d="M5.27206 55.657C5.29027 55.657 5.2853 55.7513 5.28199 55.8606C5.27868 55.9698 5.28199 56.0608 5.26048 56.0641C5.23896 56.0674 5.21082 55.9764 5.21413 55.8589C5.21744 55.7414 5.25386 55.652 5.27206 55.657Z" fill="#263238"/>
<path d="M6.43018 56.1634C6.44674 56.1734 6.40039 56.2644 6.32922 56.367C6.25806 56.4696 6.18689 56.5441 6.16372 56.5325C6.14055 56.5209 6.19351 56.4299 6.26468 56.3273C6.33584 56.2247 6.41529 56.1519 6.43018 56.1634Z" fill="#263238"/>
<path d="M7.18337 57.4693C7.18337 57.4875 7.09399 57.5421 6.96821 57.5934C6.84242 57.6447 6.73484 57.6729 6.72656 57.6547C6.71829 57.6365 6.81594 57.5818 6.94172 57.5305C7.06751 57.4792 7.17013 57.4527 7.18337 57.4693Z" fill="#263238"/>
<path d="M7.63864 58.8149C7.55531 58.8857 7.45273 58.9301 7.34403 58.9423C7.24036 58.977 7.12886 58.9811 7.02295 58.9539C7.12348 58.9157 7.2287 58.8912 7.33576 58.8811C7.43336 58.8458 7.5352 58.8235 7.63864 58.8149Z" fill="#263238"/>
<path d="M5.54318 58.4326C5.52663 58.4326 5.54318 58.3333 5.57297 58.224C5.60276 58.1148 5.6491 58.032 5.66731 58.037C5.68552 58.042 5.66731 58.1363 5.63917 58.2455C5.61104 58.3548 5.56139 58.4375 5.54318 58.4326Z" fill="#263238"/>
<path d="M5.83643 60.1207C5.84287 60.0223 5.87174 59.9266 5.92084 59.841C5.98373 59.6937 6.04993 59.5812 6.06814 59.5878C6.06118 59.6862 6.03234 59.7817 5.98373 59.8675C5.91918 60.0148 5.85463 60.1274 5.83643 60.1207Z" fill="#263238"/>
<path d="M5.11477 60.5825C5.11477 60.6007 4.98898 60.5676 4.84664 60.5229C4.70431 60.4782 4.58845 60.4385 4.59342 60.4186C4.68637 60.4058 4.78106 60.4196 4.8665 60.4584C5.01877 60.5031 5.12139 60.566 5.11477 60.5825Z" fill="#263238"/>
<path d="M5.52997 61.9595C5.54155 61.9744 5.46211 62.0506 5.35287 62.125C5.24364 62.1995 5.14599 62.2525 5.1344 62.2376C5.12282 62.2227 5.20392 62.1466 5.31315 62.0721C5.42239 61.9976 5.51507 61.943 5.52997 61.9595Z" fill="#263238"/>
<path d="M5.86421 63.3316C5.86421 63.3498 5.76987 63.3895 5.64408 63.4193C5.5183 63.4491 5.41237 63.4607 5.4074 63.4425C5.40244 63.4243 5.50174 63.3846 5.62753 63.3531C5.75332 63.3217 5.85924 63.3134 5.86421 63.3316Z" fill="#263238"/>
<path d="M7.67669 59.9602C7.67669 59.9767 7.60221 60.0429 7.47808 60.0893C7.35395 60.1356 7.24802 60.1406 7.24471 60.1224C7.2414 60.1042 7.3374 60.0694 7.45491 60.0247C7.57242 59.9801 7.66676 59.9436 7.67669 59.9602Z" fill="#263238"/>
<path d="M7.9349 62.0953C7.92663 62.1118 7.82732 62.082 7.71146 62.0274C7.59561 61.9728 7.50789 61.9149 7.51617 61.8983C7.52444 61.8818 7.62375 61.9115 7.7396 61.9662C7.85546 62.0208 7.94318 62.0787 7.9349 62.0953Z" fill="#263238"/>
<path d="M8.39191 63.6229C8.28852 63.6185 8.18736 63.5914 8.09565 63.5434C7.99627 63.5154 7.90382 63.4669 7.82422 63.4011C7.92766 63.4051 8.02889 63.4323 8.12048 63.4806C8.27771 63.5418 8.39853 63.6047 8.39191 63.6229Z" fill="#263238"/>
<path d="M5.93701 64.8195C5.93701 64.803 6.04956 64.7202 6.19024 64.6093C6.33092 64.4984 6.44016 64.3991 6.45505 64.4124C6.46995 64.4256 6.38057 64.5481 6.23327 64.6639C6.15088 64.7423 6.04829 64.7962 5.93701 64.8195Z" fill="#263238"/>
<path d="M7.14567 64.0433C7.12581 64.0433 7.10098 63.9423 7.05298 63.8231C7.00499 63.704 6.95864 63.6096 6.97354 63.598C6.98843 63.5865 7.06788 63.6692 7.11753 63.7983C7.16718 63.9274 7.17049 64.0416 7.14567 64.0433Z" fill="#263238"/>
<path d="M6.82574 62.2061C6.81416 62.221 6.73637 62.1846 6.6503 62.1234C6.56424 62.0622 6.50631 61.9993 6.51624 61.9844C6.52617 61.9695 6.60562 62.0059 6.68175 62.0671C6.75788 62.1284 6.83898 62.1912 6.82574 62.2061Z" fill="#263238"/>
<path d="M14.7773 64.7831H5.04541V66.5077H14.7773V64.7831Z" fill="#0D92F4"/>
<path d="M5.77148 66.1667L6.95487 71.3207H12.7559L14.0502 66.1667H5.77148Z" fill="#0D92F4"/>
<path d="M14.7722 66.511C14.7722 66.5292 12.5759 66.5441 9.86982 66.5441C7.16376 66.5441 4.96582 66.5292 4.96582 66.511C4.96582 66.4928 7.16045 66.4762 9.86982 66.4762C12.5792 66.4762 14.7722 66.4944 14.7722 66.511Z" fill="#263238"/>
<path d="M54.355 57.3055C54.355 57.6365 59.5139 71.3737 59.5139 71.3737H61.5893L56.4453 57.3055H54.355Z" fill="#455A64"/>
<path d="M49.0391 56.6434H46.9702V71.372H49.0391V56.6434Z" fill="#455A64"/>
<path d="M60.4737 61.7477H53.8882V63.2141H60.4737V61.7477Z" fill="#455A64"/>
<path d="M58.4217 56.3836H46.9702V57.85H58.4217V56.3836Z" fill="#455A64"/>
<path d="M62.5295 67.1118H55.7139V68.5782H62.5295V67.1118Z" fill="#455A64"/>
<path d="M58.4879 57.8963C58.4879 57.9195 55.9044 57.9394 52.7183 57.9394C49.5323 57.9394 46.9487 57.9195 46.9487 57.8963C46.9487 57.8732 49.5307 57.8533 52.7183 57.8533C55.906 57.8533 58.4879 57.8715 58.4879 57.8963Z" fill="#263238"/>
<path d="M49.0787 71.372C49.0555 71.372 49.0356 68.3548 49.0356 64.6341C49.0356 60.9135 49.0555 57.8963 49.0787 57.8963C49.1018 57.8963 49.1217 60.9119 49.1217 64.6341C49.1217 68.3564 49.1035 71.372 49.0787 71.372Z" fill="#263238"/>
<path d="M59.5138 71.372C59.4907 71.372 58.3553 68.3548 56.9749 64.6143C55.5946 60.8738 54.4923 57.8368 54.5155 57.8285C54.5387 57.8202 55.6741 60.844 57.056 64.5845C58.438 68.325 59.5354 71.3637 59.5138 71.372Z" fill="#263238"/>
<path d="M61.6222 71.372C61.6007 71.372 60.4637 68.3548 59.0833 64.6143C57.703 60.8738 56.6007 57.8368 56.6239 57.8285C56.6471 57.8202 57.7825 60.844 59.1644 64.5845C60.5464 68.325 61.6438 71.3637 61.6222 71.372Z" fill="#263238"/>
<path d="M68.1068 26.1105C67.9529 25.4485 67.5789 24.8543 67.2098 24.28C66.6162 24.6467 65.9768 24.9333 65.3081 25.1324L65.5034 28.5783C66.2714 28.6014 67.1221 28.5601 67.6699 28.0222C68.1565 27.5472 68.2624 26.7808 68.1068 26.1105Z" fill="#FFBE9D"/>
<path d="M65.6673 20.0463L63.9907 23.853C64.6086 24.4601 65.0928 25.1896 65.4124 25.9947C66.4166 25.5014 67.3303 24.8423 68.1152 24.045C67.2926 22.898 66.3409 20.5809 65.6673 20.0463Z" fill="#0D92F4"/>
<path d="M63.3435 11.6302L62.6682 18.2026C62.5523 19.3197 62.1551 20.9384 60.3974 20.6753C58.888 20.3327 58.6497 18.8398 58.7589 17.7971C58.8102 17.3005 58.8516 16.8901 58.8532 16.8388C58.8532 16.8388 57.1981 16.5078 57.2461 14.8411C57.2693 14.0351 57.4547 12.3783 57.6384 10.8822C57.7338 10.1065 58.1179 9.39528 58.7142 8.89011C59.3104 8.38495 60.0751 8.12292 60.8559 8.15624H61.0214C62.746 8.33829 63.5652 9.90565 63.3435 11.6302Z" fill="#FFBE9D"/>
<path d="M58.8521 16.814C59.6213 16.8612 60.3871 16.6779 61.0517 16.2876C61.0517 16.2876 60.4873 17.4661 58.8306 17.2459L58.8521 16.814Z" fill="#EB996E"/>
<path d="M57.8519 11.7229C57.8801 11.7577 58.1168 11.7229 58.4114 11.8074C58.706 11.8918 58.8946 12.0705 58.9327 12.0556C58.9708 12.0407 58.9327 11.9927 58.85 11.9149C58.7316 11.8095 58.5915 11.7315 58.4395 11.6865C58.2936 11.6376 58.1379 11.6251 57.986 11.6501C57.8817 11.67 57.8387 11.7114 57.8519 11.7229Z" fill="#263238"/>
<path d="M60.411 12.1069C60.4507 12.1268 60.6443 11.9844 60.9472 11.9414C61.2501 11.8984 61.495 11.9613 61.5232 11.9298C61.5513 11.8984 61.4917 11.8769 61.3858 11.8438C61.2337 11.8027 61.0744 11.7954 60.9191 11.8222C60.7678 11.8432 60.6237 11.9 60.4987 11.9878C60.4143 12.0424 60.3911 12.0986 60.411 12.1069Z" fill="#263238"/>
<path d="M60.4206 12.6531C60.4186 12.7001 60.4346 12.7461 60.4654 12.7818C60.4961 12.8175 60.5393 12.8401 60.5861 12.8451C60.6093 12.8481 60.6329 12.8463 60.6554 12.84C60.678 12.8336 60.699 12.8228 60.7172 12.8081C60.7355 12.7934 60.7506 12.7752 60.7616 12.7545C60.7726 12.7339 60.7793 12.7112 60.7814 12.6879C60.7842 12.6404 60.7685 12.5938 60.7376 12.5577C60.7068 12.5216 60.6631 12.4988 60.6159 12.4942C60.5926 12.4917 60.569 12.4938 60.5466 12.5005C60.5241 12.5071 60.5032 12.5181 60.4851 12.5329C60.4669 12.5477 60.4519 12.5659 60.4408 12.5865C60.4297 12.6072 60.4228 12.6298 60.4206 12.6531Z" fill="#263238"/>
<path d="M57.9813 12.4578C57.9785 12.505 57.9942 12.5515 58.0251 12.5873C58.056 12.6232 58.0997 12.6456 58.1468 12.6498C58.1707 12.6528 58.1951 12.6508 58.2182 12.6439C58.2414 12.6371 58.2629 12.6255 58.2814 12.61C58.2999 12.5945 58.3149 12.5753 58.3257 12.5536C58.3364 12.532 58.3426 12.5084 58.3437 12.4843C58.3465 12.4369 58.3308 12.3902 58.3 12.3541C58.2691 12.318 58.2255 12.2952 58.1782 12.2906C58.1541 12.2876 58.1297 12.2897 58.1064 12.2966C58.0831 12.3036 58.0616 12.3153 58.043 12.331C58.0245 12.3467 58.0095 12.3661 57.9989 12.3879C57.9882 12.4097 57.9822 12.4335 57.9813 12.4578Z" fill="#263238"/>
<path d="M59.4709 13.7289C59.3376 13.6822 59.1993 13.6517 59.0588 13.6379C58.9926 13.6279 58.9313 13.6114 58.923 13.5667C58.9194 13.4989 58.9374 13.4317 58.9743 13.3747L59.1879 12.8782C59.4874 12.1797 59.7059 11.6054 59.6844 11.5938C59.6629 11.5823 59.3914 12.1384 59.0935 12.8352C59.0207 13.0007 58.9528 13.1662 58.8866 13.3317C58.8419 13.4092 58.8261 13.5001 58.8419 13.5882C58.8505 13.6114 58.8642 13.6323 58.882 13.6495C58.8997 13.6667 58.9211 13.6797 58.9446 13.6875C58.9805 13.6988 59.0178 13.7054 59.0554 13.7074C59.1925 13.732 59.332 13.7392 59.4709 13.7289Z" fill="#263238"/>
<path d="M60.6295 10.8573C60.6493 10.9219 60.8761 10.9004 61.1392 10.945C61.4024 10.9897 61.6143 11.0725 61.6523 11.0179C61.6689 10.9914 61.6341 10.9302 61.5514 10.8639C61.4398 10.7831 61.3103 10.7303 61.174 10.71C61.0393 10.6869 60.9009 10.6982 60.7718 10.7431C60.6659 10.7795 60.6146 10.8259 60.6295 10.8573Z" fill="#263238"/>
<path d="M57.9349 11.0675C57.9581 11.1205 58.1799 11.089 58.443 11.1122C58.7062 11.1354 58.9197 11.1917 58.9528 11.1437C58.9677 11.1205 58.9296 11.0692 58.8435 11.0195C58.725 10.9574 58.5949 10.9201 58.4614 10.9102C58.3279 10.9002 58.1938 10.9177 58.0673 10.9616C57.9713 10.998 57.925 11.0493 57.9349 11.0675Z" fill="#263238"/>
<path d="M63.1549 12.8583C63.1847 12.8484 64.3134 12.5687 64.2307 13.7074C64.1479 14.8461 63.0208 14.525 63.0225 14.4935C63.0241 14.4621 63.1549 12.8583 63.1549 12.8583Z" fill="#FFBE9D"/>
<path d="M63.4016 14.088C63.4016 14.088 63.4198 14.1029 63.4529 14.1212C63.4985 14.1444 63.5512 14.1491 63.6002 14.1344C63.6769 14.0928 63.7413 14.0318 63.787 13.9574C63.8326 13.883 63.8578 13.7979 63.8601 13.7107C63.8709 13.6133 63.859 13.5147 63.8253 13.4227C63.818 13.3858 63.8017 13.3514 63.7777 13.3225C63.7537 13.2936 63.7228 13.2711 63.6879 13.2572C63.6658 13.2487 63.6413 13.2486 63.6191 13.2568C63.5969 13.265 63.5784 13.281 63.5671 13.3019C63.5489 13.3333 63.5555 13.3565 63.5489 13.3582C63.5423 13.3598 63.5257 13.3366 63.539 13.2903C63.547 13.2625 63.5646 13.2385 63.5886 13.2224C63.6215 13.2015 63.6612 13.1938 63.6995 13.2009C63.7456 13.2138 63.7878 13.2381 63.8219 13.2717C63.8561 13.3053 63.8812 13.347 63.8948 13.3929C63.9353 13.4954 63.9506 13.6061 63.9395 13.7157C63.9147 13.9441 63.7823 14.1509 63.6085 14.1857C63.5774 14.1924 63.5451 14.192 63.5142 14.1846C63.4833 14.1771 63.4544 14.1628 63.4297 14.1427C63.4016 14.1145 63.3966 14.0897 63.4016 14.088Z" fill="#EB996E"/>
<path d="M59.6463 14.5448C59.6364 14.5151 59.8664 14.4737 60.0468 14.2833C60.1224 14.1996 60.1864 14.1061 60.2372 14.0053C60.2802 13.9275 60.3116 13.8795 60.3232 13.8845C60.3348 13.8894 60.3232 13.9441 60.2968 14.0318C60.2587 14.1485 60.1961 14.2558 60.113 14.3462C60.0264 14.4363 59.9173 14.5014 59.7969 14.5349C59.7075 14.5597 59.648 14.5548 59.6463 14.5448Z" fill="#263238"/>
<path d="M56.3444 9.68719C56.2925 9.70285 56.2455 9.73189 56.2084 9.77139C56.1712 9.8109 56.145 9.85948 56.1326 9.91228C56.1205 9.99111 56.1349 10.0717 56.1736 10.1415C56.2122 10.2113 56.2729 10.2663 56.3461 10.2979C56.4203 10.3276 56.5011 10.3374 56.5803 10.3264C56.6596 10.3154 56.7345 10.2839 56.7979 10.235C56.7365 10.2681 56.6807 10.3106 56.6324 10.3608C56.5868 10.4142 56.562 10.4822 56.5623 10.5525C56.5627 10.6227 56.5883 10.6904 56.6344 10.7434C56.6805 10.7963 56.7441 10.8309 56.8136 10.8409C56.8831 10.8509 56.9539 10.8356 57.0131 10.7977C57.051 10.8892 57.0842 10.9825 57.1124 11.0775V11.0957C57.1322 11.1536 57.1521 11.2115 57.1786 11.2612L57.4848 12.0523C57.5625 11.5889 57.599 10.9268 57.6767 10.4651C58.0279 10.4953 58.3815 10.4541 58.7162 10.344C59.051 10.2339 59.3601 10.0572 59.6248 9.82456C59.9111 9.57299 60.1511 9.24363 60.5102 9.11453C60.9737 8.94902 61.4768 9.16584 61.9204 9.37934L61.9038 9.35948C62.1317 9.49895 62.3307 9.68101 62.4897 9.89573C62.28 10.8027 62.2675 11.7442 62.4533 12.6564C62.4814 12.7938 62.5692 13.0784 62.6933 13.1529C62.9366 13.2804 63.0342 13.0288 63.203 12.908C63.3495 12.8311 63.5188 12.8099 63.6797 12.8484C63.8506 12.4772 63.9998 12.0965 64.1266 11.708L64.3302 11.3257V10.8689C64.1398 10.4419 64.6612 10.2929 64.5867 9.83283C64.5122 9.37272 64.3136 8.88116 63.8949 8.67428H63.8833C63.5092 8.47071 63.026 8.41278 62.6718 8.64945C62.6602 8.05031 62.1984 7.524 61.6407 7.30718C60.9712 7.09482 60.2565 7.06907 59.5735 7.23271C59.1282 7.35518 58.6748 7.65806 58.1153 8.11652C57.8787 8.31016 57.5758 9.02019 57.3755 9.24859L56.3444 9.68719Z" fill="#263238"/>
<path d="M62.4071 6.74612C62.4866 6.76929 64.3932 7.50745 64.668 9.04833C64.9427 10.5892 64.7325 11.0195 64.7325 11.0195C64.8018 11.0794 64.862 11.1491 64.9113 11.2264C64.9791 11.3357 64.7921 11.7809 64.5422 11.6898C62.7431 10.5528 60.4757 10.1291 57.9219 9.83284L55.9821 9.52003C55.4277 9.50348 55.2588 9.32969 55.5088 9.22708C55.6991 9.14929 57.3293 8.75704 57.3293 8.75704L57.6604 8.5816L58.6286 7.58855C58.6286 7.58855 58.5525 7.42304 58.7676 7.31877C58.9828 7.2145 60.8315 6.28931 62.4071 6.74612Z" fill="#0D92F4"/>
<path d="M57.6753 8.58657L57.7514 8.59815L57.9699 8.62463C58.1586 8.64449 58.4317 8.68753 58.7676 8.74545C59.6401 8.90653 60.4969 9.14356 61.3281 9.45383C62.1583 9.76583 62.9701 10.125 63.7594 10.5296C64.0639 10.6819 64.3089 10.811 64.4777 10.8971C64.5555 10.9384 64.6183 10.9715 64.673 10.998L64.7408 11.0311L64.6746 10.9931L64.4826 10.8871C64.3171 10.7961 64.0738 10.6637 63.771 10.5081C62.9829 10.0968 62.1704 9.73416 61.338 9.42238C60.5058 9.11007 59.6465 8.8757 58.771 8.72228C58.0973 8.60974 57.6753 8.58657 57.6753 8.58657Z" fill="#263238"/>
<g opacity="0.3">
<path d="M64.0783 7.88316C64.0783 7.88316 62.0045 7.22113 60.9867 7.54221L61.1058 7.50249L60.1475 7.76565C60.0706 7.79904 59.9872 7.81501 59.9034 7.81244C59.8196 7.80986 59.7373 7.7888 59.6626 7.75075C60.1186 7.48507 60.6196 7.30554 61.1406 7.22113C62.0724 7.05231 63.504 7.13175 64.0783 7.88316Z" fill="black"/>
</g>
<path d="M64.1052 7.90467C64.054 7.8492 63.9987 7.79774 63.9396 7.75075C63.7749 7.62011 63.5955 7.50903 63.4051 7.41973C63.1226 7.28889 62.8227 7.1997 62.5146 7.15492C62.1373 7.0908 61.7506 7.10886 61.3809 7.20788C61.1904 7.26295 61.0036 7.32984 60.8215 7.40815C60.646 7.48262 60.4756 7.54717 60.3167 7.62496C60.1718 7.70392 60.0207 7.7709 59.8648 7.82523C59.7277 7.86492 59.5832 7.87229 59.4428 7.84674C58.9198 7.77723 58.6153 7.62165 58.6434 7.59186C58.6496 7.61159 58.6625 7.62855 58.6798 7.63986C58.7274 7.67158 58.7785 7.69769 58.8321 7.71765C59.0283 7.79053 59.232 7.8416 59.4395 7.86991C59.5835 7.89745 59.7319 7.89121 59.8731 7.85171C60.0308 7.79805 60.1836 7.73106 60.3299 7.65144C60.4855 7.57696 60.6609 7.51242 60.8264 7.43794C61.0087 7.36124 61.1955 7.29602 61.3859 7.24264C61.7513 7.14553 62.1332 7.12691 62.5063 7.18802C62.8122 7.23103 63.1103 7.31741 63.3918 7.44456C63.5823 7.52923 63.7623 7.63588 63.9281 7.76233C63.9876 7.80537 64.0323 7.84178 64.0621 7.86826L64.1052 7.90467Z" fill="#263238"/>
<g opacity="0.3">
<path d="M64.7671 9.69381C64.4155 9.62172 64.073 9.5107 63.7459 9.36279C63.357 9.21549 62.968 9.08639 62.5874 8.92089C62.2961 8.7951 61.9502 8.66931 61.7847 8.42436C61.7589 8.4967 61.7522 8.57445 61.7653 8.65011C61.7783 8.72577 61.8107 8.7968 61.8591 8.85634C62.0341 9.0124 62.2337 9.13825 62.45 9.22873C63.1972 9.59002 63.9821 9.86756 64.7903 10.0563C64.787 9.93754 64.7754 9.81919 64.7555 9.70208" fill="black"/>
</g>
<path d="M64.6296 8.88448C64.8564 9.0235 64.9937 9.11619 64.9706 9.32307C64.9507 9.48858 64.8845 9.69878 64.7124 9.70374C64.6593 9.70206 64.6071 9.69026 64.5584 9.66899L62.008 8.75207C61.918 8.73078 61.8384 8.67866 61.7829 8.60477C61.7568 8.53926 61.7573 8.46618 61.7842 8.401C61.811 8.33582 61.8622 8.28366 61.9269 8.25555C62.0596 8.20586 62.2038 8.19551 62.3423 8.22576C63.1313 8.34144 63.9008 8.56417 64.6296 8.88779" fill="#0D92F4"/>
<path d="M61.8176 8.64945C61.7893 8.61263 61.7706 8.56944 61.763 8.52367C61.7567 8.46151 61.7681 8.39883 61.7959 8.34289C61.8237 8.28695 61.8668 8.24003 61.9202 8.20755C62.0926 8.13326 62.2853 8.11983 62.4664 8.16948C62.6766 8.21086 62.9066 8.25885 63.1449 8.31844C63.5544 8.4162 63.9543 8.55024 64.3399 8.71896C64.4872 8.78351 64.6031 8.8431 64.6825 8.88447L64.7752 8.93413C64.7967 8.94406 64.8066 8.95068 64.8083 8.94902L64.7785 8.92751L64.6891 8.87289C64.6113 8.8282 64.4971 8.76365 64.3581 8.69579C63.9738 8.51984 63.5729 8.38235 63.1615 8.28533C62.9215 8.22575 62.6915 8.17775 62.4813 8.13803C62.2933 8.088 62.0937 8.10497 61.9169 8.18603C61.8606 8.21972 61.8152 8.26877 61.7859 8.32741C61.7565 8.38604 61.7446 8.45184 61.7514 8.51705C61.7568 8.55226 61.7704 8.58572 61.7911 8.6147L61.8176 8.64945Z" fill="#263238"/>
<path d="M58.3402 7.90467L59.9985 8.11321L59.79 8.55842L57.9976 8.25554L58.3402 7.90467Z" fill="white"/>
<path d="M60.6293 9.74016C60.6293 9.74016 59.911 9.51838 59.0173 9.26349C58.1236 9.00861 57.3986 8.80669 57.397 8.81662C57.3953 8.82655 58.1153 9.0384 59.009 9.29494C59.9028 9.55148 60.6293 9.75009 60.6293 9.74016Z" fill="#263238"/>
<path d="M72.3407 32.3353L73.1865 30.1373L75.3381 29.1824L77.0014 30.4766L77.4731 30.0033C77.2696 29.1267 76.8362 28.3202 76.2174 27.6669C75.5987 27.0135 74.817 26.5368 73.9528 26.286C73.0886 26.0351 72.1731 26.0191 71.3007 26.2396C70.4283 26.4601 69.6304 26.9092 68.9892 27.5405L46.6953 19.0169C46.6422 18.119 46.351 17.2514 45.8515 16.5033C45.3521 15.7553 44.6624 15.1537 43.8535 14.7605C43.0445 14.3673 42.1454 14.1967 41.2486 14.2661C40.3518 14.3355 39.4897 14.6425 38.7509 15.1556L38.2792 15.6273L40.8876 15.9781L41.8426 18.1298L40.9968 20.326L38.8452 21.2827L36.5761 20.5925L36.2368 20.9335C36.7135 22.2823 38.3884 23.4856 39.8234 24.04C40.7298 24.3892 41.7175 24.4701 42.6687 24.2732C43.6198 24.0763 44.4942 23.6098 45.1875 22.9295L67.4847 31.4564C67.5443 32.4262 67.8814 33.3584 68.456 34.142C69.0306 34.9255 69.8183 35.5272 70.7254 35.8755C72.354 36.5011 74.3086 36.3224 75.6409 35.3988L73.3007 34.4852L72.3407 32.3353Z" fill="#E0E0E0"/>
<g opacity="0.3">
<path d="M72.3407 32.3353L73.1865 30.1373L75.3381 29.1824L77.0014 30.4766L77.4731 30.0033C77.2696 29.1267 76.8362 28.3202 76.2174 27.6669C75.5987 27.0135 74.817 26.5368 73.9528 26.286C73.0886 26.0351 72.1731 26.0191 71.3007 26.2396C70.4283 26.4601 69.6304 26.9092 68.9892 27.5405L46.6953 19.0169C46.6422 18.119 46.351 17.2514 45.8515 16.5033C45.3521 15.7553 44.6624 15.1537 43.8535 14.7605C43.0445 14.3673 42.1454 14.1967 41.2486 14.2661C40.3518 14.3355 39.4897 14.6425 38.7509 15.1556L38.2792 15.6273L40.8876 15.9781L41.8426 18.1298L40.9968 20.326L38.8452 21.2827L36.5761 20.5925L36.2368 20.9335C36.7035 22.3072 38.3636 23.479 39.8234 24.04C40.7298 24.3892 41.7175 24.4701 42.6687 24.2732C43.6198 24.0763 44.4942 23.6098 45.1875 22.9295L67.4847 31.4564C67.5443 32.4262 67.8814 33.3584 68.456 34.142C69.0306 34.9255 69.8183 35.5272 70.7254 35.8755C72.354 36.5011 74.3086 36.3224 75.6409 35.3988L73.3007 34.4852L72.3407 32.3353Z" fill="black"/>
</g>
<path d="M71.8692 32.807L72.7117 30.609L74.8633 29.6541L76.9983 30.4816C76.7946 29.6052 76.3611 28.7989 75.7424 28.1457C75.1237 27.4925 74.3421 27.0158 73.4781 26.7648C72.614 26.5139 71.6987 26.4976 70.8263 26.7177C69.9539 26.9378 69.1559 27.3863 68.5144 28.0172L46.2304 19.4902C46.1768 18.5926 45.8853 17.7253 45.3858 16.9776C44.8862 16.2298 44.1966 15.6285 43.3878 15.2354C42.5791 14.8423 41.6802 14.6716 40.7836 14.7407C39.887 14.8099 39.025 15.1164 38.286 15.6289L40.4211 16.4565L41.3777 18.6081L40.532 20.806L38.3804 21.761L36.2437 20.9334C36.4472 21.8093 36.8803 22.6151 37.4984 23.2681C38.1165 23.9212 38.8972 24.3979 39.7605 24.6493C40.6238 24.9007 41.5385 24.9178 42.4105 24.6987C43.2826 24.4796 44.0806 24.0324 44.7226 23.4028L67.0232 31.9281C67.0776 32.8253 67.3698 33.6919 67.8698 34.4388C68.3698 35.1858 69.0596 35.7862 69.8683 36.1784C70.6771 36.5706 71.5756 36.7406 72.4718 36.6708C73.3679 36.601 74.2293 36.2939 74.9675 35.7812L72.8325 34.9536L71.8692 32.807Z" fill="#E0E0E0"/>
<path d="M46.0648 20.4733C46.0717 20.5183 46.0717 20.5641 46.0648 20.6091C46.0623 20.7332 46.0518 20.857 46.0333 20.9798C45.9727 21.3858 45.8511 21.7803 45.6725 22.1499C45.4954 22.5197 45.2626 22.8602 44.9824 23.1595C44.8985 23.2512 44.8083 23.3369 44.7126 23.4161C44.6447 23.4707 44.6067 23.5005 44.6017 23.4955C44.5967 23.4906 44.7358 23.3548 44.9327 23.1198C45.4596 22.5051 45.8167 21.7634 45.9688 20.9682C46.0433 20.6653 46.0648 20.4733 46.0648 20.4733Z" fill="#263238"/>
<path d="M71.869 32.807L71.9319 32.9444C71.9749 33.037 72.0362 33.1728 72.1173 33.3532L72.8356 34.9536L74.9723 35.7712L75.0021 35.7828L74.9756 35.801C74.3871 36.2091 73.7204 36.4909 73.0176 36.6286C72.125 36.7982 71.2033 36.7258 70.3482 36.4187C69.4931 36.1116 68.7358 35.5812 68.155 34.8825C67.4648 34.0465 67.0549 33.0148 66.9832 31.9331L67.0031 31.9596L44.6976 23.4409L44.7406 23.4326C44.1108 24.0444 43.3356 24.4858 42.488 24.7153C41.6213 24.9528 40.7066 24.9528 39.8399 24.7153C38.9556 24.4783 38.1512 24.0079 37.5112 23.3532C36.8605 22.6841 36.403 21.8514 36.1872 20.9434L36.1689 20.8656L36.2451 20.8937L38.3801 21.7213H38.347L40.4986 20.7663L40.4755 20.7895L41.3212 18.5932V18.623L40.3679 16.4714L40.3911 16.4929L38.256 15.6653L38.1799 15.6355L38.2461 15.5892C39.0041 15.0615 39.8912 14.7497 40.8127 14.687C41.7341 14.6243 42.6553 14.8132 43.4778 15.2334C44.2833 15.6367 44.9654 16.2496 45.4523 17.0076C45.9303 17.7524 46.21 18.607 46.2649 19.4902L46.2368 19.4555L68.5274 27.9874H68.4959C69.2556 27.2479 70.2248 26.7607 71.2715 26.5922C72.1668 26.4506 73.0836 26.5505 73.9274 26.8816C74.7711 27.2127 75.5112 27.763 76.0712 28.4756C76.5283 29.0615 76.854 29.7389 77.0262 30.4617V30.4982L76.9915 30.4849L74.8564 29.6574H74.8697L72.7181 30.609C72.4268 31.3604 72.2133 31.9083 72.0726 32.2641C72.0031 32.4445 71.9501 32.5769 71.9153 32.6663C71.8806 32.7557 71.8624 32.7971 71.8624 32.7971C71.8624 32.7971 71.8756 32.754 71.9087 32.6663C71.9418 32.5786 71.9931 32.4429 72.061 32.2641C72.1984 31.9017 72.4086 31.3505 72.6965 30.5958L74.8481 29.6359L77.0146 30.4568L76.9882 30.4799C76.8165 29.761 76.4919 29.0876 76.0365 28.5054C75.4808 27.8022 74.7479 27.2597 73.9131 26.9336C73.0782 26.6075 72.1716 26.5097 71.2864 26.6501C70.2526 26.8196 69.2959 27.3026 68.5456 28.0337L68.5307 28.0486L68.5125 28.0404L46.2087 19.5266L46.1822 19.5184V19.4902C46.1301 18.5994 45.8415 17.7386 45.3461 16.9964C44.8507 16.2542 44.1664 15.6574 43.3637 15.2676C42.561 14.8778 41.6689 14.709 40.7793 14.7786C39.8896 14.8483 39.0346 15.1538 38.3023 15.6637L38.2924 15.5875L40.4291 16.4151H40.4457V16.43C40.7623 17.1439 41.0807 17.8611 41.4007 18.5816V18.5965V18.613C41.111 19.3661 40.823 20.1158 40.5549 20.811V20.8275L40.5384 20.8358L38.3867 21.7908H38.3702H38.3536L36.2186 20.9632L36.2765 20.9136C36.4812 21.7992 36.9232 22.6124 37.555 23.2659C38.1869 23.9193 38.9848 24.3884 39.8631 24.6226C40.7151 24.8569 41.6145 24.8569 42.4665 24.6226C43.3009 24.3973 44.0641 23.9633 44.6843 23.3615L44.7025 23.3432L44.7274 23.3532L67.0229 31.9033H67.0411V31.9215C67.1126 32.9919 67.5178 34.0129 68.1997 34.8411C68.7748 35.5316 69.5237 36.0563 70.3691 36.3609C71.2146 36.6655 72.126 36.7391 73.0093 36.5739C73.7065 36.4394 74.3685 36.1628 74.9541 35.7613V35.7911L72.819 34.9636C72.5079 34.2568 72.2712 33.7173 72.1106 33.3548L71.9335 32.9444C71.8839 32.8533 71.869 32.807 71.869 32.807Z" fill="#263238"/>
<path d="M56.8821 19.2138L55.2965 31.8752C55.2595 32.1727 55.3324 32.4734 55.5016 32.7209C55.6708 32.9684 55.9245 33.1455 56.2151 33.2191L64.3895 34.6342C64.5038 34.6541 64.6211 34.6489 64.7332 34.6191C64.8453 34.5892 64.9496 34.5353 65.0388 34.4612C65.1281 34.3871 65.2001 34.2944 65.2501 34.1897C65.3 34.085 65.3266 33.9707 65.328 33.8547C65.3478 32.1119 65.419 28.3399 65.6672 25.9897C65.9403 23.3979 66.6338 21.2827 65.6672 20.0463C64.7007 18.81 63.0191 17.9493 63.0191 17.9493L62.8354 17.1731C62.8354 17.1731 59.3068 17.1731 58.6977 17.706L58.3237 18.3532L56.8821 19.2138Z" fill="#0D92F4"/>
<path d="M66.013 22.1284C66.0181 22.1552 66.0181 22.1827 66.013 22.2095C66.013 22.2724 66.013 22.3502 66.0015 22.4429C65.9866 22.658 65.9651 22.9394 65.9402 23.2986C65.8856 24.0202 65.8045 25.0165 65.7085 26.1122C65.6125 27.2079 65.5198 28.2092 65.4503 28.9258C65.4139 29.275 65.3841 29.563 65.3609 29.7782L65.3328 30.0099C65.3321 30.037 65.327 30.0638 65.3179 30.0893C65.314 30.0625 65.314 30.0351 65.3179 30.0082C65.3179 29.9437 65.3179 29.8676 65.3295 29.7749C65.3444 29.5597 65.3659 29.2784 65.3907 28.9192C65.4454 28.1976 65.5281 27.1996 65.6241 26.1056C65.7201 25.0116 65.8111 24.0102 65.8823 23.2919C65.9187 22.9411 65.9468 22.6531 65.97 22.4379C65.9816 22.3469 65.9899 22.2724 65.9982 22.2062C66.0001 22.1798 66.0051 22.1537 66.013 22.1284Z" fill="#263238"/>
<path d="M63.0126 17.9493C62.9523 17.9628 62.8907 17.9689 62.8289 17.9676L62.3324 17.9924C61.907 18.0139 61.3211 18.0503 60.6773 18.1099C60.0335 18.1695 59.4492 18.2373 59.0222 18.2853L58.5257 18.3416C58.4647 18.3536 58.4023 18.3569 58.3403 18.3515C58.3988 18.3309 58.4593 18.3165 58.5207 18.3085C58.6382 18.287 58.8071 18.2588 59.0173 18.2257C59.4393 18.1612 60.0219 18.0834 60.6723 18.0238C61.3228 17.9642 61.907 17.9361 62.3274 17.9311C62.5393 17.9311 62.7114 17.9311 62.8239 17.9311C62.8874 17.9286 62.9508 17.9347 63.0126 17.9493Z" fill="#263238"/>
<path d="M50.0585 51.2677L51.4487 54.3661C51.4487 54.3661 47.791 55.796 47.7612 56.4779L54.8781 56.3488L54.8698 55.7547L53.2991 50.6454L50.0585 51.2677Z" fill="#0D92F4"/>
<path d="M53.5324 53.8017C53.6018 53.8215 53.6613 53.8662 53.6995 53.9274C53.7377 53.9885 53.7519 54.0617 53.7393 54.1327C53.7223 54.202 53.6794 54.2621 53.6193 54.3006C53.5592 54.3391 53.4866 54.3531 53.4166 54.3396C53.3437 54.319 53.2811 54.272 53.241 54.2077C53.2009 54.1434 53.1862 54.0665 53.1997 53.992C53.2246 53.9214 53.276 53.8632 53.3431 53.8298C53.4101 53.7964 53.4875 53.7905 53.5589 53.8133" fill="#E0E0E0"/>
<path d="M54.8781 56.3422L54.8698 55.748L48.036 56.1039C48.036 56.1039 47.7216 56.2479 47.7613 56.4713L54.8781 56.3422Z" fill="#263238"/>
<path d="M51.3312 54.3247C51.3312 54.3594 51.5083 54.371 51.6804 54.4802C51.8526 54.5895 51.9469 54.7335 51.9783 54.7186C52.0098 54.7037 51.9552 54.5051 51.7433 54.3776C51.5315 54.2502 51.3246 54.2932 51.3312 54.3247Z" fill="#263238"/>
<path d="M50.5911 54.6474C50.5829 54.6805 50.7351 54.7368 50.856 54.8824C50.9768 55.0281 51.0132 55.182 51.0479 55.1787C51.0827 55.1754 51.1009 54.9801 50.947 54.803C50.7931 54.6259 50.5911 54.6143 50.5911 54.6474Z" fill="#263238"/>
<path d="M50.1823 55.5478C50.2154 55.5478 50.2601 55.3823 50.1674 55.1919C50.0747 55.0016 49.9109 54.9304 49.896 54.9586C49.8811 54.9867 49.9853 55.0877 50.0615 55.2449C50.1376 55.4021 50.1492 55.5445 50.1823 55.5478Z" fill="#263238"/>
<path d="M51.0727 53.517C51.0876 53.5484 51.2465 53.4971 51.4434 53.5071C51.6404 53.517 51.7943 53.5766 51.8109 53.5468C51.8274 53.517 51.6784 53.3945 51.4467 53.3813C51.215 53.368 51.0545 53.4905 51.0727 53.517Z" fill="#263238"/>
<path d="M62.3407 61.276L62.4996 67.183L59.393 67.1747L59.2275 61.4117L62.3407 61.276Z" fill="#0D92F4"/>
<path d="M60.9605 66.8834C60.9356 66.8834 60.8959 65.6239 60.8744 64.0698C60.8529 62.5157 60.8545 61.2561 60.8744 61.2561C60.8943 61.2561 60.939 62.514 60.9605 64.0698C60.982 65.6256 60.9836 66.8834 60.9605 66.8834Z" fill="#263238"/>
<path d="M59.3398 65.3359C59.3579 65.2895 59.3836 65.2464 59.416 65.2085C59.4967 65.0992 59.5876 64.9978 59.6874 64.9056C59.8349 64.7659 60.0022 64.6488 60.1839 64.558C60.4986 64.396 60.857 64.339 61.2064 64.3956C61.5558 64.4522 61.8779 64.6194 62.1253 64.8725C62.2191 64.971 62.2983 65.0825 62.3604 65.2035C62.3859 65.2464 62.4038 65.2935 62.4133 65.3425C62.315 65.1918 62.2043 65.0495 62.0823 64.9172C61.7652 64.6183 61.3429 64.4565 60.9072 64.467C60.473 64.4908 60.0601 64.6625 59.7371 64.9536C59.4706 65.1704 59.3531 65.3359 59.3398 65.3359Z" fill="#263238"/>
<path d="M62.4879 67.1879L59.3962 67.1747L59.373 66.4763L62.4912 66.4912L62.4879 67.1879Z" fill="#263238"/>
<path d="M62.8192 34.3263L56.0251 33.1529L55.9953 33.8894C54.3551 35.2035 49.984 38.9606 47.3442 41.5342C47.3442 41.5342 46.366 42.8318 46.7533 44.0284L50.4177 53.4193L54.6199 52.4495L52.0562 44.5051L59.9426 40.8209C61.4769 40.2548 62.8572 38.3184 63.1833 37.2095C63.463 36.2578 62.8605 35.5445 62.8192 34.3263Z" fill="#263238"/>
<path d="M57.4102 41.7792L59.0272 63.4706L63.0424 63.5716C63.0424 63.5716 63.7326 57.1664 63.6465 53.0751C63.5604 48.9837 63.5555 38.954 63.5555 38.954L57.4102 41.7792Z" fill="#263238"/>
<path d="M62.8187 34.3264L64.9405 34.717C64.9405 34.717 65.0183 39.9205 64.8677 40.4435C64.7171 40.9665 63.4526 42.4627 63.4526 42.4627L57.5605 43.5882V38.9258L62.8187 34.3264Z" fill="#263238"/>
<path d="M63.4531 37.0887L63.6054 38.5534H65.2174L64.9427 37.0887H63.4531Z" fill="#263238"/>
<path d="M62.2743 38.5534C62.2604 38.5918 62.2433 38.6289 62.223 38.6643C62.1736 38.7699 62.1183 38.8727 62.0575 38.9722C61.8328 39.3426 61.5539 39.6774 61.23 39.9652C60.7491 40.388 60.2156 40.7468 59.6427 41.0327C59.0039 41.3637 58.2756 41.6749 57.5242 42.0258L53.6646 43.7951L52.4895 44.3214L52.1684 44.4604C52.1322 44.4792 52.0938 44.4937 52.0542 44.5034C52.0888 44.4819 52.1247 44.4625 52.1618 44.4455L52.4762 44.2916L53.6348 43.7388L57.4845 41.9447C58.2359 41.5938 58.9642 41.2826 59.6014 40.9599C60.1702 40.6803 60.7017 40.3305 61.1836 39.9189C61.5062 39.6381 61.7876 39.3133 62.0194 38.9539C62.1899 38.7007 62.2644 38.5485 62.2743 38.5534Z" fill="#455A64"/>
<path d="M63.6463 42.1648C63.2438 42.467 62.8244 42.7461 62.3901 43.0006C61.9702 43.2795 61.5348 43.5342 61.0859 43.7636C61.4896 43.4621 61.9095 43.1831 62.3438 42.9278C62.7633 42.6491 63.1981 42.3944 63.6463 42.1648Z" fill="#455A64"/>
<path d="M64.9426 37.0887C64.9883 37.2212 65.0226 37.3574 65.0452 37.4958C65.0998 37.7524 65.1743 38.1181 65.257 38.5468L65.267 38.5931H65.2173H64.4196H63.6053H63.5688V38.5584C63.5275 38.1281 63.4944 37.7623 63.4745 37.5024C63.4556 37.3654 63.4495 37.2269 63.4563 37.0887C63.4891 37.223 63.5113 37.3597 63.5225 37.4975C63.5573 37.7557 63.6003 38.1214 63.6483 38.5485L63.6086 38.5137H64.4229H65.2206L65.1809 38.5617C65.1031 38.1314 65.0402 37.764 64.9988 37.5041C64.9695 37.3673 64.9507 37.2284 64.9426 37.0887Z" fill="#455A64"/>
<path d="M57.2627 36.0956L57.3339 36.1039L57.5457 36.1403L58.3501 36.2843L61.1422 36.8106H61.1803V36.8503C61.1124 37.3105 61.038 37.8037 60.9618 38.3151V38.3614L60.9155 38.3515L60.8708 38.3416C59.2604 37.9725 57.8172 37.6365 56.8589 37.4081L56.8291 37.3998L56.839 37.3717C56.9714 36.9728 57.079 36.6517 57.1568 36.42C57.1916 36.3174 57.2197 36.2346 57.2429 36.1701C57.2512 36.1423 57.2617 36.1152 57.2743 36.089C57.2692 36.121 57.2615 36.1526 57.2511 36.1833C57.2313 36.2512 57.2065 36.3356 57.1767 36.4415L56.892 37.3882L56.8721 37.3518C57.8337 37.5637 59.2786 37.8881 60.8907 38.2572L60.9354 38.2671L60.8824 38.3035C60.9602 37.7921 61.0347 37.2972 61.1042 36.8388L61.1373 36.8851L58.3783 36.3273L57.5706 36.1618L57.3521 36.1138C57.3217 36.1116 57.2916 36.1054 57.2627 36.0956Z" fill="#455A64"/>
<path d="M49.3218 44.1509C49.4659 44.1034 49.6155 44.0745 49.767 44.0648C50.1311 44.0238 50.4986 44.0238 50.8627 44.0648C51.2273 44.1049 51.5857 44.1888 51.9302 44.3148C52.0751 44.3599 52.2128 44.4257 52.339 44.5101C52.1938 44.4719 52.0507 44.426 51.9103 44.3727C51.5656 44.2655 51.2115 44.1913 50.8527 44.1509C50.4944 44.1122 50.1333 44.1044 49.7736 44.1277C49.6236 44.1447 49.4727 44.1524 49.3218 44.1509Z" fill="#455A64"/>
<path d="M57.142 33.9473C57.1189 33.9473 57.1172 33.8298 57.142 33.6925C57.1669 33.5551 57.2016 33.4475 57.2248 33.4508C57.248 33.4541 57.2496 33.57 57.2248 33.7057C57.2 33.8414 57.1652 33.9523 57.142 33.9473Z" fill="#455A64"/>
<path d="M57.4734 34.0549C57.4502 34.0549 57.4535 33.9175 57.4816 33.757C57.5098 33.5965 57.5528 33.4707 57.576 33.4756C57.5991 33.4806 57.5958 33.613 57.5677 33.7736C57.5396 33.9341 57.4965 34.0549 57.4734 34.0549Z" fill="#455A64"/>
<path d="M60.2206 34.5068C60.1975 34.5068 60.1958 34.3793 60.2206 34.2304C60.2455 34.0814 60.2802 33.9639 60.3034 33.9672C60.3266 33.9705 60.3282 34.0946 60.3034 34.2436C60.2786 34.3926 60.2438 34.5101 60.2206 34.5068Z" fill="#455A64"/>
<path d="M60.5331 34.6508C60.51 34.6508 60.5083 34.5018 60.5331 34.3197C60.558 34.1377 60.5927 34.002 60.6175 34.0053C60.6424 34.0086 60.6407 34.1542 60.6175 34.3363C60.5944 34.5183 60.5563 34.6541 60.5331 34.6508Z" fill="#455A64"/>
<path d="M63.1834 35.1075C63.1603 35.1075 63.1553 34.9636 63.1719 34.7914C63.1884 34.6193 63.2232 34.4836 63.2463 34.4869C63.2695 34.4902 63.2761 34.6292 63.2579 34.8014C63.2397 34.9735 63.2083 35.1092 63.1834 35.1075Z" fill="#455A64"/>
<path d="M63.5851 35.2135C63.5603 35.2135 63.5504 35.048 63.5619 34.8593C63.5735 34.6706 63.6017 34.5084 63.6265 34.5101C63.6692 34.7445 63.655 34.9857 63.5851 35.2135Z" fill="#455A64"/>
<path d="M53.9014 26.1105L58.9427 27.567C58.9427 27.567 59.7123 24.7219 60.0814 23.0453C60.4869 21.2098 60.1625 20.2549 58.9394 19.4042C58.6631 19.2107 58.3439 19.0874 58.0093 19.045C57.537 18.9908 57.0599 19.0904 56.6487 19.3289C56.2376 19.5675 55.9143 19.9322 55.7269 20.3691C55.4062 21.1234 55.1337 21.8973 54.911 22.6862C54.4293 24.3231 53.9014 26.1105 53.9014 26.1105Z" fill="#0D92F4"/>
<path d="M60.0817 23.0486C60.0816 23.0777 60.0777 23.1067 60.0701 23.1347L60.0188 23.3846C59.9724 23.6014 59.9029 23.9176 59.8086 24.3181C59.6199 25.1175 59.3352 26.2496 58.981 27.5803L58.9711 27.62L58.933 27.6084L55.7586 26.6948L53.89 26.1536L53.8486 26.142L53.8619 26.1023C54.3584 24.4472 54.7771 22.9957 55.1065 21.9745C55.272 21.4647 55.4259 21.0642 55.5385 20.7911C55.5947 20.6554 55.6411 20.5528 55.6725 20.4816C55.6865 20.4453 55.7048 20.4109 55.7271 20.379C55.7162 20.4162 55.7029 20.4527 55.6874 20.4882L55.5649 20.8027C55.4623 21.0774 55.3183 21.4796 55.1578 21.991C54.8433 23.0139 54.4345 24.4654 53.9413 26.1287L53.9132 26.0774L55.7818 26.6071L58.9546 27.5273L58.9066 27.5554C59.2674 26.2314 59.5686 25.0976 59.7622 24.3015C59.8615 23.9093 59.9393 23.5965 59.9956 23.373C60.0204 23.2704 60.0419 23.1893 60.0568 23.1264C60.0634 23.1 60.0717 23.074 60.0817 23.0486Z" fill="#263238"/>
<path d="M59.7437 20.278C59.7304 20.2863 59.6311 20.1357 59.4242 19.9354C59.1566 19.6729 58.8369 19.4694 58.4858 19.338C58.1342 19.2079 57.7595 19.1515 57.3852 19.1725C57.0988 19.1907 56.9234 19.2403 56.9201 19.2271C56.9168 19.2138 56.9615 19.2022 57.0393 19.1791C57.1509 19.1475 57.2649 19.1253 57.3802 19.1129C57.7654 19.0694 58.1554 19.1173 58.5186 19.2527C58.8818 19.3882 59.2079 19.6073 59.4706 19.8924C59.5499 19.9772 59.6219 20.0685 59.6857 20.1655C59.7106 20.1999 59.7301 20.2378 59.7437 20.278Z" fill="#263238"/>
<path d="M54.4061 26.2761L54.1512 27.1218L49.3283 25.0347L48.2856 26.6369C48.2856 26.6369 52.0725 29.4505 53.2592 30.3459C54.4458 31.2413 55.8196 30.9301 56.6173 29.8808C57.4366 28.8034 57.7544 27.2575 57.7544 27.2575L54.4061 26.2761Z" fill="#FFBE9D"/>
<path d="M54.671 28.1794C54.6462 28.1794 54.5883 27.9262 54.4443 27.6382C54.3003 27.3502 54.1331 27.1416 54.153 27.1284C54.3072 27.2584 54.4328 27.4188 54.5219 27.5997C54.6111 27.7806 54.6619 27.9779 54.671 28.1794Z" fill="#EB996E"/>
<path d="M50.0781 25.422L49.4409 24.9818C49.1099 23.9738 48.4727 22.1483 48.2823 22.2029C48.092 22.2575 47.9927 22.4429 48.0506 22.8318C48.1913 23.7603 47.9613 24.1708 47.4184 24.0483C47.2314 24.0053 45.6061 23.7454 45.6061 23.7454C45.6061 23.7454 45.1576 24.002 45.6061 24.4422C45.6061 24.4422 45.386 25.0149 45.9851 25.1523C45.9851 25.1523 46.0596 25.801 46.5081 25.8275C46.9893 26.0755 47.487 26.2901 47.9977 26.4697L48.807 26.9546L50.0781 25.422Z" fill="#FFBE9D"/>
<path d="M46.8427 24.7997C46.8427 24.8312 46.5199 24.76 46.1509 24.6342C46.0185 24.5912 45.8943 24.5498 45.7917 24.525L45.8049 24.4538L45.8662 24.467L45.8529 24.5316C45.7642 24.515 45.6795 24.4819 45.603 24.4339C45.6931 24.4304 45.7831 24.4416 45.8695 24.467L45.8563 24.5333H45.7934L45.8066 24.4621C45.933 24.4858 46.0575 24.519 46.179 24.5614C46.4052 24.6263 46.6269 24.7059 46.8427 24.7997Z" fill="#EB996E"/>
<path d="M46.965 25.5313C46.787 25.5226 46.6128 25.477 46.4535 25.3972C46.2826 25.3465 46.1237 25.2615 45.9868 25.1473C46.1582 25.183 46.3248 25.2386 46.4833 25.3128C46.6516 25.3671 46.8132 25.4404 46.965 25.5313Z" fill="#EB996E"/>
</svg>
