<svg width="111" height="111" viewBox="0 0 111 111" fill="none" xmlns="http://www.w3.org/2000/svg">
<path d="M111 84.8928H0V84.9483H111V84.8928Z" fill="#EBEBEB"/>
<path d="M99.8777 88.4648H94.0547V88.5203H99.8777V88.4648Z" fill="#EBEBEB"/>
<path d="M79.2006 87.7433H71.6016V87.7988H79.2006V87.7433Z" fill="#EBEBEB"/>
<path d="M92.3008 86.4046H86.4312V86.4601H92.3008V86.4046Z" fill="#EBEBEB"/>
<path d="M24.6175 86.7776H15.0293V86.8331H24.6175V86.7776Z" fill="#EBEBEB"/>
<path d="M13.0515 86.7776H11.6462V86.8331H13.0515V86.7776Z" fill="#EBEBEB"/>
<path d="M41.6627 87.7144H29.1863V87.7699H41.6627V87.7144Z" fill="#EBEBEB"/>
<path d="M52.614 74.9916H9.74807C9.41226 74.991 9.0904 74.8572 8.85316 74.6195C8.61591 74.3819 8.48267 74.0598 8.48267 73.724V13.4665C8.48559 13.1326 8.62013 12.8134 8.85706 12.5781C9.09399 12.3428 9.41417 12.2106 9.74807 12.21H52.614C52.9502 12.21 53.2727 12.3435 53.5104 12.5813C53.7481 12.819 53.8817 13.1414 53.8817 13.4776V73.724C53.8817 74.0602 53.7481 74.3826 53.5104 74.6203C53.2727 74.858 52.9502 74.9916 52.614 74.9916ZM9.74807 12.2544C9.42698 12.255 9.11924 12.3829 8.8924 12.6102C8.66557 12.8374 8.53817 13.1454 8.53817 13.4665V73.724C8.53817 74.0451 8.66557 74.353 8.8924 74.5803C9.11924 74.8075 9.42698 74.9355 9.74807 74.9361H52.614C52.9353 74.9355 53.2433 74.8076 53.4705 74.5804C53.6977 74.3532 53.8256 74.0453 53.8262 73.724V13.4665C53.8256 13.1452 53.6977 12.8373 53.4705 12.6101C53.2433 12.3829 52.9353 12.255 52.614 12.2544H9.74807Z" fill="#EBEBEB"/>
<path d="M100.635 74.9916H57.7666C57.4306 74.991 57.1085 74.8573 56.871 74.6197C56.6334 74.3821 56.4996 74.06 56.499 73.724V13.4665C56.5025 13.1324 56.6376 12.8132 56.8748 12.578C57.1121 12.3428 57.4325 12.2106 57.7666 12.21H100.635C100.968 12.2111 101.288 12.3437 101.524 12.5789C101.761 12.8141 101.895 13.133 101.898 13.4665V73.724C101.898 74.0594 101.765 74.3811 101.528 74.6187C101.292 74.8563 100.97 74.9904 100.635 74.9916ZM57.7666 12.2544C57.4453 12.255 57.1374 12.3829 56.9102 12.6101C56.683 12.8373 56.5551 13.1452 56.5545 13.4665V73.724C56.5551 74.0453 56.683 74.3532 56.9102 74.5804C57.1374 74.8076 57.4453 74.9355 57.7666 74.9361H100.635C100.956 74.9355 101.264 74.8076 101.491 74.5804C101.718 74.3532 101.846 74.0453 101.847 73.724V13.4665C101.846 13.1452 101.718 12.8373 101.491 12.6101C101.264 12.3829 100.956 12.255 100.635 12.2544H57.7666Z" fill="#EBEBEB"/>
<path d="M50.203 84.8928H56.7009V61.1033H50.203V84.8928Z" fill="#E6E6E6"/>
<path d="M51.7371 84.8928H50.2031V80.5327H53.3444L51.7371 84.8928Z" fill="#F0F0F0"/>
<path d="M90.7757 84.8928H97.2737V61.1033H90.7757V84.8928Z" fill="#E6E6E6"/>
<path d="M50.2031 82.746H92.1123V61.1033H50.2031V82.746Z" fill="#F0F0F0"/>
<path d="M51.3931 62.382H70.6427V79.92H51.3931V62.382Z" fill="#E6E6E6"/>
<path d="M71.6726 62.382H90.9222V79.92H71.6726V62.382Z" fill="#E6E6E6"/>
<path d="M74.6164 67.1239C74.3203 67.1243 74.0307 67.0369 73.7843 66.8727C73.5379 66.7084 73.3458 66.4748 73.2322 66.2013C73.1187 65.9278 73.0889 65.6267 73.1466 65.3363C73.2042 65.0458 73.3468 64.779 73.5562 64.5696C73.7656 64.3602 74.0324 64.2177 74.3228 64.16C74.6133 64.1023 74.9143 64.1321 75.1878 64.2457C75.4613 64.3592 75.695 64.5513 75.8592 64.7977C76.0235 65.0441 76.1109 65.3337 76.1105 65.6298C76.1099 66.0259 75.9523 66.4056 75.6722 66.6857C75.3922 66.9657 75.0125 67.1233 74.6164 67.1239ZM74.6164 64.3977C74.3726 64.3973 74.1342 64.4692 73.9313 64.6043C73.7284 64.7394 73.5701 64.9317 73.4765 65.1568C73.3829 65.3819 73.3582 65.6297 73.4055 65.8689C73.4528 66.108 73.57 66.3278 73.7422 66.5003C73.9144 66.6728 74.134 66.7904 74.373 66.8381C74.6121 66.8858 74.8599 66.8616 75.0852 66.7684C75.3105 66.6752 75.503 66.5173 75.6385 66.3146C75.774 66.1119 75.8463 65.8736 75.8463 65.6298C75.8457 65.3036 75.716 64.9909 75.4856 64.7601C75.2551 64.5292 74.9426 64.3989 74.6164 64.3977Z" fill="#FAFAFA"/>
<path d="M67.7099 67.1239C67.4138 67.1243 67.1242 67.0369 66.8778 66.8727C66.6314 66.7084 66.4393 66.4748 66.3258 66.2013C66.2122 65.9278 66.1824 65.6267 66.2401 65.3363C66.2977 65.0458 66.4403 64.779 66.6497 64.5696C66.8591 64.3602 67.1259 64.2177 67.4163 64.16C67.7068 64.1023 68.0078 64.1321 68.2813 64.2457C68.5548 64.3592 68.7885 64.5513 68.9527 64.7977C69.117 65.0441 69.2044 65.3337 69.204 65.6298C69.2034 66.0259 69.0458 66.4056 68.7657 66.6857C68.4857 66.9657 68.106 67.1233 67.7099 67.1239ZM67.7099 64.3977C67.4661 64.3973 67.2277 64.4692 67.0248 64.6043C66.8219 64.7394 66.6636 64.9317 66.57 65.1568C66.4764 65.3819 66.4517 65.6297 66.499 65.8689C66.5463 66.108 66.6635 66.3278 66.8357 66.5003C67.0079 66.6728 67.2275 66.7904 67.4665 66.8381C67.7056 66.8858 67.9534 66.8616 68.1787 66.7684C68.404 66.6752 68.5965 66.5173 68.732 66.3146C68.8675 66.1119 68.9398 65.8736 68.9398 65.6298C68.9392 65.3036 68.8095 64.9909 68.5791 64.7601C68.3486 64.5292 68.0361 64.3989 67.7099 64.3977Z" fill="#FAFAFA"/>
<path d="M90.5782 84.8928H92.1123V80.5327H88.9709L90.5782 84.8928Z" fill="#F0F0F0"/>
<path d="M86.3247 57.8776C86.6999 57.5113 86.3025 57.0096 86.8065 56.6566C87.3104 56.3036 86.8775 55.7686 86.8975 55.2736C86.9175 54.7785 87.5746 54.703 87.7633 54.1303C87.8175 53.8518 87.7644 53.5631 87.6146 53.3222C87.5488 53.1891 87.4518 53.0739 87.3318 52.9865C87.2118 52.899 87.0725 52.842 86.9256 52.8202C86.7788 52.7983 86.6288 52.8124 86.4886 52.8612C86.3484 52.9099 86.2221 52.992 86.1205 53.1002C86.1 53.1229 86.0808 53.1466 86.0628 53.1712C85.6876 53.6707 86.0628 54.1525 85.6388 54.4899C85.2147 54.8273 84.471 54.8962 84.4954 55.4578C84.5199 56.0195 83.9538 56.0683 83.6496 56.5012C83.4654 56.7698 83.6075 57.2116 83.7429 57.5135C83.8405 57.7259 84.0151 57.8932 84.2313 57.982C84.733 58.184 85.7187 58.4681 86.3247 57.8776Z" fill="#EBEBEB"/>
<path d="M87.1594 59.2052C87.7965 58.9366 87.5479 58.1351 88.336 57.9442C89.1241 57.7533 88.851 56.8919 89.1086 56.297C89.3661 55.702 90.2186 55.924 90.7181 55.3135C91.0311 54.9383 90.9401 54.2213 90.8402 53.7284C90.8028 53.5556 90.7094 53.3999 90.5745 53.2855C90.4397 53.1711 90.2709 53.1044 90.0942 53.0957C89.7479 53.0679 89.4013 53.1453 89.0997 53.3177C88.4026 53.7506 88.6202 54.5165 87.9475 54.7274C87.2748 54.9383 86.3269 54.6631 86.0871 55.3624C85.8474 56.0617 85.1303 55.8485 84.5531 56.2348C84.138 56.5101 84.1535 57.2915 84.1957 57.7133C84.2125 57.8945 84.2909 58.0646 84.4177 58.1951C84.8706 58.6546 86.0405 59.678 87.1594 59.2052Z" fill="#E0E0E0"/>
<path d="M86.6511 55.984C87.0684 55.6643 87.5058 56.1305 87.9298 55.682C88.3538 55.2336 88.8178 55.7375 89.3084 55.7908C89.799 55.8441 89.9744 55.2025 90.5671 55.0982C90.8499 55.0847 91.1273 55.1782 91.3441 55.3601C91.466 55.445 91.5655 55.5581 91.6342 55.6897C91.7029 55.8213 91.7388 55.9676 91.7388 56.116C91.7388 56.2645 91.7029 56.4108 91.6342 56.5424C91.5655 56.674 91.466 56.7871 91.3441 56.872L91.2642 56.9208C90.7159 57.2183 90.2919 56.7854 89.8989 57.1428C89.506 57.5002 89.3284 58.2395 88.7756 58.1351C88.2228 58.0308 88.0918 58.5791 87.6212 58.8211C87.3304 58.9654 86.913 58.7612 86.6333 58.5836C86.4371 58.4567 86.2966 58.2598 86.2404 58.033C86.1183 57.5135 85.9784 56.499 86.6511 55.984Z" fill="#EBEBEB"/>
<path d="M82.1399 56.65C82.1399 56.65 82.2709 61.1011 87.3391 61.1011C92.4074 61.1011 92.5384 56.65 92.5384 56.65H82.1399Z" fill="#F5F5F5"/>
<path d="M97.3049 19.738H61.0989V39.9578H97.3049V19.738Z" fill="#E6E6E6"/>
<path d="M96.9584 19.738H60.7524V39.9578H96.9584V19.738Z" fill="#F5F5F5"/>
<path d="M95.5488 38.5459V21.1477L62.1645 21.1477V38.5459H95.5488Z" fill="white"/>
<path d="M62.5286 38.5458V21.1477H62.16V38.5458H62.5286Z" fill="#E6E6E6"/>
<path d="M16.6232 80.1931H45.7607L45.7607 16.6633L16.6232 16.6633L16.6232 80.1931Z" fill="#E6E6E6"/>
<path d="M15.4957 80.1931H45.6011L45.6011 16.6633L15.4957 16.6633L15.4957 80.1931Z" fill="#F0F0F0"/>
<path d="M16.6232 81.2431H45.7607V80.1953H16.6232V81.2431Z" fill="#E6E6E6"/>
<path d="M13.6153 81.2431H43.7207V80.1953H13.6153V81.2431Z" fill="#F0F0F0"/>
<path d="M44.0227 78.6169L44.0227 18.244H17.0741L17.0741 78.6169H44.0227Z" fill="#FAFAFA"/>
<path d="M30.8514 78.6169L28.3229 18.244H23.9495L26.478 78.6169H30.8514Z" fill="white"/>
<path d="M43.29 35.5955C43.3224 35.5955 43.3535 35.5826 43.3764 35.5597C43.3993 35.5368 43.4121 35.5058 43.4121 35.4734V19.2674C43.4082 19.2381 43.3937 19.2113 43.3715 19.1919C43.3492 19.1724 43.3207 19.1617 43.2912 19.1617C43.2616 19.1617 43.2331 19.1724 43.2108 19.1919C43.1886 19.2113 43.1741 19.2381 43.1702 19.2674V35.4734C43.1702 35.5054 43.1827 35.5361 43.2051 35.5589C43.2276 35.5818 43.258 35.5949 43.29 35.5955Z" fill="#F0F0F0"/>
<path d="M25.5367 78.6169L23.0104 18.244H21.3054L23.8318 78.6169H25.5367Z" fill="white"/>
<path d="M17.2739 78.6146L17.2739 18.2417H17.0741L17.0741 78.6146H17.2739Z" fill="#E6E6E6"/>
<path opacity="0.5" d="M15.1226 20.3041H44.6264L44.7729 18.8567H15.2669L15.1226 20.3041Z" fill="#E0E0E0"/>
<path opacity="0.5" d="M15.1226 22.6817H44.6264L44.7729 21.2365H15.2669L15.1226 22.6817Z" fill="#E0E0E0"/>
<path opacity="0.5" d="M15.1226 25.0594H44.6264L44.7729 23.6141H15.2669L15.1226 25.0594Z" fill="#E0E0E0"/>
<path opacity="0.5" d="M15.1226 27.4392H44.6264L44.7729 25.9918H15.2669L15.1226 27.4392Z" fill="#E0E0E0"/>
<path opacity="0.5" d="M15.1226 29.8168H44.6264L44.7729 28.3694H15.2669L15.1226 29.8168Z" fill="#E0E0E0"/>
<path opacity="0.5" d="M15.1226 32.1944H44.6264L44.7729 30.747H15.2669L15.1226 32.1944Z" fill="#E0E0E0"/>
<path d="M55.4999 94.9183C79.2722 94.9183 98.5435 93.7932 98.5435 92.4053C98.5435 91.0174 79.2722 89.8922 55.4999 89.8922C31.7276 89.8922 12.4563 91.0174 12.4563 92.4053C12.4563 93.7932 31.7276 94.9183 55.4999 94.9183Z" fill="#F5F5F5"/>
<path d="M64.7686 31.2532H65.4058L59.9401 91.2021C59.9362 91.2623 59.9094 91.3188 59.8653 91.3601C59.8212 91.4013 59.763 91.4242 59.7026 91.4241H59.1653C59.1322 91.4242 59.0994 91.4174 59.069 91.4041C59.0386 91.3908 59.0114 91.3713 58.989 91.3468C58.9666 91.3224 58.9496 91.2935 58.9391 91.262C58.9285 91.2306 58.9247 91.1973 58.9278 91.1643L64.3624 31.635C64.3701 31.5321 64.4161 31.4358 64.4913 31.3652C64.5665 31.2945 64.6654 31.2545 64.7686 31.2532Z" fill="#263238"/>
<path d="M65.6411 31.2532H65.0017L70.4762 91.1932C70.4802 91.2534 70.5069 91.3099 70.5511 91.3512C70.5952 91.3924 70.6534 91.4153 70.7138 91.4152H71.2488C71.2819 91.4153 71.3148 91.4085 71.3451 91.3952C71.3755 91.3819 71.4027 91.3624 71.4251 91.3379C71.4475 91.3135 71.4645 91.2846 71.475 91.2532C71.4856 91.2217 71.4894 91.1884 71.4863 91.1554L66.0518 31.6284C66.0424 31.5259 65.995 31.4306 65.9191 31.3612C65.8431 31.2918 65.744 31.2533 65.6411 31.2532Z" fill="#263238"/>
<path d="M90.9091 50.2031C90.8945 50.202 90.8803 50.198 90.8673 50.1913C90.8542 50.1847 90.8426 50.1755 90.8331 50.1644C90.8236 50.1532 90.8165 50.1403 90.812 50.1264C90.8075 50.1125 90.8058 50.0978 90.807 50.0832L91.029 46.8131C91.0299 46.7986 91.0336 46.7843 91.04 46.7711C91.0463 46.758 91.0553 46.7462 91.0662 46.7365C91.0771 46.7268 91.0899 46.7194 91.1037 46.7146C91.1175 46.7099 91.1321 46.7079 91.1467 46.7088C91.1763 46.7111 91.2039 46.7249 91.2234 46.7474C91.2429 46.7698 91.2529 46.799 91.251 46.8287L91.029 50.0987C91.0282 50.1135 91.0244 50.128 91.0179 50.1413C91.0114 50.1546 91.0022 50.1665 90.9911 50.1762C90.9799 50.1859 90.9669 50.1933 90.9528 50.1979C90.9388 50.2025 90.9239 50.2043 90.9091 50.2031Z" fill="#407BFF"/>
<path d="M91.2842 44.7819C91.2552 44.7796 91.2282 44.766 91.2091 44.744C91.1899 44.7219 91.1803 44.6933 91.1821 44.6642L91.6794 37.4625C91.6822 37.4337 91.696 37.407 91.7179 37.388C91.7397 37.369 91.7681 37.3591 91.797 37.3604C91.8116 37.3612 91.8259 37.365 91.839 37.3713C91.8522 37.3777 91.8639 37.3866 91.8736 37.3976C91.8833 37.4085 91.8908 37.4212 91.8955 37.435C91.9003 37.4489 91.9023 37.4635 91.9014 37.4781L91.4041 44.6775C91.4033 44.6923 91.3995 44.7068 91.393 44.7201C91.3864 44.7334 91.3773 44.7452 91.3662 44.755C91.355 44.7647 91.342 44.7721 91.3279 44.7767C91.3138 44.7813 91.299 44.7831 91.2842 44.7819Z" fill="#407BFF"/>
<path d="M88.8244 32.0413H42.3865C41.6659 32.0531 40.9754 32.3322 40.4491 32.8245C39.9228 33.3168 39.5981 33.9871 39.5382 34.7053L37.1628 69.042C37.1343 69.3835 37.1775 69.7271 37.2896 70.0509C37.4017 70.3747 37.5801 70.6715 37.8136 70.9223C38.0471 71.1732 38.3303 71.3724 38.6453 71.5074C38.9602 71.6423 39.2999 71.71 39.6425 71.706H86.0805C86.8011 71.6942 87.4916 71.415 88.0179 70.9228C88.5442 70.4305 88.8688 69.7602 88.9288 69.042L91.3042 34.7008C91.332 34.3597 91.2883 34.0166 91.176 33.6933C91.0636 33.37 90.885 33.0738 90.6516 32.8234C90.4182 32.5731 90.1352 32.3743 89.8205 32.2396C89.5059 32.1049 89.1666 32.0374 88.8244 32.0413Z" fill="white"/>
<path d="M86.0806 71.7926H39.6426C39.2884 71.7972 38.9371 71.7277 38.6112 71.5886C38.2854 71.4496 37.9921 71.244 37.7503 70.9851C37.5085 70.7261 37.3235 70.4196 37.207 70.085C37.0906 69.7504 37.0453 69.3951 37.0741 69.042L39.4495 34.7008C39.5128 33.9621 39.8484 33.2733 40.3912 32.7683C40.934 32.2632 41.6452 31.978 42.3865 31.968H88.8245C89.1786 31.964 89.5296 32.034 89.8551 32.1735C90.1806 32.313 90.4734 32.5188 90.7147 32.778C90.9561 33.0371 91.1407 33.3437 91.2567 33.6783C91.3727 34.0128 91.4177 34.3679 91.3886 34.7208L89.0221 69.042C88.9629 69.7847 88.6285 70.4784 88.0843 70.9873C87.5401 71.4961 86.8255 71.7833 86.0806 71.7926ZM42.3865 32.1256C41.6865 32.136 41.0155 32.4066 40.5041 32.8847C39.9927 33.3628 39.6777 34.0142 39.6204 34.7119L37.245 69.042C37.2171 69.3722 37.2586 69.7046 37.3668 70.0178C37.4751 70.331 37.6476 70.6181 37.8734 70.8607C38.0993 71.1032 38.3733 71.2958 38.678 71.4261C38.9827 71.5564 39.3113 71.6215 39.6426 71.6172H86.0806C86.7788 71.6071 87.4484 71.3381 87.9595 70.8623C88.4706 70.3864 88.7868 69.7378 88.8467 69.042L91.2221 34.7008C91.2497 34.3708 91.2079 34.0387 91.0996 33.7257C90.9912 33.4128 90.8186 33.126 90.5928 32.8837C90.367 32.6414 90.0931 32.449 89.7886 32.3188C89.484 32.1887 89.1556 32.1236 88.8245 32.1279L42.3865 32.1256Z" fill="#407BFF"/>
<g opacity="0.2">
<path d="M61.7469 61.7163C63.7654 59.7664 63.9266 56.6588 62.1071 54.7752C60.2875 52.8917 57.1762 52.9455 55.1577 54.8954C53.1392 56.8453 52.978 59.9529 54.7975 61.8364C56.6171 63.72 59.7284 63.6662 61.7469 61.7163Z" fill="#407BFF"/>
<path d="M61.0882 61.0346C62.7037 59.474 62.8331 56.9872 61.3773 55.4801C59.9215 53.9731 57.4317 54.0166 55.8162 55.5771C54.2007 57.1377 54.0713 59.6245 55.5271 61.1316C56.9829 62.6386 59.4727 62.5952 61.0882 61.0346Z" fill="white"/>
<path d="M60.4296 60.3528C61.6412 59.1823 61.7381 57.317 60.646 56.1866C59.5539 55.0561 57.6864 55.0885 56.4748 56.2589C55.2632 57.4294 55.1663 59.2946 56.2584 60.4251C57.3505 61.5556 59.218 61.5232 60.4296 60.3528Z" fill="#407BFF"/>
<path d="M60.4173 58.3061C60.3743 58.8361 60.1353 59.3311 59.747 59.6943C59.3587 60.0576 58.8489 60.2631 58.3172 60.2708C58.0642 60.2745 57.8133 60.2252 57.5807 60.1259C57.348 60.0267 57.1387 59.8797 56.9663 59.6946C56.7939 59.5095 56.6623 59.2902 56.5799 59.0511C56.4975 58.8119 56.4661 58.5581 56.4879 58.3061C56.5309 57.7761 56.7699 57.2811 57.1582 56.9178C57.5466 56.5545 58.0563 56.349 58.588 56.3414C58.8409 56.338 59.0916 56.3876 59.3241 56.4869C59.5567 56.5863 59.7658 56.7332 59.9381 56.9183C60.1104 57.1034 60.2421 57.3225 60.3246 57.5615C60.4071 57.8005 60.4387 58.0541 60.4173 58.3061Z" fill="white"/>
<path d="M59.4339 58.3061C59.4123 58.571 59.2928 58.8183 59.0986 58.9998C58.9044 59.1813 58.6495 59.2838 58.3838 59.2873C58.2576 59.289 58.1324 59.2643 58.0163 59.2146C57.9002 59.165 57.7958 59.0916 57.7099 58.9991C57.6239 58.9067 57.5583 58.7973 57.5172 58.6779C57.4761 58.5585 57.4605 58.4319 57.4714 58.3061C57.4924 58.041 57.6118 57.7934 57.8061 57.6118C58.0004 57.4303 58.2555 57.3279 58.5214 57.3249C58.6477 57.3231 58.7729 57.3479 58.8889 57.3975C59.005 57.4472 59.1094 57.5206 59.1953 57.613C59.2813 57.7055 59.347 57.8149 59.388 57.9343C59.4291 58.0537 59.4447 58.1803 59.4339 58.3061Z" fill="#407BFF"/>
</g>
<path d="M45.9541 65.5655H43.5121C43.3422 65.5691 43.1769 65.51 43.0479 65.3994C42.9188 65.2888 42.8351 65.1345 42.8128 64.9661C42.7181 64.1926 42.4535 63.4497 42.038 62.7905C41.4114 61.815 41.1013 60.6699 41.15 59.5115C41.237 58.4346 41.7221 57.4286 42.5105 56.6899C43.2989 55.9511 44.3343 55.5324 45.4146 55.5155C45.9292 55.5085 46.4396 55.6092 46.9129 55.8111C47.3863 56.0131 47.8122 56.3118 48.1632 56.6881C48.5142 57.0645 48.7827 57.5101 48.9512 57.9963C49.1198 58.4826 49.1848 58.9987 49.142 59.5115C49.0178 60.7073 48.5558 61.8431 47.81 62.786C47.3085 63.4334 46.9416 64.1747 46.7311 64.9661C46.6859 65.1378 46.5852 65.2897 46.4447 65.3981C46.3041 65.5066 46.1316 65.5654 45.9541 65.5655ZM45.4124 55.7442C44.3905 55.7599 43.4109 56.1548 42.6638 56.8522C41.9168 57.5496 41.4555 58.4998 41.3698 59.5182C41.3236 60.6302 41.6213 61.7294 42.2222 62.6662C42.6563 63.3517 42.9323 64.1252 43.0303 64.9306C43.0466 65.0453 43.1044 65.15 43.1928 65.2249C43.2812 65.2998 43.394 65.3396 43.5098 65.3368H45.9518C46.0771 65.3366 46.1989 65.2956 46.2987 65.2198C46.3985 65.1441 46.4708 65.0378 46.5046 64.9172C46.7208 64.0977 47.0982 63.3294 47.6146 62.6573C48.3351 61.75 48.7831 60.6568 48.9067 59.5049C48.9496 59.0212 48.8905 58.5339 48.7332 58.0746C48.5759 57.6152 48.3238 57.194 47.9934 56.8382C47.6629 56.4825 47.2614 56.2001 46.8149 56.0093C46.3684 55.8185 45.8868 55.7237 45.4013 55.7309L45.4124 55.7442Z" fill="#407BFF"/>
<path d="M47.3104 59.6536C47.1861 59.607 46.9863 59.627 46.7221 60.0266C46.4159 60.5427 46.1842 61.0995 46.0339 61.6805C45.9379 61.6894 45.8413 61.6894 45.7453 61.6805C45.6145 61.679 45.4856 61.649 45.3675 61.5927C45.2494 61.5363 45.145 61.4549 45.0616 61.3542C45.2636 61.0744 45.4123 60.5949 45.4279 59.8179C45.4412 59.1342 45.3546 58.8145 45.1459 58.8167C44.8484 58.8167 44.6398 59.5648 44.5931 60.0643C44.5271 60.507 44.6049 60.9591 44.8151 61.3542C44.6982 61.4742 44.5387 61.5436 44.3711 61.5473C44.2832 61.5519 44.1951 61.5444 44.1092 61.5251C44.0626 60.7081 43.9027 60.1442 43.6297 59.8401C43.549 59.744 43.4463 59.6688 43.3304 59.6209C43.2144 59.5729 43.0886 59.5537 42.9637 59.5648C42.5197 59.5915 42.4597 59.8978 42.4597 60.0244C42.4597 60.5416 43.1723 61.4274 43.9271 61.6783C43.9738 62.7217 43.8494 64.3156 43.4099 66.7465L43.3943 66.8376H43.5919V66.7709C43.9849 64.6087 44.1625 62.9237 44.1181 61.7293C44.2003 61.7423 44.2835 61.7475 44.3667 61.7449C44.5721 61.7379 44.7675 61.6548 44.915 61.5118C45.0144 61.6246 45.1362 61.7154 45.2727 61.7785C45.4091 61.8416 45.5573 61.8755 45.7076 61.8781C45.7925 61.8847 45.8779 61.8847 45.9629 61.8781C45.4922 63.6075 45.2636 65.843 45.6365 66.8376H45.8585C45.4523 65.9385 45.6987 63.6052 46.1827 61.8537C46.4868 61.7943 46.7682 61.6506 46.9947 61.439C47.2212 61.2274 47.3836 60.9565 47.4636 60.6571C47.6057 60.1798 47.5391 59.7491 47.3104 59.6536ZM42.6484 60.0133C42.6484 59.9134 42.6817 59.778 42.9548 59.7602H43.0058C43.0964 59.7586 43.1861 59.7778 43.268 59.8163C43.35 59.8548 43.4221 59.9115 43.4787 59.9822C43.6718 60.2042 43.8472 60.6349 43.9072 61.4674C43.29 61.1988 42.6573 60.4373 42.6595 60.0133H42.6484ZM44.9372 61.181C44.8398 60.9756 44.7832 60.7531 44.7707 60.5261C44.7219 59.7846 45.0038 59.0587 45.1148 59.0143C45.1148 59.0143 45.2325 59.092 45.2192 59.829C45.2359 60.2947 45.1431 60.7577 44.9483 61.181H44.9372ZM47.286 60.606C47.2207 60.854 47.0911 61.0802 46.9102 61.2619C46.7293 61.4436 46.5036 61.5742 46.2559 61.6405C46.3971 61.1074 46.6115 60.5963 46.8931 60.1221C47.0396 59.9001 47.1506 59.8268 47.2105 59.8268H47.2349C47.326 59.8778 47.3992 60.202 47.286 60.606Z" fill="#407BFF"/>
<path d="M45.9541 67.1461H43.2901C43.2517 67.1469 43.2135 67.1396 43.178 67.1246C43.1426 67.1097 43.1106 67.0875 43.0843 67.0595C43.0579 67.0315 43.0377 66.9982 43.025 66.9619C43.0123 66.9256 43.0073 66.887 43.0104 66.8487L43.0326 66.5268C43.0397 66.4462 43.0762 66.3711 43.1352 66.3158C43.1942 66.2605 43.2715 66.2289 43.3523 66.2271H46.0163C46.0549 66.2266 46.0931 66.2342 46.1286 66.2494C46.164 66.2646 46.196 66.287 46.2223 66.3152C46.2486 66.3434 46.2688 66.3768 46.2815 66.4132C46.2941 66.4496 46.2991 66.4883 46.296 66.5268L46.2738 66.8487C46.2667 66.929 46.2301 67.0038 46.1711 67.0588C46.112 67.1137 46.0348 67.1448 45.9541 67.1461Z" fill="#407BFF"/>
<path d="M45.954 67.266H43.29C43.2364 67.2669 43.1831 67.2565 43.1338 67.2355C43.0844 67.2144 43.0401 67.1832 43.0036 67.1439C42.967 67.1045 42.9389 67.0579 42.9214 67.0071C42.9038 66.9562 42.897 66.9023 42.9015 66.8486L42.9237 66.5268C42.9339 66.4191 42.9831 66.3188 43.062 66.2449C43.1409 66.1709 43.244 66.1282 43.3521 66.1249H46.0161C46.0699 66.1244 46.1232 66.1353 46.1725 66.1567C46.2219 66.1781 46.2662 66.2096 46.3025 66.2493C46.3392 66.2881 46.3673 66.3344 46.3849 66.3849C46.4025 66.4354 46.4092 66.489 46.4046 66.5423L46.3824 66.8642C46.3722 66.9719 46.323 67.0721 46.2442 67.1461C46.1653 67.2201 46.0621 67.2627 45.954 67.266ZM43.341 66.3469C43.2888 66.3497 43.2393 66.3708 43.2011 66.4065C43.1629 66.4423 43.1386 66.4904 43.1324 66.5423L43.1102 66.8642C43.1075 66.9113 43.1235 66.9575 43.1546 66.9929C43.1706 67.0096 43.1899 67.0228 43.2113 67.0316C43.2328 67.0404 43.2558 67.0446 43.2789 67.044H45.9429C45.9951 67.0412 46.0447 67.0201 46.0829 66.9844C46.121 66.9486 46.1454 66.9006 46.1516 66.8486L46.1738 66.5268C46.1752 66.5038 46.1719 66.4807 46.1643 66.459C46.1567 66.4373 46.1448 66.4173 46.1294 66.4002C46.1134 66.3832 46.0942 66.3697 46.0728 66.3606C46.0514 66.3514 46.0283 66.3467 46.005 66.3469H43.341Z" fill="#407BFF"/>
<path d="M79.2074 50.5428L76.5967 47.7389L78.0863 46.8198L80.2242 49.1175L79.2074 50.5428Z" fill="#407BFF"/>
<path d="M78.5836 50.212L76.8853 48.3871L78.5458 47.1395L79.9378 48.6336L78.5836 50.212Z" fill="#407BFF"/>
<path d="M80.4663 44.3045L78.5105 46.0162C78.3969 46.1219 78.2614 46.2012 78.1137 46.2484C77.9659 46.2956 77.8096 46.3095 77.6558 46.2892C77.1452 46.1915 76.1284 46.5423 76.1284 46.5423C76.9587 45.6876 77.9799 43.5364 80.4663 44.3045Z" fill="#407BFF"/>
<path d="M82.8926 46.9131C82.8926 46.9131 81.9047 47.8965 81.0544 48.749C80.941 48.855 80.8525 48.9849 80.7953 49.1292C80.7381 49.2736 80.7137 49.4288 80.7237 49.5837C80.7858 50.101 80.364 51.0955 80.364 51.0955C81.272 50.3252 83.4853 49.4505 82.8926 46.9131Z" fill="#407BFF"/>
<path d="M84.4621 45.5367C85.9051 44.0337 86.4601 42.3998 85.8252 41.7294C85.1903 41.0589 83.5386 41.4918 81.9424 42.8394L77.9841 46.1694C77.9071 46.2301 77.8431 46.3058 77.796 46.3919C77.749 46.478 77.7198 46.5727 77.7102 46.6704C77.7007 46.7681 77.711 46.8666 77.7405 46.9602C77.77 47.0538 77.8182 47.1405 77.882 47.215L79.829 49.3084C79.8987 49.3777 79.9817 49.4321 80.0732 49.4683C80.1646 49.5044 80.2624 49.5216 80.3607 49.5186C80.4589 49.5157 80.5556 49.4928 80.6447 49.4514C80.7338 49.4099 80.8135 49.3507 80.879 49.2774L84.4621 45.5367Z" fill="white"/>
<path d="M80.3242 49.617C80.2176 49.6171 80.1122 49.5953 80.0144 49.5529C79.9166 49.5105 79.8286 49.4484 79.7559 49.3706L77.8023 47.286C77.7294 47.2078 77.6734 47.1153 77.6379 47.0145C77.6024 46.9137 77.588 46.8066 77.5958 46.6999C77.604 46.5802 77.6363 46.4635 77.6909 46.3566C77.7455 46.2498 77.8211 46.1551 77.9133 46.0783L81.8715 42.7483C83.4877 41.3897 85.2237 40.9213 85.9075 41.6561C86.5912 42.3909 86.0052 44.0981 84.5422 45.6166L80.9591 49.3439C80.8769 49.4296 80.7784 49.4979 80.6693 49.5448C80.5602 49.5917 80.4429 49.6162 80.3242 49.617ZM84.9706 41.5273C84.1914 41.5273 83.0681 42.0313 82.0136 42.9148L78.0576 46.2448C77.9881 46.3023 77.9311 46.3732 77.8899 46.4533C77.8487 46.5335 77.8241 46.6211 77.8178 46.711C77.8119 46.7873 77.8218 46.864 77.847 46.9362C77.8723 47.0084 77.9122 47.0746 77.9643 47.1306L79.9113 49.2241C79.9639 49.2794 80.0273 49.3236 80.0975 49.3537C80.1677 49.3839 80.2433 49.3994 80.3197 49.3994C80.5005 49.3963 80.6727 49.3221 80.7993 49.193L84.3823 45.4634C85.7388 44.0515 86.3382 42.4464 85.7454 41.8093C85.643 41.7109 85.5212 41.635 85.3878 41.5864C85.2544 41.5379 85.1123 41.5177 84.9706 41.5273Z" fill="#407BFF"/>
<path d="M83.7962 45.3346C83.6077 45.4889 83.3782 45.5847 83.136 45.6103C82.8938 45.6359 82.6493 45.5901 82.4327 45.4786C82.2162 45.3671 82.0369 45.1948 81.9169 44.9828C81.797 44.7708 81.7416 44.5284 81.7576 44.2853C81.7736 44.0422 81.8602 43.8091 82.0069 43.6147C82.1536 43.4202 82.3539 43.2728 82.5832 43.1907C82.8125 43.1085 83.0609 43.0952 83.2977 43.1523C83.5345 43.2094 83.7494 43.3344 83.9161 43.512C84.0281 43.6395 84.1139 43.7878 84.1685 43.9484C84.2231 44.109 84.2455 44.2789 84.2344 44.4482C84.2232 44.6175 84.1788 44.783 84.1036 44.9351C84.0284 45.0872 83.924 45.223 83.7962 45.3346Z" fill="#407BFF"/>
<path opacity="0.3" d="M83.5342 45.0527C83.4035 45.1586 83.2448 45.2241 83.0775 45.2411C82.9101 45.258 82.7415 45.2258 82.5922 45.1483C82.443 45.0707 82.3196 44.9513 82.2373 44.8047C82.1549 44.658 82.1172 44.4905 82.1287 44.3227C82.1403 44.1549 82.2005 43.9942 82.3021 43.8601C82.4037 43.7261 82.5423 43.6247 82.7007 43.5683C82.8592 43.5119 83.0306 43.503 83.1941 43.5427C83.3575 43.5824 83.5058 43.6689 83.6207 43.7917C83.6986 43.8799 83.7581 43.9826 83.7959 44.0939C83.8337 44.2053 83.8491 44.323 83.841 44.4403C83.833 44.5576 83.8017 44.6721 83.749 44.7773C83.6963 44.8824 83.6233 44.976 83.5342 45.0527Z" fill="white"/>
<path d="M73.5698 65.3569C75.2805 63.7043 75.4174 61.0708 73.8755 59.4747C72.3337 57.8786 69.6969 57.9244 67.9862 59.577C66.2755 61.2296 66.1386 63.8632 67.6805 65.4593C69.2223 67.0554 71.859 67.0095 73.5698 65.3569Z" fill="#407BFF"/>
<path d="M74.5165 62.4664C74.4698 63.0959 74.2726 63.7049 73.9415 64.2424C73.585 64.8329 73.0836 65.3226 72.485 65.6652C71.8864 66.0078 71.2102 66.1921 70.5205 66.2004C69.863 66.2101 69.2166 66.0307 68.6581 65.6836C68.0996 65.3365 67.6526 64.8362 67.3703 64.2424C67.1096 63.6886 66.9964 63.0768 67.0417 62.4664C67.1234 61.4578 67.5781 60.5159 68.317 59.8246C69.0559 59.1333 70.026 58.7423 71.0377 58.7279C71.5187 58.7215 71.9958 58.8159 72.4381 59.005C72.8804 59.1941 73.2782 59.4738 73.6059 59.8259C73.9336 60.1781 74.1839 60.595 74.3407 61.0498C74.4976 61.5045 74.5574 61.9871 74.5165 62.4664Z" fill="white"/>
<path opacity="0.6" d="M73.9416 64.2446C73.585 64.8351 73.0837 65.3248 72.4851 65.6674C71.8864 66.0101 71.2103 66.1943 70.5205 66.2026C69.8631 66.2123 69.2166 66.0329 68.6582 65.6858C68.0997 65.3387 67.6527 64.8385 67.3704 64.2446C68.3705 63.5993 69.5346 63.2542 70.7248 63.25C71.8739 63.2422 72.9974 63.5896 73.9416 64.2446Z" fill="#407BFF"/>
<path opacity="0.6" d="M72.5319 61.1876C72.4951 61.636 72.2929 62.0547 71.9647 62.3624C71.6365 62.6701 71.2057 62.8448 70.7559 62.8526C70.5413 62.8562 70.3283 62.8147 70.1307 62.7308C69.9331 62.6469 69.7553 62.5225 69.6089 62.3655C69.4624 62.2086 69.3505 62.0227 69.2804 61.8198C69.2103 61.6169 69.1836 61.4015 69.2019 61.1876C69.2387 60.7393 69.4409 60.3206 69.7691 60.0129C70.0973 59.7052 70.5281 59.5305 70.9779 59.5226C71.1925 59.5191 71.4055 59.5606 71.6031 59.6445C71.8007 59.7284 71.9785 59.8528 72.125 60.0098C72.2714 60.1667 72.3833 60.3526 72.4534 60.5555C72.5235 60.7584 72.5503 60.9738 72.5319 61.1876Z" fill="#407BFF"/>
<path d="M62.553 46.6422C62.722 45.6286 62.5152 44.5882 61.9714 43.7162L58.1641 46.2559L59.0143 50.5339C59.3977 50.4324 59.7669 50.2832 60.1132 50.0899C60.4626 49.8955 60.7869 49.6591 61.0789 49.3861C61.8621 48.6611 62.3808 47.6955 62.553 46.6422Z" fill="white"/>
<path d="M61.9003 44.0315C62.329 44.818 62.4851 45.7243 62.3443 46.6089C62.1799 47.6128 61.6863 48.5336 60.9413 49.2263C60.6615 49.4848 60.3514 49.7084 60.0178 49.8923C59.7571 50.0381 59.4827 50.1578 59.1986 50.2497L58.4238 46.3536L61.9092 44.0271M61.9802 43.7118L58.1641 46.2559L59.0143 50.5339C59.3977 50.4324 59.7669 50.2832 60.1132 50.0899C60.4626 49.8955 60.7869 49.6592 61.0789 49.3861C61.8609 48.6599 62.3781 47.6935 62.5486 46.64C62.7176 45.6264 62.5107 44.586 61.9669 43.714L61.9802 43.7118Z" fill="#407BFF"/>
<path d="M58.1641 46.2559L54.2791 44.3845C54.5311 43.9145 54.8589 43.4892 55.2492 43.1257C57.0851 41.4075 59.9112 41.4075 61.5118 43.1257C61.6781 43.3081 61.8268 43.5059 61.9558 43.7163L58.1641 46.2559Z" fill="#407BFF"/>
<path d="M58.1641 46.2559L59.0143 50.5339C58.2766 50.7425 57.4959 50.7461 56.7562 50.5442C56.0165 50.3424 55.3459 49.9428 54.8163 49.3883C53.5931 48.0741 53.3778 46.0583 54.2791 44.3845L58.1641 46.2559Z" fill="#E0E0E0"/>
<path d="M45.4079 54.0415C45.3966 53.8885 45.3966 53.7349 45.4079 53.5819H45.6299C45.6197 53.7246 45.6197 53.8678 45.6299 54.0104L45.4079 54.0415Z" fill="#407BFF"/>
<path d="M45.7764 52.6806L45.5544 52.6229C45.641 52.3111 45.7486 52.0055 45.8763 51.7082L46.0806 51.797C45.9594 52.0844 45.8578 52.3796 45.7764 52.6806ZM46.5024 50.9512L46.3092 50.8424C46.4602 50.5694 46.6289 50.2941 46.811 50.021L46.9952 50.1454C46.8176 50.4118 46.6511 50.6826 46.5024 50.9512ZM47.5502 49.3795L47.3748 49.2418C47.5724 48.991 47.7811 48.7445 47.9964 48.5092L48.1607 48.658C47.952 48.8888 47.7434 49.133 47.5502 49.3795ZM48.8223 47.9831L48.6691 47.821C48.9066 47.599 49.1508 47.377 49.395 47.1883L49.5327 47.3615C49.284 47.5524 49.062 47.7611 48.8223 47.9831ZM50.2941 46.8065L50.172 46.62C50.4402 46.4419 50.7189 46.2802 51.0068 46.136L51.1067 46.3336C50.8274 46.4763 50.5562 46.6342 50.2941 46.8065Z" fill="#407BFF"/>
<path d="M51.9726 45.9807L51.906 45.7587C52.0525 45.7098 52.2013 45.6699 52.35 45.6366L52.3988 45.8586C52.2568 45.8963 52.1147 45.934 51.9726 45.9807Z" fill="#407BFF"/>
<path d="M82.4332 52.1389C82.4199 51.9902 82.3999 51.8459 82.3755 51.7082L82.5975 51.6705C82.6241 51.8126 82.6441 51.9635 82.6596 52.1145L82.4332 52.1389Z" fill="#407BFF"/>
<path d="M78.144 60.7015L78.0308 60.5106C78.2661 60.3707 78.4992 60.2153 78.719 60.0532L78.8499 60.2331C78.6235 60.3996 78.386 60.5572 78.144 60.7015ZM79.5115 59.7003L79.3628 59.5338C79.567 59.3517 79.7668 59.1564 79.9555 58.9543L80.1176 59.1053C79.92 59.3118 79.7202 59.5116 79.5115 59.7003ZM80.6659 58.4593L80.4905 58.3239C80.657 58.1019 80.8169 57.8799 80.9656 57.6468L81.1543 57.7666C81.0011 58.0042 80.8368 58.2373 80.6659 58.4593ZM81.5783 57.0318L81.3807 56.9297C81.5073 56.6855 81.6272 56.4324 81.7337 56.1793L81.938 56.2637C81.8292 56.5257 81.7071 56.7832 81.5783 57.0318ZM82.231 55.4778L82.009 55.4112C82.0934 55.147 82.1666 54.8784 82.231 54.612L82.453 54.6609C82.3931 54.925 82.3176 55.2003 82.231 55.4689V55.4778ZM82.6084 53.8261L82.3864 53.7951C82.4232 53.5219 82.4462 53.247 82.4552 52.9714H82.6772C82.6706 53.2445 82.6461 53.5287 82.6084 53.8173V53.8261Z" fill="#407BFF"/>
<path d="M76.9831 61.2898L76.8965 61.0855C77.0341 61.0278 77.1673 60.9679 77.2983 60.9057L77.3938 61.1055C77.2561 61.1699 77.1229 61.2298 76.9831 61.2898Z" fill="#407BFF"/>
<path d="M64.7241 45.661C64.582 45.6254 64.4399 45.5944 64.3 45.5722L64.3356 45.3502C64.4821 45.3746 64.6308 45.4057 64.7796 45.4434L64.7241 45.661Z" fill="#407BFF"/>
<path d="M71.504 55.6998L71.282 55.6865C71.282 55.56 71.2931 55.429 71.2931 55.298C71.2931 55.1271 71.2931 54.9539 71.2753 54.7785L71.4973 54.763C71.5106 54.9428 71.5173 55.1226 71.5173 55.298C71.5151 55.4334 71.5106 55.5688 71.504 55.6998ZM71.1666 53.8705C71.1155 53.5775 71.0511 53.2778 70.9734 52.9825L71.1954 52.927C71.2753 53.2312 71.3419 53.5398 71.393 53.8395L71.1666 53.8705ZM70.707 52.0945C70.6071 51.8082 70.4961 51.5218 70.3762 51.2421L70.5783 51.1533C70.7026 51.4396 70.8158 51.7305 70.9157 52.0235L70.707 52.0945ZM69.9833 50.414C69.8412 50.1432 69.6902 49.8745 69.5393 49.617L69.728 49.4994C69.89 49.7613 70.0454 50.0344 70.1875 50.3119L69.9833 50.414ZM69.022 48.86C68.84 48.6114 68.6491 48.3694 68.4537 48.1429L68.6224 47.9986C68.8222 48.2206 69.0176 48.4759 69.2018 48.729L69.022 48.86ZM67.8277 47.4792C67.6086 47.2678 67.3789 47.0678 67.1395 46.8798L67.2749 46.7066C67.5207 46.8985 67.7563 47.103 67.9808 47.3193L67.8277 47.4792ZM66.3891 46.3692C66.1306 46.212 65.8613 46.0733 65.5833 45.954L65.6698 45.7498C65.9575 45.8735 66.2363 46.0167 66.5046 46.1782L66.3891 46.3692Z" fill="#407BFF"/>
<path d="M71.2622 57.074L71.0513 57.0052C71.0934 56.872 71.1312 56.7299 71.1623 56.5878L71.3843 56.6344C71.3443 56.7854 71.3044 56.9341 71.2622 57.074Z" fill="#407BFF"/>
<path opacity="0.2" d="M49.9811 39.6292C49.9963 39.4336 49.9705 39.2369 49.9053 39.0518C49.8402 38.8666 49.7372 38.6971 49.6029 38.554C49.4686 38.4109 49.3059 38.2974 49.1252 38.2207C48.9446 38.144 48.7499 38.1058 48.5537 38.1085C48.3539 38.1089 48.1558 38.1465 47.9698 38.2195C47.8385 37.9071 47.6167 37.6411 47.3331 37.4556C47.0495 37.2701 46.7169 37.1735 46.3781 37.1784C45.9465 37.1847 45.5283 37.329 45.1847 37.5903C44.8411 37.8516 44.5903 38.216 44.4689 38.6302C44.0563 38.6611 43.6681 38.8381 43.3743 39.1294C43.0805 39.4208 42.9003 39.8074 42.866 40.2198C42.866 40.2597 42.866 40.2975 42.866 40.3374C42.666 40.3388 42.4735 40.4146 42.3262 40.55C42.1789 40.6854 42.0873 40.8708 42.0691 41.07C42.0606 41.1649 42.0723 41.2605 42.1032 41.3506C42.1341 41.4406 42.1836 41.5232 42.2485 41.5929C42.3134 41.6626 42.3922 41.7179 42.4799 41.7552C42.5675 41.7925 42.662 41.8109 42.7573 41.8093H49.4284C49.7341 41.8048 50.0272 41.6865 50.2505 41.4776C50.4738 41.2687 50.6112 40.9841 50.636 40.6793C50.6539 40.4572 50.5999 40.2352 50.482 40.0461C50.3641 39.8571 50.1885 39.7109 49.9811 39.6292Z" fill="#407BFF"/>
<path opacity="0.2" d="M78.7414 39.6137C78.755 39.4424 78.7327 39.2702 78.676 39.1081C78.6192 38.946 78.5292 38.7975 78.4118 38.6721C78.2944 38.5467 78.152 38.4472 77.994 38.38C77.8359 38.3128 77.6655 38.2793 77.4937 38.2817C77.3187 38.282 77.1454 38.3159 76.9831 38.3816C76.8683 38.1082 76.6745 37.8754 76.4265 37.7129C76.1785 37.5503 75.8877 37.4655 75.5912 37.4692C75.2149 37.4771 74.8509 37.6044 74.5516 37.8326C74.2524 38.0608 74.0334 38.3782 73.9262 38.739C73.5658 38.7663 73.227 38.9213 72.9707 39.176C72.7143 39.4307 72.5572 39.7685 72.5276 40.1287C72.5276 40.1643 72.5276 40.1976 72.5276 40.2309C72.3525 40.233 72.1844 40.3004 72.0563 40.4199C71.9282 40.5394 71.8493 40.7023 71.835 40.8769C71.8278 40.9599 71.8381 41.0434 71.8652 41.1222C71.8923 41.2009 71.9356 41.2732 71.9922 41.3342C72.0489 41.3953 72.1177 41.4438 72.1942 41.4767C72.2707 41.5095 72.3533 41.526 72.4366 41.5251H78.2685C78.5362 41.521 78.7928 41.4173 78.9882 41.2342C79.1836 41.0512 79.3037 40.8019 79.3252 40.535C79.3412 40.3388 79.2929 40.1428 79.1875 39.9766C79.0822 39.8104 78.9256 39.683 78.7414 39.6137Z" fill="#407BFF"/>
<path opacity="0.1" d="M63.5852 36.5456C63.6108 36.2746 63.735 36.0224 63.9343 35.837C64.1337 35.6516 64.3942 35.5459 64.6664 35.54C64.7953 35.5392 64.923 35.5649 65.0416 35.6155C65.1549 35.41 65.3206 35.2382 65.5218 35.1173C65.7229 34.9965 65.9524 34.9309 66.1871 34.9273C66.4601 34.9204 66.7261 35.0144 66.9342 35.1913C67.1422 35.3683 67.2778 35.6157 67.3148 35.8863C67.4443 35.893 67.5712 35.9257 67.6877 35.9824C67.8043 36.0391 67.9083 36.1188 67.9935 36.2166C68.0786 36.3143 68.1432 36.4283 68.1834 36.5516C68.2235 36.6749 68.2384 36.805 68.2272 36.9341C68.2294 36.96 68.2294 36.986 68.2272 37.0118C68.2904 37.0099 68.3533 37.0215 68.4116 37.0459C68.4699 37.0702 68.5224 37.1067 68.5654 37.153C68.6085 37.1992 68.6412 37.2541 68.6614 37.314C68.6816 37.3739 68.6887 37.4374 68.6824 37.5002C68.6714 37.6318 68.6119 37.7546 68.5155 37.8449C68.4191 37.9351 68.2927 37.9864 68.1607 37.9886H63.7517C63.6557 37.9899 63.5605 37.9711 63.4722 37.9334C63.3839 37.8956 63.3045 37.8398 63.2391 37.7696C63.1736 37.6993 63.1236 37.6162 63.0922 37.5254C63.0609 37.4347 63.0488 37.3384 63.0569 37.2427C63.0693 37.0882 63.1256 36.9405 63.2192 36.817C63.3129 36.6935 63.4399 36.5993 63.5852 36.5456Z" fill="#407BFF"/>
<path d="M23.6029 37.3226C23.2255 37.7999 22.8215 38.3194 22.453 38.8367C22.0845 39.3539 21.7071 39.8734 21.3607 40.4062C21.0144 40.939 20.6947 41.4807 20.3862 42.0268C20.0926 42.5637 19.8309 43.1175 19.6025 43.6852L19.6513 43.3255C19.6574 43.7119 19.7081 44.0963 19.8023 44.471C19.9023 44.8552 20.0438 45.2274 20.2241 45.581C20.4129 45.9503 20.6359 46.3011 20.8901 46.6289C21.0166 46.7976 21.1498 46.9619 21.2941 47.1195C21.3652 47.1972 21.4384 47.2749 21.5161 47.3415C21.5938 47.4081 21.6715 47.4969 21.7381 47.5524L21.7803 47.5924C21.8697 47.6782 21.9251 47.7934 21.9363 47.9168C21.9476 48.0403 21.914 48.1636 21.8417 48.2642C21.7694 48.3649 21.6632 48.4361 21.5427 48.4648C21.4221 48.4934 21.2952 48.4777 21.1854 48.4204C20.9536 48.3 20.731 48.1627 20.5194 48.0097C20.3128 47.8628 20.1142 47.705 19.9244 47.5369C19.539 47.1968 19.1927 46.8149 18.8921 46.398C18.5863 45.9666 18.3364 45.4981 18.1484 45.0038C17.956 44.4994 17.8313 43.9716 17.7777 43.4343C17.7682 43.3303 17.7795 43.2254 17.811 43.1257L17.8265 43.0747C18.0457 42.4019 18.312 41.7454 18.6235 41.11C18.9298 40.4861 19.2673 39.8867 19.6247 39.3051C19.9821 38.7235 20.3573 38.1551 20.7547 37.6024C21.1521 37.0496 21.5517 36.519 22.0112 35.9795C22.1875 35.7719 22.4382 35.6418 22.7095 35.6172C22.9808 35.5926 23.2509 35.6756 23.4616 35.8481C23.6723 36.0207 23.8068 36.2692 23.8362 36.54C23.8655 36.8108 23.7873 37.0823 23.6185 37.296L23.6029 37.3226Z" fill="#B55B52"/>
<path d="M21.3118 47.3415L23.2255 48.1674L21.3562 49.0554C21.3562 49.0554 20.2618 48.3094 20.355 47.4836L21.3118 47.3415Z" fill="#B55B52"/>
<path d="M24.0736 49.6592L22.4641 50.3185L21.3652 49.0554L23.2367 48.1674L24.0736 49.6592Z" fill="#B55B52"/>
<path d="M25.2346 31.1511C25.4699 32.3654 25.7052 34.581 24.8594 35.3557C25.5434 36.4845 26.5579 37.3757 27.7654 37.9087C29.3815 36.9541 28.6112 35.4845 28.6112 35.4845C27.2659 35.1182 27.3014 34.1214 27.5367 33.1935L25.2346 31.1511Z" fill="#B55B52"/>
<path d="M24.2377 35.4956C24.1911 35.3113 24.1964 35.1176 24.2533 34.9361C24.2533 34.9361 27.2525 34.5787 28.2004 34.8096C29.1484 35.0405 29.508 35.9862 29.508 35.9862L24.2377 35.4956Z" fill="#E0E0E0"/>
<path d="M30.0476 29.4372C30.0476 29.6015 30.1364 29.7369 30.243 29.7391C30.3495 29.7414 30.4361 29.6126 30.4339 29.4461C30.4317 29.2796 30.3473 29.1464 30.2407 29.142C30.1342 29.1375 30.0476 29.2707 30.0476 29.4372Z" fill="#263238"/>
<path d="M30.1919 29.1508L30.5826 29.0465C30.5826 29.0465 30.385 29.3506 30.1919 29.1508Z" fill="#263238"/>
<path d="M30.0898 29.8146C30.2369 30.195 30.434 30.5541 30.6759 30.8824C30.592 30.9402 30.4962 30.9785 30.3956 30.9947C30.295 31.0108 30.1921 31.0043 30.0943 30.9757L30.0898 29.8146Z" fill="#A02724"/>
<path d="M29.5903 28.5403C29.5655 28.5408 29.5413 28.533 29.5215 28.5181C29.5016 28.5017 29.4889 28.4781 29.486 28.4524C29.4831 28.4268 29.4902 28.401 29.5059 28.3805C29.5972 28.2603 29.7166 28.1644 29.8536 28.1013C29.9907 28.0382 30.1412 28.0098 30.2918 28.0186C30.3176 28.022 30.341 28.0352 30.3571 28.0555C30.3733 28.0758 30.3809 28.1016 30.3784 28.1274C30.3776 28.1398 30.3743 28.1519 30.3686 28.1629C30.363 28.174 30.3551 28.1837 30.3455 28.1916C30.336 28.1995 30.3249 28.2054 30.313 28.2089C30.3011 28.2123 30.2886 28.2133 30.2763 28.2118C30.157 28.2064 30.0382 28.2303 29.9302 28.2814C29.8223 28.3325 29.7284 28.4092 29.6569 28.5048C29.6488 28.515 29.6387 28.5233 29.6273 28.5294C29.6158 28.5355 29.6032 28.5393 29.5903 28.5403Z" fill="#263238"/>
<path d="M24.5597 28.6114C24.6906 30.6382 24.704 31.4974 25.7207 32.5652C27.2503 34.1703 29.6812 33.6419 30.1607 31.635C30.5825 29.8279 30.2961 26.8154 28.3314 25.9563C27.9073 25.7601 27.4389 25.6789 26.9735 25.7209C26.508 25.763 26.0618 25.9267 25.6796 26.1958C25.2974 26.4648 24.9928 26.8296 24.7962 27.2536C24.5996 27.6776 24.518 28.1459 24.5597 28.6114Z" fill="#B55B52"/>
<path d="M24.642 26.3914C23.8583 26.5778 22.8482 28.2428 23.088 29.4106C23.3433 30.6316 21.09 32.3987 22.8194 32.9826C24.7374 33.6308 24.6553 34.6697 26.9308 34.1591C28.1252 33.8927 31.5373 34.2435 29.839 31.4841C28.3827 29.122 29.1419 28.154 29.1419 28.154C29.3671 28.1555 29.5899 28.1073 29.7944 28.0129C29.9989 27.9185 30.1801 27.7802 30.3252 27.6079C30.8225 27.0174 30.374 24.3756 28.7512 25.2858C27.3348 26.065 23.663 24.5932 24.642 26.3914Z" fill="#263238"/>
<path d="M28.4957 29.7946C28.5227 29.987 28.5949 30.1702 28.7064 30.3292C28.818 30.4882 28.9656 30.6184 29.1373 30.7093C29.5369 30.8536 29.6412 30.5472 29.6834 30.0744C29.7189 29.6481 29.5857 29.0065 29.1728 28.9533C28.7599 28.9 28.4513 29.3462 28.4957 29.7946Z" fill="#B55B52"/>
<path d="M29.881 48.0519C29.881 48.0519 31.0465 63.199 31.1642 69.6459C31.1691 69.9033 31.1483 70.1606 31.102 70.414C29.124 81.1832 26.8996 90.2097 26.8996 90.2097L25.8029 89.91C25.8029 89.91 26.0427 77.4603 27.4546 69.5571C26.0626 62.6529 24.6418 48.0519 24.6418 48.0519H29.881Z" fill="#B55B52"/>
<path d="M29.1774 48.0519C29.1774 48.0519 26.1049 62.9259 25.0327 69.1308C23.9227 75.5799 21.7559 91.0622 21.7559 91.0622H20.6304C20.6304 91.0622 19.7424 76.6011 21.5606 69.5571C21.4429 62.6529 22.8704 48.0519 22.8704 48.0519H29.1774Z" fill="#B55B52"/>
<path d="M31.9323 37.1428C31.9089 36.7624 31.7579 36.401 31.5037 36.1169C31.2496 35.8329 30.907 35.643 30.5315 35.5777C29.8655 35.4667 29.0041 35.3358 28.1938 35.2625C26.9463 35.1725 25.6939 35.1725 24.4464 35.2625C23.9669 35.2914 23.5007 35.3269 23.0789 35.3757C22.8308 35.4039 22.5917 35.4851 22.3777 35.6137C22.1637 35.7424 21.9799 35.9155 21.8386 36.1214C21.6974 36.3272 21.602 36.5611 21.559 36.807C21.516 37.053 21.5263 37.3053 21.5893 37.5469C22.9213 43.0014 22.8525 45.0127 22.8281 48.0519C19.5913 53.0247 20.7857 57.9886 20.355 65.0194C23.7716 65.6587 27.7609 64.9994 31.3418 65.4501C32.1698 57.0518 31.1353 49.5726 30.7313 48.0519C31.5549 41.6827 32.0122 38.628 31.9323 37.1428Z" fill="#263238"/>
<path d="M22.8081 35.429C21.3807 35.893 20.5393 37.256 20.5393 37.256C20.5393 37.256 22.3641 40.0532 22.5684 40.8325C23.3276 38.7834 22.8081 35.429 22.8081 35.429Z" fill="#263238"/>
<path d="M30.3873 64.0315H30.3718C30.2569 64.0298 30.1437 64.0031 30.0402 63.9533C29.9367 63.9035 29.8453 63.8316 29.7724 63.7429C29.7164 63.6705 29.6448 63.6117 29.5629 63.571C29.481 63.5302 29.391 63.5085 29.2995 63.5075C29.1035 63.5116 28.9166 63.5911 28.7778 63.7295C28.6944 63.8134 28.5951 63.8798 28.4857 63.9248C28.3763 63.9698 28.259 63.9925 28.1407 63.9915C28.0263 63.9903 27.9135 63.964 27.8103 63.9145C27.7072 63.865 27.6161 63.7936 27.5435 63.7051C27.4874 63.6329 27.4158 63.5742 27.3339 63.5335C27.2521 63.4927 27.1621 63.471 27.0706 63.4698C26.8753 63.4738 26.689 63.5533 26.5511 63.6918C26.4686 63.7776 26.3692 63.8454 26.2592 63.8909C26.1491 63.9364 26.0308 63.9585 25.9118 63.956C25.7973 63.9542 25.6845 63.9274 25.5814 63.8776C25.4782 63.8277 25.3872 63.756 25.3146 63.6674C25.2587 63.595 25.1871 63.5363 25.1052 63.4955C25.0233 63.4547 24.9332 63.4331 24.8417 63.4321C24.7447 63.4325 24.6488 63.4523 24.5595 63.4905C24.4703 63.5286 24.3896 63.5842 24.3223 63.6541C24.1563 63.8178 23.9338 63.9115 23.7007 63.916H23.6851C23.5707 63.9151 23.4578 63.8889 23.3546 63.8394C23.2514 63.7899 23.1603 63.7183 23.0879 63.6296C23.0319 63.5574 22.9603 63.4987 22.8784 63.458C22.7965 63.4172 22.7065 63.3955 22.6151 63.3943C22.5177 63.3946 22.4214 63.4143 22.3317 63.4525C22.2421 63.4906 22.1611 63.5463 22.0934 63.6163C21.9243 63.7852 21.6952 63.8802 21.4562 63.8805C21.3417 63.8788 21.2289 63.8521 21.1257 63.8023C21.0226 63.7524 20.9316 63.6806 20.8591 63.5919C20.8038 63.5195 20.7326 63.4608 20.651 63.4204C20.5694 63.38 20.4795 63.3589 20.3884 63.3588V63.1768C20.503 63.1784 20.6158 63.2051 20.719 63.255C20.8221 63.3048 20.9131 63.3766 20.9856 63.4654C21.04 63.5404 21.1109 63.6019 21.1929 63.645C21.2749 63.6882 21.3658 63.7118 21.4585 63.714C21.6541 63.7112 21.8407 63.6314 21.9779 63.492C22.1437 63.3279 22.3663 63.2341 22.5995 63.23H22.6151C22.7295 63.2313 22.8422 63.2576 22.9454 63.307C23.0486 63.3565 23.1397 63.428 23.2123 63.5164C23.2683 63.5887 23.34 63.6473 23.4218 63.6881C23.5037 63.7288 23.5937 63.7506 23.6851 63.7517C23.7821 63.751 23.878 63.7309 23.9671 63.6928C24.0563 63.6547 24.137 63.5993 24.2046 63.5297C24.2873 63.4441 24.3867 63.3765 24.4968 63.331C24.6068 63.2856 24.725 63.2633 24.844 63.2656C24.9585 63.2672 25.0713 63.2939 25.1745 63.3438C25.2777 63.3936 25.3687 63.4654 25.4411 63.5542C25.4971 63.6265 25.5687 63.6853 25.6506 63.726C25.7325 63.7668 25.8225 63.7885 25.914 63.7895C26.1095 63.7862 26.296 63.7065 26.4335 63.5675C26.5995 63.4038 26.822 63.31 27.0551 63.3055H27.0839C27.1984 63.3065 27.3113 63.3326 27.4145 63.3821C27.5177 63.4316 27.6087 63.5032 27.6811 63.5919C27.7372 63.6641 27.8088 63.7228 27.8907 63.7636C27.9726 63.8043 28.0626 63.8261 28.154 63.8272C28.3498 63.8222 28.5363 63.7429 28.6757 63.6052C28.7578 63.5195 28.8568 63.4517 28.9665 63.4062C29.0762 63.3607 29.1941 63.3385 29.3128 63.341C29.4277 63.3427 29.5409 63.3694 29.6444 63.4192C29.7479 63.469 29.8393 63.5409 29.9122 63.6296C29.9683 63.7019 30.0399 63.7606 30.1218 63.8013C30.2037 63.842 30.2937 63.8638 30.3851 63.865C30.4826 63.8654 30.5791 63.8459 30.6688 63.8077C30.7585 63.7695 30.8395 63.7135 30.9068 63.643C30.9899 63.5581 31.0895 63.491 31.1994 63.446C31.3094 63.4009 31.4274 63.3788 31.5462 63.381V63.5608C31.4488 63.5613 31.3525 63.5812 31.263 63.6193C31.1734 63.6574 31.0923 63.713 31.0244 63.7828C30.94 63.8643 30.8401 63.9283 30.7308 63.9709C30.6214 64.0136 30.5047 64.0342 30.3873 64.0315Z" fill="white"/>
<path opacity="0.2" d="M26.1692 61.6983L25.4477 55.4556L23.3809 54.279L26.1692 61.6983Z" fill="black"/>
<path d="M22.3996 48.7246L30.9222 49.4594C31.0399 49.4594 31.1309 49.304 31.1442 49.0709L31.1775 47.6523C31.1775 47.3659 31.0621 47.1017 30.92 47.0884L22.7415 46.4224C22.6239 46.4224 22.5328 46.5778 22.5195 46.8109L22.1399 48.174C22.1332 48.4471 22.2553 48.7135 22.3996 48.7246Z" fill="#407BFF"/>
<path d="M32.0389 36.9031L32.5251 40.6771L32.787 42.553C32.8803 43.1746 32.9735 43.7939 33.0801 44.4067L33.0623 44.3356C33.1322 44.5763 33.2267 44.8091 33.3442 45.0305C33.4708 45.2813 33.6217 45.5389 33.7882 45.7942C34.1101 46.307 34.4653 46.8176 34.8361 47.3215C35.2068 47.8255 35.5864 48.3316 35.9816 48.8267C36.3768 49.3217 36.7719 49.8235 37.1649 50.3141C37.2432 50.4146 37.2816 50.5404 37.2729 50.6675C37.2642 50.7946 37.2088 50.9139 37.1175 51.0028C37.0262 51.0916 36.9054 51.1436 36.7781 51.1488C36.6508 51.1541 36.5261 51.1122 36.4278 51.0311C35.9261 50.6049 35.4555 50.1631 34.9848 49.7125C34.5142 49.2618 34.068 48.7889 33.624 48.305C33.18 47.821 32.7515 47.3171 32.3497 46.7732C32.1477 46.5001 31.9501 46.2182 31.7636 45.9118C31.5567 45.5798 31.3884 45.2253 31.2619 44.8551V44.8373L31.2486 44.7863C30.9466 43.5098 30.7024 42.2422 30.5026 40.9701C30.4005 40.3352 30.3006 39.7003 30.214 39.0631C30.1275 38.426 30.0453 37.7911 29.992 37.1428C29.9608 36.869 30.0397 36.5941 30.2112 36.3784C30.3827 36.1628 30.6329 36.0241 30.9067 35.9929C31.1805 35.9617 31.4554 36.0405 31.6711 36.212C31.8867 36.3835 32.0254 36.6337 32.0566 36.9075L32.0389 36.9031Z" fill="#B55B52"/>
<path d="M30.4917 35.5711C32.1611 35.7709 32.4897 37.0918 32.4897 37.0918C32.4897 37.0918 30.5205 39.4805 30.0699 40.8325C28.9132 37.074 30.4917 35.5711 30.4917 35.5711Z" fill="#263238"/>
<path d="M53.8571 42.8438L35.9861 52.6695L35.7507 52.2388L53.7394 42.6262L53.8571 42.8438Z" fill="#263238"/>
<path d="M36.681 49.9167L38.679 50.2408L37.1139 51.6128C37.1139 51.6128 35.9129 51.1555 35.8152 50.3052L36.681 49.9167Z" fill="#B55B52"/>
<path d="M37.2227 49.8412C37.2672 49.903 37.2926 49.9763 37.296 50.0523C37.2993 50.1282 37.2804 50.2035 37.2416 50.2689C37.2028 50.3343 37.1457 50.3869 37.0775 50.4204C37.0092 50.4538 36.9326 50.4666 36.8572 50.4572C36.7817 50.4477 36.7106 50.4165 36.6527 50.3673C36.5947 50.3181 36.5524 50.253 36.5309 50.1801C36.5093 50.1071 36.5096 50.0295 36.5315 49.9567C36.5535 49.8839 36.5962 49.8191 36.6544 49.7702C36.7393 49.7046 36.8467 49.6752 36.9532 49.6885C37.0597 49.7018 37.1566 49.7567 37.2227 49.8412Z" fill="#263238"/>
<path d="M35.9638 50.6626C35.9049 50.6634 35.846 50.6574 35.7884 50.6449C35.7599 50.638 35.7353 50.6202 35.7199 50.5952C35.7045 50.5703 35.6996 50.5402 35.7063 50.5117C35.7131 50.4832 35.731 50.4585 35.7559 50.4431C35.7809 50.4278 35.8109 50.4229 35.8395 50.4295C35.8661 50.4295 36.4322 50.5472 36.8318 49.8834C36.8394 49.8708 36.8493 49.8599 36.8611 49.8511C36.8729 49.8424 36.8863 49.8361 36.9005 49.8326C36.9148 49.8291 36.9296 49.8284 36.9441 49.8307C36.9586 49.8329 36.9725 49.838 36.985 49.8457C37.01 49.8613 37.0279 49.886 37.0349 49.9146C37.042 49.9432 37.0376 49.9734 37.0227 49.9989C36.9222 50.1945 36.7708 50.3594 36.5844 50.4762C36.3981 50.593 36.1837 50.6574 35.9638 50.6626Z" fill="#263238"/>
<path d="M39.305 51.8992L38.7855 52.3054C38.6836 52.3862 38.5581 52.4313 38.4281 52.4337C38.2981 52.4361 38.171 52.3957 38.0662 52.3188L37.1094 51.6128L38.6745 50.2408L39.3804 51.0356C39.4345 51.0962 39.4756 51.1672 39.5013 51.2442C39.5269 51.3213 39.5364 51.4028 39.5294 51.4837C39.5223 51.5646 39.4987 51.6432 39.4601 51.7147C39.4216 51.7861 39.3687 51.8489 39.305 51.8992Z" fill="#B55B52"/>
<path d="M27.0838 90.0721L25.7851 89.7169C25.7507 89.7072 25.7141 89.7097 25.6814 89.7238C25.6487 89.738 25.6218 89.7629 25.6053 89.7946L25.0547 90.9712C25.0374 91.0072 25.0283 91.0466 25.0281 91.0865C25.0279 91.1265 25.0366 91.166 25.0536 91.2021C25.0707 91.2383 25.0955 91.2702 25.1264 91.2955C25.1573 91.3209 25.1935 91.339 25.2323 91.3486C25.9272 91.5262 26.1203 91.5084 26.9928 91.7748C27.732 91.9968 27.7453 92.3853 28.973 92.4674C29.7145 92.5163 29.548 91.9036 29.235 91.837C28.125 91.5994 28.0162 91.2331 27.3924 90.4184C27.3058 90.2918 27.2414 90.1142 27.0838 90.0721Z" fill="#263238"/>
<path d="M21.9223 90.7114H20.5903C20.555 90.7101 20.5205 90.7222 20.4937 90.7452C20.467 90.7683 20.4499 90.8006 20.446 90.8358L20.2839 92.13C20.2789 92.1703 20.2825 92.2112 20.2945 92.25C20.3065 92.2888 20.3266 92.3246 20.3534 92.3551C20.3803 92.3855 20.4133 92.4099 20.4503 92.4266C20.4874 92.4433 20.5275 92.4519 20.5681 92.4519C21.2785 92.4386 21.0498 92.4519 21.9445 92.4519H23.221C23.9647 92.4519 23.7294 91.8747 23.4141 91.8037C22.7925 91.6683 22.6194 91.4485 22.3041 90.9667C22.266 90.8964 22.2113 90.8364 22.1448 90.7919C22.0783 90.7474 22.0019 90.7198 21.9223 90.7114Z" fill="#263238"/>
</svg>
