<svg width="126" height="94" viewBox="0 0 126 94" fill="none" xmlns="http://www.w3.org/2000/svg">
<path d="M113.056 86.3159H104.733V86.3788H113.056V86.3159Z" fill="#EBEBEB"/>
<path d="M83.2325 86.9995H81.0488V87.0623H83.2325V86.9995Z" fill="#EBEBEB"/>
<path d="M104.481 83.984H99.6592V84.0468H104.481V83.984Z" fill="#EBEBEB"/>
<path d="M24.0359 84.4061H13.1826V84.469H24.0359V84.4061Z" fill="#EBEBEB"/>
<path d="M27.8661 84.4061H26.2754V84.469H27.8661V84.4061Z" fill="#EBEBEB"/>
<path d="M56.5781 85.4666H33.0371V85.5294H56.5781V85.4666Z" fill="#EBEBEB"/>
<path d="M59.9074 71.0651H11.3831C11.0026 71.0651 10.6376 70.9139 10.3685 70.6448C10.0994 70.3758 9.94824 70.0108 9.94824 69.6302V1.42231C9.95156 1.04394 10.1042 0.682192 10.3729 0.415813C10.6417 0.149433 11.0047 -1.4506e-05 11.3831 1.05606e-09H59.9074C60.0958 1.05606e-09 60.2824 0.0371137 60.4565 0.109223C60.6306 0.181332 60.7888 0.287024 60.922 0.420264C61.0553 0.553504 61.1609 0.711684 61.2331 0.885771C61.3052 1.05986 61.3423 1.24644 61.3423 1.43487V69.6302C61.3423 69.8187 61.3052 70.0052 61.2331 70.1793C61.1609 70.3534 61.0553 70.5116 60.922 70.6448C60.7888 70.7781 60.6306 70.8838 60.4565 70.9559C60.2824 71.028 60.0958 71.0651 59.9074 71.0651ZM11.3831 0.0502584C11.0194 0.0509227 10.6708 0.19569 10.4137 0.452856C10.1565 0.710021 10.0117 1.05862 10.0111 1.42231V69.6302C10.0117 69.9939 10.1565 70.3425 10.4137 70.5997C10.6708 70.8568 11.0194 71.0016 11.3831 71.0023H59.9074C60.2711 71.0016 60.6197 70.8568 60.8769 70.5997C61.134 70.3425 61.2788 69.9939 61.2795 69.6302V1.42231C61.2788 1.05862 61.134 0.710021 60.8769 0.452856C60.6197 0.19569 60.2711 0.0509227 59.9074 0.0502584H11.3831Z" fill="#EBEBEB"/>
<path d="M114.262 71.0651H65.7376C65.3571 71.0651 64.9921 70.9139 64.723 70.6448C64.4539 70.3758 64.3027 70.0108 64.3027 69.6302V1.42231C64.306 1.04394 64.4587 0.682192 64.7274 0.415813C64.9961 0.149433 65.3592 -1.4506e-05 65.7376 1.05606e-09H114.262C114.642 1.05607e-09 115.007 0.151174 115.277 0.420264C115.546 0.689355 115.697 1.05432 115.697 1.43487V69.6302C115.697 70.0108 115.546 70.3758 115.277 70.6448C115.007 70.9139 114.642 71.0651 114.262 71.0651ZM65.7376 0.0502584C65.3739 0.0509227 65.0253 0.19569 64.7682 0.452856C64.511 0.710021 64.3662 1.05862 64.3656 1.42231V69.6302C64.3662 69.9939 64.511 70.3425 64.7682 70.5997C65.0253 70.8568 65.3739 71.0016 65.7376 71.0023H114.262C114.626 71.0016 114.974 70.8568 115.231 70.5997C115.489 70.3425 115.633 69.9939 115.634 69.6302V1.42231C115.633 1.05862 115.489 0.710021 115.231 0.452856C114.974 0.19569 114.626 0.0509227 114.262 0.0502584H65.7376Z" fill="#EBEBEB"/>
<path d="M125.646 82.2727H0V82.3355H125.646V82.2727Z" fill="#EBEBEB"/>
<path d="M42.6211 17.4094H24.3623V40.5458H42.6211V17.4094Z" fill="#F0F0F0"/>
<path d="M40.8043 19.7113H26.1816V38.2415H40.8043V19.7113Z" fill="#FAFAFA"/>
<path d="M22.953 40.5458H24.3652L24.3652 17.4094H22.953L22.953 40.5458Z" fill="#E0E0E0"/>
<path d="M35.6209 29.2628C36.4056 30.0476 36.8465 31.112 36.8465 32.2218C36.8465 33.3316 36.4056 34.396 35.6209 35.1807C34.8361 35.9655 33.7718 36.4064 32.6619 36.4064C31.5521 36.4064 30.4877 35.9655 29.703 35.1807C28.0671 33.5448 33.985 27.6269 35.6209 29.2628Z" fill="#F5F5F5"/>
<path d="M31.2505 28.9387C30.9448 28.6329 30.7022 28.27 30.5368 27.8705C30.3713 27.471 30.2861 27.0429 30.2861 26.6105C30.2861 26.1781 30.3713 25.7499 30.5368 25.3504C30.7022 24.951 30.9448 24.588 31.2505 24.2823C31.5563 23.9765 31.9192 23.734 32.3187 23.5685C32.7182 23.403 33.1463 23.3179 33.5787 23.3179C34.0111 23.3179 34.4393 23.403 34.8387 23.5685C35.2382 23.734 35.6012 23.9765 35.9069 24.2823C37.191 25.5689 32.5371 30.2253 31.2505 28.9387Z" fill="#EBEBEB"/>
<path d="M98.1247 49.9366H95.9561V82.4235H98.1247V49.9366Z" fill="#F0F0F0"/>
<path d="M99.0688 49.9366H97.1816V82.4235H99.0688V49.9366Z" fill="#E6E6E6"/>
<path d="M76.2595 49.9366H74.0908V82.4235H76.2595V49.9366Z" fill="#F0F0F0"/>
<path d="M77.2046 49.9366H75.3174V82.4235H77.2046V49.9366Z" fill="#E6E6E6"/>
<path d="M106.346 49.9366H104.178V82.4235H106.346V49.9366Z" fill="#F0F0F0"/>
<path d="M107.289 49.9366H105.401V82.4235H107.289V49.9366Z" fill="#E6E6E6"/>
<path d="M84.4821 49.9366H82.3135V82.4235H84.4821V49.9366Z" fill="#F0F0F0"/>
<path d="M107.291 47.8508H74.0928V50.4542H107.291V47.8508Z" fill="#F0F0F0"/>
<path d="M83.5388 47.8508H74.0928V50.4542H83.5388V47.8508Z" fill="#E0E0E0"/>
<path d="M85.4263 49.9366H83.5391V82.4235H85.4263V49.9366Z" fill="#E6E6E6"/>
<path d="M30.7984 48.0167H16.9121V82.4235H30.7984V48.0167Z" fill="#E6E6E6"/>
<path d="M56.7741 48.0167H27.7676V82.4235H56.7741V48.0167Z" fill="#F5F5F5"/>
<path d="M46.8913 50.1878H51.6281C52.1231 50.1878 52.6133 50.2853 53.0706 50.4748C53.5279 50.6642 53.9435 50.9418 54.2935 51.2919C54.6435 51.6419 54.9211 52.0574 55.1106 52.5147C55.3 52.9721 55.3975 53.4622 55.3975 53.9572V80.7147H43.127V53.9522C43.1283 52.9542 43.5253 51.9975 44.231 51.2919C44.9366 50.5862 45.8933 50.1892 46.8913 50.1878Z" fill="#EBEBEB"/>
<path d="M33.195 50.1878H37.9444C38.4394 50.1878 38.9296 50.2853 39.3869 50.4748C39.8442 50.6642 40.2597 50.9418 40.6097 51.2919C40.9598 51.6419 41.2374 52.0574 41.4268 52.5147C41.6163 52.9721 41.7138 53.4622 41.7138 53.9572V80.7147H29.4307V53.9522C29.432 52.9542 29.829 51.9975 30.5347 51.2919C31.2403 50.5862 32.197 50.1892 33.195 50.1878Z" fill="#EBEBEB"/>
<path d="M40.5934 65.2201C40.5787 65.4574 40.4949 65.6852 40.3524 65.8754C40.2098 66.0657 40.0147 66.2101 39.7912 66.2909C39.5676 66.3717 39.3252 66.3853 39.094 66.3301C38.8628 66.2749 38.6527 66.1533 38.4897 65.9803C38.3267 65.8072 38.2179 65.5902 38.1767 65.3561C38.1354 65.1219 38.1636 64.8809 38.2576 64.6625C38.3517 64.4442 38.5075 64.2581 38.706 64.1272C38.9045 63.9964 39.1369 63.9264 39.3746 63.9259C39.5397 63.9308 39.7021 63.9682 39.8527 64.0358C40.0033 64.1035 40.139 64.2002 40.2522 64.3204C40.3654 64.4406 40.4538 64.5819 40.5123 64.7363C40.5709 64.8907 40.5984 65.0551 40.5934 65.2201Z" fill="#E0E0E0"/>
<path d="M46.8688 65.2201C46.8541 65.4575 46.7702 65.6854 46.6276 65.8757C46.4849 66.066 46.2897 66.2104 46.066 66.2911C45.8422 66.3718 45.5998 66.3853 45.3685 66.3299C45.1372 66.2745 44.9271 66.1527 44.7642 65.9793C44.6014 65.806 44.4928 65.5888 44.4518 65.3545C44.4108 65.1202 44.4393 64.8791 44.5338 64.6608C44.6282 64.4425 44.7844 64.2566 44.9832 64.126C45.182 63.9954 45.4147 63.9259 45.6525 63.9259C45.9854 63.9364 46.3004 64.0786 46.5285 64.3213C46.7565 64.564 46.8789 64.8872 46.8688 65.2201Z" fill="#E0E0E0"/>
<path d="M62.8234 93.4828C89.7323 93.4828 111.546 92.2092 111.546 90.6382C111.546 89.0671 89.7323 87.7935 62.8234 87.7935C35.9145 87.7935 14.1006 89.0671 14.1006 90.6382C14.1006 92.2092 35.9145 93.4828 62.8234 93.4828Z" fill="#F5F5F5"/>
<path d="M73.5079 83.7779C73.4853 80.1819 72.4173 77.9756 71.5227 76.7594C71.0155 76.0221 70.3502 75.4074 69.5752 74.9601L69.6883 74.7239C69.7285 74.744 73.7265 76.7342 73.7718 83.7704L73.5079 83.7779Z" fill="#407BFF"/>
<path d="M74.5464 83.1421L74.2951 83.1195C75.3254 71.4496 67.5102 67.3485 67.4424 67.3083L67.5605 67.0746C67.6309 67.1148 75.5943 71.2963 74.5464 83.1421Z" fill="#407BFF"/>
<path d="M75.4277 83.5769C75.1487 76.9302 75.8523 69.5423 75.8599 69.4669L76.1112 69.492C76.1112 69.5674 75.4025 76.9378 75.6815 83.5643L75.4277 83.5769Z" fill="#407BFF"/>
<path d="M75.9482 83.9639C76.4031 81.1293 77.5163 79.5185 78.3682 78.6666C78.8591 78.1461 79.4601 77.7418 80.1272 77.4831L80.0669 77.282C80.0317 77.282 76.6368 78.3726 75.7422 83.9312L75.9482 83.9639Z" fill="#407BFF"/>
<g opacity="0.3">
<path d="M73.5089 83.7779C73.4863 80.1819 72.4183 77.9756 71.5237 76.7594C71.0165 76.0221 70.3512 75.4074 69.5762 74.9601L69.6893 74.7239C69.7295 74.744 73.7275 76.7342 73.7727 83.7704L73.5089 83.7779Z" fill="white"/>
<path d="M74.5464 83.1421L74.2951 83.1195C75.3254 71.4496 67.5102 67.3485 67.4424 67.3083L67.5605 67.0746C67.6309 67.1148 75.5943 71.2963 74.5464 83.1421Z" fill="white"/>
<path d="M75.4286 83.5769C75.1497 76.9302 75.8533 69.5423 75.8609 69.4669L76.1122 69.492C76.1122 69.5674 75.4035 76.9378 75.6825 83.5643L75.4286 83.5769Z" fill="white"/>
<path d="M75.9482 83.9639C76.4031 81.1293 77.5163 79.5185 78.3682 78.6666C78.8591 78.1461 79.4601 77.7418 80.1272 77.4831L80.0669 77.282C80.0317 77.282 76.6368 78.3726 75.7422 83.9312L75.9482 83.9639Z" fill="white"/>
</g>
<path d="M68.3116 67.5973C68.3116 67.5973 66.5752 63.1771 64.0799 66.4614C62.0545 69.1276 64.0799 72.0476 64.0799 72.0476C64.0799 72.0476 74.9432 72.3215 73.0007 68.1752C71.797 65.6121 68.3116 67.5973 68.3116 67.5973Z" fill="#407BFF"/>
<g opacity="0.5">
<path d="M67.9573 67.7983C67.9573 67.7983 64.7559 67.2957 64.7383 67.547C64.7207 67.7983 67.5452 67.9114 67.2814 68.2607C67.0175 68.61 64.296 68.9115 64.2659 69.2457C64.2357 69.58 66.8165 68.7658 66.7009 69.0623C66.5853 69.3588 64.8614 70.7434 64.8338 71.1103C64.8062 71.4772 66.4521 69.5473 66.6481 69.7659C66.8441 69.9845 66.9446 71.7335 67.1105 71.3315C67.2764 70.9294 67.0753 69.1653 67.4724 68.8185C67.8694 68.4718 70.1989 70.6756 70.7266 70.3791C71.2543 70.0825 68.1433 68.8537 67.9573 67.7983Z" fill="white"/>
<path d="M69.6309 67.9742C69.6309 67.9742 72.2945 68.0094 72.375 68.7281C72.4554 69.4468 71.8699 68.6854 69.6309 67.9742Z" fill="white"/>
</g>
<path d="M69.2568 83.5568L70.4932 90.2738C70.556 90.6165 70.737 90.9264 71.0047 91.1495C71.2723 91.3726 71.6097 91.4949 71.9582 91.4951H76.7704C77.1189 91.4949 77.4563 91.3726 77.7239 91.1495C77.9916 90.9264 78.1726 90.6165 78.2354 90.2738L79.4743 83.5568C79.4971 83.4319 79.4922 83.3035 79.46 83.1807C79.4277 83.0579 79.3689 82.9437 79.2876 82.8461C79.2064 82.7486 79.1047 82.67 78.9897 82.6161C78.8748 82.5622 78.7494 82.5342 78.6224 82.534H70.1112C69.9839 82.5333 69.858 82.5608 69.7425 82.6144C69.627 82.6681 69.5248 82.7465 69.4432 82.8442C69.3616 82.942 69.3026 83.0565 69.2703 83.1797C69.2381 83.3028 69.2335 83.4316 69.2568 83.5568Z" fill="#407BFF"/>
<path d="M68.5055 75.3471C68.5055 75.3471 65.5201 72.8166 64.9874 76.1738C64.5577 78.8978 67.1585 80.2297 67.1585 80.2297C67.1585 80.2297 75.1521 76.209 72.1241 73.9474C70.2645 72.5552 68.5055 75.3471 68.5055 75.3471Z" fill="#407BFF"/>
<path opacity="0.2" d="M68.5055 75.3471C68.5055 75.3471 65.5201 72.8166 64.9874 76.1738C64.5577 78.8978 67.1585 80.2297 67.1585 80.2297C67.1585 80.2297 75.1521 76.209 72.1241 73.9474C70.2645 72.5552 68.5055 75.3471 68.5055 75.3471Z" fill="black"/>
<g opacity="0.5">
<path d="M68.3289 75.6386C68.3289 75.6386 65.816 76.5257 65.8964 76.7141C65.9768 76.9026 68.0751 75.8849 68.0198 76.2417C67.9645 76.5985 66.1075 77.8776 66.2181 78.1314C66.3286 78.3852 67.8816 76.7895 67.9143 77.0483C67.947 77.3072 67.2333 78.9858 67.3564 79.2647C67.4796 79.5437 67.9218 77.5057 68.148 77.5811C68.3741 77.6565 69.133 78.8928 69.0954 78.536C69.0577 78.1791 68.2234 76.978 68.3792 76.5734C68.535 76.1688 71.0831 76.8599 71.3494 76.4377C71.6158 76.0155 68.8717 76.3246 68.3289 75.6386Z" fill="white"/>
<path d="M69.6074 75.1134C69.6074 75.1134 71.5549 74.1082 71.8917 74.5882C72.2284 75.0682 71.5172 74.7566 69.6074 75.1134Z" fill="white"/>
</g>
<path d="M78.7755 68.5019C78.7755 68.5019 82.2408 65.5618 82.859 69.4644C83.3616 72.6306 80.3335 74.1761 80.3335 74.1761C80.3335 74.1761 71.0357 69.4895 74.5538 66.8685C76.73 65.2578 78.7755 68.5019 78.7755 68.5019Z" fill="#407BFF"/>
<path opacity="0.3" d="M78.7755 68.5019C78.7755 68.5019 82.2408 65.5618 82.859 69.4644C83.3616 72.6306 80.3335 74.1761 80.3335 74.1761C80.3335 74.1761 71.0357 69.4895 74.5538 66.8685C76.73 65.2578 78.7755 68.5019 78.7755 68.5019Z" fill="black"/>
<g opacity="0.5">
<path d="M78.9797 68.8537C78.9797 68.8537 81.9047 69.8865 81.8067 70.1102C81.7087 70.3338 79.2737 69.1452 79.3365 69.5599C79.3994 69.9745 81.5605 71.4596 81.4323 71.7561C81.3042 72.0527 79.4999 70.1956 79.4622 70.4997C79.4245 70.8037 80.2512 72.7613 80.108 73.0754C79.9648 73.3895 79.4521 71.0224 79.1883 71.1179C78.9244 71.2134 78.0449 72.6432 78.0876 72.2286C78.1304 71.8139 79.0928 70.4168 78.9194 69.9468C78.746 69.4769 75.7783 70.2811 75.4667 69.7885C75.1551 69.296 78.3465 69.6378 78.9797 68.8537Z" fill="white"/>
<path d="M77.4867 68.2305C77.4867 68.2305 75.2251 67.0545 74.8305 67.6224C74.436 68.1903 75.2728 67.8159 77.4867 68.2305Z" fill="white"/>
</g>
<path d="M80.8078 77.3976C80.8078 77.3976 83.1448 75.0003 83.8685 77.8173C84.454 80.104 82.3431 81.4484 82.3431 81.4484C82.3431 81.4484 75.2115 78.6541 77.6088 76.4829C79.0839 75.1511 80.8078 77.3976 80.8078 77.3976Z" fill="#407BFF"/>
<path opacity="0.4" d="M80.8078 77.3976C80.8078 77.3976 83.1448 75.0003 83.8685 77.8173C84.454 80.104 82.3431 81.4484 82.3431 81.4484C82.3431 81.4484 75.2115 78.6541 77.6088 76.4829C79.0839 75.1511 80.8078 77.3976 80.8078 77.3976Z" fill="black"/>
<g opacity="0.5">
<path d="M80.9817 77.6238C80.9817 77.6238 83.1956 78.1766 83.1403 78.345C83.085 78.5133 81.2179 77.8123 81.2908 78.1138C81.3637 78.4153 83.0498 79.3527 82.9795 79.5763C82.9091 79.8 81.4541 78.5712 81.4491 78.7898C81.4441 79.0084 82.1829 80.388 82.0999 80.6342C82.017 80.8805 81.4767 79.1742 81.2908 79.2622C81.1048 79.3502 80.557 80.4609 80.5595 80.1543C80.562 79.8477 81.1777 78.7546 81.0144 78.4229C80.851 78.0912 78.7326 78.8853 78.4713 78.546C78.21 78.2068 80.5721 78.252 80.9817 77.6238Z" fill="white"/>
<path d="M79.8433 77.2795C79.8433 77.2795 78.1043 76.5734 77.8555 77.0282C77.6068 77.4831 78.1948 77.1287 79.8433 77.2795Z" fill="white"/>
</g>
<path d="M95.86 51.6101H77.9404C77.7354 51.6139 77.532 51.5739 77.3437 51.4928C77.1554 51.4118 76.9865 51.2915 76.8484 51.14C76.7102 50.9885 76.6059 50.8093 76.5425 50.6144C76.479 50.4194 76.4579 50.2132 76.4804 50.0094L77.4454 38.9727C77.4895 38.5388 77.6911 38.1361 78.0119 37.8407C78.3328 37.5453 78.7508 37.3777 79.1868 37.3695H97.1064C97.3117 37.3657 97.5155 37.4058 97.7041 37.487C97.8927 37.5682 98.0618 37.6887 98.2002 37.8404C98.3386 37.9921 98.443 38.1715 98.5066 38.3668C98.5702 38.5621 98.5914 38.7686 98.5689 38.9727L97.6014 50.0069C97.5578 50.441 97.3564 50.844 97.0354 51.1395C96.7145 51.435 96.2962 51.6025 95.86 51.6101Z" fill="#263238"/>
<path d="M85.301 43.599C85.2206 44.3907 84.8526 45.1255 84.2667 45.6641C83.6809 46.2027 82.9179 46.5078 82.1222 46.5215C81.7479 46.5284 81.3764 46.4555 81.0325 46.3075C80.6887 46.1595 80.3803 45.9399 80.128 45.6633C79.8757 45.3868 79.6853 45.0596 79.5694 44.7036C79.4535 44.3477 79.4148 43.9711 79.456 43.599C79.5401 42.809 79.9093 42.0767 80.4944 41.5392C81.0795 41.0017 81.8405 40.6959 82.6348 40.679L82.7655 39.1838C81.5636 39.2052 80.4113 39.6664 79.5264 40.4799C78.6415 41.2935 78.0854 42.4032 77.9633 43.599C77.9016 44.1606 77.96 44.7288 78.1347 45.2661C78.3095 45.8033 78.5965 46.2973 78.9768 46.7151C79.357 47.1329 79.8218 47.4651 80.3403 47.6895C80.8588 47.9139 81.4191 48.0254 81.984 48.0167C83.1862 47.9952 84.3389 47.5337 85.2238 46.7196C86.1088 45.9055 86.6646 44.7953 86.7861 43.599H85.301Z" fill="#407BFF"/>
<path d="M87.3183 42.9532C87.3801 42.3916 87.3216 41.8233 87.1469 41.2861C86.9721 40.7488 86.6851 40.2549 86.3048 39.8371C85.9246 39.4193 85.4598 39.0871 84.9413 38.8627C84.4228 38.6383 83.8626 38.5268 83.2977 38.5355L83.167 40.0432C83.5412 40.0367 83.9124 40.11 84.2561 40.2581C84.5998 40.4062 84.908 40.6258 85.1602 40.9023C85.4124 41.1787 85.6029 41.5057 85.7189 41.8615C85.835 42.2173 85.8739 42.5937 85.8332 42.9657L87.3183 42.9532Z" fill="#407BFF"/>
<path opacity="0.7" d="M87.3183 42.9532C87.3801 42.3916 87.3216 41.8233 87.1469 41.2861C86.9721 40.7488 86.6851 40.2549 86.3048 39.8371C85.9246 39.4193 85.4598 39.0871 84.9413 38.8627C84.4228 38.6383 83.8626 38.5268 83.2977 38.5355L83.167 40.0432C83.5412 40.0367 83.9124 40.11 84.2561 40.2581C84.5998 40.4062 84.908 40.6258 85.1602 40.9023C85.4124 41.1787 85.6029 41.5057 85.7189 41.8615C85.835 42.2173 85.8739 42.5937 85.8332 42.9657L87.3183 42.9532Z" fill="white"/>
<path d="M83.6592 43.599C83.6224 43.9595 83.4548 44.2941 83.1881 44.5395C82.9214 44.7849 82.5741 44.9241 82.2118 44.9308C82.0413 44.9336 81.8723 44.9001 81.7158 44.8326C81.5593 44.765 81.419 44.6649 81.3042 44.5389C81.1894 44.4129 81.1028 44.264 81.05 44.1019C80.9972 43.9399 80.9794 43.7684 80.998 43.599C81.0349 43.2387 81.2025 42.9044 81.4693 42.6594C81.736 42.4145 82.0833 42.2758 82.4455 42.2697L82.5033 41.5912C81.9564 41.6013 81.4322 41.8114 81.0298 42.1819C80.6274 42.5523 80.3747 43.0574 80.3195 43.6015C80.2913 43.8573 80.3179 44.1161 80.3975 44.3608C80.4771 44.6055 80.6079 44.8304 80.7812 45.0206C80.9545 45.2108 81.1664 45.3619 81.4026 45.4639C81.6389 45.5658 81.8942 45.6162 82.1514 45.6118C82.6987 45.6023 83.2235 45.3925 83.6264 45.022C84.0294 44.6515 84.2824 44.1461 84.3377 43.6015L83.6592 43.599Z" fill="#407BFF"/>
<path opacity="0.7" d="M83.6592 43.599C83.6224 43.9595 83.4548 44.2941 83.1881 44.5395C82.9214 44.7849 82.5741 44.9241 82.2118 44.9308C82.0413 44.9336 81.8723 44.9001 81.7158 44.8326C81.5593 44.765 81.419 44.6649 81.3042 44.5389C81.1894 44.4129 81.1028 44.264 81.05 44.1019C80.9972 43.9399 80.9794 43.7684 80.998 43.599C81.0349 43.2387 81.2025 42.9044 81.4693 42.6594C81.736 42.4145 82.0833 42.2758 82.4455 42.2697L82.5033 41.5912C81.9564 41.6013 81.4322 41.8114 81.0298 42.1819C80.6274 42.5523 80.3747 43.0574 80.3195 43.6015C80.2913 43.8573 80.3179 44.1161 80.3975 44.3608C80.4771 44.6055 80.6079 44.8304 80.7812 45.0206C80.9545 45.2108 81.1664 45.3619 81.4026 45.4639C81.6389 45.5658 81.8942 45.6162 82.1514 45.6118C82.6987 45.6023 83.2235 45.3925 83.6264 45.022C84.0294 44.6515 84.2824 44.1461 84.3377 43.6015L83.6592 43.599Z" fill="white"/>
<path d="M84.5771 43.305C84.6053 43.049 84.5787 42.7899 84.4989 42.5451C84.4192 42.3002 84.2882 42.0751 84.1146 41.8849C83.941 41.6947 83.7288 41.5436 83.4923 41.4418C83.2557 41.3401 83.0001 41.2899 82.7427 41.2947L82.6748 41.9656C82.845 41.9629 83.0138 41.9963 83.1701 42.0637C83.3264 42.1311 83.4665 42.231 83.5813 42.3567C83.696 42.4824 83.7828 42.631 83.8358 42.7928C83.8887 42.9545 83.9067 43.1257 83.8885 43.2949L84.5771 43.305Z" fill="#407BFF"/>
<path d="M93.1913 39.1838L93.0606 40.679C93.4346 40.6721 93.8059 40.745 94.1495 40.8929C94.4932 41.0407 94.8015 41.2601 95.0537 41.5363C95.306 41.8126 95.4965 42.1395 95.6125 42.4951C95.7286 42.8508 95.7675 43.2271 95.7268 43.599C95.6464 44.3903 95.2788 45.1247 94.6934 45.6633C94.1081 46.2018 93.3457 46.5071 92.5505 46.5215C92.1761 46.5288 91.8044 46.4561 91.4603 46.3083C91.1163 46.1605 90.8077 45.9409 90.5553 45.6642C90.303 45.3876 90.1125 45.0602 89.9968 44.7041C89.8811 44.3479 89.8427 43.9712 89.8843 43.599C89.9602 42.8056 90.3294 42.069 90.9196 41.5334L89.9571 40.478C89.0644 41.287 88.5053 42.3998 88.3891 43.599C88.3274 44.1606 88.3858 44.7288 88.5605 45.2661C88.7353 45.8034 89.0223 46.2973 89.4026 46.7151C89.7828 47.1329 90.2476 47.4651 90.7661 47.6895C91.2846 47.9139 91.8449 48.0254 92.4097 48.0167C93.6118 47.9946 94.7642 47.533 95.649 46.719C96.5339 45.905 97.0899 44.7951 97.2119 43.599C97.2733 43.0376 97.2145 42.4696 97.0396 41.9327C96.8647 41.3957 96.5776 40.9021 96.1974 40.4846C95.8172 40.067 95.3525 39.7351 94.8342 39.5109C94.3159 39.2866 93.7559 39.1751 93.1913 39.1838Z" fill="#407BFF"/>
<path opacity="0.7" d="M93.1913 39.1838L93.0606 40.679C93.4346 40.6721 93.8059 40.745 94.1495 40.8929C94.4932 41.0407 94.8015 41.2601 95.0537 41.5363C95.306 41.8126 95.4965 42.1395 95.6125 42.4951C95.7286 42.8508 95.7675 43.2271 95.7268 43.599C95.6464 44.3903 95.2788 45.1247 94.6934 45.6633C94.1081 46.2018 93.3457 46.5071 92.5505 46.5215C92.1761 46.5288 91.8044 46.4561 91.4603 46.3083C91.1163 46.1605 90.8077 45.9409 90.5553 45.6642C90.303 45.3876 90.1125 45.0602 89.9968 44.7041C89.8811 44.3479 89.8427 43.9712 89.8843 43.599C89.9602 42.8056 90.3294 42.069 90.9196 41.5334L89.9571 40.478C89.0644 41.287 88.5053 42.3998 88.3891 43.599C88.3274 44.1606 88.3858 44.7288 88.5605 45.2661C88.7353 45.8034 89.0223 46.2973 89.4026 46.7151C89.7828 47.1329 90.2476 47.4651 90.7661 47.6895C91.2846 47.9139 91.8449 48.0254 92.4097 48.0167C93.6118 47.9946 94.7642 47.533 95.649 46.719C96.5339 45.905 97.0899 44.7951 97.2119 43.599C97.2733 43.0376 97.2145 42.4696 97.0396 41.9327C96.8647 41.3957 96.5776 40.9021 96.1974 40.4846C95.8172 40.067 95.3525 39.7351 94.8342 39.5109C94.3159 39.2866 93.7559 39.1751 93.1913 39.1838Z" fill="white"/>
<path d="M89.668 39.6588L90.6329 40.7167C91.2136 40.1723 91.978 39.8664 92.7739 39.8598L92.9046 38.3671C91.7021 38.3772 90.5471 38.8381 89.668 39.6588Z" fill="#407BFF"/>
<path opacity="0.3" d="M89.668 39.6588L90.6329 40.7167C91.2136 40.1723 91.978 39.8664 92.7739 39.8598L92.9046 38.3671C91.7021 38.3772 90.5471 38.8381 89.668 39.6588Z" fill="black"/>
<path d="M92.9925 41.463L92.9296 42.1767C93.1086 42.173 93.2864 42.2077 93.4509 42.2784C93.6154 42.349 93.7629 42.454 93.8836 42.5863C94.0042 42.7186 94.0952 42.8751 94.1504 43.0455C94.2056 43.2158 94.2238 43.3959 94.2037 43.5739C94.1652 43.95 93.9909 44.2993 93.7133 44.556C93.4357 44.8128 93.074 44.9595 92.6959 44.9685C92.5172 44.9721 92.3397 44.9375 92.1754 44.867C92.011 44.7965 91.8636 44.6918 91.743 44.5598C91.6224 44.4277 91.5314 44.2715 91.476 44.1015C91.4206 43.9315 91.4022 43.7516 91.4219 43.5739C91.4595 43.1932 91.6389 42.8407 91.9245 42.5863L91.4646 42.0837C91.0361 42.4699 90.7672 43.0023 90.7107 43.5764C90.681 43.8449 90.7089 44.1167 90.7926 44.3737C90.8763 44.6306 91.0138 44.8667 91.196 45.0662C91.3782 45.2658 91.6008 45.4241 91.8491 45.5308C92.0973 45.6374 92.3655 45.6899 92.6356 45.6847C93.2098 45.6748 93.7603 45.4547 94.1831 45.0662C94.6059 44.6777 94.8716 44.1476 94.9299 43.5764C94.9601 43.3064 94.9322 43.0332 94.848 42.7749C94.7638 42.5167 94.6252 42.2794 94.4417 42.0792C94.2581 41.879 94.0338 41.7204 93.7838 41.6141C93.5338 41.5078 93.264 41.4563 92.9925 41.463Z" fill="#407BFF"/>
<path d="M91.3096 41.6791L91.7694 42.1817C92.0485 41.9226 92.4139 41.7766 92.7947 41.7721L92.855 41.0584C92.2804 41.0647 91.7289 41.2862 91.3096 41.6791Z" fill="#407BFF"/>
<path opacity="0.3" d="M91.3096 41.6791L91.7694 42.1817C92.0485 41.9226 92.4139 41.7766 92.7947 41.7721L92.855 41.0584C92.2804 41.0647 91.7289 41.2862 91.3096 41.6791Z" fill="black"/>
<path d="M79.9556 49.9491C79.8954 49.9502 79.8356 49.9384 79.7803 49.9146C79.725 49.8908 79.6754 49.8555 79.6347 49.8111C79.5941 49.7666 79.5634 49.7141 79.5446 49.6569C79.5258 49.5996 79.5194 49.5391 79.5259 49.4792C79.5386 49.3533 79.5965 49.2363 79.6889 49.1499C79.7814 49.0635 79.902 49.0135 80.0284 49.0093C80.0887 49.0082 80.1484 49.02 80.2037 49.0438C80.259 49.0676 80.3087 49.1029 80.3493 49.1473C80.3899 49.1918 80.4207 49.2443 80.4394 49.3016C80.4582 49.3588 80.4646 49.4193 80.4581 49.4792C80.4449 49.6049 80.3868 49.7216 80.2945 49.8079C80.2022 49.8942 80.0819 49.9444 79.9556 49.9491Z" fill="white"/>
<path d="M84.7753 49.7179H81.2572C81.2265 49.7189 81.196 49.7132 81.1676 49.7012C81.1393 49.6893 81.1139 49.6714 81.0932 49.6487C81.0724 49.626 81.0568 49.5992 81.0474 49.5699C81.038 49.5407 81.035 49.5097 81.0386 49.4792C81.0386 49.4126 81.0651 49.3486 81.1122 49.3015C81.1593 49.2544 81.2232 49.2279 81.2899 49.2279H84.808C84.8399 49.2267 84.8717 49.2326 84.9011 49.2453C84.9304 49.2579 84.9565 49.277 84.9775 49.3012C84.9985 49.3253 85.0138 49.3538 85.0223 49.3846C85.0308 49.4154 85.0323 49.4477 85.0266 49.4792C85.0234 49.5437 84.9955 49.6044 84.9487 49.6488C84.9019 49.6933 84.8398 49.718 84.7753 49.7179Z" fill="white"/>
<path d="M83.808 50.6603H81.1795C81.1477 50.6611 81.1161 50.6548 81.087 50.642C81.0579 50.6292 81.032 50.6101 81.0111 50.5861C80.9902 50.5621 80.9749 50.5337 80.9662 50.5031C80.9575 50.4725 80.9557 50.4404 80.9609 50.409C80.9645 50.3435 80.9922 50.2817 81.0385 50.2353C81.0849 50.1889 81.1467 50.1613 81.2122 50.1577H83.8432C83.875 50.1569 83.9066 50.1631 83.9357 50.176C83.9649 50.1888 83.9908 50.2079 84.0117 50.2319C84.0325 50.2559 84.0479 50.2842 84.0565 50.3148C84.0652 50.3454 84.067 50.3776 84.0618 50.409C84.0576 50.4747 84.0295 50.5365 83.9827 50.5829C83.9359 50.6292 83.8738 50.6567 83.808 50.6603Z" fill="white"/>
<path d="M90.1427 49.9491C90.0822 49.9505 90.0222 49.939 89.9666 49.9154C89.911 49.8918 89.861 49.8565 89.8201 49.8121C89.7792 49.7676 89.7483 49.7149 89.7293 49.6575C89.7104 49.6001 89.704 49.5393 89.7104 49.4792C89.7231 49.3533 89.7811 49.2363 89.8735 49.1499C89.9659 49.0635 90.0866 49.0135 90.213 49.0093C90.2732 49.0082 90.333 49.02 90.3883 49.0438C90.4436 49.0676 90.4932 49.1029 90.5339 49.1473C90.5745 49.1918 90.6052 49.2443 90.624 49.3016C90.6428 49.3588 90.6491 49.4193 90.6427 49.4792C90.6296 49.6045 90.5718 49.7209 90.48 49.8071C90.3882 49.8934 90.2685 49.9438 90.1427 49.9491Z" fill="white"/>
<path d="M94.9625 49.7179H91.4444C91.4138 49.7185 91.3835 49.7125 91.3553 49.7004C91.3272 49.6883 91.302 49.6704 91.2813 49.6478C91.2607 49.6252 91.245 49.5985 91.2355 49.5695C91.2259 49.5404 91.2226 49.5096 91.2258 49.4792C91.2294 49.4137 91.257 49.3519 91.3034 49.3055C91.3498 49.2592 91.4116 49.2315 91.4771 49.2279H94.9952C95.0271 49.2267 95.0589 49.2326 95.0883 49.2453C95.1176 49.2579 95.1437 49.277 95.1647 49.3012C95.1857 49.3253 95.201 49.3538 95.2095 49.3846C95.218 49.4154 95.2195 49.4477 95.2138 49.4792C95.2106 49.5437 95.1827 49.6044 95.1359 49.6488C95.0891 49.6933 95.027 49.718 94.9625 49.7179Z" fill="white"/>
<path d="M93.9955 50.6603H91.367C91.3352 50.6611 91.3036 50.6548 91.2745 50.642C91.2454 50.6292 91.2195 50.6101 91.1986 50.5861C91.1777 50.5621 91.1624 50.5337 91.1537 50.5031C91.145 50.4725 91.1432 50.4404 91.1484 50.409C91.152 50.3435 91.1797 50.2817 91.226 50.2353C91.2724 50.1889 91.3342 50.1613 91.3997 50.1577H94.0307C94.0625 50.1569 94.0941 50.1631 94.1232 50.176C94.1523 50.1888 94.1783 50.2079 94.1992 50.2319C94.22 50.2559 94.2354 50.2842 94.244 50.3148C94.2527 50.3454 94.2545 50.3776 94.2493 50.409C94.2451 50.4747 94.217 50.5365 94.1702 50.5829C94.1234 50.6292 94.0613 50.6567 93.9955 50.6603Z" fill="white"/>
<path d="M72.7265 57.6286H45.8811C45.676 57.6323 45.4725 57.5923 45.2841 57.5112C45.0957 57.4302 44.9267 57.3099 44.7884 57.1585C44.65 57.0071 44.5455 56.8279 44.4817 56.633C44.418 56.438 44.3965 56.2318 44.4186 56.0278L45.9113 38.9727C45.9554 38.5388 46.157 38.1361 46.4778 37.8407C46.7987 37.5453 47.2167 37.3777 47.6527 37.3695H74.5007C74.7058 37.3661 74.9092 37.4064 75.0975 37.4878C75.2858 37.5692 75.4547 37.6897 75.5928 37.8413C75.7309 37.993 75.8351 38.1723 75.8986 38.3674C75.962 38.5625 75.9832 38.7688 75.9607 38.9727L74.4705 56.0379C74.4234 56.4699 74.2203 56.87 73.8992 57.1628C73.5781 57.4557 73.1611 57.6213 72.7265 57.6286Z" fill="#407BFF"/>
<path opacity="0.7" d="M72.7265 57.6286H45.8811C45.676 57.6323 45.4725 57.5923 45.2841 57.5112C45.0957 57.4302 44.9267 57.3099 44.7884 57.1585C44.65 57.0071 44.5455 56.8279 44.4817 56.633C44.418 56.438 44.3965 56.2318 44.4186 56.0278L45.9113 38.9727C45.9554 38.5388 46.157 38.1361 46.4778 37.8407C46.7987 37.5453 47.2167 37.3777 47.6527 37.3695H74.5007C74.7058 37.3661 74.9092 37.4064 75.0975 37.4878C75.2858 37.5692 75.4547 37.6897 75.5928 37.8413C75.7309 37.993 75.8351 38.1723 75.8986 38.3674C75.962 38.5625 75.9832 38.7688 75.9607 38.9727L74.4705 56.0379C74.4234 56.4699 74.2203 56.87 73.8992 57.1628C73.5781 57.4557 73.1611 57.6213 72.7265 57.6286Z" fill="white"/>
<path d="M47.0013 52.5299H46.3203L47.2325 42.1063H47.9135L47.0013 52.5299Z" fill="#407BFF"/>
<path d="M47.9696 52.5299H47.2861L47.9571 44.863H48.6406L47.9696 52.5299Z" fill="#263238"/>
<path d="M49.5023 52.5299H48.8213L49.2585 47.5191H49.9395L49.5023 52.5299Z" fill="#407BFF"/>
<path d="M50.4671 52.5299H49.7861L50.3088 46.5542H50.9898L50.4671 52.5299Z" fill="#263238"/>
<path d="M52.0019 52.5299H51.3184L52.0974 43.6241H52.7809L52.0019 52.5299Z" fill="#407BFF"/>
<path d="M52.9677 52.5299H52.2842L52.9576 44.863H53.6386L52.9677 52.5299Z" fill="#263238"/>
<path d="M54.5003 52.5299H53.8193L54.4903 44.863H55.1713L54.5003 52.5299Z" fill="#407BFF"/>
<path d="M55.4652 52.5299H54.7842L55.6235 42.9306H56.3045L55.4652 52.5299Z" fill="#263238"/>
<path d="M57.0009 52.5299H56.3174L56.7747 47.3181H57.4557L57.0009 52.5299Z" fill="#407BFF"/>
<path d="M57.9652 52.5299H57.2842L57.9551 44.863H58.6361L57.9652 52.5299Z" fill="#263238"/>
<path d="M59.4984 52.5299H58.8174L59.5964 43.6241H60.2774L59.4984 52.5299Z" fill="#407BFF"/>
<path d="M60.4657 52.5299H59.7822L60.7271 41.7244H61.4106L60.4657 52.5299Z" fill="#263238"/>
<path d="M61.9984 52.5299H61.3174L61.5637 49.6928H62.2472L61.9984 52.5299Z" fill="#407BFF"/>
<path d="M62.9632 52.5299H62.2822L62.7421 47.2779H63.4231L62.9632 52.5299Z" fill="#263238"/>
<path d="M64.4964 52.5299H63.8154L64.2552 47.5191H64.9362L64.4964 52.5299Z" fill="#407BFF"/>
<path d="M65.4638 52.5299H64.7803L65.6422 42.6893H66.3232L65.4638 52.5299Z" fill="#263238"/>
<path d="M66.9974 52.5299H66.3164L66.8818 46.0717H67.5628L66.9974 52.5299Z" fill="#407BFF"/>
<path d="M67.9623 52.5299H67.2812L68.3744 40.0332H69.0554L67.9623 52.5299Z" fill="#263238"/>
<path d="M69.497 52.5299H68.8135L69.5472 44.1393H70.2308L69.497 52.5299Z" fill="#407BFF"/>
<path d="M70.4622 52.5299H69.7812L70.4522 44.863H71.1332L70.4622 52.5299Z" fill="#263238"/>
<path d="M71.9945 52.5299H71.3135L72.2382 41.9656H72.9192L71.9945 52.5299Z" fill="#407BFF"/>
<path d="M72.9603 52.5299H72.2793L72.8246 46.3129H73.5056L72.9603 52.5299Z" fill="#263238"/>
<path d="M46.7398 55.3745C46.6539 55.3764 46.5686 55.36 46.4896 55.3263C46.4106 55.2927 46.3398 55.2425 46.2817 55.1792C46.2237 55.1159 46.1798 55.041 46.153 54.9594C46.1263 54.8778 46.1173 54.7914 46.1266 54.7061C46.1466 54.5251 46.2314 54.3574 46.3653 54.2341C46.4993 54.1108 46.6733 54.0401 46.8554 54.0351C46.9414 54.0331 47.027 54.0496 47.1061 54.0834C47.1853 54.1172 47.2564 54.1676 47.3145 54.2312C47.3725 54.2948 47.4163 54.37 47.4429 54.4519C47.4695 54.5338 47.4782 54.6205 47.4685 54.7061C47.448 54.8866 47.3629 55.0536 47.229 55.1765C47.0951 55.2993 46.9214 55.3696 46.7398 55.3745Z" fill="#263238"/>
<path d="M53.5977 55.0453H48.5995C48.5559 55.0463 48.5126 55.0379 48.4725 55.0208C48.4324 55.0037 48.3964 54.9783 48.3669 54.9462C48.3374 54.9141 48.3151 54.8761 48.3015 54.8347C48.2879 54.7932 48.2832 54.7494 48.2879 54.7061C48.2977 54.6136 48.3408 54.5279 48.4093 54.4649C48.4778 54.402 48.5668 54.3662 48.6598 54.3643H53.658C53.7017 54.3637 53.745 54.3724 53.7851 54.3898C53.8252 54.4071 53.8612 54.4328 53.8906 54.4651C53.9201 54.4974 53.9423 54.5356 53.9559 54.5771C53.9696 54.6187 53.9742 54.6626 53.9696 54.7061C53.9598 54.7983 53.9165 54.8837 53.848 54.9462C53.7795 55.0087 53.6904 55.044 53.5977 55.0453Z" fill="#263238"/>
<path d="M52.2262 56.3872H48.482C48.4377 56.388 48.3937 56.3792 48.3531 56.3613C48.3125 56.3435 48.2763 56.317 48.2469 56.2838C48.2175 56.2506 48.1957 56.2114 48.1829 56.169C48.1701 56.1265 48.1667 56.0818 48.1729 56.0379C48.1816 55.9454 48.2241 55.8594 48.2922 55.7963C48.3604 55.7333 48.4495 55.6976 48.5423 55.6961H52.284C52.3279 55.6951 52.3714 55.7035 52.4117 55.7208C52.452 55.738 52.4881 55.7637 52.5176 55.7961C52.5472 55.8285 52.5694 55.8668 52.5829 55.9085C52.5963 55.9502 52.6007 55.9944 52.5956 56.0379C52.5882 56.1315 52.5463 56.219 52.4781 56.2835C52.4099 56.3481 52.3201 56.385 52.2262 56.3872Z" fill="#263238"/>
<path opacity="0.3" d="M53.5977 55.0453H48.5995C48.5559 55.0463 48.5126 55.0379 48.4725 55.0208C48.4324 55.0037 48.3964 54.9783 48.3669 54.9462C48.3374 54.9141 48.3151 54.8761 48.3015 54.8347C48.2879 54.7932 48.2832 54.7494 48.2879 54.7061C48.2977 54.6136 48.3408 54.5279 48.4093 54.4649C48.4778 54.402 48.5668 54.3662 48.6598 54.3643H53.658C53.7017 54.3637 53.745 54.3724 53.7851 54.3898C53.8252 54.4071 53.8612 54.4328 53.8906 54.4651C53.9201 54.4974 53.9423 54.5356 53.9559 54.5771C53.9696 54.6187 53.9742 54.6626 53.9696 54.7061C53.9598 54.7983 53.9165 54.8837 53.848 54.9462C53.7795 55.0087 53.6904 55.044 53.5977 55.0453Z" fill="white"/>
<path opacity="0.3" d="M52.2262 56.3872H48.482C48.4377 56.388 48.3937 56.3792 48.3531 56.3613C48.3125 56.3435 48.2763 56.317 48.2469 56.2838C48.2175 56.2506 48.1957 56.2114 48.1829 56.169C48.1701 56.1265 48.1667 56.0818 48.1729 56.0379C48.1816 55.9454 48.2241 55.8594 48.2922 55.7963C48.3604 55.7333 48.4495 55.6976 48.5423 55.6961H52.284C52.3279 55.6951 52.3714 55.7035 52.4117 55.7208C52.452 55.738 52.4881 55.7637 52.5176 55.7961C52.5472 55.8285 52.5694 55.8668 52.5829 55.9085C52.5963 55.9502 52.6007 55.9944 52.5956 56.0379C52.5882 56.1315 52.5463 56.219 52.4781 56.2835C52.4099 56.3481 52.3201 56.385 52.2262 56.3872Z" fill="white"/>
<path d="M56.6262 55.3745C56.5405 55.376 56.4554 55.3593 56.3766 55.3255C56.2978 55.2917 56.2271 55.2415 56.1691 55.1784C56.1111 55.1152 56.0672 55.0404 56.0403 54.959C56.0134 54.8776 56.0041 54.7913 56.013 54.7061C56.033 54.5251 56.1178 54.3574 56.2518 54.2341C56.3857 54.1108 56.5598 54.0401 56.7418 54.0351C56.8279 54.0331 56.9134 54.0496 56.9926 54.0834C57.0718 54.1172 57.1428 54.1676 57.2009 54.2312C57.259 54.2948 57.3028 54.37 57.3294 54.4519C57.3559 54.5338 57.3647 54.6205 57.3549 54.7061C57.3344 54.8866 57.2494 55.0536 57.1155 55.1765C56.9816 55.2993 56.8078 55.3696 56.6262 55.3745Z" fill="#407BFF"/>
<path opacity="0.3" d="M56.6262 55.3745C56.5405 55.376 56.4554 55.3593 56.3766 55.3255C56.2978 55.2917 56.2271 55.2415 56.1691 55.1784C56.1111 55.1152 56.0672 55.0404 56.0403 54.959C56.0134 54.8776 56.0041 54.7913 56.013 54.7061C56.033 54.5251 56.1178 54.3574 56.2518 54.2341C56.3857 54.1108 56.5598 54.0401 56.7418 54.0351C56.8279 54.0331 56.9134 54.0496 56.9926 54.0834C57.0718 54.1172 57.1428 54.1676 57.2009 54.2312C57.259 54.2948 57.3028 54.37 57.3294 54.4519C57.3559 54.5338 57.3647 54.6205 57.3549 54.7061C57.3344 54.8866 57.2494 55.0536 57.1155 55.1765C56.9816 55.2993 56.8078 55.3696 56.6262 55.3745Z" fill="black"/>
<path d="M63.4815 55.0453H58.4833C58.4397 55.0463 58.3964 55.0379 58.3563 55.0208C58.3162 55.0037 58.2802 54.9783 58.2507 54.9462C58.2212 54.9141 58.1989 54.8761 58.1853 54.8347C58.1717 54.7932 58.167 54.7494 58.1717 54.7061C58.1814 54.6136 58.2246 54.5279 58.2931 54.4649C58.3615 54.402 58.4506 54.3662 58.5436 54.3643H63.5418C63.5855 54.3637 63.6288 54.3724 63.6689 54.3898C63.709 54.4071 63.745 54.4328 63.7744 54.4651C63.8039 54.4974 63.8261 54.5356 63.8397 54.5771C63.8533 54.6187 63.858 54.6626 63.8534 54.7061C63.8435 54.7983 63.8003 54.8837 63.7318 54.9462C63.6632 55.0087 63.5742 55.044 63.4815 55.0453Z" fill="#263238"/>
<path d="M62.1098 56.3872H58.3681C58.3229 56.3895 58.2778 56.3818 58.236 56.3646C58.1942 56.3474 58.1566 56.3212 58.1261 56.2878C58.0956 56.2544 58.0729 56.2147 58.0596 56.1715C58.0462 56.1283 58.0426 56.0827 58.0489 56.0379C58.0576 55.9454 58.1001 55.8594 58.1683 55.7963C58.2364 55.7333 58.3255 55.6976 58.4183 55.6961H62.1601C62.2039 55.6951 62.2474 55.7035 62.2877 55.7208C62.328 55.738 62.3641 55.7637 62.3937 55.7961C62.4232 55.8285 62.4454 55.8668 62.4589 55.9085C62.4724 55.9502 62.4767 55.9944 62.4717 56.0379C62.4649 56.1304 62.4243 56.2173 62.3575 56.2817C62.2907 56.3462 62.2025 56.3837 62.1098 56.3872Z" fill="#263238"/>
<path opacity="0.3" d="M63.4815 55.0453H58.4833C58.4397 55.0463 58.3964 55.0379 58.3563 55.0208C58.3162 55.0037 58.2802 54.9783 58.2507 54.9462C58.2212 54.9141 58.1989 54.8761 58.1853 54.8347C58.1717 54.7932 58.167 54.7494 58.1717 54.7061C58.1814 54.6136 58.2246 54.5279 58.2931 54.4649C58.3615 54.402 58.4506 54.3662 58.5436 54.3643H63.5418C63.5855 54.3637 63.6288 54.3724 63.6689 54.3898C63.709 54.4071 63.745 54.4328 63.7744 54.4651C63.8039 54.4974 63.8261 54.5356 63.8397 54.5771C63.8533 54.6187 63.858 54.6626 63.8534 54.7061C63.8435 54.7983 63.8003 54.8837 63.7318 54.9462C63.6632 55.0087 63.5742 55.044 63.4815 55.0453Z" fill="white"/>
<path opacity="0.3" d="M62.1098 56.3872H58.3681C58.3229 56.3895 58.2778 56.3818 58.236 56.3646C58.1942 56.3474 58.1566 56.3212 58.1261 56.2878C58.0956 56.2544 58.0729 56.2147 58.0596 56.1715C58.0462 56.1283 58.0426 56.0827 58.0489 56.0379C58.0576 55.9454 58.1001 55.8594 58.1683 55.7963C58.2364 55.7333 58.3255 55.6976 58.4183 55.6961H62.1601C62.2039 55.6951 62.2474 55.7035 62.2877 55.7208C62.328 55.738 62.3641 55.7637 62.3937 55.7961C62.4232 55.8285 62.4454 55.8668 62.4589 55.9085C62.4724 55.9502 62.4767 55.9944 62.4717 56.0379C62.4649 56.1304 62.4243 56.2173 62.3575 56.2817C62.2907 56.3462 62.2025 56.3837 62.1098 56.3872Z" fill="white"/>
<path d="M66.5097 55.3745C66.4241 55.3761 66.3391 55.3594 66.2604 55.3255C66.1817 55.2917 66.1111 55.2415 66.0533 55.1783C65.9956 55.115 65.9519 55.0402 65.9253 54.9588C65.8987 54.8774 65.8898 54.7912 65.8991 54.7061C65.919 54.5251 66.0038 54.3574 66.1378 54.2341C66.2717 54.1108 66.4458 54.0401 66.6278 54.0351C66.7137 54.0335 66.7989 54.0502 66.8778 54.0842C66.9567 54.1182 67.0274 54.1686 67.0852 54.2322C67.143 54.2957 67.1866 54.3708 67.213 54.4526C67.2395 54.5343 67.2481 54.6207 67.2385 54.7061C67.2179 54.8866 67.1329 55.0536 66.999 55.1765C66.8651 55.2993 66.6913 55.3696 66.5097 55.3745Z" fill="#407BFF"/>
<path d="M73.3776 55.0453H68.3668C68.3233 55.0463 68.2801 55.038 68.2401 55.0209C68.2001 55.0038 68.1643 54.9783 68.135 54.9461C68.1057 54.9139 68.0836 54.8759 68.0703 54.8345C68.057 54.7931 68.0527 54.7493 68.0577 54.7061C68.0664 54.6136 68.1089 54.5276 68.177 54.4645C68.2452 54.4014 68.3343 54.3658 68.4271 54.3643H73.4253C73.469 54.3637 73.5123 54.3724 73.5524 54.3898C73.5925 54.4071 73.6285 54.4328 73.6579 54.4651C73.6874 54.4974 73.7097 54.5356 73.7233 54.5771C73.7369 54.6187 73.7415 54.6626 73.7369 54.7061C73.7274 54.7962 73.6859 54.88 73.62 54.9422C73.5541 55.0044 73.4681 55.041 73.3776 55.0453Z" fill="#263238"/>
<path d="M71.9929 56.3872H68.2511C68.2073 56.3882 68.1638 56.3798 68.1235 56.3626C68.0832 56.3453 68.0471 56.3196 68.0175 56.2873C67.988 56.2549 67.9658 56.2165 67.9523 56.1748C67.9388 56.1331 67.9345 56.089 67.9395 56.0454C67.9482 55.953 67.9907 55.867 68.0589 55.8039C68.127 55.7408 68.2161 55.7051 68.3089 55.7037H72.0532C72.0969 55.7017 72.1406 55.7091 72.1812 55.7254C72.2218 55.7417 72.2585 55.7665 72.2887 55.7982C72.319 55.8299 72.3421 55.8677 72.3565 55.909C72.3709 55.9503 72.3763 55.9943 72.3723 56.0379C72.3653 56.1334 72.3222 56.2227 72.2517 56.2876C72.1812 56.3525 72.0887 56.3881 71.9929 56.3872Z" fill="#263238"/>
<path opacity="0.3" d="M73.3776 55.0453H68.3668C68.3233 55.0463 68.2801 55.038 68.2401 55.0209C68.2001 55.0038 68.1643 54.9783 68.135 54.9461C68.1057 54.9139 68.0836 54.8759 68.0703 54.8345C68.057 54.7931 68.0527 54.7493 68.0577 54.7061C68.0664 54.6136 68.1089 54.5276 68.177 54.4645C68.2452 54.4014 68.3343 54.3658 68.4271 54.3643H73.4253C73.469 54.3637 73.5123 54.3724 73.5524 54.3898C73.5925 54.4071 73.6285 54.4328 73.6579 54.4651C73.6874 54.4974 73.7097 54.5356 73.7233 54.5771C73.7369 54.6187 73.7415 54.6626 73.7369 54.7061C73.7274 54.7962 73.6859 54.88 73.62 54.9422C73.5541 55.0044 73.4681 55.041 73.3776 55.0453Z" fill="white"/>
<path opacity="0.3" d="M71.9929 56.3872H68.2511C68.2073 56.3882 68.1638 56.3798 68.1235 56.3626C68.0832 56.3453 68.0471 56.3196 68.0175 56.2873C67.988 56.2549 67.9658 56.2165 67.9523 56.1748C67.9388 56.1331 67.9345 56.089 67.9395 56.0454C67.9482 55.953 67.9907 55.867 68.0589 55.8039C68.127 55.7408 68.2161 55.7051 68.3089 55.7037H72.0532C72.0969 55.7017 72.1406 55.7091 72.1812 55.7254C72.2218 55.7417 72.2585 55.7665 72.2887 55.7982C72.319 55.8299 72.3421 55.8677 72.3565 55.909C72.3709 55.9503 72.3763 55.9943 72.3723 56.0379C72.3653 56.1334 72.3222 56.2227 72.2517 56.2876C72.1812 56.3525 72.0887 56.3881 71.9929 56.3872Z" fill="white"/>
<path d="M99.9542 35.7663H84.344C84.1389 35.7699 83.9354 35.7299 83.747 35.6489C83.5586 35.5678 83.3896 35.4476 83.2512 35.2962C83.1129 35.1448 83.0084 34.9656 82.9446 34.7707C82.8809 34.5757 82.8593 34.3694 82.8815 34.1655L83.7108 24.6843C83.755 24.2507 83.9566 23.8483 84.2775 23.5533C84.5984 23.2583 85.0164 23.0912 85.4522 23.0836H101.062C101.267 23.0799 101.471 23.1199 101.659 23.201C101.848 23.282 102.017 23.4022 102.155 23.5537C102.294 23.7051 102.398 23.8842 102.462 24.0792C102.526 24.2741 102.547 24.4804 102.525 24.6843L101.696 34.1756C101.649 34.6074 101.447 35.0074 101.126 35.3003C100.805 35.5933 100.388 35.7589 99.9542 35.7663Z" fill="#407BFF"/>
<path d="M91.091 28.8155C91.0108 29.5973 90.6474 30.3228 90.0692 30.8551C89.491 31.3874 88.7381 31.6899 87.9524 31.7054C87.5824 31.7119 87.2153 31.6395 86.8754 31.4931C86.5356 31.3466 86.2308 31.1295 85.9814 30.8561C85.732 30.5827 85.5437 30.2593 85.4291 29.9074C85.3144 29.5556 85.276 29.1834 85.3163 28.8155C85.3955 28.0333 85.7586 27.3073 86.337 26.7747C86.9154 26.2422 87.6689 25.9401 88.455 25.9257C88.825 25.9192 89.1921 25.9916 89.5319 26.138C89.8718 26.2845 90.1765 26.5016 90.4259 26.775C90.6753 27.0484 90.8636 27.3718 90.9783 27.7236C91.093 28.0755 91.1314 28.4477 91.091 28.8155Z" fill="#407BFF"/>
<path opacity="0.7" d="M91.091 28.8155C91.0108 29.5973 90.6474 30.3228 90.0692 30.8551C89.491 31.3874 88.7381 31.6899 87.9524 31.7054C87.5824 31.7119 87.2153 31.6395 86.8754 31.4931C86.5356 31.3466 86.2308 31.1295 85.9814 30.8561C85.732 30.5827 85.5437 30.2593 85.4291 29.9074C85.3144 29.5556 85.276 29.1834 85.3163 28.8155C85.3955 28.0333 85.7586 27.3073 86.337 26.7747C86.9154 26.2422 87.6689 25.9401 88.455 25.9257C88.825 25.9192 89.1921 25.9916 89.5319 26.138C89.8718 26.2845 90.1765 26.5016 90.4259 26.775C90.6753 27.0484 90.8636 27.3718 90.9783 27.7236C91.093 28.0755 91.1314 28.4477 91.091 28.8155Z" fill="white"/>
<path d="M89.0758 28.3029C89.0205 28.9362 88.7792 29.4488 88.146 29.4488C87.5127 29.4488 87.3594 28.9462 87.4147 28.3029C87.47 27.6596 87.7138 27.157 88.347 27.157C88.9803 27.157 89.131 27.6697 89.0758 28.3029Z" fill="#263238"/>
<path d="M88.1137 29.8056C86.7894 29.8056 86.0707 30.0996 85.7314 30.5319C85.9725 30.8979 86.302 31.1974 86.6893 31.4025C87.0767 31.6076 87.5096 31.7118 87.9478 31.7054C88.4129 31.6992 88.871 31.5909 89.2896 31.3882C89.7082 31.1854 90.0772 30.893 90.3703 30.5319C90.1064 30.0996 89.4405 29.8056 88.1137 29.8056Z" fill="#263238"/>
<path d="M97.8985 25.589H93.2069C93.156 25.59 93.1056 25.5802 93.0588 25.5601C93.0121 25.54 92.9701 25.5102 92.9359 25.4726C92.9016 25.435 92.8758 25.3905 92.8601 25.3421C92.8444 25.2937 92.8393 25.2425 92.8451 25.1919C92.8561 25.0843 92.9062 24.9845 92.9858 24.9114C93.0655 24.8382 93.1691 24.7968 93.2773 24.7949H97.9689C98.0197 24.7938 98.0702 24.8037 98.117 24.8238C98.1637 24.8438 98.2057 24.8737 98.2399 24.9113C98.2742 24.9489 98.3 24.9934 98.3157 25.0418C98.3313 25.0902 98.3365 25.1414 98.3307 25.1919C98.3202 25.2997 98.2703 25.3998 98.1905 25.4731C98.1108 25.5464 98.0068 25.5876 97.8985 25.589Z" fill="white"/>
<path d="M99.1504 28.5215H92.9511C92.9002 28.5226 92.8497 28.5127 92.8029 28.4927C92.7562 28.4726 92.7143 28.4427 92.68 28.4051C92.6457 28.3675 92.6199 28.323 92.6042 28.2746C92.5886 28.2262 92.5835 28.175 92.5892 28.1245C92.6002 28.0167 92.6502 27.9166 92.7298 27.843C92.8093 27.7694 92.9131 27.7274 93.0214 27.7249H99.2208C99.2717 27.7243 99.3223 27.7344 99.369 27.7548C99.4158 27.7752 99.4577 27.8052 99.4919 27.843C99.5261 27.8808 99.5519 27.9255 99.5675 27.974C99.5832 28.0225 99.5883 28.0738 99.5826 28.1245C99.5721 28.2323 99.5222 28.3324 99.4424 28.4057C99.3627 28.4789 99.2587 28.5202 99.1504 28.5215Z" fill="white"/>
<path d="M100.278 29.9866H92.8221C92.7713 29.9876 92.7208 29.9778 92.674 29.9577C92.6273 29.9376 92.5854 29.9078 92.5511 29.8702C92.5168 29.8326 92.491 29.7881 92.4753 29.7397C92.4597 29.6913 92.4545 29.6401 92.4603 29.5895C92.4713 29.4819 92.5214 29.3821 92.601 29.309C92.6807 29.2358 92.7844 29.1944 92.8925 29.1925H100.348C100.399 29.1914 100.45 29.2013 100.496 29.2214C100.543 29.2414 100.585 29.2713 100.619 29.3089C100.654 29.3465 100.679 29.391 100.695 29.4394C100.711 29.4878 100.716 29.539 100.71 29.5895C100.7 29.6973 100.65 29.7974 100.57 29.8707C100.49 29.944 100.386 29.9852 100.278 29.9866Z" fill="white"/>
<path d="M99.6474 31.4541H92.6942C92.6432 31.4548 92.5927 31.4446 92.5459 31.4242C92.4992 31.4039 92.4573 31.3738 92.4231 31.336C92.3888 31.2982 92.3631 31.2536 92.3474 31.205C92.3318 31.1565 92.3266 31.1052 92.3323 31.0545C92.3439 30.9472 92.3941 30.8477 92.4737 30.7746C92.5532 30.7016 92.6566 30.6599 92.7646 30.6575H99.7178C99.7686 30.6565 99.8191 30.6663 99.8659 30.6864C99.9126 30.7065 99.9546 30.7363 99.9888 30.7739C100.023 30.8115 100.049 30.856 100.065 30.9044C100.08 30.9528 100.085 31.004 100.08 31.0545C100.069 31.1626 100.019 31.263 99.9397 31.3367C99.86 31.4103 99.7559 31.4521 99.6474 31.4541Z" fill="white"/>
<path d="M98.7581 32.9191H92.5663C92.5154 32.9202 92.4649 32.9103 92.4182 32.8902C92.3714 32.8702 92.3295 32.8403 92.2952 32.8027C92.261 32.7651 92.2351 32.7206 92.2195 32.6722C92.2038 32.6238 92.1987 32.5726 92.2044 32.5221C92.2149 32.4141 92.2647 32.3136 92.3444 32.24C92.4241 32.1663 92.5281 32.1245 92.6367 32.1225H98.836C98.887 32.1219 98.9375 32.132 98.9843 32.1524C99.031 32.1728 99.0729 32.2028 99.1071 32.2406C99.1413 32.2784 99.1671 32.3231 99.1828 32.3716C99.1984 32.4201 99.2036 32.4714 99.1979 32.5221C99.1867 32.6309 99.1355 32.7318 99.0543 32.8051C98.9731 32.8785 98.8675 32.9191 98.7581 32.9191Z" fill="white"/>
<path d="M99.3916 34.3841H92.4384C92.3875 34.3852 92.337 34.3753 92.2902 34.3553C92.2435 34.3352 92.2016 34.3054 92.1673 34.2678C92.1331 34.2302 92.1072 34.1857 92.0916 34.1373C92.0759 34.0889 92.0708 34.0377 92.0765 33.9871C92.087 33.8793 92.1369 33.7792 92.2167 33.7059C92.2964 33.6327 92.4004 33.5914 92.5087 33.5901H99.4619C99.5128 33.589 99.5633 33.5989 99.6101 33.6189C99.6568 33.639 99.6987 33.6689 99.733 33.7065C99.7673 33.7441 99.7931 33.7886 99.8087 33.837C99.8244 33.8854 99.8295 33.9366 99.8238 33.9871C99.8122 34.0945 99.762 34.194 99.6825 34.267C99.6029 34.3401 99.4995 34.3817 99.3916 34.3841Z" fill="white"/>
<path d="M79.6593 35.7663H52.8089C52.6038 35.7699 52.4003 35.7299 52.2119 35.6489C52.0234 35.5678 51.8544 35.4476 51.7161 35.2962C51.5777 35.1448 51.4732 34.9656 51.4095 34.7707C51.3457 34.5757 51.3242 34.3694 51.3463 34.1655L52.839 17.1079C52.8832 16.6742 53.0849 16.2718 53.4058 15.9769C53.7267 15.6819 54.1446 15.5148 54.5805 15.5072H81.4183C81.6233 15.5034 81.8267 15.5434 82.0151 15.6245C82.2034 15.7056 82.3722 15.8259 82.5104 15.9773C82.6485 16.1288 82.7528 16.308 82.8163 16.5029C82.8797 16.6979 82.9009 16.9041 82.8783 17.1079L81.3982 34.1756C81.3513 34.6068 81.1488 35.0061 80.8288 35.2989C80.5087 35.5917 80.093 35.7578 79.6593 35.7663Z" fill="#407BFF"/>
<path opacity="0.7" d="M79.6593 35.7663H52.8089C52.6038 35.7699 52.4003 35.7299 52.2119 35.6489C52.0234 35.5678 51.8544 35.4476 51.7161 35.2962C51.5777 35.1448 51.4732 34.9656 51.4095 34.7707C51.3457 34.5757 51.3242 34.3694 51.3463 34.1655L52.839 17.1079C52.8832 16.6742 53.0849 16.2718 53.4058 15.9769C53.7267 15.6819 54.1446 15.5148 54.5805 15.5072H81.4183C81.6233 15.5034 81.8267 15.5434 82.0151 15.6245C82.2034 15.7056 82.3722 15.8259 82.5104 15.9773C82.6485 16.1288 82.7528 16.308 82.8163 16.5029C82.8797 16.6979 82.9009 16.9041 82.8783 17.1079L81.3982 34.1756C81.3513 34.6068 81.1488 35.0061 80.8288 35.2989C80.5087 35.5917 80.093 35.7578 79.6593 35.7663Z" fill="white"/>
<path d="M82.3256 23.551C81.8055 21.6739 80.9837 19.7942 79.7876 19.7942C77.526 19.7942 76.4278 23.3324 75.2644 27.0816C74.2391 30.3736 73.1786 33.776 71.5251 33.776C69.4269 33.776 68.8514 29.5669 68.2961 25.496C67.6728 20.9351 67.0848 16.6254 64.3809 16.6254C61.677 16.6254 60.3377 20.9351 58.9154 25.496C57.6463 29.5669 56.3371 33.776 54.2363 33.776C53.2563 33.776 52.3441 30.8761 51.8641 28.2979L51.6455 30.8108C52.1682 32.6729 52.9849 34.5249 54.171 34.5249C56.8749 34.5249 58.2168 30.2152 59.6366 25.6543C60.893 21.5859 62.2173 17.3743 64.3156 17.3743C66.4139 17.3743 66.9893 21.5859 67.5447 25.6669C68.1679 30.2278 68.7559 34.5374 71.4598 34.5374C73.7214 34.5374 74.8196 30.9993 75.983 27.25C77.0083 23.9581 78.0688 20.5556 79.7248 20.5556C80.7123 20.5556 81.6321 23.4957 82.107 26.084L82.3256 23.551Z" fill="#407BFF"/>
<path d="M65.1988 17.6242C65.6519 17.1905 65.6972 16.5023 65.2998 16.0873C64.9025 15.6722 64.2131 15.6874 63.7599 16.1212C63.3068 16.555 63.2615 17.2431 63.6589 17.6582C64.0562 18.0732 64.7456 18.058 65.1988 17.6242Z" fill="#263238"/>
<path d="M64.8335 17.2398C65.0581 17.0248 65.0798 16.6831 64.8821 16.4766C64.6843 16.2701 64.342 16.277 64.1175 16.4921C63.893 16.7071 63.8712 17.0488 64.069 17.2552C64.2667 17.4617 64.609 17.4548 64.8335 17.2398Z" fill="#407BFF"/>
<path d="M66.7632 12.2756H62.9938C62.7967 12.2794 62.6077 12.355 62.4625 12.4883C62.3172 12.6215 62.2255 12.8032 62.2047 12.9993L62.1444 13.6878C62.1344 13.78 62.1442 13.8732 62.173 13.9613C62.2018 14.0494 62.249 14.1304 62.3115 14.1989C62.374 14.2673 62.4504 14.3217 62.5355 14.3584C62.6207 14.395 62.7126 14.4132 62.8053 14.4115H64.0618L64.4362 14.9769C64.461 15.0102 64.4932 15.0372 64.5303 15.0559C64.5674 15.0745 64.6083 15.0842 64.6498 15.0842C64.6913 15.0842 64.7322 15.0745 64.7693 15.0559C64.8064 15.0372 64.8386 15.0102 64.8634 14.9769L65.3358 14.4115H66.5923C66.7891 14.4077 66.9778 14.332 67.1226 14.1987C67.2675 14.0653 67.3586 13.8837 67.3788 13.6878L67.4391 12.9993C67.4493 12.9058 67.4393 12.8113 67.4096 12.7221C67.3799 12.6329 67.3313 12.5511 67.2671 12.4824C67.2029 12.4137 67.1247 12.3597 67.0377 12.324C66.9507 12.2883 66.8571 12.2718 66.7632 12.2756Z" fill="#407BFF"/>
<path d="M66.4693 13.1852H63.0442C63.02 13.1858 62.9961 13.1811 62.9739 13.1716C62.9518 13.1621 62.9319 13.1479 62.9157 13.13C62.8995 13.1121 62.8873 13.091 62.88 13.068C62.8727 13.045 62.8704 13.0207 62.8733 12.9968C62.8803 12.9479 62.9043 12.9029 62.941 12.8699C62.9778 12.8368 63.0249 12.8177 63.0743 12.8158H66.4969C66.5209 12.8157 66.5447 12.8206 66.5666 12.8303C66.5886 12.84 66.6083 12.8542 66.6244 12.8719C66.6405 12.8897 66.6527 12.9107 66.6602 12.9335C66.6677 12.9563 66.6702 12.9804 66.6678 13.0043C66.6618 13.0532 66.6385 13.0984 66.602 13.1316C66.5656 13.1648 66.5185 13.1838 66.4693 13.1852Z" fill="#263238"/>
<path d="M64.5514 13.8688H62.9858C62.9616 13.8692 62.9376 13.8646 62.9153 13.8551C62.893 13.8456 62.873 13.8314 62.8566 13.8136C62.8403 13.7958 62.8278 13.7747 62.8202 13.7517C62.8126 13.7287 62.8099 13.7044 62.8124 13.6803C62.8174 13.629 62.8412 13.5813 62.8793 13.5465C62.9173 13.5117 62.9669 13.4922 63.0185 13.4918H64.5815C64.6056 13.4913 64.6296 13.4959 64.6518 13.5055C64.6739 13.515 64.6938 13.5292 64.71 13.5471C64.7262 13.5649 64.7384 13.5861 64.7457 13.6091C64.753 13.632 64.7553 13.6563 64.7524 13.6803C64.747 13.7306 64.7238 13.7773 64.6869 13.8119C64.65 13.8464 64.6019 13.8666 64.5514 13.8688Z" fill="#263238"/>
<path d="M72.0767 34.4221C72.5298 33.9883 72.5751 33.3002 72.1778 32.8851C71.7804 32.4701 71.091 32.4853 70.6379 32.9191C70.1847 33.3528 70.1395 34.041 70.5368 34.456C70.9341 34.8711 71.6235 34.8559 72.0767 34.4221Z" fill="#263238"/>
<path d="M71.897 33.673C71.8823 33.8191 71.8146 33.9547 71.7067 34.0542C71.5988 34.1537 71.4582 34.2103 71.3115 34.2133C71.2414 34.2163 71.1715 34.2041 71.1066 34.1774C71.0417 34.1508 70.9833 34.1104 70.9356 34.0591C70.8878 34.0077 70.8517 33.9466 70.8298 33.8799C70.808 33.8133 70.8008 33.7427 70.8089 33.673C70.8236 33.527 70.8913 33.3913 70.9992 33.2918C71.107 33.1923 71.2476 33.1357 71.3944 33.1327C71.4645 33.1297 71.5344 33.1419 71.5993 33.1686C71.6642 33.1952 71.7225 33.2356 71.7703 33.2869C71.8181 33.3383 71.8541 33.3994 71.876 33.4661C71.8979 33.5327 71.905 33.6033 71.897 33.673Z" fill="#407BFF"/>
<path d="M73.6437 29.0719H69.8744C69.6775 29.0757 69.4889 29.1514 69.344 29.2847C69.1992 29.4181 69.108 29.5997 69.0878 29.7956L69.0275 30.4816C69.0171 30.574 69.0266 30.6675 69.0552 30.7559C69.0839 30.8443 69.131 30.9256 69.1936 30.9943C69.2561 31.0631 69.3326 31.1177 69.418 31.1545C69.5033 31.1913 69.5955 31.2095 69.6884 31.2078H70.9323L71.3067 31.7732C71.3321 31.8061 71.3646 31.8327 71.4019 31.851C71.4391 31.8693 71.4801 31.8788 71.5216 31.8788C71.5631 31.8788 71.604 31.8693 71.6413 31.851C71.6785 31.8327 71.7111 31.8061 71.7364 31.7732L72.2089 31.2078H73.4528C73.6504 31.2045 73.84 31.1287 73.9854 30.9948C74.1309 30.8609 74.2221 30.6783 74.2418 30.4816L74.3021 29.7956C74.3121 29.7036 74.3024 29.6106 74.2738 29.5227C74.2451 29.4348 74.1981 29.3539 74.1359 29.2855C74.0736 29.2171 73.9976 29.1627 73.9127 29.1258C73.8279 29.089 73.7362 29.0706 73.6437 29.0719Z" fill="#263238"/>
<path d="M73.3491 29.9815H69.924C69.8999 29.9821 69.876 29.9774 69.8538 29.9679C69.8317 29.9584 69.8118 29.9442 69.7956 29.9263C69.7794 29.9084 69.7672 29.8873 69.7599 29.8643C69.7526 29.8413 69.7503 29.817 69.7532 29.7931C69.7581 29.7422 69.7815 29.6948 69.8191 29.6601C69.8566 29.6253 69.9056 29.6056 69.9567 29.6046H73.3768C73.4008 29.6045 73.4245 29.6094 73.4465 29.6191C73.4685 29.6287 73.4882 29.6429 73.5043 29.6607C73.5204 29.6785 73.5326 29.6995 73.5401 29.7223C73.5475 29.7451 73.5501 29.7692 73.5477 29.7931C73.5434 29.8433 73.5208 29.8903 73.4842 29.925C73.4476 29.9598 73.3996 29.9799 73.3491 29.9815Z" fill="white"/>
<path d="M71.4317 30.6575H69.8586C69.8345 30.658 69.8105 30.6534 69.7884 30.6439C69.7662 30.6343 69.7464 30.6201 69.7302 30.6023C69.714 30.5844 69.7018 30.5633 69.6945 30.5403C69.6871 30.5173 69.6848 30.493 69.6877 30.469C69.6932 30.4183 69.7168 30.3713 69.7542 30.3367C69.7916 30.302 69.8403 30.2821 69.8913 30.2806H71.4593C71.4835 30.2801 71.5076 30.2848 71.5299 30.2943C71.5521 30.3038 71.5721 30.3179 71.5885 30.3357C71.6049 30.3535 71.6173 30.3746 71.6249 30.3976C71.6326 30.4206 71.6352 30.445 71.6327 30.469C71.6279 30.5195 71.6048 30.5665 71.5678 30.6012C71.5308 30.6359 71.4824 30.6559 71.4317 30.6575Z" fill="white"/>
<path d="M80.8554 20.1033C80.826 20.3978 80.6894 20.6713 80.4717 20.8718C80.254 21.0724 79.9703 21.1861 79.6744 21.1914C79.535 21.194 79.3967 21.1669 79.2686 21.1118C79.1406 21.0568 79.0257 20.975 78.9318 20.872C78.8378 20.769 78.767 20.6472 78.7238 20.5146C78.6807 20.3821 78.6664 20.2418 78.6818 20.1033C78.7124 19.8094 78.8493 19.5369 79.0668 19.337C79.2844 19.137 79.5675 19.0235 79.8628 19.0177C80.002 19.0151 80.1401 19.0422 80.2679 19.0971C80.3958 19.152 80.5105 19.2336 80.6044 19.3363C80.6983 19.439 80.7693 19.5605 80.8125 19.6927C80.8558 19.825 80.8705 19.9649 80.8554 20.1033Z" fill="#263238"/>
<path d="M80.3071 20.1033C80.2924 20.2493 80.2247 20.3849 80.1168 20.4845C80.009 20.584 79.8684 20.6406 79.7216 20.6436C79.6515 20.6466 79.5816 20.6343 79.5167 20.6077C79.4518 20.5811 79.3935 20.5407 79.3457 20.4893C79.2979 20.438 79.2619 20.3769 79.24 20.3102C79.2181 20.2436 79.211 20.173 79.219 20.1033C79.2343 19.9577 79.3023 19.8227 79.4101 19.7237C79.5179 19.6246 79.6582 19.5684 79.8045 19.5655C79.8744 19.5626 79.944 19.5747 80.0088 19.6012C80.0735 19.6277 80.1317 19.6679 80.1794 19.7189C80.2271 19.77 80.2633 19.8308 80.2853 19.8971C80.3073 19.9635 80.3148 20.0338 80.3071 20.1033Z" fill="#407BFF"/>
<path d="M82.0532 15.5072H78.2838C78.0866 15.5104 77.8973 15.5859 77.7519 15.7192C77.6065 15.8526 77.515 16.0346 77.4948 16.2309L77.4345 16.9194C77.4245 17.0116 77.4342 17.1048 77.463 17.1929C77.4918 17.281 77.5391 17.362 77.6016 17.4305C77.6641 17.4989 77.7404 17.5533 77.8256 17.59C77.9107 17.6266 78.0027 17.6448 78.0954 17.6431H79.3518L79.7262 18.2085C79.751 18.2418 79.7833 18.2688 79.8204 18.2875C79.8574 18.3061 79.8984 18.3158 79.9398 18.3158C79.9813 18.3158 80.0223 18.3061 80.0593 18.2875C80.0964 18.2688 80.1287 18.2418 80.1534 18.2085L80.6259 17.6431H81.8698C82.067 17.6399 82.2563 17.5644 82.4017 17.4311C82.5471 17.2977 82.6386 17.1157 82.6588 16.9194L82.7191 16.2309C82.7292 16.1383 82.7193 16.0446 82.6902 15.9562C82.6611 15.8677 82.6134 15.7865 82.5504 15.7179C82.4873 15.6494 82.4103 15.5951 82.3246 15.5588C82.2388 15.5224 82.1463 15.5048 82.0532 15.5072Z" fill="#407BFF"/>
<path d="M81.7603 16.4168H78.3352C78.3111 16.4174 78.2871 16.4127 78.2649 16.4032C78.2428 16.3937 78.2229 16.3795 78.2067 16.3616C78.1905 16.3437 78.1783 16.3226 78.171 16.2996C78.1637 16.2766 78.1614 16.2523 78.1643 16.2284C78.1692 16.1775 78.1927 16.1301 78.2302 16.0954C78.2677 16.0607 78.3167 16.0409 78.3678 16.0399H81.7929C81.8169 16.0398 81.8407 16.0447 81.8627 16.0544C81.8846 16.064 81.9043 16.0782 81.9204 16.096C81.9366 16.1138 81.9488 16.1348 81.9562 16.1576C81.9637 16.1804 81.9663 16.2045 81.9638 16.2284C81.9594 16.2795 81.9361 16.3271 81.8985 16.362C81.8609 16.3969 81.8116 16.4164 81.7603 16.4168Z" fill="#263238"/>
<path d="M79.8424 17.1004H78.2743C78.2503 17.1005 78.2266 17.0956 78.2046 17.0859C78.1826 17.0762 78.1629 17.062 78.1468 17.0443C78.1307 17.0265 78.1185 17.0055 78.111 16.9827C78.1036 16.9599 78.101 16.9358 78.1034 16.9119C78.1084 16.8606 78.1322 16.8129 78.1703 16.7781C78.2083 16.7433 78.2579 16.7238 78.3095 16.7234H79.875C79.8993 16.7229 79.9233 16.7276 79.9456 16.7371C79.9678 16.7466 79.9878 16.7608 80.0042 16.7786C80.0206 16.7964 80.033 16.8175 80.0407 16.8405C80.0483 16.8635 80.0509 16.8878 80.0484 16.9119C80.0429 16.963 80.019 17.0104 79.981 17.0451C79.9431 17.0798 79.8938 17.0994 79.8424 17.1004Z" fill="#263238"/>
<path d="M55.5958 33.7936C55.5657 34.0877 55.429 34.3605 55.2113 34.5606C54.9937 34.7606 54.7103 34.874 54.4147 34.8792C54.2758 34.8814 54.138 34.8541 54.0104 34.799C53.8829 34.7439 53.7685 34.6624 53.6749 34.5597C53.5812 34.457 53.5105 34.3356 53.4674 34.2036C53.4242 34.0715 53.4097 33.9318 53.4247 33.7936C53.4541 33.4991 53.5907 33.2256 53.8084 33.0251C54.0261 32.8245 54.3098 32.7108 54.6057 32.7055C54.7449 32.7033 54.8829 32.7306 55.0107 32.7859C55.1384 32.8411 55.253 32.9229 55.3466 33.0259C55.4403 33.1288 55.511 33.2505 55.5539 33.3829C55.5969 33.5153 55.6112 33.6553 55.5958 33.7936Z" fill="#263238"/>
<path d="M55.0503 33.7936C55.0349 33.9396 54.9666 34.075 54.8583 34.1741C54.7499 34.2731 54.609 34.3291 54.4622 34.3314C54.3925 34.3339 54.323 34.3215 54.2585 34.2948C54.194 34.2682 54.136 34.2281 54.0884 34.1771C54.0407 34.1261 54.0046 34.0655 53.9824 33.9993C53.9602 33.9332 53.9524 33.863 53.9597 33.7936C53.975 33.6474 54.0432 33.5117 54.1514 33.4122C54.2597 33.3127 54.4007 33.2562 54.5477 33.2533C54.6177 33.2508 54.6874 33.2633 54.7521 33.2901C54.8167 33.3168 54.8749 33.3572 54.9226 33.4085C54.9703 33.4597 55.0064 33.5207 55.0284 33.5871C55.0504 33.6536 55.0579 33.724 55.0503 33.7936Z" fill="#407BFF"/>
<path d="M56.7912 29.195H53.0219C52.8247 29.1988 52.6358 29.2744 52.4905 29.4077C52.3452 29.5409 52.2536 29.7227 52.2328 29.9187L52.175 30.6072C52.1646 30.6995 52.174 30.7929 52.2027 30.8812C52.2313 30.9695 52.2785 31.0506 52.3411 31.1192C52.4037 31.1877 52.4803 31.2421 52.5656 31.2786C52.6509 31.3151 52.7431 31.333 52.8359 31.331H54.0924L54.4668 31.8964C54.4916 31.9296 54.5238 31.9567 54.5609 31.9753C54.598 31.9939 54.6389 32.0036 54.6804 32.0036C54.7219 32.0036 54.7628 31.9939 54.7999 31.9753C54.837 31.9567 54.8692 31.9296 54.894 31.8964L55.3689 31.331H56.6254C56.8225 31.3272 57.0114 31.2515 57.1567 31.1183C57.302 30.985 57.3936 30.8033 57.4144 30.6072L57.4722 29.9187C57.4829 29.8247 57.4731 29.7295 57.4432 29.6398C57.4134 29.55 57.3644 29.4678 57.2996 29.3989C57.2347 29.33 57.1557 29.2761 57.0679 29.2409C56.9801 29.2057 56.8857 29.19 56.7912 29.195Z" fill="#263238"/>
<path d="M56.5002 30.1072H53.0776C53.0534 30.1077 53.0294 30.103 53.0071 30.0935C52.9848 30.084 52.9648 30.0699 52.9484 30.052C52.932 30.0342 52.9196 30.0131 52.912 29.9901C52.9044 29.9671 52.9017 29.9428 52.9042 29.9187C52.9092 29.8674 52.933 29.8197 52.9711 29.7849C53.0091 29.7501 53.0587 29.7306 53.1103 29.7302H56.5404C56.5646 29.7298 56.5887 29.7344 56.6109 29.7439C56.6332 29.7534 56.6532 29.7676 56.6696 29.7854C56.686 29.8032 56.6984 29.8243 56.706 29.8473C56.7136 29.8703 56.7163 29.8946 56.7138 29.9187C56.7082 29.9711 56.6831 30.0195 56.6436 30.0544C56.6041 30.0893 56.5529 30.1081 56.5002 30.1072Z" fill="white"/>
<path d="M54.5854 30.7882H53.0224C52.9984 30.7883 52.9746 30.7834 52.9526 30.7737C52.9307 30.764 52.911 30.7499 52.8949 30.7321C52.8787 30.7143 52.8666 30.6933 52.8591 30.6705C52.8516 30.6477 52.849 30.6236 52.8515 30.5997C52.8559 30.5486 52.8792 30.5009 52.9168 30.4661C52.9544 30.4312 53.0037 30.4117 53.055 30.4112H54.6231C54.6472 30.4107 54.6712 30.4154 54.6933 30.4249C54.7155 30.4344 54.7353 30.4486 54.7515 30.4665C54.7677 30.4843 54.7799 30.5055 54.7872 30.5285C54.7946 30.5515 54.7969 30.5758 54.794 30.5997C54.789 30.6515 54.7648 30.6995 54.7262 30.7344C54.6876 30.7692 54.6374 30.7884 54.5854 30.7882Z" fill="white"/>
<path d="M37.3012 29.5192L36.5775 30.7756L35.8663 32.0647C35.3989 32.9267 34.9516 33.7936 34.5445 34.6681C34.341 35.1054 34.1475 35.5401 33.9716 35.9798L33.9389 36.0578C33.9398 36.0644 33.9398 36.0712 33.9389 36.0779C33.9296 36.0884 33.922 36.1002 33.9163 36.113C33.9029 36.1353 33.892 36.1589 33.8836 36.1834C33.865 36.2781 33.8755 36.3762 33.9138 36.4648C34.053 36.8076 34.2588 37.1194 34.5194 37.3821C34.8269 37.7124 35.1541 38.0237 35.4994 38.3143L34.9114 39.5708C34.6345 39.4944 34.3633 39.3986 34.0997 39.2843C33.8348 39.1704 33.5779 39.0386 33.3308 38.8898C32.7666 38.5633 32.2831 38.1142 31.916 37.5755C31.6849 37.2329 31.5298 36.8448 31.4612 36.4372C31.4322 36.2103 31.4322 35.9806 31.4612 35.7537C31.4727 35.6411 31.492 35.5294 31.519 35.4195L31.5592 35.2561L31.5919 35.1581C31.7527 34.643 31.921 34.1354 32.117 33.6504C32.4961 32.6738 32.9238 31.7169 33.3986 30.7832C33.6323 30.3183 33.8761 29.8584 34.1324 29.4086C34.3887 28.9588 34.635 28.514 34.934 28.0541L37.3012 29.5192Z" fill="#FFC3BD"/>
<path d="M34.8587 38.1786L36.1805 37.8344L36.2559 39.9678C36.2559 39.9678 35.2231 40.1211 34.5898 39.4879L34.8587 38.1786Z" fill="#FFC3BD"/>
<path d="M38.0503 37.475L37.7537 39.3472L36.2561 39.9678L36.1807 37.8344L38.0503 37.475Z" fill="#FFC3BD"/>
<path d="M43.5133 19.4725C43.541 19.6183 43.644 19.7238 43.7395 19.7012C43.835 19.6786 43.8877 19.5479 43.8576 19.4022C43.8274 19.2564 43.7269 19.1509 43.6314 19.1735C43.5359 19.1961 43.4731 19.3268 43.5133 19.4725Z" fill="#263238"/>
<path d="M43.6289 19.7238C43.8946 20.134 44.215 20.506 44.5813 20.8295C44.4962 20.9213 44.392 20.9933 44.2761 21.0407C44.1602 21.088 44.0354 21.1094 43.9104 21.1034L43.6289 19.7238Z" fill="#ED847E"/>
<path d="M42.814 18.7714C42.7918 18.7716 42.7703 18.7635 42.7537 18.7488C42.7375 18.7324 42.7285 18.7103 42.7285 18.6873C42.7285 18.6642 42.7375 18.6421 42.7537 18.6257C42.8463 18.5197 42.9633 18.4378 43.0947 18.387C43.226 18.3362 43.3677 18.3181 43.5075 18.3342C43.5305 18.3382 43.551 18.3512 43.5644 18.3702C43.5778 18.3893 43.5831 18.413 43.5791 18.436C43.5752 18.459 43.5622 18.4794 43.5431 18.4929C43.524 18.5063 43.5004 18.5116 43.4774 18.5076C43.368 18.4976 43.2579 18.5138 43.1561 18.5549C43.0542 18.596 42.9637 18.6607 42.8919 18.7438C42.882 18.7543 42.8698 18.7622 42.8563 18.767C42.8427 18.7718 42.8282 18.7734 42.814 18.7714Z" fill="#263238"/>
<path d="M39.3566 21.5256C39.6079 22.875 39.8843 25.3502 38.9395 26.2524C38.9395 26.2524 39.3088 27.6219 41.8192 27.6219C44.5834 27.6219 43.136 26.2524 43.136 26.2524C41.6283 25.893 41.671 24.7748 41.9323 23.7244L39.3566 21.5256Z" fill="#FFC3BD"/>
<path d="M38.3947 26.5012C38.1936 26.1267 37.9725 25.697 38.4324 25.5638C38.935 25.4156 42.1842 25.1417 43.1391 25.4181C42.845 25.9408 43.3426 26.5816 43.3426 26.5816L38.3947 26.5012Z" fill="#263238"/>
<path d="M30.2202 89.4596C30.2947 89.4862 30.3737 89.4976 30.4526 89.4933C30.5316 89.489 30.6089 89.469 30.68 89.4345C30.7076 89.4093 30.7265 89.3761 30.7341 89.3396C30.7418 89.3031 30.7378 89.2651 30.7228 89.2309C30.7147 89.2025 30.7003 89.1762 30.6807 89.1541C30.6612 89.1319 30.6369 89.1144 30.6097 89.1028C30.3584 88.9822 29.788 89.2159 29.7628 89.2259C29.7553 89.2296 29.749 89.2354 29.7446 89.2425C29.7401 89.2496 29.7378 89.2577 29.7377 89.2661C29.7365 89.2744 29.7381 89.2828 29.7421 89.2901C29.7462 89.2974 29.7526 89.3031 29.7603 89.3063C29.9078 89.3734 30.0619 89.4248 30.2202 89.4596ZM30.5217 89.1631L30.572 89.1807C30.5882 89.1874 30.6027 89.1977 30.6144 89.2107C30.6262 89.2238 30.6348 89.2392 30.6398 89.2561C30.6625 89.334 30.6398 89.3591 30.6223 89.3666C30.5242 89.4521 30.1549 89.3666 29.896 89.2686C30.0948 89.1899 30.3083 89.1556 30.5217 89.1681V89.1631Z" fill="#407BFF"/>
<path d="M29.7703 89.3139H29.7929C30.0014 89.2536 30.4487 88.9344 30.4538 88.7258C30.4539 88.693 30.4428 88.661 30.4222 88.6354C30.4016 88.6098 30.3728 88.592 30.3407 88.5851C30.309 88.5747 30.2756 88.5706 30.2424 88.5732C30.2092 88.5758 30.1768 88.585 30.1472 88.6002C29.8959 88.7258 29.7451 89.2385 29.7376 89.2586C29.7336 89.265 29.7314 89.2724 29.7314 89.2799C29.7314 89.2875 29.7336 89.2949 29.7376 89.3013C29.7415 89.3061 29.7465 89.3097 29.7522 89.3119C29.758 89.3141 29.7642 89.3148 29.7703 89.3139ZM30.2929 88.6605H30.313C30.3658 88.6781 30.3658 88.7057 30.3658 88.7158C30.3658 88.8389 30.0668 89.0877 29.8632 89.1907C29.9212 88.9877 30.0384 88.8065 30.2 88.6705C30.2292 88.6579 30.2616 88.6544 30.2929 88.6605Z" fill="#407BFF"/>
<path d="M43.85 89.7737C44.0863 89.7737 44.3149 89.7411 44.3928 89.6355C44.4131 89.6073 44.424 89.5735 44.424 89.5388C44.424 89.5041 44.4131 89.4702 44.3928 89.442C44.3778 89.4167 44.3579 89.3948 44.3341 89.3775C44.3103 89.3602 44.2833 89.348 44.2546 89.3415C43.9481 89.2586 43.3022 89.6255 43.2746 89.6405C43.2672 89.6453 43.2614 89.6521 43.2578 89.6602C43.2542 89.6682 43.2531 89.6771 43.2545 89.6858C43.2559 89.6946 43.2601 89.7027 43.2664 89.709C43.2727 89.7153 43.2809 89.7195 43.2897 89.721C43.4744 89.7557 43.662 89.7734 43.85 89.7737ZM44.1441 89.4144C44.1716 89.4116 44.1994 89.4116 44.227 89.4144C44.2626 89.4234 44.2932 89.4459 44.3124 89.4772C44.3451 89.53 44.3325 89.5576 44.3124 89.5727C44.2245 89.6933 43.7596 89.6958 43.4153 89.6456C43.6414 89.5229 43.8887 89.4445 44.1441 89.4144Z" fill="#407BFF"/>
<path d="M43.2924 89.7235H43.31C43.5337 89.6229 43.976 89.2209 43.9408 89.0148C43.9408 88.9671 43.8981 88.9068 43.7774 88.8942C43.7326 88.8874 43.6868 88.8906 43.6433 88.9037C43.5999 88.9167 43.5598 88.9392 43.5261 88.9696C43.2899 89.1606 43.2422 89.6581 43.2397 89.6807C43.2386 89.6881 43.2397 89.6955 43.2428 89.7022C43.2459 89.7089 43.251 89.7146 43.2573 89.7184C43.2681 89.7241 43.2805 89.7259 43.2924 89.7235ZM43.7423 88.9696H43.7699C43.8478 88.9696 43.8528 89.0098 43.8553 89.0198C43.8754 89.1455 43.5739 89.4596 43.3527 89.5953C43.3756 89.3838 43.4634 89.1845 43.604 89.0249C43.6433 88.9934 43.6919 88.9757 43.7423 88.9746V88.9696Z" fill="#407BFF"/>
<path d="M41.2617 89.6782H43.1087L43.2922 85.4038H41.4452L41.2617 89.6782Z" fill="#FFC3BD"/>
<path d="M27.7119 88.8238L29.5162 89.2133L31.328 85.2329L29.5237 84.8434L27.7119 88.8238Z" fill="#FFC3BD"/>
<path d="M29.6896 89.0324L27.6642 88.5952C27.6282 88.5862 27.5902 88.5905 27.5571 88.607C27.5239 88.6236 27.4977 88.6515 27.4833 88.6856L26.7797 90.211C26.7626 90.2482 26.7541 90.2888 26.7549 90.3298C26.7558 90.3708 26.7659 90.411 26.7845 90.4476C26.8031 90.4841 26.8298 90.5159 26.8624 90.5406C26.8951 90.5654 26.933 90.5824 26.9732 90.5904C27.6843 90.7311 28.0361 90.7638 28.9282 90.9573C29.476 91.0754 30.7149 91.377 31.4713 91.5403C32.2277 91.7036 32.4915 90.9774 32.195 90.8417C30.8707 90.2361 30.3178 89.7034 29.9585 89.2083C29.8938 89.1184 29.7979 89.0557 29.6896 89.0324Z" fill="#263238"/>
<path d="M43.0955 89.4596H41.0852C41.0485 89.4597 41.013 89.4722 40.9843 89.495C40.9556 89.5178 40.9354 89.5496 40.9269 89.5852L40.5625 91.2262C40.5534 91.2659 40.5534 91.3073 40.5626 91.347C40.5717 91.3868 40.5899 91.4239 40.6155 91.4557C40.6412 91.4874 40.6737 91.5128 40.7107 91.5301C40.7477 91.5474 40.7881 91.556 40.8289 91.5554C41.5551 91.5428 42.6055 91.5001 43.5202 91.5001C44.5882 91.5001 45.513 91.5579 46.7669 91.5579C47.5208 91.5579 47.7344 90.7914 47.4177 90.7236C45.9728 90.407 44.7943 90.3743 43.5453 89.6028C43.4116 89.5143 43.2559 89.4647 43.0955 89.4596Z" fill="#263238"/>
<path d="M35.6353 26.6695C33.9039 27.0666 32.4766 31.4817 32.4766 31.4817L35.9519 34.1304C36.852 33.1732 37.4869 31.9979 37.7939 30.7203C38.3894 28.3959 37.4044 26.2624 35.6353 26.6695Z" fill="#407BFF"/>
<path opacity="0.2" d="M37.1181 29.9162C36.1783 30.846 35.8617 32.5397 35.7988 34.0122L35.9521 34.1304C36.8522 33.1718 37.4878 31.9959 37.7966 30.7178C37.8318 30.5796 37.8619 30.4414 37.8871 30.3057L37.1181 29.9162Z" fill="black"/>
<path d="M45.9854 26.765C45.9854 26.765 47.4027 28.1521 46.8675 35.5275C46.7268 37.4775 45.9804 39.8472 45.5934 42.7195H36.9666C36.8962 41.2117 37.0948 33.8112 35.6348 26.6695C36.7294 26.4589 37.8366 26.3196 38.9493 26.2524C40.347 26.1719 41.7482 26.1719 43.1459 26.2524C44.1043 26.3489 45.0537 26.5203 45.9854 26.765Z" fill="#263238"/>
<path opacity="0.6" d="M46.9766 32.9392C46.8133 31.8687 46.6399 30.9289 46.474 30.1248L46.4187 30.0921L43.7148 31.2254C43.8455 32.9066 45.6221 34.6028 46.8585 35.5954C46.8585 35.5728 46.8585 35.5476 46.8585 35.5275C46.9289 34.5651 46.964 33.7082 46.9766 32.9392Z" fill="black"/>
<path opacity="0.2" d="M43.2921 85.4038L43.1966 87.6076H41.3496L41.4451 85.4038H43.2921Z" fill="black"/>
<path opacity="0.2" d="M29.5237 84.8434L31.3279 85.2329L30.3931 87.2859L28.5889 86.8964L29.5237 84.8434Z" fill="black"/>
<path d="M38.5829 20.1535C39.0578 21.9126 39.2438 22.9831 40.3419 23.7194C41.9853 24.825 44.0283 23.556 44.0937 21.6789C44.1515 19.9902 43.3649 17.3793 41.4677 17.025C41.0489 16.9429 40.6161 16.9694 40.2105 17.1021C39.8049 17.2348 39.4401 17.4692 39.1508 17.7829C38.8615 18.0966 38.6574 18.4792 38.558 18.8942C38.4586 19.3092 38.4671 19.7428 38.5829 20.1535Z" fill="#FFC3BD"/>
<path d="M42.5838 42.7195C42.5838 42.7195 40.488 56.8295 39.3396 62.1141C38.0832 67.8938 31.326 87.0522 31.326 87.0522L28.0215 86.3361C28.0215 86.3361 32.7432 70.7309 33.8012 62.6393C34.2711 59.0333 34.3389 52.9093 34.9446 48.4012C35.2307 46.3907 35.9187 44.4584 36.9674 42.7195H42.5838Z" fill="#263238"/>
<path d="M32.117 85.9415L31.5013 87.1352L27.7822 86.331L28.0963 85.2128L32.117 85.9415Z" fill="#407BFF"/>
<path opacity="0.6" d="M41.2592 47.7453C38.8367 48.2202 39.0931 57.2542 39.3846 61.9005C40.0831 58.6161 41.1059 52.2962 41.8045 47.8106C41.6355 47.7274 41.4431 47.7043 41.2592 47.7453Z" fill="black"/>
<path d="M45.5834 42.7195C45.5834 42.7195 46.3373 56.5229 46.1388 62.1518C45.9302 68.0094 43.8771 87.1804 43.8771 87.1804H40.7586C40.7586 87.1804 40.643 68.3512 40.5073 62.5991C40.354 56.3294 39.5977 42.7195 39.5977 42.7195H45.5834Z" fill="#263238"/>
<path d="M44.4777 85.9415C44.4903 85.9415 44.2993 87.2382 44.2993 87.2382H40.5048L40.4043 86.0797L44.4777 85.9415Z" fill="#407BFF"/>
<path d="M46.8877 28.4487C47.1717 28.8909 47.4933 29.386 47.8175 29.8458C48.1416 30.3057 48.4759 30.7706 48.8226 31.2154C49.4793 32.0967 50.2117 32.919 51.0114 33.673C51.2049 33.8514 51.4034 34.0173 51.6044 34.1756L51.7552 34.2887C51.7277 34.274 51.698 34.2639 51.6672 34.2585C51.6019 34.2459 51.5692 34.2585 51.5868 34.2585C51.7349 34.2694 51.8832 34.2407 52.0165 34.1756C52.2361 34.0812 52.4485 33.9712 52.6523 33.8464C53.5882 33.2293 54.4754 32.5412 55.3059 31.7883L56.384 32.6603C55.7301 33.7575 54.9162 34.751 53.9691 35.6079C53.7003 35.845 53.411 36.0578 53.1046 36.2437C52.7178 36.4845 52.286 36.6444 51.8356 36.7136C51.3321 36.7856 50.8193 36.677 50.3882 36.407L50.1696 36.2688C49.8831 36.0829 49.6092 35.8869 49.3478 35.6808C48.3531 34.8726 47.446 33.9621 46.6414 32.9644C46.2469 32.4769 45.8675 31.9843 45.5131 31.4742C45.1588 30.9641 44.8171 30.469 44.4854 29.886L46.8877 28.4487Z" fill="#FFC3BD"/>
<path d="M43.2617 29.5569C42.6711 32.0321 47.1491 34.4545 47.1491 34.4545L50.0566 31.047C49.1836 29.7586 48.189 28.5569 47.0863 27.4586C45.0509 25.506 43.709 27.6722 43.2617 29.5569Z" fill="#407BFF"/>
<path d="M55.0098 32.2934L55.6958 30.0896L57.5026 30.9892C57.5026 30.9892 57.2387 32.5975 55.9245 32.8764L55.0098 32.2934Z" fill="#FFC3BD"/>
<path d="M56.42 29.479L58.0509 29.9262L57.5031 30.9892L55.6963 30.0896L56.42 29.479Z" fill="#FFC3BD"/>
<path d="M40.4574 22.7619C40.9265 22.6573 41.3557 22.4204 41.6942 22.0792C42.0327 21.738 42.2663 21.3069 42.3672 20.8371C42.3672 20.8371 41.9652 19.7766 42.719 19.0554C43.4729 18.3342 43.101 17.5477 42.3471 17.3994C41.5932 17.2511 40.4373 18.1533 40.4373 18.1533L39.5176 19.8017L39.892 21.4653L40.4574 22.7619Z" fill="#263238"/>
<path opacity="0.3" d="M40.4574 22.7619C40.9265 22.6573 41.3557 22.4204 41.6942 22.0792C42.0327 21.738 42.2663 21.3069 42.3672 20.8371C42.3672 20.8371 41.9652 19.7766 42.719 19.0554C43.4729 18.3342 43.101 17.5477 42.3471 17.3994C41.5932 17.2511 40.4373 18.1533 40.4373 18.1533L39.5176 19.8017L39.892 21.4653L40.4574 22.7619Z" fill="white"/>
<path d="M41.5932 20.2264C41.7155 20.6674 41.9806 21.0554 42.3471 21.3296C42.827 21.6864 43.1864 21.3296 43.1512 20.7918C43.121 20.2892 42.8346 19.5354 42.3044 19.3796C41.7741 19.2238 41.4625 19.6962 41.5932 20.2264Z" fill="#FFC3BD"/>
<path d="M40.709 22.2694C40.2592 21.1964 39.4299 18.4196 42.3599 17.3994C42.3599 17.3994 42.1463 14.7206 43.5712 15.8112C43.5712 15.8112 42.2092 14.0723 42.0207 15.8514C42.0207 15.8514 41.6865 15.2458 42.1891 14.8463C42.1891 14.8463 39.5078 13.9467 39.5706 15.9771C39.4967 15.7682 39.4752 15.5444 39.5081 15.3253C39.5409 15.1062 39.6271 14.8986 39.7591 14.7206C39.7591 14.7206 39.1761 14.6854 38.9449 15.6052C38.7137 16.5249 36.437 16.3339 36.6456 18.4272C36.6456 18.4272 34.6353 20.9552 39.4626 23.1137C39.4626 23.1137 38.8268 23.5058 39.1887 24.1315C39.2545 23.912 39.3647 23.7084 39.5126 23.5333C39.6604 23.3582 39.8427 23.2154 40.0481 23.1137C40.0481 23.1137 39.734 23.8299 40.4049 24.041C40.338 23.8559 40.3211 23.6565 40.356 23.4628C40.3908 23.2691 40.4762 23.088 40.6034 22.9378C40.683 22.8481 40.7352 22.7375 40.7539 22.6191C40.7726 22.5006 40.757 22.3793 40.709 22.2694Z" fill="#263238"/>
<path opacity="0.1" d="M42.4354 23.3701C41.7971 23.4002 41.8348 24.0234 41.8449 24.1239C42.3982 24.0701 42.9162 23.8279 43.3124 23.4379C43.0812 23.4781 42.835 23.3525 42.4354 23.3701Z" fill="black"/>
<path d="M42.1113 17.1305C42.1113 17.1305 42.4405 15.9168 43.0612 16.158C43.6819 16.3993 43.2421 17.3818 43.5638 17.8417C43.4147 17.7782 43.2848 17.6769 43.1869 17.5477C43.0891 17.4186 43.0267 17.2661 43.0059 17.1054C42.9155 16.5324 42.3526 17.3994 42.3526 17.3994L42.1113 17.1305Z" fill="#263238"/>
<path d="M42.3545 21.9905L42.9526 21.3045L42.7239 21.1034H41.9826L41.7539 21.3045L42.3545 21.9905Z" fill="#407BFF"/>
<path opacity="0.2" d="M42.2716 21.1034H41.9826L41.7539 21.3045L42.3545 21.9905L42.0429 21.3045L42.2716 21.1034Z" fill="white"/>
</svg>
