<svg width="108" height="108" viewBox="0 0 108 108" fill="none" xmlns="http://www.w3.org/2000/svg">
<path d="M97.1783 86.0739H90.0244V86.1279H97.1783V86.0739Z" fill="#EBEBEB"/>
<path d="M71.5435 86.6614H69.6665V86.7154H71.5435V86.6614Z" fill="#EBEBEB"/>
<path d="M89.8084 84.0694H85.6633V84.1234H89.8084V84.0694Z" fill="#EBEBEB"/>
<path d="M20.6603 84.4323H11.3313V84.4863H20.6603V84.4323Z" fill="#EBEBEB"/>
<path d="M23.9522 84.4323H22.585V84.4863H23.9522V84.4323Z" fill="#EBEBEB"/>
<path d="M48.6323 85.3438H28.3975V85.3978H48.6323V85.3438Z" fill="#EBEBEB"/>
<path d="M51.1921 72.9648H9.48678C9.15967 72.9648 8.84596 72.8349 8.61466 72.6036C8.38336 72.3723 8.25342 72.0586 8.25342 71.7314V13.1026C8.25627 12.7773 8.38746 12.4664 8.61846 12.2374C8.84945 12.0085 9.16153 11.88 9.48678 11.88H51.1921C51.5192 11.88 51.8329 12.0099 52.0642 12.2412C52.2955 12.4725 52.4254 12.7863 52.4254 13.1134V71.7314C52.4254 72.0586 52.2955 72.3723 52.0642 72.6036C51.8329 72.8349 51.5192 72.9648 51.1921 72.9648ZM9.48678 11.9232C9.17417 11.9238 8.87453 12.0482 8.65348 12.2693C8.43243 12.4903 8.30799 12.79 8.30742 13.1026V71.7314C8.30799 72.0441 8.43243 72.3437 8.65348 72.5647C8.87453 72.7858 9.17417 72.9102 9.48678 72.9108H51.1921C51.5047 72.9102 51.8043 72.7858 52.0254 72.5647C52.2464 72.3437 52.3708 72.0441 52.3714 71.7314V13.1026C52.3708 12.79 52.2464 12.4903 52.0254 12.2693C51.8043 12.0482 51.5047 11.9238 51.1921 11.9232H9.48678Z" fill="#EBEBEB"/>
<path d="M97.9149 72.9648H56.2053C55.8784 72.9642 55.565 72.8341 55.3338 72.6029C55.1026 72.3718 54.9725 72.0584 54.9719 71.7314V13.1026C54.9753 12.7775 55.1067 12.4669 55.3376 12.238C55.5685 12.0092 55.8802 11.8806 56.2053 11.88H97.9149C98.2394 11.8811 98.5504 12.0101 98.7804 12.2389C99.0105 12.4678 99.1411 12.7781 99.1439 13.1026V71.7314C99.1439 72.0578 99.0146 72.3709 98.7842 72.602C98.5538 72.8332 98.2412 72.9637 97.9149 72.9648ZM56.2053 11.9232C55.8927 11.9238 55.593 12.0482 55.372 12.2693C55.1509 12.4903 55.0265 12.79 55.0259 13.1026V71.7314C55.0265 72.0441 55.1509 72.3437 55.372 72.5647C55.593 72.7858 55.8927 72.9102 56.2053 72.9108H97.9149C98.2275 72.9102 98.5271 72.7858 98.7482 72.5647C98.9692 72.3437 99.0937 72.0441 99.0942 71.7314V13.1026C99.0937 12.79 98.9692 12.4903 98.7482 12.2693C98.5271 12.0482 98.2275 11.9238 97.9149 11.9232H56.2053Z" fill="#EBEBEB"/>
<path d="M108 82.5984H0V82.6524H108V82.5984Z" fill="#EBEBEB"/>
<path d="M47.736 61.2554H49.1811V82.242C49.1811 82.3102 49.154 82.3755 49.1058 82.4237C49.0576 82.472 48.9922 82.499 48.924 82.499H47.9909C47.9228 82.499 47.8574 82.472 47.8092 82.4237C47.761 82.3755 47.7339 82.3102 47.7339 82.242V61.2554H47.736Z" fill="#F0F0F0"/>
<path d="M92.4544 59.3676H79.9351V61.2555H92.4544V59.3676Z" fill="#E6E6E6"/>
<path d="M56.6892 61.2554H58.1342V82.242C58.1342 82.3102 58.1072 82.3755 58.059 82.4237C58.0108 82.472 57.9454 82.499 57.8772 82.499H56.9462C56.8781 82.499 56.8127 82.472 56.7645 82.4237C56.7163 82.3755 56.6892 82.3102 56.6892 82.242V61.2554Z" fill="#E6E6E6"/>
<path d="M90.1736 61.2554H91.6186V82.242C91.6186 82.3102 91.5915 82.3755 91.5433 82.4237C91.4951 82.472 91.4298 82.499 91.3616 82.499H90.4306C90.3625 82.499 90.2971 82.472 90.2489 82.4237C90.2007 82.3755 90.1736 82.3102 90.1736 82.242V61.2554Z" fill="#E6E6E6"/>
<path d="M83.5055 59.3676H46.9065V61.2555H83.5055V59.3676Z" fill="#F5F5F5"/>
<path d="M81.216 61.2554H82.6611V82.242C82.6611 82.3102 82.634 82.3755 82.5858 82.4237C82.5376 82.472 82.4722 82.499 82.404 82.499H81.4709C81.4027 82.499 81.3374 82.472 81.2892 82.4237C81.2409 82.3755 81.2139 82.3102 81.2139 82.242V61.2554H81.216Z" fill="#F0F0F0"/>
<path d="M89.7415 59.3676H86.4216V59.0717C86.4217 58.9347 86.4497 58.7991 86.5039 58.6732C86.558 58.5473 86.6372 58.4337 86.7366 58.3393C86.836 58.245 86.9535 58.1718 87.0821 58.1243C87.2106 58.0768 87.3475 58.0559 87.4843 58.063L88.7803 58.1343C89.0384 58.1481 89.2813 58.2604 89.459 58.4481C89.6366 58.6358 89.7354 58.8845 89.7351 59.143L89.7415 59.3676Z" fill="#F0F0F0"/>
<path d="M80.7839 52.5031C80.7778 52.3772 80.7235 52.2585 80.6322 52.1717C80.5409 52.0848 80.4197 52.0364 80.2936 52.0366H76.9305C76.8045 52.0364 76.6832 52.0848 76.5919 52.1717C76.5006 52.2585 76.4463 52.3772 76.4402 52.5031L77.2372 59.4972H82.2463L80.7839 52.5031Z" fill="#E0E0E0"/>
<path d="M89.8905 41.7506H88.6398L87.2358 54.959H88.4843C88.5872 54.9563 88.6857 54.917 88.7621 54.8481C88.8385 54.7792 88.8879 54.6852 88.9012 54.5832L90.2253 42.12C90.2308 42.0731 90.2263 42.0255 90.2119 41.9805C90.1975 41.9355 90.1737 41.8941 90.142 41.8591C90.1102 41.8241 90.0714 41.7963 90.028 41.7776C89.9846 41.7589 89.9377 41.7497 89.8905 41.7506Z" fill="#E0E0E0"/>
<path d="M87.9573 54.959H69.2171C69.1692 54.9601 69.1217 54.9508 69.0778 54.9317C69.0339 54.9126 68.9947 54.8842 68.9629 54.8485C68.931 54.8127 68.9073 54.7705 68.8934 54.7247C68.8795 54.6789 68.8757 54.6306 68.8823 54.5832L70.1999 42.12C70.2132 42.0183 70.2622 41.9247 70.3382 41.8558C70.4141 41.787 70.5121 41.7474 70.6146 41.7442H89.3548C89.4026 41.7431 89.4501 41.7524 89.494 41.7715C89.5379 41.7906 89.5772 41.819 89.609 41.8547C89.6408 41.8905 89.6645 41.9327 89.6784 41.9785C89.6924 42.0243 89.6962 42.0726 89.6896 42.12L88.3655 54.5767C88.3538 54.6785 88.3064 54.7728 88.2316 54.8429C88.1568 54.9129 88.0596 54.9541 87.9573 54.959Z" fill="#EBEBEB"/>
<path d="M87.6074 53.7387H69.9343C69.8928 53.7393 69.8517 53.731 69.8137 53.7144C69.7757 53.6977 69.7417 53.6731 69.714 53.6422C69.6864 53.6112 69.6657 53.5747 69.6534 53.5351C69.6411 53.4955 69.6375 53.4537 69.6427 53.4125L70.7983 42.552C70.8092 42.4628 70.8519 42.3805 70.9185 42.3202C70.9852 42.2599 71.0713 42.2256 71.1612 42.2237H88.8322C88.8739 42.2231 88.9154 42.2314 88.9536 42.2482C88.9919 42.2649 89.0261 42.2897 89.054 42.3208C89.0818 42.352 89.1027 42.3887 89.1151 42.4286C89.1275 42.4685 89.1312 42.5106 89.1259 42.552L87.9682 53.4211C87.955 53.508 87.9116 53.5875 87.8456 53.6456C87.7796 53.7036 87.6953 53.7366 87.6074 53.7387Z" fill="#FAFAFA"/>
<path d="M82.4342 58.9529H76.2739C76.2381 58.9526 76.2025 58.9594 76.1694 58.973C76.1362 58.9866 76.1061 59.0066 76.0808 59.032C76.0555 59.0573 76.0354 59.0874 76.0218 59.1206C76.0083 59.1537 76.0014 59.1892 76.0017 59.2251C76.0017 59.2972 76.0304 59.3665 76.0814 59.4175C76.1325 59.4685 76.2017 59.4972 76.2739 59.4972H82.4342C82.5062 59.4966 82.5751 59.4678 82.626 59.4169C82.6769 59.366 82.7058 59.2971 82.7064 59.2251C82.7064 59.1529 82.6777 59.0836 82.6266 59.0326C82.5756 58.9816 82.5064 58.9529 82.4342 58.9529Z" fill="#E0E0E0"/>
<path d="M80.5765 58.59H70.1265V59.3676H80.5765V58.59Z" fill="#EBEBEB"/>
<path d="M65.2989 62.113H49.9197V82.579H65.2989V62.113Z" fill="#F5F5F5"/>
<path d="M68.2343 62.113H65.301V82.579H68.2343V62.113Z" fill="#E6E6E6"/>
<path d="M64.3032 63.6314H50.9976V68.6016H64.3032V63.6314Z" fill="#FAFAFA"/>
<path d="M64.3032 69.1438H50.9976V74.1139H64.3032V69.1438Z" fill="#FAFAFA"/>
<path d="M64.3032 74.6582H50.9976V79.6284H64.3032V74.6582Z" fill="#FAFAFA"/>
<path d="M58.2055 66.1176C58.2055 66.2274 58.1729 66.3347 58.1119 66.426C58.0509 66.5173 57.9642 66.5885 57.8628 66.6305C57.7613 66.6725 57.6497 66.6835 57.542 66.6621C57.4344 66.6407 57.3354 66.5878 57.2578 66.5101C57.1802 66.4325 57.1273 66.3336 57.1059 66.2259C57.0845 66.1182 57.0955 66.0066 57.1375 65.9052C57.1795 65.8038 57.2506 65.7171 57.3419 65.6561C57.4332 65.5951 57.5405 65.5625 57.6503 65.5625C57.7976 65.5625 57.9388 65.621 58.0429 65.7251C58.147 65.8292 58.2055 65.9704 58.2055 66.1176Z" fill="#EBEBEB"/>
<path d="M58.2055 71.6299C58.2055 71.7397 58.1729 71.847 58.1119 71.9383C58.0509 72.0296 57.9642 72.1008 57.8628 72.1428C57.7613 72.1848 57.6497 72.1958 57.542 72.1744C57.4344 72.153 57.3354 72.1001 57.2578 72.0225C57.1802 71.9448 57.1273 71.8459 57.1059 71.7382C57.0845 71.6305 57.0955 71.5189 57.1375 71.4175C57.1795 71.3161 57.2506 71.2294 57.3419 71.1684C57.4332 71.1074 57.5405 71.0748 57.6503 71.0748C57.7233 71.0745 57.7956 71.0887 57.8631 71.1165C57.9306 71.1443 57.9919 71.1852 58.0435 71.2368C58.0951 71.2884 58.136 71.3497 58.1638 71.4172C58.1916 71.4846 58.2057 71.5569 58.2055 71.6299Z" fill="#EBEBEB"/>
<path d="M58.2055 77.1422C58.2055 77.252 58.1729 77.3594 58.1119 77.4507C58.0509 77.5419 57.9642 77.6131 57.8628 77.6551C57.7613 77.6971 57.6497 77.7081 57.542 77.6867C57.4344 77.6653 57.3354 77.6124 57.2578 77.5348C57.1802 77.4571 57.1273 77.3582 57.1059 77.2505C57.0845 77.1429 57.0955 77.0312 57.1375 76.9298C57.1795 76.8284 57.2506 76.7417 57.3419 76.6807C57.4332 76.6197 57.5405 76.5871 57.6503 76.5871C57.7976 76.5871 57.9388 76.6456 58.0429 76.7497C58.147 76.8538 58.2055 76.995 58.2055 77.1422Z" fill="#EBEBEB"/>
<path d="M40.0096 28.8943H18.887V82.1124H40.0096V28.8943Z" fill="#E0E0E0"/>
<path d="M40.0098 28.4278V82.579H43.8978V28.4278H40.0098Z" fill="#E0E0E0"/>
<path d="M15.1826 28.4278V82.579H19.0706V28.4278H15.1826Z" fill="#E6E6E6"/>
<path d="M14.5217 28.4278V82.579H40.4763V28.4278H14.5217ZM39.5432 29.3609V39.0809H15.4548V29.3609H39.5432ZM15.4548 60.359V50.639H39.5432V60.359H15.4548ZM39.5432 61.2922V71.0014H15.4548V61.2922H39.5432ZM15.4548 49.7146V40.0054H39.5432V49.7146H15.4548ZM15.4548 81.6458V71.928H39.5432V81.648L15.4548 81.6458Z" fill="#F0F0F0"/>
<path d="M31.1256 60.4476H32.0242V52.9135H31.1256V60.4476Z" fill="#E6E6E6"/>
<path d="M32.0262 60.4476H32.9248V52.9135H32.0262V60.4476Z" fill="#E0E0E0"/>
<path d="M29.3305 60.4476H31.1255V53.4427H29.3305V60.4476Z" fill="#E6E6E6"/>
<path d="M27.2744 60.4476H28.4343V52.9135H27.2744V60.4476Z" fill="#F0F0F0"/>
<path d="M28.432 60.4476H29.3306V52.9135H28.432V60.4476Z" fill="#EBEBEB"/>
<path d="M20.4661 60.4476H21.626V52.9135H20.4661V60.4476Z" fill="#E6E6E6"/>
<path d="M21.6237 60.4476H22.5222V52.9135H21.6237V60.4476Z" fill="#EBEBEB"/>
<path d="M24.3193 60.4476H25.4792V52.9135H24.3193V60.4476Z" fill="#E6E6E6"/>
<path d="M25.4794 60.4476H26.3779V52.9135H25.4794V60.4476Z" fill="#E0E0E0"/>
<path d="M18.6689 60.4476H20.4639V53.0928H18.6689V60.4476Z" fill="#EBEBEB"/>
<path d="M17.7704 60.4476H18.6689V53.0928H17.7704V60.4476Z" fill="#E0E0E0"/>
<path d="M23.1207 60.4476H24.3174V53.0928H23.1207V60.4476Z" fill="#E0E0E0"/>
<path d="M22.5223 60.4476H23.1206V53.0928H22.5223V60.4476Z" fill="#F0F0F0"/>
<path d="M25.4795 60.4476H27.2744V53.4427H25.4795V60.4476Z" fill="#F5F5F5"/>
<path d="M35.6162 60.4476H36.7761V52.9135H35.6162V60.4476Z" fill="#EBEBEB"/>
<path d="M36.7762 60.4476H37.6748V52.9135H36.7762V60.4476Z" fill="#E6E6E6"/>
<path d="M33.8213 60.4476H35.6162V53.0928H33.8213V60.4476Z" fill="#E0E0E0"/>
<path d="M32.9227 60.4476H33.8213V53.0928H32.9227V60.4476Z" fill="#EBEBEB"/>
<path d="M38.2731 60.4476H39.4697V53.0928H38.2731V60.4476Z" fill="#EBEBEB"/>
<path d="M37.6746 60.4476H38.2729V53.0928H37.6746V60.4476Z" fill="#FAFAFA"/>
<path d="M26.1144 63.6509H25.2158V71.185H26.1144V63.6509Z" fill="#E6E6E6"/>
<path d="M25.2159 63.6509H24.3174V71.185H25.2159V63.6509Z" fill="#E0E0E0"/>
<path d="M27.9095 63.6509H26.1145V70.6558H27.9095V63.6509Z" fill="#E6E6E6"/>
<path d="M29.9656 63.6509H28.8057V71.185H29.9656V63.6509Z" fill="#F0F0F0"/>
<path d="M28.808 63.6509H27.9094V71.185H28.808V63.6509Z" fill="#EBEBEB"/>
<path d="M36.7761 63.6509H35.6162V71.185H36.7761V63.6509Z" fill="#E6E6E6"/>
<path d="M35.6163 63.6509H34.7178V71.185H35.6163V63.6509Z" fill="#EBEBEB"/>
<path d="M32.9226 63.6509H31.7627V71.185H32.9226V63.6509Z" fill="#E6E6E6"/>
<path d="M31.7628 63.6509H30.8643V71.185H31.7628V63.6509Z" fill="#E0E0E0"/>
<path d="M38.5711 63.6509H36.7761V71.0057H38.5711V63.6509Z" fill="#EBEBEB"/>
<path d="M39.4696 63.6509H38.571V71.0057H39.4696V63.6509Z" fill="#E0E0E0"/>
<path d="M34.1192 63.6509H32.9226V71.0057H34.1192V63.6509Z" fill="#E0E0E0"/>
<path d="M34.7177 63.6509H34.1194V71.0057H34.7177V63.6509Z" fill="#F0F0F0"/>
<path d="M31.7627 63.6509H29.9678V70.6558H31.7627V63.6509Z" fill="#F5F5F5"/>
<path d="M21.6238 63.6509H20.4639V71.185H21.6238V63.6509Z" fill="#EBEBEB"/>
<path d="M20.4659 63.6509H19.5674V71.185H20.4659V63.6509Z" fill="#E6E6E6"/>
<path d="M23.4187 63.6509H21.6238V71.0057H23.4187V63.6509Z" fill="#E0E0E0"/>
<path d="M24.3195 63.6509H23.4209V71.0057H24.3195V63.6509Z" fill="#EBEBEB"/>
<path d="M18.9669 63.6509H17.7703V71.0057H18.9669V63.6509Z" fill="#EBEBEB"/>
<path d="M19.5654 63.6509H18.967V71.0057H19.5654V63.6509Z" fill="#FAFAFA"/>
<path d="M31.1256 81.9223H32.0242V74.3883H31.1256V81.9223Z" fill="#E6E6E6"/>
<path d="M32.0262 81.9223H32.9248V74.3883H32.0262V81.9223Z" fill="#E0E0E0"/>
<path d="M29.3305 81.9223H31.1255V74.9174H29.3305V81.9223Z" fill="#E6E6E6"/>
<path d="M27.2744 81.9223H28.4343V74.3883H27.2744V81.9223Z" fill="#F0F0F0"/>
<path d="M28.432 81.9223H29.3306V74.3883H28.432V81.9223Z" fill="#EBEBEB"/>
<path d="M20.4661 81.9223H21.626V74.3883H20.4661V81.9223Z" fill="#E6E6E6"/>
<path d="M21.6237 81.9223H22.5222V74.3883H21.6237V81.9223Z" fill="#EBEBEB"/>
<path d="M24.3193 81.9223H25.4792V74.3883H24.3193V81.9223Z" fill="#E6E6E6"/>
<path d="M25.4794 81.9223H26.3779V74.3883H25.4794V81.9223Z" fill="#E0E0E0"/>
<path d="M18.6689 81.9202H20.4639V74.5654H18.6689V81.9202Z" fill="#EBEBEB"/>
<path d="M17.7704 81.9202H18.6689V74.5654H17.7704V81.9202Z" fill="#E0E0E0"/>
<path d="M23.1207 81.9202H24.3174V74.5654H23.1207V81.9202Z" fill="#E0E0E0"/>
<path d="M22.5223 81.9202H23.1206V74.5654H22.5223V81.9202Z" fill="#F0F0F0"/>
<path d="M25.4795 81.9223H27.2744V74.9174H25.4795V81.9223Z" fill="#F5F5F5"/>
<path d="M35.6162 81.9223H36.7761V74.3883H35.6162V81.9223Z" fill="#EBEBEB"/>
<path d="M36.7762 81.9223H37.6748V74.3883H36.7762V81.9223Z" fill="#E6E6E6"/>
<path d="M33.8213 81.9202H35.6162V74.5654H33.8213V81.9202Z" fill="#E0E0E0"/>
<path d="M32.9227 81.9202H33.8213V74.5654H32.9227V81.9202Z" fill="#EBEBEB"/>
<path d="M38.2731 81.9202H39.4697V74.5654H38.2731V81.9202Z" fill="#EBEBEB"/>
<path d="M37.6746 81.9202H38.2729V74.5654H37.6746V81.9202Z" fill="#FAFAFA"/>
<path d="M26.0625 39.1889L25.6543 34.5341H31.5597L31.9658 39.1889H26.0625Z" fill="#F0F0F0"/>
<path d="M26.0627 39.1889L25.6544 34.5341H25.3369L25.7452 39.1889H26.0627Z" fill="#E0E0E0"/>
<path d="M26.6221 38.7158L26.2981 35.0093H30.9983L31.3223 38.7158H26.6221Z" fill="#FAFAFA"/>
<path d="M26.9826 38.4091L26.7126 35.3138H30.6374L30.9095 38.4091H26.9826Z" fill="#EBEBEB"/>
<path d="M19.4054 39.1889H25.3368L24.678 31.6678H18.7488L19.4054 39.1889Z" fill="#EBEBEB"/>
<path d="M19.4054 39.1889H19.1225L18.4658 31.6678H18.7488L19.4054 39.1889Z" fill="#E0E0E0"/>
<path d="M19.9434 38.4221H24.6651L24.1424 32.4346H19.4207L19.9434 38.4221Z" fill="#E0E0E0"/>
<path d="M20.2889 37.9296H24.233L23.7967 32.9271H19.8525L20.2889 37.9296Z" fill="#FAFAFA"/>
<path d="M21.6375 33.8816L20.9823 34.5368C20.714 34.8051 20.714 35.24 20.9823 35.5082L21.6375 36.1635C21.9058 36.4317 22.3407 36.4317 22.6089 36.1635L23.2641 35.5082C23.5324 35.24 23.5324 34.8051 23.2641 34.5368L22.6089 33.8816C22.3407 33.6133 21.9058 33.6133 21.6375 33.8816Z" fill="#EBEBEB"/>
<path d="M22.0319 35.514L21.5721 35.9737C21.3039 36.242 21.3039 36.6769 21.5721 36.9451L22.0319 37.4049C22.3001 37.6731 22.735 37.6731 23.0033 37.4049L23.463 36.9451C23.7312 36.6769 23.7312 36.242 23.463 35.9737L23.0033 35.514C22.735 35.2458 22.3001 35.2458 22.0319 35.514Z" fill="#E6E6E6"/>
<path d="M33.0825 39.1889L35.9877 36.2837L38.8929 39.1889H33.0825Z" fill="#F5F5F5"/>
<path d="M35.9877 36.2837L33.0825 39.1889H35.9877V36.2837Z" fill="#E6E6E6"/>
<path d="M24.3543 46.6248C25.4306 45.5484 25.4306 43.8033 24.3543 42.727C23.2779 41.6506 21.5328 41.6506 20.4565 42.727C19.3801 43.8033 19.3801 45.5484 20.4565 46.6248C21.5328 47.7011 23.2779 47.7011 24.3543 46.6248Z" fill="#F0F0F0"/>
<path d="M22.5979 49.5461H22.2134V47.7209H22.4056C23.2134 47.7209 23.988 47.4 24.5592 46.8289C25.1303 46.2577 25.4512 45.483 25.4512 44.6753C25.4512 43.8675 25.1303 43.0929 24.5592 42.5217C23.988 41.9506 23.2134 41.6297 22.4056 41.6297V41.256C23.2956 41.2606 24.1489 41.611 24.7854 42.233C25.4219 42.8551 25.7916 43.7002 25.8166 44.5899C25.8416 45.4795 25.5197 46.344 24.9191 47.0008C24.3185 47.6576 23.4862 48.0552 22.5979 48.1097V49.5461Z" fill="#EBEBEB"/>
<path d="M24.0257 49.5893H20.7468C20.7468 49.3943 20.8241 49.2073 20.9618 49.0692C21.0995 48.9311 21.2863 48.8533 21.4812 48.8527H23.2891C23.4845 48.8527 23.6718 48.9303 23.81 49.0685C23.9481 49.2066 24.0257 49.3939 24.0257 49.5893Z" fill="#EBEBEB"/>
<path d="M29.536 49.464V47.5546C29.4873 47.5546 29.4406 47.5352 29.4061 47.5008C29.3717 47.4664 29.3524 47.4197 29.3524 47.371C29.3524 47.3223 29.3717 47.2756 29.4061 47.2412C29.4406 47.2067 29.4873 47.1874 29.536 47.1874C30.2617 47.1874 30.9918 47.1874 31.7197 47.1874V49.8377H29.536C29.4864 49.8377 29.4389 49.818 29.4038 49.783C29.3688 49.7479 29.3491 49.7004 29.3491 49.6509C29.3491 49.6013 29.3688 49.5538 29.4038 49.5187C29.4389 49.4837 29.4864 49.464 29.536 49.464Z" fill="#EBEBEB"/>
<path d="M31.2336 47.5546H29.5359V49.4618H31.2336V47.5546Z" fill="#F5F5F5"/>
<path d="M30.875 49.6455H36.7588C37.1628 49.6455 37.4911 49.1379 37.4911 48.5093C37.4911 47.8807 37.1628 47.371 36.7588 47.371H30.875V49.6455Z" fill="#FAFAFA"/>
<path d="M30.875 47.1874C32.8017 47.1874 34.7306 47.1528 36.6552 47.1874C37.9749 47.2111 38.0462 49.7405 36.7524 49.829C35.8495 49.8917 34.9228 49.829 34.02 49.829H30.875C30.83 49.8241 30.7884 49.8028 30.7582 49.7691C30.728 49.7354 30.7113 49.6918 30.7113 49.6465C30.7113 49.6013 30.728 49.5576 30.7582 49.5239C30.7884 49.4902 30.83 49.4689 30.875 49.464H36.3506C36.7826 49.464 37.0764 49.464 37.2384 48.9607C37.3809 48.5287 37.3356 47.6496 36.7588 47.5546C36.6927 47.5492 36.6263 47.5492 36.5601 47.5546H30.875C30.8263 47.5546 30.7796 47.5352 30.7452 47.5008C30.7108 47.4663 30.6914 47.4196 30.6914 47.371C30.6914 47.3223 30.7108 47.2756 30.7452 47.2411C30.7796 47.2067 30.8263 47.1874 30.875 47.1874Z" fill="#EBEBEB"/>
<path d="M29.536 46.8396V44.928C29.491 44.9231 29.4494 44.9018 29.4192 44.8681C29.389 44.8344 29.3722 44.7907 29.3722 44.7455C29.3722 44.7002 29.389 44.6566 29.4192 44.6229C29.4494 44.5892 29.491 44.5679 29.536 44.563C30.2617 44.563 30.9918 44.563 31.7197 44.563V47.2133H29.536C29.4864 47.2133 29.4389 47.1936 29.4038 47.1586C29.3688 47.1235 29.3491 47.076 29.3491 47.0264C29.3491 46.9769 29.3688 46.9294 29.4038 46.8943C29.4389 46.8593 29.4864 46.8396 29.536 46.8396Z" fill="#EBEBEB"/>
<path d="M31.2336 44.9302H29.5359V46.8375H31.2336V44.9302Z" fill="#F5F5F5"/>
<path d="M30.875 47.0232H36.7588C37.1628 47.0232 37.4911 46.5135 37.4911 45.8849C37.4911 45.2563 37.1628 44.7466 36.7588 44.7466H30.875V47.0232Z" fill="#FAFAFA"/>
<path d="M30.8751 44.5651C32.8019 44.5651 34.7307 44.5306 36.6553 44.5651C37.9751 44.5889 38.0463 47.1161 36.7525 47.2047C35.8496 47.2673 34.923 47.2047 34.0201 47.2047H30.8751C30.8302 47.1997 30.7886 47.1784 30.7584 47.1447C30.7281 47.111 30.7114 47.0674 30.7114 47.0221C30.7114 46.9769 30.7281 46.9332 30.7584 46.8995C30.7886 46.8659 30.8302 46.8445 30.8751 46.8396H36.3507C36.7827 46.8396 37.0765 46.8396 37.2385 46.3363C37.3811 45.9043 37.3357 45.0252 36.759 44.9302C36.6929 44.9248 36.6264 44.9248 36.5603 44.9302H30.8751C30.8302 44.9253 30.7886 44.9039 30.7584 44.8702C30.7281 44.8366 30.7114 44.7929 30.7114 44.7477C30.7114 44.7024 30.7281 44.6587 30.7584 44.6251C30.7886 44.5914 30.8302 44.57 30.8751 44.5651Z" fill="#EBEBEB"/>
<path d="M52.9589 91.5213C76.0887 91.5213 94.8391 90.4266 94.8391 89.0762C94.8391 87.7258 76.0887 86.6311 52.9589 86.6311C29.829 86.6311 11.0786 87.7258 11.0786 89.0762C11.0786 90.4266 29.829 91.5213 52.9589 91.5213Z" fill="#F5F5F5"/>
<path d="M66.1197 71.8956C66.1197 71.8956 63.599 69.9105 61.5146 71.807L62.3527 71.9172L61.0998 72.2455C60.9258 72.4569 60.7683 72.6815 60.629 72.9173C60.4454 73.224 60.279 73.5091 60.1214 73.7813L60.9594 73.9541L59.6634 74.5589C58.348 76.8765 58.1277 77.5829 58.1277 77.5829C58.9662 77.5809 59.8023 77.4919 60.6225 77.3172L61.3634 75.3905L61.5146 77.0925C62.4117 76.8384 63.2565 76.4266 64.0094 75.8765L63.6832 74.1485L64.6833 75.276C65.2522 74.6805 65.6661 73.9543 65.8886 73.1613L65.3227 72.617L65.9901 72.7531C66.0533 72.4707 66.0966 72.1841 66.1197 71.8956Z" fill="#407BFF"/>
<path opacity="0.2" d="M66.1197 71.8956C66.1197 71.8956 63.599 69.9105 61.5146 71.807L62.3527 71.9172L61.0998 72.2455C60.9258 72.4569 60.7683 72.6815 60.629 72.9173C60.4454 73.224 60.279 73.5091 60.1214 73.7813L60.9594 73.9541L59.6634 74.5589C58.348 76.8765 58.1277 77.5829 58.1277 77.5829C58.9662 77.5809 59.8023 77.4919 60.6225 77.3172L61.3634 75.3905L61.5146 77.0925C62.4117 76.8384 63.2565 76.4266 64.0094 75.8765L63.6832 74.1485L64.6833 75.276C65.2522 74.6805 65.6661 73.9543 65.8886 73.1613L65.3227 72.617L65.9901 72.7531C66.0533 72.4707 66.0966 72.1841 66.1197 71.8956Z" fill="white"/>
<path d="M71.0769 70.416C71.0769 70.416 74.3342 67.8499 77.0277 70.3015L75.9477 70.4441L77.5655 70.8761C77.7896 71.1487 77.9931 71.4375 78.1747 71.7401C78.4101 72.1353 78.6283 72.5047 78.8227 72.8525L77.7427 73.0685L79.4015 73.8482C81.1015 76.8442 81.3866 77.7557 81.3866 77.7557C80.3026 77.7539 79.2218 77.6388 78.1617 77.4122L77.207 74.9217L77.0147 77.112C75.8552 76.7848 74.7633 76.2538 73.7899 75.5438L74.2219 73.319L72.9259 74.7749C72.1908 74.0053 71.656 73.0671 71.3685 72.0425L72.1007 71.3383L71.2367 71.5154C71.158 71.1531 71.1046 70.7857 71.0769 70.416Z" fill="#407BFF"/>
<path opacity="0.3" d="M71.0769 70.416C71.0769 70.416 74.3342 67.8499 77.0277 70.3015L75.9477 70.4441L77.5655 70.8761C77.7896 71.1487 77.9931 71.4375 78.1747 71.7401C78.4101 72.1353 78.6283 72.5047 78.8227 72.8525L77.7427 73.0685L79.4015 73.8482C81.1015 76.8442 81.3866 77.7557 81.3866 77.7557C80.3026 77.7539 79.2218 77.6388 78.1617 77.4122L77.207 74.9217L77.0147 77.112C75.8552 76.7848 74.7633 76.2538 73.7899 75.5438L74.2219 73.319L72.9259 74.7749C72.1908 74.0053 71.656 73.0671 71.3685 72.0425L72.1007 71.3383L71.2367 71.5154C71.158 71.1531 71.1046 70.7857 71.0769 70.416Z" fill="white"/>
<path d="M69.7442 65.7094C69.7442 65.7094 69.2561 69.8285 65.6186 69.9991L66.2839 69.1351L64.841 69.984C64.4878 69.9486 64.1377 69.8872 63.7934 69.8004C63.3485 69.6881 62.9294 69.5844 62.545 69.4764L63.1498 68.5541L61.4218 69.1762C58.1018 68.2582 57.2551 67.8175 57.2551 67.8175C58.0228 67.0518 58.8683 66.3684 59.778 65.7785L62.2145 66.8585L60.7975 65.1672C61.8487 64.5782 62.9962 64.1811 64.1866 63.9943L65.461 65.867L65.3486 63.923C66.4095 63.9484 67.4479 64.234 68.3726 64.7546L68.3532 65.7698L68.837 65.0354C69.1553 65.2378 69.4585 65.4631 69.7442 65.7094Z" fill="#407BFF"/>
<path opacity="0.5" d="M69.7442 65.7094C69.7442 65.7094 69.2561 69.8285 65.6186 69.9991L66.2839 69.1351L64.841 69.984C64.4878 69.9486 64.1377 69.8872 63.7934 69.8004C63.3485 69.6881 62.9294 69.5844 62.545 69.4764L63.1498 68.5541L61.4218 69.1762C58.1018 68.2582 57.2551 67.8175 57.2551 67.8175C58.0228 67.0518 58.8683 66.3684 59.778 65.7785L62.2145 66.8585L60.7975 65.1672C61.8487 64.5782 62.9962 64.1811 64.1866 63.9943L65.461 65.867L65.3486 63.923C66.4095 63.9484 67.4479 64.234 68.3726 64.7546L68.3532 65.7698L68.837 65.0354C69.1553 65.2378 69.4585 65.4631 69.7442 65.7094Z" fill="white"/>
<path d="M61.8105 73.723C61.8105 73.723 67.3812 65.8908 69.1697 77.4382H68.5217C68.5217 77.4382 67.9233 72.144 65.8001 71.7552C63.6768 71.3664 61.8105 73.723 61.8105 73.723Z" fill="#407BFF"/>
<path d="M75.628 72.2887C75.628 72.2887 70.2561 61.4282 68.5303 77.4382H69.1459C69.1459 77.4382 69.7334 70.0942 71.7789 69.5585C73.8244 69.0228 75.628 72.2887 75.628 72.2887Z" fill="#407BFF"/>
<path d="M62.8689 67.4654C62.8689 67.4654 71.0207 66.2083 69.7442 77.598H70.3922C70.3922 77.598 71.9603 66.2515 62.8689 67.4654Z" fill="#407BFF"/>
<path d="M63.8669 76.68L66.0269 88.8235H73.0081L75.1681 76.68H63.8669Z" fill="#263238"/>
<path opacity="0.5" d="M63.8669 76.68L66.0269 88.8235H73.0081L75.1681 76.68H63.8669Z" fill="white"/>
<path d="M38.5776 55.2679V58.536C38.5782 59.1442 38.8201 59.7273 39.2501 60.1574C39.6802 60.5875 40.2633 60.8293 40.8716 60.8299H72.144C72.7517 60.8288 73.334 60.5866 73.7633 60.1565C74.1925 59.7264 74.4336 59.1436 74.4336 58.536V55.2679H38.5776Z" fill="#407BFF"/>
<path d="M72.1397 34.3375H40.8716C39.6047 34.3375 38.5776 35.3645 38.5776 36.6314V58.104C38.5776 59.3709 39.6047 60.3979 40.8716 60.3979H72.1397C73.4066 60.3979 74.4336 59.3709 74.4336 58.104V36.6314C74.4336 35.3645 73.4066 34.3375 72.1397 34.3375Z" fill="#407BFF"/>
<path opacity="0.8" d="M72.1397 34.3375H40.8716C39.6047 34.3375 38.5776 35.3645 38.5776 36.6314V58.104C38.5776 59.3709 39.6047 60.3979 40.8716 60.3979H72.1397C73.4066 60.3979 74.4336 59.3709 74.4336 58.104V36.6314C74.4336 35.3645 73.4066 34.3375 72.1397 34.3375Z" fill="white"/>
<path d="M52.6759 55.4083H52.1338V55.08H53.6091V55.3997H53.0669V56.7735H52.6759V55.4083Z" fill="#263238"/>
<path d="M54.8987 56.7821L54.5726 56.309H54.2162V56.7821H53.8252V55.08H54.5574C54.6916 55.0772 54.8249 55.103 54.9484 55.1556C55.0524 55.2015 55.1409 55.2765 55.2033 55.3716C55.2645 55.4691 55.2953 55.5827 55.2918 55.6978C55.2952 55.8131 55.2635 55.9268 55.2011 56.0239C55.1387 56.1197 55.0492 56.1949 54.9441 56.2399L55.3242 56.7842L54.8987 56.7821ZM54.7994 55.4861C54.7218 55.43 54.6269 55.4032 54.5315 55.4105H54.2162V56.0002H54.5358C54.6315 56.0069 54.7265 55.9793 54.8037 55.9224C54.8324 55.8942 54.8552 55.8606 54.8708 55.8236C54.8864 55.7865 54.8944 55.7466 54.8944 55.7064C54.8944 55.6662 54.8864 55.6263 54.8708 55.5893C54.8552 55.5522 54.8324 55.5186 54.8037 55.4904L54.7994 55.4861Z" fill="#263238"/>
<path d="M56.9095 56.4667V56.7821H55.5984V55.08H56.8771V55.3932H55.9872V55.7626H56.7734V56.0671H55.9872V56.4581L56.9095 56.4667Z" fill="#263238"/>
<path d="M58.7737 55.08V56.7735H58.4519L57.6073 55.7453V56.7735H57.2207V55.08H57.5447L58.3871 56.1082V55.08H58.7737Z" fill="#263238"/>
<path d="M59.1841 55.08H59.953C60.1218 55.0767 60.289 55.1129 60.4412 55.1859C60.5769 55.2508 60.6909 55.3535 60.7695 55.4818C60.8474 55.6171 60.8884 55.7706 60.8884 55.9267C60.8884 56.0829 60.8474 56.2363 60.7695 56.3717C60.6909 56.4999 60.5769 56.6027 60.4412 56.6676C60.289 56.7406 60.1218 56.7768 59.953 56.7735H59.1841V55.08ZM59.9336 56.4516C60.0824 56.4592 60.2283 56.408 60.3397 56.3091C60.3868 56.261 60.4235 56.2039 60.4477 56.1411C60.4718 56.0783 60.4828 56.0112 60.4801 55.944C60.4838 55.8728 60.4722 55.8017 60.4461 55.7354C60.4201 55.6691 60.3801 55.6091 60.3289 55.5595C60.2167 55.4622 60.0712 55.4119 59.9228 55.4191H59.5664V56.4689L59.9336 56.4516Z" fill="#263238"/>
<path d="M45.7703 50.9328H42.5476V52.4405H45.7703V50.9328Z" fill="#407BFF"/>
<path d="M50.7103 49.5806H47.4875V52.4426H50.7103V49.5806Z" fill="#263238"/>
<path d="M55.648 49.1897H52.4253V52.4427H55.648V49.1897Z" fill="#407BFF"/>
<path d="M60.588 46.6841H57.3652V52.4426H60.588V46.6841Z" fill="#263238"/>
<path d="M65.5257 42.8846H62.303V52.4405H65.5257V42.8846Z" fill="#407BFF"/>
<path d="M70.4634 39.636H67.2407V52.4427H70.4634V39.636Z" fill="#263238"/>
<path d="M54.3887 20.8202C53.7134 20.1176 52.903 19.5587 52.0062 19.1771C51.1094 18.7955 50.1448 18.5991 49.1702 18.5998V23.1358C49.7194 23.1358 50.2627 23.2489 50.7663 23.4682C51.2698 23.6875 51.7228 24.0081 52.097 24.4102L54.3887 22.1184V20.8202Z" fill="#407BFF"/>
<path opacity="0.3" d="M54.3887 20.8202C53.7134 20.1176 52.903 19.5587 52.0062 19.1771C51.1094 18.7955 50.1448 18.5991 49.1702 18.5998V23.1358C49.7194 23.1358 50.2627 23.2489 50.7663 23.4682C51.2698 23.6875 51.7228 24.0081 52.097 24.4102L54.3887 22.1184V20.8202Z" fill="white"/>
<path d="M52.097 23.112L54.3887 20.8202C53.7134 20.1176 52.903 19.5587 52.0062 19.1771C51.1094 18.7955 50.1448 18.5991 49.1702 18.5998V21.8398C49.7192 21.8395 50.2625 21.9523 50.766 22.1712C51.2696 22.3901 51.7226 22.7103 52.097 23.112Z" fill="#407BFF"/>
<path d="M51.6649 25.704C52.2082 26.2833 52.5669 27.0111 52.6953 27.7949C52.5427 28.7344 52.0608 29.589 51.3358 30.2058C50.6108 30.8226 49.69 31.1612 48.7381 31.1612C47.7863 31.1612 46.8655 30.8226 46.1405 30.2058C45.4155 29.589 44.9336 28.7344 44.781 27.7949C44.9338 26.8553 45.4157 26.0007 46.1406 25.3838C46.8656 24.7669 47.7863 24.4279 48.7381 24.4274V19.8914C46.8145 19.8914 44.9696 20.6556 43.6093 22.0159C42.249 23.3761 41.4849 25.221 41.4849 27.1447C41.4849 27.3607 41.4978 27.5767 41.5151 27.7927C41.4978 28.0087 41.4849 28.2247 41.4849 28.4407C41.5177 30.3425 42.2962 32.1552 43.6527 33.4885C45.0091 34.8217 46.8351 35.5688 48.7371 35.5688C50.6391 35.5688 52.465 34.8217 53.8215 33.4885C55.1779 32.1552 55.9564 30.3425 55.9893 28.4407C55.9893 28.2247 55.9893 28.0087 55.959 27.7927C55.9785 27.5767 55.9893 27.3607 55.9893 27.1447C55.9922 25.2666 55.2631 23.4612 53.9567 22.1119L51.6649 24.408V25.704Z" fill="#407BFF"/>
<path opacity="0.3" d="M51.6649 25.704C52.2082 26.2833 52.5669 27.0111 52.6953 27.7949C52.5427 28.7344 52.0608 29.589 51.3358 30.2058C50.6108 30.8226 49.69 31.1612 48.7381 31.1612C47.7863 31.1612 46.8655 30.8226 46.1405 30.2058C45.4155 29.589 44.9336 28.7344 44.781 27.7949C44.9338 26.8553 45.4157 26.0007 46.1406 25.3838C46.8656 24.7669 47.7863 24.4279 48.7381 24.4274V19.8914C46.8145 19.8914 44.9696 20.6556 43.6093 22.0159C42.249 23.3761 41.4849 25.221 41.4849 27.1447C41.4849 27.3607 41.4978 27.5767 41.5151 27.7927C41.4978 28.0087 41.4849 28.2247 41.4849 28.4407C41.5177 30.3425 42.2962 32.1552 43.6527 33.4885C45.0091 34.8217 46.8351 35.5688 48.7371 35.5688C50.6391 35.5688 52.465 34.8217 53.8215 33.4885C55.1779 32.1552 55.9564 30.3425 55.9893 28.4407C55.9893 28.2247 55.9893 28.0087 55.959 27.7927C55.9785 27.5767 55.9893 27.3607 55.9893 27.1447C55.9922 25.2666 55.2631 23.4612 53.9567 22.1119L51.6649 24.408V25.704Z" fill="white"/>
<path opacity="0.6" d="M53.9567 22.1162L51.6649 24.408C52.2942 25.0823 52.6719 25.9528 52.7344 26.873C52.7968 27.7932 52.5403 28.7068 52.0079 29.4599C51.4756 30.2131 50.7 30.7598 49.8117 31.0079C48.9234 31.2561 47.9767 31.1905 47.1311 30.8223C46.2855 30.4541 45.5926 29.8058 45.1691 28.9864C44.7457 28.1671 44.6175 27.2269 44.8062 26.3241C44.9949 25.4213 45.4889 24.6111 46.2051 24.03C46.9213 23.4488 47.8158 23.1323 48.7381 23.1336V19.8936C47.0645 19.8921 45.4417 20.4691 44.1447 21.5269C42.8477 22.5847 41.9562 24.0583 41.6211 25.698C41.286 27.3378 41.5279 29.043 42.3059 30.5248C43.0839 32.0067 44.3501 33.1741 45.8902 33.8294C47.4302 34.4847 49.1494 34.5875 50.7566 34.1206C52.3638 33.6536 53.7602 32.6456 54.7094 31.2671C55.6585 29.8886 56.1021 28.2244 55.9649 26.5564C55.8277 24.8883 55.1183 23.319 53.9567 22.1141V22.1162Z" fill="white"/>
<path d="M47.0706 28.2118V28.6114H45.47V28.296L46.2865 27.5249C46.3564 27.4631 46.4155 27.3901 46.4614 27.3089C46.4908 27.2544 46.5064 27.1936 46.5068 27.1318C46.509 27.0948 46.5023 27.0579 46.4873 27.024C46.4723 26.9902 46.4493 26.9605 46.4204 26.9374C46.3461 26.8872 46.2571 26.8636 46.1677 26.8704C46.0814 26.8694 45.9959 26.8871 45.9171 26.9222C45.8419 26.9586 45.7772 27.0137 45.7292 27.0821L45.3728 26.851C45.4586 26.7262 45.5765 26.6269 45.7141 26.5637C45.8701 26.4907 46.0408 26.4545 46.213 26.4578C46.3552 26.4549 46.4964 26.4813 46.6278 26.5356C46.7377 26.5803 46.8328 26.6552 46.9021 26.7516C46.9682 26.8489 47.0022 26.9645 46.9993 27.0821C46.9998 27.194 46.9755 27.3047 46.928 27.4061C46.8557 27.5364 46.7606 27.6527 46.6472 27.7495L46.159 28.2096L47.0706 28.2118Z" fill="#263238"/>
<path d="M47.7056 28.512C47.5636 28.4202 47.4517 28.2888 47.3837 28.134C47.2282 27.7578 47.2282 27.3352 47.3837 26.959C47.4517 26.8042 47.5636 26.6728 47.7056 26.581C47.8462 26.4938 48.0089 26.4488 48.1743 26.4514C48.3397 26.4488 48.5024 26.4938 48.643 26.581C48.7837 26.6742 48.8953 26.8052 48.9649 26.959C49.1204 27.3352 49.1204 27.7578 48.9649 28.134C48.8959 28.2882 48.7842 28.4194 48.643 28.512C48.5024 28.5992 48.3397 28.6442 48.1743 28.6416C48.0089 28.6442 47.8462 28.5992 47.7056 28.512ZM48.4767 28.0606C48.5493 27.8989 48.5868 27.7237 48.5868 27.5465C48.5868 27.3693 48.5493 27.1941 48.4767 27.0324C48.4443 26.9816 48.3996 26.9397 48.3468 26.9107C48.2939 26.8817 48.2346 26.8665 48.1743 26.8665C48.114 26.8665 48.0547 26.8817 48.0018 26.9107C47.949 26.9397 47.9043 26.9816 47.8719 27.0324C47.7993 27.1941 47.7618 27.3693 47.7618 27.5465C47.7618 27.7237 47.7993 27.8989 47.8719 28.0606C47.9043 28.1114 47.949 28.1533 48.0018 28.1823C48.0547 28.2113 48.114 28.2265 48.1743 28.2265C48.2346 28.2265 48.2939 28.2113 48.3468 28.1823C48.3996 28.1533 48.4443 28.1114 48.4767 28.0606Z" fill="#263238"/>
<path d="M49.4293 27.4795C49.334 27.3582 49.2822 27.2083 49.2822 27.054C49.2822 26.8997 49.334 26.7499 49.4293 26.6285C49.4776 26.5765 49.5366 26.5354 49.6022 26.5082C49.6678 26.481 49.7385 26.4683 49.8095 26.4708C49.8801 26.4681 49.9505 26.4809 50.0158 26.5081C50.0811 26.5353 50.1397 26.5764 50.1875 26.6285C50.2814 26.7505 50.3323 26.9001 50.3323 27.054C50.3323 27.2079 50.2814 27.3575 50.1875 27.4795C50.1397 27.5316 50.0811 27.5727 50.0158 27.5999C49.9505 27.6272 49.8801 27.6399 49.8095 27.6372C49.7385 27.6398 49.6678 27.627 49.6022 27.5998C49.5366 27.5726 49.4776 27.5316 49.4293 27.4795ZM49.9715 27.3046C50.0098 27.2266 50.0297 27.1409 50.0297 27.054C50.0297 26.9671 50.0098 26.8814 49.9715 26.8034C49.9537 26.7772 49.9297 26.7556 49.9016 26.7408C49.8736 26.7259 49.8423 26.7181 49.8106 26.7181C49.7788 26.7181 49.7475 26.7259 49.7195 26.7408C49.6914 26.7556 49.6675 26.7772 49.6496 26.8034C49.6049 26.8782 49.5838 26.9648 49.5892 27.0518C49.5834 27.1396 49.6044 27.227 49.6496 27.3024C49.6678 27.3283 49.6919 27.3494 49.7199 27.3639C49.7479 27.3785 49.779 27.3861 49.8106 27.3861C49.8421 27.3861 49.8732 27.3785 49.9012 27.3639C49.9293 27.3494 49.9533 27.3283 49.9715 27.3024V27.3046ZM51.0709 26.4946H51.4295L49.9844 28.6114H49.6259L51.0709 26.4946ZM50.9759 28.5638C50.8951 28.5162 50.8304 28.4455 50.7901 28.3608C50.7459 28.2638 50.7231 28.1585 50.7231 28.0519C50.7231 27.9454 50.7459 27.84 50.7901 27.743C50.8304 27.6584 50.8951 27.5877 50.9759 27.54C51.0576 27.4918 51.151 27.4671 51.2459 27.4687C51.3168 27.4662 51.3875 27.4789 51.4531 27.5061C51.5187 27.5334 51.5777 27.5744 51.626 27.6264C51.7213 27.7478 51.7731 27.8976 51.7731 28.0519C51.7731 28.2062 51.7213 28.3561 51.626 28.4774C51.5777 28.5295 51.5187 28.5705 51.4531 28.5977C51.3875 28.6249 51.3168 28.6377 51.2459 28.6351C51.151 28.6367 51.0576 28.6121 50.9759 28.5638ZM51.4079 28.3025C51.4512 28.2264 51.4715 28.1393 51.4662 28.0519C51.4722 27.9651 51.4519 27.8786 51.4079 27.8035C51.3908 27.7762 51.3669 27.7538 51.3385 27.7386C51.31 27.7235 51.2781 27.716 51.2459 27.7171C51.2143 27.7166 51.1831 27.7241 51.1552 27.7388C51.1272 27.7535 51.1035 27.775 51.086 27.8014C51.0462 27.8789 51.0255 27.9648 51.0255 28.0519C51.0255 28.1391 51.0462 28.225 51.086 28.3025C51.1042 28.3283 51.1283 28.3494 51.1563 28.364C51.1843 28.3786 51.2154 28.3862 51.247 28.3862C51.2785 28.3862 51.3096 28.3786 51.3376 28.364C51.3657 28.3494 51.3897 28.3283 51.4079 28.3025Z" fill="#263238"/>
<path d="M53.9566 48.3235C53.9352 48.3238 53.914 48.3198 53.8942 48.3118C53.8745 48.3037 53.8565 48.2918 53.8414 48.2767C53.8263 48.2616 53.8144 48.2436 53.8063 48.2238C53.7983 48.2041 53.7943 48.1829 53.7946 48.1615V45.6084C53.7947 45.3299 53.6844 45.0627 53.4879 44.8654L48.9994 40.3769C48.8714 40.2498 48.7699 40.0987 48.7006 39.9323C48.6312 39.7658 48.5955 39.5873 48.5955 39.407V36.9468C48.596 36.904 48.6133 36.8631 48.6435 36.8329C48.6738 36.8026 48.7147 36.7853 48.7575 36.7848C48.8004 36.7848 48.8416 36.8019 48.872 36.8322C48.9024 36.8626 48.9195 36.9038 48.9195 36.9468V39.407C48.9192 39.5448 48.9464 39.6813 48.9995 39.8085C49.0525 39.9357 49.1303 40.0511 49.2283 40.1479L53.7168 44.6364C53.8447 44.7638 53.9461 44.9153 54.0151 45.0821C54.084 45.249 54.1192 45.4279 54.1186 45.6084V48.168C54.1169 48.2098 54.0991 48.2494 54.0689 48.2784C54.0387 48.3074 53.9984 48.3235 53.9566 48.3235Z" fill="#263238"/>
<path d="M64.1282 25.9719H63.7826V26.4168H63.3053V25.9719H62.1648V25.6414L63.1627 24.3H63.6768L62.7523 25.5723H63.3204V25.177H63.7826V25.5723H64.1282V25.9719Z" fill="#263238"/>
<path d="M65.6642 25.272C65.7347 25.3294 65.7909 25.4024 65.8283 25.4853C65.8658 25.5681 65.8836 25.6585 65.8802 25.7494C65.8816 25.8735 65.8479 25.9956 65.783 26.1014C65.7122 26.2129 65.61 26.3008 65.4892 26.3542C65.3353 26.4233 65.1676 26.4565 64.9989 26.4514C64.8529 26.4502 64.7076 26.4299 64.5669 26.3909C64.4355 26.3579 64.3111 26.3016 64.1997 26.2246L64.3919 25.8487C64.4761 25.9112 64.5703 25.9587 64.6706 25.9891C64.7755 26.0219 64.8847 26.0387 64.9946 26.0388C65.096 26.0446 65.1969 26.0197 65.284 25.9675C65.3176 25.9456 65.345 25.9155 65.3636 25.8799C65.3821 25.8443 65.3912 25.8046 65.3899 25.7645C65.3952 25.7216 65.3876 25.6781 65.368 25.6396C65.3483 25.6011 65.3176 25.5693 65.2797 25.5485C65.1608 25.4913 65.0289 25.4667 64.8974 25.4772H64.3552L64.4654 24.287H65.7614V24.6802H64.8779L64.8434 25.0819H65.0162C65.2476 25.0688 65.4765 25.1359 65.6642 25.272Z" fill="#263238"/>
<path d="M66.1459 25.2828C66.0507 25.1618 65.999 25.0123 65.999 24.8584C65.999 24.7044 66.0507 24.555 66.1459 24.4339C66.1942 24.3819 66.2532 24.3409 66.3188 24.3137C66.3844 24.2865 66.455 24.2737 66.526 24.2763C66.5967 24.2736 66.6671 24.2863 66.7323 24.3135C66.7976 24.3408 66.8562 24.3818 66.904 24.4339C66.9977 24.5556 67.0485 24.7048 67.0485 24.8584C67.0485 25.0119 66.9977 25.1612 66.904 25.2828C66.8563 25.3352 66.7978 25.3766 66.7325 25.4042C66.6673 25.4318 66.5968 25.4449 66.526 25.4427C66.4549 25.4448 66.3842 25.4316 66.3186 25.404C66.253 25.3765 66.1941 25.3351 66.1459 25.2828ZM66.688 25.11C66.7324 25.0344 66.7528 24.947 66.7463 24.8595C66.7528 24.772 66.7324 24.6846 66.688 24.6089C66.671 24.5815 66.647 24.5592 66.6186 24.544C66.5901 24.5288 66.5582 24.5214 66.526 24.5225C66.4942 24.5222 66.4629 24.53 66.435 24.5451C66.407 24.5602 66.3833 24.5822 66.3662 24.6089C66.321 24.6843 66.2999 24.7717 66.3057 24.8595C66.3003 24.9465 66.3214 25.0331 66.3662 25.1079C66.3829 25.135 66.4064 25.1573 66.4345 25.1725C66.4626 25.1877 66.4941 25.1952 66.526 25.1943C66.558 25.1954 66.5897 25.1882 66.6181 25.1734C66.6465 25.1587 66.6705 25.1368 66.688 25.11ZM67.7875 24.3H68.146L66.701 26.4168H66.3424L67.7875 24.3ZM67.6924 26.3693C67.6117 26.3216 67.547 26.2509 67.5067 26.1663C67.4625 26.0693 67.4396 25.9639 67.4396 25.8574C67.4396 25.7508 67.4625 25.6455 67.5067 25.5485C67.5451 25.4593 67.61 25.3839 67.6924 25.3325C67.7747 25.2859 67.8679 25.2621 67.9624 25.2634C68.0334 25.2608 68.1041 25.2736 68.1697 25.3008C68.2353 25.328 68.2942 25.369 68.3426 25.4211C68.4459 25.5405 68.4985 25.6954 68.4895 25.8531C68.4945 25.9312 68.4842 26.0095 68.459 26.0837C68.4338 26.1578 68.3942 26.2262 68.3426 26.2851C68.2943 26.3374 68.2354 26.3787 68.1699 26.4063C68.1043 26.4339 68.0335 26.447 67.9624 26.4449C67.8672 26.4452 67.7737 26.419 67.6924 26.3693ZM68.1244 26.1058C68.1684 26.0307 68.1887 25.9442 68.1827 25.8574C68.1883 25.7699 68.168 25.6828 68.1244 25.6068C68.1071 25.5798 68.083 25.5576 68.0547 25.5425C68.0263 25.5274 67.9946 25.5198 67.9624 25.5204C67.9305 25.5195 67.899 25.527 67.8709 25.5422C67.8428 25.5573 67.8193 25.5796 67.8026 25.6068C67.7574 25.6822 67.7363 25.7696 67.7421 25.8574C67.7363 25.9451 67.7574 26.0325 67.8026 26.1079C67.8204 26.1342 67.8444 26.1557 67.8724 26.1706C67.9005 26.1855 67.9317 26.1933 67.9635 26.1933C67.9952 26.1933 68.0265 26.1855 68.0546 26.1706C68.0826 26.1557 68.1066 26.1342 68.1244 26.1079V26.1058Z" fill="#263238"/>
<path d="M71.1137 28.512L68.3057 26.8898C67.9152 27.6365 67.2995 28.2412 66.5458 28.6182C65.7922 28.9952 64.939 29.1252 64.1073 28.9899C63.2756 28.8546 62.5076 28.4608 61.9124 27.8644C61.3171 27.268 60.9248 26.4992 60.7911 25.6673C60.8913 25.0667 61.1265 24.4967 61.4789 24.0002C61.8314 23.5037 62.2919 23.0937 62.8258 22.801V21.505L61.208 18.697C60.083 19.3263 59.1462 20.2444 58.4943 21.3565C57.8423 22.4686 57.4989 23.7345 57.4993 25.0236C57.4993 25.2396 57.5101 25.4556 57.5295 25.6716C57.5122 25.8876 57.4993 26.1036 57.4993 26.3196C57.5021 27.928 58.0394 29.4898 59.0267 30.7595C60.0141 32.0291 61.3954 32.9346 62.9535 33.3335C64.5116 33.7325 66.1581 33.6022 67.6341 32.9632C69.1101 32.3242 70.3319 31.2128 71.1073 29.8037L71.1137 28.512Z" fill="#263238"/>
<path opacity="0.6" d="M64.7524 29.052C63.8607 29.0515 62.9946 28.7542 62.2905 28.207C61.5865 27.6598 61.0846 26.8939 60.864 26.0299C60.6434 25.1659 60.7167 24.2531 61.0723 23.4353C61.4279 22.6176 62.0455 21.9415 62.8279 21.5136L61.21 18.7056C60.2297 19.2543 59.3903 20.0233 58.758 20.9519C58.1257 21.8804 57.7179 22.9432 57.5666 24.0564C57.4153 25.1696 57.5247 26.3027 57.8862 27.3663C58.2477 28.43 58.8514 29.3951 59.6496 30.1856C60.4479 30.976 61.4189 31.5702 62.4861 31.9211C63.5533 32.2721 64.6874 32.3704 65.799 32.2081C66.9107 32.0458 67.9694 31.6275 68.8917 30.9861C69.814 30.3446 70.5746 29.4977 71.1136 28.512L68.3056 26.8899C67.9672 27.5403 67.4572 28.0857 66.8308 28.4669C66.2044 28.848 65.4856 29.0504 64.7524 29.052Z" fill="white"/>
<path opacity="0.6" d="M71.1137 28.512L68.3057 26.8898C67.9152 27.6365 67.2995 28.2412 66.5458 28.6182C65.7922 28.9952 64.939 29.1252 64.1073 28.9899C63.2756 28.8546 62.5076 28.4608 61.9124 27.8644C61.3171 27.268 60.9248 26.4992 60.7911 25.6673C60.8913 25.0667 61.1265 24.4967 61.4789 24.0002C61.8314 23.5037 62.2919 23.0937 62.8258 22.801V21.505L61.208 18.697C60.083 19.3263 59.1462 20.2444 58.4943 21.3565C57.8423 22.4686 57.4989 23.7345 57.4993 25.0236C57.4993 25.2396 57.5101 25.4556 57.5295 25.6716C57.5122 25.8876 57.4993 26.1036 57.4993 26.3196C57.5021 27.928 58.0394 29.4898 59.0267 30.7595C60.0141 32.0291 61.3954 32.9346 62.9535 33.3335C64.5116 33.7325 66.1581 33.6022 67.6341 32.9632C69.1101 32.3242 70.3319 31.2128 71.1073 29.8037L71.1137 28.512Z" fill="white"/>
<path d="M69.1719 27.3305L71.9799 28.9527C72.5667 27.8852 72.8735 26.6866 72.872 25.4686C72.872 25.2526 72.8591 25.0366 72.8396 24.8206C72.8591 24.6046 72.872 24.3886 72.872 24.1726C72.872 22.9072 72.5409 21.6638 71.9116 20.566C71.2823 19.4681 70.3768 18.554 69.285 17.9144C68.1931 17.2748 66.953 16.932 65.6876 16.92C64.4223 16.908 63.1758 17.2272 62.072 17.8459V19.1419L63.6899 21.9499C64.2537 21.641 64.8836 21.4723 65.5263 21.4579C66.1691 21.4435 66.8059 21.5839 67.383 21.8673C67.9601 22.1506 68.4606 22.5686 68.8422 23.086C69.2239 23.6034 69.4755 24.205 69.5759 24.84C69.5059 25.2606 69.3696 25.6675 69.1719 26.0453V27.3305Z" fill="#263238"/>
<path opacity="0.4" d="M69.1719 27.3305L71.9799 28.9527C72.5667 27.8852 72.8735 26.6866 72.872 25.4686C72.872 25.2526 72.8591 25.0366 72.8396 24.8206C72.8591 24.6046 72.872 24.3886 72.872 24.1726C72.872 22.9072 72.5409 21.6638 71.9116 20.566C71.2823 19.4681 70.3768 18.554 69.285 17.9144C68.1931 17.2748 66.953 16.932 65.6876 16.92C64.4223 16.908 63.1758 17.2272 62.072 17.8459V19.1419L63.6899 21.9499C64.2537 21.641 64.8836 21.4723 65.5263 21.4579C66.1691 21.4435 66.8059 21.5839 67.383 21.8673C67.9601 22.1506 68.4606 22.5686 68.8422 23.086C69.2239 23.6034 69.4755 24.205 69.5759 24.84C69.5059 25.2606 69.3696 25.6675 69.1719 26.0453V27.3305Z" fill="white"/>
<path d="M65.6166 16.9215C64.3759 16.919 63.1556 17.2375 62.0742 17.8459L63.6921 20.6539C64.448 20.2405 65.3168 20.0814 66.1702 20.2C67.0235 20.3186 67.8161 20.7087 68.4306 21.3125C69.0451 21.9164 69.449 22.702 69.5825 23.5531C69.716 24.4043 69.5721 25.2758 69.172 26.0388L71.98 27.661C72.585 26.5566 72.8921 25.3137 72.8708 24.0547C72.8496 22.7956 72.5009 21.5638 71.8589 20.4804C71.217 19.3971 70.304 18.4996 69.2098 17.8763C68.1156 17.253 66.878 16.9254 65.6188 16.9258L65.6166 16.9215Z" fill="#263238"/>
<path d="M58.9682 45.8352C58.9254 45.8346 58.8845 45.8174 58.8542 45.7871C58.824 45.7569 58.8067 45.716 58.8062 45.6732V43.7659C58.8066 43.4012 58.9519 43.0516 59.2101 42.7939L63.6986 38.3076C63.8951 38.1103 64.0054 37.8431 64.0053 37.5646V34.8883C64.0058 34.8455 64.0231 34.8046 64.0533 34.7744C64.0836 34.7441 64.1245 34.7269 64.1673 34.7263C64.2101 34.7269 64.2509 34.7441 64.2812 34.7744C64.3115 34.8046 64.3287 34.8455 64.3293 34.8883V37.5646C64.3287 37.9288 64.1843 38.2781 63.9275 38.5366L59.439 43.0229C59.3409 43.1201 59.2631 43.2359 59.2101 43.3634C59.157 43.491 59.1299 43.6278 59.1302 43.7659V45.6732C59.1302 45.7162 59.1131 45.7574 59.0827 45.7877C59.0523 45.8181 59.0111 45.8352 58.9682 45.8352Z" fill="#263238"/>
<path d="M80.8856 54.5659C80.993 54.6173 81.0842 54.6973 81.1491 54.7971C81.2149 54.901 81.2487 55.0219 81.2463 55.1448C81.2481 55.2763 81.2113 55.4055 81.1405 55.5163C81.0679 55.6229 80.9679 55.708 80.8511 55.7626C80.724 55.8218 80.5851 55.8513 80.445 55.849C80.3163 55.8561 80.1876 55.8355 80.0676 55.7886C79.9476 55.7416 79.8391 55.6694 79.7495 55.5768C79.5694 55.3593 79.4797 55.0809 79.4989 54.7992C79.4932 54.5853 79.5399 54.3732 79.635 54.1815C79.7193 54.017 79.8509 53.8816 80.013 53.7927C80.1865 53.7009 80.3805 53.6549 80.5767 53.6587C80.6866 53.6582 80.7962 53.6713 80.9029 53.6976C80.9961 53.7177 81.0852 53.7535 81.1664 53.8035L80.985 54.1642C80.8671 54.0893 80.7292 54.0524 80.5897 54.0583C80.5107 54.0531 80.4314 54.0643 80.357 54.0915C80.2826 54.1187 80.2147 54.1611 80.1577 54.216C80.0438 54.34 79.9826 54.5035 79.9871 54.6718C80.057 54.6069 80.1394 54.5567 80.2292 54.5245C80.3191 54.4922 80.4145 54.4783 80.5098 54.4839C80.6398 54.4814 80.7685 54.5095 80.8856 54.5659ZM80.6696 55.3975C80.7027 55.3696 80.7289 55.3344 80.7461 55.2947C80.7634 55.255 80.7712 55.2118 80.769 55.1686C80.7712 55.125 80.7634 55.0815 80.7462 55.0415C80.7289 55.0014 80.7028 54.9658 80.6696 54.9375C80.5967 54.8764 80.5032 54.8455 80.4083 54.8511C80.3132 54.8474 80.2202 54.879 80.1469 54.9396C80.1135 54.9675 80.0869 55.0026 80.0689 55.0423C80.051 55.0819 80.0422 55.1251 80.0432 55.1686C80.0433 55.2096 80.0522 55.2501 80.0693 55.2874C80.0865 55.3247 80.1115 55.3578 80.1426 55.3846C80.2196 55.4459 80.3165 55.4767 80.4147 55.471C80.5065 55.479 80.5981 55.4529 80.6718 55.3975H80.6696Z" fill="#263238"/>
<path d="M81.864 55.728C81.7228 55.6354 81.6111 55.5042 81.5422 55.35C81.3867 54.9738 81.3867 54.5512 81.5422 54.175C81.6097 54.0164 81.7214 53.8807 81.864 53.784C82.0046 53.6968 82.1673 53.6518 82.3327 53.6544C82.4982 53.6518 82.6609 53.6968 82.8015 53.784C82.9427 53.8766 83.0545 54.0078 83.1233 54.162C83.2788 54.5382 83.2788 54.9608 83.1233 55.337C83.0553 55.4918 82.9434 55.6232 82.8015 55.715C82.6609 55.8022 82.4982 55.8472 82.3327 55.8446C82.1686 55.8511 82.006 55.8107 81.864 55.728ZM82.6373 55.2766C82.7099 55.1149 82.7474 54.9397 82.7474 54.7625C82.7474 54.5853 82.7099 54.4101 82.6373 54.2484C82.6049 54.1976 82.5602 54.1557 82.5074 54.1267C82.4545 54.0977 82.3952 54.0825 82.3349 54.0825C82.2746 54.0825 82.2153 54.0977 82.1624 54.1267C82.1096 54.1557 82.0649 54.1976 82.0325 54.2484C81.9599 54.4101 81.9224 54.5853 81.9224 54.7625C81.9224 54.9397 81.9599 55.1149 82.0325 55.2766C82.0649 55.3274 82.1096 55.3693 82.1624 55.3983C82.2153 55.4273 82.2746 55.4425 82.3349 55.4425C82.3952 55.4425 82.4545 55.4273 82.5074 55.3983C82.5602 55.3693 82.6049 55.3274 82.6373 55.2766Z" fill="#263238"/>
<path d="M83.5919 54.6804C83.4966 54.559 83.4448 54.4092 83.4448 54.2549C83.4448 54.1006 83.4966 53.9507 83.5919 53.8294C83.6415 53.7793 83.7006 53.7395 83.7656 53.7124C83.8307 53.6852 83.9005 53.6713 83.971 53.6713C84.0415 53.6713 84.1113 53.6852 84.1764 53.7124C84.2414 53.7395 84.3005 53.7793 84.3501 53.8294C84.444 53.9513 84.4949 54.101 84.4949 54.2549C84.4949 54.4088 84.444 54.5584 84.3501 54.6804C84.3005 54.7305 84.2414 54.7703 84.1764 54.7974C84.1113 54.8245 84.0415 54.8385 83.971 54.8385C83.9005 54.8385 83.8307 54.8245 83.7656 54.7974C83.7006 54.7703 83.6415 54.7305 83.5919 54.6804ZM84.1341 54.5054C84.1724 54.4275 84.1923 54.3418 84.1923 54.2549C84.1923 54.168 84.1724 54.0823 84.1341 54.0043C84.1162 53.978 84.092 53.9564 84.0637 53.9417C84.0354 53.927 84.0039 53.9196 83.9721 53.9201C83.9399 53.9194 83.9082 53.927 83.8798 53.9422C83.8514 53.9573 83.8274 53.9794 83.8101 54.0065C83.7661 54.0815 83.7457 54.1681 83.7518 54.2549C83.7465 54.3423 83.7667 54.4293 83.8101 54.5054C83.8284 54.5313 83.8527 54.5524 83.8809 54.5669C83.9091 54.5815 83.9404 54.5891 83.9721 54.5891C84.0038 54.5891 84.035 54.5815 84.0632 54.5669C84.0914 54.5524 84.1157 54.5313 84.1341 54.5054ZM85.2335 53.6954H85.5921L84.147 55.8122H83.7863L85.2335 53.6954ZM85.1363 55.7647C85.0566 55.7158 84.9922 55.6454 84.9506 55.5617C84.9078 55.4643 84.8858 55.3591 84.8858 55.2528C84.8858 55.1465 84.9078 55.0413 84.9506 54.9439C84.9922 54.8602 85.0566 54.7898 85.1363 54.7409C85.2188 54.6927 85.3129 54.668 85.4085 54.6696C85.4791 54.6669 85.5495 54.6797 85.6148 54.7069C85.6801 54.7341 85.7386 54.7752 85.7865 54.8273C85.8818 54.9486 85.9336 55.0985 85.9336 55.2528C85.9336 55.4071 85.8818 55.557 85.7865 55.6783C85.7386 55.7304 85.6801 55.7715 85.6148 55.7987C85.5495 55.8259 85.4791 55.8387 85.4085 55.836C85.3115 55.8384 85.2158 55.8137 85.132 55.7647H85.1363ZM85.5683 55.5034C85.6116 55.4273 85.6319 55.3402 85.6266 55.2528C85.6326 55.166 85.6123 55.0794 85.5683 55.0044C85.551 54.9773 85.5269 54.9552 85.4986 54.9401C85.4702 54.9249 85.4385 54.9173 85.4063 54.918C85.3747 54.9173 85.3434 54.9246 85.3155 54.9394C85.2875 54.9541 85.2637 54.9758 85.2465 55.0022C85.2053 55.0793 85.1837 55.1654 85.1837 55.2528C85.1837 55.3402 85.2053 55.4263 85.2465 55.5034C85.2637 55.5298 85.2875 55.5515 85.3155 55.5662C85.3434 55.581 85.3747 55.5883 85.4063 55.5876C85.4371 55.5887 85.4676 55.5824 85.4954 55.5693C85.5233 55.5561 85.5475 55.5365 85.5662 55.512L85.5683 55.5034Z" fill="#263238"/>
<path d="M76.5935 51.6478L79.4015 53.2678C79.7915 52.5207 80.407 51.9156 81.1606 51.5383C81.9142 51.1611 82.7674 51.0309 83.5992 51.1662C84.431 51.3016 85.199 51.6956 85.794 52.2924C86.3891 52.8891 86.781 53.6582 86.914 54.4903C86.8156 55.0907 86.5821 55.6609 86.2312 56.1578C85.8802 56.6547 85.4209 57.0654 84.8879 57.3588V58.6548L86.5057 61.4628C87.6305 60.8331 88.567 59.9149 89.2189 58.8029C89.8708 57.6909 90.2144 56.4252 90.2145 55.1362C90.2145 54.9202 90.2037 54.6934 90.1842 54.4774C90.2015 54.2614 90.2145 54.0454 90.2145 53.8402C90.2116 52.2318 89.6743 50.67 88.687 49.4003C87.6997 48.1306 86.3183 47.2252 84.7602 46.8262C83.2021 46.4273 81.5556 46.5576 80.0796 47.1965C78.6036 47.8355 77.3819 48.947 76.6065 50.3561L76.5935 51.6478Z" fill="#407BFF"/>
<path d="M78.5375 52.8358L75.7295 51.2158C75.1444 52.2837 74.8384 53.4821 74.8396 54.6998C74.8396 54.9158 74.8396 55.1318 74.872 55.3478C74.8526 55.5638 74.8396 55.7798 74.8396 55.9958C74.8397 57.2612 75.1708 58.5046 75.8 59.6024C76.4293 60.7003 77.3348 61.6144 78.4266 62.254C79.5185 62.8936 80.7587 63.2364 82.024 63.2484C83.2893 63.2605 84.5358 62.9412 85.6396 62.3225V61.0265L84.0218 58.2185C83.4583 58.5259 82.8293 58.6936 82.1876 58.7076C81.5458 58.7216 80.9101 58.5815 80.3337 58.299C79.7574 58.0166 79.2572 57.6 78.8751 57.0842C78.493 56.5684 78.2402 55.9685 78.1379 55.3349C78.2076 54.9135 78.3439 54.5059 78.5418 54.1274L78.5375 52.8358Z" fill="#407BFF"/>
<path opacity="0.3" d="M76.5935 51.6478L79.4015 53.2678C79.7915 52.5207 80.407 51.9156 81.1606 51.5383C81.9142 51.1611 82.7674 51.0309 83.5992 51.1662C84.431 51.3016 85.199 51.6956 85.794 52.2924C86.3891 52.8891 86.781 53.6582 86.914 54.4903C86.8156 55.0907 86.5821 55.6609 86.2312 56.1578C85.8802 56.6547 85.4209 57.0654 84.8879 57.3588V58.6548L86.5057 61.4628C87.6305 60.8331 88.567 59.9149 89.2189 58.8029C89.8708 57.6909 90.2144 56.4252 90.2145 55.1362C90.2145 54.9202 90.2037 54.6934 90.1842 54.4774C90.2015 54.2614 90.2145 54.0454 90.2145 53.8402C90.2116 52.2318 89.6743 50.67 88.687 49.4003C87.6997 48.1306 86.3183 47.2252 84.7602 46.8262C83.2021 46.4273 81.5556 46.5576 80.0796 47.1965C78.6036 47.8355 77.3819 48.947 76.6065 50.3561L76.5935 51.6478Z" fill="white"/>
<path opacity="0.3" d="M78.5375 52.8358L75.7295 51.2158C75.1444 52.2837 74.8384 53.4821 74.8396 54.6998C74.8396 54.9158 74.8396 55.1318 74.872 55.3478C74.8526 55.5638 74.8396 55.7798 74.8396 55.9958C74.8397 57.2612 75.1708 58.5046 75.8 59.6024C76.4293 60.7003 77.3348 61.6144 78.4266 62.254C79.5185 62.8936 80.7587 63.2364 82.024 63.2484C83.2893 63.2605 84.5358 62.9412 85.6396 62.3225V61.0265L84.0218 58.2185C83.4583 58.5259 82.8293 58.6936 82.1876 58.7076C81.5458 58.7216 80.9101 58.5815 80.3337 58.299C79.7574 58.0166 79.2572 57.6 78.8751 57.0842C78.493 56.5684 78.2402 55.9685 78.1379 55.3349C78.2076 54.9135 78.3439 54.5059 78.5418 54.1274L78.5375 52.8358Z" fill="white"/>
<path d="M82.9569 49.8204C83.8486 49.8209 84.7147 50.1182 85.4188 50.6654C86.1228 51.2126 86.6247 51.9786 86.8453 52.8426C87.0659 53.7065 86.9926 54.6194 86.637 55.4371C86.2814 56.2548 85.6638 56.9309 84.8814 57.3588L86.4993 60.1668C87.4798 59.618 88.3194 58.8489 88.9519 57.9201C89.5844 56.9913 89.9924 55.9283 90.1438 54.8148C90.2952 53.7014 90.1858 52.568 89.8244 51.5041C89.4629 50.4401 88.8591 49.4747 88.0607 48.684C87.2623 47.8933 86.2912 47.2989 85.2238 46.9476C84.1564 46.5964 83.022 46.498 81.9101 46.6601C80.7982 46.8223 79.7391 47.2405 78.8165 47.8819C77.8938 48.5233 77.1328 49.3703 76.5935 50.3561L79.4015 51.9761C79.7408 51.3264 80.2515 50.782 80.8783 50.4019C81.505 50.0219 82.2239 49.8208 82.9569 49.8204Z" fill="#407BFF"/>
<path opacity="0.6" d="M82.0929 61.951C83.3335 61.9523 84.5535 61.6339 85.6353 61.0265L84.0174 58.2185C83.2613 58.6324 82.392 58.7919 81.5382 58.6734C80.6844 58.5548 79.8914 58.1645 79.2767 57.5602C78.662 56.9559 78.2582 56.1698 78.1251 55.3181C77.9919 54.4664 78.1365 53.5945 78.5375 52.8315L75.7295 51.2115C75.125 52.3161 74.8185 53.559 74.8402 54.818C74.8618 56.077 75.2108 57.3087 75.8529 58.3919C76.495 59.4751 77.408 60.3724 78.5021 60.9957C79.5962 61.619 80.8337 61.9467 82.0929 61.9467V61.951Z" fill="white"/>
<path d="M73.3514 55.8576H66.744C66.3797 55.857 66.0304 55.7126 65.772 55.4558L63.9187 53.6004C63.8884 53.57 63.8713 53.5289 63.8713 53.4859C63.8713 53.443 63.8884 53.4018 63.9187 53.3714C63.9491 53.3411 63.9903 53.3241 64.0332 53.3241C64.0761 53.3241 64.1173 53.3411 64.1477 53.3714L66.001 55.2269C66.1984 55.4233 66.4655 55.5335 66.744 55.5336H73.3558C73.3987 55.5336 73.4399 55.5507 73.4703 55.5811C73.5007 55.6114 73.5178 55.6526 73.5178 55.6956C73.5181 55.7173 73.5139 55.7389 73.5056 55.759C73.4973 55.7791 73.485 55.7972 73.4695 55.8124C73.4539 55.8276 73.4354 55.8394 73.4151 55.8472C73.3948 55.8549 73.3731 55.8585 73.3514 55.8576Z" fill="#263238"/>
<path d="M31.7519 35.964C33.2941 35.4089 33.0133 32.8277 32.564 30.8902C32.3307 29.8901 33.6159 29.1622 32.7174 27.702C31.8771 26.2937 26.9415 24.9221 26.8141 27.4687C25.0861 27.9677 25.0343 29.525 25.2049 32.0047C25.2049 32.0112 22.7857 39.191 31.7519 35.964Z" fill="#2E353A"/>
<path d="M36.6941 42.7269L37.7287 39.4632L37.7914 38.8152C37.7956 38.7748 37.8043 38.7349 37.8173 38.6964L38.1953 37.517C38.2377 37.3871 38.3247 37.2763 38.4409 37.2044C38.5572 37.1324 38.6951 37.1039 38.8303 37.1239C38.9356 37.1404 39.0342 37.1857 39.1154 37.2547C39.1966 37.3236 39.2571 37.4137 39.2904 37.5149L39.5388 38.2709C39.5685 38.3587 39.5762 38.4526 39.5611 38.5441C39.5461 38.6356 39.5087 38.722 39.4524 38.7957L38.6403 39.8757L37.9102 43.3577L36.6941 42.7269Z" fill="#B97964"/>
<path d="M33.6657 35.7199C33.6657 35.7199 34.4994 36.7718 35.0437 39.0226C35.5881 41.2733 35.9315 42.9408 36.303 42.9775C36.6745 43.0142 36.5665 42.1135 36.5665 42.1135L37.9468 42.7615C37.9468 42.7615 37.4737 45.2282 36.1691 45.2282C34.2813 45.2282 33.8601 43.0013 33.6657 41.999C33.3654 40.4568 32.7217 37.2449 33.6657 35.7199Z" fill="#407BFF"/>
<path opacity="0.2" d="M33.6657 41.9969C33.7867 42.6276 34.0005 43.7443 34.6118 44.4831C34.6485 39.0463 33.8363 36.9727 33.4151 36.2643C32.8557 37.9145 33.3979 40.621 33.6657 41.9969Z" fill="black"/>
<path d="M33.8925 53.568L40.5583 87.2424L38.962 87.6744C38.962 87.6744 34.8818 77.868 33.48 71.9669C33.3093 71.2519 33.1797 70.5931 33.102 70.0229C32.9965 69.2279 32.7646 68.455 32.4151 67.7333C32.2358 67.3639 32.0241 66.9103 31.7995 66.3876C31.0723 64.6852 30.4857 62.9261 30.0456 61.128C30.0456 61.128 27.635 57.4992 28 54.0151L33.8925 53.568Z" fill="#B97964"/>
<path d="M30.4386 57.9269L30.3997 88.2598H28.5724C28.5724 88.2598 26.2482 76.0925 26.4944 71.105V70.9603C26.5616 69.848 26.4232 68.7328 26.0862 67.6706C25.9782 67.3315 25.8702 66.947 25.7579 66.5215C25.2769 64.614 25.0217 62.6566 24.9976 60.6895V56.9095L30.4386 57.9269Z" fill="#B97964"/>
<path d="M30.3133 87.6485L28.4082 87.6874C28.3679 87.6885 28.3291 87.7031 28.2981 87.729C28.2672 87.7549 28.2458 87.7904 28.2376 87.8299L27.8747 89.627C27.8657 89.67 27.8664 89.7144 27.8767 89.757C27.8871 89.7997 27.9069 89.8394 27.9347 89.8734C27.9624 89.9074 27.9975 89.9347 28.0372 89.9534C28.0769 89.972 28.1203 89.9816 28.1641 89.9813C28.9547 89.9532 29.661 89.897 30.646 89.8798C31.8124 89.8603 31.51 90.005 32.8881 89.9986C33.7132 89.9986 33.8471 89.0546 33.4972 89.0136C31.8923 88.8408 31.4214 88.3656 30.7929 87.7997C30.6572 87.6918 30.4864 87.638 30.3133 87.6485Z" fill="#263238"/>
<path d="M40.6382 86.819L38.7698 87.1862C38.7305 87.1941 38.695 87.215 38.6691 87.2456C38.6432 87.2762 38.6285 87.3147 38.6273 87.3547L38.5776 89.1886C38.5762 89.2272 38.5823 89.2656 38.5958 89.3018C38.6092 89.338 38.6297 89.3712 38.6559 89.3995C38.6822 89.4278 38.7138 89.4506 38.7489 89.4667C38.784 89.4827 38.822 89.4917 38.8606 89.4931H38.9232C39.6986 89.3268 40.3834 89.1497 41.3532 88.9639C42.4958 88.7479 42.2323 88.9358 43.5802 88.6939C44.3945 88.547 44.3621 87.5966 44.0122 87.6139C42.403 87.7219 41.8522 87.3288 41.1394 86.8838C40.9861 86.801 40.8075 86.7779 40.6382 86.819Z" fill="#263238"/>
<path opacity="0.1" d="M30.4278 65.8454V62.6659L25.1963 63.504C25.3206 64.5074 25.5067 65.5022 25.7536 66.4826C27.3296 66.4335 28.8962 66.2199 30.4278 65.8454Z" fill="black"/>
<path opacity="0.1" d="M35.7478 62.9424L30.769 63.6401C31.0239 64.409 31.2853 65.1132 31.538 65.7396C33.1034 65.7136 34.6613 65.5173 36.1842 65.1542L35.7478 62.9424Z" fill="black"/>
<path d="M25.0774 54.216C25.0774 54.216 24.0622 57.942 25.0774 66.0204L36.8343 64.6186L34.2682 52.488L31.5121 50.6498L27.9999 52.056L25.0774 54.216Z" fill="#263238"/>
<path opacity="0.5" d="M31.3025 57.1277C31.3025 57.1277 30.0994 59.8277 30.4731 65.3854L31.3673 65.2795C30.9927 62.5765 30.9709 59.8363 31.3025 57.1277Z" fill="black"/>
<path d="M31.4884 52.5917L32.2962 55.2118C33.1343 55.0757 34.0458 54.918 35.0438 54.7322C35.0438 54.7322 33.3741 48.4186 33.8817 44.5003C34.3893 40.5821 33.6657 35.7199 33.6657 35.7199C33.6657 35.7199 29.5293 35.2123 23.8679 36.5191C23.8679 36.5191 26.6262 43.848 26.1899 47.9844C25.7536 52.1208 24.2308 55.9764 24.2308 55.9764C24.2308 55.9764 25.9329 56.1665 30.8944 55.4386L31.4884 52.5917Z" fill="#407BFF"/>
<path d="M33.8493 47.7489C33.8212 47.3861 33.8039 47.0232 33.7931 46.6689C31.2011 47.4617 27.352 47.5329 26.2331 47.5502C26.2331 47.6993 26.2137 47.844 26.1986 47.9822C26.1834 48.1205 26.164 48.2868 26.1467 48.4401C30.052 48.5633 32.5619 48.0967 33.8493 47.7489Z" fill="#263238"/>
<path d="M32.0651 47.6561C32.091 48.0384 31.7195 48.3732 31.2378 48.4034C30.7562 48.4337 30.3436 48.1529 30.3177 47.7706C30.2918 47.3882 30.6633 47.0534 31.1471 47.0232C31.631 46.993 32.0414 47.2738 32.0651 47.6561Z" fill="#263238"/>
<path opacity="0.6" d="M32.0651 47.6561C32.091 48.0384 31.7195 48.3732 31.2378 48.4034C30.7562 48.4337 30.3436 48.1529 30.3177 47.7706C30.2918 47.3882 30.6633 47.0534 31.1471 47.0232C31.631 46.993 32.0414 47.2738 32.0651 47.6561Z" fill="white"/>
<path d="M28.3435 47.2586L28.4407 48.6864H28.8036L28.7064 47.1377L28.3435 47.2586Z" fill="#407BFF"/>
<path d="M32.9636 46.7273L33.0111 48.2134H33.374L33.3265 46.6063L32.9636 46.7273Z" fill="#407BFF"/>
<path d="M28.5724 35.4067C28.5724 35.4067 26.0927 34.8019 26.3606 37.5106C26.3606 37.5106 26.6738 36.5429 27.9568 37.1477L27.6652 37.921C28.5803 37.9501 29.4762 38.1903 30.2831 38.623C30.2831 38.623 31.2702 37.9447 31.3631 37.219L30.8058 36.761C30.8058 36.761 30.8058 36.0591 31.8858 36.6639C31.8988 36.6639 31.173 34.3894 28.5724 35.4067Z" fill="#407BFF"/>
<path opacity="0.6" d="M28.5724 35.4067C28.5724 35.4067 26.0927 34.8019 26.3606 37.5106C26.3606 37.5106 26.6738 36.5429 27.9568 37.1477L27.6652 37.921C28.5803 37.9501 29.4762 38.1903 30.2831 38.623C30.2831 38.623 31.2702 37.9447 31.3631 37.219L30.8058 36.761C30.8058 36.761 30.8058 36.0591 31.8858 36.6639C31.8988 36.6639 31.173 34.3894 28.5724 35.4067Z" fill="white"/>
<path opacity="0.2" d="M24.449 38.2061C24.7622 39.1673 25.151 40.4568 25.4858 41.8413C25.4383 38.9145 24.8918 37.7503 24.8918 37.7503L24.449 38.2061Z" fill="black"/>
<path d="M29.9938 38.1866C31.0414 38.1067 30.6655 36.4889 30.3955 35.6443C29.5121 35.6767 28.4796 35.7502 27.3262 35.8992C27.7301 36.5774 28.8533 38.2752 29.9938 38.1866Z" fill="#B97964"/>
<path d="M23.8679 36.5191C23.8679 36.5191 22.7555 37.2449 22.0773 41.0897C21.399 44.9345 22.2371 47.1377 24.3042 46.6063C24.5354 46.5458 25.2222 46.3385 25.2222 46.3385V44.4053C25.2222 44.4053 24.5462 44.6709 24.1574 44.2109C23.8053 43.7918 24.071 42.3122 24.9328 39.7764C25.2093 38.9664 25.1747 37.2189 23.8679 36.5191Z" fill="#407BFF"/>
<path d="M32.6678 40.3013L28.661 39.6425C28.661 39.6425 27.797 42.1438 28.0475 46.2067L31.9831 45.7445C31.9831 45.7445 31.8016 43.8199 32.6678 40.3013Z" fill="#263238"/>
<path opacity="0.7" d="M32.6678 40.3013L28.661 39.6425C28.661 39.6425 27.797 42.1438 28.0475 46.2067L31.9831 45.7445C31.9831 45.7445 31.8016 43.8199 32.6678 40.3013Z" fill="white"/>
<path d="M28.3954 45.9108C28.3954 45.9108 28.0044 41.3273 29.8901 39.474L33.966 40.217C33.966 40.217 31.806 43.241 32.5016 46.0814L28.3954 45.9108Z" fill="#263238"/>
<path opacity="0.8" d="M28.3954 45.9108C28.3954 45.9108 28.0044 41.3273 29.8901 39.474L33.966 40.217C33.966 40.217 31.806 43.241 32.5016 46.0814L28.3954 45.9108Z" fill="white"/>
<path d="M29.0391 44.9301L29.0288 45.0983L31.6375 45.2578L31.6478 45.0897L29.0391 44.9301Z" fill="#263238"/>
<path d="M29.0657 44.008L29.052 44.176L31.6613 44.3882L31.675 44.2203L29.0657 44.008Z" fill="#263238"/>
<path d="M28.9082 43.1907L28.8914 43.3575L31.5558 43.6266L31.5726 43.4598L28.9082 43.1907Z" fill="#263238"/>
<path d="M29.2903 42.1515L29.27 42.3187L32.0511 42.6567L32.0714 42.4895L29.2903 42.1515Z" fill="#263238"/>
<path d="M29.8953 40.3426L29.8684 40.5089L32.8045 40.9844L32.8314 40.8181L29.8953 40.3426Z" fill="#263238"/>
<path d="M29.5288 41.2399L29.5051 41.4067L32.388 41.8155L32.4116 41.6487L29.5288 41.2399Z" fill="#263238"/>
<path d="M25.0042 44.712L27.5681 44.0834L28.16 43.1762C28.2225 43.0786 28.3198 43.0084 28.4321 42.9797L29.2356 42.7637C29.3009 42.7463 29.3691 42.7435 29.4356 42.7554C29.502 42.7673 29.565 42.7938 29.6201 42.8328C29.6991 42.8878 29.7592 42.9659 29.7921 43.0564C29.8249 43.1469 29.829 43.2453 29.8037 43.3382L29.5078 44.3988C29.4877 44.4717 29.4503 44.5386 29.3988 44.5939C29.3473 44.6492 29.2832 44.6912 29.2119 44.7163L27.7625 45.2153L24.7385 46.3406L25.0042 44.712Z" fill="#B97964"/>
<path d="M24.5203 44.2346V45.2995H25.0041L24.5203 45.6862V46.8958L25.4879 46.4854V44.2346H24.5203Z" fill="#407BFF"/>
<path opacity="0.6" d="M24.5203 44.2346V45.2995H25.0041L24.5203 45.6862V46.8958L25.4879 46.4854V44.2346H24.5203Z" fill="white"/>
<path d="M35.9446 42.6687L36.8863 43.1676L37.1131 42.7399L37.2276 43.3491L38.2968 43.915L38.3875 42.8674L36.3982 41.8133L35.9446 42.6687Z" fill="#407BFF"/>
<path opacity="0.6" d="M35.9446 42.6687L36.8863 43.1676L37.1131 42.7399L37.2276 43.3491L38.2968 43.915L38.3875 42.8674L36.3982 41.8133L35.9446 42.6687Z" fill="white"/>
<path d="M27.4578 35.9294L27.6306 36.0828L29.8662 37.7503L30.3522 37.6617L30.3781 35.7653C29.6934 35.4024 29.473 34.5276 29.6178 33.8213L27.6738 32.3093C27.9006 33.3201 28.041 35.1129 27.4578 35.9294Z" fill="#B97964"/>
<path opacity="0.1" d="M29.6244 34.7004C29.5652 34.4154 29.5652 34.1214 29.6244 33.8364L27.6804 32.3244C27.7384 32.5768 27.7831 32.832 27.8143 33.089C27.9774 33.4752 28.2244 33.8203 28.5375 34.099C28.8506 34.3777 29.2219 34.5832 29.6244 34.7004Z" fill="black"/>
<path d="M27.1554 30.1299C27.2958 31.9075 27.3174 32.6635 28.2354 33.5621C29.6134 34.9099 31.7691 34.3527 32.1622 32.5663C32.5165 30.9593 32.227 28.3284 30.471 27.6394C30.0842 27.4882 29.6652 27.4384 29.2537 27.4947C28.8422 27.5509 28.452 27.7115 28.12 27.961C27.7881 28.2105 27.5254 28.5407 27.3569 28.9203C27.1885 29.2999 27.1198 29.7163 27.1575 30.1299H27.1554Z" fill="#B97964"/>
<path d="M28.3823 27.4687C30.6956 28.2269 26.3864 31.5727 26.4383 33.5275C25.5073 31.2314 25.8443 26.6371 28.3823 27.4687Z" fill="#2E353A"/>
<path d="M27.6653 30.3718C27.6653 30.3718 28.4666 32.0544 28.039 33.5275C27.4968 35.4046 28.6459 36.4608 28.6459 36.4608C28.2099 36.3962 27.8078 36.188 27.5034 35.8691C27.199 35.5503 27.0097 35.139 26.9654 34.7004C26.7862 33.1193 26.4622 31.117 26.4622 31.117L27.6653 30.3718Z" fill="#2E353A"/>
<path d="M30.8555 30.901C31.0041 31.2655 31.2033 31.6072 31.4473 31.9162C31.3665 31.9769 31.2733 32.019 31.1744 32.0395C31.0754 32.06 30.9732 32.0585 30.8749 32.035L30.8555 30.901Z" fill="#A24E3F"/>
<path d="M30.3867 32.8665C30.4773 32.8673 30.5677 32.8594 30.6567 32.8428C30.669 32.8407 30.6799 32.8338 30.6872 32.8237C30.6945 32.8136 30.6975 32.8011 30.6956 32.7888C30.6935 32.7765 30.6866 32.7656 30.6765 32.7583C30.6664 32.751 30.6539 32.748 30.6416 32.7499C30.4454 32.7884 30.243 32.7804 30.0505 32.7263C29.858 32.6723 29.681 32.5738 29.5335 32.4389C29.5249 32.4294 29.5129 32.4238 29.5002 32.4232C29.4874 32.4225 29.4749 32.427 29.4655 32.4356C29.456 32.4442 29.4504 32.4562 29.4498 32.469C29.4492 32.4817 29.4536 32.4942 29.4622 32.5037C29.7118 32.7398 30.0432 32.8699 30.3867 32.8665Z" fill="#2E353A"/>
<path d="M27.4319 27.4666C26.717 28.7755 28.7819 28.0303 30.443 28.5725C31.9831 29.0714 32.7628 30.0715 32.603 28.62C32.3999 26.8315 28.5638 25.4059 27.4319 27.4666Z" fill="#2E353A"/>
<path d="M29.0088 30.1968C29.0215 30.1946 29.0336 30.1898 29.0444 30.1827C29.0551 30.1757 29.0643 30.1665 29.0715 30.1558C29.1347 30.0557 29.2206 29.972 29.3224 29.9116C29.4241 29.8511 29.5387 29.8156 29.6568 29.808C29.6821 29.8037 29.7047 29.7899 29.72 29.7694C29.7353 29.7489 29.742 29.7232 29.7389 29.6978C29.7354 29.6775 29.7256 29.6589 29.7109 29.6445C29.6961 29.6301 29.6772 29.6208 29.6568 29.6179C29.5074 29.6249 29.3618 29.6678 29.2325 29.743C29.1031 29.8182 28.9938 29.9235 28.9138 30.0499C28.9004 30.0707 28.8957 30.0958 28.9005 30.12C28.9054 30.1441 28.9194 30.1655 28.9397 30.1795C28.9494 30.187 28.9606 30.1924 28.9725 30.1954C28.9843 30.1984 28.9967 30.1989 29.0088 30.1968Z" fill="#2E353A"/>
<path d="M31.8902 29.8836C31.9023 29.8829 31.9142 29.8797 31.925 29.8741C31.9358 29.8685 31.9453 29.8607 31.9528 29.8512C31.9608 29.8415 31.9668 29.8304 31.9704 29.8185C31.9741 29.8065 31.9753 29.794 31.9741 29.7815C31.9729 29.7691 31.9693 29.757 31.9634 29.746C31.9575 29.735 31.9495 29.7252 31.9399 29.7173C31.8254 29.6203 31.6896 29.5518 31.5436 29.5172C31.3976 29.4827 31.2454 29.4832 31.0996 29.5185C31.0762 29.5274 31.0569 29.5447 31.0456 29.5672C31.0344 29.5896 31.0321 29.6154 31.0392 29.6395C31.0428 29.6511 31.0488 29.6619 31.0566 29.6713C31.0645 29.6806 31.0741 29.6883 31.085 29.6939C31.0958 29.6995 31.1076 29.703 31.1198 29.704C31.1319 29.705 31.1442 29.7037 31.1558 29.7C31.2719 29.6724 31.3929 29.6731 31.5087 29.7021C31.6245 29.731 31.7316 29.7873 31.8211 29.8663C31.8306 29.8742 31.8417 29.8798 31.8537 29.8828C31.8656 29.8858 31.8781 29.8861 31.8902 29.8836Z" fill="#2E353A"/>
<path d="M29.6134 30.875C29.6242 31.0154 29.7085 31.1234 29.8014 31.1169C29.8942 31.1105 29.959 30.9917 29.9461 30.8491C29.9331 30.7065 29.851 30.6007 29.7603 30.6072C29.6696 30.6137 29.6026 30.7346 29.6134 30.875Z" fill="#2E353A"/>
<path d="M31.2055 30.7519C31.2163 30.8923 31.3005 31.0003 31.3912 30.9938C31.4819 30.9874 31.5489 30.8686 31.5381 30.726C31.5273 30.5834 31.4452 30.4776 31.3545 30.4841C31.2638 30.4906 31.1947 30.6115 31.2055 30.7519Z" fill="#2E353A"/>
<path d="M31.3198 30.4949L31.6503 30.3718C31.6503 30.3718 31.4905 30.6504 31.3198 30.4949Z" fill="#2E353A"/>
<path d="M29.7214 30.618L30.0519 30.4949C30.0519 30.4949 29.8986 30.7714 29.7214 30.618Z" fill="#2E353A"/>
</svg>
