<svg width="126" height="84" viewBox="0 0 126 84" fill="none" xmlns="http://www.w3.org/2000/svg">
<path d="M116.312 25.331C113.42 18.984 109.052 13.4618 102.599 10.3706C93.9776 6.2412 83.7565 6.13872 74.8122 9.30552C69.7084 11.1098 65.1841 14.1439 60.7876 17.2368C56.8782 19.992 52.4161 24.192 47.5861 25.0706C41.0442 26.2735 25.5882 16.5295 13.9962 19.2175C2.4042 21.9055 -0.955799 37.0255 1.9002 46.4335C4.7562 55.8415 15.8442 55.8415 19.8762 63.5695C23.9082 71.2975 38.3562 77.8495 56.1642 73.4815C73.9722 69.1135 83.2122 66.5935 92.6202 70.1215C102.028 73.6495 114.964 74.6575 119.332 59.8735C121.091 53.938 121.579 47.6983 120.764 41.5615C120.039 36.1956 118.665 30.4937 116.312 25.331Z" fill="#0D92F4"/>
<path opacity="0.7" d="M116.312 25.331C113.42 18.984 109.052 13.4618 102.599 10.3706C93.9776 6.2412 83.7565 6.13872 74.8122 9.30552C69.7084 11.1098 65.1841 14.1439 60.7876 17.2368C56.8782 19.992 52.4161 24.192 47.5861 25.0706C41.0442 26.2735 25.5882 16.5295 13.9962 19.2175C2.4042 21.9055 -0.955799 37.0255 1.9002 46.4335C4.7562 55.8415 15.8442 55.8415 19.8762 63.5695C23.9082 71.2975 38.3562 77.8495 56.1642 73.4815C73.9722 69.1135 83.2122 66.5935 92.6202 70.1215C102.028 73.6495 114.964 74.6575 119.332 59.8735C121.091 53.938 121.579 47.6983 120.764 41.5615C120.039 36.1956 118.665 30.4937 116.312 25.331Z" fill="white"/>
<path d="M121.587 29.0926V25.5646H117.289V4.58976H114.667V25.5646H110.262V20.197C110.93 20.0467 111.518 19.6521 111.911 19.0907C112.304 18.5293 112.473 17.8415 112.384 17.1621C112.296 16.4827 111.958 15.8606 111.435 15.4179C110.912 14.9752 110.243 14.7437 109.558 14.7688C108.873 14.7939 108.223 15.0738 107.734 15.5536C107.245 16.0335 106.953 16.6786 106.915 17.3626C106.876 18.0467 107.095 18.7203 107.528 19.2514C107.961 19.7826 108.576 20.133 109.254 20.2339V25.5646H59.3192V24.3298H56.695V25.5646H26.3357V24.3298H23.7116V25.5646H18.7287V17.3645H20.3381V15.8038H22.087V13.0553H20.3381V11.4929H18.7287V7.77672H19.8392V5.15256H18.7287V3.47256H15.2007V5.15256H14.0919V7.77672H15.2007V27.3286C15.2007 27.5602 15.2463 27.7896 15.335 28.0036C15.4236 28.2176 15.5535 28.4121 15.7173 28.5759C15.8812 28.7397 16.0756 28.8696 16.2896 28.9583C16.5036 29.0469 16.733 29.0926 16.9647 29.0926H23.7116V38.6837H15.8408V37.4489H13.2166V38.6837H8.23204V30.4836H9.8398V28.9212H11.592V26.1727H9.84316V24.612H8.23204V20.8942H9.34084V18.2717H8.23204V3.59016H4.70404V18.2717H3.59692V20.8942H4.70404V40.4477C4.70404 40.9155 4.88989 41.3642 5.22071 41.695C5.55152 42.0258 6.0002 42.2117 6.46804 42.2117H13.2166V76.5626H15.8408V42.2117H23.7116V76.6198H26.3357V42.2117H46.2V76.6231H48.8242V42.2117H56.695V76.5257H59.3192V42.2117H114.667V43.1962H117.289V42.2117H121.296V38.6837H117.298V29.0926H121.587ZM48.8242 38.6837V37.4489H46.2V38.6837H26.3357V29.0926H56.695V38.6837H48.8242ZM114.667 38.6837H59.3192V29.0926H114.667V38.6837Z" fill="#263238"/>
<path d="M109.726 17.5862L110.396 18.7925" stroke="white" stroke-miterlimit="10"/>
<path d="M110.198 19.4803C111.239 19.22 111.873 18.1647 111.612 17.1233C111.352 16.0818 110.297 15.4485 109.255 15.7087C108.214 15.969 107.581 17.0242 107.841 18.0657C108.101 19.1072 109.156 19.7405 110.198 19.4803Z" stroke="white" stroke-miterlimit="10"/>
<path d="M73.9368 3.96312H62.6741V76.5694H73.9368V3.96312Z" fill="white" stroke="#263238" stroke-linecap="round" stroke-linejoin="round"/>
<path d="M72.45 15.9869V27.3857" stroke="#263238" stroke-linecap="round" stroke-linejoin="round"/>
<path d="M72.3306 9.69528V8.86368" stroke="#263238" stroke-linecap="round" stroke-linejoin="round"/>
<path d="M73.8192 14.6916C74.401 14.6916 74.8726 14.22 74.8726 13.6382C74.8726 13.0565 74.401 12.5849 73.8192 12.5849C73.2375 12.5849 72.7659 13.0565 72.7659 13.6382C72.7659 14.22 73.2375 14.6916 73.8192 14.6916Z" fill="white" stroke="#263238" stroke-linecap="round" stroke-linejoin="round"/>
<path d="M71.0621 14.6916C71.6439 14.6916 72.1155 14.22 72.1155 13.6382C72.1155 13.0565 71.6439 12.5849 71.0621 12.5849C70.4804 12.5849 70.0088 13.0565 70.0088 13.6382C70.0088 14.22 70.4804 14.6916 71.0621 14.6916Z" fill="white" stroke="#263238" stroke-linecap="round" stroke-linejoin="round"/>
<path d="M68.307 14.6916C68.8888 14.6916 69.3604 14.22 69.3604 13.6382C69.3604 13.0565 68.8888 12.5849 68.307 12.5849C67.7253 12.5849 67.2537 13.0565 67.2537 13.6382C67.2537 14.22 67.7253 14.6916 68.307 14.6916Z" fill="white" stroke="#263238" stroke-linecap="round" stroke-linejoin="round"/>
<path d="M65.5519 14.6916C66.1336 14.6916 66.6053 14.22 66.6053 13.6382C66.6053 13.0565 66.1336 12.5849 65.5519 12.5849C64.9701 12.5849 64.4985 13.0565 64.4985 13.6382C64.4985 14.22 64.9701 14.6916 65.5519 14.6916Z" fill="white" stroke="#263238" stroke-linecap="round" stroke-linejoin="round"/>
<path d="M62.7951 14.6916C63.3768 14.6916 63.8484 14.22 63.8484 13.6382C63.8484 13.0565 63.3768 12.5849 62.7951 12.5849C62.2133 12.5849 61.7417 13.0565 61.7417 13.6382C61.7417 14.22 62.2133 14.6916 62.7951 14.6916Z" fill="white" stroke="#263238" stroke-linecap="round" stroke-linejoin="round"/>
<path d="M73.8192 12.5866C73.6108 12.5869 73.407 12.5254 73.2335 12.4099C73.0601 12.2943 72.9248 12.1299 72.8448 11.9375C72.7648 11.745 72.7437 11.5332 72.7842 11.3287C72.8247 11.1243 72.9248 10.9364 73.0721 10.789C73.2193 10.6415 73.407 10.541 73.6114 10.5002C73.8158 10.4594 74.0277 10.4802 74.2202 10.5599C74.4128 10.6395 74.5774 10.7745 74.6932 10.9478C74.8091 11.1211 74.8709 11.3248 74.8709 11.5332C74.8709 11.8123 74.7601 12.0799 74.563 12.2774C74.3658 12.4749 74.0983 12.5861 73.8192 12.5866Z" fill="white" stroke="#263238" stroke-linecap="round" stroke-linejoin="round"/>
<path d="M71.0639 12.5866C70.8555 12.5866 70.6519 12.5248 70.4786 12.409C70.3054 12.2933 70.1704 12.1288 70.0907 11.9363C70.011 11.7438 69.9901 11.532 70.0307 11.3277C70.0714 11.1234 70.1717 10.9357 70.319 10.7884C70.4663 10.641 70.654 10.5407 70.8584 10.5001C71.0627 10.4594 71.2745 10.4803 71.467 10.56C71.6594 10.6397 71.824 10.7748 71.9397 10.948C72.0554 11.1212 72.1172 11.3249 72.1172 11.5332C72.1172 11.8126 72.0062 12.0805 71.8087 12.278C71.6112 12.4756 71.3432 12.5866 71.0639 12.5866Z" fill="white" stroke="#263238" stroke-linecap="round" stroke-linejoin="round"/>
<path d="M68.307 12.5866C68.0987 12.5866 67.895 12.5248 67.7218 12.409C67.5486 12.2933 67.4136 12.1288 67.3338 11.9363C67.2541 11.7438 67.2333 11.532 67.2739 11.3277C67.3145 11.1234 67.4149 10.9357 67.5622 10.7884C67.7095 10.641 67.8972 10.5407 68.1015 10.5001C68.3059 10.4594 68.5176 10.4803 68.7101 10.56C68.9026 10.6397 69.0671 10.7748 69.1829 10.948C69.2986 11.1212 69.3604 11.3249 69.3604 11.5332C69.3604 11.8126 69.2494 12.0805 69.0519 12.278C68.8543 12.4756 68.5864 12.5866 68.307 12.5866Z" fill="white" stroke="#263238" stroke-linecap="round" stroke-linejoin="round"/>
<path d="M65.5519 12.5866C65.3435 12.5869 65.1396 12.5254 64.9662 12.4099C64.7927 12.2943 64.6575 12.1299 64.5775 11.9375C64.4975 11.745 64.4764 11.5332 64.5169 11.3287C64.5573 11.1243 64.6575 10.9364 64.8048 10.789C64.952 10.6415 65.1397 10.541 65.3441 10.5002C65.5484 10.4594 65.7603 10.4802 65.9529 10.5599C66.1455 10.6395 66.3101 10.7745 66.4259 10.9478C66.5417 11.1211 66.6035 11.3248 66.6035 11.5332C66.6035 11.8123 66.4928 12.0799 66.2956 12.2774C66.0984 12.4749 65.8309 12.5861 65.5519 12.5866Z" fill="white" stroke="#263238" stroke-linecap="round" stroke-linejoin="round"/>
<path d="M62.7951 12.5866C62.5867 12.5866 62.3831 12.5248 62.2098 12.409C62.0366 12.2933 61.9016 12.1288 61.8219 11.9363C61.7422 11.7438 61.7213 11.532 61.7619 11.3277C61.8026 11.1234 61.9029 10.9357 62.0502 10.7884C62.1975 10.641 62.3852 10.5407 62.5896 10.5001C62.7939 10.4594 63.0057 10.4803 63.1982 10.56C63.3906 10.6397 63.5552 10.7748 63.6709 10.948C63.7866 11.1212 63.8484 11.3249 63.8484 11.5332C63.8484 11.8126 63.7374 12.0805 63.5399 12.278C63.3424 12.4756 63.0744 12.5866 62.7951 12.5866Z" fill="white" stroke="#263238" stroke-linecap="round" stroke-linejoin="round"/>
<path d="M75.3293 13.8953V11.2342H61.3618V13.8953H75.3293Z" fill="white" stroke="#263238" stroke-linecap="round" stroke-linejoin="round"/>
<path d="M75.2807 12.5177H61.4106" stroke="#263238" stroke-linecap="round" stroke-linejoin="round"/>
<path d="M73.8192 38.0554C73.6108 38.0557 73.407 37.9942 73.2335 37.8787C73.0601 37.7631 72.9248 37.5987 72.8448 37.4063C72.7648 37.2138 72.7437 37.002 72.7842 36.7975C72.8247 36.5931 72.9248 36.4052 73.0721 36.2578C73.2193 36.1103 73.407 36.0098 73.6114 35.969C73.8158 35.9282 74.0277 35.949 74.2202 36.0287C74.4128 36.1083 74.5774 36.2434 74.6932 36.4166C74.8091 36.5899 74.8709 36.7936 74.8709 37.002C74.8709 37.2811 74.7601 37.5488 74.563 37.7462C74.3658 37.9437 74.0983 38.0549 73.8192 38.0554Z" fill="white" stroke="#263238" stroke-linecap="round" stroke-linejoin="round"/>
<path d="M71.0639 38.0554C70.8555 38.0554 70.6519 37.9936 70.4786 37.8778C70.3054 37.7621 70.1704 37.5976 70.0907 37.4051C70.011 37.2126 69.9901 37.0008 70.0307 36.7965C70.0714 36.5922 70.1717 36.4045 70.319 36.2572C70.4663 36.1098 70.654 36.0095 70.8584 35.9689C71.0627 35.9282 71.2745 35.9491 71.467 36.0288C71.6594 36.1086 71.824 36.2436 71.9397 36.4168C72.0554 36.59 72.1172 36.7937 72.1172 37.002C72.1172 37.2814 72.0062 37.5493 71.8087 37.7468C71.6112 37.9444 71.3432 38.0554 71.0639 38.0554Z" fill="white" stroke="#263238" stroke-linecap="round" stroke-linejoin="round"/>
<path d="M68.307 38.0554C68.0987 38.0554 67.895 37.9936 67.7218 37.8778C67.5486 37.7621 67.4136 37.5976 67.3338 37.4051C67.2541 37.2126 67.2333 37.0008 67.2739 36.7965C67.3145 36.5922 67.4149 36.4045 67.5622 36.2572C67.7095 36.1098 67.8972 36.0095 68.1015 35.9689C68.3059 35.9282 68.5176 35.9491 68.7101 36.0288C68.9026 36.1086 69.0671 36.2436 69.1829 36.4168C69.2986 36.59 69.3604 36.7937 69.3604 37.002C69.3604 37.2814 69.2494 37.5493 69.0519 37.7468C68.8543 37.9444 68.5864 38.0554 68.307 38.0554Z" fill="white" stroke="#263238" stroke-linecap="round" stroke-linejoin="round"/>
<path d="M65.5519 38.0554C65.3435 38.0557 65.1396 37.9942 64.9662 37.8787C64.7927 37.7631 64.6575 37.5987 64.5775 37.4063C64.4975 37.2138 64.4764 37.002 64.5169 36.7975C64.5573 36.5931 64.6575 36.4052 64.8048 36.2578C64.952 36.1103 65.1397 36.0098 65.3441 35.969C65.5484 35.9282 65.7603 35.949 65.9529 36.0287C66.1455 36.1083 66.3101 36.2434 66.4259 36.4166C66.5417 36.5899 66.6035 36.7936 66.6035 37.002C66.6035 37.2811 66.4928 37.5488 66.2956 37.7462C66.0984 37.9437 65.8309 38.0549 65.5519 38.0554Z" fill="white" stroke="#263238" stroke-linecap="round" stroke-linejoin="round"/>
<path d="M62.7951 38.0554C62.5867 38.0554 62.3831 37.9936 62.2098 37.8778C62.0366 37.7621 61.9016 37.5976 61.8219 37.4051C61.7422 37.2126 61.7213 37.0008 61.7619 36.7965C61.8026 36.5922 61.9029 36.4045 62.0502 36.2572C62.1975 36.1098 62.3852 36.0095 62.5896 35.9689C62.7939 35.9282 63.0057 35.9491 63.1982 36.0288C63.3906 36.1086 63.5552 36.2436 63.6709 36.4168C63.7866 36.59 63.8484 36.7937 63.8484 37.002C63.8484 37.2814 63.7374 37.5493 63.5399 37.7468C63.3424 37.9444 63.0744 38.0554 62.7951 38.0554Z" fill="white" stroke="#263238" stroke-linecap="round" stroke-linejoin="round"/>
<path d="M73.8192 35.9503C74.401 35.9503 74.8726 35.4787 74.8726 34.897C74.8726 34.3152 74.401 33.8436 73.8192 33.8436C73.2375 33.8436 72.7659 34.3152 72.7659 34.897C72.7659 35.4787 73.2375 35.9503 73.8192 35.9503Z" fill="white" stroke="#263238" stroke-linecap="round" stroke-linejoin="round"/>
<path d="M71.0621 35.9503C71.6439 35.9503 72.1155 35.4787 72.1155 34.897C72.1155 34.3152 71.6439 33.8436 71.0621 33.8436C70.4804 33.8436 70.0088 34.3152 70.0088 34.897C70.0088 35.4787 70.4804 35.9503 71.0621 35.9503Z" fill="white" stroke="#263238" stroke-linecap="round" stroke-linejoin="round"/>
<path d="M68.307 35.9503C68.8888 35.9503 69.3604 35.4787 69.3604 34.897C69.3604 34.3152 68.8888 33.8436 68.307 33.8436C67.7253 33.8436 67.2537 34.3152 67.2537 34.897C67.2537 35.4787 67.7253 35.9503 68.307 35.9503Z" fill="white" stroke="#263238" stroke-linecap="round" stroke-linejoin="round"/>
<path d="M65.5519 35.9503C66.1336 35.9503 66.6053 35.4787 66.6053 34.897C66.6053 34.3152 66.1336 33.8436 65.5519 33.8436C64.9701 33.8436 64.4985 34.3152 64.4985 34.897C64.4985 35.4787 64.9701 35.9503 65.5519 35.9503Z" fill="white" stroke="#263238" stroke-linecap="round" stroke-linejoin="round"/>
<path d="M62.7951 35.9503C63.3768 35.9503 63.8484 35.4787 63.8484 34.897C63.8484 34.3152 63.3768 33.8436 62.7951 33.8436C62.2133 33.8436 61.7417 34.3152 61.7417 34.897C61.7417 35.4787 62.2133 35.9503 62.7951 35.9503Z" fill="white" stroke="#263238" stroke-linecap="round" stroke-linejoin="round"/>
<path d="M75.3311 37.259V34.5979H61.3635V37.259H75.3311Z" fill="white" stroke="#263238" stroke-linecap="round" stroke-linejoin="round"/>
<path d="M75.2807 35.8814H61.4106" stroke="#263238" stroke-linecap="round" stroke-linejoin="round"/>
<path d="M73.8192 69.6646C74.401 69.6646 74.8726 69.193 74.8726 68.6112C74.8726 68.0294 74.401 67.5578 73.8192 67.5578C73.2375 67.5578 72.7659 68.0294 72.7659 68.6112C72.7659 69.193 73.2375 69.6646 73.8192 69.6646Z" fill="white" stroke="#263238" stroke-linecap="round" stroke-linejoin="round"/>
<path d="M71.0621 69.6646C71.6439 69.6646 72.1155 69.193 72.1155 68.6112C72.1155 68.0294 71.6439 67.5578 71.0621 67.5578C70.4804 67.5578 70.0088 68.0294 70.0088 68.6112C70.0088 69.193 70.4804 69.6646 71.0621 69.6646Z" fill="white" stroke="#263238" stroke-linecap="round" stroke-linejoin="round"/>
<path d="M68.307 69.6646C68.8888 69.6646 69.3604 69.193 69.3604 68.6112C69.3604 68.0294 68.8888 67.5578 68.307 67.5578C67.7253 67.5578 67.2537 68.0294 67.2537 68.6112C67.2537 69.193 67.7253 69.6646 68.307 69.6646Z" fill="white" stroke="#263238" stroke-linecap="round" stroke-linejoin="round"/>
<path d="M65.5519 69.6646C66.1336 69.6646 66.6053 69.193 66.6053 68.6112C66.6053 68.0294 66.1336 67.5578 65.5519 67.5578C64.9701 67.5578 64.4985 68.0294 64.4985 68.6112C64.4985 69.193 64.9701 69.6646 65.5519 69.6646Z" fill="white" stroke="#263238" stroke-linecap="round" stroke-linejoin="round"/>
<path d="M62.7951 69.6646C63.3768 69.6646 63.8484 69.193 63.8484 68.6112C63.8484 68.0294 63.3768 67.5578 62.7951 67.5578C62.2133 67.5578 61.7417 68.0294 61.7417 68.6112C61.7417 69.193 62.2133 69.6646 62.7951 69.6646Z" fill="white" stroke="#263238" stroke-linecap="round" stroke-linejoin="round"/>
<path d="M73.8192 67.5578C73.6107 67.5582 73.4068 67.4966 73.2334 67.381C73.0599 67.2654 72.9246 67.1009 72.8447 66.9084C72.7647 66.7158 72.7437 66.5039 72.7843 66.2994C72.8249 66.0949 72.9253 65.9071 73.0727 65.7596C73.2201 65.6122 73.4079 65.5119 73.6124 65.4713C73.8169 65.4307 74.0289 65.4517 74.2214 65.5316C74.4139 65.6116 74.5784 65.7468 74.6941 65.9203C74.8097 66.0938 74.8712 66.2977 74.8709 66.5062C74.8704 66.7849 74.7595 67.0522 74.5624 67.2493C74.3652 67.4465 74.098 67.5574 73.8192 67.5578Z" fill="white" stroke="#263238" stroke-linecap="round" stroke-linejoin="round"/>
<path d="M71.0639 67.5578C70.8554 67.5578 70.6517 67.496 70.4785 67.3802C70.3052 67.2644 70.1702 67.0998 70.0905 66.9072C70.0108 66.7146 69.9901 66.5027 70.0309 66.2984C70.0716 66.094 70.1721 65.9063 70.3196 65.759C70.4671 65.6118 70.6549 65.5116 70.8594 65.4712C71.0638 65.4307 71.2757 65.4518 71.4681 65.5318C71.6606 65.6118 71.825 65.747 71.9405 65.9205C72.0561 66.0939 72.1175 66.2978 72.1172 66.5062C72.1172 66.6444 72.09 66.7813 72.037 66.909C71.984 67.0367 71.9064 67.1527 71.8086 67.2504C71.7108 67.3481 71.5946 67.4255 71.4668 67.4783C71.339 67.531 71.2021 67.5581 71.0639 67.5578Z" fill="white" stroke="#263238" stroke-linecap="round" stroke-linejoin="round"/>
<path d="M68.307 67.5578C68.0986 67.5578 67.8949 67.496 67.7216 67.3802C67.5484 67.2644 67.4134 67.0998 67.3337 66.9072C67.254 66.7146 67.2332 66.5027 67.274 66.2984C67.3148 66.094 67.4153 65.9063 67.5628 65.759C67.7103 65.6118 67.8981 65.5116 68.1026 65.4712C68.307 65.4307 68.5188 65.4518 68.7113 65.5318C68.9037 65.6118 69.0681 65.747 69.1837 65.9205C69.2992 66.0939 69.3607 66.2978 69.3604 66.5062C69.3599 66.7852 69.2488 67.0527 69.0513 67.2499C68.8538 67.4471 68.5861 67.5578 68.307 67.5578Z" fill="white" stroke="#263238" stroke-linecap="round" stroke-linejoin="round"/>
<path d="M65.5519 67.5578C65.3434 67.5582 65.1395 67.4966 64.966 67.381C64.7925 67.2654 64.6573 67.1009 64.5773 66.9084C64.4974 66.7158 64.4764 66.5039 64.517 66.2994C64.5576 66.0949 64.6579 65.9071 64.8054 65.7596C64.9528 65.6122 65.1406 65.5119 65.3451 65.4713C65.5496 65.4307 65.7615 65.4517 65.9541 65.5316C66.1466 65.6116 66.3111 65.7468 66.4267 65.9203C66.5423 66.0938 66.6039 66.2977 66.6035 66.5062C66.6031 66.7849 66.4922 67.0522 66.295 67.2493C66.0979 67.4465 65.8307 67.5574 65.5519 67.5578Z" fill="white" stroke="#263238" stroke-linecap="round" stroke-linejoin="round"/>
<path d="M62.7951 67.5578C62.5867 67.5578 62.3829 67.496 62.2097 67.3802C62.0364 67.2644 61.9014 67.0998 61.8217 66.9072C61.742 66.7146 61.7213 66.5027 61.7621 66.2984C61.8028 66.094 61.9033 65.9063 62.0508 65.759C62.1983 65.6118 62.3861 65.5116 62.5906 65.4712C62.795 65.4307 63.0069 65.4518 63.1993 65.5318C63.3918 65.6118 63.5562 65.747 63.6717 65.9205C63.7873 66.0939 63.8487 66.2978 63.8484 66.5062C63.8484 66.6444 63.8212 66.7813 63.7682 66.909C63.7152 67.0367 63.6376 67.1527 63.5398 67.2504C63.442 67.3481 63.3258 67.4255 63.198 67.4783C63.0702 67.531 62.9333 67.5581 62.7951 67.5578Z" fill="white" stroke="#263238" stroke-linecap="round" stroke-linejoin="round"/>
<path d="M75.3311 68.8682V66.2071H61.3635V68.8682H75.3311Z" fill="white" stroke="#263238" stroke-linecap="round" stroke-linejoin="round"/>
<path d="M75.2807 67.4906H61.4106" stroke="#263238" stroke-linecap="round" stroke-linejoin="round"/>
<path d="M53.9093 3.86568H51.0029V76.5089H53.9093V3.86568Z" fill="white" stroke="#263238" stroke-linecap="round" stroke-linejoin="round"/>
<path d="M50.8081 28.854C50.9798 28.854 51.1189 28.7149 51.1189 28.5432C51.1189 28.3716 50.9798 28.2324 50.8081 28.2324C50.6365 28.2324 50.4973 28.3716 50.4973 28.5432C50.4973 28.7149 50.6365 28.854 50.8081 28.854Z" fill="white" stroke="#263238" stroke-linecap="round" stroke-linejoin="round"/>
<path d="M51.6248 28.854C51.7964 28.854 51.9356 28.7149 51.9356 28.5432C51.9356 28.3716 51.7964 28.2324 51.6248 28.2324C51.4531 28.2324 51.314 28.3716 51.314 28.5432C51.314 28.7149 51.4531 28.854 51.6248 28.854Z" fill="white" stroke="#263238" stroke-linecap="round" stroke-linejoin="round"/>
<path d="M52.4395 28.854C52.6111 28.854 52.7503 28.7149 52.7503 28.5432C52.7503 28.3716 52.6111 28.2324 52.4395 28.2324C52.2678 28.2324 52.1287 28.3716 52.1287 28.5432C52.1287 28.7149 52.2678 28.854 52.4395 28.854Z" fill="white" stroke="#263238" stroke-linecap="round" stroke-linejoin="round"/>
<path d="M53.2542 28.854C53.4258 28.854 53.565 28.7149 53.565 28.5432C53.565 28.3716 53.4258 28.2324 53.2542 28.2324C53.0825 28.2324 52.9434 28.3716 52.9434 28.5432C52.9434 28.7149 53.0825 28.854 53.2542 28.854Z" fill="white" stroke="#263238" stroke-linecap="round" stroke-linejoin="round"/>
<path d="M54.0691 28.854C54.2408 28.854 54.3799 28.7149 54.3799 28.5432C54.3799 28.3716 54.2408 28.2324 54.0691 28.2324C53.8975 28.2324 53.7583 28.3716 53.7583 28.5432C53.7583 28.7149 53.8975 28.854 54.0691 28.854Z" fill="white" stroke="#263238" stroke-linecap="round" stroke-linejoin="round"/>
<path d="M50.8081 29.4756C50.9798 29.4756 51.1189 29.3365 51.1189 29.1648C51.1189 28.9932 50.9798 28.854 50.8081 28.854C50.6365 28.854 50.4973 28.9932 50.4973 29.1648C50.4973 29.3365 50.6365 29.4756 50.8081 29.4756Z" fill="white" stroke="#263238" stroke-linecap="round" stroke-linejoin="round"/>
<path d="M51.6248 29.4756C51.7964 29.4756 51.9356 29.3365 51.9356 29.1648C51.9356 28.9932 51.7964 28.854 51.6248 28.854C51.4531 28.854 51.314 28.9932 51.314 29.1648C51.314 29.3365 51.4531 29.4756 51.6248 29.4756Z" fill="white" stroke="#263238" stroke-linecap="round" stroke-linejoin="round"/>
<path d="M52.4395 29.4756C52.6111 29.4756 52.7503 29.3365 52.7503 29.1648C52.7503 28.9932 52.6111 28.854 52.4395 28.854C52.2678 28.854 52.1287 28.9932 52.1287 29.1648C52.1287 29.3365 52.2678 29.4756 52.4395 29.4756Z" fill="white" stroke="#263238" stroke-linecap="round" stroke-linejoin="round"/>
<path d="M53.2542 29.4756C53.4258 29.4756 53.565 29.3365 53.565 29.1648C53.565 28.9932 53.4258 28.854 53.2542 28.854C53.0825 28.854 52.9434 28.9932 52.9434 29.1648C52.9434 29.3365 53.0825 29.4756 53.2542 29.4756Z" fill="white" stroke="#263238" stroke-linecap="round" stroke-linejoin="round"/>
<path d="M54.0691 29.4756C54.2408 29.4756 54.3799 29.3365 54.3799 29.1648C54.3799 28.9932 54.2408 28.854 54.0691 28.854C53.8975 28.854 53.7583 28.9932 53.7583 29.1648C53.7583 29.3365 53.8975 29.4756 54.0691 29.4756Z" fill="white" stroke="#263238" stroke-linecap="round" stroke-linejoin="round"/>
<path d="M50.363 28.4676V29.2538H54.4925V28.4676H50.363Z" fill="white" stroke="#263238" stroke-linecap="round" stroke-linejoin="round"/>
<path d="M50.3765 28.8742H54.4773" stroke="#263238" stroke-linecap="round" stroke-linejoin="round"/>
<path d="M50.8081 11.839C50.9798 11.839 51.1189 11.6998 51.1189 11.5282C51.1189 11.3565 50.9798 11.2174 50.8081 11.2174C50.6365 11.2174 50.4973 11.3565 50.4973 11.5282C50.4973 11.6998 50.6365 11.839 50.8081 11.839Z" fill="white" stroke="#263238" stroke-linecap="round" stroke-linejoin="round"/>
<path d="M51.6248 11.839C51.7964 11.839 51.9356 11.6998 51.9356 11.5282C51.9356 11.3565 51.7964 11.2174 51.6248 11.2174C51.4531 11.2174 51.314 11.3565 51.314 11.5282C51.314 11.6998 51.4531 11.839 51.6248 11.839Z" fill="white" stroke="#263238" stroke-linecap="round" stroke-linejoin="round"/>
<path d="M52.4395 11.839C52.6111 11.839 52.7503 11.6998 52.7503 11.5282C52.7503 11.3565 52.6111 11.2174 52.4395 11.2174C52.2678 11.2174 52.1287 11.3565 52.1287 11.5282C52.1287 11.6998 52.2678 11.839 52.4395 11.839Z" fill="white" stroke="#263238" stroke-linecap="round" stroke-linejoin="round"/>
<path d="M53.2542 11.839C53.4258 11.839 53.565 11.6998 53.565 11.5282C53.565 11.3565 53.4258 11.2174 53.2542 11.2174C53.0825 11.2174 52.9434 11.3565 52.9434 11.5282C52.9434 11.6998 53.0825 11.839 53.2542 11.839Z" fill="white" stroke="#263238" stroke-linecap="round" stroke-linejoin="round"/>
<path d="M54.0691 11.839C54.2408 11.839 54.3799 11.6998 54.3799 11.5282C54.3799 11.3565 54.2408 11.2174 54.0691 11.2174C53.8975 11.2174 53.7583 11.3565 53.7583 11.5282C53.7583 11.6998 53.8975 11.839 54.0691 11.839Z" fill="white" stroke="#263238" stroke-linecap="round" stroke-linejoin="round"/>
<path d="M50.8081 12.4606C50.9798 12.4606 51.1189 12.3214 51.1189 12.1498C51.1189 11.9781 50.9798 11.839 50.8081 11.839C50.6365 11.839 50.4973 11.9781 50.4973 12.1498C50.4973 12.3214 50.6365 12.4606 50.8081 12.4606Z" fill="white" stroke="#263238" stroke-linecap="round" stroke-linejoin="round"/>
<path d="M51.6248 12.4606C51.7964 12.4606 51.9356 12.3214 51.9356 12.1498C51.9356 11.9781 51.7964 11.839 51.6248 11.839C51.4531 11.839 51.314 11.9781 51.314 12.1498C51.314 12.3214 51.4531 12.4606 51.6248 12.4606Z" fill="white" stroke="#263238" stroke-linecap="round" stroke-linejoin="round"/>
<path d="M52.4395 12.4606C52.6111 12.4606 52.7503 12.3214 52.7503 12.1498C52.7503 11.9781 52.6111 11.839 52.4395 11.839C52.2678 11.839 52.1287 11.9781 52.1287 12.1498C52.1287 12.3214 52.2678 12.4606 52.4395 12.4606Z" fill="white" stroke="#263238" stroke-linecap="round" stroke-linejoin="round"/>
<path d="M53.2542 12.4606C53.4258 12.4606 53.565 12.3214 53.565 12.1498C53.565 11.9781 53.4258 11.839 53.2542 11.839C53.0825 11.839 52.9434 11.9781 52.9434 12.1498C52.9434 12.3214 53.0825 12.4606 53.2542 12.4606Z" fill="white" stroke="#263238" stroke-linecap="round" stroke-linejoin="round"/>
<path d="M54.0691 12.4606C54.2408 12.4606 54.3799 12.3214 54.3799 12.1498C54.3799 11.9781 54.2408 11.839 54.0691 11.839C53.8975 11.839 53.7583 11.9781 53.7583 12.1498C53.7583 12.3214 53.8975 12.4606 54.0691 12.4606Z" fill="white" stroke="#263238" stroke-linecap="round" stroke-linejoin="round"/>
<path d="M50.363 11.4526V12.2388H54.4925V11.4526H50.363Z" fill="white" stroke="#263238" stroke-linecap="round" stroke-linejoin="round"/>
<path d="M50.3765 11.8591H54.4773" stroke="#263238" stroke-linecap="round" stroke-linejoin="round"/>
<path d="M50.8081 35.7101C50.9798 35.7101 51.1189 35.5709 51.1189 35.3993C51.1189 35.2276 50.9798 35.0885 50.8081 35.0885C50.6365 35.0885 50.4973 35.2276 50.4973 35.3993C50.4973 35.5709 50.6365 35.7101 50.8081 35.7101Z" fill="white" stroke="#263238" stroke-linecap="round" stroke-linejoin="round"/>
<path d="M51.6248 35.7101C51.7964 35.7101 51.9356 35.5709 51.9356 35.3993C51.9356 35.2276 51.7964 35.0885 51.6248 35.0885C51.4531 35.0885 51.314 35.2276 51.314 35.3993C51.314 35.5709 51.4531 35.7101 51.6248 35.7101Z" fill="white" stroke="#263238" stroke-linecap="round" stroke-linejoin="round"/>
<path d="M52.4395 35.7101C52.6111 35.7101 52.7503 35.5709 52.7503 35.3993C52.7503 35.2276 52.6111 35.0885 52.4395 35.0885C52.2678 35.0885 52.1287 35.2276 52.1287 35.3993C52.1287 35.5709 52.2678 35.7101 52.4395 35.7101Z" fill="white" stroke="#263238" stroke-linecap="round" stroke-linejoin="round"/>
<path d="M53.2542 35.7101C53.4258 35.7101 53.565 35.5709 53.565 35.3993C53.565 35.2276 53.4258 35.0885 53.2542 35.0885C53.0825 35.0885 52.9434 35.2276 52.9434 35.3993C52.9434 35.5709 53.0825 35.7101 53.2542 35.7101Z" fill="white" stroke="#263238" stroke-linecap="round" stroke-linejoin="round"/>
<path d="M54.0691 35.7101C54.2408 35.7101 54.3799 35.5709 54.3799 35.3993C54.3799 35.2276 54.2408 35.0885 54.0691 35.0885C53.8975 35.0885 53.7583 35.2276 53.7583 35.3993C53.7583 35.5709 53.8975 35.7101 54.0691 35.7101Z" fill="white" stroke="#263238" stroke-linecap="round" stroke-linejoin="round"/>
<path d="M50.8081 36.3334C50.9798 36.3334 51.1189 36.1942 51.1189 36.0226C51.1189 35.8509 50.9798 35.7118 50.8081 35.7118C50.6365 35.7118 50.4973 35.8509 50.4973 36.0226C50.4973 36.1942 50.6365 36.3334 50.8081 36.3334Z" fill="white" stroke="#263238" stroke-linecap="round" stroke-linejoin="round"/>
<path d="M51.6248 36.3334C51.7964 36.3334 51.9356 36.1942 51.9356 36.0226C51.9356 35.8509 51.7964 35.7118 51.6248 35.7118C51.4531 35.7118 51.314 35.8509 51.314 36.0226C51.314 36.1942 51.4531 36.3334 51.6248 36.3334Z" fill="white" stroke="#263238" stroke-linecap="round" stroke-linejoin="round"/>
<path d="M52.4395 36.3334C52.6111 36.3334 52.7503 36.1942 52.7503 36.0226C52.7503 35.8509 52.6111 35.7118 52.4395 35.7118C52.2678 35.7118 52.1287 35.8509 52.1287 36.0226C52.1287 36.1942 52.2678 36.3334 52.4395 36.3334Z" fill="white" stroke="#263238" stroke-linecap="round" stroke-linejoin="round"/>
<path d="M53.2542 36.3334C53.4258 36.3334 53.565 36.1942 53.565 36.0226C53.565 35.8509 53.4258 35.7118 53.2542 35.7118C53.0825 35.7118 52.9434 35.8509 52.9434 36.0226C52.9434 36.1942 53.0825 36.3334 53.2542 36.3334Z" fill="white" stroke="#263238" stroke-linecap="round" stroke-linejoin="round"/>
<path d="M54.0691 36.3334C54.2408 36.3334 54.3799 36.1942 54.3799 36.0226C54.3799 35.8509 54.2408 35.7118 54.0691 35.7118C53.8975 35.7118 53.7583 35.8509 53.7583 36.0226C53.7583 36.1942 53.8975 36.3334 54.0691 36.3334Z" fill="white" stroke="#263238" stroke-linecap="round" stroke-linejoin="round"/>
<path d="M50.3613 35.3254V36.1116H54.4908V35.3254H50.3613Z" fill="white" stroke="#263238" stroke-linecap="round" stroke-linejoin="round"/>
<path d="M50.3765 35.7319H54.4773" stroke="#263238" stroke-linecap="round" stroke-linejoin="round"/>
<path d="M51.5021 25.3949C53.2417 25.3949 54.6521 23.4069 54.6521 20.9546C54.6521 18.5024 53.2417 16.5144 51.5021 16.5144C49.7624 16.5144 48.3521 18.5024 48.3521 20.9546C48.3521 23.4069 49.7624 25.3949 51.5021 25.3949Z" fill="white" stroke="#263238" stroke-linecap="round" stroke-linejoin="round"/>
<path d="M50.5411 25.3949C52.2808 25.3949 53.6911 23.4069 53.6911 20.9546C53.6911 18.5024 52.2808 16.5144 50.5411 16.5144C48.8014 16.5144 47.3911 18.5024 47.3911 20.9546C47.3911 23.4069 48.8014 25.3949 50.5411 25.3949Z" fill="white" stroke="#263238" stroke-linecap="round" stroke-linejoin="round"/>
<path d="M50.1496 18.4918H48.4881V20.1281C48.3402 20.6926 48.3402 21.2856 48.4881 21.8501V23.4864H50.1496C51.1273 23.4864 51.9203 22.3692 51.9203 20.9899C51.9203 19.6106 51.1273 18.4918 50.1496 18.4918Z" fill="white" stroke="#263238" stroke-linecap="round" stroke-linejoin="round"/>
<path d="M48.488 23.4864C49.4659 23.4864 50.2587 22.3687 50.2587 20.9899C50.2587 19.6112 49.4659 18.4934 48.488 18.4934C47.5101 18.4934 46.7173 19.6112 46.7173 20.9899C46.7173 22.3687 47.5101 23.4864 48.488 23.4864Z" fill="white" stroke="#263238" stroke-linecap="round" stroke-linejoin="round"/>
<path d="M105.346 40.1705H101.489V45.7582H105.346V40.1705Z" fill="white" stroke="#263238" stroke-linecap="round" stroke-linejoin="round"/>
<path d="M107.209 38.0419H99.3601V42.9643H107.209V38.0419Z" fill="white" stroke="#263238" stroke-linecap="round" stroke-linejoin="round"/>
<path d="M103.35 39.7387C105.756 39.7387 107.706 37.7884 107.706 35.3825C107.706 32.9766 105.756 31.0262 103.35 31.0262C100.944 31.0262 98.9939 32.9766 98.9939 35.3825C98.9939 37.7884 100.944 39.7387 103.35 39.7387Z" fill="white" stroke="#263238" stroke-linecap="round" stroke-linejoin="round"/>
<path d="M103.35 42.0336C107.023 42.0336 110.001 39.0558 110.001 35.3825C110.001 31.7092 107.023 28.7314 103.35 28.7314C99.6768 28.7314 96.699 31.7092 96.699 35.3825C96.699 39.0558 99.6768 42.0336 103.35 42.0336Z" stroke="#263238" stroke-width="4" stroke-linecap="round" stroke-linejoin="round"/>
<path d="M104.435 35.3825C104.436 35.1678 104.372 34.9578 104.253 34.7791C104.134 34.6004 103.965 34.461 103.767 34.3786C103.568 34.2962 103.35 34.2745 103.139 34.3162C102.929 34.3579 102.735 34.4611 102.583 34.6128C102.431 34.7645 102.328 34.9579 102.286 35.1685C102.244 35.379 102.265 35.5973 102.347 35.7957C102.429 35.9941 102.569 36.1637 102.747 36.2831C102.926 36.4024 103.135 36.4661 103.35 36.4661C103.638 36.4661 103.914 36.352 104.117 36.1488C104.32 35.9456 104.435 35.67 104.435 35.3825Z" stroke="#263238" stroke-width="4" stroke-linecap="round" stroke-linejoin="round"/>
<path d="M103.35 28.7314V41.8992" stroke="#263238" stroke-width="4" stroke-linecap="round" stroke-linejoin="round"/>
<path d="M96.699 35.3825H110.001" stroke="#263238" stroke-width="4" stroke-linecap="round" stroke-linejoin="round"/>
<path d="M1.75049 44.7367H108.36C112.052 44.7416 115.591 46.2103 118.201 48.8208C120.812 51.4313 122.281 54.9705 122.285 58.6622V76.5694H111.029V58.6622C111.029 57.9544 110.748 57.2756 110.247 56.7751C109.747 56.2746 109.068 55.9932 108.36 55.9927H1.75049" fill="white"/>
<path d="M1.75049 44.7367H108.36C112.052 44.7416 115.591 46.2103 118.201 48.8208C120.812 51.4313 122.281 54.9705 122.285 58.6622V76.5694H111.029V58.6622C111.029 57.9544 110.748 57.2756 110.247 56.7751C109.747 56.2746 109.068 55.9932 108.36 55.9927H1.75049" stroke="#263238" stroke-linecap="round" stroke-linejoin="round"/>
<path d="M51.6819 54.8806H54.59" stroke="#263238" stroke-linecap="round" stroke-linejoin="round"/>
<path d="M40.4175 54.8806H50.936" stroke="#263238" stroke-linecap="round" stroke-linejoin="round"/>
<path d="M90.7905 54.8806H93.6986" stroke="#263238" stroke-linecap="round" stroke-linejoin="round"/>
<path d="M63.7661 54.8806H90.0447" stroke="#263238" stroke-linecap="round" stroke-linejoin="round"/>
<path d="M99.9768 45.2239C99.9772 45.4323 99.9157 45.6362 99.8001 45.8096C99.6846 45.983 99.5202 46.1183 99.3278 46.1983C99.1353 46.2783 98.9234 46.2994 98.719 46.2589C98.5146 46.2185 98.3267 46.1183 98.1792 45.971C98.0317 45.8238 97.9313 45.6361 97.8905 45.4317C97.8497 45.2273 97.8705 45.0155 97.9501 44.8229C98.0298 44.6303 98.1648 44.4657 98.3381 44.3499C98.5113 44.2341 98.7151 44.1722 98.9235 44.1722C99.2026 44.1722 99.4702 44.283 99.6677 44.4802C99.8652 44.6774 99.9764 44.9448 99.9768 45.2239Z" fill="white" stroke="#263238" stroke-linecap="round" stroke-linejoin="round"/>
<path d="M99.9768 47.9808C99.9768 48.1891 99.9151 48.3928 99.7993 48.566C99.6836 48.7392 99.5191 48.8743 99.3266 48.954C99.1341 49.0337 98.9223 49.0546 98.718 49.0139C98.5136 48.9733 98.326 48.873 98.1786 48.7256C98.0313 48.5783 97.931 48.3906 97.8904 48.1863C97.8497 47.982 97.8706 47.7702 97.9503 47.5777C98.03 47.3852 98.165 47.2207 98.3383 47.105C98.5115 46.9892 98.7151 46.9274 98.9235 46.9274C99.2028 46.9274 99.4708 47.0384 99.6683 47.236C99.8659 47.4335 99.9768 47.7014 99.9768 47.9808Z" fill="white" stroke="#263238" stroke-linecap="round" stroke-linejoin="round"/>
<path d="M99.9768 50.736C99.9772 50.9444 99.9157 51.1482 99.8001 51.3217C99.6846 51.4951 99.5202 51.6304 99.3278 51.7104C99.1353 51.7904 98.9234 51.8115 98.719 51.771C98.5146 51.7305 98.3267 51.6304 98.1792 51.4831C98.0317 51.3359 97.9313 51.1482 97.8905 50.9438C97.8497 50.7394 97.8705 50.5275 97.9501 50.335C98.0298 50.1424 98.1648 49.9778 98.3381 49.862C98.5113 49.7461 98.7151 49.6843 98.9235 49.6843C99.2026 49.6843 99.4702 49.7951 99.6677 49.9922C99.8652 50.1894 99.9764 50.4569 99.9768 50.736Z" fill="white" stroke="#263238" stroke-linecap="round" stroke-linejoin="round"/>
<path d="M99.9768 53.4929C99.9768 53.7012 99.9151 53.9049 99.7993 54.0781C99.6836 54.2513 99.5191 54.3863 99.3266 54.4661C99.1341 54.5458 98.9223 54.5666 98.718 54.526C98.5136 54.4854 98.326 54.385 98.1786 54.2377C98.0313 54.0904 97.931 53.9027 97.8904 53.6984C97.8497 53.494 97.8706 53.2823 97.9503 53.0898C98.03 52.8973 98.165 52.7328 98.3383 52.617C98.5115 52.5013 98.7151 52.4395 98.9235 52.4395C99.2028 52.4395 99.4708 52.5505 99.6683 52.748C99.8659 52.9456 99.9768 53.2135 99.9768 53.4929Z" fill="white" stroke="#263238" stroke-linecap="round" stroke-linejoin="round"/>
<path d="M99.9768 56.2481C99.9768 56.4564 99.9151 56.6601 99.7993 56.8333C99.6836 57.0065 99.5191 57.1415 99.3266 57.2213C99.1341 57.301 98.9223 57.3218 98.718 57.2812C98.5136 57.2406 98.326 57.1402 98.1786 56.9929C98.0313 56.8456 97.931 56.6579 97.8904 56.4536C97.8497 56.2492 97.8706 56.0375 97.9503 55.845C98.03 55.6525 98.165 55.488 98.3383 55.3722C98.5115 55.2565 98.7151 55.1947 98.9235 55.1947C99.2028 55.1947 99.4708 55.3057 99.6683 55.5032C99.8659 55.7008 99.9768 55.9687 99.9768 56.2481Z" fill="white" stroke="#263238" stroke-linecap="round" stroke-linejoin="round"/>
<path d="M96.8182 46.2773C97.4 46.2773 97.8716 45.8057 97.8716 45.2239C97.8716 44.6422 97.4 44.1706 96.8182 44.1706C96.2365 44.1706 95.7649 44.6422 95.7649 45.2239C95.7649 45.8057 96.2365 46.2773 96.8182 46.2773Z" fill="white" stroke="#263238" stroke-linecap="round" stroke-linejoin="round"/>
<path d="M96.8182 49.0342C97.4 49.0342 97.8716 48.5626 97.8716 47.9808C97.8716 47.399 97.4 46.9274 96.8182 46.9274C96.2365 46.9274 95.7649 47.399 95.7649 47.9808C95.7649 48.5626 96.2365 49.0342 96.8182 49.0342Z" fill="white" stroke="#263238" stroke-linecap="round" stroke-linejoin="round"/>
<path d="M96.8182 51.7894C97.4 51.7894 97.8716 51.3178 97.8716 50.736C97.8716 50.1542 97.4 49.6826 96.8182 49.6826C96.2365 49.6826 95.7649 50.1542 95.7649 50.736C95.7649 51.3178 96.2365 51.7894 96.8182 51.7894Z" fill="white" stroke="#263238" stroke-linecap="round" stroke-linejoin="round"/>
<path d="M96.8182 54.5462C97.4 54.5462 97.8716 54.0746 97.8716 53.4929C97.8716 52.9111 97.4 52.4395 96.8182 52.4395C96.2365 52.4395 95.7649 52.9111 95.7649 53.4929C95.7649 54.0746 96.2365 54.5462 96.8182 54.5462Z" fill="white" stroke="#263238" stroke-linecap="round" stroke-linejoin="round"/>
<path d="M96.8182 57.3014C97.4 57.3014 97.8716 56.8298 97.8716 56.2481C97.8716 55.6663 97.4 55.1947 96.8182 55.1947C96.2365 55.1947 95.7649 55.6663 95.7649 56.2481C95.7649 56.8298 96.2365 57.3014 96.8182 57.3014Z" fill="white" stroke="#263238" stroke-linecap="round" stroke-linejoin="round"/>
<path d="M99.1804 43.7136H96.5193V57.6811H99.1804V43.7136Z" fill="white" stroke="#263238" stroke-linecap="round" stroke-linejoin="round"/>
<path d="M97.8027 43.7623V57.6324" stroke="#263238" stroke-linecap="round" stroke-linejoin="round"/>
<path d="M109.168 46.2773C109.75 46.2773 110.221 45.8057 110.221 45.2239C110.221 44.6422 109.75 44.1706 109.168 44.1706C108.586 44.1706 108.115 44.6422 108.115 45.2239C108.115 45.8057 108.586 46.2773 109.168 46.2773Z" fill="white" stroke="#263238" stroke-linecap="round" stroke-linejoin="round"/>
<path d="M109.168 49.0342C109.75 49.0342 110.221 48.5626 110.221 47.9808C110.221 47.399 109.75 46.9274 109.168 46.9274C108.586 46.9274 108.115 47.399 108.115 47.9808C108.115 48.5626 108.586 49.0342 109.168 49.0342Z" fill="white" stroke="#263238" stroke-linecap="round" stroke-linejoin="round"/>
<path d="M109.168 51.7894C109.75 51.7894 110.221 51.3178 110.221 50.736C110.221 50.1542 109.75 49.6826 109.168 49.6826C108.586 49.6826 108.115 50.1542 108.115 50.736C108.115 51.3178 108.586 51.7894 109.168 51.7894Z" fill="white" stroke="#263238" stroke-linecap="round" stroke-linejoin="round"/>
<path d="M109.168 54.5462C109.75 54.5462 110.221 54.0746 110.221 53.4929C110.221 52.9111 109.75 52.4395 109.168 52.4395C108.586 52.4395 108.115 52.9111 108.115 53.4929C108.115 54.0746 108.586 54.5462 109.168 54.5462Z" fill="white" stroke="#263238" stroke-linecap="round" stroke-linejoin="round"/>
<path d="M109.168 57.3014C109.75 57.3014 110.221 56.8298 110.221 56.2481C110.221 55.6663 109.75 55.1947 109.168 55.1947C108.586 55.1947 108.115 55.6663 108.115 56.2481C108.115 56.8298 108.586 57.3014 109.168 57.3014Z" fill="white" stroke="#263238" stroke-linecap="round" stroke-linejoin="round"/>
<path d="M108.116 45.2239C108.117 45.4323 108.055 45.6362 107.94 45.8096C107.824 45.983 107.66 46.1183 107.467 46.1983C107.275 46.2783 107.063 46.2994 106.858 46.2589C106.654 46.2185 106.466 46.1183 106.319 45.971C106.171 45.8238 106.071 45.6361 106.03 45.4317C105.989 45.2273 106.01 45.0155 106.09 44.8229C106.169 44.6303 106.304 44.4657 106.477 44.3499C106.651 44.2341 106.854 44.1722 107.063 44.1722C107.342 44.1722 107.61 44.283 107.807 44.4802C108.005 44.6774 108.116 44.9448 108.116 45.2239Z" fill="white" stroke="#263238" stroke-linecap="round" stroke-linejoin="round"/>
<path d="M108.116 47.9808C108.116 48.1891 108.054 48.3928 107.939 48.566C107.823 48.7392 107.658 48.8743 107.466 48.954C107.274 49.0337 107.062 49.0546 106.857 49.0139C106.653 48.9733 106.465 48.873 106.318 48.7256C106.171 48.5783 106.07 48.3906 106.03 48.1863C105.989 47.982 106.01 47.7702 106.09 47.5777C106.169 47.3852 106.304 47.2207 106.478 47.105C106.651 46.9892 106.855 46.9274 107.063 46.9274C107.342 46.9274 107.61 47.0384 107.808 47.236C108.005 47.4335 108.116 47.7014 108.116 47.9808Z" fill="white" stroke="#263238" stroke-linecap="round" stroke-linejoin="round"/>
<path d="M108.116 50.736C108.117 50.9444 108.055 51.1482 107.94 51.3217C107.824 51.4951 107.66 51.6304 107.467 51.7104C107.275 51.7904 107.063 51.8115 106.858 51.771C106.654 51.7305 106.466 51.6304 106.319 51.4831C106.171 51.3359 106.071 51.1482 106.03 50.9438C105.989 50.7394 106.01 50.5275 106.09 50.335C106.169 50.1424 106.304 49.9778 106.477 49.862C106.651 49.7461 106.854 49.6843 107.063 49.6843C107.342 49.6843 107.61 49.7951 107.807 49.9922C108.005 50.1894 108.116 50.4569 108.116 50.736Z" fill="white" stroke="#263238" stroke-linecap="round" stroke-linejoin="round"/>
<path d="M108.116 53.4929C108.116 53.7012 108.054 53.9049 107.939 54.0781C107.823 54.2513 107.658 54.3863 107.466 54.4661C107.274 54.5458 107.062 54.5666 106.857 54.526C106.653 54.4854 106.465 54.385 106.318 54.2377C106.171 54.0904 106.07 53.9027 106.03 53.6984C105.989 53.494 106.01 53.2823 106.09 53.0898C106.169 52.8973 106.304 52.7328 106.478 52.617C106.651 52.5013 106.855 52.4395 107.063 52.4395C107.342 52.4395 107.61 52.5505 107.808 52.748C108.005 52.9456 108.116 53.2135 108.116 53.4929Z" fill="white" stroke="#263238" stroke-linecap="round" stroke-linejoin="round"/>
<path d="M108.116 56.2481C108.116 56.4564 108.054 56.6601 107.939 56.8333C107.823 57.0065 107.658 57.1415 107.466 57.2213C107.274 57.301 107.062 57.3218 106.857 57.2812C106.653 57.2406 106.465 57.1402 106.318 56.9929C106.171 56.8456 106.07 56.6579 106.03 56.4536C105.989 56.2492 106.01 56.0375 106.09 55.845C106.169 55.6525 106.304 55.488 106.478 55.3722C106.651 55.2565 106.855 55.1947 107.063 55.1947C107.342 55.1947 107.61 55.3057 107.808 55.5032C108.005 55.7008 108.116 55.9687 108.116 56.2481Z" fill="white" stroke="#263238" stroke-linecap="round" stroke-linejoin="round"/>
<path d="M109.425 43.7136H106.764V57.6811H109.425V43.7136Z" fill="white" stroke="#263238" stroke-linecap="round" stroke-linejoin="round"/>
<path d="M108.049 43.7623V57.6324" stroke="#263238" stroke-linecap="round" stroke-linejoin="round"/>
<path d="M60.3187 46.2773C60.9005 46.2773 61.3721 45.8057 61.3721 45.2239C61.3721 44.6422 60.9005 44.1706 60.3187 44.1706C59.737 44.1706 59.2654 44.6422 59.2654 45.2239C59.2654 45.8057 59.737 46.2773 60.3187 46.2773Z" fill="white" stroke="#263238" stroke-linecap="round" stroke-linejoin="round"/>
<path d="M60.3187 49.0342C60.9005 49.0342 61.3721 48.5626 61.3721 47.9808C61.3721 47.399 60.9005 46.9274 60.3187 46.9274C59.737 46.9274 59.2654 47.399 59.2654 47.9808C59.2654 48.5626 59.737 49.0342 60.3187 49.0342Z" fill="white" stroke="#263238" stroke-linecap="round" stroke-linejoin="round"/>
<path d="M60.3187 51.7894C60.9005 51.7894 61.3721 51.3178 61.3721 50.736C61.3721 50.1542 60.9005 49.6826 60.3187 49.6826C59.737 49.6826 59.2654 50.1542 59.2654 50.736C59.2654 51.3178 59.737 51.7894 60.3187 51.7894Z" fill="white" stroke="#263238" stroke-linecap="round" stroke-linejoin="round"/>
<path d="M60.3187 54.5462C60.9005 54.5462 61.3721 54.0746 61.3721 53.4929C61.3721 52.9111 60.9005 52.4395 60.3187 52.4395C59.737 52.4395 59.2654 52.9111 59.2654 53.4929C59.2654 54.0746 59.737 54.5462 60.3187 54.5462Z" fill="white" stroke="#263238" stroke-linecap="round" stroke-linejoin="round"/>
<path d="M60.3187 57.3014C60.9005 57.3014 61.3721 56.8298 61.3721 56.2481C61.3721 55.6663 60.9005 55.1947 60.3187 55.1947C59.737 55.1947 59.2654 55.6663 59.2654 56.2481C59.2654 56.8298 59.737 57.3014 60.3187 57.3014Z" fill="white" stroke="#263238" stroke-linecap="round" stroke-linejoin="round"/>
<path d="M59.2654 45.2239C59.2657 45.4324 59.2042 45.6363 59.0886 45.8098C58.973 45.9833 58.8085 46.1185 58.6159 46.1985C58.4234 46.2784 58.2114 46.2994 58.007 46.2588C57.8025 46.2182 57.6146 46.1179 57.4672 45.9704C57.3198 45.823 57.2194 45.6352 57.1789 45.4307C57.1383 45.2262 57.1593 45.0143 57.2392 44.8217C57.3191 44.6292 57.4544 44.4647 57.6279 44.3491C57.8014 44.2334 58.0053 44.1719 58.2137 44.1722C58.4925 44.1727 58.7598 44.2836 58.9569 44.4808C59.154 44.6779 59.265 44.9451 59.2654 45.2239Z" fill="white" stroke="#263238" stroke-linecap="round" stroke-linejoin="round"/>
<path d="M59.2654 47.9808C59.2654 48.1892 59.2036 48.3929 59.0878 48.5662C58.972 48.7395 58.8073 48.8745 58.6148 48.9541C58.4222 49.0338 58.2103 49.0546 58.0059 49.0138C57.8016 48.973 57.6139 48.8725 57.4666 48.725C57.3194 48.5776 57.2192 48.3897 57.1787 48.1853C57.1383 47.9808 57.1594 47.769 57.2394 47.5765C57.3193 47.3841 57.4546 47.2197 57.6281 47.1041C57.8015 46.9886 58.0053 46.9271 58.2137 46.9274C58.352 46.9274 58.4889 46.9547 58.6166 47.0077C58.7443 47.0606 58.8603 47.1382 58.958 47.2361C59.0557 47.3339 59.1331 47.45 59.1858 47.5778C59.2386 47.7056 59.2656 47.8426 59.2654 47.9808Z" fill="white" stroke="#263238" stroke-linecap="round" stroke-linejoin="round"/>
<path d="M59.2654 50.736C59.2657 50.9445 59.2042 51.1484 59.0886 51.3218C58.973 51.4953 58.8085 51.6306 58.6159 51.7105C58.4234 51.7905 58.2114 51.8115 58.007 51.7709C57.8025 51.7303 57.6146 51.6299 57.4672 51.4825C57.3198 51.3351 57.2194 51.1473 57.1789 50.9428C57.1383 50.7383 57.1593 50.5263 57.2392 50.3338C57.3191 50.1413 57.4544 49.9768 57.6279 49.8611C57.8014 49.7455 58.0053 49.684 58.2137 49.6843C58.4925 49.6848 58.7598 49.7957 58.9569 49.9928C59.154 50.19 59.265 50.4572 59.2654 50.736Z" fill="white" stroke="#263238" stroke-linecap="round" stroke-linejoin="round"/>
<path d="M59.2654 53.4929C59.2654 53.7013 59.2036 53.905 59.0878 54.0783C58.972 54.2515 58.8073 54.3865 58.6148 54.4662C58.4222 54.5459 58.2103 54.5667 58.0059 54.5259C57.8016 54.4851 57.6139 54.3846 57.4666 54.2371C57.3194 54.0896 57.2192 53.9018 57.1787 53.6973C57.1383 53.4929 57.1594 53.2811 57.2394 53.0886C57.3193 52.8962 57.4546 52.7318 57.6281 52.6162C57.8015 52.5007 58.0053 52.4392 58.2137 52.4395C58.352 52.4395 58.4889 52.4668 58.6166 52.5197C58.7443 52.5727 58.8603 52.6503 58.958 52.7481C59.0557 52.846 59.1331 52.9621 59.1858 53.0899C59.2386 53.2177 59.2656 53.3546 59.2654 53.4929Z" fill="white" stroke="#263238" stroke-linecap="round" stroke-linejoin="round"/>
<path d="M59.2654 56.2481C59.2654 56.4565 59.2036 56.6602 59.0878 56.8335C58.972 57.0067 58.8073 57.1417 58.6148 57.2214C58.4222 57.3011 58.2103 57.3219 58.0059 57.2811C57.8016 57.2403 57.6139 57.1398 57.4666 56.9923C57.3194 56.8448 57.2192 56.657 57.1787 56.4525C57.1383 56.2481 57.1594 56.0363 57.2394 55.8438C57.3193 55.6514 57.4546 55.487 57.6281 55.3714C57.8015 55.2559 58.0053 55.1944 58.2137 55.1947C58.4928 55.1952 58.7603 55.3063 58.9575 55.5038C59.1547 55.7013 59.2654 55.969 59.2654 56.2481Z" fill="white" stroke="#263238" stroke-linecap="round" stroke-linejoin="round"/>
<path d="M60.574 43.7136H57.9128V57.6811H60.574V43.7136Z" fill="white" stroke="#263238" stroke-linecap="round" stroke-linejoin="round"/>
<path d="M59.198 43.7623V57.6324" stroke="#263238" stroke-linecap="round" stroke-linejoin="round"/>
<path d="M23.1286 46.2773C23.7103 46.2773 24.1819 45.8057 24.1819 45.2239C24.1819 44.6422 23.7103 44.1706 23.1286 44.1706C22.5468 44.1706 22.0752 44.6422 22.0752 45.2239C22.0752 45.8057 22.5468 46.2773 23.1286 46.2773Z" fill="white" stroke="#263238" stroke-linecap="round" stroke-linejoin="round"/>
<path d="M23.1286 49.0342C23.7103 49.0342 24.1819 48.5626 24.1819 47.9808C24.1819 47.399 23.7103 46.9274 23.1286 46.9274C22.5468 46.9274 22.0752 47.399 22.0752 47.9808C22.0752 48.5626 22.5468 49.0342 23.1286 49.0342Z" fill="white" stroke="#263238" stroke-linecap="round" stroke-linejoin="round"/>
<path d="M23.1286 51.7894C23.7103 51.7894 24.1819 51.3178 24.1819 50.736C24.1819 50.1542 23.7103 49.6826 23.1286 49.6826C22.5468 49.6826 22.0752 50.1542 22.0752 50.736C22.0752 51.3178 22.5468 51.7894 23.1286 51.7894Z" fill="white" stroke="#263238" stroke-linecap="round" stroke-linejoin="round"/>
<path d="M23.1286 54.5462C23.7103 54.5462 24.1819 54.0746 24.1819 53.4929C24.1819 52.9111 23.7103 52.4395 23.1286 52.4395C22.5468 52.4395 22.0752 52.9111 22.0752 53.4929C22.0752 54.0746 22.5468 54.5462 23.1286 54.5462Z" fill="white" stroke="#263238" stroke-linecap="round" stroke-linejoin="round"/>
<path d="M23.1286 57.3014C23.7103 57.3014 24.1819 56.8298 24.1819 56.2481C24.1819 55.6663 23.7103 55.1947 23.1286 55.1947C22.5468 55.1947 22.0752 55.6663 22.0752 56.2481C22.0752 56.8298 22.5468 57.3014 23.1286 57.3014Z" fill="white" stroke="#263238" stroke-linecap="round" stroke-linejoin="round"/>
<path d="M21.0233 46.2773C21.6051 46.2773 22.0767 45.8057 22.0767 45.2239C22.0767 44.6422 21.6051 44.1706 21.0233 44.1706C20.4416 44.1706 19.97 44.6422 19.97 45.2239C19.97 45.8057 20.4416 46.2773 21.0233 46.2773Z" fill="white" stroke="#263238" stroke-linecap="round" stroke-linejoin="round"/>
<path d="M21.0233 49.0342C21.6051 49.0342 22.0767 48.5626 22.0767 47.9808C22.0767 47.399 21.6051 46.9274 21.0233 46.9274C20.4416 46.9274 19.97 47.399 19.97 47.9808C19.97 48.5626 20.4416 49.0342 21.0233 49.0342Z" fill="white" stroke="#263238" stroke-linecap="round" stroke-linejoin="round"/>
<path d="M21.0233 51.7894C21.6051 51.7894 22.0767 51.3178 22.0767 50.736C22.0767 50.1542 21.6051 49.6826 21.0233 49.6826C20.4416 49.6826 19.97 50.1542 19.97 50.736C19.97 51.3178 20.4416 51.7894 21.0233 51.7894Z" fill="white" stroke="#263238" stroke-linecap="round" stroke-linejoin="round"/>
<path d="M21.0233 54.5462C21.6051 54.5462 22.0767 54.0746 22.0767 53.4929C22.0767 52.9111 21.6051 52.4395 21.0233 52.4395C20.4416 52.4395 19.97 52.9111 19.97 53.4929C19.97 54.0746 20.4416 54.5462 21.0233 54.5462Z" fill="white" stroke="#263238" stroke-linecap="round" stroke-linejoin="round"/>
<path d="M21.0233 57.3014C21.6051 57.3014 22.0767 56.8298 22.0767 56.2481C22.0767 55.6663 21.6051 55.1947 21.0233 55.1947C20.4416 55.1947 19.97 55.6663 19.97 56.2481C19.97 56.8298 20.4416 57.3014 21.0233 57.3014Z" fill="white" stroke="#263238" stroke-linecap="round" stroke-linejoin="round"/>
<path d="M23.3855 43.7136H20.7244V57.6811H23.3855V43.7136Z" fill="white" stroke="#263238" stroke-linecap="round" stroke-linejoin="round"/>
<path d="M22.0078 43.7623V57.6324" stroke="#263238" stroke-linecap="round" stroke-linejoin="round"/>
<path d="M122.176 67.9745C122.758 67.9745 123.23 67.5029 123.23 66.9211C123.23 66.3394 122.758 65.8678 122.176 65.8678C121.594 65.8678 121.123 66.3394 121.123 66.9211C121.123 67.5029 121.594 67.9745 122.176 67.9745Z" fill="white" stroke="#263238" stroke-linecap="round" stroke-linejoin="round"/>
<path d="M119.421 67.9745C120.003 67.9745 120.474 67.5029 120.474 66.9211C120.474 66.3394 120.003 65.8678 119.421 65.8678C118.839 65.8678 118.368 66.3394 118.368 66.9211C118.368 67.5029 118.839 67.9745 119.421 67.9745Z" fill="white" stroke="#263238" stroke-linecap="round" stroke-linejoin="round"/>
<path d="M116.664 67.9745C117.246 67.9745 117.718 67.5029 117.718 66.9211C117.718 66.3394 117.246 65.8678 116.664 65.8678C116.082 65.8678 115.611 66.3394 115.611 66.9211C115.611 67.5029 116.082 67.9745 116.664 67.9745Z" fill="white" stroke="#263238" stroke-linecap="round" stroke-linejoin="round"/>
<path d="M113.909 67.9745C114.491 67.9745 114.962 67.5029 114.962 66.9211C114.962 66.3394 114.491 65.8678 113.909 65.8678C113.327 65.8678 112.856 66.3394 112.856 66.9211C112.856 67.5029 113.327 67.9745 113.909 67.9745Z" fill="white" stroke="#263238" stroke-linecap="round" stroke-linejoin="round"/>
<path d="M111.152 67.9745C111.734 67.9745 112.205 67.5029 112.205 66.9211C112.205 66.3394 111.734 65.8678 111.152 65.8678C110.57 65.8678 110.099 66.3394 110.099 66.9211C110.099 67.5029 110.57 67.9745 111.152 67.9745Z" fill="white" stroke="#263238" stroke-linecap="round" stroke-linejoin="round"/>
<path d="M122.176 65.8694C122.758 65.8694 123.23 65.3978 123.23 64.8161C123.23 64.2343 122.758 63.7627 122.176 63.7627C121.594 63.7627 121.123 64.2343 121.123 64.8161C121.123 65.3978 121.594 65.8694 122.176 65.8694Z" fill="white" stroke="#263238" stroke-linecap="round" stroke-linejoin="round"/>
<path d="M119.421 65.8694C120.003 65.8694 120.474 65.3978 120.474 64.8161C120.474 64.2343 120.003 63.7627 119.421 63.7627C118.839 63.7627 118.368 64.2343 118.368 64.8161C118.368 65.3978 118.839 65.8694 119.421 65.8694Z" fill="white" stroke="#263238" stroke-linecap="round" stroke-linejoin="round"/>
<path d="M116.664 65.8694C117.246 65.8694 117.718 65.3978 117.718 64.8161C117.718 64.2343 117.246 63.7627 116.664 63.7627C116.082 63.7627 115.611 64.2343 115.611 64.8161C115.611 65.3978 116.082 65.8694 116.664 65.8694Z" fill="white" stroke="#263238" stroke-linecap="round" stroke-linejoin="round"/>
<path d="M113.909 65.8694C114.491 65.8694 114.962 65.3978 114.962 64.8161C114.962 64.2343 114.491 63.7627 113.909 63.7627C113.327 63.7627 112.856 64.2343 112.856 64.8161C112.856 65.3978 113.327 65.8694 113.909 65.8694Z" fill="white" stroke="#263238" stroke-linecap="round" stroke-linejoin="round"/>
<path d="M111.152 65.8694C111.734 65.8694 112.205 65.3978 112.205 64.8161C112.205 64.2343 111.734 63.7627 111.152 63.7627C110.57 63.7627 110.099 64.2343 110.099 64.8161C110.099 65.3978 110.57 65.8694 111.152 65.8694Z" fill="white" stroke="#263238" stroke-linecap="round" stroke-linejoin="round"/>
<path d="M123.687 67.1782V64.517H109.719V67.1782H123.687Z" fill="white" stroke="#263238" stroke-linecap="round" stroke-linejoin="round"/>
<path d="M123.638 65.8006H109.768" stroke="#263238" stroke-linecap="round" stroke-linejoin="round"/>
<path d="M104.449 76.5542H123.036" stroke="#263238" stroke-miterlimit="10"/>
<path d="M5.47168 76.5542H103.075" stroke="#263238" stroke-miterlimit="10"/>
<path d="M85.5758 31.3219L84.1242 35.6782L83.585 35.7319L83.2624 36.2695L80.4719 34.2266V38.7979L84.2368 40.787C84.6774 40.6342 85.1083 40.4547 85.527 40.2494C85.9034 40.0344 86.5485 30.408 86.5485 30.408L85.5758 31.3219Z" fill="#0D92F4" stroke="#263238" stroke-linecap="round" stroke-linejoin="round"/>
<path d="M94.6377 74.7113C94.6377 74.7113 95.6457 77.9033 95.6071 78.4224C95.5684 78.9415 95.4055 79.0692 95.1216 79.1498C94.8376 79.2305 92.8636 79.0692 92.8636 79.0692L92.7427 74.9532L94.6377 74.7113Z" fill="white" stroke="#263238" stroke-linecap="round" stroke-linejoin="round"/>
<path d="M95.6072 78.4224V78.3737C94.7437 78.4174 93.3828 78.498 92.8469 78.5299L92.8637 79.0692C92.8637 79.0692 94.8394 79.2372 95.1217 79.1498C95.4039 79.0625 95.5669 78.9466 95.6072 78.4224Z" fill="white" stroke="#263238" stroke-linecap="round" stroke-linejoin="round"/>
<path d="M93.7909 70.7179C93.7909 70.7179 93.8715 72.1308 94.3554 73.2598C94.8392 74.3887 94.8392 74.7113 94.5973 74.9532C94.3554 75.1951 93.2667 75.3581 92.8232 75.4387C92.3797 75.5194 92.5007 74.1065 92.5007 73.2194C92.5007 72.3324 93.4684 70.476 93.7909 70.7179Z" fill="#0D92F4" stroke="#263238" stroke-linecap="round" stroke-linejoin="round"/>
<path d="M88.4672 73.9855C88.4672 73.9855 87.4978 75.3581 86.9333 75.8419C86.3688 76.3258 85.4818 76.8902 84.5141 77.495C83.5464 78.0998 83.5851 78.0998 83.6657 78.503C83.7464 78.9062 84.3125 79.2708 84.8417 79.2708H93.151C93.151 79.2708 93.7961 79.0289 93.5945 77.616C93.3929 76.2031 93.1913 74.2678 93.1913 74.2678L88.4672 73.9855Z" fill="white" stroke="#263238" stroke-linecap="round" stroke-linejoin="round"/>
<path d="M93.576 78.6324C91.9649 78.6559 86.5923 78.7265 85.3625 78.624C84.7702 78.5721 84.1879 78.4387 83.6321 78.2275C83.6314 78.3205 83.6433 78.4132 83.6674 78.503C83.748 78.9062 84.3142 79.2708 84.8434 79.2708H93.1527C93.1527 79.2708 93.4484 79.1566 93.576 78.6324Z" fill="white" stroke="#263238" stroke-linecap="round" stroke-linejoin="round"/>
<path d="M86.5436 26.7506C86.5436 26.7506 85.7372 29.3311 85.5759 30.8381C85.4146 32.345 84.5007 40.1419 84.2319 41.4338C83.9631 42.7258 84.5041 42.84 84.5041 42.84C84.5041 42.84 84.5578 46.3898 84.3965 47.8951C84.2353 49.4004 84.9341 57.2006 85.3105 60.643C85.6868 64.0853 86.6545 64.9992 86.8695 65.9131C87.0845 66.827 88.5915 70.9682 88.5915 71.1211C88.5915 71.274 89.1291 72.413 88.9678 72.6818C88.8065 72.9506 88.2689 72.7356 88.2689 73.327C88.2689 73.9183 88.2152 74.4022 88.2152 74.4022C88.2152 74.4022 90.6344 75.2102 91.55 75.3715C92.0477 75.4712 92.5584 75.4894 93.062 75.4253C93.3431 74.9922 93.5604 74.5209 93.7071 74.0258C93.9852 73.2166 94.095 72.359 94.0297 71.5058C93.9759 70.7515 93.8146 69.4075 93.8146 68.9858V66.8724C93.8146 66.2273 93.8684 64.5607 93.8684 64.5607L94.7823 54.5026C94.8361 53.9112 94.9973 52.9906 95.1586 52.621C95.3199 52.2514 96.3346 48.5335 96.2893 46.7578C96.2439 44.982 96.0205 43.1542 96.0205 43.1542C96.0205 43.1542 96.4505 42.079 96.343 40.2494C96.2355 38.4199 96.128 35.3018 96.128 35.1406C96.128 34.9793 96.3968 29.6554 95.3753 27.4495C94.3539 25.2437 91.718 23.9534 91.718 23.9534L86.5436 26.7506Z" fill="#0D92F4" stroke="#263238" stroke-linecap="round" stroke-linejoin="round"/>
<path d="M93.26 24.9581C92.588 24.9816 91.1332 25.2773 89.8244 27.1807C88.0504 29.7629 87.7278 32.7734 87.7278 33.096C87.7278 33.4186 87.1348 43.3692 87.1348 43.3692L88.8568 43.848C88.8568 43.848 88.9105 35.616 89.6094 32.2846C90.3083 28.9531 91.276 27.4982 92.2974 26.7994C93.0232 26.2954 93.9909 26.1593 94.4915 26.1173C94.1197 25.6918 93.7073 25.3035 93.26 24.9581Z" fill="white" stroke="#263238" stroke-linecap="round" stroke-linejoin="round"/>
<path d="M87.6186 33.5278L85.3069 33.1498L85.0381 35.5169L87.6186 35.947V33.5278Z" fill="white" stroke="#263238" stroke-linecap="round" stroke-linejoin="round"/>
<path d="M87.081 25.405C87.081 25.405 85.4682 26.4818 85.3607 26.8044C85.2532 27.127 84.9844 28.9548 84.9844 28.9548L87.2961 27.4428L87.081 25.405Z" fill="#0D92F4" stroke="#263238" stroke-linecap="round" stroke-linejoin="round"/>
<path d="M82.9819 18.905C82.9819 18.905 82.75 19.8223 82.8139 19.992C82.8777 20.1617 83.4859 20.8505 83.4859 20.8505C83.4859 20.8505 82.6862 22.1374 82.9113 22.5305C83.1364 22.9236 83.6992 22.811 83.6992 22.811C83.6992 22.811 84.2603 24.8926 84.9357 25.0606C85.6111 25.2286 86.1117 24.6674 86.1117 24.6674L87.2877 26.3474L91.1097 23.0866L90.6611 21.4066C90.6611 21.4066 91.1097 19.945 91.1097 18.7068C91.1097 17.4686 90.9417 17.0772 90.9417 17.0772L82.8777 18.6245L82.9819 18.905Z" fill="white" stroke="#263238" stroke-linecap="round" stroke-linejoin="round"/>
<path d="M90.94 17.0772L85.9706 18.2784L85.9353 18.4262C85.9353 18.4262 85.9353 18.989 86.2713 19.2662C86.6073 19.5434 87.2272 19.5468 87.2272 19.5468C87.2272 19.5468 87.2272 20.2793 87.7312 19.997C88.2352 19.7148 87.7312 19.0411 88.5712 18.9286C89.4112 18.816 89.8094 19.4914 89.5792 20.2726C89.3491 21.0538 88.961 21.3394 88.961 21.3394C88.961 21.3394 90.0849 21.6216 90.641 21.3965C90.641 21.3965 91.0895 19.9349 91.0895 18.6967C91.0895 17.4586 90.94 17.0772 90.94 17.0772Z" fill="#263238" stroke="#263238" stroke-linecap="round" stroke-linejoin="round"/>
<path d="M84.3511 20.533C84.4318 20.7514 84.4267 20.9546 84.3394 20.9866C84.252 21.0185 84.1159 20.8673 84.0353 20.6506C83.9547 20.4338 83.9597 20.2289 84.0471 20.197C84.1344 20.165 84.2705 20.3146 84.3511 20.533Z" fill="#263238"/>
<path d="M84.1108 21.1042C84.1108 21.1042 84.3645 21.5494 85.2549 21.4553" stroke="#263238" stroke-linecap="round" stroke-linejoin="round"/>
<path d="M83.6875 22.811C83.6187 22.9643 83.5892 23.1324 83.6019 23.2999C83.5943 23.3673 83.601 23.4356 83.6215 23.5003C83.642 23.5649 83.6758 23.6246 83.7208 23.6754C83.7657 23.7262 83.8208 23.7671 83.8825 23.7953C83.9442 23.8235 84.0111 23.8384 84.079 23.8392C84.3327 23.8392 85.5423 24.1903 85.6363 23.6494C85.7304 23.1084 85.3507 22.9774 84.8417 22.6632C84.3327 22.349 83.7715 22.801 83.6875 22.811Z" fill="#263238" stroke="#263238" stroke-linecap="round" stroke-linejoin="round"/>
<path d="M82.0528 17.8752C82.0528 17.8752 82.0528 18.1188 81.6496 18.7639C81.2464 19.409 80.3594 20.2154 80.3594 20.2154C80.3594 20.2154 83.7463 20.0474 84.7156 19.5703C85.685 19.0932 86.8996 18.522 87.2961 18.4414C87.6926 18.3607 91.5734 17.472 91.5734 17.472L90.9266 16.4237L90.1437 13.8331C90.058 13.5454 89.9007 13.2841 89.6865 13.0737C89.4723 12.8633 89.2082 12.7107 88.919 12.6302C87.8947 12.3357 86.821 12.2539 85.7639 12.39C83.6656 12.7126 82.2141 13.8415 81.9722 14.9722C81.7303 16.1028 82.0528 17.8752 82.0528 17.8752Z" fill="white" stroke="#263238" stroke-linecap="round" stroke-linejoin="round"/>
<path d="M91.056 22.2331C91.056 22.2331 86.1622 26.7506 86.0547 26.9119C85.9472 27.0732 87.192 29.143 87.192 29.143L92.4 23.8997L91.056 22.2331Z" fill="#0D92F4" stroke="#263238" stroke-linecap="round" stroke-linejoin="round"/>
<path d="M78.4559 31.584C78.4559 31.584 77.8662 31.5403 77.804 31.9015C77.7419 32.2627 78.224 33.306 78.6104 33.385C78.9968 33.4639 79.0741 33.2959 79.0422 33.1279C79.0103 32.9599 78.4559 31.584 78.4559 31.584Z" fill="white" stroke="#263238" stroke-linecap="round" stroke-linejoin="round"/>
<path d="M79.1598 31.3942C79.1598 31.3942 78.5869 31.248 78.4559 31.584C78.3248 31.92 78.6054 33.0406 78.9699 33.1918C79.3345 33.343 79.442 33.1918 79.442 33.0238C79.442 32.8558 79.1598 31.3942 79.1598 31.3942Z" fill="white" stroke="#263238" stroke-linecap="round" stroke-linejoin="round"/>
<path d="M79.8001 31.789C79.8001 31.789 79.5044 31.0498 79.16 31.3942C78.8156 31.7386 79.2087 32.6273 79.3565 32.9717C79.5044 33.3161 79.8992 33.4152 79.8992 32.7751C79.9077 32.4435 79.8744 32.1122 79.8001 31.789Z" fill="white" stroke="#263238" stroke-linecap="round" stroke-linejoin="round"/>
<path d="M80.3442 31.9284C80.3442 31.9284 79.8301 32.9566 80.0082 33.2993C80.1863 33.642 80.4584 33.4673 80.6936 33.1313C80.9288 32.7953 81.2514 32.167 81.1439 31.7604C81.0364 31.3538 80.5374 31.542 80.3442 31.9284Z" fill="white" stroke="#263238" stroke-linecap="round" stroke-linejoin="round"/>
<path d="M80.1361 29.8721C80.0503 30.2413 80.0053 30.6187 80.0017 30.9977L79.9849 32.9146L80.1529 32.8927L80.3074 31.0195C80.3343 30.7115 80.3343 30.4018 80.3074 30.0938L80.2856 29.8822C80.2798 29.8678 80.2701 29.8554 80.2576 29.8463C80.2451 29.8372 80.2303 29.8318 80.2148 29.8308C80.1994 29.8297 80.184 29.833 80.1703 29.8404C80.1567 29.8477 80.1454 29.8587 80.1377 29.8721H80.1361Z" fill="white" stroke="#263238" stroke-linecap="round" stroke-linejoin="round"/>
<path d="M81.4346 36.0007L80.3594 32.4509L75.4639 32.0208L78.0998 38.7442L82.5098 39.7118L81.4346 36.0007Z" fill="#263238" stroke="#263238" stroke-linecap="round" stroke-linejoin="round"/>
<path d="M77.0683 32.2258L77.5118 33.0826L79.0793 33.1716L78.7836 32.3736L78.3401 32.2846L78.251 32.0191L78.6055 32.0779V31.752L77.0095 31.6932L77.0986 31.9889H77.6009V32.2543L77.0683 32.2258Z" fill="white" stroke="#263238" stroke-linecap="round" stroke-linejoin="round"/>
<path d="M84.089 37.9999C84.089 37.9999 83.202 37.2607 83.1516 37.1129C83.1012 36.965 82.7567 36.6206 82.4611 36.2729C82.1654 35.9251 81.2296 35.485 81.2296 35.485L81.574 36.5686C81.574 36.5686 80.2435 36.1754 79.9478 36.1754C79.6521 36.1754 79.6521 36.4711 79.7008 36.9634C79.7254 37.115 79.7881 37.2579 79.883 37.3786C79.9779 37.4994 80.102 37.5941 80.2435 37.6538C80.268 37.8722 80.3176 38.087 80.3913 38.2939C80.5391 38.7878 80.5879 39.2314 81.0818 39.527C81.5757 39.8227 81.8697 39.8227 82.3132 39.8227C82.6119 39.818 82.9095 39.7849 83.2019 39.7236L84.1377 39.9706L84.089 37.9999Z" fill="white" stroke="#263238" stroke-linecap="round" stroke-linejoin="round"/>
<path d="M92.1916 29.8166C91.8502 30.3204 91.6121 30.8868 91.491 31.4832C91.276 32.5046 91.1684 37.7227 91.1684 37.7227C91.1684 37.7227 90.5233 37.6152 90.4696 37.8302C90.4158 38.0453 90.362 38.3141 90.362 38.3141L83.8537 37.8302L83.6387 41.0038C83.6387 41.0038 88.6417 41.9177 90.4696 42.1798C92.2974 42.4418 93.9119 42.7711 94.6107 42.126C95.3096 41.4809 95.9548 36.9079 96.1715 35.2951C96.3882 33.6823 96.8703 30.9926 96.494 29.3782C96.1177 27.7637 94.9333 27.0665 94.3957 27.0127" fill="#0D92F4"/>
<path d="M92.1916 29.8166C91.8502 30.3204 91.6121 30.8868 91.491 31.4832C91.276 32.5046 91.1684 37.7227 91.1684 37.7227C91.1684 37.7227 90.5233 37.6152 90.4696 37.8302C90.4158 38.0453 90.362 38.3141 90.362 38.3141L83.8537 37.8302L83.6387 41.0038C83.6387 41.0038 88.6417 41.9177 90.4696 42.1798C92.2974 42.4418 93.9119 42.7711 94.6107 42.126C95.3096 41.4809 95.9548 36.9079 96.1715 35.2951C96.3882 33.6823 96.8703 30.9926 96.494 29.3782C96.1177 27.7637 94.9333 27.0665 94.3957 27.0127" stroke="#263238" stroke-linecap="round" stroke-linejoin="round"/>
<path d="M90.5234 38.2066C90.5234 38.2066 90.5234 38.8517 91.2761 39.8194" stroke="#263238" stroke-linecap="round" stroke-linejoin="round"/>
<path d="M91.4373 38.0453C91.4373 38.0453 91.5465 38.1528 92.2453 38.3141" stroke="#263238" stroke-linecap="round" stroke-linejoin="round"/>
<path d="M95.5263 43.3154C95.5263 43.3154 94.6107 43.6918 92.3528 43.6918" stroke="#263238" stroke-linecap="round" stroke-linejoin="round"/>
<path d="M96.1717 46.919C95.4266 47.0772 94.6717 47.185 93.9121 47.2416L92.8906 47.2954C92.8906 47.2954 93.2669 50.6839 93.482 51.3274C93.697 51.9708 94.5572 52.1338 94.5572 52.1338" stroke="#263238" stroke-linecap="round" stroke-linejoin="round"/>
<path d="M86.147 50.6285C86.3872 51.9103 86.651 53.382 86.7585 54.18C86.9735 55.7928 86.7585 59.7727 87.0273 61.5485C87.2961 63.3242 87.8354 66.4961 88.1042 67.7342C88.373 68.9724 88.9106 71.6066 88.9106 71.6066L88.9643 72.6818" stroke="#263238" stroke-linecap="round" stroke-linejoin="round"/>
<path d="M85.6799 48.216C85.6799 48.216 85.8126 48.888 85.9874 49.8053" stroke="#263238" stroke-linecap="round" stroke-linejoin="round"/>
<path d="M48.547 17.9038L47.6263 20.4355L45.8774 20.6186L45.9245 21.1714L47.5339 21.2638L49.0073 22.8278L49.4206 22.5523L48.3168 20.6186L48.9602 18.0886L48.547 17.9038Z" fill="#263238" stroke="#263238" stroke-linecap="round" stroke-linejoin="round"/>
<path d="M48.4545 20.7346C48.4545 21.2806 48.1873 21.7241 47.8564 21.7241C47.5254 21.7241 47.2583 21.2806 47.2583 20.7346C47.2583 20.1886 47.5254 19.745 47.8564 19.745C48.1873 19.745 48.4545 20.1869 48.4545 20.7346Z" fill="#263238" stroke="#263238" stroke-linecap="round" stroke-linejoin="round"/>
<path d="M47.88 16.7076C46.3428 16.7076 45.0962 18.48 45.0962 20.6657C45.0962 22.8514 46.3428 24.6221 47.88 24.6221C49.4172 24.6221 50.6637 22.848 50.6637 20.664C50.6637 18.48 49.4172 16.7076 47.88 16.7076ZM47.88 23.1958C46.8955 23.1958 46.0992 22.0634 46.0992 20.6657C46.0992 19.2679 46.8955 18.1339 47.88 18.1339C48.8644 18.1339 49.6608 19.2679 49.6608 20.6657C49.6608 22.0634 48.8628 23.1958 47.88 23.1958Z" fill="#263238" stroke="#263238" stroke-linecap="round" stroke-linejoin="round"/>
<path d="M43.1323 21.2537C43.1323 21.2537 44.0294 19.3502 44.1403 19.1268C44.2512 18.9034 45.3734 17.3897 45.5414 17.2217C45.7094 17.0537 46.5226 17.1679 46.5226 17.1679C46.5226 17.1679 45.9329 17.8937 45.8774 18.0617C45.822 18.2297 46.2689 19.3502 45.6523 20.0777C45.0358 20.8051 43.9723 22.5977 43.9723 22.5977L43.1323 21.2537Z" fill="white" stroke="#263238" stroke-linecap="round" stroke-linejoin="round"/>
<path d="M44.9804 18.9017L45.8775 18.0617C45.8775 18.0617 47.5575 17.5022 47.5575 17.8382C47.5575 18.1742 47.0535 18.4548 46.6604 18.7337C46.2673 19.0126 45.8775 19.2377 45.8775 19.2377C45.8775 19.2377 46.269 20.2457 45.3164 20.7497C44.3638 21.2537 44.085 21.2537 44.085 21.2537" fill="white"/>
<path d="M44.9804 18.9017L45.8775 18.0617C45.8775 18.0617 47.5575 17.5022 47.5575 17.8382C47.5575 18.1742 47.0535 18.4548 46.6604 18.7337C46.2673 19.0126 45.8775 19.2377 45.8775 19.2377C45.8775 19.2377 46.269 20.2457 45.3164 20.7497C44.3638 21.2537 44.085 21.2537 44.085 21.2537" stroke="#263238" stroke-linecap="round" stroke-linejoin="round"/>
<path d="M34.2283 26.4617L37.6454 26.9657L42.9643 20.8622L44.7568 22.8782C44.7568 22.8782 40.4443 29.3748 39.9974 30.3257C39.5505 31.2766 39.1574 31.4462 38.5963 31.5588C38.0352 31.6714 34.9003 31.1102 34.9003 31.1102L34.2283 26.4617Z" fill="#0D92F4" stroke="#263238" stroke-linecap="round" stroke-linejoin="round"/>
<path d="M40.614 23.6628L42.966 25.5108L42.0688 27.0228L39.4934 24.9497L40.614 23.6628Z" fill="white" stroke="#263238" stroke-linecap="round" stroke-linejoin="round"/>
<path d="M35.1121 17.472C35.1121 17.472 35.7253 18.1793 35.7505 18.3523C35.7757 18.5254 35.5438 19.4074 35.5438 19.4074C35.5438 19.4074 36.8223 20.1886 36.7988 20.6354C36.7753 21.0823 36.2293 21.2352 36.2293 21.2352C36.2293 21.2352 36.6577 23.3218 36.1386 23.7703C35.6194 24.2189 34.7425 24.187 34.7425 24.187L34.6282 25.9627L29.8016 24.7867L29.4488 23.0966C29.4488 23.0966 28.4005 22.0063 27.8494 20.9126C27.2984 19.819 27.2732 19.4006 27.2732 19.4006L35.0852 17.1746L35.1121 17.472Z" fill="white" stroke="#263238" stroke-linecap="round" stroke-linejoin="round"/>
<path d="M27.2646 19.3939L32.1854 18.2414L32.2828 18.3574C32.2828 18.3574 32.5331 18.8614 32.3601 19.2528C32.187 19.6442 31.641 19.9248 31.641 19.9248C31.641 19.9248 31.967 20.5699 31.3958 20.5464C30.8246 20.5229 30.969 19.7064 30.1744 19.9786C29.3798 20.2507 29.3344 21.0252 29.8821 21.6199C30.4298 22.2146 30.9035 22.2919 30.9035 22.2919C30.9035 22.2919 30.0367 23.0412 29.4403 23.0916C29.4403 23.0916 28.3919 22.0013 27.8409 20.9076C27.2898 19.8139 27.2646 19.3939 27.2646 19.3939Z" fill="#263238" stroke="#263238" stroke-linecap="round" stroke-linejoin="round"/>
<path d="M35.4649 16.1431C35.4649 16.1431 35.5741 16.3565 36.2175 16.7462C36.861 17.136 38.0034 17.4535 38.0034 17.4535C38.0034 17.4535 34.9441 18.816 33.8689 18.8244C32.7937 18.8328 31.4799 18.8681 31.0868 18.9756C30.6937 19.0831 26.8868 20.0239 26.8868 20.0239L26.9893 18.811L26.5273 16.175C26.4752 15.883 26.4979 15.5825 26.5934 15.3017C26.6889 15.0208 26.854 14.7687 27.0733 14.569C27.8465 13.8522 28.7585 13.3016 29.7529 12.9511C31.747 12.3026 33.5329 12.6538 34.2486 13.5425C34.9642 14.4312 35.4649 16.1431 35.4649 16.1431Z" fill="white" stroke="#263238" stroke-linecap="round" stroke-linejoin="round"/>
<path d="M30.8699 20.076L34.1106 19.7887L34.0401 19.0831L30.6313 19.9063L30.8699 20.076Z" fill="#263238" stroke="#263238" stroke-linecap="round" stroke-linejoin="round"/>
<path d="M33.8958 19.488C33.9254 19.6077 33.9929 19.7146 34.0883 19.7927C34.1837 19.8708 34.3018 19.916 34.425 19.9214L35.858 19.9886C35.8984 19.9907 35.9387 19.9838 35.9762 19.9686C36.0137 19.9534 36.0473 19.9301 36.0749 19.9005C36.1024 19.8709 36.1231 19.8356 36.1356 19.7972C36.148 19.7587 36.1519 19.718 36.147 19.6778L36.1722 19.6207C36.2386 19.4683 36.2623 19.3007 36.2407 19.1358C36.2191 18.971 36.153 18.8151 36.0495 18.685L36.021 18.6497C36.0164 18.6099 36.0032 18.5716 35.9824 18.5374C35.9616 18.5033 35.9336 18.474 35.9004 18.4516C35.8672 18.4293 35.8295 18.4144 35.79 18.408C35.7505 18.4016 35.7101 18.4038 35.6715 18.4145L34.299 18.7958C34.1546 18.8356 34.0316 18.9304 33.9563 19.0597C33.8809 19.1891 33.8592 19.3428 33.8958 19.488Z" fill="#263238" stroke="#263238" stroke-linecap="round" stroke-linejoin="round"/>
<path d="M28.7414 75.1817C28.7414 75.1817 28.4608 77.0297 28.5163 77.9822C28.5717 78.9348 28.7414 79.1028 28.7414 79.1028H36.9163C36.9163 79.1028 36.9163 77.9822 36.3014 77.4228C35.6557 76.8758 34.9618 76.3883 34.2283 75.9662C33.6688 75.6302 32.3803 74.7348 32.3803 74.7348L28.7414 75.1817Z" fill="white" stroke="#263238" stroke-linecap="round" stroke-linejoin="round"/>
<path d="M30.5894 59.5577C30.5894 59.5577 30.6449 63.1982 30.1963 64.7657C29.7478 66.3331 28.5734 69.3588 28.5163 71.4302C28.4592 73.5017 28.4054 75.9662 28.5734 75.9662C28.7414 75.9662 29.0774 76.1342 29.4689 76.0788C29.8603 76.0234 31.0363 75.9662 31.0363 75.9662L31.7083 75.8537V73.1102C31.7083 70.6457 30.9254 68.5742 31.0363 66.4457C31.1472 64.3171 32.2694 62.9177 31.7083 60.8462C31.1472 58.7748 30.5894 58.8302 30.5894 59.5577Z" fill="#0D92F4" stroke="#263238" stroke-linecap="round" stroke-linejoin="round"/>
<path d="M36.4123 75.0137C36.4123 75.0137 37.4775 76.1342 37.9815 76.3577C38.4855 76.5811 40.5015 77.3657 40.6695 77.4782C40.8375 77.5908 41.6775 78.0377 41.6775 78.4862C41.6772 78.7567 41.6199 79.024 41.5095 79.2708H31.3723C31.2145 78.9198 31.1563 78.5321 31.2043 78.1502C31.2615 77.4228 31.4295 75.7982 31.4295 75.7982C31.4295 75.7982 32.4375 74.6777 33.7243 74.4542C35.0112 74.2308 36.4123 75.0137 36.4123 75.0137Z" fill="white" stroke="#263238" stroke-linecap="round" stroke-linejoin="round"/>
<path d="M31.3722 79.2708H41.5093C41.5963 79.0755 41.6502 78.8672 41.6689 78.6542H31.2109C31.2265 78.8679 31.2811 79.0769 31.3722 79.2708Z" fill="white" stroke="#263238" stroke-linecap="round" stroke-linejoin="round"/>
<path d="M29.1329 25.3428C29.1329 25.3428 27.5654 27.0782 26.6683 29.1497C25.7712 31.2211 25.9409 35.3102 26.2769 36.5417C26.6129 37.7731 27.1723 39.2297 27.0614 40.6308C26.9506 42.0319 26.4449 42.8702 26.7809 43.4868C26.9819 43.8553 27.2064 44.2105 27.4529 44.5502C27.4529 44.5502 26.7809 46.4537 27.2294 48.1908C27.678 49.9279 28.1803 51.7188 28.9649 52.1102L29.7494 52.5017C29.7494 52.5017 30.1409 56.9268 30.5894 59.5577C31.038 62.1886 31.0934 64.2062 30.2534 66.2222C29.4134 68.2382 30.4214 71.4302 30.6449 72.3828C30.8707 73.3568 31.0018 74.3504 31.0363 75.3497C31.0363 76.0788 30.4769 76.1897 31.2043 76.6382C31.9318 77.0868 32.1014 77.1977 32.6054 76.9188C33.1094 76.6399 35.3489 75.6302 35.7403 75.5748C36.1318 75.5194 36.7483 75.8537 36.9734 75.0137C37.1986 74.1737 36.6374 72.8297 36.5249 72.4937C36.4123 72.1577 35.9654 71.0942 35.9654 70.5902C35.9654 70.0862 36.4123 64.9908 37.3094 62.6942C38.2066 60.3977 38.2049 57.2628 38.2049 55.4148C38.2049 53.5668 38.8214 50.2622 38.8769 49.9262C38.9323 49.5902 39.5489 46.3428 39.6043 44.1017C39.6661 42.1783 39.4592 40.2558 38.9894 38.3897C38.5963 36.9348 38.3174 35.3657 38.3174 35.3657C38.3174 35.3657 36.8054 29.3748 35.8529 28.1988C34.9003 27.0228 35.0683 27.1908 33.6134 26.6297C32.1586 26.0686 29.1329 25.3428 29.1329 25.3428Z" fill="#0D92F4" stroke="#263238" stroke-linecap="round" stroke-linejoin="round"/>
<path d="M28.0124 26.7422C28.0124 26.7422 29.6369 26.2382 32.1569 26.4062C34.6769 26.5742 35.7404 28.0862 36.2444 28.8137C36.7484 29.5411 38.0924 36.2628 38.3175 38.3897C38.4489 39.5046 38.505 40.6272 38.4855 41.7497L37.7009 42.1982C37.7009 42.1982 37.5884 38.8382 37.1969 35.9268C36.8055 33.0154 36.0764 29.7108 34.6769 28.3097C33.2775 26.9086 31.4295 26.9102 30.4769 27.0228C29.5244 27.1354 27.1724 28.2542 27.1724 28.2542L28.0124 26.7422Z" fill="white" stroke="#263238" stroke-linecap="round" stroke-linejoin="round"/>
<path d="M29.2035 24.0542L34.9995 25.7342L35.7135 27.8342L28.7415 25.4822L29.2035 24.0542Z" fill="#0D92F4" stroke="#263238" stroke-linecap="round" stroke-linejoin="round"/>
<path d="M33.0522 34.0788C33.0522 34.0788 31.0362 34.8617 29.3008 35.3102" stroke="#263238" stroke-linecap="round" stroke-linejoin="round"/>
<path d="M34.1174 33.9108C34.1174 33.9108 32.3803 35.1422 30.2534 36.5988" stroke="#263238" stroke-linecap="round" stroke-linejoin="round"/>
<path d="M30.109 38.2334C29.6837 38.5893 29.2259 38.9043 28.7415 39.1742" stroke="#263238" stroke-linecap="round" stroke-linejoin="round"/>
<path d="M33.1095 35.4228C33.1095 35.4228 31.8378 36.7668 30.5139 37.8974" stroke="#263238" stroke-linecap="round" stroke-linejoin="round"/>
<path d="M34.4231 40.488C34.6971 40.1604 34.9501 39.8159 35.1808 39.4565" stroke="#263238" stroke-linecap="round" stroke-linejoin="round"/>
<path d="M30.4768 43.3188C30.4768 43.3188 31.9334 43.4297 32.4928 42.7577C32.77 42.4217 33.3076 41.8186 33.8368 41.1886" stroke="#263238" stroke-linecap="round" stroke-linejoin="round"/>
<path d="M31.342 43.8598C31.9939 43.769 32.5785 43.6481 32.8843 43.4868C33.8368 42.9828 34.6768 41.9748 34.6768 41.8068" stroke="#263238" stroke-linecap="round" stroke-linejoin="round"/>
<path d="M28.293 44.1017C28.293 44.1017 29.4337 44.0664 30.6063 43.9471" stroke="#263238" stroke-linecap="round" stroke-linejoin="round"/>
<path d="M32.5651 48.8342C32.6306 49.7465 32.6776 51.1426 32.3803 51.4382C31.9334 51.8868 30.4214 51.8868 30.4214 51.8868" stroke="#263238" stroke-linecap="round" stroke-linejoin="round"/>
<path d="M32.4929 48.0228C32.4929 48.0228 32.5097 48.1606 32.5299 48.384" stroke="#263238" stroke-linecap="round" stroke-linejoin="round"/>
<path d="M34.5088 43.0382C34.5088 43.0382 36.4122 42.6468 37.3093 42.0857" stroke="#263238" stroke-linecap="round" stroke-linejoin="round"/>
<path d="M36.1335 21.8702C36.1335 21.8702 35.4043 22.0937 35.1809 21.8148" stroke="#263238" stroke-linecap="round" stroke-linejoin="round"/>
<path d="M37.9679 46.6452C37.7999 46.1026 37.6487 45.7262 37.6487 45.7262" stroke="#263238" stroke-linecap="round" stroke-linejoin="round"/>
<path d="M38.2602 53.3417C38.2602 53.3417 38.4282 50.4857 38.4282 49.0862C38.4116 48.5081 38.3264 47.934 38.1746 47.376" stroke="#263238" stroke-linecap="round" stroke-linejoin="round"/>
<path d="M47.8364 25.4537C47.8068 24.9501 47.8068 24.4452 47.8364 23.9417C47.8935 23.4377 48.4529 22.5977 48.5655 21.9828C48.6781 21.3679 48.4529 20.8068 48.9015 20.8068C49.3501 20.8068 49.1804 21.9257 49.1804 21.9257C49.1804 21.9257 49.9649 21.1982 50.3009 20.8622C50.6369 20.5262 50.9175 20.4137 51.0855 20.7497C51.1335 20.8552 51.1583 20.9698 51.1583 21.0857C51.1583 21.2016 51.1335 21.3162 51.0855 21.4217C51.0855 21.4217 51.3644 22.1508 51.4769 22.5422C51.5688 22.8089 51.6014 23.0925 51.5724 23.3731C51.5433 23.6537 51.4535 23.9245 51.3089 24.1668C50.9175 24.8942 50.7495 25.3428 50.2455 25.6217C49.7413 25.9443 49.2882 26.3407 48.9015 26.7977C48.7889 26.9657 48.5655 27.2462 48.5655 27.2462L47.8364 25.4537Z" fill="white" stroke="#263238" stroke-linecap="round" stroke-linejoin="round"/>
<path d="M27.6208 28.8137C28.0091 28.2311 28.5461 27.7629 29.1761 27.4578C29.8062 27.1526 30.5065 27.0216 31.2043 27.0782C33.6688 27.2462 35.2934 28.5348 35.5168 28.6457C35.7403 28.7566 40.1083 30.7188 40.1083 30.7188L47.8934 25.0068L49.5163 27.3017C49.5163 27.3017 43.2448 33.4622 42.5728 34.1897C41.9008 34.9171 40.7248 35.4228 40.3334 35.4782C39.942 35.5337 33.2774 34.3577 32.6608 34.3022C32.0443 34.2468 29.0774 33.4622 29.0774 33.4622" fill="#0D92F4"/>
<path d="M27.6208 28.8137C28.0091 28.2311 28.5461 27.7629 29.1761 27.4578C29.8062 27.1526 30.5065 27.0216 31.2043 27.0782C33.6688 27.2462 35.2934 28.5348 35.5168 28.6457C35.7403 28.7566 40.1083 30.7188 40.1083 30.7188L47.8934 25.0068L49.5163 27.3017C49.5163 27.3017 43.2448 33.4622 42.5728 34.1897C41.9008 34.9171 40.7248 35.4228 40.3334 35.4782C39.942 35.5337 33.2774 34.3577 32.6608 34.3022C32.0443 34.2468 29.0774 33.4622 29.0774 33.4622" stroke="#263238" stroke-linecap="round" stroke-linejoin="round"/>
<path d="M43.1895 28.4222L45.5415 31.2782L46.662 30.1022L44.646 27.4697L43.1895 28.4222Z" fill="white" stroke="#263238" stroke-linecap="round" stroke-linejoin="round"/>
</svg>
