<svg width="99" height="99" viewBox="0 0 99 99" fill="none" xmlns="http://www.w3.org/2000/svg">
<path d="M99 75.7152H0V75.7647H99V75.7152Z" fill="#EBEBEB"/>
<path d="M46.9258 66.8844H8.69403C8.39452 66.8839 8.10747 66.7645 7.89587 66.5526C7.68427 66.3406 7.56543 66.0533 7.56543 65.7538V12.0107C7.56804 11.7129 7.68803 11.4282 7.89935 11.2183C8.11066 11.0085 8.39623 10.8905 8.69403 10.89H46.9258C47.2257 10.89 47.5133 11.0091 47.7253 11.2212C47.9373 11.4332 48.0564 11.7207 48.0564 12.0206V65.7538C48.0564 66.0537 47.9373 66.3413 47.7253 66.5533C47.5133 66.7653 47.2257 66.8844 46.9258 66.8844ZM8.69403 10.9296C8.40765 10.9301 8.13318 11.0443 7.93087 11.247C7.72856 11.4496 7.61493 11.7243 7.61493 12.0107V65.7538C7.61493 66.0402 7.72856 66.3149 7.93087 66.5176C8.13318 66.7203 8.40765 66.8344 8.69403 66.8349H46.9258C47.2124 66.8344 47.4871 66.7203 47.6897 66.5177C47.8923 66.3151 48.0064 66.0404 48.0069 65.7538V12.0107C48.0064 11.7241 47.8923 11.4495 47.6897 11.2468C47.4871 11.0442 47.2124 10.9301 46.9258 10.9296H8.69403Z" fill="#EBEBEB"/>
<path d="M89.7555 66.8844H51.5217C51.222 66.8839 50.9347 66.7646 50.7228 66.5527C50.5109 66.3408 50.3916 66.0535 50.3911 65.7538V12.0107C50.3942 11.7127 50.5147 11.428 50.7263 11.2182C50.9379 11.0084 51.2237 10.8905 51.5217 10.89H89.7555C90.0529 10.891 90.338 11.0093 90.5489 11.219C90.7598 11.4288 90.8795 11.7132 90.8821 12.0107V65.7538C90.8821 66.053 90.7635 66.34 90.5524 66.5519C90.3412 66.7638 90.0547 66.8834 89.7555 66.8844ZM51.5217 10.9296C51.2351 10.9301 50.9605 11.0442 50.7578 11.2468C50.5552 11.4495 50.4411 11.7241 50.4406 12.0107V65.7538C50.4411 66.0404 50.5552 66.3151 50.7578 66.5177C50.9605 66.7203 51.2351 66.8344 51.5217 66.8349H89.7555C90.0421 66.8344 90.3167 66.7203 90.5194 66.5177C90.722 66.3151 90.836 66.0404 90.8366 65.7538V12.0107C90.836 11.7241 90.722 11.4495 90.5194 11.2468C90.3167 11.0442 90.0421 10.9301 89.7555 10.9296H51.5217Z" fill="#EBEBEB"/>
<path d="M89.08 77.6002H82.8291V77.6497H89.08V77.6002Z" fill="#EBEBEB"/>
<path d="M66.3974 77.0636H59.7822V77.1131H66.3974V77.0636Z" fill="#EBEBEB"/>
<path d="M90.886 79.4396H78.5249V79.4891H90.886V79.4396Z" fill="#EBEBEB"/>
<path d="M14.1947 79.107H10.3872V79.1565H14.1947V79.107Z" fill="#EBEBEB"/>
<path d="M21.9564 79.107H15.959V79.1565H21.9564V79.107Z" fill="#EBEBEB"/>
<path d="M48.3395 78.2714H37.5366V78.3209H48.3395V78.2714Z" fill="#EBEBEB"/>
<path d="M90.3772 50.5375C88.3695 49.696 85.0431 50.5078 82.287 53.8501C81.0138 55.3945 79.7862 57.6596 79.4556 59.9782C79.4773 57.3329 79.5051 54.4916 79.5308 51.8087C79.8346 50.4928 80.3134 49.2235 80.9544 48.0348C82.976 43.9718 84.6471 44.4213 87.3934 41.2414C91.9612 35.9509 94.5788 25.9697 90.0347 29.9554C85.9143 33.559 83.9205 37.1666 82.5364 40.297C80.6634 44.5282 79.9109 47.4804 79.5446 50.4425C79.5704 47.9239 79.5942 45.6113 79.6159 43.8273C79.6872 38.0081 79.8456 36.137 79.8753 35.5588C79.9466 34.159 80.4079 33.3432 80.5366 33.1432C81.6197 31.4424 83.3205 30.3296 84.9857 28.3912C88.8685 23.8788 91.1098 18.2932 89.2387 17.7665C87.2845 17.226 84.7164 19.6891 81.8632 25.4727C80.2278 28.7872 79.81 29.5713 79.4872 36.0657C79.4595 36.63 79.3348 38.7565 79.2754 41.7107C78.814 38.5328 77.9369 35.3747 76.4064 33.2818C73.4542 29.2446 71.2089 28.8585 69.5734 29.2446C67.9379 29.6307 68.623 33.8699 70.4683 36.135C73.2403 39.5446 77.8735 38.8199 79.2457 43.3561C79.1764 47.3616 79.1269 52.4344 79.0991 57.1586C78.6319 54.7193 78.1428 52.6898 77.0696 50.7791C75.0738 47.227 72.6186 45.6766 70.9316 47.3497C69.8803 48.3912 71.1 51.3097 73.2978 52.4977C75.5292 53.7134 77.3607 55.3945 78.0696 56.4062C78.2339 56.6419 78.7824 57.5447 79.0952 58.0655C79.0655 63.8332 79.0694 68.9238 79.1189 70.6603L79.3981 70.686C79.3803 70.2385 79.3981 67.3042 79.4219 63.4214C79.909 58.5763 83.3304 58.313 85.5183 57.3903C89.4288 55.737 92.385 51.381 90.3772 50.5375Z" fill="#E6E6E6"/>
<path d="M76.4279 75.7152H82.1976C82.3395 75.7236 82.4801 75.6849 82.5975 75.605C82.715 75.5251 82.8028 75.4086 82.8471 75.2737L83.2589 68.112H75.3706L75.7785 75.2677C75.822 75.4036 75.9094 75.5212 76.0269 75.6022C76.1444 75.6831 76.2854 75.7229 76.4279 75.7152Z" fill="#E6E6E6"/>
<path d="M75.515 70.5533H83.1143C83.2964 70.5533 83.4489 70.3138 83.4707 69.997L83.6251 67.5814C83.6489 67.2091 83.4826 66.8844 83.2707 66.8844H75.3507C75.1369 66.8844 74.9705 67.2091 74.9963 67.5814L75.1507 69.997C75.1784 70.3138 75.3329 70.5533 75.515 70.5533Z" fill="#F5F5F5"/>
<path d="M36.8282 60.2851H29.3379V74.4044H36.8282V60.2851Z" fill="#F0F0F0"/>
<path d="M67.7182 74.4044H30.7773V75.7152H67.7182V74.4044Z" fill="#F0F0F0"/>
<path d="M36.8278 74.4025H69.1553V60.2831H36.8278V74.4025Z" fill="#FAFAFA"/>
<path d="M39.7745 66.3478H66.2114V62.0037H39.7745V66.3478Z" fill="#F0F0F0"/>
<path d="M39.7745 71.9294H66.2114V67.5853H39.7745V71.9294Z" fill="#F0F0F0"/>
<path d="M56.2358 61.4632H49.7493C49.4978 61.4632 49.2939 61.6671 49.2939 61.9186V61.9384C49.2939 62.1899 49.4978 62.3938 49.7493 62.3938H56.2358C56.4873 62.3938 56.6912 62.1899 56.6912 61.9384V61.9186C56.6912 61.6671 56.4873 61.4632 56.2358 61.4632Z" fill="#FAFAFA"/>
<path d="M56.2358 67.0448H49.7493C49.4978 67.0448 49.2939 67.2487 49.2939 67.5002V67.52C49.2939 67.7715 49.4978 67.9754 49.7493 67.9754H56.2358C56.4873 67.9754 56.6912 67.7715 56.6912 67.52V67.5002C56.6912 67.2487 56.4873 67.0448 56.2358 67.0448Z" fill="#FAFAFA"/>
<path d="M70.1555 59.0179H36.8301V60.2831H70.1555V59.0179Z" fill="#F0F0F0"/>
<path d="M28.2904 60.2851H36.8281V59.0198H28.2904V60.2851Z" fill="#E6E6E6"/>
<path d="M22.1445 64.643C21.2891 64.1956 19.7883 64.4272 18.4439 65.7994C17.7304 66.5211 17.219 67.4176 16.9609 68.3991C17.0698 67.2329 17.1905 65.9776 17.3034 64.7935C17.488 64.2237 17.7477 63.6811 18.0756 63.1798C19.123 61.4612 19.8457 61.7225 21.1783 60.4217C23.3998 58.2575 24.9403 53.9451 22.7761 55.5311C21.2275 56.6552 19.9591 58.1215 19.0696 59.8158C18.0796 61.6156 17.636 62.8907 17.3608 64.1857C17.4677 63.0749 17.5588 62.0532 17.644 61.2652C17.8974 58.6912 18.04 57.8754 18.0736 57.622C18.1109 57.2471 18.2431 56.888 18.4577 56.5785C19.0082 55.8677 19.8002 55.44 20.6041 54.648C22.491 52.8007 23.6929 50.4148 22.887 50.1138C22.0435 49.801 20.8139 50.7929 19.3349 53.2382C18.4855 54.6421 18.2716 54.9727 17.8796 57.8299C17.8439 58.0793 17.7093 59.0179 17.5707 60.3167C17.4875 58.8951 17.2202 57.4675 16.6223 56.4835C15.4719 54.5866 14.4938 54.3312 13.7572 54.45C13.0207 54.5688 13.1632 56.4577 13.8899 57.5289C14.9888 59.1406 17.0579 58.9961 17.4955 61.0533C17.3133 62.8195 17.0995 65.0608 16.9015 67.1477C16.7886 66.0508 16.65 65.1361 16.2481 64.251C15.5016 62.6056 14.4661 61.8275 13.6741 62.5027C13.1711 62.9224 13.5988 64.2569 14.5255 64.8787C15.4521 65.5004 16.2104 66.3122 16.4857 66.7874C16.549 66.8963 16.7569 67.318 16.8817 67.5596C16.6322 70.092 16.4461 72.3393 16.4025 73.1075L16.5312 73.1254C16.5411 72.9274 16.6579 71.6324 16.8183 69.9178C17.2143 67.7932 18.7389 67.8071 19.7408 67.4824C21.5287 66.9042 22.9999 65.0905 22.1445 64.643Z" fill="#F0F0F0"/>
<path d="M8.89792 60.2316C10.0047 59.7327 11.8679 60.1346 13.4519 61.9582C14.2937 62.9148 14.8699 64.0754 15.123 65.3242C15.0696 63.8491 15.0141 62.2651 14.9587 60.7702C14.7695 60.0412 14.4838 59.3407 14.1093 58.6872C12.9213 56.4518 11.9946 56.727 10.4166 54.9945C7.78912 52.1116 6.17938 46.5854 8.77516 48.7357C10.6352 50.2632 12.1188 52.198 13.1114 54.3906C14.2182 56.7231 14.6815 58.3506 14.931 60.0039C14.8795 58.6001 14.83 57.3111 14.7904 56.3152C14.6657 53.0719 14.5488 52.0304 14.5231 51.7077C14.5049 51.2361 14.3687 50.7766 14.1271 50.3712C13.4975 49.4386 12.5431 48.8446 11.5729 47.7873C9.34144 45.3282 8.0089 42.2433 9.04246 41.9265C10.1255 41.5958 11.5947 42.9304 13.2717 46.1122C14.234 47.9378 14.4776 48.3674 14.7587 51.9849C14.7845 52.2997 14.8835 53.4838 14.9567 55.1311C15.1666 53.3491 15.6081 51.579 16.4318 50.3791C18.0158 48.0823 19.2632 47.8348 20.18 48.0249C21.0967 48.215 20.774 50.5989 19.784 51.8819C18.2871 53.8243 15.6953 53.4877 14.9983 56.0399C15.0953 58.2714 15.1963 61.1008 15.2854 63.7342C15.5091 62.368 15.7527 61.2275 16.3209 60.1465C17.3822 58.1348 18.7286 57.2339 19.6869 58.1427C20.2809 58.707 19.6533 60.3524 18.4435 61.0533C17.2337 61.7542 16.2358 62.7462 15.8556 63.3204C15.7665 63.4531 15.4755 63.9659 15.3092 64.2609C15.4121 67.4764 15.4854 70.3157 15.4834 71.284L15.3191 71.2978C15.3191 71.0483 15.2715 69.4129 15.1963 67.2467C14.8498 64.548 12.9411 64.4569 11.7075 63.9758C9.5038 63.1165 7.7911 60.7306 8.89792 60.2316Z" fill="#E6E6E6"/>
<path d="M13.5806 75.7152H18.6989C18.8254 75.722 18.9506 75.6868 19.0551 75.6152C19.1597 75.5436 19.2377 75.4396 19.2771 75.3192L19.6394 68.9713H12.6401L13.0045 75.3192C13.0432 75.4396 13.1208 75.5438 13.225 75.6154C13.3293 75.6871 13.4543 75.7222 13.5806 75.7152Z" fill="#E6E6E6"/>
<path d="M12.7688 71.1374H19.5107C19.673 71.1374 19.8077 70.9236 19.8275 70.6424L19.9641 68.5001C19.9859 68.1694 19.8394 67.8823 19.6493 67.8823H12.6322C12.4342 67.8823 12.2956 68.1694 12.3154 68.5001L12.454 70.6424C12.4738 70.9236 12.6084 71.1374 12.7688 71.1374Z" fill="#F5F5F5"/>
<path d="M54.0994 15.8123H11.9175V39.6634H54.0994V15.8123Z" fill="#E6E6E6"/>
<path d="M55.4185 15.8123H12.1416V39.6634H55.4185V15.8123Z" fill="#F5F5F5"/>
<path d="M54.3647 37.7844V17.6933C54.3647 17.2362 53.9942 16.8657 53.5371 16.8657L14.0203 16.8657C13.5632 16.8657 13.1926 17.2362 13.1926 17.6933V37.7844C13.1926 38.2415 13.5632 38.612 14.0203 38.612H53.5371C53.9942 38.612 54.3647 38.2415 54.3647 37.7844Z" fill="white"/>
<path d="M49.5001 84.6569C70.7024 84.6569 87.8903 83.6534 87.8903 82.4155C87.8903 81.1777 70.7024 80.1742 49.5001 80.1742C28.2978 80.1742 11.1099 81.1777 11.1099 82.4155C11.1099 83.6534 28.2978 84.6569 49.5001 84.6569Z" fill="#F5F5F5"/>
<path d="M79.5782 61.8572H74.8262V61.6592H79.5782C80.1371 61.6477 80.6829 61.4885 81.1604 61.1977C81.6379 60.907 82.0299 60.4951 82.2967 60.0039L82.4709 60.0989C82.187 60.6214 81.7698 61.0593 81.2617 61.3682C80.7535 61.677 80.1727 61.8457 79.5782 61.8572Z" fill="#407BFF"/>
<path d="M73.8858 61.6592H71.9395V61.8572H73.8858V61.6592Z" fill="#407BFF"/>
<path d="M79.5781 61.1642H23.9797C23.6749 61.1701 23.3723 61.1111 23.092 60.9911C22.8117 60.871 22.5602 60.6927 22.3542 60.468C22.1482 60.2432 21.9924 59.9772 21.8971 59.6876C21.8018 59.3979 21.7693 59.0914 21.8017 58.7882L24.8054 24.3362C24.8725 23.6951 25.1708 23.1003 25.6445 22.663C26.1182 22.2258 26.7349 21.9759 27.3794 21.9602H82.9777C83.2825 21.9546 83.5849 22.0138 83.8651 22.134C84.1452 22.2541 84.3965 22.4324 84.6025 22.6571C84.8084 22.8818 84.9643 23.1477 85.0597 23.4372C85.155 23.7267 85.1878 24.0331 85.1558 24.3362L82.1699 58.7882C82.1023 59.4323 81.8015 60.0295 81.3241 60.4672C80.8467 60.9048 80.2257 61.1528 79.5781 61.1642Z" fill="#407BFF"/>
<path d="M78.42 60.4415H24.2076C23.9481 60.4453 23.6907 60.3939 23.4525 60.2906C23.2144 60.1873 23.0009 60.0345 22.8264 59.8423C22.6518 59.6502 22.5202 59.4231 22.4402 59.1761C22.3601 58.9292 22.3336 58.668 22.3623 58.41L25.0986 27.025C25.115 26.8677 25.1882 26.7218 25.3045 26.6146C25.4208 26.5075 25.5722 26.4464 25.7303 26.4429H82.8275C82.902 26.4416 82.976 26.4562 83.0444 26.4857C83.1128 26.5152 83.1742 26.559 83.2244 26.6141C83.2746 26.6691 83.3125 26.7343 83.3356 26.8051C83.3586 26.876 83.3663 26.951 83.3582 27.025L80.6198 58.41C80.5644 58.9588 80.31 59.4683 79.9048 59.8425C79.4996 60.2168 78.9715 60.4298 78.42 60.4415Z" fill="white"/>
<path d="M31.1174 24.8807C30.7434 24.8871 30.3723 24.8138 30.0288 24.6658C29.6853 24.5178 29.3772 24.2984 29.1249 24.0222C28.8727 23.746 28.6821 23.4193 28.5658 23.0638C28.4495 22.7083 28.4101 22.3321 28.4503 21.9602C28.5317 21.1709 28.8986 20.4386 29.482 19.9008C30.0653 19.363 30.8251 19.0567 31.6183 19.0397C31.9923 19.0333 32.3633 19.1065 32.7067 19.2546C33.0501 19.4026 33.3581 19.622 33.6102 19.8983C33.8623 20.1745 34.0527 20.5012 34.1688 20.8568C34.2849 21.2123 34.3239 21.5884 34.2834 21.9602H33.0954C33.1194 21.7394 33.096 21.5161 33.0269 21.305C32.9578 21.094 32.8446 20.9 32.6948 20.7362C32.5449 20.5723 32.3619 20.4421 32.1578 20.3545C31.9538 20.2668 31.7335 20.2236 31.5114 20.2277C31.0398 20.2363 30.5877 20.4173 30.2404 20.7365C29.8932 21.0557 29.6748 21.491 29.6265 21.9602C29.6025 22.181 29.6259 22.4043 29.695 22.6154C29.7641 22.8264 29.8773 23.0203 30.0271 23.1842C30.177 23.3481 30.36 23.4782 30.564 23.5659C30.7681 23.6536 30.9884 23.6968 31.2105 23.6927L31.1174 24.8807Z" fill="#263238"/>
<path d="M42.869 24.8807C42.4943 24.8882 42.1224 24.8158 41.7779 24.6683C41.4334 24.5208 41.1243 24.3016 40.8712 24.0252C40.6181 23.7489 40.4268 23.4218 40.31 23.0657C40.1933 22.7096 40.1537 22.3328 40.194 21.9602C40.2754 21.1709 40.6423 20.4386 41.2256 19.9008C41.809 19.363 42.5687 19.0567 43.362 19.0397C43.7359 19.0333 44.1069 19.1065 44.4504 19.2546C44.7938 19.4026 45.1018 19.622 45.3539 19.8983C45.606 20.1745 45.7964 20.5012 45.9125 20.8568C46.0285 21.2123 46.0676 21.5884 46.0271 21.9602H44.8391C44.863 21.7394 44.8397 21.5161 44.7706 21.305C44.7015 21.094 44.5883 20.9 44.4384 20.7362C44.2886 20.5723 44.1056 20.4421 43.9015 20.3545C43.6975 20.2668 43.4771 20.2236 43.2551 20.2277C42.7835 20.2363 42.3314 20.4173 41.9841 20.7365C41.6368 21.0557 41.4184 21.491 41.3701 21.9602C41.3465 22.1809 41.3701 22.4041 41.4393 22.615C41.5085 22.8259 41.6218 23.0197 41.7715 23.1836C41.9213 23.3474 42.1042 23.4775 42.3081 23.5653C42.512 23.653 42.7322 23.6965 42.9541 23.6927L42.869 24.8807Z" fill="#263238"/>
<path d="M54.6203 24.8807C54.2465 24.8868 53.8756 24.8133 53.5323 24.6652C53.1891 24.5171 52.8812 24.2976 52.6292 24.0214C52.3771 23.7453 52.1867 23.4187 52.0705 23.0633C51.9543 22.7079 51.915 22.3319 51.9552 21.9602C52.0358 21.1706 52.4024 20.4377 52.9859 19.8998C53.5695 19.3618 54.3297 19.0559 55.1232 19.0397C55.4971 19.0333 55.8682 19.1065 56.2116 19.2546C56.555 19.4026 56.863 19.622 57.1151 19.8983C57.3672 20.1745 57.5576 20.5012 57.6737 20.8568C57.7897 21.2123 57.8288 21.5884 57.7883 21.9602H56.6003C56.6246 21.7394 56.6014 21.5159 56.5325 21.3047C56.4635 21.0935 56.3503 20.8994 56.2004 20.7355C56.0505 20.5715 55.8673 20.4414 55.6631 20.3538C55.4589 20.2663 55.2384 20.2233 55.0163 20.2277C54.5449 20.2364 54.0931 20.4175 53.7461 20.7367C53.3992 21.0559 53.1812 21.4912 53.1333 21.9602C53.1094 22.181 53.1327 22.4043 53.2018 22.6154C53.2709 22.8264 53.3841 23.0203 53.534 23.1842C53.6838 23.3481 53.8669 23.4782 54.0709 23.5659C54.2749 23.6536 54.4953 23.6968 54.7173 23.6927L54.6203 24.8807Z" fill="#263238"/>
<path d="M66.3713 24.8807C65.9974 24.8868 65.6266 24.8133 65.2833 24.6652C64.94 24.517 64.6322 24.2976 64.3801 24.0214C64.1281 23.7453 63.9377 23.4187 63.8215 23.0633C63.7053 22.7079 63.666 22.3319 63.7062 21.9602C63.7872 21.1708 64.1539 20.4382 64.7374 19.9003C65.3208 19.3624 66.0808 19.0563 66.8742 19.0397C67.2482 19.0333 67.6193 19.1066 67.9628 19.2546C68.3063 19.4026 68.6144 19.622 68.8667 19.8982C69.1189 20.1744 69.3095 20.5011 69.4258 20.8566C69.5421 21.2121 69.5815 21.5883 69.5413 21.9602H68.3533C68.3772 21.7394 68.3538 21.5161 68.2848 21.305C68.2157 21.094 68.1024 20.9 67.9526 20.7361C67.8027 20.5723 67.6197 20.4421 67.4157 20.3545C67.2117 20.2668 66.9913 20.2236 66.7693 20.2277C66.2979 20.2364 65.846 20.4175 65.4991 20.7367C65.1521 21.0559 64.9341 21.4912 64.8863 21.9602C64.8623 22.181 64.8857 22.4043 64.9548 22.6154C65.0239 22.8264 65.1371 23.0203 65.2869 23.1842C65.4368 23.3481 65.6198 23.4782 65.8239 23.5659C66.0279 23.6536 66.2482 23.6968 66.4703 23.6927L66.3713 24.8807Z" fill="#263238"/>
<path d="M78.1227 24.8807C77.7489 24.8868 77.3781 24.8133 77.0348 24.6652C76.6915 24.517 76.3836 24.2976 76.1316 24.0214C75.8796 23.7453 75.6892 23.4187 75.573 23.0633C75.4568 22.7079 75.4175 22.3319 75.4577 21.9602C75.5386 21.1708 75.9054 20.4382 76.4888 19.9003C77.0723 19.3624 77.8323 19.0563 78.6257 19.0397C78.9997 19.0333 79.3707 19.1066 79.7143 19.2546C80.0578 19.4026 80.3659 19.622 80.6181 19.8982C80.8704 20.1744 81.061 20.5011 81.1773 20.8566C81.2936 21.2121 81.3329 21.5883 81.2927 21.9602H80.1047C80.1287 21.7394 80.1053 21.5161 80.0362 21.305C79.9671 21.094 79.8539 20.9 79.7041 20.7361C79.5542 20.5723 79.3712 20.4421 79.1671 20.3545C78.9631 20.2668 78.7428 20.2236 78.5207 20.2277C78.0495 20.2368 77.5978 20.418 77.251 20.7372C76.9041 21.0563 76.686 21.4913 76.6377 21.9602C76.6138 22.181 76.6372 22.4043 76.7062 22.6154C76.7753 22.8264 76.8886 23.0203 77.0384 23.1842C77.1883 23.3481 77.3713 23.4782 77.5753 23.5659C77.7794 23.6536 77.9997 23.6968 78.2217 23.6927L78.1227 24.8807Z" fill="#263238"/>
<path d="M78.2773 59.0179H24.6846C24.672 59.0183 24.6594 59.0159 24.6477 59.0109C24.636 59.006 24.6256 58.9985 24.6171 58.9891C24.6086 58.9796 24.6023 58.9685 24.5986 58.9563C24.5948 58.9442 24.5938 58.9314 24.5955 58.9189L27.2666 28.2962C27.269 28.2694 27.2813 28.2444 27.301 28.2262C27.3208 28.2079 27.3466 28.1976 27.3735 28.1972H80.9642C80.9769 28.1968 80.9896 28.1992 81.0013 28.2042C81.0131 28.2091 81.0236 28.2165 81.0323 28.2259C81.0409 28.2353 81.0474 28.2464 81.0514 28.2586C81.0554 28.2707 81.0567 28.2835 81.0552 28.2962L78.3842 58.9189C78.3818 58.9457 78.3695 58.9706 78.3498 58.9889C78.33 59.0072 78.3042 59.0175 78.2773 59.0179ZM24.8015 58.8199H78.1941L80.8493 28.3952H27.4566L24.8015 58.8199Z" fill="#E0E0E0"/>
<path d="M78.8038 52.8937H25.219C25.2065 52.8938 25.194 52.8912 25.1825 52.8861C25.171 52.8811 25.1607 52.8736 25.1523 52.8642C25.1439 52.8549 25.1375 52.8439 25.1337 52.8319C25.1298 52.8199 25.1285 52.8073 25.1299 52.7947C25.1319 52.7678 25.1441 52.7426 25.1639 52.7242C25.1838 52.7058 25.2098 52.6957 25.2369 52.6957H78.8275C78.8403 52.6954 78.853 52.6978 78.8647 52.7027C78.8765 52.7077 78.887 52.7151 78.8957 52.7245C78.9043 52.7339 78.9108 52.745 78.9148 52.7571C78.9187 52.7692 78.92 52.7821 78.9186 52.7947C78.9152 52.8226 78.9015 52.8481 78.8803 52.8664C78.8591 52.8847 78.8318 52.8944 78.8038 52.8937Z" fill="#E0E0E0"/>
<path d="M79.3442 46.7696H25.7535C25.7409 46.7696 25.7283 46.7671 25.7167 46.762C25.7051 46.7569 25.6947 46.7495 25.6862 46.7402C25.6776 46.7309 25.6711 46.7199 25.667 46.7079C25.6629 46.6959 25.6614 46.6832 25.6625 46.6706C25.6654 46.6436 25.678 46.6187 25.6981 46.6004C25.7182 46.5822 25.7442 46.5719 25.7714 46.5716H79.362C79.3748 46.5712 79.3875 46.5736 79.3992 46.5786C79.411 46.5835 79.4215 46.591 79.4301 46.6003C79.4388 46.6097 79.4453 46.6209 79.4493 46.633C79.4532 46.6451 79.4545 46.6579 79.4531 46.6706C79.4498 46.6974 79.437 46.7221 79.417 46.7403C79.397 46.7585 79.3712 46.7689 79.3442 46.7696Z" fill="#E0E0E0"/>
<path d="M79.8791 40.6435H26.2884C26.2757 40.6438 26.263 40.6415 26.2512 40.6365C26.2395 40.6315 26.2289 40.6241 26.2203 40.6147C26.2117 40.6053 26.2052 40.5942 26.2012 40.5821C26.1972 40.57 26.1959 40.5571 26.1973 40.5445C26.2006 40.5177 26.2134 40.4929 26.2334 40.4748C26.2534 40.4566 26.2792 40.4462 26.3062 40.4455H79.8969C79.9095 40.4454 79.922 40.448 79.9335 40.4531C79.945 40.4581 79.9553 40.4656 79.9637 40.475C79.9721 40.4843 79.9785 40.4953 79.9823 40.5073C79.9861 40.5193 79.9874 40.532 79.986 40.5445C79.984 40.5714 79.9719 40.5966 79.952 40.615C79.9322 40.6334 79.9061 40.6435 79.8791 40.6435Z" fill="#E0E0E0"/>
<path d="M80.4138 34.5193H26.8231C26.8103 34.5197 26.7977 34.5173 26.7859 34.5124C26.7742 34.5074 26.7636 34.5 26.755 34.4906C26.7463 34.4812 26.7398 34.4701 26.7359 34.458C26.7319 34.4458 26.7306 34.433 26.732 34.4203C26.7344 34.3935 26.7467 34.3686 26.7665 34.3503C26.7862 34.332 26.812 34.3217 26.8389 34.3213H80.4316C80.4443 34.3209 80.4569 34.3233 80.4685 34.3283C80.4802 34.3332 80.4907 34.3407 80.4991 34.3501C80.5076 34.3596 80.5139 34.3707 80.5177 34.3829C80.5214 34.395 80.5224 34.4078 80.5207 34.4203C80.5187 34.4473 80.5065 34.4725 80.4867 34.4909C80.4669 34.5092 80.4408 34.5194 80.4138 34.5193Z" fill="#E0E0E0"/>
<path d="M71.5767 59.0179C71.5641 59.0183 71.5514 59.0159 71.5398 59.0109C71.5281 59.006 71.5177 58.9985 71.5092 58.9891C71.5007 58.9796 71.4944 58.9685 71.4907 58.9563C71.4869 58.9442 71.4859 58.9314 71.4876 58.9189L74.1587 28.2962C74.1611 28.2694 74.1734 28.2444 74.1931 28.2262C74.2129 28.2079 74.2387 28.1976 74.2656 28.1972C74.2783 28.1968 74.291 28.1992 74.3028 28.2042C74.3145 28.2091 74.3251 28.2165 74.3337 28.2259C74.3423 28.2353 74.3488 28.2464 74.3528 28.2586C74.3568 28.2707 74.3581 28.2835 74.3567 28.2962L71.6856 58.9189C71.6827 58.9458 71.67 58.9708 71.65 58.989C71.6299 59.0073 71.6039 59.0175 71.5767 59.0179Z" fill="#E0E0E0"/>
<path d="M64.8787 59.0179C64.866 59.0182 64.8533 59.0159 64.8416 59.0109C64.8298 59.0059 64.8193 58.9985 64.8106 58.9891C64.802 58.9797 64.7955 58.9686 64.7915 58.9565C64.7876 58.9444 64.7862 58.9315 64.7877 58.9189L67.4587 28.2962C67.4616 28.2692 67.4743 28.2443 67.4943 28.226C67.5144 28.2078 67.5405 28.1975 67.5676 28.1972C67.5803 28.1968 67.5929 28.1991 67.6045 28.2041C67.6162 28.2091 67.6267 28.2166 67.6351 28.226C67.6436 28.2354 67.65 28.2466 67.6537 28.2587C67.6574 28.2708 67.6584 28.2836 67.6567 28.2962L64.9857 58.9189C64.9837 58.9458 64.9715 58.971 64.9517 58.9894C64.9318 59.0078 64.9058 59.0179 64.8787 59.0179Z" fill="#E0E0E0"/>
<path d="M58.18 59.0179C58.1673 59.0182 58.1546 59.0159 58.1428 59.0109C58.1311 59.0059 58.1205 58.9985 58.1119 58.9891C58.1033 58.9797 58.0968 58.9686 58.0928 58.9565C58.0888 58.9444 58.0875 58.9315 58.0889 58.9189L60.76 28.2962C60.7629 28.2692 60.7755 28.2443 60.7956 28.226C60.8157 28.2078 60.8417 28.1975 60.8689 28.1972C60.8815 28.1968 60.8941 28.1991 60.9058 28.2041C60.9175 28.2091 60.9279 28.2166 60.9364 28.226C60.9449 28.2354 60.9512 28.2466 60.9549 28.2587C60.9587 28.2708 60.9597 28.2836 60.958 28.2962L58.2869 58.9189C58.2845 58.9457 58.2722 58.9706 58.2525 58.9889C58.2327 59.0072 58.2069 59.0175 58.18 59.0179Z" fill="#E0E0E0"/>
<path d="M51.4798 59.0179C51.4671 59.0182 51.4544 59.0158 51.4426 59.0109C51.4309 59.0059 51.4203 58.9985 51.4117 58.9891C51.4031 58.9797 51.3966 58.9686 51.3926 58.9565C51.3886 58.9444 51.3873 58.9315 51.3887 58.9189L54.0538 28.2962C54.0563 28.2694 54.0685 28.2444 54.0883 28.2262C54.108 28.2079 54.1338 28.1976 54.1607 28.1972C54.1735 28.1968 54.1862 28.1992 54.1979 28.2042C54.2097 28.2091 54.2202 28.2165 54.2288 28.2259C54.2375 28.2353 54.244 28.2464 54.248 28.2586C54.2519 28.2707 54.2532 28.2835 54.2518 28.2962L51.5887 58.9189C51.5862 58.946 51.5737 58.9712 51.5535 58.9895C51.5334 59.0079 51.5071 59.018 51.4798 59.0179Z" fill="#E0E0E0"/>
<path d="M44.7818 59.0179C44.7691 59.0183 44.7565 59.0159 44.7449 59.0109C44.7332 59.006 44.7227 58.9985 44.7143 58.9891C44.7058 58.9796 44.6994 58.9685 44.6957 58.9563C44.692 58.9442 44.691 58.9314 44.6927 58.9189L47.3637 28.2962C47.3657 28.2692 47.3779 28.244 47.3977 28.2256C47.4176 28.2073 47.4436 28.1971 47.4707 28.1972C47.4834 28.1968 47.4961 28.1992 47.5078 28.2042C47.5196 28.2091 47.5301 28.2165 47.5388 28.2259C47.5474 28.2353 47.5539 28.2464 47.5579 28.2586C47.5618 28.2707 47.5632 28.2835 47.5617 28.2962L44.8907 58.9189C44.8878 58.9458 44.8751 58.9708 44.8551 58.989C44.835 59.0073 44.8089 59.0175 44.7818 59.0179Z" fill="#E0E0E0"/>
<path d="M38.0833 59.0179C38.0706 59.0182 38.0579 59.0159 38.0462 59.0109C38.0344 59.0059 38.0239 58.9985 38.0152 58.9891C38.0066 58.9797 38.0001 58.9686 37.9961 58.9565C37.9921 58.9444 37.9908 58.9315 37.9923 58.9189L40.6633 28.2962C40.6662 28.2692 40.6789 28.2443 40.6989 28.226C40.719 28.2078 40.7451 28.1975 40.7722 28.1972C40.7849 28.1968 40.7975 28.1991 40.8091 28.2041C40.8208 28.2091 40.8312 28.2166 40.8397 28.226C40.8482 28.2354 40.8545 28.2466 40.8583 28.2587C40.862 28.2708 40.863 28.2836 40.8613 28.2962L38.1903 58.9189C38.1883 58.9458 38.1761 58.971 38.1563 58.9894C38.1364 59.0078 38.1104 59.0179 38.0833 59.0179Z" fill="#E0E0E0"/>
<path d="M31.3851 59.0179C31.3723 59.0182 31.3597 59.0159 31.3479 59.0109C31.3362 59.0059 31.3256 58.9985 31.317 58.9891C31.3084 58.9797 31.3018 58.9686 31.2979 58.9565C31.2939 58.9444 31.2926 58.9315 31.294 58.9189L33.965 28.2962C33.9679 28.2692 33.9806 28.2443 34.0007 28.226C34.0208 28.2078 34.0468 28.1975 34.0739 28.1972C34.0866 28.1968 34.0992 28.1991 34.1109 28.2041C34.1226 28.2091 34.133 28.2166 34.1415 28.226C34.15 28.2354 34.1563 28.2466 34.16 28.2587C34.1637 28.2708 34.1648 28.2836 34.163 28.2962L31.492 58.9189C31.4896 58.9457 31.4773 58.9706 31.4575 58.9889C31.4378 59.0072 31.412 59.0175 31.3851 59.0179Z" fill="#E0E0E0"/>
<path d="M58.5425 39.9327H54.4498C54.3688 39.934 54.2884 39.9181 54.214 39.8859C54.1397 39.8537 54.073 39.8061 54.0185 39.7461C53.964 39.6862 53.9228 39.6153 53.8979 39.5382C53.8729 39.4611 53.8646 39.3796 53.8737 39.2991L54.1905 35.6658C54.2074 35.4943 54.2868 35.335 54.4134 35.2182C54.5401 35.1014 54.7052 35.0352 54.8775 35.0322H58.9702C59.0514 35.0305 59.132 35.0463 59.2066 35.0783C59.2812 35.1103 59.3481 35.1579 59.4029 35.2179C59.4576 35.2779 59.4989 35.3489 59.524 35.4261C59.5491 35.5034 59.5574 35.5851 59.5483 35.6658L59.2315 39.2991C59.2145 39.4709 59.1349 39.6304 59.0078 39.7472C58.8807 39.8641 58.7151 39.9301 58.5425 39.9327Z" fill="#407BFF"/>
<path opacity="0.6" d="M58.5425 39.9327H54.4498C54.3688 39.934 54.2884 39.9181 54.214 39.8859C54.1397 39.8537 54.073 39.8061 54.0185 39.7461C53.964 39.6862 53.9228 39.6153 53.8979 39.5382C53.8729 39.4611 53.8646 39.3796 53.8737 39.2991L54.1905 35.6658C54.2074 35.4943 54.2868 35.335 54.4134 35.2182C54.5401 35.1014 54.7052 35.0352 54.8775 35.0322H58.9702C59.0514 35.0305 59.132 35.0463 59.2066 35.0783C59.2812 35.1103 59.3481 35.1579 59.4029 35.2179C59.4576 35.2779 59.4989 35.3489 59.524 35.4261C59.5491 35.5034 59.5574 35.5851 59.5483 35.6658L59.2315 39.2991C59.2145 39.4709 59.1349 39.6304 59.0078 39.7472C58.8807 39.8641 58.7151 39.9301 58.5425 39.9327Z" fill="white"/>
<path d="M87.098 39.9327H82.7954L83.2211 35.0322H87.5256L85.908 37.4834L87.098 39.9327Z" fill="white"/>
<path d="M87.2583 40.0317H82.6865L83.132 34.9332H87.7137L86.0327 37.4834L87.2583 40.0317ZM82.9023 39.8337H86.9356L85.7931 37.4834L87.3455 35.1312H83.3122L82.9023 39.8337Z" fill="#407BFF"/>
<path d="M71.367 46.0568H67.2744C67.1933 46.0584 67.1129 46.0427 67.0385 46.0108C66.964 45.9789 66.8972 45.9315 66.8425 45.8717C66.7878 45.8119 66.7464 45.7412 66.7212 45.6642C66.696 45.5872 66.6875 45.5057 66.6962 45.4252L67.013 41.7899C67.0309 41.6186 67.1108 41.4598 67.2378 41.3434C67.3647 41.2271 67.5299 41.1612 67.702 41.1583H71.7947C71.8756 41.157 71.9559 41.1729 72.0302 41.2049C72.1045 41.2369 72.1712 41.2844 72.2258 41.3441C72.2805 41.4038 72.3218 41.4744 72.3472 41.5512C72.3725 41.6281 72.3813 41.7094 72.3729 41.7899L72.0561 45.4252C72.0382 45.5965 71.9582 45.7553 71.8313 45.8716C71.7043 45.988 71.5392 46.0539 71.367 46.0568Z" fill="#407BFF"/>
<path opacity="0.4" d="M71.367 46.0568H67.2744C67.1933 46.0584 67.1129 46.0427 67.0385 46.0108C66.964 45.9789 66.8972 45.9315 66.8425 45.8717C66.7878 45.8119 66.7464 45.7412 66.7212 45.6642C66.696 45.5872 66.6875 45.5057 66.6962 45.4252L67.013 41.7899C67.0309 41.6186 67.1108 41.4598 67.2378 41.3434C67.3647 41.2271 67.5299 41.1612 67.702 41.1583H71.7947C71.8756 41.157 71.9559 41.1729 72.0302 41.2049C72.1045 41.2369 72.1712 41.2844 72.2258 41.3441C72.2805 41.4038 72.3218 41.4744 72.3472 41.5512C72.3725 41.6281 72.3813 41.7094 72.3729 41.7899L72.0561 45.4252C72.0382 45.5965 71.9582 45.7553 71.8313 45.8716C71.7043 45.988 71.5392 46.0539 71.367 46.0568Z" fill="white"/>
<path d="M79.2097 33.8085H68.3434C68.2622 33.8101 68.1816 33.7944 68.107 33.7624C68.0324 33.7303 67.9655 33.6827 67.9107 33.6227C67.856 33.5628 67.8147 33.4918 67.7896 33.4145C67.7645 33.3373 67.7562 33.2556 67.7653 33.1749L68.0821 29.5416C68.099 29.3701 68.1784 29.2109 68.305 29.0941C68.4317 28.9773 68.5969 28.911 68.7691 28.908H79.6373C79.7184 28.9067 79.7989 28.9226 79.8734 28.9548C79.9478 28.9869 80.0146 29.0345 80.0693 29.0944C80.124 29.1544 80.1653 29.2252 80.1905 29.3023C80.2157 29.3794 80.2242 29.461 80.2155 29.5416L79.8987 33.1749C79.8817 33.3467 79.8021 33.5062 79.675 33.6231C79.5479 33.7399 79.3823 33.8059 79.2097 33.8085Z" fill="#407BFF"/>
<path d="M35.8616 39.105C34.2102 39.105 32.8341 38.5209 31.858 37.4022C30.6047 35.9627 30.4166 34.1768 31.365 32.7393C32.7728 30.6108 36.4417 29.4763 38.8553 29.7911C38.868 29.7927 38.8801 29.7969 38.891 29.8035C38.9019 29.8101 38.9113 29.8189 38.9185 29.8294C38.9258 29.8398 38.9308 29.8517 38.9332 29.8642C38.9357 29.8767 38.9354 29.8896 38.9325 29.902C38.9264 29.9281 38.911 29.9512 38.8892 29.9669C38.8673 29.9825 38.8405 29.9897 38.8137 29.9871C36.4595 29.6802 32.8916 30.7791 31.5293 32.8383C30.4562 34.4619 31.0759 36.1885 32.0144 37.2656C33.3232 38.7664 35.1072 38.9783 36.3704 38.8892C38.784 38.7209 41.4273 37.3408 42.95 35.4559C43.3757 34.9292 44.0291 33.9174 43.6291 33.0799C43.0351 31.8265 41.0551 31.9136 39.4038 32.1275C39.3913 32.1291 39.3787 32.1282 39.3667 32.1247C39.3546 32.1213 39.3434 32.1154 39.3337 32.1074C39.3241 32.0994 39.3161 32.0895 39.3105 32.0783C39.3048 32.0671 39.3015 32.0549 39.3008 32.0423C39.3001 32.0154 39.3094 31.9891 39.327 31.9686C39.3446 31.9481 39.3691 31.9349 39.3959 31.9315C40.5007 31.7869 43.0866 31.4523 43.8093 32.9848C44.2568 33.9273 43.5558 35.0163 43.1004 35.5826C41.5422 37.5111 38.8355 38.9248 36.3684 39.0951C36.1982 39.0991 36.0358 39.105 35.8616 39.105Z" fill="#407BFF"/>
<path d="M68.904 44.9658H68.8882C68.8572 44.9637 68.8274 44.9534 68.8016 44.936C68.7759 44.9186 68.7552 44.8948 68.7417 44.8668C68.5377 44.3999 68.2573 43.9703 67.9121 43.5956C67.8732 43.557 67.8513 43.5046 67.8511 43.4498C67.8509 43.3951 67.8725 43.3425 67.9111 43.3036C67.9497 43.2647 68.0021 43.2428 68.0569 43.2426C68.1117 43.2424 68.1643 43.264 68.2031 43.3026C68.5206 43.6345 68.7833 44.0148 68.9813 44.4292C69.6616 43.7305 70.3987 43.0895 71.185 42.5126C71.2259 42.4808 71.2776 42.4664 71.3291 42.4723C71.3805 42.4782 71.4276 42.504 71.4602 42.5443C71.4753 42.5661 71.4859 42.5907 71.4913 42.6167C71.4967 42.6427 71.4969 42.6696 71.4917 42.6956C71.4865 42.7217 71.4762 42.7464 71.4612 42.7684C71.4463 42.7903 71.4271 42.8091 71.4048 42.8234C70.5613 43.4402 69.7771 44.1342 69.0624 44.8965C69.0422 44.9184 69.0177 44.9358 68.9905 44.9477C68.9632 44.9596 68.9338 44.9658 68.904 44.9658Z" fill="white"/>
<path d="M61.6115 58.0794C61.3268 58.0841 61.0444 58.0282 60.783 57.9155C60.5215 57.8028 60.2871 57.6357 60.0951 57.4254C59.9032 57.2151 59.7582 56.9664 59.6697 56.6958C59.5812 56.4252 59.5513 56.1389 59.582 55.8558C59.6438 55.254 59.9239 54.6958 60.3694 54.2864C60.8148 53.8771 61.3947 53.6451 61.9996 53.6343C62.2841 53.6292 62.5665 53.6848 62.8279 53.7973C63.0894 53.9099 63.3239 54.0767 63.5158 54.2869C63.7078 54.497 63.8528 54.7456 63.9413 55.0161C64.0298 55.2866 64.0597 55.5729 64.0291 55.8558C63.9672 56.4578 63.6872 57.0163 63.2418 57.4259C62.7964 57.8356 62.2165 58.068 61.6115 58.0794ZM61.9738 54.0303C61.478 54.0411 61.0033 54.2326 60.6387 54.5688C60.2742 54.9049 60.0448 55.3626 59.9938 55.8558C59.9685 56.0884 59.993 56.3237 60.0656 56.5461C60.1382 56.7685 60.2573 56.973 60.415 57.1458C60.5727 57.3187 60.7653 57.456 60.9801 57.5487C61.195 57.6413 61.427 57.6873 61.661 57.6834C62.1569 57.672 62.6317 57.4801 62.9962 57.1436C63.3608 56.8072 63.59 56.3493 63.641 55.8558C63.6657 55.6234 63.6407 55.3885 63.5679 55.1664C63.495 54.9444 63.3758 54.7404 63.2183 54.5678C63.0607 54.3953 62.8683 54.2581 62.6537 54.1655C62.4392 54.0728 62.2075 54.0267 61.9738 54.0303Z" fill="#407BFF"/>
<path d="M42.57 45.8073C42.2853 45.8121 42.0029 45.7562 41.7415 45.6435C41.48 45.5307 41.2456 45.3636 41.0536 45.1534C40.8617 44.9431 40.7167 44.6944 40.6282 44.4238C40.5397 44.1532 40.5098 43.8668 40.5405 43.5838C40.6025 42.9805 40.8836 42.4209 41.3307 42.0111C41.7777 41.6012 42.3596 41.3697 42.966 41.3602C43.2506 41.3555 43.5331 41.4113 43.7945 41.5241C44.0559 41.6368 44.2904 41.8039 44.4823 42.0142C44.6743 42.2245 44.8193 42.4732 44.9077 42.7438C44.9962 43.0144 45.0261 43.3007 44.9955 43.5838C44.9331 44.1869 44.6518 44.7463 44.2048 45.156C43.7579 45.5657 43.1762 45.7975 42.57 45.8073ZM42.9224 41.7562C42.4263 41.7672 41.9513 41.9589 41.5867 42.2955C41.2221 42.632 40.993 43.0902 40.9424 43.5838C40.9171 43.8164 40.9416 44.0517 41.0142 44.2741C41.0868 44.4965 41.2059 44.7009 41.3636 44.8738C41.5213 45.0466 41.7139 45.1839 41.9287 45.2766C42.1436 45.3693 42.3756 45.4152 42.6096 45.4113C43.1055 45.4 43.5803 45.2081 43.9448 44.8716C44.3093 44.5351 44.5386 44.0772 44.5896 43.5838C44.6145 43.3516 44.5899 43.1167 44.5174 42.8947C44.4449 42.6728 44.3262 42.4687 44.169 42.296C44.0118 42.1232 43.8198 41.9858 43.6056 41.8928C43.3914 41.7998 43.1599 41.7532 42.9264 41.7562H42.9224Z" fill="#407BFF"/>
<path opacity="0.1" d="M46.4385 51.1315H25.8663C25.6764 51.1343 25.488 51.0967 25.3136 51.0212C25.1393 50.9458 24.983 50.8342 24.8549 50.6938C24.7269 50.5535 24.6302 50.3875 24.5711 50.207C24.5119 50.0264 24.4918 49.8354 24.512 49.6465C24.5539 49.2449 24.741 48.8724 25.0381 48.5989C25.3352 48.3255 25.722 48.17 26.1257 48.1615H46.6979C46.8879 48.1588 47.0762 48.1964 47.2506 48.2718C47.4249 48.3473 47.5813 48.4589 47.7093 48.5992C47.8373 48.7396 47.934 48.9055 47.9932 49.0861C48.0523 49.2666 48.0724 49.4576 48.0522 49.6465C48.0103 50.0481 47.8233 50.4207 47.5261 50.6941C47.229 50.9675 46.8422 51.1231 46.4385 51.1315Z" fill="black"/>
<path d="M19.0849 46.4132L19.8571 46.7438L18.8216 48.013C18.6406 47.6978 18.4996 47.3612 18.4018 47.0111C18.3872 46.9599 18.3832 46.9063 18.3898 46.8534C18.3965 46.8006 18.4137 46.7496 18.4405 46.7036C18.4673 46.6575 18.5031 46.6174 18.5458 46.5855C18.5885 46.5537 18.6372 46.5307 18.6889 46.5181L19.0849 46.4132Z" fill="#FF8B7B"/>
<path d="M20.2117 48.114L19.7484 48.6288C19.7134 48.6679 19.67 48.6984 19.6214 48.7181C19.5728 48.7379 19.5203 48.7462 19.468 48.7426C19.4156 48.739 19.3648 48.7235 19.3194 48.6972C19.274 48.671 19.2352 48.6347 19.2059 48.5912L18.8218 48.0209L19.8573 46.7517L20.2751 47.7417C20.3022 47.8032 20.3106 47.8712 20.2993 47.9374C20.2881 48.0036 20.2576 48.065 20.2117 48.114Z" fill="#FF8B7B"/>
<path d="M47.4487 50.6325L20.6692 48.51C20.48 48.4975 20.2956 48.4451 20.1281 48.3562C19.9606 48.2674 19.8138 48.1441 19.6973 47.9945C19.5808 47.845 19.4972 47.6724 19.4522 47.4883C19.4071 47.3041 19.4014 47.1125 19.4356 46.926C19.5092 46.5289 19.7253 46.1724 20.0432 45.9234C20.3611 45.6744 20.759 45.55 21.1622 45.5736L47.9417 47.6942C48.131 47.7064 48.3156 47.7586 48.4832 47.8474C48.6509 47.9361 48.7978 48.0594 48.9144 48.2091C49.0309 48.3587 49.1144 48.5314 49.1594 48.7157C49.2044 48.9 49.2098 49.0917 49.1752 49.2782C49.1017 49.6755 48.8857 50.0322 48.5678 50.2816C48.2499 50.5309 47.852 50.6557 47.4487 50.6325Z" fill="#407BFF"/>
<path d="M28.5534 38.1368C28.888 38.8912 29.2306 39.6653 29.5771 40.4177C29.9236 41.1701 30.282 41.9344 30.6661 42.5957C30.7475 42.7337 30.8382 42.866 30.9373 42.9917C31.0561 43.1323 31.1888 43.2769 31.3234 43.4254C31.5987 43.7204 31.8937 44.0194 32.1887 44.3124C32.7827 44.9064 33.3767 45.5004 33.9707 46.1201L33.3767 46.8943C32.6263 46.4618 31.8993 45.9899 31.1987 45.4806C30.8463 45.2252 30.5017 44.9599 30.1572 44.6708C29.985 44.5262 29.8147 44.3718 29.6404 44.2035C29.4585 44.0133 29.2923 43.8087 29.1435 43.5917C28.6477 42.849 28.2025 42.0737 27.8109 41.2711C27.4248 40.489 27.0704 39.7109 26.7397 38.8951L28.5534 38.1368Z" fill="#FF8B7B"/>
<path d="M22.0057 38.016C21.5562 38.7506 21.0949 39.4891 20.6336 40.2197L19.2575 42.4136L19.0892 42.6868L19.0694 42.7224V42.7383V42.7502C19.0595 42.7653 19.0509 42.7812 19.0436 42.7977C18.9976 42.9306 18.9696 43.0691 18.9605 43.2095C18.9379 43.5926 18.9491 43.9769 18.9941 44.3579C19.0793 45.1658 19.2396 46.0191 19.4099 46.8448L18.4912 47.1854C18.0719 46.3727 17.74 45.5178 17.5012 44.6351C17.371 44.1613 17.2933 43.6746 17.2695 43.1838C17.2557 42.887 17.2837 42.5897 17.3527 42.3007C17.3804 42.2136 17.4022 42.1344 17.4398 42.0413L17.5012 41.9067L17.5269 41.8532L17.5448 41.8176L17.6972 41.5186C18.0932 40.7266 18.5308 39.9584 18.9723 39.198C19.4139 38.4377 19.8732 37.6913 20.3583 36.9507L22.0057 38.016Z" fill="#FF8B7B"/>
<path d="M27.2446 32.5334C27.209 32.6304 27.2308 32.7314 27.2941 32.7591C27.3575 32.7868 27.4387 32.7274 27.4763 32.6284C27.5139 32.5294 27.4902 32.4304 27.4268 32.4027C27.3634 32.375 27.2823 32.4344 27.2446 32.5334Z" fill="#263238"/>
<path d="M27.221 32.7294C27.2253 33.0797 27.2759 33.4279 27.3715 33.7649C27.286 33.7853 27.1972 33.7864 27.1112 33.7683C27.0253 33.7501 26.9444 33.7131 26.8745 33.66L27.221 32.7294Z" fill="#FF5652"/>
<path d="M27.607 31.9552C27.5942 31.9529 27.5825 31.9466 27.5733 31.9374C27.514 31.8887 27.4438 31.8549 27.3688 31.8387C27.2937 31.8225 27.2159 31.8244 27.1417 31.8443C27.1338 31.8464 27.1255 31.8469 27.1174 31.8457C27.1093 31.8445 27.1015 31.8417 27.0945 31.8374C27.0875 31.8332 27.0814 31.8276 27.0766 31.821C27.0717 31.8143 27.0683 31.8068 27.0665 31.7988C27.0629 31.7831 27.0657 31.7665 27.0742 31.7528C27.0827 31.7391 27.0963 31.7293 27.112 31.7255C27.2062 31.7003 27.3052 31.6984 27.4003 31.7197C27.4955 31.7411 27.5841 31.7852 27.6585 31.8483C27.6642 31.854 27.6688 31.8608 27.6719 31.8683C27.675 31.8757 27.6766 31.8838 27.6766 31.8919C27.6766 31.9 27.675 31.908 27.6719 31.9154C27.6688 31.9229 27.6642 31.9297 27.6585 31.9354C27.652 31.9425 27.644 31.948 27.6351 31.9514C27.6262 31.9549 27.6165 31.9562 27.607 31.9552Z" fill="#263238"/>
<path d="M23.6348 32.7274C23.5101 33.7927 23.714 35.1351 22.9854 35.6697C22.9854 35.6697 23.1378 36.6597 24.8901 36.931C26.8167 37.2161 25.9158 36.1053 25.9158 36.1053C24.8921 35.6954 25.005 34.9173 25.2683 34.2065L23.6348 32.7274Z" fill="#FF8B7B"/>
<path d="M22.3738 36.3389C22.348 35.8479 22.3738 35.1074 22.6787 35.0005C23.0113 34.8836 24.9775 35.0401 25.9635 35.933C25.7378 36.3783 25.6224 36.8713 25.6269 37.3705L22.3738 36.3389Z" fill="#263238"/>
<path d="M16.3485 80.5009C16.1702 80.4861 15.9966 80.4363 15.8377 80.3543C15.8321 80.3517 15.8275 80.3474 15.8243 80.3421C15.8212 80.3369 15.8196 80.3308 15.8198 80.3246C15.8203 80.3189 15.8224 80.3134 15.8259 80.3088C15.8294 80.3043 15.8342 80.3008 15.8396 80.2989C15.8575 80.2989 16.2535 80.1405 16.4336 80.2256C16.4531 80.235 16.4703 80.2482 16.4843 80.2646C16.4983 80.281 16.5087 80.3001 16.5148 80.3207C16.5259 80.3448 16.529 80.3718 16.5236 80.3978C16.5183 80.4238 16.5048 80.4474 16.4851 80.4652C16.4455 80.4935 16.3969 80.5062 16.3485 80.5009ZM15.9307 80.3306C16.1129 80.4118 16.3723 80.4751 16.4416 80.4177C16.4416 80.4177 16.4693 80.3959 16.4416 80.3385C16.4377 80.326 16.4313 80.3145 16.4228 80.3046C16.4143 80.2948 16.4038 80.2867 16.3921 80.2811C16.2367 80.2536 16.0767 80.2708 15.9307 80.3306Z" fill="#407BFF"/>
<path d="M15.8518 80.3583C15.8435 80.358 15.8357 80.3544 15.83 80.3484C15.8272 80.3439 15.8257 80.3388 15.8257 80.3335C15.8257 80.3283 15.8272 80.3231 15.83 80.3187C15.83 80.3028 15.9409 79.9425 16.1151 79.8573C16.1366 79.8475 16.1599 79.8425 16.1834 79.8425C16.207 79.8425 16.2303 79.8475 16.2517 79.8573C16.2749 79.8629 16.2954 79.8765 16.3095 79.8957C16.3237 79.9149 16.3305 79.9385 16.329 79.9623C16.329 80.1108 16.0102 80.3246 15.8676 80.3583H15.8518ZM16.1844 79.9009C16.1666 79.9011 16.149 79.9051 16.1329 79.9128C16.0204 80.0078 15.9396 80.1349 15.9013 80.2771C16.0498 80.2098 16.2537 80.0415 16.2597 79.9524C16.2597 79.9524 16.2597 79.9227 16.222 79.9088C16.2102 79.9035 16.1974 79.9008 16.1844 79.9009Z" fill="#407BFF"/>
<path d="M26.3022 81.077C26.1694 81.0765 26.0368 81.0639 25.9062 81.0394C25.9006 81.0373 25.8958 81.0335 25.8924 81.0285C25.889 81.0236 25.8872 81.0177 25.8872 81.0117C25.8872 81.0057 25.889 80.9998 25.8924 80.9949C25.8958 80.9899 25.9006 80.9861 25.9062 80.984C25.9716 80.9444 26.5497 80.6137 26.6883 80.8434C26.7024 80.8634 26.7099 80.8873 26.7099 80.9117C26.7099 80.9362 26.7024 80.96 26.6883 80.98C26.6289 81.0533 26.4686 81.077 26.3022 81.077ZM25.9993 80.9939C26.2448 81.0295 26.5755 81.0236 26.6309 80.9444C26.6309 80.9444 26.6487 80.9186 26.6309 80.8751C26.5438 80.7444 26.1914 80.8929 25.9993 80.9939Z" fill="#407BFF"/>
<path d="M25.9063 81.0414C25.9012 81.0434 25.8955 81.0434 25.8904 81.0414C25.8858 81.0385 25.882 81.0344 25.8796 81.0295C25.8772 81.0246 25.8761 81.0191 25.8766 81.0137C25.8817 80.8308 25.9456 80.6545 26.0587 80.5108C26.0822 80.491 26.1093 80.4761 26.1385 80.467C26.1677 80.4578 26.1985 80.4545 26.229 80.4573C26.3161 80.4672 26.3419 80.5107 26.3478 80.5464C26.3716 80.6969 26.0766 80.9721 25.9201 81.0434L25.9063 81.0414ZM26.2053 80.5127C26.1661 80.5129 26.1282 80.5269 26.0983 80.5523C26.007 80.6651 25.953 80.8035 25.9439 80.9483C26.1003 80.8513 26.3023 80.6335 26.2864 80.5424C26.2864 80.5424 26.2864 80.5108 26.2231 80.5048L26.2053 80.5127Z" fill="#407BFF"/>
<path d="M24.4746 81.0097H25.7774L25.7913 77.9902H24.4865L24.4746 81.0097Z" fill="#FF8B7B"/>
<path d="M14.3765 80.0752L15.5981 80.3583L16.6238 77.3725L15.4021 77.0893L14.3765 80.0752Z" fill="#FF8B7B"/>
<path d="M15.7883 80.1563L14.3686 79.794C14.3439 79.787 14.3175 79.7892 14.2942 79.8001C14.2709 79.811 14.2524 79.8299 14.2419 79.8534L13.7528 80.9246C13.741 80.9513 13.7352 80.9802 13.7359 81.0094C13.7366 81.0386 13.7437 81.0673 13.7567 81.0934C13.7698 81.1195 13.7885 81.1424 13.8114 81.1605C13.8344 81.1785 13.861 81.1913 13.8895 81.1978C14.3884 81.3146 14.6359 81.3463 15.2596 81.5027C15.6437 81.5998 16.4278 81.8393 16.9585 81.972C17.4891 82.1047 17.6693 81.5918 17.4614 81.4909C16.5328 81.0295 16.2298 80.6414 15.9764 80.2791C15.93 80.2174 15.8635 80.1739 15.7883 80.1563Z" fill="#263238"/>
<path d="M25.7634 80.8592H24.3398C24.3141 80.8592 24.2892 80.868 24.2694 80.8843C24.2495 80.9005 24.2359 80.9232 24.2309 80.9483L24.019 82.1066C24.014 82.1353 24.0155 82.1647 24.0232 82.1928C24.0309 82.2208 24.0447 82.2468 24.0636 82.2689C24.0825 82.2911 24.1061 82.3087 24.1326 82.3207C24.1591 82.3327 24.1879 82.3387 24.217 82.3383C24.7298 82.3383 25.4703 82.3007 26.1158 82.3007C26.8722 82.3007 26.886 82.3403 27.7711 82.3403C28.3057 82.3403 28.4344 81.7997 28.2087 81.7463C27.1791 81.5245 26.985 81.5007 26.0822 80.9543C25.9866 80.894 25.8763 80.8612 25.7634 80.8592Z" fill="#263238"/>
<path d="M21.459 35.5806C20.2195 35.6796 18.4712 38.7882 18.4712 38.7882L20.7165 40.8217C21.4158 40.0389 22.052 39.202 22.6193 38.3189C23.5004 36.9072 22.7262 35.4796 21.459 35.5806Z" fill="#407BFF"/>
<path opacity="0.6" d="M21.459 35.5806C20.2195 35.6796 18.4712 38.7882 18.4712 38.7882L20.7165 40.8217C21.4158 40.0389 22.052 39.202 22.6193 38.3189C23.5004 36.9072 22.7262 35.4796 21.459 35.5806Z" fill="white"/>
<path opacity="0.2" d="M22.0924 37.818L20.6094 40.7207L20.7143 40.8177C20.7143 40.8177 21.2885 40.19 21.9281 39.3248L22.0924 37.818Z" fill="black"/>
<path d="M27.6704 42.5502C27.4466 43.9877 27.0922 45.7657 26.5477 47.9556L19.6514 46.926C19.7147 45.936 20.7701 41.5226 20.5622 36.7844C20.5548 36.6266 20.58 36.469 20.6361 36.3214C20.6922 36.1737 20.778 36.0392 20.8883 35.9261C20.9986 35.813 21.131 35.7238 21.2772 35.664C21.4234 35.6043 21.5804 35.5752 21.7383 35.5786C22.0788 35.5786 22.4531 35.6043 22.8213 35.64C23.8062 35.7298 24.7853 35.8752 25.7537 36.0756C26.4178 36.2436 27.0678 36.4628 27.6981 36.731C27.6981 36.731 28.1931 37.4576 27.9258 40.4811C27.8723 41.081 27.7911 41.7641 27.6704 42.5502Z" fill="#407BFF"/>
<path opacity="0.6" d="M27.6704 42.5502C27.4466 43.9877 27.0922 45.7657 26.5477 47.9556L19.6514 46.926C19.7147 45.936 20.7701 41.5226 20.5622 36.7844C20.5548 36.6266 20.58 36.469 20.6361 36.3214C20.6922 36.1737 20.778 36.0392 20.8883 35.9261C20.9986 35.813 21.131 35.7238 21.2772 35.664C21.4234 35.6043 21.5804 35.5752 21.7383 35.5786C22.0788 35.5786 22.4531 35.6043 22.8213 35.64C23.8062 35.7298 24.7853 35.8752 25.7537 36.0756C26.4178 36.2436 27.0678 36.4628 27.6981 36.731C27.6981 36.731 28.1931 37.4576 27.9258 40.4811C27.8723 41.081 27.7911 41.7641 27.6704 42.5502Z" fill="white"/>
<path opacity="0.2" d="M27.6704 42.5502C27.1101 42.1958 26.5854 40.5702 26.821 39.7129L27.9258 40.4851C27.8724 41.081 27.7912 41.7641 27.6704 42.5502Z" fill="black"/>
<path d="M26.1198 37.62C25.7634 38.808 27.9216 42.3066 27.9216 42.3066L30.4956 40.9602C30.117 39.8637 29.6092 38.8162 28.9829 37.8398C27.9513 36.3211 26.5317 36.2775 26.1198 37.62Z" fill="#407BFF"/>
<path opacity="0.6" d="M26.1198 37.62C25.7634 38.808 27.9216 42.3066 27.9216 42.3066L30.4956 40.9602C30.117 39.8637 29.6092 38.8162 28.9829 37.8398C27.9513 36.3211 26.5317 36.2775 26.1198 37.62Z" fill="white"/>
<path opacity="0.2" d="M25.7892 77.9922L25.7833 79.5485H24.4805L24.4864 77.9922H25.7892Z" fill="black"/>
<path opacity="0.2" d="M15.4022 77.0913L16.6239 77.3725L16.0932 78.9129L14.8735 78.6298L15.4022 77.0913Z" fill="black"/>
<path d="M24.0867 30.9751C23.7085 32.2166 23.4253 32.9214 23.7976 33.7926C23.9131 34.0779 24.1047 34.3259 24.3515 34.5097C24.5983 34.6935 24.8909 34.8061 25.1972 34.8351C25.5036 34.8641 25.812 34.8084 26.0889 34.6742C26.3658 34.5399 26.6006 34.3323 26.7676 34.0738C27.4289 33.0838 27.9358 31.2266 26.9478 30.2583C26.7404 30.0423 26.4797 29.885 26.192 29.8022C25.9042 29.7194 25.5997 29.7141 25.3093 29.7868C25.0189 29.8596 24.7528 30.0078 24.5381 30.2165C24.3234 30.4252 24.1677 30.6869 24.0867 30.9751Z" fill="#FF8B7B"/>
<path d="M26.0802 32.3393C25.9317 32.9749 25.5456 34.1213 24.5952 34.254C24.0646 34.3273 23.1815 34.1708 23.1003 33.7432C23.0191 33.3155 23.3478 33.3729 23.2647 33.0224C23.1815 32.672 22.7479 31.4384 23.2409 30.5752C22.5558 30.6326 23.0251 29.6168 24.2547 29.3872C23.8745 29.2387 24.0567 28.1992 25.9535 28.6942C26.8406 28.9219 27.4999 29.2703 27.5791 29.7475C28.3869 30.0881 28.6008 30.9454 28.0998 31.2583C27.5989 31.5711 26.8742 31.2187 26.8742 31.2187C26.8742 31.2187 27.2168 33.0323 26.0802 32.3393Z" fill="#263238"/>
<path d="M25.5637 32.2423C25.5463 32.5274 25.6336 32.809 25.8092 33.0343C26.0448 33.3353 26.124 33.3373 26.2211 33.0026C26.3102 32.7017 26.526 32.0285 26.2112 31.8503C25.8963 31.6721 25.5914 31.8958 25.5637 32.2423Z" fill="#FF8B7B"/>
<path d="M24.1022 47.5913C24.1022 47.5913 23.031 57.816 22.3736 61.5463C21.641 65.633 16.7742 78.7723 16.7742 78.7723L14.4536 78.1981C15.6416 73.6441 17.4018 65.1638 18.473 61.9166C19.2809 56.9804 18.473 50.7751 19.661 46.93L24.1022 47.5913Z" fill="#263238"/>
<path d="M17.3151 78.012L16.8874 78.8495L14.2817 78.1942L14.4976 77.4022L17.3151 78.012Z" fill="#407BFF"/>
<path opacity="0.2" d="M23.4409 51.579C23.5147 51.5643 23.5908 51.5643 23.6646 51.579C23.3221 54.6322 22.835 58.707 22.4509 61.0454C22.1301 57.6477 21.8331 51.8958 23.4409 51.579Z" fill="black"/>
<path d="M26.5478 47.9556C26.5478 47.9556 27.0884 58.8812 27.1676 62.8551C27.2488 66.9893 26.2588 79.2475 26.2588 79.2475H24.0491C24.0491 79.2475 23.2155 67.8803 23.665 62.3363C23.1323 58.113 22.0156 47.2883 22.0156 47.2883L26.5478 47.9556Z" fill="#263238"/>
<path d="M34.5212 45.9954C34.1619 45.9656 33.8006 46.017 33.4639 46.1459L33.3035 46.4112C33.2723 46.4637 33.2534 46.5226 33.2481 46.5834C33.2428 46.6443 33.2514 46.7055 33.2731 46.7626C33.2948 46.8197 33.3291 46.8712 33.3734 46.9132C33.4178 46.9552 33.471 46.9866 33.5292 47.0052L34.3034 47.2527L34.6816 47.3675C34.7612 47.3921 34.8465 47.3911 34.9254 47.3644C35.0043 47.3377 35.0728 47.2869 35.1211 47.219L35.2835 46.9933C35.3418 46.9136 35.3682 46.815 35.3576 46.7169C35.347 46.6187 35.3001 46.528 35.2261 46.4627L34.8776 46.1478C34.7783 46.06 34.6533 46.0065 34.5212 45.9954Z" fill="#FF8B7B"/>
<path d="M26.6484 78.3664L26.5594 79.2832H23.8725L23.7695 78.4654L26.6484 78.3664Z" fill="#407BFF"/>
</svg>
