<svg width="113" height="87" viewBox="0 0 113 87" fill="none" xmlns="http://www.w3.org/2000/svg">
<g filter="url(#filter0_dd_43_26208)">
<path d="M98.4786 75.1329H91.5234V75.1854H98.4786V75.1329Z" fill="#EBEBEB"/>
<path d="M73.5563 75.7041H71.7314V75.7566H73.5563V75.7041Z" fill="#EBEBEB"/>
<path d="M91.3141 73.1841H87.2842V73.2366H91.3141V73.1841Z" fill="#EBEBEB"/>
<path d="M24.0865 73.5369H15.0166V73.5894H24.0865V73.5369Z" fill="#EBEBEB"/>
<path d="M27.2868 73.5369H25.9575V73.5894H27.2868V73.5369Z" fill="#EBEBEB"/>
<path d="M51.2812 74.4231H31.6084V74.4756H51.2812V74.4231Z" fill="#EBEBEB"/>
<path d="M54.0646 62.388H13.5136C13.1955 62.388 12.8905 62.2617 12.6657 62.0368C12.4408 61.8119 12.3145 61.5069 12.3145 61.1889V4.1886C12.3172 3.8724 12.4448 3.5701 12.6694 3.34749C12.8939 3.12488 13.1973 2.99999 13.5136 3H54.0646C54.222 3 54.378 3.03102 54.5234 3.09128C54.6689 3.15154 54.8011 3.23986 54.9124 3.35121C55.0238 3.46256 55.1121 3.59474 55.1724 3.74022C55.2326 3.88571 55.2637 4.04163 55.2637 4.1991V61.1889C55.2637 61.3464 55.2326 61.5023 55.1724 61.6478C55.1121 61.7933 55.0238 61.9254 54.9124 62.0368C54.8011 62.1481 54.6689 62.2365 54.5234 62.2967C54.378 62.357 54.222 62.388 54.0646 62.388ZM13.5136 3.042C13.2096 3.04256 12.9183 3.16354 12.7034 3.37844C12.4885 3.59335 12.3675 3.88467 12.367 4.1886V61.1889C12.3675 61.4928 12.4885 61.7841 12.7034 61.9991C12.9183 62.214 13.2096 62.3349 13.5136 62.3355H54.0646C54.3685 62.3349 54.6598 62.214 54.8747 61.9991C55.0896 61.7841 55.2106 61.4928 55.2112 61.1889V4.1886C55.2106 3.88467 55.0896 3.59335 54.8747 3.37844C54.6598 3.16354 54.3685 3.04256 54.0646 3.042H13.5136Z" fill="#EBEBEB"/>
<path d="M99.4869 62.388H58.9359C58.6179 62.388 58.3129 62.2617 58.088 62.0368C57.8631 61.8119 57.7368 61.5069 57.7368 61.1889V4.1886C57.7396 3.8724 57.8671 3.5701 58.0917 3.34749C58.3163 3.12488 58.6197 2.99999 58.9359 3H99.4869C99.8049 3 100.11 3.12633 100.335 3.35121C100.56 3.57608 100.686 3.88108 100.686 4.1991V61.1889C100.686 61.5069 100.56 61.8119 100.335 62.0368C100.11 62.2617 99.8049 62.388 99.4869 62.388ZM58.9359 3.042C58.632 3.04256 58.3407 3.16354 58.1258 3.37844C57.9109 3.59335 57.7899 3.88467 57.7893 4.1886V61.1889C57.7899 61.4928 57.9109 61.7841 58.1258 61.9991C58.3407 62.214 58.632 62.3349 58.9359 62.3355H99.4869C99.7908 62.3349 100.082 62.214 100.297 61.9991C100.512 61.7841 100.633 61.4928 100.634 61.1889V4.1886C100.633 3.88467 100.512 3.59335 100.297 3.37844C100.082 3.16354 99.7908 3.04256 99.4869 3.042H58.9359Z" fill="#EBEBEB"/>
<path d="M109 71.754H4V71.8065H109V71.754Z" fill="#EBEBEB"/>
<path d="M46.8214 6.4377H31.8589V57.1968H46.8214V6.4377Z" fill="#FAFAFA"/>
<path opacity="0.1" d="M46.7916 6.4377H31.8291V57.1968H46.7916V6.4377Z" fill="white"/>
<g opacity="0.3">
<path d="M45.33 6.4377H40.5588L35.3403 57.1968H40.1094L45.33 6.4377Z" fill="white"/>
</g>
<path d="M46.9489 5.79511H31.7344V7.08241H46.9489V5.79511Z" fill="#E0E0E0"/>
<path d="M46.9489 56.7537H31.7344V58.041H46.9489V56.7537Z" fill="#EBEBEB"/>
<path d="M47.5393 59.1393H31.0459V4.53931H47.5393V59.1393ZM32.3038 57.8793H46.2814V5.79931H32.3038V57.8793Z" fill="#EBEBEB"/>
<path d="M30.523 6.4377H15.5605V57.1968H30.523V6.4377Z" fill="#FAFAFA"/>
<path d="M28.268 27.9333H16.6865V37.6521H28.268V27.9333Z" fill="#E6E6E6"/>
<path d="M18.9098 29.145H17.4272V30.6276H18.9098V29.145Z" fill="#FAFAFA"/>
<path d="M21.7829 29.145H20.3003V30.6276H21.7829V29.145Z" fill="#FAFAFA"/>
<path d="M24.6559 29.145H23.1733V30.6276H24.6559V29.145Z" fill="#FAFAFA"/>
<path d="M27.5261 29.145H26.0435V30.6276H27.5261V29.145Z" fill="#FAFAFA"/>
<path d="M18.9098 31.8393H17.4272V33.3219H18.9098V31.8393Z" fill="#FAFAFA"/>
<path d="M21.7829 31.8393H20.3003V33.3219H21.7829V31.8393Z" fill="#FAFAFA"/>
<path d="M24.6559 31.8393H23.1733V33.3219H24.6559V31.8393Z" fill="#FAFAFA"/>
<path d="M27.5261 31.8393H26.0435V33.3219H27.5261V31.8393Z" fill="#E6E6E6"/>
<path d="M18.9098 34.5315H17.4272V36.0141H18.9098V34.5315Z" fill="#E6E6E6"/>
<path d="M21.7829 34.5315H20.3003V36.0141H21.7829V34.5315Z" fill="#E6E6E6"/>
<path d="M24.6559 34.5315H23.1733V36.0141H24.6559V34.5315Z" fill="#FAFAFA"/>
<path d="M27.5261 34.5315H26.0435V36.0141H27.5261V34.5315Z" fill="#E6E6E6"/>
<path d="M28.268 37.5303H16.6865V47.2491H28.268V37.5303Z" fill="#E6E6E6"/>
<path d="M18.9098 38.7399H17.4272V40.2225H18.9098V38.7399Z" fill="#FAFAFA"/>
<path d="M21.7829 38.7399H20.3003V40.2225H21.7829V38.7399Z" fill="#FAFAFA"/>
<path d="M24.6559 38.7399H23.1733V40.2225H24.6559V38.7399Z" fill="#FAFAFA"/>
<path d="M27.5261 38.7399H26.0435V40.2225H27.5261V38.7399Z" fill="#FAFAFA"/>
<path d="M18.9098 41.4342H17.4272V42.9168H18.9098V41.4342Z" fill="#FAFAFA"/>
<path d="M21.7829 41.4342H20.3003V42.9168H21.7829V41.4342Z" fill="#FAFAFA"/>
<path d="M24.6559 41.4342H23.1733V42.9168H24.6559V41.4342Z" fill="#FAFAFA"/>
<path d="M27.5261 41.4342H26.0435V42.9168H27.5261V41.4342Z" fill="#E6E6E6"/>
<path d="M18.9098 44.1285H17.4272V45.6111H18.9098V44.1285Z" fill="#E6E6E6"/>
<path d="M21.7829 44.1285H20.3003V45.6111H21.7829V44.1285Z" fill="#E6E6E6"/>
<path d="M24.6559 44.1285H23.1733V45.6111H24.6559V44.1285Z" fill="#FAFAFA"/>
<path d="M27.5261 44.1285H26.0435V45.6111H27.5261V44.1285Z" fill="#E6E6E6"/>
<path d="M28.268 47.1252H16.6865V56.844H28.268V47.1252Z" fill="#E6E6E6"/>
<path d="M18.9098 48.3369H17.4272V49.8195H18.9098V48.3369Z" fill="#FAFAFA"/>
<path d="M21.7829 48.3369H20.3003V49.8195H21.7829V48.3369Z" fill="#FAFAFA"/>
<path d="M24.6559 48.3369H23.1733V49.8195H24.6559V48.3369Z" fill="#FAFAFA"/>
<path d="M27.5261 48.3369H26.0435V49.8195H27.5261V48.3369Z" fill="#FAFAFA"/>
<path d="M18.9098 51.0312H17.4272V52.5138H18.9098V51.0312Z" fill="#FAFAFA"/>
<path d="M21.7829 51.0312H20.3003V52.5138H21.7829V51.0312Z" fill="#FAFAFA"/>
<path d="M24.6559 51.0312H23.1733V52.5138H24.6559V51.0312Z" fill="#FAFAFA"/>
<path d="M27.5261 51.0312H26.0435V52.5138H27.5261V51.0312Z" fill="#E6E6E6"/>
<path d="M18.9098 53.7255H17.4272V55.2081H18.9098V53.7255Z" fill="#E6E6E6"/>
<path d="M21.7829 53.7255H20.3003V55.2081H21.7829V53.7255Z" fill="#E6E6E6"/>
<path d="M24.6559 53.7255H23.1733V55.2081H24.6559V53.7255Z" fill="#FAFAFA"/>
<path d="M27.5261 53.7255H26.0435V55.2081H27.5261V53.7255Z" fill="#E6E6E6"/>
<path opacity="0.1" d="M30.3253 6.4377H15.3628V57.1968H30.3253V6.4377Z" fill="white"/>
<g opacity="0.3">
<path d="M29.0317 6.4377H24.2605L19.042 57.1968H23.8111L29.0317 6.4377Z" fill="white"/>
</g>
<path d="M30.651 5.79511H15.4365V7.08241H30.651V5.79511Z" fill="#E0E0E0"/>
<path d="M30.651 56.7537H15.4365V58.041H30.651V56.7537Z" fill="#EBEBEB"/>
<path d="M31.241 59.1393H14.7476V4.53931H31.241V59.1393ZM16.0055 57.8793H29.9831V5.79931H16.0055V57.8793Z" fill="#EBEBEB"/>
<path d="M53.6376 65.9181L53.4696 65.9391C53.4696 65.853 52.4385 57.3102 54.5448 50.3298C56.6448 43.3998 55.1958 38.9688 55.1748 38.9268L55.3365 38.8722C55.3512 38.9163 56.8065 43.3893 54.7065 50.3781C52.6107 57.3249 53.6271 65.8341 53.6376 65.9181Z" fill="#E0E0E0"/>
<path d="M55.4811 39.8781C55.1143 39.4412 54.6165 39.1342 54.0615 39.0024L54.1014 38.8365C54.6919 38.9767 55.2215 39.3037 55.6113 39.7689L55.4811 39.8781Z" fill="#E0E0E0"/>
<path d="M56.2028 40.5844L55.7183 40.8581L55.8019 41.0062L56.2864 40.7324L56.2028 40.5844Z" fill="#E0E0E0"/>
<path d="M55.2989 44.5233C54.8764 43.5603 54.0941 42.8007 53.1191 42.4065L53.1821 42.2511C54.1962 42.6619 55.0099 43.4523 55.4501 44.454L55.2989 44.5233Z" fill="#E0E0E0"/>
<path d="M54.8453 49.8594H54.6752C54.6696 49.5158 54.588 49.1778 54.4362 48.8695C54.2844 48.5613 54.0662 48.2904 53.7974 48.0765L53.9024 47.9442C54.1911 48.1741 54.4254 48.465 54.5884 48.7962C54.7514 49.1273 54.8391 49.4904 54.8453 49.8594Z" fill="#E0E0E0"/>
<path d="M54.4672 51.2244L54.3076 51.1635C54.3948 50.9469 54.5255 50.7505 54.6917 50.5865C54.8578 50.4225 55.0559 50.2944 55.2736 50.2101L55.3324 50.3697C55.1371 50.445 54.9595 50.5597 54.8106 50.7068C54.6618 50.8538 54.5448 51.0301 54.4672 51.2244Z" fill="#E0E0E0"/>
<path d="M53.3691 59.8827L53.2368 59.7756C53.4468 59.5257 53.6001 58.5786 53.6841 58.0704C53.703 57.9486 53.7198 57.8457 53.7345 57.7701L53.9025 57.8016C53.8878 57.8751 53.871 57.978 53.85 58.0977C53.7261 58.86 53.5854 59.6202 53.3691 59.8827Z" fill="#E0E0E0"/>
<path d="M53.27 62.6022C53.1518 62.2695 52.9317 61.9824 52.641 61.7818C52.3504 61.5813 52.0039 61.4774 51.6509 61.485V61.3149C52.0413 61.3056 52.4246 61.42 52.746 61.6418C53.0674 61.8636 53.3103 62.1814 53.4401 62.5497L53.27 62.6022Z" fill="#E0E0E0"/>
<path d="M54.5657 64.3787L53.3706 65.7159L53.4974 65.8292L54.6926 64.4921L54.5657 64.3787Z" fill="#E0E0E0"/>
<path d="M55.4099 55.6575C55.6808 56.5332 53.7929 58.2027 53.7929 58.2027C53.7929 58.2027 51.2918 57.8898 51.0209 57.012C50.75 56.1342 51.3842 54.702 52.5959 54.3282C53.8076 53.9544 55.139 54.7818 55.4099 55.6575Z" fill="#F0F0F0"/>
<path d="M57.5061 45.0231C57.2667 45.9534 55.4775 46.6149 55.4775 46.6149C55.4775 46.6149 54.2301 45.1722 54.4695 44.2419C54.7089 43.3116 55.698 42.2847 56.5359 42.501C57.3738 42.7173 57.7455 44.0928 57.5061 45.0231Z" fill="#EBEBEB"/>
<path d="M50.33 58.9293C51.4514 59.3682 52.1402 61.3527 52.1402 61.3527C52.1402 61.3527 50.2901 62.3502 49.1666 61.9134C48.0431 61.4766 46.8566 60.2334 47.1758 59.4207C47.495 58.608 49.2065 58.4925 50.33 58.9293Z" fill="#F5F5F5"/>
<path d="M52.7917 48.003C53.0182 48.1939 53.2781 48.3413 53.5582 48.4377C53.6994 48.4828 53.8502 48.4887 53.9945 48.4547C54.1387 48.4206 54.271 48.348 54.3772 48.2445C54.6187 47.9673 54.5536 47.5389 54.4024 47.205C54.1021 46.5435 52.9954 45.4221 52.1449 45.735C50.9185 46.2075 52.2436 47.5977 52.7917 48.003Z" fill="#E6E6E6"/>
<path d="M55.3029 49.6893C55.1412 49.8888 54.9711 50.1387 55.0593 50.3802C55.1092 50.4827 55.1919 50.5655 55.2942 50.6157C55.3965 50.6659 55.5126 50.6806 55.6242 50.6574C55.8462 50.6056 56.0536 50.5044 56.2311 50.3613C56.6637 50.0589 57.552 49.4289 56.985 48.8388C56.418 48.2487 55.641 49.2672 55.3029 49.6893Z" fill="#EBEBEB"/>
<path d="M51.67 41.2893C51.5768 41.2942 51.4875 41.3286 51.4151 41.3874C51.3426 41.4463 51.2907 41.5266 51.2668 41.6169C51.229 41.8269 51.4075 42.0201 51.5797 42.1524C51.9997 42.4842 53.3017 43.3788 53.5915 42.5157C53.8729 41.7009 52.2496 41.22 51.67 41.2893Z" fill="#E0E0E0"/>
<path d="M54.0616 38.4501C53.7949 38.4753 53.5282 38.3787 53.2615 38.3955C52.9948 38.4123 52.6966 38.6265 52.7575 38.889C52.8184 39.1515 53.1124 39.2103 53.3581 39.2271C53.7802 39.2523 54.2037 39.2226 54.6181 39.1389C54.7165 39.1296 54.8078 39.0839 54.8743 39.0108C54.9814 38.8512 54.8092 38.637 54.6244 38.5908C54.4341 38.5664 54.2469 38.522 54.0658 38.4585L54.0616 38.4501Z" fill="#E6E6E6"/>
<path d="M56.6681 40.2855C56.9369 40.2855 57.1952 40.1784 57.464 40.1784C57.7328 40.1784 58.0415 40.3716 57.9995 40.6362C57.9575 40.9008 57.6656 40.9827 57.4199 41.0142C57.0017 41.0697 56.578 41.0697 56.1599 41.0142C56.0607 41.012 55.9661 40.9722 55.8953 40.9029C55.7777 40.7496 55.9352 40.527 56.1053 40.4577C56.2943 40.4211 56.4788 40.3641 56.6555 40.2876L56.6681 40.2855Z" fill="#F0F0F0"/>
<path d="M56.4053 60.0171C56.4651 59.9536 56.5455 59.9134 56.6321 59.9037C56.6893 59.9102 56.7427 59.9357 56.7838 59.976C56.8249 60.0163 56.8513 60.0692 56.8589 60.1263C56.8712 60.2407 56.8568 60.3565 56.8169 60.4644C56.6342 61.0713 54.5972 65.4708 54.1268 64.6812C53.8496 64.2129 54.5321 62.6673 54.7337 62.2284C55.1215 61.3773 55.6922 60.6223 56.4053 60.0171Z" fill="#F0F0F0"/>
<path d="M55.1851 38.616C55.3162 38.2392 55.5426 37.9028 55.8424 37.6395C56.1658 37.4064 56.6824 37.3896 56.9134 37.7109C57.1759 38.07 56.9134 38.616 56.5123 38.8071C56.1112 38.9982 55.6429 38.9394 55.2019 38.8785C55.2019 38.8134 55.2019 38.7483 55.2019 38.6832L55.1851 38.616Z" fill="#E6E6E6"/>
<path d="M56.6093 71.7855C54.427 72.1572 52.1976 72.1572 50.0153 71.7855L47.4512 64.2255H59.1755L56.6093 71.7855Z" fill="#F0F0F0"/>
<path d="M96.5197 31.3941C96.4746 31.3876 96.4302 31.3764 96.3874 31.3605C95.5243 31.0749 94.2139 29.7267 93.0967 27.8955C91.9795 26.0643 91.3894 24.273 91.5343 23.3721C91.5509 23.2183 91.6114 23.0725 91.7086 22.9521C91.7126 22.9451 91.7176 22.9388 91.7233 22.9332C91.7534 22.897 91.7896 22.8664 91.8304 22.8429C91.8738 22.8172 91.9204 22.7974 91.969 22.7841C92.12 22.7531 92.2768 22.7662 92.4205 22.8219C92.6071 22.8837 92.7845 22.9706 92.9476 23.0802C93.0694 23.16 93.1975 23.2545 93.3298 23.3616C93.4033 23.4225 93.481 23.4876 93.5587 23.5569C95.2343 25.1988 96.4724 27.2339 97.1602 29.4768C97.1854 29.5776 97.2085 29.6868 97.2295 29.7771C97.2667 29.9446 97.2927 30.1144 97.3072 30.2853C97.3277 30.4771 97.3206 30.6709 97.2862 30.8607C97.265 31.0202 97.191 31.168 97.0762 31.2807C97.0527 31.3087 97.0242 31.3322 96.9922 31.35C96.9636 31.3679 96.9325 31.3814 96.8998 31.3899C96.7761 31.4273 96.6443 31.4287 96.5197 31.3941Z" fill="#EBEBEB"/>
<path d="M96.5197 31.3941L96.4483 31.2786L94.0354 27.3075C93.9724 27.2004 93.9073 27.0975 93.8485 26.9967L91.5952 23.2902C91.6102 23.1724 91.6487 23.0588 91.7086 22.9563C91.7295 22.9197 91.7549 22.8858 91.7842 22.8555L92.0299 22.7064L92.767 22.2591L93.103 22.8051L93.1618 22.9038L93.3907 23.2839L93.5587 23.5611L97.1602 29.481L97.2904 29.691L97.5424 30.111L97.6012 30.2076L97.9372 30.7557L97.0825 31.2744L96.9061 31.3836C96.781 31.4242 96.6468 31.4279 96.5197 31.3941Z" fill="#EBEBEB"/>
<path d="M92.7692 22.2549C92.0426 22.698 92.6075 24.9597 94.0292 27.3075C95.4509 29.6553 97.2023 31.2009 97.9289 30.7599C98.6555 30.3189 98.0906 28.0551 96.6689 25.7073C95.2472 23.3595 93.4958 21.8139 92.7692 22.2549Z" fill="#EBEBEB"/>
<path d="M92.7692 22.2549C92.0426 22.698 92.6075 24.9597 94.0292 27.3075C95.4509 29.6553 97.2023 31.2009 97.9289 30.7599C98.6555 30.3189 98.0906 28.0551 96.6689 25.7073C95.2472 23.3595 93.4958 21.8139 92.7692 22.2549Z" fill="#FAFAFA"/>
<path d="M93.1493 22.7652C93.103 22.792 93.0668 22.8334 93.0464 22.8828C93.6512 22.8828 94.9196 24.2268 96.0473 26.0832C97.175 27.9396 97.7861 29.691 97.5047 30.2244C97.5577 30.2269 97.6103 30.2137 97.6559 30.1866C98.1494 29.8884 97.5488 27.9795 96.3035 25.9299C95.0582 23.8803 93.6407 22.4649 93.1493 22.7652Z" fill="#EBEBEB"/>
<path opacity="0.4" d="M93.1493 22.7652C93.103 22.792 93.0668 22.8334 93.0464 22.8828C93.6512 22.8828 94.9196 24.2268 96.0473 26.0832C97.175 27.9396 97.7861 29.691 97.5047 30.2244C97.5577 30.2269 97.6103 30.2137 97.6559 30.1866C98.1494 29.8884 97.5488 27.9795 96.3035 25.9299C95.0582 23.8803 93.6407 22.4649 93.1493 22.7652Z" fill="#EBEBEB"/>
<path d="M84.0101 11.0094C83.9998 11.039 83.9872 11.0678 83.9723 11.0955C83.6762 11.6436 82.6073 12.3702 81.2423 12.9057C79.8773 13.4412 78.5879 13.6281 77.9957 13.4223C77.8949 13.3919 77.8046 13.3337 77.7353 13.2543C77.7306 13.2513 77.727 13.2469 77.7248 13.2417C77.704 13.2167 77.6877 13.1883 77.6765 13.1577C77.6649 13.1251 77.6571 13.0913 77.6534 13.0569C77.6512 12.9513 77.6789 12.8472 77.7332 12.7566C77.7965 12.6374 77.8764 12.5278 77.9705 12.4311C78.0451 12.3516 78.1244 12.2765 78.2078 12.2064C78.2561 12.1644 78.3107 12.1203 78.3674 12.0762C79.0144 11.5985 79.7247 11.2133 80.4779 10.9317C81.2201 10.6291 82.0013 10.4333 82.7984 10.35L83.0084 10.3374C83.1259 10.3298 83.2438 10.3298 83.3612 10.3374C83.4935 10.3463 83.6237 10.3746 83.7476 10.4214C83.8519 10.4537 83.9427 10.5194 84.0059 10.6083C84.0216 10.6277 84.0337 10.6498 84.0416 10.6734C84.0498 10.695 84.0547 10.7176 84.0563 10.7406C84.0694 10.8328 84.0533 10.9268 84.0101 11.0094Z" fill="#EBEBEB"/>
<path d="M84.0098 11.0094L83.9237 11.0451L80.9501 12.2022L80.717 12.2904L77.9408 13.3719C77.864 13.3475 77.7926 13.3083 77.7308 13.2564C77.7091 13.2375 77.6894 13.2164 77.672 13.1934L77.6006 13.0086L77.3906 12.4563L77.8001 12.2946L77.8736 12.2673L78.1592 12.1581L78.3692 12.0783L82.7981 10.35L82.9619 10.287L83.2748 10.1652L83.3462 10.1379L83.7662 9.97621L84.0098 10.6146L84.0602 10.7469C84.0707 10.8375 84.0531 10.9291 84.0098 11.0094Z" fill="#EBEBEB"/>
<path d="M77.3887 12.45C77.5987 12.9939 79.1989 12.87 80.9587 12.198C82.7185 11.526 83.9701 10.518 83.758 9.97201C83.5459 9.42601 81.9499 9.53941 80.188 10.224C78.4261 10.9086 77.1766 11.9082 77.3887 12.45Z" fill="#EBEBEB"/>
<path d="M77.3887 12.45C77.5987 12.9939 79.1989 12.87 80.9587 12.198C82.7185 11.526 83.9701 10.518 83.758 9.97201C83.5459 9.42601 81.9499 9.53941 80.188 10.224C78.4261 10.9086 77.1766 11.9082 77.3887 12.45Z" fill="#FAFAFA"/>
<path d="M77.7788 12.2589C77.792 12.2926 77.8155 12.3212 77.846 12.3408C77.9195 11.9334 78.9779 11.2341 80.366 10.6944C81.7541 10.1547 83.0141 9.94889 83.3396 10.203C83.3511 10.1682 83.3511 10.1307 83.3396 10.0959C83.1968 9.72629 81.8339 9.90479 80.2988 10.5033C78.7637 11.1018 77.636 11.8893 77.7788 12.2589Z" fill="#EBEBEB"/>
<path opacity="0.4" d="M77.7788 12.2589C77.792 12.2926 77.8155 12.3212 77.846 12.3408C77.9195 11.9334 78.9779 11.2341 80.366 10.6944C81.7541 10.1547 83.0141 9.94889 83.3396 10.203C83.3511 10.1682 83.3511 10.1307 83.3396 10.0959C83.1968 9.72629 81.8339 9.90479 80.2988 10.5033C78.7637 11.1018 77.636 11.8893 77.7788 12.2589Z" fill="#EBEBEB"/>
<path d="M77.8467 12.3408C78.1764 12.5949 79.4301 12.3933 80.8224 11.8515C82.2147 11.3097 83.2752 10.6104 83.3424 10.203C83.0169 9.9489 81.7653 10.1505 80.3688 10.6944C78.9723 11.2383 77.9202 11.9334 77.8467 12.3408Z" fill="#FAFAFA"/>
<path d="M84.2597 39.9936C83.7677 39.1624 83.5332 38.2039 83.5859 37.2394C83.6385 36.275 83.9759 35.3477 84.5555 34.575C85.135 33.8023 85.9306 33.2187 86.8418 32.898C87.7529 32.5774 88.7387 32.5341 89.6744 32.7736C90.6102 33.0131 91.4539 33.5247 92.099 34.2437C92.744 34.9626 93.1614 35.8567 93.2984 36.8128C93.4354 37.769 93.2859 38.7443 92.8687 39.6155C92.4515 40.4866 91.7853 41.2146 90.9545 41.7072C89.8395 42.3677 88.5077 42.5582 87.2522 42.2369C85.9967 41.9155 84.9203 41.1086 84.2597 39.9936Z" fill="#EBEBEB"/>
<path d="M83.7558 40.2939C83.2632 39.4628 83.0282 38.5044 83.0804 37.5397C83.1325 36.575 83.4696 35.6475 84.0489 34.8744C84.6282 34.1013 85.4238 33.5173 86.335 33.1964C87.2462 32.8754 88.2321 32.8318 89.168 33.0712C90.104 33.3105 90.9479 33.822 91.5932 34.541C92.2384 35.26 92.656 36.1542 92.793 37.1105C92.9301 38.0668 92.7805 39.0423 92.3632 39.9136C91.9459 40.7848 91.2795 41.5128 90.4485 42.0054C89.3339 42.6654 88.0029 42.8559 86.7479 42.535C85.4929 42.214 84.4167 41.408 83.7558 40.2939Z" fill="#EBEBEB"/>
<path d="M83.7558 40.2939C83.2632 39.4628 83.0282 38.5044 83.0804 37.5397C83.1325 36.575 83.4696 35.6475 84.0489 34.8744C84.6282 34.1013 85.4238 33.5173 86.335 33.1964C87.2462 32.8754 88.2321 32.8318 89.168 33.0712C90.104 33.3105 90.9479 33.822 91.5932 34.541C92.2384 35.26 92.656 36.1542 92.793 37.1105C92.9301 38.0668 92.7805 39.0423 92.3632 39.9136C91.9459 40.7848 91.2795 41.5128 90.4485 42.0054C89.3339 42.6654 88.0029 42.8559 86.7479 42.535C85.4929 42.214 84.4167 41.408 83.7558 40.2939Z" fill="#FAFAFA"/>
<path d="M89.8208 40.9491C89.7043 41.0194 89.5829 41.0812 89.4575 41.1339C88.5927 41.5143 87.6136 41.5424 86.7284 41.2122C85.8432 40.8821 85.1217 40.2197 84.7171 39.3659C84.3126 38.5121 84.257 37.5343 84.5622 36.6401C84.8673 35.746 85.5092 35.0061 86.3512 34.5778C87.1933 34.1495 88.1693 34.0664 89.0716 34.3463C89.9739 34.6262 90.7316 35.247 91.1834 36.0767C91.6352 36.9065 91.7456 37.8797 91.4912 38.7895C91.2367 39.6994 90.6375 40.4741 89.8208 40.9491Z" fill="#EBEBEB"/>
<path d="M86.1811 37.9524C85.6477 37.3224 85.8493 36.5811 86.6662 35.9973L86.3407 35.4135L86.8636 35.1048L87.1891 35.6886C87.6591 35.4559 88.1766 35.3351 88.7011 35.3358L88.8481 36.1254C88.41 36.108 87.9739 36.1944 87.5755 36.3774L88.0753 37.2741C88.6738 37.1187 89.3563 36.9759 89.8414 37.5429C90.3748 38.1729 90.1669 38.9247 89.3269 39.5085L89.6524 40.0923L89.1295 40.401L88.7998 39.813C88.4273 39.993 88.0223 40.0959 87.6091 40.1154L87.4285 39.3468C87.7694 39.3483 88.1067 39.2767 88.4176 39.1368L87.8947 38.2044C87.3046 38.3535 86.6431 38.49 86.1811 37.9524ZM88.5037 38.0322L88.9237 38.7966C89.1757 38.5677 89.2198 38.3241 89.0728 38.1435C88.9552 37.9965 88.7515 37.9902 88.5037 38.0322ZM86.9245 37.3287C87.04 37.4652 87.2332 37.4778 87.4684 37.4295L87.0484 36.705C86.8216 36.9234 86.7712 37.1502 86.9245 37.3287Z" fill="#FAFAFA"/>
<path d="M94.09 13.3719C94.93 15.0729 93.9157 17.28 91.8367 18.3027C89.7577 19.3254 87.3931 18.7752 86.5552 17.0721C85.7173 15.369 86.7295 13.164 88.8085 12.1413C90.8875 11.1186 93.25 11.6709 94.09 13.3719Z" fill="#EBEBEB"/>
<path d="M93.7562 12.6936C94.5962 14.3967 93.584 16.6038 91.5029 17.6265C89.4218 18.6492 87.0593 18.0969 86.2235 16.3959C85.3877 14.6949 86.3957 12.4857 88.4768 11.4651C90.5579 10.4445 92.9204 10.9926 93.7562 12.6936Z" fill="#EBEBEB"/>
<path d="M93.7562 12.6936C94.5962 14.3967 93.584 16.6038 91.5029 17.6265C89.4218 18.6492 87.0593 18.0969 86.2235 16.3959C85.3877 14.6949 86.3957 12.4857 88.4768 11.4651C90.5579 10.4445 92.9204 10.9926 93.7562 12.6936Z" fill="#FAFAFA"/>
<path d="M92.7862 13.1031C92.8261 13.185 92.8597 13.269 92.8912 13.3467C92.8912 13.3467 92.8912 13.3593 92.8912 13.3656C93.3007 14.6046 92.5405 16.0956 91.0915 16.7991C89.6425 17.5026 88.0024 17.2191 87.2695 16.1271C87.2695 16.1271 87.2695 16.1124 87.259 16.1082C87.217 16.0368 87.1708 15.9591 87.1309 15.8772C86.5009 14.6046 87.2632 12.9372 88.8235 12.1791C90.3838 11.421 92.1604 11.8305 92.7862 13.1031Z" fill="#EBEBEB"/>
<path d="M91.0868 15.6987C90.8411 16.3287 90.2153 16.5387 89.4677 16.2342L89.1695 16.713L88.739 16.503L89.0351 16.0221C88.6824 15.8092 88.3897 15.51 88.1846 15.1527L88.7012 14.7054C88.8621 15.0105 89.0985 15.2693 89.3879 15.4572L89.8457 14.7201C89.4971 14.3841 89.1233 13.9851 89.3459 13.4055C89.5916 12.7755 90.2279 12.5655 90.986 12.8847L91.2842 12.4059L91.7147 12.6159L91.4165 13.101C91.6939 13.2709 91.9294 13.5014 92.1053 13.7751L91.6139 14.235C91.4782 14.0039 91.2905 13.8076 91.0658 13.6617L90.5891 14.4303C90.9398 14.76 91.2989 15.1485 91.0868 15.6987ZM90.2321 14.0901L90.6227 13.4601C90.356 13.3887 90.1607 13.4601 90.0851 13.647C90.0095 13.8339 90.0998 13.9389 90.2321 14.0901ZM90.3392 15.4719C90.3598 15.3958 90.3575 15.3153 90.3324 15.2406C90.3074 15.1658 90.2608 15.1002 90.1985 15.0519L89.831 15.6483C90.083 15.7197 90.2699 15.6525 90.3392 15.4719Z" fill="#FAFAFA"/>
<path d="M72.3611 12.9603C71.5505 15.0603 68.5181 15.5832 65.7104 13.8255C62.9027 12.0678 62.0375 9.09001 63.5474 7.44571C64.8515 6.01981 67.5248 6.08701 69.671 7.43101C71.8172 8.77501 73.0604 11.1564 72.3611 12.9603Z" fill="#EBEBEB"/>
<path d="M72.6513 12.2127C71.889 14.1804 68.9763 14.6361 66.261 12.9372C63.5457 11.2383 62.6679 8.4096 64.0896 6.8472C65.3223 5.4969 67.9032 5.5872 69.9969 6.9018C72.0906 8.2164 73.3128 10.5054 72.6513 12.2127Z" fill="#EBEBEB"/>
<path d="M72.6513 12.2127C71.889 14.1804 68.9763 14.6361 66.261 12.9372C63.5457 11.2383 62.6679 8.4096 64.0896 6.8472C65.3223 5.4969 67.9032 5.5872 69.9969 6.9018C72.0906 8.2164 73.3128 10.5054 72.6513 12.2127Z" fill="#FAFAFA"/>
<path d="M71.6055 11.484C71.5677 11.5666 71.5256 11.6472 71.4795 11.7255C71.4795 11.7255 71.4795 11.7381 71.4795 11.7444C70.7109 12.9204 68.7159 13.0674 66.8973 11.9313C65.0787 10.7952 64.3227 8.92409 65.0346 7.71029C65.0346 7.71029 65.0514 7.71029 65.0472 7.69349C65.0972 7.6206 65.1512 7.5505 65.2089 7.48349C66.0867 6.43349 68.0502 6.46289 69.663 7.48349C71.2758 8.50409 72.1599 10.224 71.6055 11.484Z" fill="#EBEBEB"/>
<path d="M69.7301 9.9405C70.0997 10.5159 69.8876 11.1354 69.2072 11.5638L69.4172 12.0867L68.9867 12.2967L68.7767 11.7738C68.3963 11.9336 67.9816 11.9943 67.5713 11.9502L67.5146 11.2656C67.8558 11.3171 68.2045 11.2794 68.5268 11.1564L68.2034 10.3521C67.7246 10.4361 67.1828 10.5012 66.8447 9.9783C66.4751 9.405 66.6935 8.7771 67.3928 8.3487L67.1828 7.8258L67.6133 7.6158L67.8233 8.1429C68.1249 8.02061 68.4496 7.96613 68.7746 7.9833L68.8565 8.6532C68.5901 8.62573 68.321 8.66171 68.0711 8.7582L68.4092 9.5982C68.8901 9.51 69.4088 9.4449 69.7301 9.9405ZM67.9241 9.6822L67.649 8.9976C67.439 9.1698 67.3823 9.3756 67.4852 9.5415C67.5713 9.6759 67.7288 9.6969 67.9241 9.6822ZM69.1001 10.4109C69.0203 10.2849 68.8712 10.2576 68.6801 10.2786L68.9447 10.9296C69.1547 10.77 69.2093 10.5747 69.1001 10.4109Z" fill="#FAFAFA"/>
<path d="M56.5001 81.1221C78.9874 81.1221 97.217 80.0578 97.217 78.7449C97.217 77.432 78.9874 76.3677 56.5001 76.3677C34.0128 76.3677 15.7832 77.432 15.7832 78.7449C15.7832 80.0578 34.0128 81.1221 56.5001 81.1221Z" fill="#F5F5F5"/>
<path d="M51.9517 78.7701C51.8626 78.7704 51.7743 78.753 51.6918 78.719C51.6094 78.685 51.5345 78.6351 51.4715 78.572C51.4085 78.509 51.3585 78.4341 51.3245 78.3517C51.2905 78.2693 51.2732 78.1809 51.2734 78.0918V77.4135H52.63V78.0918C52.63 78.2717 52.5586 78.4442 52.4314 78.5714C52.3042 78.6986 52.1316 78.7701 51.9517 78.7701Z" fill="#263238"/>
<path d="M75.8785 78.7701C75.7894 78.7701 75.7012 78.7525 75.6189 78.7184C75.5366 78.6844 75.4619 78.6344 75.3989 78.5714C75.3359 78.5084 75.2859 78.4337 75.2518 78.3514C75.2177 78.2691 75.2002 78.1809 75.2002 78.0918V77.4135H76.5568V78.0918C76.5571 78.1809 76.5397 78.2693 76.5057 78.3517C76.4717 78.4341 76.4218 78.509 76.3587 78.572C76.2957 78.6351 76.2208 78.685 76.1384 78.719C76.056 78.753 75.9677 78.7704 75.8785 78.7701Z" fill="#263238"/>
<path d="M88.2354 78.7701C88.1463 78.7701 88.0581 78.7525 87.9759 78.7184C87.8936 78.6844 87.8188 78.6344 87.7558 78.5714C87.6928 78.5084 87.6428 78.4337 87.6088 78.3514C87.5747 78.2691 87.5571 78.1809 87.5571 78.0918V77.4135H88.9137V78.0918C88.914 78.1809 88.8966 78.2693 88.8627 78.3517C88.8287 78.4341 88.7787 78.509 88.7157 78.572C88.6526 78.6351 88.5777 78.685 88.4953 78.719C88.4129 78.753 88.3246 78.7704 88.2354 78.7701Z" fill="#263238"/>
<path d="M89.2327 69.5427H50.0845V77.9994H89.2327V69.5427Z" fill="#407BFF"/>
<path opacity="0.3" d="M89.2327 69.5427H50.0845V77.9994H89.2327V69.5427Z" fill="white"/>
<path opacity="0.2" d="M89.195 69.5427H77.0654V78.0015H89.195V69.5427Z" fill="black"/>
<path d="M91.6436 48.4944L89.7242 65.7585C89.5961 66.9702 88.3949 67.9068 86.9396 67.9488C86.9046 67.9509 86.8696 67.9509 86.8346 67.9488H62.6363C60.9353 67.9488 59.5976 66.7392 59.7467 65.3364L61.664 48.0723C61.7942 46.8312 63.05 45.8778 64.5557 45.8778H88.8653C90.5201 45.9366 91.7801 47.121 91.6436 48.4944Z" fill="#407BFF"/>
<path opacity="0.5" d="M91.6436 48.4944L89.7242 65.7585C89.5961 66.9702 88.3949 67.9068 86.9396 67.9488C86.9046 67.9509 86.8696 67.9509 86.8346 67.9488H62.6363C60.9353 67.9488 59.5976 66.7392 59.7467 65.3364L61.664 48.0723C61.7942 46.8312 63.05 45.8778 64.5557 45.8778H88.8653C90.5201 45.9366 91.7801 47.121 91.6436 48.4944Z" fill="white"/>
<path d="M92.9729 48.4944L91.0535 65.7585C90.9254 66.9702 89.7263 67.9068 88.2689 67.9488C86.6225 67.8984 85.3478 66.7119 85.4927 65.3406L87.41 48.0765C87.5381 46.8648 88.7372 45.9282 90.1946 45.8841C91.8431 45.9366 93.1178 47.121 92.9729 48.4944Z" fill="#407BFF"/>
<path opacity="0.3" d="M92.9729 48.4944L91.0535 65.7585C90.9254 66.9702 89.7263 67.9068 88.2689 67.9488C86.6225 67.8984 85.3478 66.7119 85.4927 65.3406L87.41 48.0765C87.5381 46.8648 88.7372 45.9282 90.1946 45.8841C91.8431 45.9366 93.1178 47.121 92.9729 48.4944Z" fill="white"/>
<path d="M88.124 63.2595H71.2778C69.5856 63.2595 68.2139 64.6312 68.2139 66.3234V68.289C68.2139 69.9811 69.5856 71.3529 71.2778 71.3529H88.124C89.8161 71.3529 91.1879 69.9811 91.1879 68.289V66.3234C91.1879 64.6312 89.8161 63.2595 88.124 63.2595Z" fill="#407BFF"/>
<path opacity="0.3" d="M88.124 63.2595H71.2778C69.5856 63.2595 68.2139 64.6312 68.2139 66.3234V68.289C68.2139 69.9811 69.5856 71.3529 71.2778 71.3529H88.124C89.8161 71.3529 91.1879 69.9811 91.1879 68.289V66.3234C91.1879 64.6312 89.8161 63.2595 88.124 63.2595Z" fill="white"/>
<path d="M77.2778 63.2595H51.0551C49.3977 63.2595 48.0542 64.603 48.0542 66.2604V68.352C48.0542 70.0093 49.3977 71.3529 51.0551 71.3529H77.2778C78.9352 71.3529 80.2787 70.0093 80.2787 68.352V66.2604C80.2787 64.603 78.9352 63.2595 77.2778 63.2595Z" fill="#407BFF"/>
<path opacity="0.6" d="M77.2778 63.2595H51.0551C49.3977 63.2595 48.0542 64.603 48.0542 66.2604V68.352C48.0542 70.0093 49.3977 71.3529 51.0551 71.3529H77.2778C78.9352 71.3529 80.2787 70.0093 80.2787 68.352V66.2604C80.2787 64.603 78.9352 63.2595 77.2778 63.2595Z" fill="white"/>
<path d="M53.917 71.9199L52.5184 76.4055L50.9077 76.3005L52.0879 70.3806L53.917 71.9199Z" fill="#FF8B7B"/>
<path d="M70.8533 54.681C70.8533 54.681 67.9133 54.5802 65.7587 53.925C65.7587 53.925 64.8599 55.7835 64.1459 56.4681L63.8603 56.7411C63.8603 56.7411 55.4246 54.6894 54.2717 57.3417C53.2868 59.6034 50.7227 74.4693 50.7227 74.4693H53.5934C53.5934 74.4693 55.6115 68.1924 57.5036 63.5493C57.6044 63.3036 57.953 61.9974 57.953 61.9974C61.4075 63.4879 65.1567 64.1702 68.915 63.9924C69.755 63.9525 71.015 62.199 71.0318 59.4732C71.0525 57.8738 70.993 56.2744 70.8533 54.681Z" fill="#263238"/>
<path opacity="0.2" d="M64.5135 62.43C62.1552 61.3317 58.9065 58.3875 57.3987 57.2871C57.048 57.0218 56.6483 56.8283 56.2227 56.718C57.552 56.4555 59.2467 56.508 60.702 56.634L64.1355 58.23L69.6501 60.8067L70.3011 62.7828C70.0428 63.8328 69.375 63.9777 68.7786 64.0071C66.4575 64.0993 64.1347 63.8761 61.8738 63.3435C62.1489 63.3666 66.7899 63.48 64.5135 62.43Z" fill="black"/>
<path d="M47.8441 64.404L44.8138 67.3587L43.6777 66.4263L46.0318 63.0201L47.8441 64.404Z" fill="#FF8B7B"/>
<path d="M43.9 66.0189L45.2209 67.0689C45.2491 67.0908 45.2689 67.1218 45.2769 67.1566C45.285 67.1914 45.2808 67.2279 45.265 67.26L44.5594 68.7132C44.5295 68.7751 44.4763 68.8228 44.4115 68.846C44.3467 68.8692 44.2754 68.866 44.2129 68.8371L44.1646 68.8077C43.6249 68.3646 43.1629 67.9467 42.4846 67.407C41.6782 66.777 41.8063 67.0269 40.8508 66.2898C40.2733 65.8446 40.6849 65.1138 40.9516 65.2734C42.1675 66.0126 42.745 65.9244 43.4863 65.8677C43.6379 65.8667 43.7848 65.9203 43.9 66.0189Z" fill="#263238"/>
<path d="M43.3607 65.9559C43.366 65.9592 43.3722 65.961 43.3785 65.961C43.3848 65.961 43.391 65.9592 43.3964 65.9559C43.4005 65.9504 43.4027 65.9438 43.4027 65.937C43.4027 65.9302 43.4005 65.9235 43.3964 65.9181C43.3712 65.853 43.1129 65.2734 42.9197 65.2377C42.9011 65.2346 42.882 65.2361 42.8641 65.2419C42.8462 65.2478 42.83 65.2579 42.8168 65.2713C42.7956 65.2935 42.7796 65.32 42.7698 65.349C42.76 65.378 42.7567 65.4088 42.7601 65.4393C42.7916 65.6493 43.1423 65.8593 43.3481 65.9622L43.3607 65.9559ZM42.926 65.2986C43.0331 65.3364 43.1948 65.622 43.3019 65.8467C43.0247 65.6913 42.8525 65.5338 42.8357 65.4267C42.8316 65.4068 42.833 65.3861 42.8396 65.3669C42.8463 65.3477 42.858 65.3306 42.8735 65.3175C42.8782 65.3117 42.8844 65.3073 42.8914 65.3047C42.8984 65.3021 42.906 65.3015 42.9134 65.3028L42.926 65.2986Z" fill="#407BFF"/>
<path d="M43.3601 65.9559C43.3662 65.9568 43.3724 65.9559 43.378 65.9533C43.3836 65.9506 43.3883 65.9464 43.3916 65.9412C43.5116 65.7779 43.577 65.581 43.5785 65.3784C43.5722 65.3457 43.5595 65.3146 43.5411 65.2868C43.5227 65.259 43.499 65.2352 43.4714 65.2167C43.449 65.1979 43.4208 65.1875 43.3916 65.1875C43.3624 65.1875 43.3341 65.1979 43.3118 65.2167C43.1837 65.328 43.2509 65.7774 43.3328 65.9454C43.3363 65.9489 43.3406 65.9517 43.3453 65.9535C43.35 65.9554 43.355 65.9561 43.3601 65.9559ZM43.4084 65.2587L43.4357 65.2797C43.4566 65.2929 43.4746 65.3104 43.4883 65.331C43.5021 65.3516 43.5113 65.3749 43.5155 65.3994C43.5154 65.5626 43.4664 65.7221 43.3748 65.8572C43.3076 65.664 43.2866 65.3343 43.3601 65.2671C43.3666 65.2627 43.3743 65.2604 43.3821 65.2604C43.39 65.2604 43.3976 65.2627 43.4042 65.2671L43.4084 65.2587Z" fill="#407BFF"/>
<path d="M67.3656 54.2631C69.6895 54.6629 72.0604 54.7104 74.3985 54.4038C74.3985 54.4038 76.8219 63.7278 69.8982 63.7173C67.3383 63.7173 66.2946 62.6316 64.6482 61.6173C60.9018 59.3262 57.8358 55.9809 56.37 56.1573C54.2574 56.424 55.4061 58.9461 46.71 65.7795L44.9502 64.1982C44.9502 64.1982 51.5316 49.7313 55.8702 49.7313C59.6229 49.7313 65.5302 55.5105 66.324 55.5294C67.1178 55.5483 67.3656 54.2631 67.3656 54.2631Z" fill="#263238"/>
<path opacity="0.2" d="M55.1852 56.6949C54.6539 56.9238 54.2527 57.2409 54.0616 57.6819C53.9115 58.0845 53.8045 58.502 53.7424 58.9272C53.4925 59.2737 53.2007 59.658 52.8521 60.0822C53.1398 57.264 55.1852 56.6949 55.1852 56.6949Z" fill="black"/>
<path d="M50.4096 76.3656C50.413 76.3593 50.4143 76.3522 50.4133 76.3452C50.4124 76.3382 50.4092 76.3316 50.4043 76.3265C50.3994 76.3214 50.393 76.3179 50.3861 76.3167C50.3791 76.3154 50.3719 76.3163 50.3655 76.3194C50.2962 76.3425 49.683 76.5819 49.6368 76.7814C49.6328 76.8004 49.6336 76.8202 49.6391 76.8389C49.6446 76.8576 49.6546 76.8746 49.6683 76.8885C49.6888 76.913 49.7151 76.932 49.7448 76.9438C49.7745 76.9555 49.8067 76.9596 49.8384 76.9557C50.0484 76.9347 50.2878 76.5798 50.4096 76.3719V76.3656ZM49.7082 76.7856C49.7544 76.6785 50.0589 76.5231 50.2941 76.4244C50.1198 76.7037 49.9497 76.8738 49.83 76.8864C49.8089 76.8894 49.7874 76.8869 49.7675 76.8792C49.7477 76.8715 49.7301 76.8588 49.7166 76.8423C49.7115 76.8367 49.7077 76.83 49.7055 76.8227C49.7033 76.8155 49.7028 76.8078 49.704 76.8003L49.7082 76.7856Z" fill="#407BFF"/>
<path d="M50.41 76.3656C50.4111 76.3592 50.4103 76.3526 50.4077 76.3466C50.405 76.3406 50.4008 76.3356 50.3953 76.332C50.2314 76.2028 50.0306 76.1292 49.822 76.122C49.7875 76.1264 49.7542 76.1378 49.7243 76.1555C49.6943 76.1732 49.6683 76.1968 49.6477 76.2249C49.6268 76.2464 49.614 76.2746 49.6117 76.3045C49.6094 76.3344 49.6177 76.3642 49.6351 76.3887C49.7443 76.5273 50.2126 76.4769 50.3911 76.4013C50.3975 76.3979 50.4027 76.3927 50.4061 76.3864C50.4095 76.38 50.4108 76.3728 50.41 76.3656ZM49.6897 76.2837L49.7149 76.2564C49.729 76.2351 49.7476 76.2171 49.7694 76.2037C49.7911 76.1903 49.8155 76.1817 49.8409 76.1787C50.0102 76.1855 50.1734 76.2433 50.3092 76.3446C50.0992 76.4055 49.7632 76.4139 49.6981 76.332C49.6933 76.3252 49.6908 76.3172 49.6908 76.3089C49.6908 76.3006 49.6933 76.2925 49.6981 76.2858L49.6897 76.2837Z" fill="#407BFF"/>
<path d="M50.8954 76.0506L52.6342 75.8406C52.6708 75.8357 52.7081 75.8437 52.7395 75.8633C52.7709 75.8828 52.7945 75.9127 52.8064 75.9477L53.3587 77.5311C53.3824 77.5982 53.3787 77.672 53.3485 77.7365C53.3182 77.8009 53.2638 77.8509 53.197 77.8755C53.1786 77.8817 53.1596 77.8859 53.1403 77.8881C52.4179 77.9616 51.7732 77.9973 50.8765 78.0981C49.8265 78.222 50.1016 78.3081 48.8584 78.4824C48.1108 78.579 47.8714 77.7432 48.1843 77.6634C49.6186 77.3106 49.9777 76.8234 50.4775 76.2333C50.5904 76.1243 50.7387 76.0595 50.8954 76.0506Z" fill="#263238"/>
<path d="M58.1213 37.1565C57.8525 37.1166 57.8252 36.9129 57.6845 36.6777C57.6845 36.6777 57.2645 35.7369 57.6005 35.5983C57.9408 35.5615 58.2832 35.5488 58.6253 35.5605C58.8628 35.5759 59.089 35.6673 59.2706 35.8213C59.4521 35.9752 59.5793 36.1834 59.6333 36.4152C59.9315 37.44 58.1213 37.1565 58.1213 37.1565Z" fill="#FF8B7B"/>
<path d="M57.8839 37.02L56.6764 36.0939C56.6324 36.0601 56.5954 36.018 56.5677 35.9699C56.54 35.9218 56.5221 35.8686 56.5151 35.8136C56.5081 35.7585 56.512 35.7026 56.5267 35.649C56.5415 35.5955 56.5666 35.5454 56.6008 35.5017L56.9053 35.1132C56.9635 35.0381 57.0455 34.985 57.1378 34.9625C57.2301 34.94 57.3273 34.9494 57.4135 34.9893L58.6252 35.5521L57.8839 37.02Z" fill="#FF8B7B"/>
<path d="M58.7114 37.0515L59.858 39.4035L61.3196 39.141L59.3603 36.054L58.7114 37.0515Z" fill="#FF8B7B"/>
<path d="M68.0184 42.3246L67.2204 45.0924L63.663 43.95C61.3194 43.3431 58.7637 38.0301 58.7637 38.0301L60.3576 37.4001L64.0032 41.6001L68.0184 42.3246Z" fill="#407BFF"/>
<path d="M66.0846 49.9812C66.45 50.9661 66.6684 52.6965 65.2446 54.9099C65.2446 54.9099 70.7319 55.7247 74.619 55.479C74.8899 53.8977 74.22 50.6091 75.6438 45.5397C75.7218 45.2621 75.7405 44.9712 75.6987 44.6859C75.657 44.4006 75.5557 44.1273 75.4014 43.8837C75.2471 43.6401 75.0433 43.4317 74.8033 43.272C74.5632 43.1123 74.2922 43.0048 74.0079 42.9567C73.6866 42.9021 73.3464 42.8517 72.9957 42.8118C71.6349 42.6522 70.6101 42.3918 69.4026 42.4128C69.0015 42.4128 68.6571 42.2763 68.2602 42.3057C67.3866 42.3687 66.3198 44.1117 65.8452 45.8001C65.4823 47.1842 65.5661 48.6476 66.0846 49.9812Z" fill="#407BFF"/>
<path opacity="0.4" d="M66.0846 49.9812C66.45 50.9661 66.6684 52.6965 65.2446 54.9099C65.2446 54.9099 70.7319 55.7247 74.619 55.479C74.8899 53.8977 74.22 50.6091 75.6438 45.5397C75.7218 45.2621 75.7405 44.9712 75.6987 44.6859C75.657 44.4006 75.5557 44.1273 75.4014 43.8837C75.2471 43.6401 75.0433 43.4317 74.8033 43.272C74.5632 43.1123 74.2922 43.0048 74.0079 42.9567C73.6866 42.9021 73.3464 42.8517 72.9957 42.8118C71.6349 42.6522 70.6101 42.3918 69.4026 42.4128C69.0015 42.4128 68.6571 42.2763 68.2602 42.3057C67.3866 42.3687 66.3198 44.1117 65.8452 45.8001C65.4823 47.1842 65.5661 48.6476 66.0846 49.9812Z" fill="white"/>
<path d="M67.2606 55.3236C66.3482 55.3046 65.4554 55.0554 64.665 54.5991C65.293 52.8262 65.4586 50.9224 65.1459 49.0677C64.98 48.0996 64.686 47.1231 64.8393 46.1529C65.0913 44.5548 66.471 43.4124 67.7541 42.4233C67.9935 42.2385 68.2602 42.3603 68.5584 42.3057C67.1577 45.6027 67.1577 49.8573 67.2606 55.3236Z" fill="#407BFF"/>
<path d="M75.3222 55.395C75.2908 55.5425 75.2178 55.6779 75.1117 55.7852C75.0056 55.8924 74.8709 55.9669 74.7237 55.9998C74.4283 56.0576 74.1245 56.0576 73.8291 55.9998C72.8211 55.8738 71.7564 55.7016 70.7484 55.5798C70.1831 51.1505 70.6731 46.6502 72.1785 42.4464C73.3083 42.4149 74.5368 42.5388 75.234 43.4271C75.7842 44.1264 75.7506 45.1071 75.6897 45.9891C75.4776 49.1349 75.717 52.2723 75.3222 55.395Z" fill="#407BFF"/>
<path opacity="0.2" d="M72.5171 48.1731C72.8059 46.7033 73.2428 45.2666 73.8212 43.8849L73.9241 44.8194L74.2307 45.21C73.7204 46.7598 76.3517 49.3365 73.3907 52.9233C73.3204 53.0081 73.2246 53.068 73.1175 53.0941C73.0105 53.1202 72.8979 53.1111 72.7964 53.0682C71.5406 52.56 70.1504 50.9367 70.1504 50.9367L70.8014 49.2714C71.6876 49.6851 72.2777 49.4331 72.5171 48.1731Z" fill="black"/>
<path d="M67.7144 48.4587L69.3923 50.1177L70.1294 48.9438L68.3213 47.5095L67.7144 48.4587Z" fill="#FF8B7B"/>
<path d="M67.8571 49.4058H62.836L62.2627 42.8538H67.2838L67.8571 49.4058Z" fill="#263238"/>
<path opacity="0.5" d="M67.8571 49.4058H62.836L62.2627 42.8538H67.2838L67.8571 49.4058Z" fill="white"/>
<path d="M67.6787 49.3722H62.6576L62.0864 42.8223H67.1054L67.6787 49.3722Z" fill="#263238"/>
<path opacity="0.8" d="M67.6787 49.3722H62.6576L62.0864 42.8223H67.1054L67.6787 49.3722Z" fill="white"/>
<path d="M65.6879 43.2297H63.5753L63.5039 42.4128H65.6165L65.6879 43.2297Z" fill="#263238"/>
<path d="M63.5039 42.4128L63.7118 42.3393H65.8979L65.9273 42.6879L65.7656 42.8769L65.7551 43.1625L65.6879 43.2297L65.6165 42.4128H63.5039Z" fill="#263238"/>
<path opacity="0.5" d="M63.5039 42.4128L63.7118 42.3393H65.8979L65.9273 42.6879L65.7656 42.8769L65.7551 43.1625L65.6879 43.2297L65.6165 42.4128H63.5039Z" fill="black"/>
<path d="M66.118 48.2865L66.4771 48.591C66.5432 48.6477 66.6219 48.6878 66.7067 48.7079C66.7915 48.728 66.8798 48.7275 66.9643 48.7065L67.7665 48.507C68.0878 48.4251 68.3209 47.5095 68.3209 47.5095C67.9156 47.0223 66.6976 46.8795 66.6976 46.8795C66.6404 46.8606 66.58 46.8533 66.52 46.858C66.4599 46.8627 66.4014 46.8793 66.3478 46.9069C66.2943 46.9344 66.2467 46.9724 66.208 47.0185C66.1693 47.0647 66.1401 47.1181 66.1222 47.1756L65.95 47.73C65.9198 47.829 65.9197 47.9347 65.9496 48.0337C65.9795 48.1328 66.0381 48.2208 66.118 48.2865Z" fill="#FF8B7B"/>
<path d="M75.7069 46.68C75.8854 45.7119 75.9169 43.74 74.89 43.3725C73.6951 42.942 73.3759 44.7459 73.1197 46.3734C72.8635 48.0009 72.3574 50.04 71.9668 49.83C71.1562 49.41 69.7324 48.4776 69.7324 48.4776L68.8735 49.809C68.8735 49.809 71.8702 53.0031 73.2331 52.2576C74.7703 51.4218 75.4801 47.9127 75.7069 46.68Z" fill="#407BFF"/>
<path d="M72.0572 40.1385C71.8799 40.9347 71.8885 41.7611 72.0824 42.5535C72.0824 42.5535 68.7959 44.6535 68.7959 42.4926C68.7959 42.4926 69.8165 42.7866 69.9026 41.4762C69.9509 40.7328 70.7279 39.9789 72.0572 40.1385Z" fill="#FF8B7B"/>
<path opacity="0.2" d="M69.9029 41.4762C69.9911 40.7895 70.6253 40.0902 71.7761 40.1196L71.8517 40.1889L71.9336 40.3401C71.9336 40.3401 71.1923 42.2301 69.7769 41.997C69.8407 41.8294 69.8831 41.6544 69.9029 41.4762Z" fill="black"/>
<path d="M72.8091 37.566C72.5529 39.351 72.4836 40.1133 71.5029 40.9617C70.0329 42.2385 67.8909 41.535 67.6053 39.7017C67.3512 38.0574 67.8153 35.4156 69.6234 34.8423C69.9309 34.7429 70.255 34.7051 70.5771 34.7311C70.8991 34.7572 71.2129 34.8465 71.5005 34.9939C71.788 35.1414 72.0436 35.3441 72.2527 35.5905C72.4617 35.8369 72.6202 36.1222 72.7188 36.4299C72.8366 36.7965 72.8675 37.1854 72.8091 37.566Z" fill="#FF8B7B"/>
<path d="M71.6203 40.8441C72.2262 40.7388 72.8148 40.5509 73.3696 40.2855C73.6237 39.4875 73.714 39.2355 73.9114 38.5089C74.2747 37.1628 73.9807 35.4597 72.6871 34.9515C72.2398 34.7751 70.8559 33.9624 70.3582 34.6764C70.2301 34.857 72.7669 37.86 71.6203 40.8441Z" fill="#263238"/>
<path d="M68.8313 38.5488C68.6743 38.8722 68.4736 39.1725 68.2349 39.4413C68.3049 39.5006 68.387 39.544 68.4755 39.5683C68.564 39.5926 68.6568 39.5973 68.7473 39.582L68.8313 38.5488Z" fill="#FF5652"/>
<path d="M70.4252 37.65C70.4373 37.649 70.449 37.6446 70.4588 37.6374C70.4663 37.6316 70.4726 37.6244 70.4773 37.6162C70.4819 37.608 70.485 37.599 70.4861 37.5896C70.4873 37.5802 70.4866 37.5707 70.4841 37.5616C70.4815 37.5525 70.4772 37.544 70.4714 37.5366C70.3922 37.4281 70.2881 37.3402 70.1678 37.2803C70.0476 37.2204 69.9148 37.1902 69.7805 37.1922C69.7619 37.1948 69.745 37.2041 69.733 37.2185C69.721 37.2329 69.7147 37.2512 69.7154 37.2699C69.717 37.2885 69.7258 37.3057 69.7399 37.3178C69.7541 37.33 69.7724 37.3361 69.791 37.335C69.902 37.3348 70.0115 37.361 70.1104 37.4114C70.2094 37.4617 70.2949 37.5349 70.3601 37.6248C70.3677 37.6344 70.3778 37.6417 70.3892 37.6462C70.4007 37.6506 70.4131 37.6519 70.4252 37.65Z" fill="#263238"/>
<path d="M67.7752 37.3119C67.7872 37.3103 67.7987 37.306 67.8088 37.2993C67.8971 37.2314 68.0004 37.1857 68.11 37.166C68.2196 37.1463 68.3324 37.1531 68.4388 37.1859C68.4563 37.1928 68.4759 37.1925 68.4932 37.185C68.5105 37.1775 68.5242 37.1635 68.5312 37.146C68.5346 37.1372 68.5361 37.1278 68.5358 37.1183C68.5355 37.1089 68.5334 37.0996 68.5295 37.091C68.5256 37.0824 68.52 37.0747 68.5131 37.0683C68.5062 37.0618 68.498 37.0569 68.4892 37.0536C68.3613 37.013 68.2255 37.0036 68.0933 37.0263C67.961 37.0489 67.8361 37.1029 67.729 37.1838C67.7153 37.1927 67.7052 37.2061 67.7002 37.2217C67.6952 37.2372 67.6957 37.254 67.7016 37.2692C67.7075 37.2845 67.7184 37.2972 67.7326 37.3054C67.7467 37.3135 67.7633 37.3165 67.7794 37.314L67.7752 37.3119Z" fill="#263238"/>
<path d="M69.8816 38.3913C69.8711 38.5362 69.7829 38.6475 69.6863 38.6412C69.5897 38.6349 69.5246 38.5089 69.5372 38.3619C69.5498 38.2149 69.6359 38.1057 69.7304 38.112C69.8249 38.1183 69.8921 38.2443 69.8816 38.3913Z" fill="#263238"/>
<path d="M68.2288 38.259C68.2183 38.4039 68.1301 38.5152 68.0356 38.5089C67.9411 38.5026 67.8739 38.3766 67.8844 38.2296C67.8949 38.0826 67.9831 37.9734 68.0776 37.9797C68.1721 37.986 68.2435 38.1099 68.2288 38.259Z" fill="#263238"/>
<path d="M68.1196 37.9902L67.7773 37.86C67.7773 37.86 67.9348 38.1498 68.1196 37.9902Z" fill="#263238"/>
<path d="M69.7721 38.1246L69.4277 37.9944C69.4277 37.9944 69.5873 38.28 69.7721 38.1246Z" fill="#263238"/>
<path d="M69.6755 39.8529C69.7153 39.8093 69.7511 39.7622 69.7826 39.7122C69.7886 39.7056 69.792 39.697 69.792 39.688C69.792 39.6791 69.7886 39.6705 69.7826 39.6639C69.7744 39.6598 69.7649 39.6588 69.756 39.6611C69.7472 39.6634 69.7394 39.6689 69.7343 39.6765C69.6558 39.8026 69.5488 39.9084 69.4218 39.9854C69.2949 40.0624 69.1515 40.1083 69.0035 40.1196C68.994 40.1196 68.9849 40.1233 68.9782 40.13C68.9715 40.1367 68.9678 40.1458 68.9678 40.1553C68.9683 40.1644 68.9723 40.1729 68.9789 40.1792C68.9856 40.1854 68.9944 40.1889 69.0035 40.1889C69.1321 40.18 69.2577 40.1458 69.3731 40.0881C69.4884 40.0304 69.5912 39.9505 69.6755 39.8529Z" fill="#263238"/>
<path d="M73.1174 39.0192C73.0554 39.1803 72.962 39.3274 72.8427 39.4522C72.7234 39.5769 72.5805 39.6767 72.4223 39.7458C72.0023 39.9285 71.723 39.5652 71.7923 39.1305C71.8511 38.742 72.1451 38.1771 72.5966 38.1771C72.7546 38.1826 72.904 38.2503 73.0122 38.3656C73.1204 38.4809 73.1786 38.6343 73.1741 38.7924C73.17 38.8709 73.1508 38.948 73.1174 39.0192Z" fill="#FF8B7B"/>
<path d="M69.434 34.4769C68.8978 34.5887 68.4237 34.8991 68.1067 35.3458C67.7897 35.7925 67.6532 36.3425 67.7246 36.8856C68.0228 36.9339 68.3231 37.0221 68.6213 37.0683C68.5807 36.9056 68.5785 36.7357 68.6149 36.572C68.6514 36.4084 68.7255 36.2554 68.8313 36.1254C68.77 36.4678 68.7916 36.8199 68.8943 37.1523C69.119 37.1775 69.4046 37.1838 69.6293 37.209C69.6293 36.8478 69.6482 36.6441 69.6503 36.2829C69.8015 36.642 69.9716 36.999 70.1249 37.3602C70.3725 37.3541 70.6163 37.4229 70.8242 37.5576C70.7507 37.2069 70.6751 36.8205 70.6016 36.4698C71.0335 36.9978 71.2701 37.6587 71.2715 38.3409C71.4819 37.9784 71.6042 37.5715 71.6282 37.1531C71.6523 36.7346 71.5776 36.3164 71.4101 35.9322C71.0699 35.1699 70.253 34.3068 69.434 34.4769Z" fill="#263238"/>
<path d="M71.9327 42.1209C71.1897 42.6408 70.41 43.1061 69.5996 43.5132C69.671 43.992 69.9482 44.6913 70.3682 45.021C71.6828 44.0319 72.086 43.4544 72.4682 42.4464C72.4136 42.1797 72.1595 41.9676 71.9327 42.1209Z" fill="#407BFF"/>
<path opacity="0.7" d="M71.9327 42.1209C71.1897 42.6408 70.41 43.1061 69.5996 43.5132C69.671 43.992 69.9482 44.6913 70.3682 45.021C71.6828 44.0319 72.086 43.4544 72.4682 42.4464C72.4136 42.1797 72.1595 41.9676 71.9327 42.1209Z" fill="white"/>
<path d="M68.5895 42.333C68.1548 43.068 68.2304 43.9395 68.579 44.7207C68.9045 44.3007 69.2972 43.95 69.629 43.53C69.1523 43.11 69.2762 42.7572 69.3539 42.3603C69.1172 42.2757 68.8626 42.2533 68.6147 42.2952L68.5748 42.396C68.6042 42.3876 68.5538 42.3414 68.5895 42.333Z" fill="#407BFF"/>
<path opacity="0.7" d="M68.5895 42.333C68.1548 43.068 68.2304 43.9395 68.579 44.7207C68.9045 44.3007 69.2972 43.95 69.629 43.53C69.1523 43.11 69.2762 42.7572 69.3539 42.3603C69.1172 42.2757 68.8626 42.2533 68.6147 42.2952L68.5748 42.396C68.6042 42.3876 68.5538 42.3414 68.5895 42.333Z" fill="white"/>
<path d="M79.5075 31.5936H74.8413C74.8096 29.7691 74.0625 28.03 72.761 26.7509C71.4595 25.4718 69.7077 24.7551 67.8829 24.7551C66.0581 24.7551 64.3063 25.4718 63.0048 26.7509C61.7033 28.03 60.9563 29.7691 60.9246 31.5936H56.2584C56.2377 30.0539 56.5231 28.5254 57.098 27.0969C57.6729 25.6684 58.5258 24.3684 59.6073 23.2722C60.6888 22.1761 61.9773 21.3058 63.3979 20.7117C64.8186 20.1177 66.3431 19.8118 67.8829 19.8118C69.4228 19.8118 70.9473 20.1177 72.3679 20.7117C73.7886 21.3058 75.077 22.1761 76.1585 23.2722C77.24 24.3684 78.093 25.6684 78.6679 27.0969C79.2428 28.5254 79.5282 30.0539 79.5075 31.5936Z" fill="#407BFF"/>
<path d="M73.907 28.116L77.9516 25.7808C76.9295 24.0147 75.4626 22.5471 73.697 21.5241L71.3618 25.5687C72.4188 26.1801 73.2965 27.0585 73.907 28.116Z" fill="#407BFF"/>
<path opacity="0.8" d="M57.8149 25.7808C56.7925 27.5472 56.2557 29.5526 56.2588 31.5936H60.925C60.9233 30.3724 61.245 29.1725 61.8574 28.116L57.8149 25.7808Z" fill="white"/>
<path opacity="0.2" d="M74.8417 31.5936H79.5079C79.5108 29.5527 78.974 27.5473 77.9518 25.7808L73.9072 28.116C74.5212 29.172 74.8437 30.3721 74.8417 31.5936Z" fill="black"/>
<path opacity="0.6" d="M64.4047 25.5687L62.0695 21.5241C60.3039 22.5471 58.837 24.0147 57.8149 25.7808L61.8574 28.116C62.4694 27.0589 63.3476 26.1806 64.4047 25.5687Z" fill="white"/>
<path opacity="0.4" d="M67.8821 24.63V19.968C65.8413 19.9654 63.8359 20.5022 62.0693 21.5241L64.4045 25.5687C65.4607 24.9547 66.6605 24.6309 67.8821 24.63Z" fill="white"/>
<path opacity="0.2" d="M71.3615 25.5687L73.6967 21.5241C71.9295 20.5019 69.9234 19.9651 67.8818 19.968V24.63C69.1042 24.6305 70.3047 24.9544 71.3615 25.5687Z" fill="white"/>
<path d="M67.8818 31.0098L73.8605 24.4725L74.4107 24.9555L68.7785 31.9065L67.8818 31.0098Z" fill="#263238"/>
<path d="M68.957 31.9065C68.9575 32.1192 68.8947 32.3273 68.7769 32.5044C68.659 32.6815 68.4912 32.8196 68.2948 32.9013C68.0983 32.983 67.8821 33.0046 67.6734 32.9634C67.4647 32.9221 67.2729 32.8199 67.1223 32.6696C66.9717 32.5193 66.8691 32.3278 66.8275 32.1191C66.7858 31.9105 66.807 31.6942 66.8883 31.4976C66.9696 31.301 67.1074 31.133 67.2843 31.0147C67.4611 30.8965 67.6691 30.8334 67.8818 30.8334C68.1666 30.8334 68.4398 30.9464 68.6414 31.1476C68.843 31.3488 68.9565 31.6217 68.957 31.9065Z" fill="#263238"/>
<path d="M37.921 78.0075C40.7068 77.8659 42.8502 75.4928 42.7086 72.7071C42.567 69.9214 40.194 67.7779 37.4082 67.9195C34.6225 68.0611 32.4791 70.4342 32.6207 73.2199C32.7623 76.0056 35.1353 78.1491 37.921 78.0075Z" fill="#407BFF"/>
<path d="M43.3229 72.72C43.3633 73.7148 43.1082 74.6993 42.5898 75.5492C42.0713 76.3992 41.3127 77.0765 40.4097 77.4958C39.5067 77.9151 38.4997 78.0576 37.5159 77.9053C36.532 77.7529 35.6153 77.3126 34.8814 76.6398C34.1475 75.967 33.6292 75.092 33.3921 74.125C33.155 73.1581 33.2096 72.1426 33.5489 71.2066C33.8883 70.2706 34.4973 69.4561 35.2991 68.8659C36.1009 68.2756 37.0595 67.936 38.054 67.89C38.7176 67.8593 39.3806 67.9601 40.0051 68.1865C40.6296 68.4129 41.2031 68.7606 41.6928 69.2094C42.1824 69.6583 42.5785 70.1995 42.8583 70.802C43.138 71.4045 43.2959 72.0563 43.3229 72.72Z" fill="#407BFF"/>
<path opacity="0.4" d="M43.3229 72.72C43.3633 73.7148 43.1082 74.6993 42.5898 75.5492C42.0713 76.3992 41.3127 77.0765 40.4097 77.4958C39.5067 77.9151 38.4997 78.0576 37.5159 77.9053C36.532 77.7529 35.6153 77.3126 34.8814 76.6398C34.1475 75.967 33.6292 75.092 33.3921 74.125C33.155 73.1581 33.2096 72.1426 33.5489 71.2066C33.8883 70.2706 34.4973 69.4561 35.2991 68.8659C36.1009 68.2756 37.0595 67.936 38.054 67.89C38.7176 67.8593 39.3806 67.9601 40.0051 68.1865C40.6296 68.4129 41.2031 68.7606 41.6928 69.2094C42.1824 69.6583 42.5785 70.1995 42.8583 70.802C43.138 71.4045 43.2959 72.0563 43.3229 72.72Z" fill="white"/>
<path d="M42.0537 72.7662C42.0853 73.5128 41.895 74.2521 41.5066 74.8906C41.1183 75.5291 40.5494 76.0381 39.8718 76.3534C39.1943 76.6687 38.4385 76.7761 37.6999 76.662C36.9614 76.5479 36.2732 76.2174 35.7224 75.7124C35.1716 75.2073 34.7829 74.5503 34.6053 73.8244C34.4278 73.0985 34.4694 72.3363 34.7248 71.634C34.9803 70.9317 35.4383 70.3209 36.0408 69.8788C36.6433 69.4367 37.3633 69.1831 38.1099 69.15C38.6064 69.128 39.1024 69.2042 39.5694 69.3741C40.0364 69.544 40.4654 69.8043 40.8317 70.1402C41.198 70.4761 41.4945 70.8809 41.7042 71.3315C41.9139 71.7821 42.0326 72.2697 42.0537 72.7662Z" fill="#407BFF"/>
<g opacity="0.3">
<path d="M39.9712 73.6629C40.1539 74.4924 39.6058 75.0762 38.5768 75.2085L38.5894 75.9015L37.9594 75.9288L37.9468 75.2379C37.4047 75.2196 36.8742 75.0758 36.397 74.8179L36.6469 74.0262C37.0386 74.2557 37.4789 74.3895 37.9321 74.4168L37.9111 73.3542C37.2811 73.2051 36.5986 73.0035 36.4411 72.2496C36.2563 71.4222 36.817 70.83 37.867 70.7082L37.8544 70.0173L38.4844 69.99L38.4991 70.6872C38.9265 70.703 39.3461 70.8067 39.7318 70.9917L39.5218 71.7792C39.2109 71.6135 38.8676 71.5174 38.5159 71.4978L38.539 72.6045C39.1417 72.7494 39.8137 72.9468 39.9712 73.6629ZM37.8922 72.4596L37.8775 71.5545C37.5331 71.6385 37.3756 71.8401 37.4218 72.0774C37.4638 72.2706 37.6465 72.3756 37.8922 72.4596ZM38.9905 73.8708C38.9506 73.6902 38.7805 73.5831 38.5432 73.5117L38.5621 74.3727C38.8876 74.2887 39.043 74.1081 38.9905 73.8708Z" fill="white"/>
</g>
<path d="M24.9808 77.2077C24.9472 77.991 27.4273 78.7323 30.5206 78.8625C33.6139 78.9927 36.1486 78.4656 36.1906 77.6823C36.2326 76.899 33.742 76.1577 30.6508 76.0254C27.5596 75.8931 25.0144 76.4244 24.9808 77.2077Z" fill="#407BFF"/>
<path d="M25.047 75.5691L24.9902 76.9887L36.2 77.4371L36.2568 76.0175L25.047 75.5691Z" fill="#407BFF"/>
<path d="M25.0423 75.7881C25.0087 76.5714 27.4888 77.3127 30.5821 77.445C33.6754 77.5773 36.2101 77.0481 36.2521 76.2648C36.2941 75.4815 33.8056 74.7381 30.7123 74.6079C27.619 74.4777 25.0759 75.0048 25.0423 75.7881Z" fill="#407BFF"/>
<path opacity="0.4" d="M25.0423 75.7881C25.0087 76.5714 27.4888 77.3127 30.5821 77.445C33.6754 77.5773 36.2101 77.0481 36.2521 76.2648C36.2941 75.4815 33.8056 74.7381 30.7123 74.6079C27.619 74.4777 25.0759 75.0048 25.0423 75.7881Z" fill="white"/>
<path d="M25.756 75.7629C25.7544 75.8141 25.7715 75.8642 25.8043 75.9036C26.1781 75.4437 28.2256 75.1728 30.6721 75.2736C33.1186 75.3744 35.143 75.8217 35.4706 76.311C35.5065 76.275 35.5281 76.2273 35.5315 76.1766C35.5525 75.6453 33.3853 75.114 30.6847 75.0006C27.9841 74.8872 25.7791 75.24 25.756 75.7629Z" fill="#407BFF"/>
<path opacity="0.4" d="M25.756 75.7629C25.7544 75.8141 25.7715 75.8642 25.8043 75.9036C26.1781 75.4437 28.2256 75.1728 30.6721 75.2736C33.1186 75.3744 35.143 75.8217 35.4706 76.311C35.5065 76.275 35.5281 76.2273 35.5315 76.1766C35.5525 75.6453 33.3853 75.114 30.6847 75.0006C27.9841 74.8872 25.7791 75.24 25.756 75.7629Z" fill="#407BFF"/>
<path opacity="0.4" d="M25.8042 75.9036C26.1381 76.395 28.1541 76.8381 30.6027 76.941C33.0513 77.0439 35.103 76.7751 35.4705 76.311C35.1429 75.8217 33.1269 75.3786 30.672 75.2736C28.2171 75.1686 26.178 75.45 25.8042 75.9036Z" fill="#407BFF"/>
<path d="M23.805 75.0594C23.7714 75.8427 26.2515 76.584 29.3448 76.7163C32.4381 76.8486 34.9707 76.3173 35.0043 75.534C35.0379 74.7507 32.5578 74.0094 29.4645 73.8771C26.3712 73.7448 23.8386 74.2761 23.805 75.0594Z" fill="#407BFF"/>
<path d="M23.8649 73.641L23.8047 75.0593L35.0065 75.5347L35.0667 74.1164L23.8649 73.641Z" fill="#407BFF"/>
<path d="M23.8641 73.6398C23.8305 74.4231 26.3127 75.1644 29.406 75.2967C32.4993 75.429 35.0319 74.8998 35.076 74.1165C35.1201 73.3332 32.6295 72.5898 29.5362 72.4596C26.4429 72.3294 23.8977 72.8565 23.8641 73.6398Z" fill="#407BFF"/>
<path opacity="0.4" d="M23.8641 73.6398C23.8305 74.4231 26.3127 75.1644 29.406 75.2967C32.4993 75.429 35.0319 74.8998 35.076 74.1165C35.1201 73.3332 32.6295 72.5898 29.5362 72.4596C26.4429 72.3294 23.8977 72.8565 23.8641 73.6398Z" fill="white"/>
<path d="M24.5798 73.6146C24.5776 73.6655 24.594 73.7156 24.626 73.7553C25.0019 73.2954 27.0494 73.0245 29.4959 73.1253C31.9424 73.2261 33.9668 73.6734 34.2944 74.1648C34.33 74.128 34.3509 74.0794 34.3532 74.0283C34.3763 73.4991 32.2091 72.9657 29.5085 72.8523C26.8079 72.7389 24.6008 73.0854 24.5798 73.6146Z" fill="#407BFF"/>
<path opacity="0.4" d="M24.5798 73.6146C24.5776 73.6655 24.594 73.7156 24.626 73.7553C25.0019 73.2954 27.0494 73.0245 29.4959 73.1253C31.9424 73.2261 33.9668 73.6734 34.2944 74.1648C34.33 74.128 34.3509 74.0794 34.3532 74.0283C34.3763 73.4991 32.2091 72.9657 29.5085 72.8523C26.8079 72.7389 24.6008 73.0854 24.5798 73.6146Z" fill="#407BFF"/>
<path opacity="0.4" d="M24.6265 73.7553C24.9604 74.2467 26.9785 74.6898 29.425 74.7927C31.8715 74.8956 33.9274 74.6268 34.2949 74.1627C33.9673 73.6713 31.9513 73.2282 29.4964 73.1232C27.0415 73.0182 25.0003 73.2954 24.6265 73.7553Z" fill="#407BFF"/>
<path d="M23.95 72.4701C23.9164 73.2555 26.3986 73.9968 29.4898 74.127C32.581 74.2572 35.1178 73.7301 35.1598 72.9468C35.2018 72.1635 32.7133 71.4222 29.62 71.2899C26.5267 71.1576 23.9899 71.6868 23.95 72.4701Z" fill="#407BFF"/>
<path d="M24.0172 71.0534L23.957 72.4717L35.1588 72.9471L35.219 71.5288L24.0172 71.0534Z" fill="#407BFF"/>
<path d="M24.0174 71.0526C23.9838 71.8359 26.4639 72.5772 29.5572 72.7095C32.6505 72.8418 35.1852 72.3126 35.2272 71.5272C35.2692 70.7418 32.7786 70.0026 29.6853 69.8724C26.592 69.7422 24.051 70.2693 24.0174 71.0526Z" fill="#407BFF"/>
<path opacity="0.4" d="M24.0174 71.0526C23.9838 71.8359 26.4639 72.5772 29.5572 72.7095C32.6505 72.8418 35.1852 72.3126 35.2272 71.5272C35.2692 70.7418 32.7786 70.0026 29.6853 69.8724C26.592 69.7422 24.051 70.2693 24.0174 71.0526Z" fill="white"/>
<path d="M24.7311 71.0274C24.7295 71.0786 24.7466 71.1287 24.7794 71.1681C25.1532 70.7061 27.2007 70.4373 29.6493 70.5381C32.0979 70.6389 34.1202 71.0862 34.4478 71.5755C34.4829 71.5392 34.5038 71.4915 34.5066 71.4411C34.5297 70.9098 32.3604 70.3785 29.6598 70.263C26.9592 70.1475 24.7542 70.4982 24.7311 71.0274Z" fill="#407BFF"/>
<path opacity="0.4" d="M24.7311 71.0274C24.7295 71.0786 24.7466 71.1287 24.7794 71.1681C25.1532 70.7061 27.2007 70.4373 29.6493 70.5381C32.0979 70.6389 34.1202 71.0862 34.4478 71.5755C34.4829 71.5392 34.5038 71.4915 34.5066 71.4411C34.5297 70.9098 32.3604 70.3785 29.6598 70.263C26.9592 70.1475 24.7542 70.4982 24.7311 71.0274Z" fill="#407BFF"/>
<path opacity="0.4" d="M24.7905 71.1681C25.1244 71.6574 27.1425 72.1005 29.589 72.2055C32.0355 72.3105 34.0893 72.0396 34.4589 71.5755C34.1313 71.0862 32.1132 70.6431 29.6604 70.5381C27.2076 70.4331 25.1538 70.7061 24.7905 71.1681Z" fill="#407BFF"/>
<path d="M22.7801 70.3239C22.7465 71.1072 25.2266 71.8485 28.3199 71.9787C31.4132 72.1089 33.9479 71.5818 33.9794 70.7985C34.0109 70.0152 31.5329 69.2739 28.4396 69.1416C25.3463 69.0093 22.8137 69.5385 22.7801 70.3239Z" fill="#407BFF"/>
<path d="M22.839 68.8991L22.7788 70.3174L33.9785 70.7927L34.0387 69.3744L22.839 68.8991Z" fill="#407BFF"/>
<path d="M22.8416 68.9043C22.808 69.6876 25.2881 70.4289 28.3814 70.5612C31.4747 70.6935 34.0073 70.1643 34.0514 69.3789C34.0955 68.5935 31.6049 67.8543 28.5116 67.7241C25.4183 67.5939 22.8731 68.121 22.8416 68.9043Z" fill="#407BFF"/>
<path opacity="0.4" d="M22.8416 68.9043C22.808 69.6876 25.2881 70.4289 28.3814 70.5612C31.4747 70.6935 34.0073 70.1643 34.0514 69.3789C34.0955 68.5935 31.6049 67.8543 28.5116 67.7241C25.4183 67.5939 22.8731 68.121 22.8416 68.9043Z" fill="white"/>
<path d="M23.5554 68.8791C23.5532 68.9301 23.5696 68.9801 23.6016 69.0198C23.9775 68.5578 26.025 68.289 28.4715 68.3898C30.918 68.4906 32.9424 68.9379 33.27 69.4272C33.3051 69.3909 33.326 69.3432 33.3288 69.2928C33.3519 68.7615 31.1847 68.2302 28.4841 68.1147C25.7835 67.9992 23.5764 68.3499 23.5554 68.8791Z" fill="#407BFF"/>
<path opacity="0.4" d="M23.5554 68.8791C23.5532 68.9301 23.5696 68.9801 23.6016 69.0198C23.9775 68.5578 26.025 68.289 28.4715 68.3898C30.918 68.4906 32.9424 68.9379 33.27 69.4272C33.3051 69.3909 33.326 69.3432 33.3288 69.2928C33.3519 68.7615 31.1847 68.2302 28.4841 68.1147C25.7835 67.9992 23.5764 68.3499 23.5554 68.8791Z" fill="#407BFF"/>
<path opacity="0.4" d="M23.6016 69.0198C23.9376 69.5091 25.9536 69.9522 28.4001 70.0572C30.8466 70.1622 32.9025 69.8913 33.27 69.4272C32.9424 68.9379 30.9264 68.4948 28.4715 68.3898C26.0166 68.2848 23.9775 68.5578 23.6016 69.0198Z" fill="#407BFF"/>
<path d="M24.5799 68.5032C24.5463 69.2865 27.0264 70.0278 30.1197 70.158C33.213 70.2882 35.7456 69.7611 35.7792 68.9778C35.8128 68.1945 33.3327 67.4532 30.2394 67.3209C27.1461 67.1886 24.6093 67.7178 24.5799 68.5032Z" fill="#407BFF"/>
<path d="M24.6368 67.0826L24.5767 68.5009L35.7764 68.9762L35.8366 67.5579L24.6368 67.0826Z" fill="#407BFF"/>
<path d="M24.6371 67.0836C24.6035 67.8669 27.0836 68.6082 30.1769 68.7405C33.2702 68.8728 35.8049 68.3436 35.8469 67.5582C35.8889 66.7728 33.4004 66.0336 30.3071 65.9034C27.2138 65.7732 24.6707 66.3003 24.6371 67.0836Z" fill="#407BFF"/>
<path opacity="0.4" d="M24.6371 67.0836C24.6035 67.8669 27.0836 68.6082 30.1769 68.7405C33.2702 68.8728 35.8049 68.3436 35.8469 67.5582C35.8889 66.7728 33.4004 66.0336 30.3071 65.9034C27.2138 65.7732 24.6707 66.3003 24.6371 67.0836Z" fill="white"/>
<path d="M25.3507 67.05C25.3491 67.1012 25.3663 67.1513 25.399 67.1907C25.7728 66.7287 27.8224 66.4599 30.2689 66.5607C32.7154 66.6615 34.7398 67.1088 35.0674 67.5981C35.1025 67.5618 35.1234 67.5141 35.1262 67.4637C35.1493 66.9324 32.9821 66.4011 30.2794 66.2856C27.5767 66.1701 25.3738 66.5292 25.3507 67.05Z" fill="#407BFF"/>
<path opacity="0.4" d="M25.3507 67.05C25.3491 67.1012 25.3663 67.1513 25.399 67.1907C25.7728 66.7287 27.8224 66.4599 30.2689 66.5607C32.7154 66.6615 34.7398 67.1088 35.0674 67.5981C35.1025 67.5618 35.1234 67.5141 35.1262 67.4637C35.1493 66.9324 32.9821 66.4011 30.2794 66.2856C27.5767 66.1701 25.3738 66.5292 25.3507 67.05Z" fill="#407BFF"/>
<path opacity="0.4" d="M25.3994 67.1991C25.7333 67.6884 27.7514 68.1315 30.1979 68.2365C32.6444 68.3415 34.7003 68.0706 35.0678 67.6065C34.7402 67.1172 32.7221 66.6741 30.2693 66.5691C27.8165 66.4641 25.7732 66.7371 25.3994 67.1991Z" fill="#407BFF"/>
<path d="M23.4002 66.3549C23.3666 67.1382 25.8467 67.8795 28.94 68.0097C32.0333 68.1399 34.568 67.6128 34.61 66.8295C34.652 66.0462 32.1635 65.3049 29.0702 65.1726C25.9769 65.0403 23.4338 65.58 23.4002 66.3549Z" fill="#407BFF"/>
<path d="M23.4591 64.9325L23.3989 66.3508L34.5986 66.8261L34.6588 65.4077L23.4591 64.9325Z" fill="#407BFF"/>
<path d="M23.4608 64.9353C23.4272 65.7186 25.9073 66.4599 29.0006 66.5922C32.0939 66.7245 34.6286 66.1953 34.6706 65.412C34.7126 64.6287 32.222 63.8853 29.1287 63.7551C26.0354 63.6249 23.4944 64.152 23.4608 64.9353Z" fill="#407BFF"/>
<path opacity="0.4" d="M23.4608 64.9353C23.4272 65.7186 25.9073 66.4599 29.0006 66.5922C32.0939 66.7245 34.6286 66.1953 34.6706 65.412C34.7126 64.6287 32.222 63.8853 29.1287 63.7551C26.0354 63.6249 23.4944 64.152 23.4608 64.9353Z" fill="white"/>
<path d="M24.1744 64.9101C24.1728 64.9613 24.19 65.0114 24.2227 65.0508C24.5965 64.5888 26.644 64.32 29.0905 64.4208C31.537 64.5216 33.5635 64.9689 33.8911 65.4582C33.9262 65.4219 33.9471 65.3742 33.9499 65.3238C33.9709 64.7925 31.8037 64.2612 29.1031 64.1478C26.4025 64.0344 24.1975 64.3809 24.1744 64.9101Z" fill="#407BFF"/>
<path opacity="0.4" d="M24.1744 64.9101C24.1728 64.9613 24.19 65.0114 24.2227 65.0508C24.5965 64.5888 26.644 64.32 29.0905 64.4208C31.537 64.5216 33.5635 64.9689 33.8911 65.4582C33.9262 65.4219 33.9471 65.3742 33.9499 65.3238C33.9709 64.7925 31.8037 64.2612 29.1031 64.1478C26.4025 64.0344 24.1975 64.3809 24.1744 64.9101Z" fill="#407BFF"/>
<path opacity="0.4" d="M24.2227 65.0508C24.5566 65.5422 26.5747 65.9853 29.0212 66.0882C31.4677 66.1911 33.5215 65.9223 33.8911 65.4582C33.5635 64.9689 31.5454 64.5258 29.0905 64.4208C26.6356 64.3158 24.5965 64.5888 24.2227 65.0508Z" fill="#407BFF"/>
<path d="M35.7728 64.8282C35.8064 65.6136 33.3263 66.3549 30.233 66.4851C27.1397 66.6153 24.605 66.0882 24.563 65.3049C24.521 64.5216 27.0095 63.7803 30.1028 63.648C33.1961 63.5157 35.7392 64.0449 35.7728 64.8282Z" fill="#407BFF"/>
<path d="M35.5658 63.5541L24.356 64.0025L24.4127 65.4221L35.6225 64.9737L35.5658 63.5541Z" fill="#407BFF"/>
<path d="M35.7103 63.4107C35.7439 64.194 33.2638 64.9353 30.1705 65.0676C27.0772 65.1999 24.5425 64.6707 24.511 63.8853C24.4795 63.0999 26.9575 62.3607 30.0508 62.2305C33.1441 62.1003 35.6788 62.6274 35.7103 63.4107Z" fill="#407BFF"/>
<path opacity="0.4" d="M35.7103 63.4107C35.7439 64.194 33.2638 64.9353 30.1705 65.0676C27.0772 65.1999 24.5425 64.6707 24.511 63.8853C24.4795 63.0999 26.9575 62.3607 30.0508 62.2305C33.1441 62.1003 35.6788 62.6274 35.7103 63.4107Z" fill="white"/>
<path d="M34.9978 63.3855C34.9994 63.4367 34.9822 63.4868 34.9495 63.5262C34.5757 63.0642 32.5282 62.7954 30.0817 62.8962C27.6352 62.997 25.6087 63.4443 25.2832 63.9336C25.2473 63.8976 25.2257 63.8499 25.2223 63.7992C25.2013 63.2679 27.3685 62.7366 30.0691 62.6211C32.7697 62.5056 34.9747 62.85 34.9978 63.3855Z" fill="#407BFF"/>
<path opacity="0.4" d="M34.9978 63.3855C34.9994 63.4367 34.9822 63.4868 34.9495 63.5262C34.5757 63.0642 32.5282 62.7954 30.0817 62.8962C27.6352 62.997 25.6087 63.4443 25.2832 63.9336C25.2473 63.8976 25.2257 63.8499 25.2223 63.7992C25.2013 63.2679 27.3685 62.7366 30.0691 62.6211C32.7697 62.5056 34.9747 62.85 34.9978 63.3855Z" fill="#407BFF"/>
<path opacity="0.4" d="M34.95 63.5262C34.6161 64.0155 32.6001 64.4586 30.1515 64.5636C27.7029 64.6686 25.6512 64.3977 25.2837 63.9336C25.6092 63.4443 27.6273 63.0012 30.0822 62.8962C32.5371 62.7912 34.5762 63.06 34.95 63.5262Z" fill="#407BFF"/>
<path d="M36.9491 62.682C36.9827 63.4653 34.5026 64.2066 31.4093 64.3368C28.316 64.467 25.7834 63.9399 25.7393 63.1566C25.6952 62.3733 28.1858 61.632 31.2791 61.4997C34.3724 61.3674 36.9155 61.8966 36.9491 62.682Z" fill="#407BFF"/>
<path d="M36.8927 61.2629L25.6909 61.7383L25.7511 63.1566L36.9529 62.6812L36.8927 61.2629Z" fill="#407BFF"/>
<path d="M36.8902 61.2624C36.9217 62.0457 34.4416 62.787 31.3483 62.9193C28.255 63.0516 25.7224 62.5224 25.6888 61.737C25.6552 60.9516 28.1353 60.2124 31.2286 60.0822C34.3219 59.952 36.8566 60.4791 36.8902 61.2624Z" fill="#407BFF"/>
<path opacity="0.4" d="M36.8902 61.2624C36.9217 62.0457 34.4416 62.787 31.3483 62.9193C28.255 63.0516 25.7224 62.5224 25.6888 61.737C25.6552 60.9516 28.1353 60.2124 31.2286 60.0822C34.3219 59.952 36.8566 60.4791 36.8902 61.2624Z" fill="white"/>
<path d="M36.174 61.2372C36.1762 61.2882 36.1597 61.3382 36.1278 61.3779C35.7519 60.9159 33.7044 60.6471 31.2579 60.7479C28.8114 60.8487 26.787 61.296 26.4594 61.7853C26.4243 61.749 26.4034 61.7013 26.4006 61.6509C26.3775 61.1196 28.5447 60.5883 31.2453 60.4728C33.9459 60.3573 36.153 60.708 36.174 61.2372Z" fill="#407BFF"/>
<path opacity="0.4" d="M36.174 61.2372C36.1762 61.2882 36.1597 61.3382 36.1278 61.3779C35.7519 60.9159 33.7044 60.6471 31.2579 60.7479C28.8114 60.8487 26.787 61.296 26.4594 61.7853C26.4243 61.749 26.4034 61.7013 26.4006 61.6509C26.3775 61.1196 28.5447 60.5883 31.2453 60.4728C33.9459 60.3573 36.153 60.708 36.174 61.2372Z" fill="#407BFF"/>
<path opacity="0.4" d="M36.1298 61.38C35.7959 61.8693 33.7778 62.3124 31.3313 62.4174C28.8848 62.5224 26.8289 62.2515 26.4614 61.7874C26.789 61.2981 28.805 60.855 31.2599 60.75C33.7148 60.645 35.7518 60.9159 36.1298 61.38Z" fill="#407BFF"/>
<path d="M36.7977 60.0927C36.8313 60.876 34.3491 61.6194 31.2579 61.7496C28.1667 61.8798 25.6299 61.3527 25.5879 60.5694C25.5459 59.7861 28.0344 59.0427 31.1277 58.9125C34.221 58.7823 36.7599 59.3094 36.7977 60.0927Z" fill="#407BFF"/>
<path d="M36.7365 58.6761L25.5347 59.1515L25.5949 60.5698L36.7967 60.0944L36.7365 58.6761Z" fill="#407BFF"/>
<path d="M36.7367 58.6752C36.7703 59.4585 34.2902 60.1998 31.1969 60.3321C28.1036 60.4644 25.5689 59.9331 25.5269 59.1498C25.4849 58.3665 27.9755 57.6252 31.0667 57.4929C34.1579 57.3606 36.7031 57.8919 36.7367 58.6752Z" fill="#407BFF"/>
<path opacity="0.4" d="M36.7367 58.6752C36.7703 59.4585 34.2902 60.1998 31.1969 60.3321C28.1036 60.4644 25.5689 59.9331 25.5269 59.1498C25.4849 58.3665 27.9755 57.6252 31.0667 57.4929C34.1579 57.3606 36.7031 57.8919 36.7367 58.6752Z" fill="white"/>
<path d="M36.0228 58.65C36.0231 58.701 36.0061 58.7506 35.9745 58.7907C35.6007 58.3287 33.5532 58.0578 31.1046 58.1607C28.656 58.2636 26.6337 58.7088 26.3061 59.1981C26.2718 59.1612 26.2511 59.1139 26.2473 59.0637C26.2242 58.5324 28.3935 58.0011 31.0941 57.8856C33.7947 57.7701 35.9997 58.1187 36.0228 58.65Z" fill="#407BFF"/>
<path opacity="0.4" d="M36.0228 58.65C36.0231 58.701 36.0061 58.7506 35.9745 58.7907C35.6007 58.3287 33.5532 58.0578 31.1046 58.1607C28.656 58.2636 26.6337 58.7088 26.3061 59.1981C26.2718 59.1612 26.2511 59.1139 26.2473 59.0637C26.2242 58.5324 28.3935 58.0011 31.0941 57.8856C33.7947 57.7701 35.9997 58.1187 36.0228 58.65Z" fill="#407BFF"/>
<path opacity="0.4" d="M35.975 58.7907C35.6411 59.28 33.623 59.7231 31.1765 59.8281C28.73 59.9331 26.6762 59.6622 26.3066 59.1981C26.6342 58.7088 28.6523 58.2636 31.1051 58.1607C33.5579 58.0578 35.6012 58.3287 35.975 58.7907Z" fill="#407BFF"/>
<path d="M37.9735 57.9444C38.0071 58.7277 35.527 59.4711 32.4337 59.6013C29.3404 59.7315 26.8057 59.2044 26.7637 58.4211C26.7217 57.6378 29.2123 56.8965 32.3056 56.7642C35.3989 56.6319 37.9399 57.1611 37.9735 57.9444Z" fill="#407BFF"/>
<path d="M37.9092 56.5282L26.7095 57.0035L26.7697 58.4218L37.9694 57.9465L37.9092 56.5282Z" fill="#407BFF"/>
<path d="M37.913 56.5269C37.9466 57.3102 35.4665 58.0515 32.3732 58.1838C29.2799 58.3161 26.7473 57.7848 26.7032 57.0015C26.6591 56.2182 29.1497 55.4769 32.243 55.3446C35.3363 55.2123 37.8815 55.7436 37.913 56.5269Z" fill="#407BFF"/>
<path opacity="0.4" d="M37.913 56.5269C37.9466 57.3102 35.4665 58.0515 32.3732 58.1838C29.2799 58.3161 26.7473 57.7848 26.7032 57.0015C26.6591 56.2182 29.1497 55.4769 32.243 55.3446C35.3363 55.2123 37.8815 55.7436 37.913 56.5269Z" fill="white"/>
<path d="M37.1989 56.5017C37.2011 56.5527 37.1846 56.6027 37.1527 56.6424C36.7768 56.1804 34.7293 55.9095 32.2828 56.0124C29.8363 56.1153 27.8119 56.5605 27.4843 57.0498C27.4492 57.0135 27.4283 56.9658 27.4255 56.9154C27.4024 56.3841 29.5696 55.8528 32.2702 55.7373C34.9708 55.6218 37.18 55.9725 37.1989 56.5017Z" fill="#407BFF"/>
<path opacity="0.4" d="M37.1989 56.5017C37.2011 56.5527 37.1846 56.6027 37.1527 56.6424C36.7768 56.1804 34.7293 55.9095 32.2828 56.0124C29.8363 56.1153 27.8119 56.5605 27.4843 57.0498C27.4492 57.0135 27.4283 56.9658 27.4255 56.9154C27.4024 56.3841 29.5696 55.8528 32.2702 55.7373C34.9708 55.6218 37.18 55.9725 37.1989 56.5017Z" fill="#407BFF"/>
<path opacity="0.4" d="M37.1523 56.6424C36.8163 57.1317 34.8003 57.5748 32.3538 57.6798C29.9073 57.7848 27.8514 57.5139 27.4839 57.0498C27.8115 56.5605 29.8275 56.1174 32.2824 56.0124C34.7373 55.9074 36.7764 56.1804 37.1523 56.6424Z" fill="#407BFF"/>
<path d="M36.1762 56.13C36.2098 56.9133 33.7297 57.6567 30.6364 57.7869C27.5431 57.9171 25.0105 57.39 24.9769 56.6067C24.9433 55.8234 27.4234 55.0821 30.5167 54.9498C33.61 54.8175 36.1447 55.3404 36.1762 56.13Z" fill="#407BFF"/>
<path d="M36.1178 54.7055L24.916 55.1808L24.9762 56.5992L36.178 56.1238L36.1178 54.7055Z" fill="#407BFF"/>
<path d="M36.1176 54.7062C36.1512 55.4895 33.669 56.2308 30.5778 56.3631C27.4866 56.4954 24.9498 55.9641 24.9078 55.1808C24.8658 54.3975 27.3543 53.6562 30.4476 53.5239C33.5409 53.3916 36.084 53.9229 36.1176 54.7062Z" fill="#407BFF"/>
<path opacity="0.4" d="M36.1176 54.7062C36.1512 55.4895 33.669 56.2308 30.5778 56.3631C27.4866 56.4954 24.9498 55.9641 24.9078 55.1808C24.8658 54.3975 27.3543 53.6562 30.4476 53.5239C33.5409 53.3916 36.084 53.9229 36.1176 54.7062Z" fill="white"/>
<path d="M35.4031 54.681C35.4028 54.7319 35.3859 54.7813 35.3548 54.8217C34.9789 54.3597 32.9314 54.0888 30.4849 54.1917C28.0384 54.2946 26.014 54.7398 25.6864 55.2291C25.6513 55.1928 25.6304 55.1451 25.6276 55.0947C25.6045 54.5634 27.7717 54.0321 30.4744 53.9166C33.1771 53.8011 35.38 54.1518 35.4031 54.681Z" fill="#407BFF"/>
<path opacity="0.4" d="M35.4031 54.681C35.4028 54.7319 35.3859 54.7813 35.3548 54.8217C34.9789 54.3597 32.9314 54.0888 30.4849 54.1917C28.0384 54.2946 26.014 54.7398 25.6864 55.2291C25.6513 55.1928 25.6304 55.1451 25.6276 55.0947C25.6045 54.5634 27.7717 54.0321 30.4744 53.9166C33.1771 53.8011 35.38 54.1518 35.4031 54.681Z" fill="#407BFF"/>
<path opacity="0.4" d="M35.3554 54.8217C35.0215 55.311 33.0034 55.7541 30.5569 55.8591C28.1104 55.9641 26.0545 55.6932 25.687 55.2291C26.0146 54.7398 28.0327 54.2967 30.4855 54.1917C32.9383 54.0867 34.9795 54.3597 35.3554 54.8217Z" fill="#407BFF"/>
<path d="M37.3544 53.9754C37.388 54.7608 34.9079 55.5021 31.8146 55.6323C28.7213 55.7625 26.1866 55.2354 26.1446 54.4521C26.1026 53.6688 28.5911 52.9275 31.6844 52.7952C34.7777 52.6629 37.3208 53.19 37.3544 53.9754Z" fill="#407BFF"/>
<path d="M37.2901 52.5597L26.0903 53.035L26.1505 54.4533L37.3502 53.978L37.2901 52.5597Z" fill="#407BFF"/>
<path d="M37.2933 52.56C37.3269 53.3433 34.8468 54.0846 31.7535 54.2169C28.6602 54.3492 26.1255 53.82 26.0835 53.0346C26.0415 52.2492 28.5321 51.51 31.6254 51.3798C34.7187 51.2496 37.2597 51.7746 37.2933 52.56Z" fill="#407BFF"/>
<path opacity="0.4" d="M37.2933 52.56C37.3269 53.3433 34.8468 54.0846 31.7535 54.2169C28.6602 54.3492 26.1255 53.82 26.0835 53.0346C26.0415 52.2492 28.5321 51.51 31.6254 51.3798C34.7187 51.2496 37.2597 51.7746 37.2933 52.56Z" fill="white"/>
<path d="M36.5794 52.5327C36.581 52.5839 36.5638 52.634 36.5311 52.6734C36.1573 52.2114 34.1098 51.9426 31.6633 52.0434C29.2168 52.1442 27.1903 52.5915 26.8627 53.0808C26.8275 53.0445 26.8067 52.9968 26.8039 52.9464C26.7829 52.4151 28.9501 51.8838 31.6507 51.7683C34.3513 51.6528 36.55 52.0035 36.5794 52.5327Z" fill="#407BFF"/>
<path opacity="0.4" d="M36.5794 52.5327C36.581 52.5839 36.5638 52.634 36.5311 52.6734C36.1573 52.2114 34.1098 51.9426 31.6633 52.0434C29.2168 52.1442 27.1903 52.5915 26.8627 53.0808C26.8275 53.0445 26.8067 52.9968 26.8039 52.9464C26.7829 52.4151 28.9501 51.8838 31.6507 51.7683C34.3513 51.6528 36.55 52.0035 36.5794 52.5327Z" fill="#407BFF"/>
<path opacity="0.4" d="M36.5312 52.6734C36.1973 53.1627 34.1792 53.6058 31.7327 53.7108C29.2862 53.8158 27.2324 53.5449 26.8628 53.0808C27.1904 52.5915 29.2085 52.1484 31.6634 52.0434C34.1183 51.9384 36.1574 52.2114 36.5312 52.6734Z" fill="#407BFF"/>
<path d="M50.0027 44.9265H22.4171L20.4116 6.6645H47.9993L50.0027 44.9265Z" fill="#407BFF"/>
<g opacity="0.6">
<path d="M50.0027 44.9265H22.4171L20.4116 6.6645H47.9993L50.0027 44.9265Z" fill="white"/>
</g>
<path d="M36.0182 32.1669H24.8882C24.8541 32.1662 24.8202 32.1727 24.7888 32.1858C24.7573 32.1989 24.7289 32.2184 24.7054 32.2431C24.6819 32.2678 24.6638 32.2971 24.6523 32.3292C24.6407 32.3613 24.6359 32.3954 24.6383 32.4294C24.6425 32.5001 24.6735 32.5666 24.725 32.6154C24.7765 32.6641 24.8446 32.6915 24.9155 32.6919H36.0455C36.0796 32.6925 36.1134 32.6861 36.1449 32.673C36.1763 32.6599 36.2047 32.6403 36.2282 32.6156C36.2517 32.591 36.2698 32.5616 36.2814 32.5296C36.2929 32.4975 36.2977 32.4634 36.2954 32.4294C36.2911 32.3586 36.2601 32.2921 36.2086 32.2434C36.1571 32.1946 36.0891 32.1673 36.0182 32.1669Z" fill="#263238"/>
<path d="M33.1894 30.1425H24.7747C24.7407 30.1424 24.7069 30.1493 24.6756 30.1628C24.6443 30.1763 24.616 30.196 24.5926 30.2208C24.5692 30.2456 24.5511 30.2749 24.5395 30.3069C24.5278 30.339 24.5228 30.3731 24.5248 30.4071C24.5296 30.4777 24.5608 30.5439 24.6121 30.5925C24.6635 30.6412 24.7313 30.6687 24.802 30.6696H33.2188C33.2528 30.6699 33.2865 30.6633 33.3179 30.6501C33.3492 30.6368 33.3774 30.6173 33.4009 30.5927C33.4243 30.568 33.4424 30.5389 33.4541 30.5069C33.4658 30.475 33.4708 30.441 33.4687 30.4071C33.4645 30.3358 33.4332 30.2687 33.3814 30.2196C33.3295 30.1705 33.2609 30.1429 33.1894 30.1425Z" fill="#263238"/>
<path d="M36.2749 37.041H25.1449C25.1109 37.0407 25.0772 37.0473 25.0459 37.0605C25.0146 37.0738 24.9863 37.0933 24.9629 37.1179C24.9394 37.1425 24.9213 37.1717 24.9096 37.2037C24.8979 37.2356 24.893 37.2696 24.895 37.3035C24.8992 37.3745 24.9301 37.4412 24.9816 37.4903C25.033 37.5394 25.1011 37.5672 25.1722 37.5681H36.3022C36.3364 37.5685 36.3702 37.5618 36.4017 37.5484C36.4332 37.535 36.4615 37.5153 36.485 37.4905C36.5085 37.4656 36.5265 37.4362 36.5381 37.404C36.5496 37.3718 36.5544 37.3376 36.5521 37.3035C36.5473 37.2329 36.5162 37.1667 36.4648 37.118C36.4134 37.0694 36.3456 37.0419 36.2749 37.041Z" fill="#263238"/>
<path d="M33.4478 35.0187H25.031C24.9977 35.0195 24.9649 35.027 24.9346 35.0407C24.9043 35.0544 24.877 35.0741 24.8545 35.0986C24.832 35.1231 24.8146 35.1519 24.8034 35.1833C24.7923 35.2147 24.7875 35.2479 24.7895 35.2812C24.7942 35.3518 24.8254 35.418 24.8768 35.4666C24.9282 35.5153 24.996 35.5428 25.0667 35.5437H33.4835C33.5175 35.544 33.5512 35.5374 33.5825 35.5241C33.6138 35.5109 33.6421 35.4914 33.6655 35.4668C33.689 35.4421 33.7071 35.413 33.7188 35.381C33.7304 35.3491 33.7354 35.3151 33.7334 35.2812C33.7286 35.2091 33.6962 35.1417 33.6431 35.0929C33.5899 35.044 33.52 35.0174 33.4478 35.0187Z" fill="#263238"/>
<path d="M36.5312 41.9151H25.4012C25.3671 41.915 25.3334 41.922 25.3021 41.9354C25.2707 41.9489 25.2425 41.9686 25.2191 41.9934C25.1957 42.0182 25.1776 42.0475 25.1659 42.0795C25.1543 42.1116 25.1493 42.1457 25.1513 42.1797C25.1561 42.2503 25.1872 42.3165 25.2386 42.3651C25.29 42.4138 25.3578 42.4413 25.4285 42.4422H36.5585C36.5925 42.4425 36.6262 42.4359 36.6575 42.4227C36.6888 42.4094 36.7171 42.3899 36.7405 42.3653C36.764 42.3406 36.7821 42.3115 36.7938 42.2795C36.8054 42.2476 36.8104 42.2136 36.8084 42.1797C36.8037 42.1089 36.7726 42.0425 36.7213 41.9935C36.67 41.9445 36.6021 41.9165 36.5312 41.9151Z" fill="#263238"/>
<path d="M33.7023 39.8928H25.2855C25.2516 39.8924 25.218 39.8991 25.1868 39.9123C25.1555 39.9256 25.1274 39.9451 25.1041 39.9698C25.0809 39.9945 25.0629 40.0237 25.0515 40.0556C25.0401 40.0875 25.0354 40.1214 25.0377 40.1553C25.0414 40.2264 25.0722 40.2934 25.1237 40.3426C25.1753 40.3918 25.2437 40.4194 25.3149 40.4199H33.7296C33.7639 40.4206 33.7979 40.4141 33.8295 40.4008C33.8611 40.3876 33.8896 40.3678 33.9131 40.3429C33.9367 40.318 33.9547 40.2884 33.9662 40.2561C33.9776 40.2238 33.9821 40.1895 33.9795 40.1553C33.9752 40.0845 33.9442 40.018 33.8927 39.9693C33.8413 39.9205 33.7732 39.8932 33.7023 39.8928Z" fill="#263238"/>
<path d="M46.3823 32.3097H44.36C44.3214 32.3093 44.2845 32.2943 44.2565 32.2679C44.2284 32.2414 44.2114 32.2053 44.2088 32.1669L44.1038 30.1425C44.1026 30.1242 44.1053 30.1058 44.1115 30.0885C44.1177 30.0712 44.1274 30.0554 44.14 30.042C44.1526 30.0286 44.1679 30.0179 44.1847 30.0107C44.2016 30.0034 44.2198 29.9997 44.2382 29.9997H46.2626C46.3009 30.0002 46.3376 30.0152 46.3653 30.0417C46.393 30.0682 46.4096 30.1042 46.4117 30.1425L46.5188 32.1669C46.5199 32.1854 46.5173 32.204 46.5109 32.2214C46.5045 32.2388 46.4946 32.2548 46.4818 32.2682C46.469 32.2816 46.4535 32.2922 46.4364 32.2994C46.4193 32.3065 46.4008 32.31 46.3823 32.3097ZM44.4923 32.022H46.229L46.1387 30.2853H44.402L44.4923 32.022Z" fill="#407BFF"/>
<path d="M46.6513 37.44H44.629C44.5901 37.4395 44.5529 37.4243 44.5248 37.3974C44.4968 37.3705 44.4799 37.3339 44.4778 37.2951L44.3728 35.2728C44.3717 35.2544 44.3743 35.2361 44.3805 35.2188C44.3868 35.2015 44.3965 35.1857 44.4091 35.1723C44.4217 35.1589 44.4369 35.1482 44.4538 35.141C44.4707 35.1337 44.4888 35.13 44.5072 35.13H46.5316C46.5702 35.1304 46.6071 35.1454 46.6351 35.1718C46.6632 35.1983 46.6802 35.2343 46.6828 35.2728L46.7878 37.2951C46.789 37.3137 46.7863 37.3324 46.7799 37.3499C46.7736 37.3675 46.7637 37.3835 46.7509 37.3971C46.7381 37.4107 46.7227 37.4215 46.7056 37.4289C46.6884 37.4362 46.67 37.44 46.6513 37.44ZM44.7613 37.1523H46.498L46.4077 35.4156H44.671L44.7613 37.1523Z" fill="#407BFF"/>
<path d="M46.9067 42.3225H44.8844C44.8459 42.3221 44.8089 42.3071 44.7809 42.2807C44.7529 42.2542 44.7358 42.2181 44.7332 42.1797L44.6282 40.1553C44.627 40.1369 44.6297 40.1186 44.6359 40.1013C44.6421 40.084 44.6519 40.0682 44.6645 40.0548C44.6771 40.0414 44.6923 40.0307 44.7091 40.0235C44.726 40.0162 44.7442 40.0125 44.7626 40.0125H46.787C46.8252 40.0134 46.8616 40.0286 46.8892 40.055C46.9168 40.0814 46.9335 40.1172 46.9361 40.1553L47.0432 42.1797C47.0444 42.1982 47.0417 42.2168 47.0353 42.2342C47.0289 42.2516 47.019 42.2676 47.0062 42.281C46.9934 42.2944 46.9779 42.305 46.9608 42.3122C46.9437 42.3193 46.9252 42.3228 46.9067 42.3225ZM45.0167 42.0369H46.7534L46.6631 40.3002H44.9243L45.0167 42.0369Z" fill="#407BFF"/>
<path d="M40.5023 23.6577H31.1699L30.6113 12.9771H39.9437L40.5023 23.6577Z" fill="white"/>
<path d="M45.3425 31.77C45.2623 31.7659 45.1869 31.7304 45.1325 31.6713L44.5802 31.0644C44.5558 31.0368 44.5371 31.0047 44.5251 30.9699C44.5131 30.9351 44.508 30.8982 44.5103 30.8615C44.5125 30.8247 44.522 30.7888 44.5381 30.7557C44.5543 30.7226 44.5768 30.693 44.6043 30.6686C44.66 30.6193 44.733 30.5941 44.8073 30.5986C44.844 30.6009 44.88 30.6103 44.9131 30.6265C44.9462 30.6426 44.9758 30.6651 45.0002 30.6927L45.3341 31.056L46.5941 29.6532C46.6464 29.5953 46.7197 29.5605 46.7976 29.5566C46.8756 29.5527 46.952 29.5799 47.0099 29.6322C47.0678 29.6846 47.1026 29.7578 47.1065 29.8358C47.1104 29.9137 47.0832 29.9901 47.0309 30.048L45.5609 31.6797C45.5337 31.7103 45.4999 31.7343 45.4621 31.7499C45.4242 31.7656 45.3834 31.7724 45.3425 31.77Z" fill="#407BFF"/>
<path d="M45.6113 36.9003C45.531 36.8962 45.4556 36.8607 45.4013 36.8016L44.849 36.1968C44.8244 36.1692 44.8055 36.1371 44.7934 36.1022C44.7813 36.0673 44.7762 36.0304 44.7783 35.9936C44.7805 35.9567 44.7898 35.9206 44.8059 35.8874C44.822 35.8542 44.8445 35.8244 44.8721 35.7999C44.8996 35.7753 44.9318 35.7565 44.9666 35.7443C45.0015 35.7322 45.0384 35.7271 45.0753 35.7292C45.1121 35.7314 45.1482 35.7408 45.1814 35.7569C45.2147 35.7729 45.2444 35.7954 45.269 35.823L45.5798 36.18L46.8398 34.7772C46.8929 34.7233 46.9647 34.692 47.0403 34.6898C47.1159 34.6875 47.1894 34.7144 47.2456 34.765C47.3019 34.8156 47.3365 34.8858 47.3422 34.9612C47.348 35.0367 47.3245 35.1114 47.2766 35.1699L45.8066 36.8037C45.7822 36.8321 45.7524 36.8554 45.7188 36.872C45.6852 36.8886 45.6486 36.8982 45.6113 36.9003Z" fill="#407BFF"/>
<path d="M45.8698 41.85C45.8301 41.8482 45.791 41.8385 45.755 41.8216C45.719 41.8047 45.6866 41.7808 45.6598 41.7513L45.1075 41.1465C45.0806 41.1203 45.0592 41.0889 45.0446 41.0543C45.03 41.0197 45.0225 40.9825 45.0225 40.9449C45.0225 40.9073 45.03 40.8701 45.0446 40.8355C45.0592 40.8009 45.0806 40.7695 45.1075 40.7433C45.1652 40.6935 45.2403 40.6687 45.3163 40.6742C45.3922 40.6797 45.4629 40.7151 45.5128 40.7727L45.8467 41.1381L47.1067 39.7353C47.1598 39.6814 47.2316 39.6501 47.3072 39.6479C47.3828 39.6456 47.4564 39.6725 47.5126 39.7231C47.5689 39.7737 47.6035 39.8439 47.6092 39.9194C47.615 39.9948 47.5914 40.0695 47.5435 40.128L46.0735 41.7618C46.0478 41.7902 46.0163 41.8127 45.9812 41.8279C45.9461 41.8431 45.9081 41.8506 45.8698 41.85Z" fill="#407BFF"/>
<path d="M40.3133 25.05H31.5101C31.4761 25.0496 31.4424 25.0563 31.4111 25.0695C31.3798 25.0828 31.3515 25.1023 31.3281 25.1269C31.3047 25.1515 31.2865 25.1807 31.2748 25.2126C31.2632 25.2446 31.2582 25.2786 31.2602 25.3125C31.2644 25.3834 31.2954 25.4502 31.3468 25.4993C31.3982 25.5483 31.4663 25.5761 31.5374 25.5771H40.3448C40.3789 25.5771 40.4126 25.5702 40.444 25.5568C40.4753 25.5433 40.5035 25.5236 40.5269 25.4988C40.5503 25.474 40.5684 25.4447 40.5801 25.4126C40.5917 25.3806 40.5967 25.3465 40.5947 25.3125C40.5899 25.2412 40.5581 25.1744 40.5059 25.1256C40.4536 25.0769 40.3848 25.0498 40.3133 25.05Z" fill="#263238"/>
<path d="M35.7371 26.7993H31.598C31.564 26.7989 31.5303 26.8056 31.499 26.8188C31.4677 26.8321 31.4394 26.8516 31.416 26.8762C31.3925 26.9008 31.3744 26.93 31.3627 26.9619C31.3511 26.9939 31.3461 27.0278 31.3481 27.0618C31.3528 27.1326 31.3839 27.199 31.4352 27.248C31.4865 27.297 31.5544 27.325 31.6253 27.3264H35.7644C35.7986 27.3268 35.8325 27.32 35.8639 27.3067C35.8954 27.2933 35.9237 27.2736 35.9472 27.2487C35.9707 27.2239 35.9888 27.1945 36.0003 27.1623C36.0119 27.1301 36.0166 27.0959 36.0143 27.0618C36.01 26.991 35.979 26.9245 35.9275 26.8758C35.8761 26.827 35.808 26.7997 35.7371 26.7993Z" fill="#263238"/>
<path d="M40.6538 9.29998H29.5238C29.4898 9.2999 29.4561 9.30682 29.4249 9.32031C29.3937 9.3338 29.3656 9.35357 29.3423 9.37839C29.3191 9.40321 29.3012 9.43255 29.2898 9.46458C29.2784 9.49662 29.2737 9.53065 29.276 9.56458C29.2802 9.63535 29.3112 9.70184 29.3627 9.75058C29.4142 9.79933 29.4823 9.82668 29.5532 9.82708H40.6832C40.7172 9.82774 40.7511 9.82131 40.7825 9.80818C40.814 9.79506 40.8424 9.77553 40.8659 9.75084C40.8894 9.72615 40.9075 9.69684 40.9191 9.66478C40.9306 9.63271 40.9354 9.59859 40.9331 9.56458C40.9283 9.49343 40.8969 9.42669 40.8452 9.37765C40.7934 9.32861 40.7251 9.30088 40.6538 9.29998Z" fill="#263238"/>
<path d="M36.9517 19.575C37.6663 18.8414 37.6186 17.636 36.8452 16.8825C36.0718 16.1291 34.8655 16.1129 34.1508 16.8465C33.4362 17.5801 33.4839 18.7855 34.2574 19.539C35.0308 20.2925 36.2371 20.3086 36.9517 19.575Z" fill="#407BFF"/>
<path d="M39.3136 23.6577H32.35C32.3285 23.2129 32.3982 22.7683 32.5547 22.3514C32.7113 21.9344 32.9514 21.5539 33.2604 21.2331C33.5693 20.9124 33.9406 20.6582 34.3514 20.4861C34.7622 20.3141 35.2038 20.2278 35.6491 20.2326C36.5764 20.243 37.4661 20.6005 38.1429 21.2345C38.8197 21.8685 39.2344 22.733 39.3052 23.6577H39.3136Z" fill="#407BFF"/>
</g>
<defs>
<filter id="filter0_dd_43_26208" x="0" y="0" width="113" height="86.1221" filterUnits="userSpaceOnUse" color-interpolation-filters="sRGB">
<feFlood flood-opacity="0" result="BackgroundImageFix"/>
<feColorMatrix in="SourceAlpha" type="matrix" values="0 0 0 0 0 0 0 0 0 0 0 0 0 0 0 0 0 0 127 0" result="hardAlpha"/>
<feMorphology radius="1" operator="dilate" in="SourceAlpha" result="effect1_dropShadow_43_26208"/>
<feOffset dy="1"/>
<feGaussianBlur stdDeviation="1.5"/>
<feColorMatrix type="matrix" values="0 0 0 0 0 0 0 0 0 0 0 0 0 0 0 0 0 0 0.15 0"/>
<feBlend mode="normal" in2="BackgroundImageFix" result="effect1_dropShadow_43_26208"/>
<feColorMatrix in="SourceAlpha" type="matrix" values="0 0 0 0 0 0 0 0 0 0 0 0 0 0 0 0 0 0 127 0" result="hardAlpha"/>
<feOffset dy="1"/>
<feGaussianBlur stdDeviation="1"/>
<feColorMatrix type="matrix" values="0 0 0 0 0 0 0 0 0 0 0 0 0 0 0 0 0 0 0.3 0"/>
<feBlend mode="normal" in2="effect1_dropShadow_43_26208" result="effect2_dropShadow_43_26208"/>
<feBlend mode="normal" in="SourceGraphic" in2="effect2_dropShadow_43_26208" result="shape"/>
</filter>
</defs>
</svg>
