<svg width="131" height="98" viewBox="0 0 131 98" fill="none" xmlns="http://www.w3.org/2000/svg">
<path d="M131 85.7788H0V85.8443H131V85.7788Z" fill="#EBEBEB"/>
<path d="M117.874 89.9944H109.196V90.0599H117.874V89.9944Z" fill="#EBEBEB"/>
<path d="M86.7797 90.707H84.5029V90.7725H86.7797V90.707Z" fill="#EBEBEB"/>
<path d="M108.935 87.563H103.907V87.6285H108.935V87.563Z" fill="#EBEBEB"/>
<path d="M25.0604 88.0031H13.7446V88.0686H25.0604V88.0031Z" fill="#EBEBEB"/>
<path d="M29.053 88.0031H27.3945V88.0686H29.053V88.0031Z" fill="#EBEBEB"/>
<path d="M58.9895 89.1088H34.4453V89.1743H58.9895V89.1088Z" fill="#EBEBEB"/>
<path d="M62.0937 74.0936H11.5041C11.1078 74.0929 10.728 73.935 10.448 73.6545C10.168 73.374 10.0107 72.9939 10.0107 72.5976V1.48292C10.0142 1.08888 10.173 0.71211 10.4526 0.434453C10.7322 0.156796 11.1101 0.000675014 11.5041 0H62.0937C62.4905 0 62.871 0.157616 63.1516 0.438174C63.4321 0.718732 63.5897 1.09925 63.5897 1.49602V72.5976C63.5897 72.9943 63.4321 73.3749 63.1516 73.6554C62.871 73.936 62.4905 74.0936 62.0937 74.0936ZM11.5041 0.0524002C11.1252 0.0530942 10.762 0.204115 10.4943 0.472314C10.2266 0.740514 10.0762 1.10398 10.0762 1.48292V72.5976C10.0762 72.9765 10.2266 73.34 10.4943 73.6082C10.762 73.8764 11.1252 74.0274 11.5041 74.0281H62.0937C62.4729 74.0274 62.8364 73.8765 63.1045 73.6083C63.3726 73.3402 63.5235 72.9768 63.5242 72.5976V1.48292C63.5235 1.10374 63.3726 0.740279 63.1045 0.472154C62.8364 0.20403 62.4729 0.0530928 62.0937 0.0524002H11.5041Z" fill="#EBEBEB"/>
<path d="M118.767 74.0936H68.1747C67.7782 74.0929 67.3981 73.9351 67.1177 73.6547C66.8372 73.3743 66.6794 72.9941 66.6787 72.5976V1.48292C66.6828 1.08864 66.8422 0.711874 67.1222 0.434289C67.4023 0.156704 67.7804 0.000667652 68.1747 0H118.767C119.161 0.00136358 119.538 0.157789 119.817 0.435373C120.096 0.712956 120.254 1.08933 120.258 1.48292V72.5976C120.258 72.9934 120.101 73.3732 119.821 73.6536C119.542 73.934 119.163 74.0922 118.767 74.0936ZM68.1747 0.0524002C67.7955 0.0530928 67.4321 0.20403 67.164 0.472154C66.8958 0.740279 66.7449 1.10374 66.7442 1.48292V72.5976C66.7449 72.9768 66.8958 73.3402 67.164 73.6083C67.4321 73.8765 67.7955 74.0274 68.1747 74.0281H118.767C119.146 74.0274 119.51 73.8765 119.778 73.6083C120.046 73.3402 120.197 72.9768 120.197 72.5976V1.48292C120.197 1.10374 120.046 0.740279 119.778 0.472154C119.51 0.20403 119.146 0.0530928 118.767 0.0524002H68.1747Z" fill="#EBEBEB"/>
<path d="M59.5605 27.2008V33.1666L62.6312 33.4548C63.0429 35.4165 63.8207 37.2831 64.9237 38.9568L62.9508 41.341L67.1664 45.5592L69.5506 43.5837C71.2237 44.6878 73.0905 45.4656 75.0526 45.8762L75.3408 48.9468H81.3065L81.5974 45.8762C83.5589 45.4638 85.4254 44.6861 87.0994 43.5837L89.4809 45.5592L93.6991 41.341L91.7263 38.9568C92.8296 37.2835 93.6065 35.4167 94.0162 33.4548L97.0894 33.1666V27.2008L94.0162 26.91C93.6068 24.948 92.8298 23.0811 91.7263 21.408L93.6991 19.0238L89.4809 14.8056L87.1151 16.768C85.4416 15.6651 83.5749 14.8882 81.6131 14.4781L81.3223 11.4048H75.3487L75.0605 14.4781C73.0985 14.8878 71.2317 15.6647 69.5585 16.768L67.1743 14.7951L62.9587 19.0133L64.9315 21.3949C63.8291 23.0689 63.0514 24.9354 62.639 26.8969L59.5605 27.2008ZM78.3381 22.1075C79.9351 22.1075 81.4963 22.5811 82.8242 23.4684C84.1521 24.3557 85.1871 25.6168 85.7983 27.0923C86.4094 28.5678 86.5693 30.1913 86.2578 31.7577C85.9462 33.3241 85.1771 34.7629 84.0479 35.8922C82.9186 37.0214 81.4798 37.7905 79.9134 38.1021C78.347 38.4136 76.7235 38.2537 75.248 37.6426C73.7725 37.0314 72.5114 35.9964 71.6241 34.6685C70.7368 33.3406 70.2632 31.7794 70.2632 30.1824C70.2632 28.0408 71.114 25.9869 72.6283 24.4726C74.1426 22.9583 76.1965 22.1075 78.3381 22.1075Z" fill="#E0E0E0"/>
<path d="M49.4813 53.8934L51.1948 55.3108L54.234 52.2795L52.8087 50.566C53.6008 49.3614 54.159 48.0184 54.454 46.6072L56.6601 46.4002V42.1165L54.454 41.9069C54.1595 40.4963 53.6013 39.1541 52.8087 37.9507L54.2261 36.2372L51.1948 33.2059L49.4813 34.6233C48.2772 33.8302 46.934 33.272 45.5225 32.9779L45.3155 30.7719H41.0292L40.8222 32.9779C39.411 33.2729 38.068 33.8311 36.8634 34.6233L35.1499 33.2059L32.1212 36.2372L33.5386 37.9507C32.7449 39.1535 32.1866 40.496 31.8932 41.9069L29.6846 42.1165V46.4028L31.8932 46.6098C32.1866 48.0202 32.744 49.3625 33.536 50.566L32.1185 52.2768L35.1473 55.3082L36.8608 53.8908C38.065 54.687 39.4092 55.248 40.8222 55.544L41.0292 57.7526H45.326L45.5329 55.544C46.9415 55.2482 48.2813 54.6881 49.4813 53.8934ZM37.3716 44.2596C37.3711 43.1116 37.7111 41.9893 38.3486 41.0345C38.9861 40.0798 39.8924 39.3355 40.9529 38.896C42.0134 38.4564 43.1805 38.3413 44.3065 38.5651C45.4324 38.7889 46.4667 39.3417 47.2785 40.1535C48.0903 40.9652 48.643 41.9995 48.8669 43.1255C49.0907 44.2515 48.9756 45.4185 48.536 46.4791C48.0964 47.5396 47.3522 48.4459 46.3975 49.0834C45.4427 49.7209 44.3203 50.0608 43.1723 50.0603C41.6341 50.0596 40.1591 49.4483 39.0714 48.3606C37.9837 47.2729 37.3723 45.7979 37.3716 44.2596Z" fill="#E0E0E0"/>
<path d="M68.5311 82.9256C70.2117 82.5729 71.8114 81.9081 73.2471 80.9659L75.2854 82.6532L78.8932 79.0454L77.2059 77.0071C78.1493 75.5722 78.8133 73.9722 79.163 72.2911L81.783 72.0422V66.9436L79.163 66.6947C78.8133 65.0136 78.1493 63.4135 77.2059 61.9787L78.8932 59.9404L75.2828 56.33L73.2445 58.0173C71.8087 57.0751 70.2091 56.4103 68.5285 56.0575L68.2796 53.4375H63.181L62.919 56.0575C61.2381 56.4094 59.6383 57.0742 58.203 58.0173L56.1804 56.33L52.5727 59.9377L54.2599 61.9761C53.3158 63.4108 52.6509 65.0108 52.3002 66.6921L49.6802 66.941V72.05L52.3002 72.2989C52.6509 73.9802 53.3158 75.5802 54.2599 77.0149L52.5727 79.0533L56.1804 82.661L58.2188 80.9737C59.654 81.9169 61.2538 82.5817 62.9348 82.9335L63.1968 85.5535H68.2979L68.5311 82.9256ZM58.8371 69.4929C58.8371 68.1263 59.2423 66.7904 60.0016 65.6542C60.7609 64.518 61.8401 63.6325 63.1027 63.1096C64.3653 62.5868 65.7546 62.4501 67.0948 62.7169C68.4351 62.9837 69.6662 63.642 70.6323 64.6085C71.5984 65.575 72.2562 66.8063 72.5225 68.1466C72.7888 69.487 72.6516 70.8762 72.1283 72.1386C71.605 73.401 70.719 74.4799 69.5825 75.2387C68.446 75.9976 67.11 76.4023 65.7434 76.4018C64.8351 76.4036 63.9354 76.2261 63.0958 75.8796C62.2562 75.5332 61.4932 75.0245 60.8505 74.3827C60.2078 73.741 59.6979 72.9787 59.3502 72.1397C59.0024 71.3006 58.8236 70.4012 58.824 69.4929H58.8371Z" fill="#E0E0E0"/>
<path d="M105.206 40.9323H110.842C110.964 40.9311 111.084 40.8982 111.19 40.8368C111.296 40.7754 111.384 40.6877 111.445 40.5821C111.507 40.4765 111.541 40.3567 111.542 40.2344C111.544 40.1121 111.514 39.9915 111.455 39.8843L108.636 35.0032C108.574 34.8954 108.485 34.8058 108.378 34.7435C108.27 34.6812 108.148 34.6483 108.024 34.6483C107.9 34.6483 107.778 34.6812 107.67 34.7435C107.563 34.8058 107.474 34.8954 107.412 35.0032L104.596 39.8843C104.537 39.9913 104.507 40.1117 104.508 40.2338C104.51 40.3559 104.543 40.4755 104.604 40.581C104.666 40.6865 104.754 40.7743 104.859 40.8358C104.965 40.8974 105.084 40.9306 105.206 40.9323ZM108.403 36.3211L108.279 38.7524H107.755L107.627 36.3211H108.403ZM107.617 39.5882C107.616 39.5347 107.627 39.4816 107.647 39.4323C107.668 39.3829 107.699 39.3383 107.737 39.301C107.775 39.2638 107.821 39.2348 107.871 39.2157C107.921 39.1966 107.974 39.1878 108.028 39.19C108.082 39.1875 108.136 39.1959 108.186 39.2148C108.237 39.2337 108.283 39.2626 108.322 39.2998C108.362 39.337 108.393 39.3817 108.414 39.4312C108.436 39.4808 108.447 39.5342 108.447 39.5882C108.448 39.6427 108.437 39.6968 108.416 39.7471C108.395 39.7974 108.364 39.843 108.324 39.8809C108.285 39.9189 108.239 39.9485 108.188 39.968C108.137 39.9875 108.082 39.9964 108.028 39.9943C107.973 39.9968 107.919 39.9881 107.868 39.9688C107.817 39.9494 107.77 39.9198 107.731 39.8818C107.691 39.8437 107.66 39.7981 107.639 39.7476C107.618 39.6971 107.608 39.6429 107.609 39.5882H107.617Z" fill="#F0F0F0"/>
<path d="M22.7938 18.9243H28.4268C28.5491 18.9231 28.669 18.8902 28.7748 18.8288C28.8806 18.7674 28.9687 18.6797 29.0305 18.5741C29.0922 18.4685 29.1256 18.3487 29.1272 18.2264C29.1289 18.1041 29.0988 17.9835 29.0399 17.8763L26.1998 12.9821C26.1378 12.8744 26.0484 12.7849 25.9408 12.7226C25.8332 12.6604 25.711 12.6276 25.5867 12.6276C25.4624 12.6276 25.3402 12.6604 25.2326 12.7226C25.125 12.7849 25.0356 12.8744 24.9736 12.9821L22.1676 17.8632C22.1049 17.9717 22.0722 18.095 22.0728 18.2203C22.0733 18.3456 22.1072 18.4686 22.1709 18.5765C22.2346 18.6845 22.3259 18.7736 22.4353 18.8347C22.5448 18.8958 22.6685 18.9267 22.7938 18.9243ZM25.9902 14.3157L25.8644 16.7444H25.3404L25.2094 14.3157H25.9902ZM25.2042 17.5828C25.2034 17.5293 25.2136 17.4762 25.234 17.4267C25.2543 17.3772 25.2845 17.3324 25.3227 17.2949C25.361 17.2575 25.4064 17.2281 25.4562 17.2087C25.5061 17.1893 25.5594 17.1802 25.6129 17.182C25.6684 17.1775 25.7243 17.1846 25.777 17.2027C25.8297 17.2209 25.878 17.2498 25.919 17.2876C25.9599 17.3254 25.9926 17.3712 26.015 17.4223C26.0373 17.4733 26.0489 17.5284 26.0489 17.5841C26.0489 17.6399 26.0373 17.695 26.015 17.746C25.9926 17.7971 25.9599 17.8429 25.919 17.8807C25.878 17.9185 25.8297 17.9474 25.777 17.9656C25.7243 17.9837 25.6684 17.9908 25.6129 17.9863C25.5576 17.9907 25.5019 17.9835 25.4496 17.9651C25.3972 17.9467 25.3493 17.9176 25.3088 17.8796C25.2683 17.8416 25.2363 17.7956 25.2146 17.7445C25.193 17.6934 25.1823 17.6383 25.1832 17.5828H25.2042Z" fill="#F0F0F0"/>
<path d="M37.8983 78.9642H43.5313C43.6555 78.9642 43.7775 78.9316 43.8851 78.8696C43.9927 78.8075 44.0821 78.7182 44.1442 78.6107C44.2064 78.5031 44.2391 78.3811 44.2391 78.2569C44.2392 78.1327 44.2065 78.0106 44.1444 77.9031L41.3279 73.022C41.2658 72.9142 41.1765 72.8247 41.0689 72.7625C40.9612 72.7003 40.8391 72.6675 40.7148 72.6675C40.5905 72.6675 40.4683 72.7003 40.3607 72.7625C40.2531 72.8247 40.1637 72.9142 40.1017 73.022L37.2852 77.9031C37.2231 78.0106 37.1904 78.1327 37.1904 78.2569C37.1904 78.3811 37.2232 78.5031 37.2853 78.6107C37.3475 78.7182 37.4368 78.8075 37.5444 78.8696C37.652 78.9316 37.7741 78.9642 37.8983 78.9642ZM41.0947 74.353L40.9689 76.7843H40.4449L40.3139 74.353H41.0947ZM40.3087 77.6201C40.3083 77.5666 40.3188 77.5135 40.3395 77.4642C40.3602 77.4148 40.3907 77.3702 40.4291 77.3329C40.4676 77.2957 40.5132 77.2667 40.5632 77.2476C40.6132 77.2285 40.6665 77.2197 40.72 77.2219C40.7741 77.2194 40.8281 77.2278 40.8788 77.2467C40.9296 77.2655 40.976 77.2944 41.0154 77.3315C41.0547 77.3687 41.0862 77.4134 41.1079 77.463C41.1297 77.5125 41.1412 77.566 41.1418 77.6201C41.1419 77.6748 41.1309 77.7289 41.1095 77.7792C41.0881 77.8295 41.0568 77.875 41.0174 77.913C40.978 77.9509 40.9314 77.9805 40.8803 77.9999C40.8292 78.0194 40.7747 78.0283 40.72 78.0262C40.6652 78.0291 40.6104 78.0207 40.5589 78.0015C40.5075 77.9823 40.4606 77.9527 40.421 77.9147C40.3815 77.8766 40.3501 77.8308 40.329 77.7801C40.3079 77.7295 40.2974 77.675 40.2982 77.6201H40.3087Z" fill="#F0F0F0"/>
<path d="M90.652 71.9033H96.2876C96.4116 71.9029 96.5333 71.8699 96.6406 71.8077C96.7478 71.7455 96.8368 71.6561 96.8986 71.5486C96.9605 71.4412 96.993 71.3193 96.9929 71.1953C96.9928 71.0713 96.9601 70.9496 96.8981 70.8422L94.0842 65.9611C94.0222 65.8534 93.9329 65.7639 93.8252 65.7016C93.7176 65.6394 93.5955 65.6066 93.4711 65.6066C93.3468 65.6066 93.2247 65.6394 93.117 65.7016C93.0094 65.7639 92.9201 65.8534 92.8581 65.9611L90.0416 70.8422C89.9796 70.9496 89.9469 71.0713 89.9468 71.1953C89.9467 71.3193 89.9792 71.4412 90.041 71.5486C90.1028 71.6561 90.1918 71.7455 90.2991 71.8077C90.4063 71.8699 90.528 71.9029 90.652 71.9033ZM93.8484 67.2921L93.7227 69.7234H93.1987L93.0677 67.2921H93.8484ZM93.0624 70.5592C93.0617 70.5058 93.0718 70.4528 93.0922 70.4035C93.1126 70.3541 93.1429 70.3095 93.1811 70.2722C93.2194 70.2349 93.2648 70.2058 93.3147 70.1867C93.3645 70.1676 93.4178 70.1588 93.4711 70.161C93.5252 70.1585 93.5792 70.167 93.63 70.1858C93.6807 70.2046 93.7271 70.2335 93.7665 70.2707C93.8058 70.3078 93.8373 70.3525 93.8591 70.4021C93.8808 70.4517 93.8923 70.5051 93.893 70.5592C93.893 70.6139 93.882 70.668 93.8606 70.7183C93.8392 70.7687 93.8079 70.8142 93.7685 70.8521C93.7291 70.89 93.6825 70.9196 93.6314 70.939C93.5803 70.9585 93.5258 70.9674 93.4711 70.9653C93.4169 70.9675 93.3627 70.9585 93.312 70.939C93.2614 70.9194 93.2152 70.8897 93.1764 70.8517C93.1377 70.8136 93.1071 70.7681 93.0866 70.7178C93.0661 70.6675 93.0561 70.6135 93.0572 70.5592H93.0624Z" fill="#F0F0F0"/>
<path d="M94.7053 10.163H97.8257C97.8944 10.1628 97.9617 10.1446 98.0212 10.1102C98.0806 10.0759 98.13 10.0266 98.1644 9.96725C98.1988 9.9079 98.2172 9.84056 98.2175 9.77194C98.2178 9.70331 98.2002 9.6358 98.1663 9.5761L96.5943 6.87488C96.5602 6.81497 96.5109 6.76515 96.4513 6.73049C96.3917 6.69584 96.324 6.67758 96.2551 6.67758C96.1861 6.67758 96.1184 6.69584 96.0588 6.73049C95.9992 6.76515 95.9499 6.81497 95.9158 6.87488L94.3569 9.5761C94.3218 9.63625 94.3034 9.70468 94.3037 9.7743C94.304 9.84392 94.3229 9.9122 94.3584 9.97207C94.394 10.0319 94.4449 10.0812 94.5059 10.1148C94.5669 10.1483 94.6357 10.165 94.7053 10.163ZM96.4764 7.6111L96.4162 8.95778H96.1306L96.0572 7.6111H96.4764ZM96.0363 9.432C96.0359 9.40221 96.0416 9.37265 96.053 9.34512C96.0644 9.31758 96.0812 9.29265 96.1025 9.27182C96.1239 9.251 96.1492 9.23472 96.177 9.22398C96.2048 9.21323 96.2345 9.20824 96.2642 9.2093C96.3233 9.2093 96.3799 9.23277 96.4217 9.27453C96.4635 9.31629 96.4869 9.37294 96.4869 9.432C96.4869 9.49107 96.4635 9.54771 96.4217 9.58948C96.3799 9.63124 96.3233 9.6547 96.2642 9.6547C96.2345 9.65577 96.2048 9.65078 96.177 9.64003C96.1492 9.62928 96.1239 9.61301 96.1025 9.59218C96.0812 9.57136 96.0644 9.54643 96.053 9.51889C96.0416 9.49136 96.0359 9.4618 96.0363 9.432Z" fill="#F0F0F0"/>
<path d="M16.8831 51.483H20.0035C20.0724 51.4836 20.1403 51.4659 20.2002 51.4317C20.26 51.3976 20.3098 51.3482 20.3444 51.2886C20.379 51.2289 20.3972 51.1612 20.3972 51.0923C20.3971 51.0234 20.3788 50.9557 20.3441 50.8961L18.7721 48.1949C18.7384 48.1349 18.6893 48.085 18.6299 48.0502C18.5705 48.0155 18.5029 47.9972 18.4341 47.9972C18.3653 47.9972 18.2977 48.0155 18.2383 48.0502C18.1789 48.085 18.1299 48.1349 18.0961 48.1949L16.5241 50.8961C16.4885 50.957 16.47 51.0265 16.4707 51.097C16.4714 51.1676 16.4912 51.2367 16.5281 51.2969C16.5649 51.3571 16.6173 51.4062 16.6799 51.439C16.7424 51.4718 16.8126 51.487 16.8831 51.483ZM18.6542 48.9311L18.5861 50.2778H18.3005L18.2297 48.9311H18.6542ZM18.214 50.7415C18.2137 50.7117 18.2193 50.6822 18.2307 50.6546C18.2421 50.6271 18.259 50.6022 18.2803 50.5813C18.3016 50.5605 18.3269 50.5442 18.3547 50.5335C18.3825 50.5227 18.4122 50.5178 18.442 50.5188C18.501 50.5188 18.5577 50.5423 18.5994 50.584C18.6412 50.6258 18.6647 50.6825 18.6647 50.7415C18.6647 50.8006 18.6412 50.8572 18.5994 50.899C18.5577 50.9408 18.501 50.9642 18.442 50.9642C18.4122 50.9653 18.3825 50.9603 18.3547 50.9495C18.3269 50.9388 18.3016 50.9225 18.2803 50.9017C18.259 50.8809 18.2421 50.8559 18.2307 50.8284C18.2193 50.8009 18.2137 50.7713 18.214 50.7415Z" fill="#F0F0F0"/>
<path d="M76.6294 31.5159H79.7498C79.8186 31.5155 79.8861 31.4971 79.9455 31.4624C80.0049 31.4278 80.0542 31.3781 80.0884 31.3184C80.1226 31.2588 80.1406 31.1911 80.1405 31.1224C80.1404 31.0536 80.1222 30.986 80.0878 30.9264L78.5289 28.2252C78.4948 28.1653 78.4455 28.1155 78.3859 28.0808C78.3263 28.0462 78.2585 28.0279 78.1896 28.0279C78.1207 28.0279 78.053 28.0462 77.9934 28.0808C77.9338 28.1155 77.8844 28.1653 77.8503 28.2252L76.2783 30.9264C76.2433 30.987 76.2251 31.0558 76.2256 31.1257C76.2261 31.1956 76.2452 31.2641 76.2809 31.3242C76.3167 31.3843 76.3679 31.4337 76.4291 31.4674C76.4904 31.5011 76.5595 31.5179 76.6294 31.5159ZM78.3979 28.9614L78.3298 30.3081H78.0442L77.9735 28.9614H78.3979ZM77.9604 30.7719C77.96 30.7423 77.9656 30.713 77.9768 30.6856C77.9881 30.6583 78.0047 30.6334 78.0257 30.6127C78.0467 30.5919 78.0718 30.5755 78.0992 30.5646C78.1267 30.5537 78.1561 30.5485 78.1857 30.5492C78.2304 30.5492 78.274 30.5625 78.3111 30.5873C78.3482 30.6122 78.3771 30.6476 78.3941 30.6889C78.4111 30.7302 78.4154 30.7756 78.4065 30.8194C78.3976 30.8632 78.3758 30.9033 78.3441 30.9347C78.3123 30.9661 78.2719 30.9874 78.228 30.9958C78.1841 31.0042 78.1387 30.9994 78.0976 30.9819C78.0565 30.9644 78.0215 30.9352 77.9971 30.8978C77.9726 30.8604 77.9598 30.8165 77.9604 30.7719Z" fill="#F0F0F0"/>
<path d="M51.1029 8.73245H42.9966V14.0904H51.1029V8.73245Z" fill="#E0E0E0"/>
<path d="M51.1186 8.73245H42.9966V9.61277H51.1186V8.73245Z" fill="#F0F0F0"/>
<path d="M33.3895 28.5999H25.2832V33.9578H33.3895V28.5999Z" fill="#E0E0E0"/>
<path d="M33.4052 28.5999H25.2832V29.4802H33.4052V28.5999Z" fill="#F0F0F0"/>
<path d="M32.2679 66.7367H24.1616V72.0946H32.2679V66.7367Z" fill="#E0E0E0"/>
<path d="M32.2836 66.7367H24.1616V67.617H32.2836V66.7367Z" fill="#F0F0F0"/>
<path d="M94.6815 52.9292H86.5752V58.2871H94.6815V52.9292Z" fill="#E0E0E0"/>
<path d="M94.6972 52.9292H86.5752V53.8096H94.6972V52.9292Z" fill="#F0F0F0"/>
<path d="M112.448 59.8801H104.342V65.238H112.448V59.8801Z" fill="#E0E0E0"/>
<path d="M112.464 59.8801H104.342V60.7604H112.464V59.8801Z" fill="#F0F0F0"/>
<path d="M109.466 19.8491H101.36V25.207H109.466V19.8491Z" fill="#E0E0E0"/>
<path d="M109.482 19.8491H101.36V20.7294H109.482V19.8491Z" fill="#F0F0F0"/>
<path d="M65.5004 97.6107C93.556 97.6107 116.3 96.2829 116.3 94.6449C116.3 93.0069 93.556 91.679 65.5004 91.679C37.4447 91.679 14.7012 93.0069 14.7012 94.6449C14.7012 96.2829 37.4447 97.6107 65.5004 97.6107Z" fill="#F5F5F5"/>
<path d="M55.9317 16.878H48.4071C47.7921 16.878 47.2024 17.1223 46.7675 17.5572C46.3327 17.992 46.0884 18.5818 46.0884 19.1967V25.7467C46.0884 26.0511 46.1484 26.3525 46.2649 26.6337C46.3815 26.9148 46.5523 27.1703 46.7677 27.3854C46.983 27.6005 47.2386 27.771 47.5199 27.8873C47.8013 28.0035 48.1027 28.0632 48.4071 28.0628H49.8166L49.2926 30.1326L51.3886 28.0628H55.9474C56.2516 28.0628 56.5528 28.0029 56.8338 27.8865C57.1148 27.7701 57.3701 27.5995 57.5852 27.3844C57.8002 27.1694 57.9708 26.9141 58.0872 26.6331C58.2036 26.3521 58.2635 26.0509 58.2635 25.7467V19.1967C58.2635 18.8911 58.2031 18.5885 58.0858 18.3064C57.9684 18.0242 57.7965 17.768 57.5798 17.5525C57.3631 17.337 57.1059 17.1665 56.8231 17.0508C56.5402 16.935 56.2373 16.8763 55.9317 16.878Z" fill="#407BFF"/>
<path opacity="0.7" d="M55.9317 16.878H48.4071C47.7921 16.878 47.2024 17.1223 46.7675 17.5572C46.3327 17.992 46.0884 18.5818 46.0884 19.1967V25.7467C46.0884 26.0511 46.1484 26.3525 46.2649 26.6337C46.3815 26.9148 46.5523 27.1703 46.7677 27.3854C46.983 27.6005 47.2386 27.771 47.5199 27.8873C47.8013 28.0035 48.1027 28.0632 48.4071 28.0628H49.8166L49.2926 30.1326L51.3886 28.0628H55.9474C56.2516 28.0628 56.5528 28.0029 56.8338 27.8865C57.1148 27.7701 57.3701 27.5995 57.5852 27.3844C57.8002 27.1694 57.9708 26.9141 58.0872 26.6331C58.2036 26.3521 58.2635 26.0509 58.2635 25.7467V19.1967C58.2635 18.8911 58.2031 18.5885 58.0858 18.3064C57.9684 18.0242 57.7965 17.768 57.5798 17.5525C57.3631 17.337 57.1059 17.1665 56.8231 17.0508C56.5402 16.935 56.2373 16.8763 55.9317 16.878Z" fill="white"/>
<path d="M52.1691 26.407C51.4022 26.407 50.6525 26.1795 50.0148 25.7535C49.3772 25.3274 48.8802 24.7218 48.5867 24.0133C48.2932 23.3047 48.2164 22.5251 48.366 21.7729C48.5156 21.0207 48.8849 20.3298 49.4272 19.7875C49.9695 19.2452 50.6604 18.8759 51.4126 18.7263C52.1648 18.5767 52.9445 18.6534 53.653 18.9469C54.3615 19.2404 54.9671 19.7374 55.3932 20.3751C55.8193 21.0128 56.0467 21.7624 56.0467 22.5294C56.0453 23.5573 55.6363 24.5428 54.9094 25.2697C54.1826 25.9966 53.1971 26.4056 52.1691 26.407ZM52.1691 19.1758C51.5058 19.1758 50.8574 19.3724 50.3059 19.7409C49.7544 20.1094 49.3246 20.6332 49.0708 21.246C48.817 21.8588 48.7505 22.5331 48.8799 23.1836C49.0093 23.8342 49.3287 24.4317 49.7978 24.9007C50.2668 25.3697 50.8643 25.6891 51.5149 25.8185C52.1654 25.9479 52.8397 25.8815 53.4525 25.6277C54.0653 25.3739 54.589 24.944 54.9575 24.3925C55.326 23.841 55.5227 23.1926 55.5227 22.5294C55.522 21.6401 55.1685 20.7875 54.5397 20.1588C53.9109 19.53 53.0583 19.1765 52.1691 19.1758Z" fill="#407BFF"/>
<path d="M51.5749 24.028C51.539 24.0279 51.5035 24.0204 51.4706 24.006C51.4377 23.9915 51.4081 23.9705 51.3837 23.9442L50.2414 22.7075C50.2178 22.6821 50.1995 22.6523 50.1875 22.6198C50.1756 22.5874 50.1702 22.5528 50.1716 22.5182C50.1731 22.4836 50.1814 22.4497 50.1961 22.4183C50.2107 22.3869 50.2315 22.3588 50.2571 22.3355C50.3082 22.2887 50.3758 22.2641 50.445 22.267C50.5143 22.27 50.5795 22.3003 50.6265 22.3512L51.5776 23.3835L53.7102 21.1172C53.7593 21.0684 53.8257 21.041 53.8949 21.041C53.9642 21.041 54.0306 21.0684 54.0797 21.1172C54.1042 21.1415 54.1237 21.1705 54.137 21.2024C54.1503 21.2344 54.1572 21.2686 54.1572 21.3032C54.1572 21.3378 54.1503 21.372 54.137 21.404C54.1237 21.4359 54.1042 21.4649 54.0797 21.4892L51.7505 23.9573C51.7028 24.0019 51.6402 24.0271 51.5749 24.028Z" fill="#407BFF"/>
<path d="M42.7847 93.3454L44.6082 93.3139L45.0614 89.101L43.2379 89.1324L42.7847 93.3454Z" fill="#E4897B"/>
<path opacity="0.2" d="M45.0616 89.1036L44.8284 91.2729L43.0049 91.3044L43.2381 89.1324L45.0616 89.1036Z" fill="black"/>
<path d="M47.0608 73.8971C47.0608 79.6611 45.439 90.6363 45.439 90.6363L42.3893 91.1105C42.3893 91.1105 42.0933 80.8768 41.978 75.2123C41.9597 74.3792 39.6357 70.3496 37.241 66.4144C36.007 64.3865 34.7547 62.3796 33.7853 60.8469C32.7504 59.2068 32.043 58.1064 32.043 58.1064L39.282 55.3973C39.282 55.3973 47.0556 68.3479 47.0608 73.8971Z" fill="#407BFF"/>
<path d="M45.866 90.8145L42.1928 91.0477L42.1299 89.866L46.1621 89.549L45.866 90.8145Z" fill="#263238"/>
<path d="M44.6968 93.0598C44.6964 93.0506 44.6986 93.0415 44.7033 93.0336C44.7079 93.0257 44.7148 93.0193 44.723 93.0152C44.8069 92.9759 45.5536 92.6275 45.771 92.7532C45.7916 92.7651 45.8086 92.7824 45.8201 92.8031C45.8317 92.8239 45.8373 92.8474 45.8365 92.8711C45.8394 92.9103 45.8329 92.9495 45.8174 92.9856C45.8018 93.0216 45.7779 93.0533 45.7475 93.0781C45.5405 93.2458 45.0217 93.1593 44.7309 93.0912C44.7227 93.0899 44.7152 93.0862 44.7091 93.0806C44.7031 93.075 44.6988 93.0678 44.6968 93.0598ZM44.8776 93.0388C45.2758 93.12 45.5771 93.1122 45.6924 93.0152C45.713 92.9995 45.7292 92.9787 45.7393 92.9548C45.7494 92.9309 45.7531 92.9048 45.7501 92.879C45.7508 92.8701 45.7489 92.8612 45.7447 92.8533C45.7406 92.8454 45.7342 92.8389 45.7265 92.8345H45.7108C45.5876 92.7742 45.171 92.9131 44.8776 93.0388Z" fill="#407BFF"/>
<path d="M44.7128 93.0886C44.7071 93.0839 44.7027 93.0778 44.7 93.0709C44.6972 93.0641 44.6962 93.0566 44.6971 93.0493C44.7265 92.7927 44.8355 92.5517 45.0088 92.3602C45.0427 92.3329 45.0818 92.3128 45.1237 92.301C45.1655 92.2893 45.2094 92.2863 45.2525 92.2921C45.3704 92.3105 45.4018 92.3707 45.4071 92.4179C45.4333 92.6249 44.98 93.0021 44.7573 93.0938C44.7525 93.0964 44.7471 93.0977 44.7416 93.0977C44.7361 93.0977 44.7307 93.0964 44.7259 93.0938L44.7128 93.0886ZM45.2368 92.3786C45.2053 92.3743 45.1732 92.3765 45.1426 92.385C45.1119 92.3936 45.0834 92.4083 45.0586 92.4284C44.9164 92.5802 44.8248 92.7724 44.7966 92.9786C45.0246 92.8528 45.3206 92.5541 45.3206 92.4284C45.3179 92.419 45.3129 92.4105 45.306 92.4037C45.2992 92.3968 45.2907 92.3918 45.2813 92.3891C45.2679 92.3837 45.2538 92.3802 45.2394 92.3786H45.2368Z" fill="#407BFF"/>
<path d="M44.5561 92.8371L42.5649 92.7742C42.529 92.7734 42.4938 92.7846 42.4649 92.8059C42.4359 92.8272 42.4149 92.8575 42.4051 92.8921L41.978 94.4929C41.9672 94.5316 41.9653 94.5722 41.9727 94.6117C41.9801 94.6512 41.9964 94.6885 42.0205 94.7206C42.0445 94.7528 42.0756 94.779 42.1114 94.7972C42.1472 94.8154 42.1867 94.8252 42.2269 94.8257C42.9474 94.8257 43.9849 94.8257 44.8888 94.8571C45.9368 94.8912 46.6154 94.8414 47.852 94.8833C48.5987 94.9069 48.8398 94.1602 48.528 94.0816C47.1158 93.7253 46.191 93.7908 44.9884 92.9943C44.8618 92.9025 44.712 92.848 44.5561 92.8371Z" fill="#263238"/>
<path opacity="0.2" d="M37.2409 66.4144C36.0069 64.3865 34.7546 62.3796 33.7852 60.8469C34.1715 60.3547 34.6198 59.9144 35.1187 59.5369C35.1187 59.5369 37.2331 63.2154 37.2409 66.4144Z" fill="black"/>
<path d="M22.2178 93.1253L23.9784 93.6021L25.5871 89.6826L23.8265 89.2058L22.2178 93.1253Z" fill="#E4897B"/>
<path opacity="0.2" d="M25.5842 89.6852L24.7562 91.7053L22.9956 91.2258L23.8235 89.2058L25.5842 89.6852Z" fill="black"/>
<path d="M39.4654 53.8331L39.3187 56.3667L34.9276 59.8696C34.9276 59.8696 34.6263 71.6596 33.3766 74.2429C32.1268 76.8262 26.1165 90.3559 26.1165 90.3559L22.8311 89.342C22.8311 89.342 28.0527 73.4386 28.5793 72.498C29.106 71.5574 26.3392 57.8443 30.0439 51.3598L39.4654 53.8331Z" fill="#407BFF"/>
<path d="M44.8806 42.5278C45.0667 43.7095 45.2212 44.8858 45.3575 46.0727C45.4937 47.2596 45.6195 48.4464 45.6928 49.6595L45.74 50.4455C45.7617 50.6385 45.8083 50.8278 45.8789 51.0088C46.0546 51.4424 46.3017 51.8436 46.6098 52.1956C46.9543 52.5997 47.3339 52.9723 47.7443 53.3091C47.9565 53.482 48.174 53.6602 48.3993 53.8331C48.6246 54.0061 48.8657 54.1606 49.0726 54.3021L48.5486 55.5571C48.2369 55.4646 47.9308 55.3544 47.6316 55.227C47.3408 55.1012 47.0474 54.965 46.7644 54.8183C46.1777 54.5098 45.6275 54.1363 45.1243 53.7048C44.5691 53.2368 44.1054 52.6701 43.7567 52.0332C43.5646 51.6808 43.4227 51.3034 43.3348 50.9118C43.3086 50.8149 43.2955 50.7101 43.2772 50.6079L43.2405 50.3459L43.1803 49.9188L42.6563 46.429C42.4807 45.2605 42.3157 44.0867 42.1689 42.9156L44.8806 42.5278Z" fill="#DC897C"/>
<path d="M41.0683 39.3C40.0492 40.7148 41.7993 46.112 41.7993 46.112L45.8498 45.1347C45.7121 43.5596 45.4047 42.0039 44.9328 40.4947C44.1783 38.3175 42.1818 37.7437 41.0683 39.3Z" fill="#407BFF"/>
<path opacity="0.7" d="M41.0683 39.3C40.0492 40.7148 41.7993 46.112 41.7993 46.112L45.8498 45.1347C45.7121 43.5596 45.4047 42.0039 44.9328 40.4947C44.1783 38.3175 42.1818 37.7437 41.0683 39.3Z" fill="white"/>
<path opacity="0.2" d="M42.4441 42.182C43.1462 42.8527 43.5523 44.5819 43.2956 45.7478L41.7995 46.112C41.3917 44.8077 41.0817 43.4748 40.8721 42.1244C41.252 41.81 41.6371 41.4196 42.4441 42.182Z" fill="black"/>
<path d="M33.6412 35.9726C33.5012 38.0003 33.2096 40.0146 32.7687 41.9986C32.4674 43.3846 32.1216 44.6867 31.781 45.8605C30.995 48.6089 30.209 50.6472 30.0439 51.3625L39.4759 53.8279C44.1343 44.4771 43.4976 38.6319 43.4976 38.6319C42.8201 38.2519 42.1202 37.9133 41.4016 37.618C41.2497 37.5551 41.0925 37.4975 40.9327 37.4398C39.6188 37.0131 38.2812 36.6632 36.9267 36.3918C36.6647 36.3368 36.4027 36.2896 36.1407 36.2451C34.8307 36.0381 33.6412 35.9726 33.6412 35.9726Z" fill="#407BFF"/>
<path opacity="0.7" d="M33.6412 35.9726C33.5012 38.0003 33.2096 40.0146 32.7687 41.9986C32.4674 43.3846 32.1216 44.6867 31.781 45.8605C30.995 48.6089 30.209 50.6472 30.0439 51.3625L39.4759 53.8279C44.1343 44.4771 43.4976 38.6319 43.4976 38.6319C42.8201 38.2519 42.1202 37.9133 41.4016 37.618C41.2497 37.5551 41.0925 37.4975 40.9327 37.4398C39.6188 37.0131 38.2812 36.6632 36.9267 36.3918C36.6647 36.3368 36.4027 36.2896 36.1407 36.2451C34.8307 36.0381 33.6412 35.9726 33.6412 35.9726Z" fill="white"/>
<path d="M40.2931 38.0633C39.8084 37.1987 40.3455 36.4547 40.9926 35.8337L39.9839 32.6688C39.4966 33.9316 38.4119 36.1298 37.1543 36.3918C37.2851 37.0017 37.554 37.5735 37.9403 38.0633H40.2931Z" fill="#E4897B"/>
<path opacity="0.2" d="M40.3954 33.9604L40.9928 35.8311C40.811 36.0014 40.6444 36.1872 40.495 36.3865C40.0548 36.0197 39.7221 35.0765 39.9867 34.5525C40.0848 34.3314 40.2234 34.1305 40.3954 33.9604Z" fill="black"/>
<path d="M46.5048 32.826C46.455 33.067 44.3092 32.564 43.9765 32.0871C43.6437 31.6103 44.7284 31.364 45.4044 31.7151C45.8599 31.9855 46.2387 32.3679 46.5048 32.826Z" fill="#407BFF"/>
<path opacity="0.3" d="M46.5048 32.826C46.455 33.067 44.3092 32.564 43.9765 32.0871C43.6437 31.6103 44.7284 31.364 45.4044 31.7151C45.8599 31.9855 46.2387 32.3679 46.5048 32.826Z" fill="black"/>
<path d="M45.5047 31.6103C45.5047 32.3439 44.9362 33.6749 44.1502 32.9203C43.3642 32.1657 45.5178 30.3501 45.5047 31.6103Z" fill="#263238"/>
<path d="M44.3357 34.7071C44.2069 34.9277 44.0625 35.1387 43.9034 35.3386C42.824 36.6983 40.6651 36.6302 39.8608 35.1028C39.8049 35.0008 39.7567 34.8949 39.7167 34.7857C39.2791 33.5727 39.7533 32.6242 40.4136 30.9474C40.5637 30.5548 40.811 30.2067 41.1324 29.9358C41.4537 29.6648 41.8386 29.4798 42.2509 29.3981C42.6632 29.3164 43.0895 29.3407 43.4899 29.4687C43.8903 29.5967 44.2516 29.8243 44.5401 30.13C45.6614 31.309 45.1558 33.3316 44.3357 34.7071Z" fill="#E4897B"/>
<path d="M41.6321 28.034C41.259 28.1502 40.9187 28.3531 40.6392 28.6261C39.6645 29.5222 38.9545 30.8636 40.1885 32.2181C41.0819 31.8828 41.5221 30.6461 41.6321 30.2924V28.034Z" fill="#263238"/>
<path d="M39.1482 32.0112C39.12 32.2334 39.1363 32.459 39.1961 32.6749C39.2559 32.8908 39.3581 33.0927 39.4966 33.2688C39.8713 33.7377 40.4136 33.4888 40.6049 32.9544C40.7804 32.4723 40.7962 31.6444 40.2774 31.3824C40.1634 31.3263 40.0375 31.2987 39.9105 31.3019C39.7834 31.3051 39.6591 31.3391 39.5481 31.4009C39.4371 31.4627 39.3427 31.5506 39.273 31.6568C39.2034 31.7631 39.1605 31.8847 39.1482 32.0112Z" fill="#E4897B"/>
<path d="M42.6905 32.5352C42.6277 32.6662 42.6486 32.7972 42.7377 32.8469C42.8268 32.8967 42.9447 32.8103 42.9997 32.6766C43.0547 32.543 43.0416 32.4146 42.9525 32.3649C42.8635 32.3151 42.7534 32.4015 42.6905 32.5352Z" fill="#263238"/>
<path d="M44.2019 33.2216C44.139 33.3526 44.16 33.4836 44.2465 33.5334C44.3329 33.5831 44.4561 33.4967 44.5085 33.3657C44.5609 33.2347 44.5478 33.1037 44.4613 33.0513C44.3748 32.9989 44.2622 33.088 44.2019 33.2216Z" fill="#263238"/>
<path d="M43.6911 33.0696C43.6717 33.5375 43.7176 34.0057 43.8274 34.4609C43.7069 34.4798 43.5838 34.4732 43.466 34.4416C43.3482 34.4101 43.2384 34.3541 43.1436 34.2775L43.6911 33.0696Z" fill="#DE5753"/>
<path d="M42.1817 34.4609C42.2358 34.4946 42.2918 34.5252 42.3494 34.5526C42.3599 34.5565 42.3715 34.5566 42.3821 34.5527C42.3927 34.5489 42.4015 34.5414 42.407 34.5316C42.4097 34.5265 42.4112 34.5209 42.4115 34.5151C42.4119 34.5094 42.4111 34.5036 42.4091 34.4982C42.4071 34.4928 42.4041 34.4879 42.4001 34.4837C42.3962 34.4795 42.3914 34.4762 42.3861 34.474C42.2184 34.4029 42.07 34.2929 41.9534 34.153C41.8367 34.0131 41.7551 33.8474 41.7154 33.6696C41.7119 33.6599 41.7051 33.6516 41.6963 33.6463C41.6874 33.641 41.677 33.639 41.6667 33.6405C41.6565 33.6421 41.6471 33.6471 41.6402 33.6548C41.6333 33.6625 41.6293 33.6724 41.6289 33.6827C41.6626 33.8434 41.7291 33.9955 41.8242 34.1294C41.9193 34.2633 42.041 34.3761 42.1817 34.4609Z" fill="#263238"/>
<path d="M42.4441 31.8383C42.4576 31.8461 42.473 31.8502 42.4886 31.8502C42.5043 31.8502 42.5196 31.8461 42.5332 31.8383C42.6272 31.7843 42.7326 31.7531 42.8409 31.7472C42.9492 31.7412 43.0574 31.7608 43.1567 31.8042C43.1667 31.8097 43.1777 31.8133 43.189 31.8146C43.2003 31.8158 43.2118 31.8149 43.2228 31.8117C43.2337 31.8085 43.244 31.8032 43.2529 31.7961C43.2618 31.789 43.2692 31.7801 43.2746 31.7701C43.2801 31.7604 43.2836 31.7496 43.2849 31.7385C43.2861 31.7273 43.2851 31.716 43.2819 31.7053C43.2788 31.6946 43.2735 31.6846 43.2664 31.6759C43.2593 31.6672 43.2505 31.6601 43.2406 31.6549C43.1164 31.5976 42.9804 31.5705 42.8438 31.576C42.7072 31.5815 42.5738 31.6193 42.4546 31.6863C42.4444 31.6913 42.4354 31.6983 42.428 31.7068C42.4207 31.7154 42.4151 31.7253 42.4117 31.7361C42.4082 31.7469 42.407 31.7582 42.4081 31.7695C42.4092 31.7807 42.4125 31.7916 42.4179 31.8016C42.4235 31.8157 42.4325 31.8283 42.4441 31.8383Z" fill="#263238"/>
<path d="M45.0929 33.012C45.1072 33.0227 45.125 33.0274 45.1427 33.0251C45.1539 33.0251 45.1651 33.0228 45.1754 33.0185C45.1858 33.0141 45.1951 33.0077 45.2029 32.9996C45.2108 32.9915 45.2169 32.982 45.2209 32.9715C45.225 32.961 45.2269 32.9499 45.2266 32.9386C45.2267 32.8022 45.1942 32.6678 45.1318 32.5466C45.0693 32.4253 44.9787 32.3208 44.8676 32.2417C44.8476 32.2306 44.8241 32.2273 44.8017 32.2327C44.7794 32.238 44.7599 32.2515 44.7471 32.2705C44.7354 32.29 44.7319 32.3133 44.7373 32.3354C44.7427 32.3574 44.7566 32.3765 44.7759 32.3884C44.8633 32.4514 44.9343 32.5345 44.9826 32.6308C45.031 32.727 45.0553 32.8335 45.0536 32.9412C45.0532 32.9555 45.0566 32.9696 45.0635 32.9821C45.0704 32.9945 45.0806 33.0049 45.0929 33.012Z" fill="#263238"/>
<path d="M45.4361 32.0871C44.2309 31.1518 42.6929 30.7274 41.4903 30.5335C40.8437 30.4243 40.189 30.3708 39.5332 30.3737C39.5856 29.6977 40.4502 28.1519 40.9925 28.0392C41.9037 27.931 42.826 27.9619 43.7278 28.1309C44.3619 28.3667 45.6221 29.2811 45.7164 29.6663C45.9129 30.4706 45.4361 32.0871 45.4361 32.0871Z" fill="#407BFF"/>
<path d="M41.4878 30.5309C41.4878 30.5309 43.086 30.1746 44.4851 30.7169C45.8841 31.2592 46.5051 32.8129 46.5051 32.8129C46.5051 32.8129 46.3819 32.4906 45.2265 32.0741C43.9454 31.626 42.8607 31.6182 41.4878 30.5309Z" fill="#407BFF"/>
<path opacity="0.1" d="M43.7278 28.1309C43.7278 28.1309 42.2999 28.7466 42.2004 28.8462C42.1008 28.9458 41.4903 30.5335 41.4903 30.5335C40.8437 30.4243 40.189 30.3708 39.5332 30.3737C39.5856 29.6977 40.4502 28.1519 40.9925 28.0392C41.9037 27.931 42.826 27.9619 43.7278 28.1309Z" fill="black"/>
<path opacity="0.1" d="M41.4878 30.5309C41.4878 30.5309 43.086 30.1746 44.4851 30.7169C45.8841 31.2592 46.5051 32.8129 46.5051 32.8129C46.5051 32.8129 46.3819 32.4906 45.2265 32.0741C43.9454 31.626 42.8607 31.6182 41.4878 30.5309Z" fill="black"/>
<path opacity="0.3" d="M44.3356 34.7071C44.2068 34.9277 44.0624 35.1387 43.9033 35.3385C42.8239 36.6983 40.665 36.6302 39.8607 35.1027C39.8118 33.9577 40.1094 32.8245 40.7148 31.8513L40.9925 31.5526C40.9925 31.5526 40.6467 32.8862 40.7488 33.1482C40.851 33.4102 41.5925 33.0749 41.9357 33.2923C42.1621 33.4582 42.3293 33.6924 42.4125 33.9604L42.2003 34.094C42.2003 34.094 41.7837 33.4286 41.6318 33.4102C41.4798 33.3919 40.7541 34.0547 40.8196 34.2827C40.8851 34.5106 40.775 34.6259 40.9925 34.7281C41.21 34.8303 41.7392 34.4818 41.7392 34.4818L42.0274 34.7438C42.0274 34.7438 41.5663 35.2364 41.637 35.3359C41.7586 35.4264 41.8998 35.4868 42.0491 35.5123C42.1985 35.5378 42.3517 35.5276 42.4964 35.4826C42.8265 35.349 42.8134 34.6285 42.8763 34.5552C42.9392 34.4818 42.368 34.2329 42.368 34.2329L42.5435 33.9709C42.5435 33.9709 43.264 34.4294 43.2902 34.5656C43.3164 34.7019 43.175 35.1158 43.2902 35.1158C43.6633 35.0536 44.0193 34.9144 44.3356 34.7071Z" fill="black"/>
<path d="M44.9722 30.4392L44.9329 30.2846L45.0456 30.1746L45.3076 30.2427C45.2958 30.1905 45.2701 30.1424 45.2332 30.1037C45.1963 30.0649 45.1496 30.0369 45.098 30.0226C45.049 30.0087 44.9971 30.0082 44.9478 30.0211C44.8985 30.034 44.8536 30.0598 44.8176 30.096C44.8067 30.0881 44.7942 30.0827 44.781 30.0802L44.0893 29.8837H44.0526C44.0389 29.8333 44.0119 29.7874 43.9745 29.7509C43.9371 29.7143 43.8907 29.6884 43.8399 29.6759C43.7891 29.6633 43.7359 29.6645 43.6858 29.6794C43.6357 29.6943 43.5905 29.7224 43.5548 29.7606L43.8168 29.8313L43.8561 29.9833L43.7434 30.0933L43.4814 30.0252C43.4935 30.0773 43.5193 30.1252 43.5562 30.1639C43.593 30.2026 43.6396 30.2307 43.691 30.2453C43.7399 30.259 43.7915 30.2597 43.8406 30.2472C43.8898 30.2348 43.9349 30.2098 43.9714 30.1746H44.0081L44.6997 30.3711C44.7118 30.3736 44.7243 30.3736 44.7364 30.3711C44.7501 30.4215 44.7771 30.4674 44.8145 30.504C44.8519 30.5405 44.8984 30.5664 44.9491 30.579C44.9999 30.5915 45.0531 30.5903 45.1032 30.5754C45.1533 30.5605 45.1986 30.5325 45.2342 30.4942L44.9722 30.4392Z" fill="white"/>
<path d="M48.7478 54.1397L50.5137 54.703L49.1068 56.2016C49.1068 56.2016 47.561 55.6043 47.9016 54.8209L48.7478 54.1397Z" fill="#E4897B"/>
<path d="M51.4073 56.6523L50.8781 57.6086L49.1069 56.2016L50.5139 54.703L51.4073 56.6523Z" fill="#E4897B"/>
<path d="M33.5362 39.7454C32.7266 40.6729 31.9013 41.6318 31.118 42.5855C30.7197 43.0597 30.332 43.5444 29.9783 44.0213C29.6339 44.4665 29.3206 44.9349 29.0403 45.423C28.9932 45.5077 28.9512 45.5952 28.9145 45.685C28.9145 45.7112 28.8962 45.7321 28.8988 45.7086C28.9014 45.685 28.8988 45.7086 28.8988 45.685V45.5671C28.886 45.4427 28.8524 45.3213 28.7993 45.2081C28.7742 45.1577 28.7462 45.1087 28.7154 45.0614C28.684 45.0169 28.6447 44.9723 28.6237 44.9461C28.6028 44.9199 28.5661 44.8911 28.5373 44.8649L28.4691 44.8125C28.4369 44.7903 28.4027 44.771 28.367 44.7549L28.3093 44.7287H28.2805C28.2595 44.7287 28.2805 44.7287 28.3198 44.7444C28.4248 44.7693 28.5317 44.7851 28.6394 44.7916C28.9014 44.8125 29.1923 44.8178 29.4883 44.8125C29.7844 44.8073 30.0909 44.8125 30.4001 44.7889C31.6315 44.7313 32.8996 44.637 34.1598 44.561L34.4218 45.8998C33.184 46.3154 31.9202 46.6488 30.6385 46.898C29.9631 47.0365 29.2782 47.1241 28.5897 47.16C28.379 47.1676 28.1681 47.1615 27.9582 47.1417C27.8137 47.1264 27.6708 47.0983 27.5312 47.0579C27.483 47.0453 27.4358 47.0296 27.3897 47.0107C27.3373 46.9897 27.2901 46.974 27.222 46.94C27.1504 46.905 27.082 46.8638 27.0177 46.8168C26.978 46.7909 26.9403 46.762 26.905 46.7304C26.8578 46.6911 26.8159 46.6491 26.774 46.6072C26.7271 46.5564 26.6842 46.5021 26.6456 46.4448C26.6018 46.3831 26.5641 46.3173 26.533 46.2483C26.4618 46.0993 26.4183 45.9386 26.4046 45.7741C26.402 45.7339 26.402 45.6937 26.4046 45.6535V45.5356C26.4016 45.4885 26.4016 45.4413 26.4046 45.3942C26.4208 45.2444 26.4497 45.0962 26.491 44.9514C26.5534 44.7367 26.6304 44.5266 26.7216 44.3226C27.0248 43.6823 27.3815 43.0688 27.7879 42.4886C28.1652 41.92 28.5582 41.396 28.9565 40.872C29.7634 39.824 30.5913 38.8573 31.4848 37.8905L33.5362 39.7454Z" fill="#DC897C"/>
<path d="M33.085 35.9936C31.3611 36.2556 28.6572 40.7096 28.6572 40.7096L32.3986 43.1409C33.3582 41.9404 34.2062 40.6547 34.9321 39.3C36.0613 37.1306 35.1705 35.6634 33.085 35.9936Z" fill="#407BFF"/>
<path opacity="0.7" d="M33.085 35.9936C31.3611 36.2556 28.6572 40.7096 28.6572 40.7096L32.3986 43.1409C33.3582 41.9404 34.2062 40.6547 34.9321 39.3C36.0613 37.1306 35.1705 35.6634 33.085 35.9936Z" fill="white"/>
<path d="M36.9051 36.3996L37.8273 35.7289L39.5461 38.0293L40.2089 36.8791L40.9111 37.4476C41.095 37.7663 41.1919 38.1277 41.1919 38.4956C41.1919 38.8636 41.095 39.225 40.9111 39.5436L39.533 38.4144L38.05 39.3655C38.05 39.3655 36.4728 37.5289 36.9051 36.3996Z" fill="#407BFF"/>
<path d="M34.8197 32.991C35.3406 33.6528 35.6763 34.4411 35.7925 35.2752C35.9086 36.1093 35.801 36.9594 35.4807 37.7383C35.1604 38.5172 34.6389 39.197 33.9696 39.7081C33.3002 40.2192 32.5071 40.5433 31.6713 40.6471C30.8356 40.751 29.9872 40.6309 29.2131 40.2992C28.439 39.9674 27.767 39.4359 27.2658 38.7591C26.7646 38.0823 26.4522 37.2845 26.3607 36.4473C26.2691 35.6101 26.4017 34.7636 26.7448 33.9945L29.3412 37.2957L31.8722 36.9315L32.8232 34.5578L30.2268 31.2566C31.0777 31.0991 31.9556 31.1775 32.7651 31.4832C33.5747 31.7889 34.2852 32.3104 34.8197 32.991Z" fill="#407BFF"/>
<path d="M53.1859 71.6937C52.6661 71.0321 52.3313 70.2443 52.2159 69.4109C52.1004 68.5775 52.2083 67.7284 52.5287 66.9505C52.849 66.1725 53.3702 65.4935 54.039 64.9831C54.7079 64.4726 55.5002 64.149 56.3352 64.0452C57.1701 63.9414 58.0176 64.0613 58.791 64.3925C59.5644 64.7238 60.236 65.2545 60.737 65.9304C61.238 66.6063 61.5505 67.4032 61.6425 68.2395C61.7345 69.0758 61.6028 69.9215 61.2607 70.6902L58.6643 67.389L56.1334 67.7532L55.1823 70.1295L57.7787 73.4281C56.9278 73.5856 56.05 73.5072 55.2404 73.2015C54.4308 72.8958 53.7203 72.3743 53.1859 71.6937Z" fill="#407BFF"/>
<g opacity="0.2">
<path d="M34.8197 32.991C35.3406 33.6528 35.6763 34.4411 35.7925 35.2752C35.9086 36.1093 35.801 36.9594 35.4807 37.7383C35.1604 38.5172 34.6389 39.197 33.9696 39.7081C33.3002 40.2192 32.5071 40.5433 31.6713 40.6471C30.8356 40.751 29.9872 40.6309 29.2131 40.2992C28.439 39.9674 27.767 39.4359 27.2658 38.7591C26.7646 38.0823 26.4522 37.2845 26.3607 36.4473C26.2691 35.6101 26.4017 34.7636 26.7448 33.9945L29.3412 37.2957L31.8722 36.9315L32.8232 34.5578L30.2268 31.2566C31.0777 31.0991 31.9556 31.1775 32.7651 31.4832C33.5747 31.7889 34.2852 32.3104 34.8197 32.991Z" fill="white"/>
<path d="M53.1859 71.6937C52.6661 71.0321 52.3313 70.2443 52.2159 69.4109C52.1004 68.5775 52.2083 67.7284 52.5287 66.9505C52.849 66.1725 53.3702 65.4935 54.039 64.9831C54.7079 64.4726 55.5002 64.149 56.3352 64.0452C57.1701 63.9414 58.0176 64.0613 58.791 64.3925C59.5644 64.7238 60.236 65.2545 60.737 65.9304C61.238 66.6063 61.5505 67.4032 61.6425 68.2395C61.7345 69.0758 61.6028 69.9215 61.2607 70.6902L58.6643 67.389L56.1334 67.7532L55.1823 70.1295L57.7787 73.4281C56.9278 73.5856 56.05 73.5072 55.2404 73.2015C54.4308 72.8958 53.7203 72.3743 53.1859 71.6937Z" fill="white"/>
</g>
<path d="M55.5677 67.0536C55.3088 67.2572 55.0124 67.4078 54.6953 67.4967C54.3782 67.5857 54.0467 67.6114 53.7197 67.5722C53.3927 67.533 53.0766 67.4298 52.7895 67.2685C52.5024 67.1071 52.2499 66.8908 52.0465 66.6318L32.0061 41.155C31.8024 40.8962 31.6516 40.5999 31.5624 40.2829C31.4733 39.9659 31.4474 39.6345 31.4863 39.3075C31.5253 38.9805 31.6282 38.6644 31.7893 38.3772C31.9504 38.09 32.1665 37.8373 32.4253 37.6337C32.684 37.43 32.9803 37.2792 33.2973 37.19C33.6143 37.1009 33.9458 37.075 34.2727 37.1139C34.5997 37.1529 34.9158 37.2558 35.203 37.4169C35.4902 37.578 35.7429 37.7941 35.9466 38.0529L55.9896 63.5324C56.1931 63.7913 56.3437 64.0877 56.4327 64.4048C56.5216 64.7219 56.5473 65.0534 56.5081 65.3804C56.4689 65.7074 56.3657 66.0235 56.2044 66.3106C56.043 66.5977 55.8267 66.8502 55.5677 67.0536Z" fill="#407BFF"/>
<path opacity="0.2" d="M55.5677 67.0536C55.3088 67.2572 55.0124 67.4078 54.6953 67.4967C54.3782 67.5857 54.0467 67.6114 53.7197 67.5722C53.3927 67.533 53.0766 67.4298 52.7895 67.2685C52.5024 67.1071 52.2499 66.8908 52.0465 66.6318L32.0061 41.155C31.8024 40.8962 31.6516 40.5999 31.5624 40.2829C31.4733 39.9659 31.4474 39.6345 31.4863 39.3075C31.5253 38.9805 31.6282 38.6644 31.7893 38.3772C31.9504 38.09 32.1665 37.8373 32.4253 37.6337C32.684 37.43 32.9803 37.2792 33.2973 37.19C33.6143 37.1009 33.9458 37.075 34.2727 37.1139C34.5997 37.1529 34.9158 37.2558 35.203 37.4169C35.4902 37.578 35.7429 37.7941 35.9466 38.0529L55.9896 63.5324C56.1931 63.7913 56.3437 64.0877 56.4327 64.4048C56.5216 64.7219 56.5473 65.0534 56.5081 65.3804C56.4689 65.7074 56.3657 66.0235 56.2044 66.3106C56.043 66.5977 55.8267 66.8502 55.5677 67.0536Z" fill="white"/>
<path opacity="0.2" d="M54.3942 65.5603C54.2614 65.665 54.1093 65.7425 53.9466 65.7883C53.7838 65.8342 53.6136 65.8476 53.4457 65.8276C53.2778 65.8077 53.1155 65.7548 52.9681 65.6721C52.8206 65.5893 52.6909 65.4783 52.5864 65.3454L33.3844 40.9349C33.1735 40.6661 33.0776 40.3246 33.1179 39.9853C33.1582 39.646 33.3312 39.3364 33.5992 39.1245C33.8686 38.9145 34.2101 38.8195 34.5492 38.8603C34.8884 38.901 35.1976 39.0741 35.4096 39.3419L54.6116 63.7525C54.8221 64.0212 54.9175 64.3624 54.8767 64.7013C54.8359 65.0402 54.6624 65.3491 54.3942 65.5603Z" fill="black"/>
<path d="M33.7485 44.8832L35.1214 43.6492L35.8 45.8841C35.8 45.8841 34.4009 46.6701 33.9031 45.9679L33.7485 44.8832Z" fill="#E4897B"/>
<path d="M36.6278 43.5444L37.1046 45.4151L35.7999 45.884L35.1187 43.6492L36.6278 43.5444Z" fill="#E4897B"/>
<path d="M25.8493 91.2939L22.3804 90.0651L22.7865 88.9516L26.6195 90.2459L25.8493 91.2939Z" fill="#263238"/>
<path d="M24.2481 93.0598C24.2477 93.0506 24.2499 93.0415 24.2546 93.0336C24.2592 93.0257 24.2661 93.0193 24.2743 93.0152C24.3581 92.9759 25.1048 92.6275 25.3223 92.7532C25.3429 92.7651 25.3599 92.7824 25.3714 92.8031C25.3829 92.8239 25.3886 92.8474 25.3878 92.8711C25.3907 92.9103 25.3841 92.9495 25.3686 92.9856C25.3531 93.0216 25.3291 93.0533 25.2987 93.0781C25.0917 93.2458 24.573 93.1593 24.2822 93.0912C24.274 93.0899 24.2664 93.0862 24.2604 93.0806C24.2543 93.075 24.2501 93.0678 24.2481 93.0598ZM24.4289 93.0388C24.8271 93.12 25.1284 93.1122 25.2437 93.0152C25.2643 92.9995 25.2805 92.9787 25.2906 92.9548C25.3007 92.9309 25.3044 92.9048 25.3013 92.879C25.302 92.8701 25.3002 92.8612 25.296 92.8533C25.2918 92.8454 25.2855 92.8389 25.2778 92.8345H25.262C25.1258 92.7742 24.7223 92.9131 24.4289 93.0388Z" fill="#407BFF"/>
<path d="M24.2669 93.0886C24.2609 93.084 24.2562 93.078 24.253 93.0712C24.2498 93.0643 24.2483 93.0568 24.2486 93.0493C24.278 92.7927 24.387 92.5517 24.5604 92.3602C24.5942 92.3329 24.6333 92.3128 24.6752 92.301C24.7171 92.2893 24.7609 92.2863 24.804 92.2921C24.9219 92.3105 24.9534 92.3707 24.9586 92.4179C24.9848 92.6249 24.5315 93.0021 24.3088 93.0938C24.304 93.0964 24.2986 93.0977 24.2931 93.0977C24.2876 93.0977 24.2823 93.0964 24.2774 93.0938L24.2669 93.0886ZM24.7909 92.3786C24.7594 92.3743 24.7273 92.3765 24.6967 92.385C24.666 92.3936 24.6375 92.4083 24.6128 92.4284C24.4705 92.5802 24.3789 92.7724 24.3508 92.9786C24.5787 92.8528 24.8748 92.5541 24.8748 92.4284C24.872 92.419 24.867 92.4105 24.8602 92.4037C24.8533 92.3968 24.8448 92.3918 24.8355 92.3891C24.8212 92.3835 24.8062 92.3799 24.7909 92.3786Z" fill="#407BFF"/>
<path d="M24.104 92.8371L22.1128 92.7742C22.0768 92.7734 22.0417 92.7846 22.0127 92.8059C21.9838 92.8272 21.9628 92.8575 21.953 92.8921L21.5259 94.4929C21.5147 94.5327 21.5131 94.5745 21.5212 94.615C21.5292 94.6555 21.5467 94.6935 21.5723 94.7259C21.5978 94.7584 21.6307 94.7843 21.6681 94.8016C21.7056 94.819 21.7466 94.8272 21.7879 94.8257C22.5084 94.8257 23.5459 94.8257 24.4498 94.8571C25.4978 94.8912 26.1764 94.8414 27.413 94.8833C28.1597 94.9069 28.4008 94.1602 28.089 94.0816C26.6768 93.7253 25.752 93.7908 24.5494 92.9943C24.4191 92.9002 24.2645 92.8456 24.104 92.8371Z" fill="#263238"/>
<path d="M29.7294 51.4961L32.3101 52.193L32.0795 53.1388L29.3442 52.4812L29.7294 51.4961Z" fill="#263238"/>
<path d="M32.6033 52.269L38.6948 53.9117L38.5533 54.703L32.3413 53.2044L32.6033 52.269Z" fill="#263238"/>
<path d="M39.5517 54.1423L39.4652 54.9204L38.7578 54.7527L38.9176 53.972L39.5517 54.1423Z" fill="#263238"/>
<path d="M35.0922 53.0026L34.9297 53.7676C34.9227 53.7992 34.9283 53.8324 34.9455 53.8598C34.9626 53.8873 34.9899 53.9069 35.0214 53.9143L36.4572 54.2523C36.4734 54.2558 36.4901 54.256 36.5063 54.253C36.5226 54.25 36.5381 54.2438 36.552 54.2348C36.5658 54.2258 36.5778 54.2142 36.5872 54.2005C36.5965 54.1869 36.6031 54.1716 36.6065 54.1554L36.7559 53.4349C36.7623 53.404 36.7566 53.3719 36.7401 53.3451C36.7235 53.3183 36.6973 53.2988 36.6668 53.2908L35.2468 52.9083C35.2304 52.904 35.2134 52.9031 35.1966 52.9055C35.1799 52.908 35.1638 52.9138 35.1494 52.9226C35.135 52.9314 35.1225 52.943 35.1126 52.9568C35.1028 52.9705 35.0958 52.9861 35.0922 53.0026Z" fill="white"/>
<path d="M42.0769 43.4501L42.0376 43.2981L42.1503 43.1854L42.4123 43.2562C42.4008 43.2052 42.3759 43.1581 42.3403 43.1199C42.3046 43.0816 42.2595 43.0534 42.2095 43.0383C42.1594 43.0231 42.1062 43.0214 42.0554 43.0335C42.0045 43.0455 41.9577 43.0708 41.9197 43.1068L41.8857 43.0911L41.194 42.8946H41.1573C41.1433 42.8456 41.1169 42.8011 41.0807 42.7653C41.0444 42.7295 40.9995 42.7036 40.9503 42.6903C40.8988 42.6762 40.8445 42.6766 40.7932 42.6914C40.7419 42.7062 40.6956 42.7348 40.6595 42.7741L40.9084 42.8422L40.9503 42.9942L40.8377 43.1068L40.5757 43.0361C40.586 43.0876 40.6101 43.1354 40.6454 43.1743C40.6806 43.2132 40.7258 43.2418 40.776 43.2571C40.8263 43.2725 40.8797 43.2739 40.9307 43.2613C40.9817 43.2486 41.0283 43.2224 41.0656 43.1854C41.0765 43.1918 41.0879 43.197 41.0997 43.2012L41.794 43.3977H41.8307C41.8444 43.4481 41.8713 43.494 41.9087 43.5306C41.9461 43.5671 41.9926 43.593 42.0434 43.6056C42.0941 43.6181 42.1473 43.6169 42.1975 43.602C42.2476 43.5871 42.2928 43.5591 42.3285 43.5208L42.0769 43.4501Z" fill="#407BFF"/>
<path d="M70.6641 93.9165V94.7025C70.6641 94.7497 70.6829 94.795 70.7163 94.8285C70.7497 94.8619 70.795 94.8806 70.8422 94.8806H93.1515C93.3417 94.8803 93.5289 94.8333 93.6968 94.7438C93.8646 94.6544 94.0079 94.5251 94.1142 94.3674C94.2204 94.2096 94.2864 94.0283 94.3063 93.8391C94.3262 93.65 94.2995 93.4588 94.2284 93.2824L87.1544 75.7756L75.7312 75.8542L76.1215 78.1257L78.642 92.8292C78.6597 92.9405 78.6532 93.0543 78.623 93.1629C78.5928 93.2714 78.5397 93.3723 78.4671 93.4585C78.3945 93.5447 78.3043 93.6143 78.2025 93.6626C78.1006 93.7109 77.9896 93.7367 77.8769 93.7383H70.8422C70.8188 93.738 70.7954 93.7423 70.7736 93.7512C70.7519 93.76 70.7321 93.7731 70.7155 93.7897C70.6989 93.8063 70.6858 93.8261 70.6769 93.8479C70.6681 93.8697 70.6637 93.893 70.6641 93.9165Z" fill="#407BFF"/>
<path opacity="0.6" d="M70.6641 93.9165V94.7025C70.6641 94.7497 70.6829 94.795 70.7163 94.8285C70.7497 94.8619 70.795 94.8806 70.8422 94.8806H93.1515C93.3417 94.8803 93.5289 94.8333 93.6968 94.7438C93.8646 94.6544 94.0079 94.5251 94.1142 94.3674C94.2204 94.2096 94.2864 94.0283 94.3063 93.8391C94.3262 93.65 94.2995 93.4588 94.2284 93.2824L89.8477 82.4304L87.1596 75.7756L75.7364 75.8542L76.1268 78.1257L77.2219 84.5185L78.6472 92.8292C78.6649 92.9405 78.6584 93.0543 78.6282 93.1629C78.5981 93.2714 78.5449 93.3723 78.4723 93.4585C78.3998 93.5447 78.3095 93.6143 78.2077 93.6626C78.1059 93.7109 77.9949 93.7367 77.8822 93.7383H70.8422C70.8188 93.738 70.7954 93.7423 70.7736 93.7512C70.7519 93.76 70.7321 93.7731 70.7155 93.7897C70.6989 93.8063 70.6858 93.8261 70.6769 93.8479C70.6681 93.8697 70.6637 93.893 70.6641 93.9165Z" fill="white"/>
<path opacity="0.2" d="M77.8824 93.741H92.3945C92.4772 93.7378 92.5579 93.7151 92.6301 93.6747C92.7023 93.6344 92.7639 93.5775 92.8099 93.5088C92.8559 93.44 92.885 93.3614 92.8948 93.2792C92.9046 93.1971 92.8947 93.1138 92.8661 93.0362L86.6672 78.1284H76.127L78.6474 92.8318C78.6651 92.9431 78.6586 93.0569 78.6284 93.1655C78.5982 93.2741 78.5451 93.3749 78.4725 93.4611C78.4 93.5473 78.3097 93.617 78.2079 93.6652C78.106 93.7135 77.995 93.7394 77.8824 93.741Z" fill="black"/>
<path opacity="0.1" d="M75.7363 75.8569L76.1267 78.1284L77.2219 84.5212L89.8476 82.4331L87.1595 75.7783L75.7363 75.8569Z" fill="black"/>
<path d="M53.524 43.23H106.411C106.589 43.23 106.765 43.2651 106.929 43.3332C107.093 43.4013 107.243 43.5011 107.368 43.6269C107.494 43.7527 107.593 43.9021 107.661 44.0664C107.729 44.2307 107.764 44.4068 107.763 44.5846V80.3764C107.763 80.7352 107.621 81.0793 107.367 81.3333C107.114 81.5872 106.77 81.7302 106.411 81.7309H53.524C53.1647 81.7309 52.8202 81.5882 52.5662 81.3342C52.3121 81.0802 52.1694 80.7356 52.1694 80.3764V44.5741C52.1715 44.2164 52.3152 43.8742 52.5691 43.6223C52.823 43.3704 53.1663 43.2293 53.524 43.23Z" fill="#407BFF"/>
<path opacity="0.7" d="M53.524 43.23H106.411C106.589 43.23 106.765 43.2651 106.929 43.3332C107.093 43.4013 107.243 43.5011 107.368 43.6269C107.494 43.7527 107.593 43.9021 107.661 44.0664C107.729 44.2307 107.764 44.4068 107.763 44.5846V80.3764C107.763 80.7352 107.621 81.0793 107.367 81.3333C107.114 81.5872 106.77 81.7302 106.411 81.7309H53.524C53.1647 81.7309 52.8202 81.5882 52.5662 81.3342C52.3121 81.0802 52.1694 80.7356 52.1694 80.3764V44.5741C52.1715 44.2164 52.3152 43.8742 52.5691 43.6223C52.823 43.3704 53.1663 43.2293 53.524 43.23Z" fill="white"/>
<path opacity="0.2" d="M105.29 81.7283H106.411C106.77 81.7283 107.114 81.5859 107.367 81.3323C107.621 81.0788 107.763 80.7349 107.763 80.3764V44.5741C107.764 44.3963 107.729 44.2202 107.661 44.0559C107.593 43.8916 107.494 43.7423 107.368 43.6164C107.243 43.4906 107.094 43.3908 106.929 43.3227C106.765 43.2546 106.589 43.2195 106.411 43.2195H105.29C105.468 43.2195 105.644 43.2546 105.808 43.3227C105.972 43.3908 106.121 43.4906 106.247 43.6164C106.372 43.7423 106.472 43.8916 106.54 44.0559C106.608 44.2202 106.642 44.3963 106.642 44.5741V80.3764C106.642 80.7349 106.5 81.0788 106.246 81.3323C105.992 81.5859 105.649 81.7283 105.29 81.7283Z" fill="black"/>
<path d="M105.421 44.5452H53.3877V79.069H105.421V44.5452Z" fill="#263238"/>
<path d="M105.421 44.5452H53.3877V47.194H105.421V44.5452Z" fill="#407BFF"/>
<path opacity="0.2" d="M104.205 45.9653C104.205 46.0932 104.167 46.2184 104.096 46.3248C104.025 46.4312 103.924 46.5142 103.806 46.5631C103.688 46.6121 103.558 46.6249 103.432 46.6C103.306 46.575 103.191 46.5134 103.101 46.4229C103.01 46.3323 102.949 46.217 102.924 46.0915C102.899 45.966 102.911 45.8359 102.96 45.7176C103.009 45.5994 103.092 45.4983 103.199 45.4272C103.305 45.3561 103.43 45.3181 103.558 45.3181C103.73 45.3188 103.894 45.3872 104.015 45.5084C104.136 45.6296 104.205 45.7938 104.205 45.9653Z" fill="black"/>
<path opacity="0.2" d="M102.067 45.9653C102.069 46.0936 102.032 46.2195 101.962 46.3269C101.892 46.4344 101.791 46.5185 101.673 46.5687C101.555 46.6189 101.425 46.6329 101.299 46.6088C101.173 46.5847 101.057 46.5237 100.965 46.4335C100.874 46.3433 100.812 46.228 100.786 46.1023C100.76 45.9766 100.773 45.846 100.821 45.7273C100.87 45.6086 100.953 45.5071 101.06 45.4356C101.166 45.3642 101.292 45.326 101.42 45.326C101.59 45.326 101.754 45.3931 101.875 45.5127C101.996 45.6324 102.065 45.795 102.067 45.9653Z" fill="black"/>
<path opacity="0.2" d="M99.9319 45.9653C99.9335 46.0941 99.8965 46.2205 99.8257 46.3283C99.755 46.436 99.6537 46.5201 99.5348 46.5699C99.4159 46.6197 99.2849 46.6329 99.1585 46.6077C99.0321 46.5825 98.9161 46.5202 98.8254 46.4287C98.7346 46.3372 98.6732 46.2207 98.6491 46.0941C98.625 45.9675 98.6392 45.8366 98.69 45.7181C98.7408 45.5997 98.8257 45.499 98.934 45.4292C99.0423 45.3593 99.169 45.3234 99.2979 45.326C99.4657 45.33 99.6254 45.3988 99.7436 45.518C99.8618 45.6372 99.9293 45.7975 99.9319 45.9653Z" fill="black"/>
<path opacity="0.4" d="M105.421 47.2072H53.3877V56.1702H105.421V47.2072Z" fill="white"/>
<path d="M54.5798 47.6054L53.3877 49.7407V47.6054H54.5798Z" fill="#263238"/>
<path d="M61.0067 47.6054L56.44 55.8007H53.3877V54.7973L57.3963 47.6054H61.0067Z" fill="#263238"/>
<path d="M62.8486 55.8348H59.2383L63.8259 47.6028H67.4336L62.8486 55.8348Z" fill="#263238"/>
<path d="M69.2754 55.8348H65.665L70.2527 47.6028H73.863L69.2754 55.8348Z" fill="#263238"/>
<path d="M75.7022 55.8348H72.0918L76.6794 47.6028H80.2898L75.7022 55.8348Z" fill="#263238"/>
<path d="M82.1292 55.8348H78.5215L83.1065 47.6028H86.7168L82.1292 55.8348Z" fill="#263238"/>
<path d="M88.5586 55.7746H84.9482L89.5359 47.5425H93.1436L88.5586 55.7746Z" fill="#263238"/>
<path d="M94.9854 55.7746H91.375L95.9626 47.5425H99.573L94.9854 55.7746Z" fill="#263238"/>
<path d="M105.421 47.5766V48.5826L101.412 55.7746H97.8018L102.371 47.5766H105.421Z" fill="#263238"/>
<path d="M105.421 53.6995V55.8007H104.25L105.421 53.6995Z" fill="#263238"/>
<path opacity="0.4" d="M105.421 70.0719H53.3877V79.0349H105.421V70.0719Z" fill="white"/>
<path d="M54.5798 70.5435L53.3877 72.6604V70.5435H54.5798Z" fill="#263238"/>
<path d="M61.0067 70.5435L56.44 78.6707H53.3877V77.6751L57.3963 70.5435H61.0067Z" fill="#263238"/>
<path d="M62.8486 78.7048H59.2383L63.8259 70.5435H67.4336L62.8486 78.7048Z" fill="#263238"/>
<path d="M69.2754 78.7048H65.665L70.2527 70.5435H73.863L69.2754 78.7048Z" fill="#263238"/>
<path d="M75.7022 78.7048H72.0918L76.6794 70.5435H80.2898L75.7022 78.7048Z" fill="#263238"/>
<path d="M82.1292 78.7048H78.5215L83.1065 70.5435H86.7168L82.1292 78.7048Z" fill="#263238"/>
<path d="M88.5586 78.6445H84.9482L89.5359 70.4832H93.1436L88.5586 78.6445Z" fill="#263238"/>
<path d="M94.9854 78.6445H91.375L95.9626 70.4832H99.573L94.9854 78.6445Z" fill="#263238"/>
<path d="M105.421 70.5147V71.5103L101.412 78.6419H97.8018L102.371 70.5147H105.421Z" fill="#263238"/>
<path d="M105.421 76.5852V78.6707H104.25L105.421 76.5852Z" fill="#263238"/>
<path d="M70.7842 64.452V65.1987H67.1948V60.412H70.6899V61.156H68.0856V62.4005H70.3965V63.142H68.0856V64.452H70.7842Z" fill="white"/>
<path d="M74.9085 65.1987L73.9312 63.797C73.8684 63.797 73.8081 63.797 73.7452 63.797H72.6658V65.1935H71.7881V60.412H73.7583C75.0159 60.412 75.7967 61.0539 75.7967 62.115C75.8111 62.4429 75.7198 62.7667 75.5363 63.0388C75.3528 63.311 75.0869 63.5171 74.7775 63.6267L75.8779 65.1987H74.9085ZM73.7033 61.1639H72.6553V63.0713H73.7033C74.4893 63.0713 74.8875 62.7149 74.8875 62.115C74.8875 61.515 74.4841 61.1639 73.7033 61.1639Z" fill="white"/>
<path d="M79.9096 65.1987L78.9324 63.797C78.8695 63.797 78.8092 63.797 78.7463 63.797H77.6669V65.1935H76.7656V60.412H78.7332C79.9935 60.412 80.7716 61.0539 80.7716 62.115C80.786 62.4429 80.6947 62.7667 80.5112 63.0388C80.3278 63.311 80.0618 63.5171 79.7524 63.6267L80.8528 65.1987H79.9096ZM78.707 61.1639H77.659V63.0713H78.707C79.493 63.0713 79.8887 62.7149 79.8887 62.115C79.8887 61.515 79.4799 61.1639 78.7018 61.1639H78.707Z" fill="white"/>
<path d="M81.4268 62.804C81.4268 61.3892 82.5219 60.3438 84.0048 60.3438C85.4878 60.3438 86.5829 61.3918 86.5829 62.804C86.5829 64.2162 85.4904 65.2668 84.0048 65.2668C82.5193 65.2668 81.4268 64.2214 81.4268 62.804ZM85.6869 62.804C85.6869 62.4713 85.5882 62.1461 85.4034 61.8695C85.2186 61.5929 84.9559 61.3773 84.6485 61.25C84.3412 61.1227 84.003 61.0894 83.6767 61.1543C83.3504 61.2192 83.0507 61.3794 82.8155 61.6146C82.5802 61.8499 82.42 62.1496 82.3551 62.4759C82.2902 62.8022 82.3235 63.1404 82.4508 63.4477C82.5781 63.7551 82.7937 64.0178 83.0703 64.2026C83.347 64.3874 83.6722 64.4861 84.0048 64.4861C84.2276 64.493 84.4494 64.4542 84.6566 64.3721C84.8638 64.29 85.052 64.1664 85.2096 64.0088C85.3672 63.8512 85.4908 63.663 85.5729 63.4558C85.655 63.2486 85.6938 63.0268 85.6869 62.804Z" fill="white"/>
<path d="M90.6519 65.1987L89.6746 63.797C89.6118 63.797 89.5515 63.797 89.4912 63.797H88.4092V65.1935H87.521V60.412H89.4912C90.7488 60.412 91.527 61.0539 91.527 62.115C91.5413 62.4429 91.4501 62.7667 91.2666 63.0388C91.0831 63.311 90.8172 63.5171 90.5078 63.6267L91.6108 65.1987H90.6519ZM89.4493 61.1639H88.4013V63.0713H89.4493C90.2353 63.0713 90.6309 62.7149 90.6309 62.115C90.6309 61.515 90.2327 61.1639 89.4546 61.1639H89.4493Z" fill="white"/>
<path opacity="0.4" d="M95.7899 65.9533H101.426C101.55 65.9533 101.672 65.9207 101.779 65.8587C101.887 65.7966 101.976 65.7073 102.038 65.5998C102.101 65.4922 102.133 65.3702 102.133 65.246C102.133 65.1218 102.101 64.9997 102.039 64.8922L99.2195 60.0111C99.1578 59.9033 99.0687 59.8137 98.9613 59.7514C98.8539 59.6891 98.7319 59.6563 98.6077 59.6563C98.4835 59.6562 98.3615 59.6891 98.2541 59.7514C98.1466 59.8137 98.0576 59.9033 97.9959 60.0111L95.1768 64.8922C95.1147 64.9997 95.082 65.1218 95.082 65.246C95.0821 65.3702 95.1148 65.4922 95.1769 65.5998C95.2391 65.7073 95.3284 65.7966 95.436 65.8587C95.5436 65.9207 95.6657 65.9533 95.7899 65.9533ZM98.9863 61.3421L98.8631 63.7734H98.3391L98.2108 61.3421H98.9863ZM98.2003 64.6092C98.1995 64.5558 98.2097 64.5028 98.2301 64.4535C98.2505 64.4041 98.2807 64.3594 98.319 64.3222C98.3572 64.2849 98.4027 64.2558 98.4525 64.2367C98.5024 64.2176 98.5556 64.2088 98.609 64.211C98.6636 64.2074 98.7183 64.215 98.7699 64.2334C98.8214 64.2518 98.8686 64.2805 98.9086 64.3178C98.9486 64.3551 98.9805 64.4002 99.0025 64.4503C99.0244 64.5004 99.0358 64.5545 99.0361 64.6092C99.0361 64.6639 99.0251 64.718 99.0037 64.7683C98.9823 64.8187 98.951 64.8641 98.9116 64.9021C98.8722 64.94 98.8256 64.9696 98.7745 64.989C98.7234 65.0085 98.6689 65.0174 98.6142 65.0153C98.5593 65.0186 98.5043 65.0104 98.4527 64.9914C98.4011 64.9723 98.354 64.9428 98.3144 64.9047C98.2747 64.8665 98.2434 64.8205 98.2225 64.7697C98.2015 64.7188 98.1912 64.6642 98.1924 64.6092H98.2003Z" fill="white"/>
<path opacity="0.4" d="M57.3778 65.9533H63.0134C63.1374 65.9529 63.2591 65.9199 63.3663 65.8577C63.4736 65.7954 63.5626 65.7061 63.6244 65.5986C63.6862 65.4911 63.7187 65.3693 63.7186 65.2453C63.7185 65.1213 63.6859 64.9995 63.6239 64.8922L60.8074 60.0111C60.7457 59.9033 60.6566 59.8137 60.5492 59.7514C60.4418 59.6891 60.3198 59.6562 60.1956 59.6562C60.0714 59.6562 59.9494 59.6891 59.842 59.7514C59.7345 59.8137 59.6455 59.9033 59.5838 60.0111L56.7647 64.8922C56.7026 64.9997 56.6699 65.1218 56.6699 65.246C56.6699 65.3702 56.7027 65.4922 56.7648 65.5998C56.827 65.7073 56.9163 65.7966 57.0239 65.8587C57.1315 65.9207 57.2536 65.9533 57.3778 65.9533ZM60.5742 61.3421L60.4484 63.7734H59.9244L59.796 61.3421H60.5742ZM59.7882 64.6092C59.7874 64.5558 59.7976 64.5028 59.818 64.4535C59.8384 64.4041 59.8686 64.3594 59.9069 64.3222C59.9451 64.2849 59.9906 64.2558 60.0404 64.2367C60.0903 64.2176 60.1435 64.2088 60.1969 64.211C60.2511 64.2081 60.3052 64.2163 60.3561 64.235C60.407 64.2537 60.4536 64.2826 60.493 64.3198C60.5325 64.357 60.564 64.4019 60.5856 64.4516C60.6072 64.5014 60.6184 64.555 60.6187 64.6092C60.6188 64.6639 60.6078 64.718 60.5864 64.7683C60.565 64.8187 60.5337 64.8641 60.4943 64.9021C60.4549 64.94 60.4082 64.9696 60.3571 64.989C60.306 65.0085 60.2515 65.0174 60.1969 65.0153C60.1431 65.0167 60.0895 65.0072 60.0394 64.9874C59.9894 64.9675 59.9439 64.9377 59.9056 64.8997C59.8674 64.8617 59.8373 64.8164 59.8171 64.7665C59.7969 64.7166 59.7871 64.663 59.7882 64.6092Z" fill="white"/>
<path opacity="0.1" d="M58.811 44.54C66.0056 51.7476 84.487 67.7873 105.421 66.603V44.54H58.811Z" fill="white"/>
<path opacity="0.1" d="M53.3877 57.792V79.0716H84.715C83.5125 74.7722 81.1125 68.8877 76.4542 64.6826C68.0728 57.116 58.3474 57.137 53.3877 57.792Z" fill="white"/>
<path d="M97.988 93.272L98.9207 93.6807C98.7271 93.8691 98.4838 93.9985 98.2193 94.0537C97.9549 94.1089 97.6802 94.0877 97.4273 93.9925C97.1377 93.8618 96.9055 93.6302 96.7739 93.341C96.6424 93.0519 96.6204 92.7247 96.7121 92.4205C96.7694 92.207 96.8878 92.0149 97.0527 91.8677L94.5165 85.3884C93.6047 85.4251 93.2196 84.571 93.2406 83.9841L94.168 84.3954C94.2204 84.4233 94.278 84.44 94.3371 84.4445C94.3963 84.449 94.4557 84.4412 94.5117 84.4216C94.5677 84.402 94.619 84.3711 94.6624 84.3307C94.7058 84.2903 94.7404 84.2413 94.764 84.1869C94.7876 84.1325 94.7997 84.0738 94.7995 84.0144C94.7992 83.9551 94.7867 83.8965 94.7627 83.8423C94.7387 83.788 94.7038 83.7393 94.66 83.6993C94.6163 83.6592 94.5648 83.6286 94.5086 83.6094L93.5759 83.2007C93.7694 83.012 94.0127 82.8825 94.2772 82.8272C94.5417 82.772 94.8165 82.7934 95.0693 82.8889C95.3606 83.0156 95.5968 83.2426 95.7348 83.5287C95.8728 83.8149 95.9035 84.141 95.8213 84.4478C95.7781 84.654 95.6719 84.8417 95.5173 84.9849L98.0535 91.4668C98.7635 91.5061 99.3137 92.2973 99.2928 92.8842L98.3469 92.486C98.2405 92.4401 98.1204 92.4381 98.0125 92.4802C97.9045 92.5224 97.8176 92.6054 97.7705 92.7113C97.7269 92.8147 97.7252 92.931 97.7658 93.0357C97.8064 93.1403 97.8861 93.225 97.988 93.272Z" fill="#407BFF"/>
<path opacity="0.2" d="M97.988 93.272L98.9207 93.6807C98.7271 93.8691 98.4838 93.9985 98.2193 94.0537C97.9549 94.1089 97.6802 94.0877 97.4273 93.9925C97.1377 93.8618 96.9055 93.6302 96.7739 93.341C96.6424 93.0519 96.6204 92.7247 96.7121 92.4205C96.7694 92.207 96.8878 92.0149 97.0527 91.8677L94.5165 85.3884C93.6047 85.4251 93.2196 84.571 93.2406 83.9841L94.168 84.3954C94.2204 84.4233 94.278 84.44 94.3371 84.4445C94.3963 84.449 94.4557 84.4412 94.5117 84.4216C94.5677 84.402 94.619 84.3711 94.6624 84.3307C94.7058 84.2903 94.7404 84.2413 94.764 84.1869C94.7876 84.1325 94.7997 84.0738 94.7995 84.0144C94.7992 83.9551 94.7867 83.8965 94.7627 83.8423C94.7387 83.788 94.7038 83.7393 94.66 83.6993C94.6163 83.6592 94.5648 83.6286 94.5086 83.6094L93.5759 83.2007C93.7694 83.012 94.0127 82.8825 94.2772 82.8272C94.5417 82.772 94.8165 82.7934 95.0693 82.8889C95.3606 83.0156 95.5968 83.2426 95.7348 83.5287C95.8728 83.8149 95.9035 84.141 95.8213 84.4478C95.7781 84.654 95.6719 84.8417 95.5173 84.9849L98.0535 91.4668C98.7635 91.5061 99.3137 92.2973 99.2928 92.8842L98.3469 92.486C98.2405 92.4401 98.1204 92.4381 98.0125 92.4802C97.9045 92.5224 97.8176 92.6054 97.7705 92.7113C97.7269 92.8147 97.7252 92.931 97.7658 93.0357C97.8064 93.1403 97.8861 93.225 97.988 93.272Z" fill="white"/>
<path d="M90.7543 87.5447L89.7666 87.791C89.8042 87.5232 89.9177 87.2719 90.0936 87.0667C90.2696 86.8614 90.5007 86.7109 90.7596 86.6329C91.0691 86.5594 91.3947 86.601 91.6758 86.75C91.9569 86.899 92.1741 87.1451 92.287 87.4425C92.3717 87.6472 92.3945 87.8722 92.3525 88.0897L98.3157 91.6764C99.0152 91.0896 99.8405 91.5323 100.184 92.0092L99.1986 92.2502C99.1432 92.2634 99.091 92.2875 99.0451 92.3211C98.9991 92.3547 98.9603 92.3972 98.9311 92.446C98.9018 92.4948 98.8825 92.549 98.8745 92.6054C98.8664 92.6617 98.8697 92.7192 98.8842 92.7742C98.9126 92.8849 98.9837 92.9798 99.0819 93.0382C99.1801 93.0966 99.2974 93.1138 99.4082 93.086L100.399 92.8397C100.361 93.1074 100.247 93.3588 100.072 93.564C99.8955 93.7693 99.6644 93.9198 99.4056 93.9978C99.0961 94.0749 98.7692 94.0379 98.4848 93.8936C98.2004 93.7492 97.9775 93.5071 97.8572 93.2118C97.7669 93.0218 97.7359 92.8091 97.7681 92.6013L91.8076 89.0119C91.2181 89.4154 90.3011 89.1246 89.9605 88.6451L90.9561 88.3831C91.0667 88.354 91.1618 88.2832 91.2214 88.1855C91.281 88.0878 91.3005 87.9708 91.2757 87.8591C91.2479 87.7485 91.1774 87.6534 91.0798 87.5945C90.9821 87.5357 90.8652 87.5177 90.7543 87.5447Z" fill="#407BFF"/>
<path opacity="0.2" d="M90.7543 87.5447L89.7666 87.791C89.8042 87.5232 89.9177 87.2719 90.0936 87.0667C90.2696 86.8614 90.5007 86.7109 90.7596 86.6329C91.0691 86.5594 91.3947 86.601 91.6758 86.75C91.9569 86.899 92.1741 87.1451 92.287 87.4425C92.3717 87.6472 92.3945 87.8722 92.3525 88.0897L98.3157 91.6764C99.0152 91.0896 99.8405 91.5323 100.184 92.0092L99.1986 92.2502C99.1432 92.2634 99.091 92.2875 99.0451 92.3211C98.9991 92.3547 98.9603 92.3972 98.9311 92.446C98.9018 92.4948 98.8825 92.549 98.8745 92.6054C98.8664 92.6617 98.8697 92.7192 98.8842 92.7742C98.9126 92.8849 98.9837 92.9798 99.0819 93.0382C99.1801 93.0966 99.2974 93.1138 99.4082 93.086L100.399 92.8397C100.361 93.1074 100.247 93.3588 100.072 93.564C99.8955 93.7693 99.6644 93.9198 99.4056 93.9978C99.0961 94.0749 98.7692 94.0379 98.4848 93.8936C98.2004 93.7492 97.9775 93.5071 97.8572 93.2118C97.7669 93.0218 97.7359 92.8091 97.7681 92.6013L91.8076 89.0119C91.2181 89.4154 90.3011 89.1246 89.9605 88.6451L90.9561 88.3831C91.0667 88.354 91.1618 88.2832 91.2214 88.1855C91.281 88.0878 91.3005 87.9708 91.2757 87.8591C91.2479 87.7485 91.1774 87.6534 91.0798 87.5945C90.9821 87.5357 90.8652 87.5177 90.7543 87.5447Z" fill="white"/>
<path d="M110.797 84.5631L110.813 84.5212H101.599L99.437 90.2302H108.612L108.607 90.2459H109.364L111.308 85.1552L110.797 84.5631Z" fill="#263238"/>
<path opacity="0.2" d="M110.797 84.5631L110.813 84.5212H101.599L99.437 90.2302H108.612L108.607 90.2459H109.364L111.308 85.1552L110.797 84.5631Z" fill="white"/>
<path opacity="0.4" d="M110.813 84.5212L108.652 90.2302H99.437L101.599 84.5212H110.813Z" fill="black"/>
<path d="M94.8179 88.5167L96.9506 91.2572L97.7156 91.1419L95.465 88.5167H94.8179Z" fill="#263238"/>
<path opacity="0.1" d="M94.8179 88.5167L96.9506 91.2572L97.7156 91.1419L95.465 88.5167H94.8179Z" fill="white"/>
<path d="M95.4648 85.9255L97.5975 88.666L98.3626 88.5508L96.112 85.9255H95.4648Z" fill="#263238"/>
<path opacity="0.1" d="M95.4648 85.9255L97.5975 88.666L98.3626 88.5508L96.112 85.9255H95.4648Z" fill="white"/>
<path d="M92.7165 94.8833H108.651V90.2302H92.7165V94.8833Z" fill="#263238"/>
<path opacity="0.2" d="M92.7165 94.8833H108.651V90.2302H92.7165V94.8833Z" fill="white"/>
<path d="M94.446 88.8075H109.084V88.0713H94.446V88.8075Z" fill="#263238"/>
<path opacity="0.2" d="M94.446 88.8075H109.084V88.0713H94.446V88.8075Z" fill="white"/>
<path opacity="0.2" d="M103.464 88.8075H109.084V88.0713H103.464V88.8075Z" fill="black"/>
<path d="M95.3103 86.6434H109.948V85.9072H95.3103V86.6434Z" fill="#263238"/>
<path opacity="0.2" d="M95.3103 86.6434H109.948V85.9072H95.3103V86.6434Z" fill="white"/>
<path opacity="0.2" d="M104.328 86.6434H109.948V85.9072H104.328V86.6434Z" fill="black"/>
<path opacity="0.2" d="M102.384 94.8833H108.651V90.2302H102.384V94.8833Z" fill="black"/>
</svg>
