<svg width="102" height="93" viewBox="0 0 102 93" fill="none" xmlns="http://www.w3.org/2000/svg">
<path d="M51.85 92.0467C79.0751 92.0467 101.145 79.3042 101.145 63.5856C101.145 47.8669 79.0751 35.1245 51.85 35.1245C24.625 35.1245 2.55469 47.8669 2.55469 63.5856C2.55469 79.3042 24.625 92.0467 51.85 92.0467Z" fill="#F0F0F0"/>
<path d="M83.7657 74.6763C91.1386 74.6763 97.1154 71.2255 97.1154 66.9687C97.1154 62.7119 91.1386 59.261 83.7657 59.261C76.3929 59.261 70.416 62.7119 70.416 66.9687C70.416 71.2255 76.3929 74.6763 83.7657 74.6763Z" fill="#E0E0E0"/>
<path d="M9.59038 69.1851L13.7746 71.6056C13.9502 71.6956 14.1447 71.7426 14.342 71.7426C14.5394 71.7426 14.7339 71.6956 14.9094 71.6056L63.7861 43.3846C64.1006 43.204 64.1006 42.9107 63.7861 42.7301L59.5997 40.3117C59.4242 40.2227 59.2302 40.1763 59.0334 40.1763C58.8366 40.1763 58.6426 40.2227 58.4671 40.3117L9.59038 68.5348C9.27586 68.7112 9.27586 69.0045 9.59038 69.1851Z" fill="#E0E0E0"/>
<path d="M65.9692 79.292L47.1942 90.1298C47.0531 90.2022 46.8969 90.2399 46.7383 90.2399C46.5798 90.2399 46.4236 90.2022 46.2825 90.1298L20.9474 75.503C20.8924 75.4842 20.8446 75.4487 20.8108 75.4015C20.777 75.3542 20.7588 75.2976 20.7588 75.2395C20.7588 75.1813 20.777 75.1247 20.8108 75.0774C20.8446 75.0302 20.8924 74.9947 20.9474 74.9759L39.7203 64.1381C39.8613 64.0657 40.0176 64.028 40.1761 64.028C40.3346 64.028 40.4909 64.0657 40.632 64.1381L65.9692 78.765C66.0242 78.7837 66.072 78.8192 66.1058 78.8664C66.1396 78.9137 66.1578 78.9703 66.1578 79.0285C66.1578 79.0866 66.1396 79.1432 66.1058 79.1905C66.072 79.2377 66.0242 79.2732 65.9692 79.292Z" fill="#E0E0E0"/>
<path opacity="0.1" d="M77.0063 50.8032L75.1277 49.7194C74.9542 49.6183 74.757 49.5649 74.5561 49.5649C74.3552 49.5649 74.158 49.6183 73.9845 49.7194L50.6086 63.3943L48.4071 65.9848C48.3839 66.0123 48.3701 66.0465 48.3676 66.0824C48.3651 66.1183 48.3741 66.1541 48.3932 66.1846C48.4124 66.215 48.4407 66.2387 48.4741 66.252C48.5075 66.2654 48.5443 66.2678 48.5792 66.2589L53.3712 64.9838L77.0063 51.3536C77.0544 51.3255 77.0942 51.2854 77.1219 51.2371C77.1496 51.1888 77.1642 51.1341 77.1642 51.0784C77.1642 51.0228 77.1496 50.9681 77.1219 50.9198C77.0942 50.8715 77.0544 50.8313 77.0063 50.8032Z" fill="#455A64"/>
<path d="M20.0557 4.29599L19.2269 4.57225V2.98907C19.2269 1.73528 18.0708 1.43352 16.8171 2.06254C15.5633 2.70006 14.5454 4.21312 14.5454 5.46266V5.69217C14.3679 5.64334 14.1824 5.63059 13.9999 5.65468C13.8174 5.67877 13.6416 5.73921 13.4828 5.83242C12.5797 6.28294 11.8486 7.3816 11.8486 8.28476V8.38889L10.7053 8.97328C10.1103 9.27079 9.62793 9.99332 9.62793 10.5883C9.62793 11.1834 10.1146 11.4235 10.7053 11.126L20.0557 6.45082C20.6507 6.15331 21.1331 5.43078 21.1331 4.83576C21.1331 4.24074 20.6592 3.99848 20.0557 4.29599Z" fill="#EBEBEB"/>
<path d="M29.7012 7.85339L28.1967 8.60567C28.2052 8.54868 28.2094 8.49115 28.2094 8.43354V8.0659C28.2094 7.3965 27.6654 7.12449 26.9939 7.46025C26.712 7.60834 26.465 7.81481 26.2692 8.0659C26.1609 7.21587 25.3958 6.90773 24.4672 7.37313C23.462 7.87464 22.6481 9.09656 22.6481 10.0996V10.6649C22.6425 10.8925 22.6952 11.1178 22.8011 11.3194L21.5537 11.942C21.3657 12.041 21.2054 12.1854 21.0874 12.362C20.9694 12.5387 20.8974 12.742 20.8779 12.9536C20.8779 13.3255 21.1818 13.4763 21.5537 13.2915L29.7012 9.21769C29.8888 9.11846 30.0487 8.97398 30.1663 8.79735C30.284 8.62071 30.3556 8.4175 30.3749 8.20616C30.3749 7.82577 30.0731 7.67489 29.7012 7.85339Z" fill="#EBEBEB"/>
<path d="M11.3412 63.3454L13.0731 62.7228C13.0731 62.7228 13.5831 58.938 13.1114 55.829C12.408 51.1751 8.4681 46.67 5.66087 45.7987C0.503319 44.1921 0.53307 49.0798 4.42833 51.8084C7.81782 54.18 10.8376 57.7246 11.3412 63.3454Z" fill="#407BFF"/>
<path d="M12.1918 63.1308H12.1705C12.119 63.1172 12.0745 63.0848 12.0458 63.0399C12.017 62.995 12.0062 62.941 12.0154 62.8885C12.9441 58.6384 9.64384 50.595 5.00267 48.2107C4.96899 48.1791 4.94651 48.1373 4.93865 48.0918C4.93079 48.0463 4.93797 47.9995 4.9591 47.9584C4.98023 47.9173 5.01417 47.8843 5.05578 47.8642C5.09738 47.8442 5.14439 47.8382 5.18968 47.8473C9.9796 50.306 13.3797 58.5874 12.4149 62.9757C12.4017 63.0235 12.3722 63.0652 12.3314 63.0936C12.2906 63.1219 12.2413 63.1351 12.1918 63.1308Z" fill="white"/>
<path d="M13.6174 67.1004C13.7003 66.5968 13.7535 65.8551 13.7683 65.6745C13.8302 65.0291 13.7578 64.378 13.5558 63.7619C13.4623 63.492 13.2774 63.2307 13.2434 62.9565C13.2094 62.6824 13.2732 62.438 13.2031 62.166C13.1354 61.8951 13.0148 61.6403 12.8481 61.4164C12.6814 61.1924 12.472 61.0037 12.2319 60.8612C11.7686 60.5977 11.1694 60.4787 10.908 60.0112C10.7337 59.6967 10.7741 59.3141 10.789 58.9486C10.8102 58.3982 10.7444 57.8075 10.3916 57.3867C9.93682 56.8448 9.14205 56.7364 8.43865 56.8087C7.73525 56.8809 7.03822 57.0934 6.3327 57.0339C5.14053 56.9383 4.12262 56.0904 2.93258 55.9183C2.51288 55.8612 2.08643 55.8777 1.67241 55.9672C1.06039 56.0947 0.433492 56.3922 0.148732 56.9489C0.0322718 57.2115 -0.0170502 57.4989 0.00520764 57.7853C0.0274655 58.0717 0.120604 58.3481 0.276237 58.5895C0.605623 59.1335 1.12627 59.4778 1.67666 59.7774C2.22705 60.077 2.64994 60.4022 2.37156 61.1141C2.27412 61.3145 2.2116 61.5301 2.18668 61.7516C2.19245 61.947 2.24897 62.1375 2.35069 62.3044C2.45241 62.4714 2.59582 62.6089 2.76682 62.7036C3.10988 62.8899 3.48333 63.0137 3.86974 63.0691L5.22341 63.3433C5.61655 63.424 6.10106 63.6025 6.12019 64.0042C6.13294 64.2528 5.94593 64.4611 5.85031 64.6927C5.76992 64.9294 5.76091 65.1846 5.82439 65.4264C5.88786 65.6682 6.02103 65.886 6.20732 66.0528C6.58785 66.3812 7.06071 66.5839 7.56099 66.6329C8.05613 66.7052 8.55765 66.6967 9.04854 66.7519C9.81647 66.8402 10.5587 67.0823 11.231 67.4638C11.3946 67.5771 11.5754 67.6632 11.7665 67.7188C12.0576 67.7804 13.5643 67.417 13.6174 67.1004Z" fill="#407BFF"/>
<g opacity="0.1">
<path d="M13.6174 67.1004C13.7003 66.5968 13.7535 65.8551 13.7683 65.6745C13.8302 65.0291 13.7578 64.3779 13.5558 63.7619C13.4623 63.492 13.2774 63.2306 13.2434 62.9565C13.2094 62.6824 13.2732 62.438 13.2031 62.166C13.1354 61.8951 13.0148 61.6403 12.8481 61.4164C12.6814 61.1924 12.472 61.0037 12.2319 60.8612C11.7686 60.5977 11.1694 60.4787 10.908 60.0112C10.7337 59.6967 10.7741 59.3141 10.789 58.9486C10.8102 58.3982 10.7444 57.8075 10.3916 57.3867C9.93682 56.8448 9.14205 56.7364 8.43865 56.8087C7.73525 56.8809 7.03822 57.0934 6.3327 57.0339C5.14053 56.9383 4.12262 56.0904 2.93258 55.9183C2.51288 55.8612 2.08643 55.8777 1.67241 55.9671C1.06039 56.0947 0.433492 56.3922 0.148732 56.9489C0.0322718 57.2115 -0.0170502 57.4989 0.00520764 57.7853C0.0274655 58.0717 0.120604 58.3481 0.276237 58.5895C0.605623 59.1335 1.12627 59.4778 1.67666 59.7774C2.22705 60.077 2.64994 60.4022 2.37156 61.1141C2.27412 61.3145 2.2116 61.5301 2.18668 61.7516C2.19245 61.947 2.24897 62.1375 2.35069 62.3044C2.45241 62.4714 2.59582 62.6089 2.76682 62.7036C3.10988 62.8899 3.48333 63.0137 3.86974 63.0691L5.22341 63.3433C5.61655 63.424 6.10106 63.6025 6.12019 64.0042C6.13294 64.2528 5.94593 64.4611 5.85031 64.6927C5.76992 64.9294 5.76091 65.1846 5.82439 65.4264C5.88786 65.6682 6.02103 65.886 6.20732 66.0527C6.58785 66.3812 7.06071 66.5839 7.56099 66.6329C8.05613 66.7051 8.55765 66.6966 9.04854 66.7519C9.81647 66.8402 10.5587 67.0823 11.231 67.4638C11.3946 67.5771 11.5754 67.6632 11.7665 67.7188C12.0576 67.7804 13.5643 67.417 13.6174 67.1004Z" fill="black"/>
</g>
<path d="M12.7992 67.5679C12.7642 67.5645 12.7309 67.5514 12.7031 67.53C12.6753 67.5085 12.6541 67.4797 12.6419 67.4468C10.9418 62.9693 6.91695 59.3907 1.29613 57.3676C1.24976 57.3508 1.21192 57.3163 1.19082 57.2718C1.16973 57.2272 1.1671 57.1761 1.1835 57.1296C1.20119 57.0839 1.23575 57.0467 1.28003 57.0258C1.32432 57.0048 1.37496 57.0017 1.42151 57.017C7.14645 59.0783 11.2542 62.7355 12.9883 67.3151C12.9972 67.3378 13.0015 67.3621 13.001 67.3865C13.0004 67.4109 12.9951 67.4349 12.9852 67.4573C12.9753 67.4796 12.9611 67.4997 12.9434 67.5165C12.9257 67.5334 12.9048 67.5465 12.882 67.5552C12.8557 67.5656 12.8274 67.5699 12.7992 67.5679Z" fill="white"/>
<path d="M72.8133 52.3694L72.4244 52.5947L71.959 52.8688L53.286 63.7301C53.4305 63.4028 53.3115 62.7504 52.9736 62.1256C52.5805 61.3989 51.9812 60.8251 51.5498 60.806L70.0974 50.017L70.9921 49.5048C70.4332 49.8661 72.2459 52.7328 72.8133 52.3694Z" fill="#407BFF"/>
<path d="M70.9351 49.5303C71.1816 49.3752 71.6151 49.8363 72.0295 50.4207C72.582 51.1985 73.0325 52.227 72.7074 52.431L72.0699 52.8029L71.8404 52.9326C72.1655 52.72 71.715 51.6979 71.1625 50.9222C70.7651 50.3612 70.3125 49.9319 70.0596 50.0382L70.9351 49.5303Z" fill="#EBEBEB"/>
<path d="M70.2467 49.9298C70.8184 49.5707 72.6289 52.4523 72.0573 52.8114L71.1903 53.3172C71.7619 52.9581 69.9535 50.0786 69.3818 50.4377L70.2467 49.9298Z" fill="#407BFF"/>
<path d="M68.5547 50.9159L69.4047 50.4165C69.9615 50.0595 71.7423 52.8242 71.2642 53.2683L71.2344 53.2917L70.3695 53.789C70.9369 53.4192 69.1221 50.5525 68.5547 50.9159Z" fill="#EBEBEB"/>
<path d="M48.9897 63.7471L48.3691 64.4611L48.9897 63.7471Z" fill="#E0E0E0"/>
<path d="M52.8855 61.5774C52.5285 61.1311 52.0482 60.8081 51.5552 60.8038L48.9902 63.7428C49.0932 63.7595 49.1876 63.8104 49.258 63.8873C49.5598 64.2911 49.5321 64.4908 49.5321 64.4908L53.2871 63.7258C53.6569 63.1584 53.4061 62.234 52.8855 61.5774Z" fill="#FFA8A7"/>
<path d="M49.257 63.8916C49.2258 63.8493 49.1856 63.8144 49.1393 63.7894C49.093 63.7644 49.0418 63.7499 48.9893 63.7471L48.3688 64.4611C48.3476 64.4841 48.3344 64.5133 48.331 64.5443C48.3275 64.5754 48.3342 64.6067 48.3498 64.6338C48.3655 64.6608 48.3894 64.6822 48.418 64.6947C48.4466 64.7072 48.4785 64.7102 48.509 64.7034L49.5312 64.4908C49.5312 64.4908 49.5758 64.2975 49.257 63.8916Z" fill="#37474F"/>
<path d="M76.2181 50.3825L72.818 52.3715C72.7994 52.3821 72.7793 52.3899 72.7585 52.3949C72.9901 52.1229 72.5588 51.1581 72.0339 50.4207C71.6514 49.8831 71.1966 49.4666 70.9395 49.5303L74.4883 47.4541C75.2661 46.9122 76.2904 48.3807 76.4944 49.4304C76.5815 49.8278 76.505 50.1785 76.2181 50.3825Z" fill="#F28F8F"/>
<path opacity="0.15" d="M76.2184 50.3825C76.5052 50.17 76.5711 49.8278 76.4904 49.4304C76.4904 49.3816 76.467 49.3306 76.4542 49.2796L53.4057 62.6314L48.3799 64.6672C48.3969 64.6833 48.4177 64.695 48.4402 64.7013C48.4628 64.7076 48.4866 64.7083 48.5095 64.7034L49.5317 64.4908L53.2867 63.7258L76.2184 50.3825Z" fill="black"/>
<path d="M61.6605 1.05313C61.3418 0.881001 60.9295 0.906502 60.479 1.16576L15.4317 27.1703C14.8899 27.5175 14.4499 28.0022 14.1566 28.575L12.3418 27.5252C12.7392 26.7708 13.3023 26.5136 13.7932 26.2289L58.8448 0.220103C59.3166 -0.0497811 59.7437 -0.0625323 60.0667 0.132975L61.6605 1.05313Z" fill="#455A64"/>
<path d="M12.5966 69.3381C12.1992 69.115 11.9463 68.588 11.9463 67.8378V29.765C11.9463 28.915 12.0058 28.1521 12.3479 27.5252L14.1627 28.575C14.116 28.66 14.0714 28.7492 14.0267 28.8406C13.9821 28.932 13.9609 28.9872 13.9332 29.0531C13.9271 29.0637 13.9228 29.0751 13.9205 29.0871C13.8835 29.1711 13.8509 29.2569 13.8227 29.3442C13.7909 29.4335 13.7632 29.5249 13.7399 29.6141C13.7185 29.6839 13.7015 29.7548 13.6889 29.8266C13.6195 30.1148 13.5838 30.41 13.5826 30.7064V68.7771C13.5826 69.5358 13.8397 70.067 14.2414 70.2859L12.5966 69.3381Z" fill="#263238"/>
<path d="M60.4793 1.16363L15.024 27.3679C14.0018 27.9587 13.5811 28.9724 13.5811 30.343V68.7792C13.5811 70.1435 14.4098 70.7683 15.432 70.1797L60.4836 44.1709C61.5057 43.5822 62.3345 41.9969 62.3345 40.6348V2.56193C62.3302 1.19976 61.493 0.572863 60.4793 1.16363Z" fill="#37474F"/>
<path d="M57.9966 43.8309L17.9135 66.9729C17.3843 67.2789 16.9551 66.9538 16.9551 66.2461V29.3421C16.9551 28.6345 17.3801 27.8142 17.9135 27.5082L57.9966 4.36612C58.5258 4.06011 58.955 4.38524 58.955 5.09289V41.9969C58.955 42.7046 58.5173 43.5249 57.9966 43.8309Z" fill="#407BFF"/>
<path opacity="0.1" d="M57.9966 43.8309L17.9135 66.9729C17.3843 67.2789 16.9551 66.9538 16.9551 66.2461V29.3421C16.9551 28.6345 17.3801 27.8142 17.9135 27.5082L57.9966 4.36612C58.5258 4.06011 58.955 4.38524 58.955 5.09289V41.9969C58.955 42.7046 58.5173 43.5249 57.9966 43.8309Z" fill="black"/>
<path d="M15.7499 49.9298C15.7469 50.1105 15.7017 50.288 15.618 50.4481C15.5342 50.6082 15.4142 50.7466 15.2675 50.8521C15.0019 51.0051 14.7852 50.8415 14.7852 50.4866C14.7882 50.3059 14.8334 50.1285 14.9171 49.9683C15.0009 49.8082 15.1209 49.6699 15.2675 49.5643C15.5332 49.4071 15.7499 49.5707 15.7499 49.9298Z" fill="#263238"/>
<path d="M15.2687 43.7437C15.1543 43.8257 15.0606 43.9334 14.9953 44.0582C14.93 44.1829 14.8948 44.3212 14.8926 44.462V47.7474C14.8926 48.0236 15.0605 48.1511 15.2687 48.03C15.3826 47.9481 15.4758 47.8407 15.5407 47.7163C15.6057 47.592 15.6406 47.4541 15.6427 47.3139V44.0285C15.6427 43.7522 15.4748 43.6247 15.2687 43.7437Z" fill="#263238"/>
<path d="M57.52 8.02975C57.4903 7.80024 57.3075 7.71737 57.095 7.84487L19.6512 29.4547C19.5232 29.5385 19.4169 29.6513 19.341 29.7841L18.5186 29.3166C18.558 29.2485 18.605 29.185 18.6588 29.1275L18.6992 29.0871C18.7384 29.0496 18.7819 29.0167 18.8288 28.9894L56.262 7.37098C56.4657 7.26418 56.701 7.23402 56.925 7.28598C56.9909 7.29832 57.0542 7.32205 57.112 7.3561C57.139 7.37163 57.1646 7.3894 57.1885 7.40923C57.2061 7.42099 57.2219 7.43531 57.2353 7.45173C57.2481 7.46142 57.2596 7.47286 57.2693 7.48573C57.2915 7.50777 57.3114 7.53197 57.3288 7.55799C57.3449 7.57837 57.3598 7.59966 57.3734 7.62174C57.405 7.67051 57.4314 7.72251 57.452 7.77687C57.4663 7.80642 57.4783 7.83696 57.4882 7.86825C57.4882 7.89162 57.4988 7.91287 57.5052 7.93837C57.5122 7.96846 57.5172 7.99899 57.52 8.02975Z" fill="#FAFAFA"/>
<path d="M19.4572 63.9362C19.3127 63.9362 19.2128 63.8214 19.2128 63.6217V30.2155C19.219 30.0654 19.2628 29.9192 19.3404 29.7905L18.5179 29.3166C18.468 29.4014 18.4307 29.493 18.4074 29.5886C18.3994 29.6243 18.3937 29.6605 18.3904 29.697C18.3894 29.7147 18.3894 29.7324 18.3904 29.7501V63.1478C18.3955 63.2955 18.4355 63.44 18.5071 63.5693C18.5788 63.6985 18.6801 63.809 18.8027 63.8916C18.9578 63.9712 19.1333 64.0023 19.3064 63.9808C19.4279 63.9749 19.5461 63.9391 19.6506 63.8767C19.5917 63.9114 19.5255 63.9317 19.4572 63.9362Z" fill="#E0E0E0"/>
<path d="M57.5237 8.09988C57.5237 7.81937 57.3261 7.70674 57.086 7.84487L19.6507 29.4569C19.5234 29.5402 19.4174 29.6523 19.3414 29.784C19.2653 29.9158 19.2213 30.0636 19.2129 30.2155V63.6217C19.2129 63.9022 19.4105 64.0148 19.6507 63.8767L57.086 42.2668C57.2134 42.1832 57.3194 42.0707 57.3955 41.9386C57.4715 41.8064 57.5154 41.6583 57.5237 41.506V8.09988Z" fill="#F0F0F0"/>
<path d="M25.1052 38.7881L23.029 41.4295L21.8177 42.9681C21.5561 42.3914 21.429 41.7629 21.4458 41.1299C21.4458 39.3554 22.213 37.3048 23.4561 35.7216L23.7303 36.2316L25.1052 38.7881Z" fill="#407BFF"/>
<path d="M26.8834 33.4881L25.2577 38.4077L24.516 37.0434L23.666 35.4517C24.144 34.8674 24.7191 34.37 25.3661 33.9811C25.8256 33.6988 26.3457 33.5298 26.8834 33.4881Z" fill="#407BFF"/>
<path d="M28.7412 34.5889L25.6875 38.1059L27.2112 33.4966C27.5382 33.5331 27.8504 33.6527 28.1182 33.8438C28.386 34.035 28.6005 34.2915 28.7412 34.5889Z" fill="#407BFF"/>
<path d="M29.147 36.4887C29.147 39.1727 27.3832 42.3773 25.2135 43.6268C23.8662 44.4068 22.6634 44.2644 21.9834 43.255L25.4005 38.9198L25.4196 38.8964L28.8856 34.9055C29.0696 35.4127 29.1582 35.9494 29.147 36.4887Z" fill="#407BFF"/>
<path opacity="0.7" d="M26.8834 33.4881L25.2577 38.4077L24.516 37.0434L23.666 35.4517C24.144 34.8674 24.7191 34.37 25.3661 33.9811C25.8256 33.6988 26.3457 33.5298 26.8834 33.4881Z" fill="white"/>
<path opacity="0.3" d="M28.7412 34.5889L25.6875 38.1059L27.2112 33.4966C27.5382 33.5331 27.8504 33.6527 28.1182 33.8438C28.386 34.035 28.6005 34.2915 28.7412 34.5889Z" fill="black"/>
<path opacity="0.5" d="M29.147 36.4887C29.147 39.1727 27.3832 42.3773 25.2135 43.6268C23.8662 44.4068 22.6634 44.2644 21.9834 43.255L25.4005 38.9198L25.4196 38.8964L28.8856 34.9055C29.0696 35.4127 29.1582 35.9494 29.147 36.4887Z" fill="white"/>
<path d="M21.9872 31.3227C22.0524 31.282 22.1244 31.2532 22.1997 31.2377C22.2548 31.2256 22.3125 31.2348 22.3612 31.2632C22.4113 31.2967 22.4476 31.3473 22.4632 31.4056C22.4896 31.4908 22.5019 31.5798 22.4993 31.6691C22.5009 31.7988 22.4816 31.928 22.442 32.0516C22.407 32.1621 22.353 32.2656 22.2826 32.3576L22.5078 32.8952C22.51 32.9043 22.51 32.9138 22.5078 32.9229C22.5077 32.9406 22.5033 32.9581 22.4951 32.9739C22.4895 32.9877 22.4799 32.9996 22.4675 33.0079L22.2188 33.1502C22.1954 33.1651 22.1784 33.1651 22.1678 33.1502C22.157 33.14 22.1483 33.1278 22.1423 33.1141L21.9298 32.6296L21.7619 32.7274V33.3288C21.7621 33.3502 21.757 33.3714 21.7471 33.3904C21.7398 33.4074 21.728 33.4221 21.7131 33.4329L21.4729 33.571C21.4682 33.5752 21.4622 33.5775 21.4559 33.5775C21.4496 33.5775 21.4436 33.5752 21.4389 33.571C21.4335 33.565 21.4294 33.5579 21.4269 33.5502C21.4243 33.5426 21.4234 33.5344 21.424 33.5264V31.7116C21.4236 31.6901 21.4288 31.6689 21.4389 31.6499C21.4448 31.6322 21.4569 31.6171 21.4729 31.6074L21.9872 31.3227ZM21.7747 32.2938L21.9872 32.1748C22.0379 32.145 22.0814 32.1044 22.1147 32.0558C22.1493 31.9982 22.1663 31.9317 22.1636 31.8646C22.1636 31.7859 22.1466 31.7413 22.1147 31.7307C22.0927 31.7262 22.07 31.7263 22.048 31.7311C22.0261 31.7358 22.0053 31.7451 21.9872 31.7583L21.7747 31.8773V32.2938Z" fill="#455A64"/>
<path d="M23.717 31.8412C23.7219 31.8374 23.7279 31.8353 23.734 31.8353C23.7402 31.8353 23.7462 31.8374 23.751 31.8412C23.7564 31.8472 23.7605 31.8543 23.763 31.862C23.7656 31.8696 23.7666 31.8778 23.7659 31.8858V32.1855C23.7658 32.2069 23.7607 32.228 23.751 32.2471C23.7438 32.2641 23.7321 32.2788 23.717 32.2896L22.8521 32.789C22.8474 32.7932 22.8414 32.7955 22.8351 32.7955C22.8288 32.7955 22.8228 32.7932 22.8181 32.789C22.8124 32.7832 22.808 32.7761 22.8055 32.7684C22.8029 32.7607 22.8021 32.7524 22.8032 32.7444V30.9295C22.8033 30.9081 22.8084 30.887 22.8181 30.8679C22.8253 30.8509 22.8371 30.8362 22.8521 30.8254L23.7021 30.3345C23.707 30.3307 23.713 30.3287 23.7191 30.3287C23.7253 30.3287 23.7313 30.3307 23.7361 30.3345C23.7415 30.3406 23.7456 30.3476 23.7482 30.3553C23.7507 30.363 23.7517 30.3711 23.751 30.3791V30.6788C23.7509 30.7002 23.7458 30.7213 23.7361 30.7404C23.729 30.7574 23.7172 30.7722 23.7021 30.7829L23.1411 31.1059V31.4098L23.6618 31.108C23.6664 31.1039 23.6725 31.1016 23.6788 31.1016C23.685 31.1016 23.6911 31.1039 23.6958 31.108C23.7015 31.1138 23.7058 31.1209 23.7084 31.1286C23.711 31.1364 23.7118 31.1446 23.7106 31.1527V31.4502C23.7108 31.4716 23.7057 31.4928 23.6958 31.5118C23.6891 31.5292 23.6772 31.544 23.6618 31.5543L23.1411 31.8667V32.1812L23.717 31.8412Z" fill="#455A64"/>
<path d="M24.6365 29.7926C24.7017 29.7527 24.7738 29.7253 24.849 29.7119C24.9043 29.701 24.9616 29.7124 25.0084 29.7437C25.0576 29.781 25.0934 29.8332 25.1104 29.8925C25.1395 29.9809 25.1538 30.0735 25.1529 30.1666C25.154 30.271 25.1426 30.3752 25.1189 30.4769C25.0958 30.5686 25.0616 30.6571 25.0169 30.7404C24.9729 30.8176 24.9193 30.889 24.8575 30.9529C24.7949 31.0174 24.7234 31.0725 24.645 31.1165L24.4134 31.2504V31.8242C24.4125 31.8455 24.4074 31.8664 24.3985 31.8858C24.3917 31.9037 24.379 31.9187 24.3624 31.9283L24.1244 32.0664C24.1197 32.0706 24.1136 32.0729 24.1074 32.0729C24.1011 32.0729 24.095 32.0706 24.0904 32.0664C24.0849 32.0605 24.0807 32.0534 24.0781 32.0457C24.0756 32.038 24.0747 32.0299 24.0755 32.0218V30.207C24.0751 30.1855 24.0802 30.1643 24.0904 30.1454C24.0963 30.1276 24.1083 30.1125 24.1244 30.1029L24.6365 29.7926ZM24.4049 30.8042L24.6174 30.6745C24.6738 30.6423 24.7202 30.5951 24.7514 30.538C24.7825 30.481 24.7972 30.4164 24.7938 30.3515C24.7938 30.2729 24.7789 30.2261 24.7449 30.2091C24.7235 30.2022 24.7007 30.2005 24.6785 30.2042C24.6563 30.2079 24.6354 30.2169 24.6174 30.2304L24.4049 30.36V30.8042Z" fill="#455A64"/>
<path d="M25.3662 30.105C25.3706 29.9962 25.3856 29.888 25.4108 29.782C25.4361 29.6762 25.4732 29.5735 25.5213 29.476C25.5694 29.3814 25.6286 29.2929 25.6977 29.2125C25.7648 29.1331 25.8454 29.0662 25.9357 29.0149C26.0071 28.9692 26.0891 28.9429 26.1737 28.9383C26.2371 28.9362 26.2991 28.9574 26.348 28.9978C26.4014 29.0458 26.4404 29.1076 26.4606 29.1764C26.4879 29.2638 26.5029 29.3547 26.5053 29.4462C26.5053 29.5249 26.5053 29.6099 26.5053 29.697C26.5053 29.7841 26.5053 29.8691 26.5053 29.9478C26.5006 30.0559 26.4857 30.1633 26.4606 30.2686C26.4352 30.3754 26.3974 30.4788 26.348 30.5768C26.3015 30.6717 26.2429 30.7603 26.1737 30.8403C26.1056 30.9186 26.0252 30.9854 25.9357 31.0379C25.8642 31.0833 25.7823 31.1096 25.6977 31.1144C25.6332 31.1176 25.5699 31.0955 25.5213 31.0528C25.4688 31.0045 25.4306 30.9428 25.4108 30.8743C25.3836 30.7868 25.3686 30.696 25.3662 30.6044C25.3662 30.5279 25.3662 30.4472 25.3662 30.36C25.3662 30.2729 25.3662 30.1858 25.3662 30.105ZM26.1674 30.1284C26.1674 30.0923 26.1674 30.054 26.1674 30.0136C26.1674 29.9733 26.1674 29.9286 26.1674 29.8861C26.1674 29.8436 26.1674 29.8011 26.1674 29.7608C26.1674 29.7204 26.1674 29.6864 26.1674 29.6566C26.1662 29.6163 26.1597 29.5763 26.1482 29.5376C26.1406 29.5085 26.1252 29.4821 26.1036 29.4611C26.085 29.4425 26.0598 29.4319 26.0335 29.4314C25.9988 29.4338 25.9652 29.4448 25.9357 29.4632C25.8981 29.4843 25.8649 29.5124 25.838 29.5461C25.8088 29.5782 25.7851 29.6148 25.7678 29.6545C25.7485 29.6953 25.7335 29.738 25.7232 29.782C25.7127 29.8281 25.7063 29.875 25.7041 29.9223C25.7041 29.9563 25.7041 29.9945 25.7041 30.0349C25.7041 30.0753 25.7041 30.1156 25.7041 30.1603C25.7041 30.2049 25.7041 30.2453 25.7041 30.2856C25.7041 30.326 25.7041 30.3621 25.7041 30.3961C25.7018 30.4668 25.7244 30.536 25.7678 30.5917C25.804 30.632 25.8592 30.632 25.9357 30.5917C26.0109 30.5487 26.0699 30.4823 26.1036 30.4025C26.1414 30.3157 26.1637 30.2229 26.1695 30.1284H26.1674Z" fill="#455A64"/>
<path d="M27.3548 28.2243C27.4202 28.184 27.4921 28.1552 27.5673 28.1393C27.6222 28.1276 27.6794 28.1359 27.7288 28.1627C27.7785 28.1972 27.8151 28.2473 27.8329 28.3051C27.8582 28.3913 27.8697 28.4809 27.8669 28.5707C27.868 28.7003 27.8494 28.8293 27.8117 28.9532C27.7755 29.063 27.7209 29.1657 27.6502 29.2571L27.8754 29.7948C27.8771 29.8039 27.8771 29.8132 27.8754 29.8224C27.8752 29.8401 27.8709 29.8576 27.8627 29.8734C27.8576 29.8875 27.8479 29.8995 27.835 29.9074L27.5864 30.0519C27.563 30.0646 27.546 30.0668 27.5354 30.0519C27.5251 30.0413 27.5164 30.0291 27.5099 30.0158L27.308 29.5312L27.1401 29.6269V30.2283C27.1405 30.2497 27.1354 30.271 27.1253 30.2899C27.1186 30.3078 27.1068 30.3234 27.0913 30.3345L26.8511 30.4705C26.8489 30.4728 26.8463 30.4747 26.8434 30.4759C26.8405 30.4772 26.8373 30.4779 26.8341 30.4779C26.8309 30.4779 26.8278 30.4772 26.8249 30.4759C26.822 30.4747 26.8193 30.4728 26.8171 30.4705C26.8114 30.4647 26.8071 30.4577 26.8045 30.4499C26.8019 30.4422 26.8011 30.434 26.8023 30.4259V28.6111C26.8021 28.5896 26.8072 28.5685 26.8171 28.5495C26.8244 28.5325 26.8362 28.5178 26.8511 28.507L27.3548 28.2243ZM27.1423 29.1934L27.3548 29.0744C27.4054 29.0453 27.4489 29.0054 27.4823 28.9575C27.5166 28.899 27.5336 28.8319 27.5312 28.7641C27.5312 28.6855 27.5142 28.6408 27.4823 28.6302C27.4601 28.6261 27.4374 28.6267 27.4154 28.6318C27.3935 28.6369 27.3728 28.6465 27.3548 28.66L27.1423 28.779V29.1934Z" fill="#455A64"/>
<path d="M29.0971 27.217C29.102 27.2132 29.1079 27.2112 29.1141 27.2112C29.1203 27.2112 29.1263 27.2132 29.1311 27.217C29.1367 27.2234 29.1408 27.2308 29.1434 27.2389C29.146 27.2469 29.1468 27.2554 29.146 27.2638V27.5613C29.1459 27.5827 29.1408 27.6038 29.1311 27.6229C29.1239 27.64 29.1122 27.6547 29.0971 27.6654L28.7762 27.8503V29.2911C28.7766 29.3126 28.7715 29.3338 28.7613 29.3527C28.7554 29.3705 28.7434 29.3856 28.7273 29.3952L28.4872 29.5334C28.4825 29.5375 28.4765 29.5399 28.4702 29.5399C28.4639 29.5399 28.4579 29.5375 28.4532 29.5334C28.4475 29.5276 28.4431 29.5205 28.4406 29.5128C28.438 29.505 28.4372 29.4968 28.4383 29.4887V28.0416L28.1174 28.2264C28.1128 28.2306 28.1067 28.2329 28.1004 28.2329C28.0942 28.2329 28.0881 28.2306 28.0834 28.2264C28.0781 28.2204 28.074 28.2133 28.0714 28.2057C28.0689 28.198 28.0679 28.1899 28.0686 28.1818V27.8843C28.0684 27.8622 28.0735 27.8403 28.0834 27.8206C28.0906 27.8035 28.1024 27.7888 28.1174 27.7781L29.0971 27.217Z" fill="#455A64"/>
<path d="M30.7939 26.2395L54.6798 12.4499V14.3518L30.7939 28.1414V26.2395Z" fill="#407BFF"/>
<g opacity="0.3">
<path d="M30.6474 32.2301C30.6122 32.2303 30.5775 32.2212 30.5468 32.2036C30.5162 32.1861 30.4908 32.1608 30.4732 32.1302C30.4481 32.0832 30.4417 32.0285 30.4551 31.9769C30.4684 31.9254 30.5007 31.8807 30.5454 31.8518L44.5475 23.7765C44.5928 23.7629 44.6412 23.7648 44.6853 23.7818C44.7293 23.7987 44.7665 23.8299 44.7908 23.8704C44.8152 23.9108 44.8254 23.9582 44.8198 24.0051C44.8143 24.052 44.7932 24.0957 44.7601 24.1293L30.7601 32.2046C30.7256 32.2233 30.6866 32.2321 30.6474 32.2301Z" fill="#455A64"/>
<path d="M30.6474 34.132C30.6122 34.1323 30.5775 34.1231 30.5468 34.1056C30.5162 34.088 30.4908 34.0627 30.4732 34.0322C30.4481 33.9851 30.4417 33.9304 30.4551 33.8789C30.4684 33.8273 30.5007 33.7827 30.5454 33.7538L44.5475 25.6785C44.5928 25.6649 44.6412 25.6667 44.6853 25.6837C44.7293 25.7007 44.7665 25.7319 44.7908 25.7723C44.8152 25.8128 44.8254 25.8602 44.8198 25.9071C44.8143 25.954 44.7932 25.9976 44.7601 26.0313L30.7601 34.1065C30.7256 34.1253 30.6866 34.1341 30.6474 34.132Z" fill="#455A64"/>
<path d="M30.6474 36.034C30.6122 36.0342 30.5775 36.0251 30.5468 36.0075C30.5162 35.99 30.4908 35.9646 30.4732 35.9341C30.4481 35.8871 30.4417 35.8324 30.4551 35.7808C30.4684 35.7293 30.5007 35.6846 30.5454 35.6557L44.5475 27.5804C44.5928 27.5668 44.6412 27.5687 44.6853 27.5856C44.7293 27.6026 44.7665 27.6338 44.7908 27.6743C44.8152 27.7147 44.8254 27.7621 44.8198 27.809C44.8143 27.8559 44.7932 27.8996 44.7601 27.9332L30.7601 36.0085C30.7256 36.0272 30.6866 36.036 30.6474 36.034Z" fill="#455A64"/>
<path d="M30.6474 37.9359C30.6122 37.9361 30.5775 37.927 30.5468 37.9095C30.5162 37.8919 30.4908 37.8666 30.4732 37.836C30.4481 37.789 30.4417 37.7343 30.4551 37.6828C30.4684 37.6312 30.5007 37.5866 30.5454 37.5577L44.5475 29.4824C44.57 29.4587 44.5977 29.4405 44.6284 29.4292C44.6591 29.4179 44.6919 29.4139 44.7244 29.4174C44.7569 29.4209 44.7882 29.4318 44.8157 29.4494C44.8433 29.4669 44.8665 29.4906 44.8834 29.5185C44.9003 29.5465 44.9106 29.578 44.9134 29.6105C44.9162 29.6431 44.9114 29.6759 44.8995 29.7063C44.8876 29.7367 44.8688 29.764 44.8446 29.7859C44.8204 29.8079 44.7915 29.824 44.7601 29.833L30.7601 37.9083C30.7258 37.9278 30.6868 37.9373 30.6474 37.9359Z" fill="#455A64"/>
<path d="M30.647 39.84C30.6098 39.839 30.5736 39.8282 30.5419 39.8088C30.5102 39.7894 30.4842 39.7621 30.4663 39.7295C30.4413 39.6825 30.4348 39.6278 30.4482 39.5762C30.4616 39.5247 30.4939 39.48 30.5386 39.4511L44.5407 31.3758C44.5855 31.363 44.6333 31.3653 44.6767 31.3823C44.7201 31.3993 44.7567 31.4301 44.7808 31.47C44.805 31.5099 44.8154 31.5566 44.8104 31.6029C44.8054 31.6492 44.7853 31.6926 44.7532 31.7265L30.7532 39.8017C30.7219 39.8238 30.6852 39.8371 30.647 39.84Z" fill="#455A64"/>
</g>
<path d="M46.6607 21.8194L48.4628 20.7802C48.5839 20.7101 48.6753 20.7674 48.6753 20.9077V22.9881C48.6721 23.0634 48.6511 23.1369 48.6142 23.2026C48.5773 23.2683 48.5254 23.3245 48.4628 23.3664L46.6607 24.4077C46.5396 24.4778 46.4482 24.4204 46.4482 24.2802V22.1997C46.4518 22.1242 46.4729 22.0506 46.5098 21.9846C46.5466 21.9186 46.5983 21.862 46.6607 21.8194Z" fill="#407BFF"/>
<path d="M49.65 20.0959L51.4521 19.0568C51.5732 18.9866 51.6646 19.0419 51.6646 19.1821V21.2626C51.6613 21.3382 51.6404 21.412 51.6035 21.478C51.5666 21.5441 51.5147 21.6006 51.4521 21.643L49.65 22.6821C49.5289 22.7523 49.4375 22.697 49.4375 22.5568V20.4763C49.4408 20.4007 49.4617 20.3269 49.4986 20.2609C49.5355 20.1948 49.5873 20.1383 49.65 20.0959Z" fill="#407BFF"/>
<path d="M52.6363 18.3704L54.4363 17.3312C54.5574 17.2611 54.6488 17.3184 54.6488 17.4587V19.5413C54.6454 19.6168 54.6244 19.6905 54.5875 19.7566C54.5506 19.8226 54.4988 19.8791 54.4363 19.9217L52.6363 20.9629C52.5152 21.0331 52.4238 20.9757 52.4238 20.8354V18.755C52.4266 18.6787 52.4473 18.6041 52.4842 18.5373C52.5211 18.4705 52.5732 18.4133 52.6363 18.3704Z" fill="#407BFF"/>
<path d="M46.6607 25.279L48.4628 24.2377C48.5839 24.1676 48.6753 24.2249 48.6753 24.3652V26.4456C48.6721 26.5212 48.6511 26.595 48.6142 26.6611C48.5773 26.7271 48.5255 26.7836 48.4628 26.826L46.6607 27.8652C46.5396 27.9353 46.4482 27.8779 46.4482 27.7377V25.6594C46.4515 25.5838 46.4724 25.51 46.5093 25.4439C46.5462 25.3779 46.5981 25.3214 46.6607 25.279Z" fill="#407BFF"/>
<path d="M49.65 23.5449L51.4521 22.5057C51.5732 22.4356 51.6646 22.4909 51.6646 22.6311V24.7116C51.6613 24.7872 51.6404 24.8609 51.6035 24.927C51.5666 24.9931 51.5147 25.0495 51.4521 25.092L49.65 26.129C49.5289 26.1991 49.4375 26.1439 49.4375 26.0036V23.9232C49.4411 23.8479 49.4622 23.7746 49.499 23.7089C49.5359 23.6433 49.5876 23.5871 49.65 23.5449Z" fill="#407BFF"/>
<path d="M52.6363 21.8215L54.4363 20.7802C54.5574 20.7101 54.6488 20.7674 54.6488 20.9077V22.9881C54.6454 23.0634 54.6244 23.1368 54.5875 23.2025C54.5506 23.2682 54.4988 23.3243 54.4363 23.3664L52.6363 24.4077C52.5152 24.4778 52.4238 24.4204 52.4238 24.2802V22.1997C52.4272 22.1245 52.4483 22.0511 52.4852 21.9854C52.5221 21.9197 52.5738 21.8635 52.6363 21.8215Z" fill="#407BFF"/>
<path d="M46.6607 28.7195L48.4628 27.6782C48.5839 27.608 48.6753 27.6654 48.6753 27.8057V29.8861C48.6721 29.9617 48.6511 30.0355 48.6142 30.1016C48.5773 30.1676 48.5255 30.2241 48.4628 30.2665L46.6607 31.3057C46.5396 31.3758 46.4482 31.3184 46.4482 31.1803V29.1041C46.4508 29.0278 46.4714 28.9531 46.5084 28.8863C46.5453 28.8195 46.5975 28.7623 46.6607 28.7195Z" fill="#407BFF"/>
<path d="M49.65 26.9939L51.4521 25.9547C51.5732 25.8846 51.6646 25.942 51.6646 26.0801V28.1606C51.6613 28.2362 51.6404 28.3099 51.6035 28.376C51.5666 28.4421 51.5147 28.4985 51.4521 28.541L49.65 29.5822C49.5289 29.6524 49.4375 29.595 49.4375 29.4547V27.3743C49.4408 27.2987 49.4617 27.2249 49.4986 27.1589C49.5355 27.0928 49.5873 27.0363 49.65 26.9939Z" fill="#407BFF"/>
<path d="M52.6363 25.279L54.4363 24.2377C54.5574 24.1676 54.6488 24.2249 54.6488 24.3652V26.4456C54.6454 26.5212 54.6244 26.5949 54.5875 26.6609C54.5506 26.727 54.4988 26.7835 54.4363 26.826L52.6363 27.8652C52.5152 27.9353 52.4238 27.8779 52.4238 27.7377V25.6594C52.4273 25.5838 52.4482 25.5101 52.4851 25.444C52.522 25.378 52.5738 25.3215 52.6363 25.279Z" fill="#407BFF"/>
<path d="M21.7344 59.0485L44.7957 45.7349V46.6848L21.7344 60.0005V59.0485Z" fill="#455A64"/>
<path d="M21.7344 58.0986V52.3907L23.7659 53.5637L25.7231 49.9383L28.0565 51.2856L29.1466 50.0148L30.7936 50.9647L33.1906 47.384L35.1011 48.183L37.3834 43.357L38.9793 46.1302L41.1597 42.9702L41.9715 44.5109L44.7957 40.0291V44.7829L21.7344 58.0986Z" fill="#407BFF"/>
<path d="M21.7344 51.8615L23.6299 52.8667L25.5956 49.2115L27.9417 50.5673L28.9958 49.3369L30.6427 50.2889L33.0015 46.8378L34.912 47.6369L37.3834 42.4071L39.0304 45.2589L41.2107 42.0989L42.0076 43.6417L44.7957 39.2131V35.2732L41.8801 39.8187L40.6773 37.6511L39.0304 40.5051L37.3834 39.5531L35.7365 42.4071L34.0896 41.455L31.6181 45.7349L29.9712 44.309L28.3391 46.6763L25.7635 45.2589L23.6809 48.761L21.7344 47.6369V51.8615Z" fill="#407BFF"/>
<path opacity="0.3" d="M21.7344 51.8615L23.6299 52.8667L25.5956 49.2115L27.9417 50.5673L28.9958 49.3369L30.6427 50.2889L33.0015 46.8378L34.912 47.6369L37.3834 42.4071L39.0304 45.2589L41.2107 42.0989L42.0076 43.6417L44.7957 39.2131V35.2732L41.8801 39.8187L40.6773 37.6511L39.0304 40.5051L37.3834 39.5531L35.7365 42.4071L34.0896 41.455L31.6181 45.7349L29.9712 44.309L28.3391 46.6763L25.7635 45.2589L23.6809 48.761L21.7344 47.6369V51.8615Z" fill="black"/>
<g opacity="0.3">
<path d="M46.4437 34.5252C46.4023 34.5196 46.3634 34.5018 46.332 34.4742C46.3006 34.4466 46.278 34.4103 46.2671 34.3699C46.2562 34.3295 46.2575 34.2868 46.2708 34.2472C46.284 34.2075 46.3087 34.1726 46.3417 34.1469L54.5785 29.391C54.6237 29.3774 54.6722 29.3792 54.7162 29.3962C54.7603 29.4132 54.7974 29.4444 54.8218 29.4848C54.8462 29.5253 54.8564 29.5727 54.8508 29.6196C54.8452 29.6665 54.8242 29.7102 54.791 29.7438L46.5542 34.4976C46.5209 34.5173 46.4825 34.5269 46.4437 34.5252Z" fill="#455A64"/>
<path d="M46.4437 36.4271C46.4023 36.4215 46.3634 36.4038 46.332 36.3761C46.3006 36.3485 46.278 36.3123 46.2671 36.2719C46.2562 36.2315 46.2575 36.1888 46.2708 36.1491C46.284 36.1094 46.3087 36.0745 46.3417 36.0488L54.5785 31.2929C54.6237 31.2793 54.6722 31.2812 54.7162 31.2981C54.7603 31.3151 54.7974 31.3463 54.8218 31.3868C54.8462 31.4272 54.8564 31.4746 54.8508 31.5215C54.8452 31.5684 54.8242 31.6121 54.791 31.6457L46.5542 36.3995C46.5209 36.4192 46.4825 36.4288 46.4437 36.4271Z" fill="#455A64"/>
<path d="M46.4437 38.3291C46.4023 38.3234 46.3634 38.3057 46.332 38.2781C46.3006 38.2505 46.278 38.2142 46.2671 38.1738C46.2562 38.1334 46.2575 38.0907 46.2708 38.051C46.284 38.0114 46.3087 37.9765 46.3417 37.9508L54.5785 33.1949C54.6237 33.1813 54.6722 33.1831 54.7162 33.2001C54.7603 33.2171 54.7974 33.2483 54.8218 33.2887C54.8462 33.3292 54.8564 33.3766 54.8508 33.4234C54.8452 33.4703 54.8242 33.514 54.791 33.5476L46.5542 38.3014C46.5209 38.3212 46.4825 38.3308 46.4437 38.3291Z" fill="#455A64"/>
<path d="M46.4437 40.231C46.4023 40.2254 46.3634 40.2077 46.332 40.18C46.3006 40.1524 46.278 40.1161 46.2671 40.0757C46.2562 40.0354 46.2575 39.9927 46.2708 39.953C46.284 39.9133 46.3087 39.8784 46.3417 39.8527L54.5785 35.0989C54.6253 35.0745 54.6795 35.0684 54.7306 35.0818C54.7817 35.0951 54.8259 35.127 54.8548 35.1712C54.8798 35.2182 54.8863 35.2729 54.8729 35.3245C54.8595 35.376 54.8273 35.4207 54.7825 35.4496L46.5457 40.2034C46.5148 40.2216 46.4796 40.2311 46.4437 40.231Z" fill="#455A64"/>
<path d="M46.4437 42.1329C46.4023 42.1273 46.3634 42.1096 46.332 42.082C46.3006 42.0544 46.278 42.0181 46.2671 41.9777C46.2562 41.9373 46.2575 41.8946 46.2708 41.8549C46.284 41.8152 46.3087 41.7804 46.3417 41.7547L54.5785 37.0009C54.6253 36.9765 54.6795 36.9703 54.7306 36.9837C54.7817 36.9971 54.8259 37.0289 54.8548 37.0731C54.8798 37.1202 54.8863 37.1749 54.8729 37.2264C54.8595 37.278 54.8273 37.3226 54.7825 37.3515L46.5457 42.1053C46.5148 42.1235 46.4796 42.1331 46.4437 42.1329Z" fill="#455A64"/>
<path d="M46.4437 44.0349C46.4023 44.0293 46.3634 44.0115 46.332 43.9839C46.3006 43.9563 46.278 43.92 46.2671 43.8796C46.2562 43.8392 46.2575 43.7965 46.2708 43.7569C46.284 43.7172 46.3087 43.6823 46.3417 43.6566L54.5785 38.9028C54.6253 38.8784 54.6795 38.8723 54.7306 38.8856C54.7817 38.899 54.8259 38.9309 54.8548 38.9751C54.8798 39.0221 54.8863 39.0768 54.8729 39.1284C54.8595 39.1799 54.8273 39.2246 54.7825 39.2535L46.5457 44.0073C46.5148 44.0255 46.4796 44.035 46.4437 44.0349Z" fill="#455A64"/>
<path d="M46.4437 45.9368C46.4023 45.9312 46.3634 45.9135 46.332 45.8858C46.3006 45.8582 46.278 45.822 46.2671 45.7816C46.2562 45.7412 46.2575 45.6985 46.2708 45.6588C46.284 45.6191 46.3087 45.5843 46.3417 45.5586L54.5785 40.8048C54.6233 40.792 54.6711 40.7942 54.7145 40.8113C54.7579 40.8283 54.7945 40.8591 54.8186 40.899C54.8428 40.9388 54.8532 40.9855 54.8482 41.0318C54.8432 41.0782 54.8231 41.1216 54.791 41.1554L46.5542 45.9092C46.5209 45.9289 46.4825 45.9385 46.4437 45.9368Z" fill="#455A64"/>
</g>
<path d="M21.5088 73.9283V74.3682C21.5122 74.444 21.5332 74.5181 21.5701 74.5844C21.6069 74.6508 21.6587 74.7077 21.7213 74.7507L46.5315 89.0737C46.6001 89.1083 46.6758 89.1263 46.7525 89.1263C46.8293 89.1263 46.905 89.1083 46.9735 89.0737L64.754 78.8308C64.8166 78.7879 64.8684 78.7309 64.9053 78.6646C64.9421 78.5982 64.9631 78.5242 64.9665 78.4483V78.0021C64.9633 77.9262 64.9424 77.8521 64.9055 77.7857C64.8686 77.7193 64.8167 77.6624 64.754 77.6195L39.9438 63.2838C39.8756 63.2493 39.8003 63.2313 39.7239 63.2313C39.6474 63.2313 39.5721 63.2493 39.5039 63.2838L21.7298 73.5458C21.6656 73.5878 21.6122 73.6443 21.5738 73.7108C21.5355 73.7772 21.5132 73.8517 21.5088 73.9283Z" fill="#407BFF"/>
<path opacity="0.5" d="M64.7838 77.6281C64.8752 77.6982 64.8645 77.8002 64.754 77.8639L46.982 88.1238C46.9168 88.1591 46.8437 88.1773 46.7695 88.1769V89.1332C46.8437 89.1336 46.9168 89.1153 46.982 89.0801L64.754 78.8308C64.8166 78.7879 64.8684 78.7309 64.9053 78.6646C64.9421 78.5982 64.9631 78.5242 64.9665 78.4483V78.0021C64.9652 77.9302 64.9481 77.8594 64.9166 77.7948C64.885 77.7302 64.8397 77.6733 64.7838 77.6281Z" fill="black"/>
<path opacity="0.6" d="M21.6964 73.5713L21.6773 73.5862L21.6475 73.6159C21.5895 73.6839 21.5506 73.766 21.5349 73.8539C21.5339 73.8723 21.5339 73.8908 21.5349 73.9092V74.3682C21.5388 74.4439 21.56 74.5178 21.5968 74.5841C21.6336 74.6504 21.6851 74.7074 21.7474 74.7507L46.5576 89.0737C46.623 89.1087 46.696 89.127 46.7701 89.1268V88.1812C46.6961 88.1822 46.6231 88.1647 46.5576 88.1302L21.7304 73.8008C21.6935 73.7822 21.6642 73.7514 21.6475 73.7137C21.6392 73.6932 21.6372 73.6708 21.6417 73.6492C21.6462 73.6276 21.6571 73.6079 21.673 73.5925C21.6797 73.5844 21.6876 73.5772 21.6964 73.5713Z" fill="black"/>
<g opacity="0.3">
<path d="M21.5258 73.8178C21.5178 73.8451 21.5128 73.8731 21.5107 73.9014C21.5107 73.9014 21.5107 73.8843 21.5107 73.8757C21.5147 73.8561 21.5197 73.8368 21.5258 73.8178Z" fill="black"/>
<path d="M64.7532 77.8639L46.9812 88.1238C46.9159 88.159 46.8428 88.1773 46.7687 88.1769C46.6945 88.177 46.6215 88.1588 46.5562 88.1238L21.7459 73.8008C21.7081 73.7835 21.6784 73.7523 21.663 73.7137C21.6558 73.6931 21.6543 73.6709 21.6588 73.6495C21.6633 73.6281 21.6736 73.6084 21.6885 73.5925C21.6934 73.5853 21.7 73.5795 21.7077 73.5755L21.7417 73.55L39.5137 63.288C39.5822 63.2535 39.6579 63.2355 39.7347 63.2355C39.8114 63.2355 39.8871 63.2535 39.9557 63.288L64.7659 77.6132L64.7957 77.6323C64.8743 77.7024 64.8637 77.8002 64.7532 77.8639Z" fill="black"/>
<path opacity="0.15" d="M21.6446 73.6159L21.627 73.6379C21.6337 73.6314 21.6397 73.624 21.6446 73.6159Z" fill="black"/>
</g>
<path d="M28.229 67.5807C28.229 67.9802 28.7858 68.401 28.9388 68.7559C28.9522 68.7848 28.9636 68.8146 28.9728 68.8451C28.8963 69.098 28.6625 69.2701 28.6137 69.4423C28.6013 69.48 28.5948 69.5194 28.5945 69.5592V69.9055C28.5997 69.9841 28.6104 70.0622 28.6264 70.1393C28.6141 70.2229 28.5949 70.3054 28.569 70.3858C28.5197 70.5223 28.4925 70.6658 28.4883 70.8108V71.136C28.4808 71.1976 28.4927 71.26 28.5224 71.3145C28.5521 71.369 28.5982 71.4128 28.654 71.4398L29.6507 72.0136L37.0991 67.7125V67.3831L36.1024 66.8072C35.9488 66.7276 35.7753 66.6943 35.603 66.7116H35.5372C35.3693 66.7116 35.1504 66.7286 34.855 66.7604C34.4833 66.8029 34.1084 66.8115 33.7351 66.7859C33.631 66.7859 33.5396 66.7732 33.4461 66.7732C33.3751 66.7724 33.3041 66.776 33.2336 66.7838C32.8086 66.8263 32.3581 67.0941 31.4974 66.9772H31.4698C30.8599 66.8879 30.1373 66.5692 29.4467 66.5671H29.3787C29.102 66.5689 28.8304 66.6421 28.5903 66.7796C28.3225 66.9326 28.2227 67.0983 28.2227 67.2641C28.2269 67.3066 28.229 67.5276 28.229 67.5807ZM29.3596 67.8102C29.4017 67.7366 29.4635 67.6763 29.5381 67.636C29.5965 67.6033 29.6585 67.5776 29.723 67.5595C30.1883 67.4563 30.6754 67.5321 31.0873 67.772C31.2569 67.8587 31.3967 67.9941 31.4889 68.1609C31.446 68.2345 31.3834 68.2948 31.3083 68.3351C30.9905 68.4783 30.6325 68.5054 30.2967 68.4116C30.108 68.3678 29.9268 68.2962 29.7591 68.1991C29.5897 68.1128 29.4504 67.9772 29.3596 67.8102Z" fill="#263238"/>
<path d="M35.6026 66.6988H35.5368C35.3689 66.6988 35.15 66.7158 34.8546 66.7477C34.4822 66.7902 34.1066 66.7988 33.7326 66.7732C33.6306 66.7732 33.5392 66.7604 33.4457 66.7604C33.3747 66.7597 33.3037 66.7632 33.2332 66.7711C32.8082 66.8136 32.3577 67.0813 31.497 66.9644H31.4694C30.8595 66.8752 30.137 66.5564 29.4463 66.5543H29.3783C29.1016 66.5562 28.83 66.6293 28.5899 66.7668C27.6804 67.2917 28.7153 67.925 28.932 68.4286C29.1488 68.9323 28.6792 69.1979 28.6069 69.4465C28.5346 69.6952 28.7344 69.8312 28.5623 70.3794C28.3901 70.9277 28.5219 71.0276 28.6473 71.0998L29.6439 71.6757L37.0923 67.3746L36.0957 66.7987C35.9443 66.7188 35.7732 66.6841 35.6026 66.6988ZM30.0179 70.8852C29.9519 70.9112 29.8807 70.9216 29.81 70.9157C29.7392 70.9098 29.6708 70.8878 29.6099 70.8512C29.4803 70.7768 29.4527 70.6706 29.5504 70.6153C29.6168 70.5888 29.6883 70.5781 29.7595 70.584C29.8307 70.5899 29.8995 70.6123 29.9606 70.6493C30.0881 70.7237 30.1178 70.8299 30.0179 70.8852ZM31.3079 68.3351C30.9901 68.4783 30.6321 68.5054 30.2963 68.4116C30.1076 68.3678 29.9264 68.2962 29.7587 68.1991C29.2699 67.9165 29.1722 67.5148 29.5462 67.3045C29.6045 67.271 29.6665 67.2446 29.7311 67.2258C30.1964 67.1243 30.6829 67.2001 31.0954 67.4383C31.5756 67.7167 31.6755 68.1162 31.3164 68.3287L31.3079 68.3351ZM35.7705 67.5743C35.7041 67.6003 35.6326 67.6108 35.5615 67.6049C35.4904 67.599 35.4216 67.5769 35.3604 67.5403C35.2308 67.466 35.2031 67.3597 35.3009 67.3045C35.3671 67.2775 35.4388 67.2665 35.51 67.2724C35.5813 67.2783 35.6501 67.3009 35.711 67.3385C35.8364 67.4065 35.8619 67.5106 35.7663 67.568L35.7705 67.5743Z" fill="#37474F"/>
<path d="M46.0731 86.5661L61.5373 77.6408C61.5762 77.6159 61.6087 77.5821 61.6319 77.5422C61.6552 77.5023 61.6687 77.4574 61.6712 77.4113V77.2392C61.6685 77.1931 61.655 77.1483 61.6317 77.1084C61.6085 77.0685 61.5761 77.0347 61.5373 77.0097L41.1047 65.2091C41.0639 65.1882 41.0188 65.1773 40.973 65.1773C40.9271 65.1773 40.882 65.1882 40.8412 65.2091L25.3749 74.1344C25.3364 74.1596 25.3044 74.1935 25.2815 74.2334C25.2586 74.2732 25.2454 74.318 25.2432 74.3639V74.5361C25.2459 74.5819 25.2593 74.6265 25.2821 74.6663C25.305 74.7061 25.3367 74.7401 25.3749 74.7656L45.8075 86.5619C45.8483 86.5834 45.8937 86.5951 45.9398 86.5958C45.986 86.5965 46.0317 86.5864 46.0731 86.5661Z" fill="#FAFAFA"/>
<path d="M61.5713 77.0309C61.6096 77.0713 61.5989 77.1244 61.5394 77.1584L46.0732 86.0837C46.0327 86.1055 45.9873 86.1164 45.9414 86.1156V86.5937C45.988 86.5948 46.0341 86.5838 46.0753 86.5619L61.5394 77.6366C61.5786 77.6119 61.6112 77.5782 61.6346 77.5382C61.6579 77.4983 61.6712 77.4533 61.6733 77.407V77.2349C61.6711 77.1958 61.6608 77.1575 61.6433 77.1224C61.6258 77.0873 61.6013 77.0562 61.5713 77.0309Z" fill="#F0F0F0"/>
<path d="M25.3469 74.1557L25.3108 74.1918L25.2959 74.2131C25.2811 74.2352 25.2683 74.2587 25.2577 74.2832C25.2517 74.299 25.2474 74.3154 25.2449 74.3321C25.2439 74.3434 25.2439 74.3547 25.2449 74.3661V74.5361C25.2472 74.582 25.2603 74.6268 25.2832 74.6667C25.3061 74.7065 25.3382 74.7404 25.3767 74.7656L45.8093 86.564C45.8498 86.5855 45.8951 86.5964 45.941 86.5959V86.1198C45.8944 86.1209 45.8483 86.1099 45.8071 86.088L25.3661 74.2917C25.3129 74.2556 25.3023 74.2003 25.3469 74.1557Z" fill="#E0E0E0"/>
<path d="M30.6172 72.0009V72.3324C30.6246 72.4988 30.6858 72.6583 30.7914 72.7871L39.9038 67.5297V67.1982C39.629 67.0559 39.3249 66.9795 39.0155 66.9751H39.0027C38.7942 66.9733 38.5878 67.0161 38.3971 67.1004C37.7362 67.4001 37.5471 67.4957 37.139 67.6657C37.0362 67.7026 36.9258 67.7138 36.8177 67.6982C36.7095 67.6827 36.6068 67.6409 36.5185 67.5765L36.5058 67.5658L36.2316 67.3151L35.4942 66.6308C35.4474 66.5886 35.392 66.5569 35.3319 66.5378C35.2718 66.5188 35.2083 66.5128 35.1457 66.5203H35.1266C35.0682 66.5214 35.0099 66.5271 34.9523 66.5373C34.7018 66.5773 34.4464 66.5773 34.1958 66.5373C33.8982 66.509 33.6139 66.4003 33.3734 66.2228C33.0171 65.9231 32.5638 65.7637 32.0984 65.7744H32.0622C31.7669 65.7735 31.4756 65.8427 31.2122 65.9763C30.7702 66.2079 30.5747 66.5883 30.6618 66.9602C30.6333 67.1173 30.6477 67.2791 30.7035 67.4287C30.7592 67.5782 30.8542 67.7101 30.9784 67.8102C31.0902 67.912 31.1649 68.0481 31.191 68.197C31.1695 68.3518 31.108 68.4983 31.0125 68.622C30.9556 68.6791 30.9203 68.7542 30.9126 68.8345C30.9126 68.9131 30.9126 69.1171 30.9126 69.166C30.9127 69.1979 30.9201 69.2294 30.934 69.2581C30.948 69.2868 30.9683 69.312 30.9933 69.3318L31.8434 70.1138L32.1154 70.3646L32.1451 70.3964C32.1263 70.4279 32.105 70.4577 32.0814 70.4857L30.9806 71.3463C30.8771 71.4235 30.7912 71.5217 30.7286 71.6346C30.666 71.7474 30.628 71.8723 30.6172 72.0009ZM33.0504 67.0027C32.9899 67.1518 32.8753 67.2725 32.7295 67.3406C32.4304 67.4841 32.0868 67.504 31.7732 67.3958C31.6389 67.3505 31.5152 67.2782 31.4098 67.1833C31.331 67.1141 31.2704 67.0265 31.2335 66.9283C31.2951 66.7794 31.4093 66.6584 31.5543 66.5883C31.5953 66.5664 31.6379 66.548 31.6818 66.533C31.8822 66.4637 32.0969 66.4468 32.3056 66.484C32.5143 66.5212 32.71 66.6113 32.874 66.7456C32.9532 66.8153 33.0138 66.9037 33.0504 67.0027Z" fill="#37474F"/>
<path d="M39.0147 66.9751H39.002C38.7935 66.9733 38.587 67.0161 38.3963 67.1004C37.7354 67.4001 37.5463 67.4957 37.1383 67.6657C37.0354 67.7026 36.9251 67.7138 36.8169 67.6982C36.7088 67.6827 36.6061 67.6409 36.5178 67.5765L36.505 67.5658L36.2309 67.3151L35.4935 66.6308C35.4466 66.5886 35.3913 66.5569 35.3312 66.5378C35.2711 66.5188 35.2076 66.5128 35.145 66.5203H35.1258C35.0674 66.5214 35.0091 66.5271 34.9516 66.5373C34.701 66.5773 34.4457 66.5773 34.1951 66.5373C33.8975 66.509 33.6132 66.4003 33.3727 66.2228C33.0164 65.9231 32.563 65.7637 32.0976 65.7744H32.0615C31.7662 65.7735 31.4749 65.8427 31.2115 65.9763C30.5548 66.3227 30.4486 66.9942 30.9777 67.4787C31.3113 67.7847 31.2136 68.3712 31.0032 68.622C30.7928 68.8727 30.9862 69.0088 30.9862 69.0088L31.8362 69.7929L32.1082 70.0415C32.3208 70.2286 32.0742 70.4942 32.0742 70.4942L30.9735 71.3548C30.4974 71.7799 30.5229 72.1326 30.7716 72.4705L39.8839 67.2109C39.616 67.067 39.3187 66.9864 39.0147 66.9751ZM32.8733 66.4162C33.1963 66.7137 33.1347 67.1281 32.7288 67.3406C32.4297 67.4841 32.0861 67.504 31.7725 67.3958C31.6381 67.3505 31.5145 67.2782 31.4091 67.1833C31.084 66.8858 31.1477 66.4714 31.5536 66.2589C31.5949 66.2372 31.6375 66.2181 31.6811 66.2015C31.8816 66.1325 32.0965 66.1159 32.3052 66.1535C32.5139 66.1911 32.7094 66.2815 32.8733 66.4162Z" fill="#455A64"/>
<path opacity="0.1" d="M32.4092 76.8715L37.2458 79.6618C37.294 79.6869 37.3476 79.7 37.402 79.7C37.4564 79.7 37.51 79.6869 37.5582 79.6618L44.2331 75.809C44.3202 75.758 44.3202 75.6772 44.2331 75.6284L39.3921 72.836C39.3433 72.8118 39.2894 72.7993 39.2349 72.7993C39.1803 72.7993 39.1265 72.8118 39.0776 72.836L32.4028 76.6888C32.3845 76.6964 32.3689 76.7095 32.3582 76.7262C32.3475 76.7429 32.3421 76.7625 32.3428 76.7824C32.3435 76.8022 32.3502 76.8214 32.3621 76.8373C32.3739 76.8532 32.3904 76.8652 32.4092 76.8715Z" fill="#407BFF"/>
<path d="M37.4031 78.9031L33.7246 76.7802L33.9796 76.6335L37.656 78.7586L37.4031 78.9031Z" fill="#407BFF"/>
<path d="M37.6006 79.0837L37.9682 78.8712L38.0809 78.9371L37.7132 79.1496L37.6006 79.0837Z" fill="#455A64"/>
<path d="M37.8846 78.6247L34.9414 76.9268L35.1964 76.7801L38.1375 78.4802L37.8846 78.6247Z" fill="#407BFF"/>
<path d="M38.082 78.8053L38.4497 78.5928L38.5623 78.6587L38.1947 78.8712L38.082 78.8053Z" fill="#455A64"/>
<path d="M38.6199 78.2018L35.4238 76.3551L35.6788 76.2085L38.8728 78.0552L38.6199 78.2018Z" fill="#407BFF"/>
<path d="M38.8184 78.3803L39.186 78.1678L39.2986 78.2337L38.931 78.4462L38.8184 78.3803Z" fill="#455A64"/>
<path d="M39.1026 77.9213L36.459 76.3955L36.7119 76.2489L39.3555 77.7768L39.1026 77.9213Z" fill="#407BFF"/>
<path d="M39.3008 78.1019L39.6684 77.8894L39.7832 77.9553L39.4134 78.1657L39.3008 78.1019Z" fill="#455A64"/>
<path d="M39.84 77.4984L38.3652 76.6463L38.6181 76.4996L40.0929 77.3518L39.84 77.4984Z" fill="#407BFF"/>
<path d="M40.0352 77.679L40.4028 77.4665L40.5154 77.5303L40.1478 77.7428L40.0352 77.679Z" fill="#455A64"/>
<path d="M40.323 77.22L38.6484 76.2531L38.9013 76.1065L40.5759 77.0734L40.323 77.22Z" fill="#407BFF"/>
<path d="M40.5176 77.3986L40.8852 77.1882L40.9978 77.2519L40.6302 77.4644L40.5176 77.3986Z" fill="#455A64"/>
<path d="M41.0579 76.795L39.0391 75.6305L39.2941 75.4838L41.3108 76.6484L41.0579 76.795Z" fill="#407BFF"/>
<path d="M41.2578 76.9735L41.6254 76.761L41.7402 76.8248L41.3704 77.0373L41.2578 76.9735Z" fill="#455A64"/>
<path d="M41.5408 76.5166L40.2275 75.758L40.4804 75.6113L41.7937 76.37L41.5408 76.5166Z" fill="#407BFF"/>
<path d="M41.7422 76.6951L42.1077 76.4826L42.2225 76.5464L41.8548 76.7589L41.7422 76.6951Z" fill="#455A64"/>
<path d="M42.2749 76.0916L41.7012 75.7601L41.9541 75.6135L42.5278 75.945L42.2749 76.0916Z" fill="#407BFF"/>
<path d="M37.4031 78.9031L33.7246 76.7802L33.9796 76.6335L37.656 78.7586L37.4031 78.9031Z" fill="#407BFF"/>
<path d="M38.6199 78.2018L35.4238 76.3551L35.6788 76.2085L38.8728 78.0552L38.6199 78.2018Z" fill="#407BFF"/>
<path d="M39.84 77.4984L38.3652 76.6463L38.6181 76.4996L40.0929 77.3518L39.84 77.4984Z" fill="#407BFF"/>
<path d="M41.0579 76.795L39.0391 75.6305L39.2941 75.4838L41.3108 76.6484L41.0579 76.795Z" fill="#407BFF"/>
<path d="M42.2749 76.0916L41.7012 75.7601L41.9541 75.6135L42.5278 75.945L42.2749 76.0916Z" fill="#407BFF"/>
<path d="M42.4756 76.2701L42.8432 76.0576L42.958 76.1214L42.5882 76.3339L42.4756 76.2701Z" fill="#455A64"/>
<path d="M42.7574 75.8132L42.4727 75.6475L42.7255 75.5009L43.0103 75.6666L42.7574 75.8132Z" fill="#407BFF"/>
<path d="M42.958 75.9896L43.3256 75.7792L43.4383 75.843L43.0706 76.0555L42.958 75.9896Z" fill="#455A64"/>
<path d="M37.2733 74.5828L36.9971 74.7422L37.2733 74.9016L37.5496 74.7422L37.2733 74.5828Z" fill="#407BFF"/>
<path opacity="0.25" d="M37.2733 74.5828L36.9971 74.7422L37.2733 74.9016L37.5496 74.7422L37.2733 74.5828Z" fill="black"/>
<path d="M39.4473 73.3715L37.4795 74.5106C37.4391 74.5339 37.4391 74.5701 37.4795 74.5934L37.5326 74.6232C37.555 74.6347 37.5797 74.6408 37.6049 74.6408C37.63 74.6408 37.6548 74.6347 37.6771 74.6232L39.6492 73.4863C39.6575 73.483 39.6646 73.4772 39.6696 73.4699C39.6746 73.4625 39.6773 73.4538 39.6773 73.4448C39.6773 73.4359 39.6746 73.4272 39.6696 73.4198C39.6646 73.4124 39.6575 73.4067 39.6492 73.4034L39.5961 73.3715C39.5732 73.3592 39.5477 73.3528 39.5217 73.3528C39.4957 73.3528 39.4702 73.3592 39.4473 73.3715Z" fill="#455A64"/>
<path d="M37.7321 74.8485L37.458 75.0057L37.7343 75.1651L38.0084 75.0057L37.7321 74.8485Z" fill="#407BFF"/>
<path d="M39.9064 73.6372L37.9343 74.7762C37.926 74.7795 37.9189 74.7852 37.9139 74.7926C37.9089 74.8 37.9062 74.8087 37.9062 74.8176C37.9062 74.8266 37.9089 74.8353 37.9139 74.8427C37.9189 74.85 37.926 74.8558 37.9343 74.8591L37.9896 74.8888C38.0119 74.9004 38.0367 74.9064 38.0618 74.9064C38.087 74.9064 38.1117 74.9004 38.1341 74.8888L40.104 73.7519C40.1444 73.7285 40.1444 73.6903 40.104 73.669L40.0509 73.6372C40.0286 73.6256 40.0038 73.6196 39.9786 73.6196C39.9535 73.6196 39.9287 73.6256 39.9064 73.6372Z" fill="#455A64"/>
<path d="M37.4031 78.9031L33.7246 76.7802L33.9796 76.6335L37.656 78.7586L37.4031 78.9031Z" fill="#407BFF"/>
<path d="M38.6199 78.2018L35.4238 76.3551L35.6788 76.2085L38.8728 78.0552L38.6199 78.2018Z" fill="#407BFF"/>
<path d="M39.84 77.4984L38.3652 76.6463L38.6181 76.4996L40.0929 77.3518L39.84 77.4984Z" fill="#407BFF"/>
<path d="M41.0579 76.795L39.0391 75.6305L39.2941 75.4838L41.3108 76.6484L41.0579 76.795Z" fill="#407BFF"/>
<path d="M37.4031 78.9031L33.7246 76.7802L33.9796 76.6335L37.656 78.7586L37.4031 78.9031Z" fill="#407BFF"/>
<path d="M38.6199 78.2018L35.4238 76.3551L35.6788 76.2085L38.8728 78.0552L38.6199 78.2018Z" fill="#407BFF"/>
<path d="M39.84 77.4984L38.3652 76.6463L38.6181 76.4996L40.0929 77.3518L39.84 77.4984Z" fill="#407BFF"/>
<path d="M41.0579 76.795L39.0391 75.6305L39.2941 75.4838L41.3108 76.6484L41.0579 76.795Z" fill="#407BFF"/>
<path d="M42.2749 76.0916L41.7012 75.7601L41.9541 75.6135L42.5278 75.945L42.2749 76.0916Z" fill="#407BFF"/>
<path opacity="0.25" d="M37.4031 78.9031L33.7246 76.7802L33.9796 76.6335L37.656 78.7586L37.4031 78.9031Z" fill="black"/>
<path opacity="0.25" d="M38.6199 78.2018L35.4238 76.3551L35.6788 76.2085L38.8728 78.0552L38.6199 78.2018Z" fill="black"/>
<path opacity="0.25" d="M39.84 77.4984L38.3652 76.6463L38.6181 76.4996L40.0929 77.3518L39.84 77.4984Z" fill="black"/>
<path opacity="0.25" d="M41.0579 76.795L39.0391 75.6305L39.2941 75.4838L41.3108 76.6484L41.0579 76.795Z" fill="black"/>
<path opacity="0.25" d="M42.2749 76.0916L41.7012 75.7601L41.9541 75.6135L42.5278 75.945L42.2749 76.0916Z" fill="black"/>
<path opacity="0.1" d="M39.205 80.7923L45.5803 84.4687C45.6445 84.5011 45.7155 84.5181 45.7875 84.5181C45.8594 84.5181 45.9304 84.5011 45.9947 84.4687L52.5675 80.6733C52.5923 80.6644 52.6137 80.6481 52.6288 80.6266C52.644 80.6051 52.6521 80.5795 52.6521 80.5532C52.6521 80.5269 52.644 80.5013 52.6288 80.4798C52.6137 80.4583 52.5923 80.442 52.5675 80.4331L46.1923 76.7568C46.1284 76.7243 46.0578 76.7074 45.9862 76.7074C45.9145 76.7074 45.8439 76.7243 45.78 76.7568L39.205 80.5543C39.18 80.5626 39.1583 80.5785 39.1429 80.5999C39.1274 80.6212 39.1191 80.6469 39.1191 80.6733C39.1191 80.6996 39.1274 80.7253 39.1429 80.7467C39.1583 80.768 39.18 80.784 39.205 80.7923Z" fill="#407BFF"/>
<path d="M40.3312 80.4629L39.9678 80.6733L40.3312 80.8837L40.6945 80.6733L40.3312 80.4629Z" fill="#407BFF"/>
<path d="M41.7635 79.7425L40.5649 80.4353C40.533 80.4523 40.533 80.482 40.5649 80.5011L40.6627 80.5585C40.6806 80.5669 40.7002 80.5712 40.7201 80.5712C40.7399 80.5712 40.7595 80.5669 40.7774 80.5585L41.976 79.8658C42.0078 79.8466 42.0078 79.819 41.976 79.7999L41.8782 79.7425C41.8602 79.7341 41.8407 79.7298 41.8208 79.7298C41.801 79.7298 41.7814 79.7341 41.7635 79.7425Z" fill="#455A64"/>
<path d="M42.3878 79.275L42.0244 79.4832L42.3878 79.6936L42.7512 79.4832L42.3878 79.275Z" fill="#407BFF"/>
<path opacity="0.25" d="M42.3878 79.275L42.0244 79.4832L42.3878 79.6936L42.7512 79.4832L42.3878 79.275Z" fill="black"/>
<path d="M43.8416 78.5567L42.643 79.2558C42.6112 79.275 42.6112 79.3026 42.643 79.3217L42.7429 79.3791C42.7605 79.3874 42.7798 79.3917 42.7992 79.3917C42.8187 79.3917 42.8379 79.3874 42.8556 79.3791L44.0541 78.6863C44.086 78.6693 44.086 78.6396 44.0541 78.6205L43.9563 78.5631C43.9388 78.5537 43.9195 78.5483 43.8997 78.5472C43.8798 78.5461 43.86 78.5493 43.8416 78.5567Z" fill="#455A64"/>
<path d="M44.4454 78.0849L44.082 78.2953L44.4475 78.5036L44.8088 78.2953L44.4454 78.0849Z" fill="#407BFF"/>
<path opacity="0.4" d="M44.4454 78.0849L44.082 78.2953L44.4475 78.5036L44.8088 78.2953L44.4454 78.0849Z" fill="black"/>
<path d="M45.9218 77.373L44.7212 78.0637C44.6893 78.0828 44.6893 78.1126 44.7212 78.1296L44.8211 78.1869C44.8387 78.1953 44.8579 78.1996 44.8774 78.1996C44.8968 78.1996 44.9161 78.1953 44.9337 78.1869L46.1343 77.4942C46.1407 77.4913 46.1461 77.4867 46.1498 77.4808C46.1536 77.475 46.1556 77.4682 46.1556 77.4612C46.1556 77.4543 46.1536 77.4474 46.1498 77.4416C46.1461 77.4358 46.1407 77.4311 46.1343 77.4283L46.0345 77.373C46.0172 77.3635 45.9978 77.3586 45.9782 77.3586C45.9585 77.3586 45.9391 77.3635 45.9218 77.373Z" fill="#455A64"/>
<path d="M48.224 79.6086C48.1933 79.5919 48.1614 79.5777 48.1284 79.5661L48.0455 79.53C47.8253 79.4453 47.5976 79.3813 47.3655 79.3387L47.1402 79.2984C46.9881 79.2763 46.8349 79.2628 46.6812 79.258C46.6026 79.258 46.524 79.258 46.4475 79.258C46.371 79.258 46.3242 79.258 46.2605 79.258L46.1075 79.2686L45.8822 79.2899L45.7526 79.3111L45.6718 79.3239L45.5571 79.3472C45.4189 79.377 45.2872 79.411 45.1597 79.4514L45.0237 79.5003C44.9687 79.5186 44.9148 79.5398 44.8622 79.564C44.8096 79.5846 44.7585 79.6088 44.7092 79.6363L44.5625 79.7128C43.5 80.3312 43.5 81.3342 44.5625 81.9526C45.6251 82.571 47.3676 82.5689 48.4387 81.9526C49.5097 81.3363 49.5012 80.3333 48.4387 79.717C48.3691 79.6771 48.2974 79.6409 48.224 79.6086ZM48.0115 81.7103C47.5759 81.9451 47.089 82.0685 46.5941 82.0695C46.5707 82.0695 46.541 82.0695 46.5133 82.0695H46.4262H46.3455C45.8688 82.0622 45.4009 81.9405 44.9812 81.7146C44.1439 81.2301 44.1439 80.4395 44.9812 79.9635C45.0767 79.9101 45.1753 79.8626 45.2766 79.8211C45.3552 79.7893 45.4381 79.7616 45.5209 79.7361L45.6484 79.7021L45.7547 79.6788C45.7981 79.668 45.8421 79.6595 45.8864 79.6533L46.0033 79.6363H46.0395L46.2073 79.6214H46.2371C46.2958 79.617 46.3548 79.617 46.4135 79.6214C46.4623 79.6182 46.5113 79.6182 46.5601 79.6214C46.7655 79.6235 46.9704 79.6441 47.1721 79.683C47.47 79.7345 47.7572 79.835 48.0221 79.9805C48.8509 80.4459 48.8509 81.2279 48.0158 81.7103H48.0115Z" fill="#407BFF"/>
<path opacity="0.25" d="M47.3647 79.3387L47.1755 79.6639C46.9738 79.625 46.769 79.6043 46.5635 79.6023C46.5147 79.5991 46.4657 79.5991 46.4169 79.6023C46.3582 79.5978 46.2992 79.5978 46.2405 79.6023H46.2108C46.1555 79.6023 46.0981 79.6023 46.0429 79.6171H46.0067L45.8899 79.6341C45.8455 79.6404 45.8016 79.6489 45.7581 79.6596L45.6519 79.683L45.5244 79.717C45.4415 79.7425 45.3586 79.7701 45.28 79.802C45.1781 79.8422 45.0794 79.8897 44.9846 79.9444L44.5596 79.7L44.7062 79.6235C44.7555 79.596 44.8066 79.5719 44.8592 79.5513C44.9118 79.5271 44.9658 79.5058 45.0207 79.4875L45.1567 79.4386C45.2842 79.3982 45.416 79.3642 45.5541 79.3345L45.6689 79.3111L45.7496 79.2984L45.8792 79.2771L46.1045 79.2559L46.2575 79.2452C46.3213 79.2452 46.3808 79.2452 46.4445 79.2452C46.5083 79.2452 46.5996 79.2452 46.6783 79.2452C46.8334 79.2452 46.9864 79.2665 47.1373 79.2856L47.3647 79.3387Z" fill="black"/>
<path opacity="0.4" d="M48.4391 79.7191L48.0141 79.9614C47.7492 79.8158 47.4619 79.7153 47.1641 79.6639L47.3532 79.3387C47.5853 79.3813 47.8129 79.4453 48.0332 79.53L48.1161 79.5661C48.1491 79.5777 48.181 79.5919 48.2117 79.6086C48.2895 79.6412 48.3654 79.6781 48.4391 79.7191Z" fill="black"/>
<path d="M30.1007 75.044C30.1613 75.0067 30.2272 74.9788 30.2962 74.9611C30.3653 74.9418 30.4369 74.9325 30.5087 74.9335C30.5806 74.9343 30.6521 74.9451 30.7212 74.9653C30.7956 74.9895 30.8669 75.0223 30.9337 75.0631C31.0097 75.1014 31.0758 75.1566 31.1271 75.2246C31.1433 75.247 31.1536 75.2732 31.1569 75.3008C31.1603 75.3283 31.1566 75.3562 31.1462 75.3818L31.7837 75.5412C31.7922 75.543 31.8002 75.5467 31.8071 75.5519C31.8198 75.5519 31.8262 75.5646 31.8283 75.5731C31.8305 75.5816 31.8283 75.588 31.8177 75.5944L31.6243 75.707C31.6064 75.7175 31.5855 75.7219 31.5648 75.7197H31.5117L30.9443 75.5752L30.8126 75.6517L31.2206 75.8876C31.2354 75.8876 31.2439 75.9046 31.2461 75.9152C31.2471 75.9203 31.2463 75.9256 31.244 75.9302C31.2417 75.9348 31.238 75.9385 31.2333 75.9407L31.0463 76.0491C31.0324 76.0527 31.0178 76.0527 31.0038 76.0491C30.9866 76.0478 30.97 76.0427 30.9549 76.0342L29.7203 75.3223C29.7096 75.3154 29.7008 75.3059 29.6948 75.2947C29.6938 75.2897 29.6945 75.2844 29.6968 75.2798C29.6991 75.2752 29.7029 75.2715 29.7075 75.2692L30.1007 75.044ZM30.5257 75.469L30.6893 75.3755C30.7212 75.36 30.7457 75.3325 30.7573 75.299C30.7573 75.2735 30.7382 75.2437 30.6851 75.214C30.6409 75.1851 30.589 75.1703 30.5363 75.1715C30.49 75.1752 30.445 75.1889 30.4045 75.2118L30.243 75.3053L30.5257 75.469Z" fill="#455A64"/>
<path d="M32.4913 74.8548C32.5053 74.8512 32.5199 74.8512 32.5338 74.8548C32.551 74.8562 32.5677 74.8613 32.5827 74.8697L32.7846 74.9866C32.7995 74.9866 32.808 75.0036 32.8101 75.0142C32.8111 75.0193 32.8104 75.0245 32.8081 75.0291C32.8058 75.0337 32.802 75.0375 32.7974 75.0397L32.1173 75.4307C32.1034 75.4346 32.0887 75.4346 32.0748 75.4307C32.0583 75.4293 32.0424 75.4242 32.0281 75.4158L30.7934 74.7018C30.7872 74.6996 30.7817 74.696 30.7773 74.6911C30.7728 74.6863 30.7696 74.6805 30.7679 74.6742C30.7671 74.6694 30.7679 74.6645 30.7702 74.6603C30.7725 74.656 30.7762 74.6527 30.7807 74.6508L31.4479 74.264C31.4617 74.2595 31.4766 74.2595 31.4904 74.264C31.5076 74.2654 31.5243 74.2705 31.5393 74.2789L31.7412 74.3958C31.7528 74.4016 31.7618 74.4114 31.7667 74.4234C31.768 74.4282 31.7674 74.4333 31.7651 74.4377C31.7627 74.4421 31.7587 74.4453 31.7539 74.4468L31.3119 74.7018L31.5244 74.8208L31.9346 74.5849C31.9484 74.5804 31.9633 74.5804 31.9771 74.5849C31.9943 74.5863 32.0109 74.5914 32.026 74.5998L32.2278 74.7167C32.234 74.7189 32.2396 74.7225 32.244 74.7274C32.2484 74.7322 32.2516 74.738 32.2533 74.7443C32.2533 74.7549 32.2533 74.7613 32.2406 74.7677L31.8304 75.0057L32.043 75.1289L32.4913 74.8548Z" fill="#455A64"/>
<path d="M32.1838 73.8412C32.2441 73.8051 32.3092 73.7779 32.3772 73.7604C32.4465 73.7425 32.5181 73.7346 32.5897 73.737C32.6617 73.7406 32.7331 73.7527 32.8022 73.7732C32.8802 73.796 32.9551 73.8281 33.0253 73.8688C33.0873 73.9036 33.1439 73.9473 33.1932 73.9984C33.227 74.0329 33.2479 74.0779 33.2527 74.1259C33.2541 74.1698 33.2398 74.2128 33.2123 74.2471C33.1743 74.2921 33.1282 74.3296 33.0763 74.3576L32.8936 74.4638L33.2825 74.6891C33.2973 74.6891 33.3058 74.7061 33.308 74.7167C33.3093 74.7215 33.3087 74.7266 33.3063 74.731C33.3039 74.7353 33.3 74.7386 33.2952 74.7401L33.1082 74.8506C33.0942 74.8531 33.0798 74.8531 33.0657 74.8506C33.0486 74.8489 33.032 74.8438 33.0168 74.8357L31.7822 74.1217C31.7765 74.1191 31.7714 74.1153 31.7674 74.1105C31.7633 74.1057 31.7604 74.1001 31.7588 74.0941C31.7588 74.0941 31.7588 74.0771 31.7694 74.0707L32.1838 73.8412ZM32.5982 74.2917L32.7746 74.1897C32.7909 74.1826 32.8054 74.1718 32.8168 74.1581C32.8282 74.1445 32.8363 74.1284 32.8405 74.1111C32.8405 74.0841 32.8149 74.0544 32.7639 74.0218C32.7172 73.9936 32.6635 73.9788 32.6088 73.9793C32.5611 73.9789 32.5141 73.9914 32.4728 74.0154L32.2964 74.1174L32.5982 74.2917Z" fill="#455A64"/>
<path d="M33.2574 73.7965C33.1953 73.7602 33.1394 73.7143 33.0916 73.6605C33.0548 73.6204 33.0292 73.5713 33.0172 73.5181C33.0095 73.4689 33.0193 73.4185 33.0449 73.3758C33.0806 73.3191 33.1314 73.2735 33.1915 73.244C33.262 73.2032 33.3389 73.1744 33.4189 73.159C33.5009 73.1443 33.5843 73.1393 33.6675 73.1441C33.7526 73.1485 33.8369 73.1635 33.9183 73.1888C34.0007 73.2123 34.0805 73.2444 34.1563 73.2844L34.3305 73.3821L34.4963 73.482C34.558 73.5189 34.6138 73.5648 34.6621 73.618C34.701 73.6589 34.7282 73.7096 34.7407 73.7647C34.7485 73.8139 34.7387 73.8643 34.7131 73.907C34.6762 73.9627 34.6257 74.008 34.5664 74.0388C34.4956 74.079 34.4189 74.1076 34.339 74.1238C34.2572 74.1395 34.1736 74.1445 34.0904 74.1387C34.0053 74.1343 33.921 74.1193 33.8397 74.094C33.7575 74.0696 33.6779 74.0376 33.6016 73.9984L33.4316 73.9028C33.3658 73.8645 33.3105 73.8305 33.2574 73.7965ZM34.2179 73.6244L34.1435 73.5798L34.0585 73.5288L33.9735 73.4799L33.897 73.4395C33.8636 73.4223 33.8288 73.4081 33.7929 73.397C33.7589 73.3869 33.724 73.3798 33.6888 73.3758C33.6549 73.3715 33.6206 73.3715 33.5868 73.3758C33.5539 73.3817 33.5223 73.3932 33.4933 73.4098C33.4682 73.4224 33.447 73.4415 33.4316 73.465C33.4244 73.4835 33.4244 73.504 33.4316 73.5224C33.4387 73.5455 33.4511 73.5666 33.4678 73.584C33.4896 73.6065 33.5138 73.6264 33.54 73.6435L33.6101 73.6882L33.6951 73.737L33.7823 73.7859L33.8609 73.8284C33.9275 73.8619 33.9994 73.8835 34.0734 73.8922C34.1412 73.8997 34.2096 73.8856 34.2689 73.8518C34.3284 73.8178 34.3518 73.7795 34.339 73.7392C34.3114 73.6894 34.2691 73.6494 34.2179 73.6244Z" fill="#455A64"/>
<path d="M34.32 72.6086C34.3807 72.5714 34.4466 72.5434 34.5155 72.5257C34.5847 72.5065 34.6563 72.4972 34.7281 72.4981C34.8 72.499 34.8715 72.5097 34.9406 72.53C35.0148 72.5546 35.0861 72.5873 35.1531 72.6277C35.2291 72.666 35.2952 72.7213 35.3464 72.7893C35.3627 72.8117 35.373 72.8379 35.3763 72.8654C35.3797 72.8929 35.376 72.9208 35.3656 72.9465L36.0031 73.1059C36.0122 73.1077 36.0209 73.1113 36.0286 73.1165C36.0413 73.1165 36.0477 73.1293 36.0498 73.1378C36.052 73.1463 36.0498 73.1526 36.0392 73.159L35.8458 73.2716C35.8278 73.2818 35.807 73.2863 35.7863 73.2844H35.7332L35.1637 73.1399L35.0319 73.2164L35.4421 73.4523C35.4537 73.4581 35.4627 73.4679 35.4676 73.4799C35.4686 73.485 35.4678 73.4902 35.4655 73.4948C35.4632 73.4994 35.4595 73.5032 35.4548 73.5054L35.2678 73.6138C35.254 73.6183 35.2391 73.6183 35.2253 73.6138C35.2081 73.6124 35.1915 73.6073 35.1764 73.5989L33.9439 72.8806C33.929 72.8806 33.9205 72.8636 33.9184 72.853C33.9174 72.8479 33.9181 72.8427 33.9204 72.8381C33.9227 72.8335 33.9265 72.8297 33.9311 72.8275L34.32 72.6086ZM34.7451 73.0336L34.9066 72.9401C34.9389 72.9256 34.9641 72.8988 34.9767 72.8658C34.9767 72.8381 34.9576 72.8084 34.9044 72.7786C34.8602 72.75 34.8084 72.7352 34.7557 72.7361C34.7093 72.7398 34.6644 72.7536 34.6239 72.7765L34.4624 72.87L34.7451 73.0336Z" fill="#455A64"/>
<path d="M35.6879 71.8181C35.7018 71.8145 35.7165 71.8145 35.7304 71.8181C35.7476 71.8195 35.7643 71.8245 35.7793 71.833L35.9812 71.9499C35.996 71.9499 36.0045 71.9669 36.0067 71.9775C36.0077 71.9825 36.0069 71.9878 36.0046 71.9924C36.0023 71.997 35.9986 72.0007 35.9939 72.003L35.741 72.1475L36.7228 72.7149C36.7285 72.7175 36.7335 72.7213 36.7376 72.7261C36.7416 72.7309 36.7446 72.7365 36.7462 72.7425C36.7462 72.7425 36.7462 72.7595 36.7356 72.7659L36.5464 72.8743C36.5327 72.8791 36.5177 72.8791 36.5039 72.8743C36.4875 72.8743 36.4713 72.8699 36.4572 72.8615L35.4754 72.2941L35.2246 72.4408C35.2108 72.4453 35.1959 72.4453 35.1821 72.4408C35.165 72.4394 35.1483 72.4343 35.1333 72.4259L34.9208 72.309C34.9059 72.309 34.8974 72.292 34.8952 72.2814C34.8931 72.2707 34.8952 72.2644 34.908 72.258L35.6879 71.8181Z" fill="#455A64"/>
<path d="M37.6791 71.9562L43.9013 68.3648L42.5689 67.5956L36.3467 71.1869L37.6791 71.9562Z" fill="#407BFF"/>
<g opacity="0.3">
<path d="M40.7907 72.5789C40.7768 72.5825 40.7622 72.5834 40.748 72.5814C40.7337 72.5794 40.7199 72.5746 40.7075 72.5673C40.6951 72.56 40.6842 72.5503 40.6755 72.5388C40.6668 72.5273 40.6605 72.5142 40.6569 72.5003C40.6532 72.4863 40.6524 72.4718 40.6544 72.4575C40.6564 72.4432 40.6611 72.4295 40.6684 72.417C40.6757 72.4046 40.6854 72.3937 40.6969 72.3851C40.7084 72.3764 40.7215 72.37 40.7355 72.3664L45.8867 69.3913C45.8991 69.3842 45.9128 69.3796 45.927 69.3777C45.9412 69.3759 45.9556 69.3769 45.9694 69.3807C45.9832 69.3844 45.9962 69.3908 46.0075 69.3996C46.0188 69.4083 46.0283 69.4192 46.0354 69.4317C46.0425 69.4441 46.0471 69.4578 46.049 69.472C46.0508 69.4862 46.0498 69.5006 46.046 69.5144C46.0423 69.5282 46.0359 69.5412 46.0271 69.5525C46.0184 69.5638 46.0075 69.5733 45.995 69.5804L40.846 72.5555C40.8298 72.5677 40.8108 72.5758 40.7907 72.5789Z" fill="#455A64"/>
<path d="M41.6791 73.0932C41.6509 73.1002 41.6211 73.0958 41.5961 73.0808C41.5712 73.0659 41.5533 73.0417 41.5462 73.0135C41.5392 72.9853 41.5436 72.9555 41.5586 72.9306C41.5735 72.9056 41.5977 72.8877 41.6259 72.8807L46.775 69.9055C46.7997 69.8952 46.8273 69.8942 46.8527 69.9027C46.878 69.9112 46.8995 69.9287 46.913 69.9518C46.9265 69.9749 46.9311 70.0021 46.9261 70.0284C46.921 70.0547 46.9066 70.0782 46.8855 70.0947L41.7343 73.0698C41.7187 73.0829 41.6994 73.0911 41.6791 73.0932Z" fill="#455A64"/>
<path d="M42.5801 73.6074C42.5532 73.6112 42.5259 73.605 42.5033 73.59C42.4807 73.5749 42.4645 73.5521 42.4577 73.5258C42.4508 73.4996 42.4539 73.4717 42.4663 73.4476C42.4787 73.4234 42.4995 73.4047 42.5248 73.3949L47.6739 70.4198C47.6992 70.4052 47.7294 70.4012 47.7577 70.4088C47.786 70.4164 47.8101 70.4348 47.8247 70.4602C47.8387 70.4854 47.8423 70.515 47.8348 70.5428C47.8272 70.5706 47.8091 70.5943 47.7844 70.609L42.6332 73.5841C42.6176 73.5959 42.5994 73.6039 42.5801 73.6074Z" fill="#455A64"/>
<path d="M43.4577 74.1196C43.4295 74.1269 43.3996 74.1227 43.3745 74.108C43.3494 74.0932 43.3312 74.0691 43.3238 74.0409C43.3165 74.0128 43.3207 73.9828 43.3354 73.9577C43.3502 73.9326 43.3743 73.9144 43.4025 73.9071L48.5537 70.932C48.5661 70.9248 48.5798 70.9202 48.594 70.9184C48.6082 70.9166 48.6226 70.9176 48.6364 70.9213C48.6502 70.9251 48.6631 70.9315 48.6745 70.9403C48.6858 70.949 48.6953 70.9599 48.7024 70.9723C48.7095 70.9848 48.7141 70.9985 48.7159 71.0127C48.7178 71.0268 48.7168 71.0413 48.713 71.0551C48.7093 71.0689 48.7028 71.0818 48.6941 71.0932C48.6853 71.1045 48.6744 71.114 48.662 71.1211L43.513 74.0962C43.4971 74.109 43.478 74.1171 43.4577 74.1196Z" fill="#455A64"/>
<path d="M44.346 74.6338C44.3267 74.6334 44.3078 74.6281 44.2911 74.6185C44.2744 74.6088 44.2604 74.5951 44.2504 74.5786C44.2363 74.5531 44.2326 74.5231 44.2402 74.495C44.2477 74.4669 44.2658 74.4428 44.2907 74.4277L49.4419 71.4526C49.4543 71.4455 49.468 71.4409 49.4822 71.4391C49.4964 71.4372 49.5109 71.4382 49.5247 71.442C49.5385 71.4457 49.5514 71.4522 49.5627 71.4609C49.5741 71.4697 49.5836 71.4806 49.5907 71.493C49.5978 71.5054 49.6024 71.5191 49.6042 71.5333C49.606 71.5475 49.6051 71.5619 49.6013 71.5757C49.5976 71.5895 49.5911 71.6025 49.5824 71.6138C49.5736 71.6251 49.5627 71.6346 49.5503 71.6417L44.4013 74.6168C44.3844 74.6267 44.3655 74.6326 44.346 74.6338Z" fill="#455A64"/>
</g>
<g opacity="0.3">
<path d="M47.9042 76.6845C47.8849 76.6841 47.866 76.6788 47.8493 76.6691C47.8326 76.6595 47.8186 76.6458 47.8086 76.6293C47.8014 76.6169 47.7967 76.6032 47.7949 76.5889C47.793 76.5747 47.794 76.5603 47.7977 76.5465C47.8015 76.5326 47.8079 76.5197 47.8167 76.5083C47.8255 76.497 47.8365 76.4876 47.849 76.4805L53.0002 73.5054C53.0252 73.491 53.055 73.4872 53.0829 73.4948C53.1108 73.5024 53.1345 73.5207 53.1489 73.5458C53.1633 73.5709 53.1671 73.6006 53.1595 73.6285C53.152 73.6564 53.1336 73.6802 53.1085 73.6945L47.9574 76.6696C47.9411 76.6788 47.9229 76.6839 47.9042 76.6845Z" fill="#455A64"/>
<path d="M48.7927 77.1967C48.7787 77.2003 48.7642 77.2011 48.7499 77.1991C48.7356 77.1971 48.7219 77.1924 48.7095 77.1851C48.697 77.1778 48.6862 77.1681 48.6775 77.1566C48.6688 77.1451 48.6624 77.132 48.6588 77.118C48.6552 77.1041 48.6543 77.0895 48.6563 77.0753C48.6583 77.061 48.6631 77.0472 48.6704 77.0348C48.6777 77.0224 48.6874 77.0115 48.6989 77.0028C48.7104 76.9941 48.7235 76.9878 48.7374 76.9841L53.8886 74.009C53.901 74.0019 53.9147 73.9973 53.9289 73.9955C53.9431 73.9937 53.9575 73.9947 53.9714 73.9984C53.9852 74.0022 53.9981 74.0086 54.0094 74.0174C54.0208 74.0261 54.0303 74.037 54.0374 74.0494C54.0445 74.0618 54.0491 74.0755 54.0509 74.0897C54.0527 74.1039 54.0517 74.1183 54.048 74.1322C54.0442 74.146 54.0378 74.1589 54.0291 74.1702C54.0203 74.1816 54.0094 74.1911 53.997 74.1982L48.8479 77.1733C48.8323 77.1864 48.813 77.1946 48.7927 77.1967Z" fill="#455A64"/>
<path d="M49.6803 77.7109C49.6612 77.7105 49.6426 77.7053 49.6263 77.6956C49.6099 77.6859 49.5963 77.6722 49.5868 77.6557C49.5793 77.6434 49.5744 77.6296 49.5723 77.6154C49.5703 77.6011 49.5712 77.5865 49.575 77.5726C49.5788 77.5587 49.5853 77.5457 49.5943 77.5344C49.6033 77.5231 49.6144 77.5138 49.6271 77.5069L54.7762 74.5318C54.8009 74.5215 54.8285 74.5205 54.8539 74.529C54.8793 74.5375 54.9007 74.5549 54.9142 74.578C54.9277 74.6011 54.9323 74.6284 54.9273 74.6547C54.9222 74.6809 54.9078 74.7045 54.8867 74.7209L49.7355 77.6961C49.7185 77.7052 49.6996 77.7103 49.6803 77.7109Z" fill="#455A64"/>
<path d="M50.5712 78.2231C50.5517 78.2235 50.5325 78.2186 50.5157 78.2088C50.4988 78.1991 50.4849 78.1849 50.4756 78.1678C50.4684 78.1554 50.4637 78.1417 50.4619 78.1275C50.46 78.1133 50.461 78.0988 50.4647 78.085C50.4685 78.0712 50.4749 78.0582 50.4837 78.0469C50.4925 78.0356 50.5035 78.0261 50.516 78.0191L55.665 75.044C55.6774 75.0343 55.6918 75.0274 55.7071 75.0237C55.7224 75.02 55.7384 75.0196 55.7538 75.0226C55.7693 75.0256 55.7839 75.0318 55.7968 75.0409C55.8097 75.05 55.8204 75.0618 55.8284 75.0754C55.8363 75.089 55.8413 75.1041 55.8429 75.1198C55.8445 75.1354 55.8427 75.1513 55.8377 75.1662C55.8327 75.1812 55.8246 75.1948 55.8139 75.2064C55.8031 75.2179 55.7901 75.227 55.7755 75.2331L50.6243 78.2082C50.6084 78.218 50.59 78.2232 50.5712 78.2231Z" fill="#455A64"/>
<path d="M51.4599 78.7373C51.4406 78.7369 51.4217 78.7316 51.405 78.722C51.3883 78.7123 51.3743 78.6986 51.3643 78.6821C51.3571 78.6697 51.3524 78.656 51.3505 78.6418C51.3487 78.6276 51.3496 78.6131 51.3534 78.5993C51.3571 78.5855 51.3636 78.5725 51.3724 78.5612C51.3812 78.5499 51.3922 78.5404 51.4046 78.5333L56.5537 75.5582C56.5791 75.5436 56.6092 75.5396 56.6375 75.5472C56.6658 75.5548 56.6899 75.5733 56.7046 75.5986C56.7118 75.611 56.7164 75.6247 56.7183 75.6389C56.7202 75.6531 56.7192 75.6676 56.7154 75.6814C56.7117 75.6953 56.7052 75.7082 56.6964 75.7195C56.6876 75.7308 56.6767 75.7403 56.6642 75.7474L51.5151 78.7225C51.498 78.7313 51.4792 78.7364 51.4599 78.7373Z" fill="#455A64"/>
<path d="M52.3544 79.2559C52.3355 79.2559 52.317 79.251 52.3006 79.2417C52.2842 79.2324 52.2705 79.219 52.2609 79.2027C52.2462 79.1774 52.2423 79.1472 52.2499 79.1189C52.2574 79.0906 52.2759 79.0665 52.3013 79.0518L57.4503 76.0767C57.475 76.0664 57.5026 76.0654 57.528 76.0739C57.5534 76.0824 57.5748 76.0999 57.5883 76.123C57.6018 76.1461 57.6065 76.1733 57.6014 76.1996C57.5963 76.2259 57.5819 76.2494 57.5608 76.2659L52.4096 79.241C52.3926 79.2502 52.3737 79.2553 52.3544 79.2559Z" fill="#455A64"/>
</g>
<path d="M77.9694 32.6233L72.7949 34.4253L72.6504 34.6612L77.5721 42.4623L82.4725 40.2523L82.6191 40.0164L77.9694 32.6233Z" fill="#37474F"/>
<path d="M78.1161 32.3874L72.7949 34.4253L77.7187 42.2265L82.6191 40.0164L78.1161 32.3874Z" fill="#455A64"/>
<path d="M78.1567 33.1673L73.6367 35.0395L77.7317 41.4168L81.9011 39.4001L78.1567 33.1673Z" fill="#F0F0F0"/>
<path opacity="0.15" d="M77.1664 33.843L76.9135 33.5668C76.7732 33.4095 76.3631 33.3946 75.9954 33.5307L75.292 33.7793C74.9265 33.9174 74.7416 34.1554 74.8819 34.3106L75.1348 34.5932L77.1664 33.843Z" fill="black"/>
<path d="M76.4756 32.7805C76.4181 32.7308 76.3477 32.6983 76.2726 32.6866C76.1974 32.675 76.1205 32.6847 76.0506 32.7146L75.7807 32.8251C75.7807 32.8251 75.2325 32.2131 74.5758 32.4001C73.9192 32.5871 74.4844 33.2884 74.4844 33.2884L74.1997 33.4117C74.0424 33.4797 73.9872 33.6114 74.0573 33.7092L74.1997 33.8855L76.6393 32.9526L76.4756 32.7805Z" fill="#407BFF"/>
<path opacity="0.15" d="M76.4756 32.7805C76.4181 32.7308 76.3477 32.6983 76.2726 32.6866C76.1974 32.675 76.1205 32.6847 76.0506 32.7146L75.7807 32.8251C75.7807 32.8251 75.2325 32.2131 74.5758 32.4001C73.9192 32.5871 74.4844 33.2884 74.4844 33.2884L74.1997 33.4117C74.0424 33.4797 73.9872 33.6114 74.0573 33.7092L74.1997 33.8855L76.6393 32.9526L76.4756 32.7805Z" fill="black"/>
<path d="M76.3416 33.0738C76.11 33.1524 76.0058 33.197 76.2205 33.4393C76.4351 33.6815 76.6646 33.9174 76.6646 33.9174L75.5851 34.3318C75.5851 34.3318 75.2812 33.9833 75.1601 33.8473C75.1137 33.7775 75.046 33.7247 74.967 33.6967C74.8881 33.6687 74.8022 33.6671 74.7223 33.6922L74.582 33.5838L76.3012 32.9611L76.3416 33.0738Z" fill="#407BFF"/>
<path opacity="0.4" d="M76.3416 33.0738C76.11 33.1524 76.0058 33.197 76.2205 33.4393C76.4351 33.6815 76.6646 33.9174 76.6646 33.9174L75.5851 34.3318C75.5851 34.3318 75.2812 33.9833 75.1601 33.8473C75.1137 33.7775 75.046 33.7247 74.967 33.6967C74.8881 33.6687 74.8022 33.6671 74.7223 33.6922L74.582 33.5838L76.3012 32.9611L76.3416 33.0738Z" fill="black"/>
<path d="M77.2386 33.8707L76.9857 33.588C76.8455 33.4308 76.4353 33.4159 76.0677 33.5519L75.3643 33.8133C74.9988 33.9514 74.8139 34.1894 74.9542 34.3446L75.2049 34.6272L77.2386 33.8707Z" fill="#407BFF"/>
<path opacity="0.15" d="M77.2386 33.8707L76.9857 33.588C76.8455 33.4308 76.4353 33.4159 76.0677 33.5519L75.3643 33.8133C74.9988 33.9514 74.8139 34.1894 74.9542 34.3446L75.2049 34.6272L77.2386 33.8707Z" fill="black"/>
<path d="M80.5322 36.3953C80.5322 36.3953 80.6045 35.5049 80.3197 35.2243C80.0349 34.9438 78.9511 35.0926 78.4071 34.9056C77.8121 34.7058 77.9545 35.354 78.2541 35.5431C78.8874 35.9256 80.1221 36.0213 80.5322 36.3953Z" fill="#B16668"/>
<path d="M90.1821 63.0777C90.3393 63.1372 90.4286 63.4326 90.4987 64.153C90.5412 64.5992 90.6942 65.19 90.012 65.5513C89.7628 65.6797 89.486 65.7452 89.2056 65.7423C88.9252 65.7393 88.6498 65.6679 88.4034 65.5343C87.8147 65.1688 87.6298 64.3336 86.9392 63.7917C86.3335 63.3178 85.3581 62.8418 85.0266 62.1087C84.7461 61.503 84.7461 60.6381 85.7513 60.6849C86.9774 60.7422 87.6638 61.707 88.5011 61.7261C88.9559 61.7368 90.0248 63.0203 90.1821 63.0777Z" fill="#263238"/>
<path d="M90.1821 62.7228V63.4496C90.1821 63.8045 88.6711 64.3357 88.2482 63.5239C88.2164 63.4538 88.0527 62.4614 88.0527 62.4614L90.1821 62.7228Z" fill="#B16668"/>
<path d="M83.7098 67.0133C83.7098 67.0133 83.9754 67.0133 84.0817 68.0992C84.1221 68.5136 84.2198 69.3637 84.0817 69.6718C83.9436 69.9799 83.17 70.1181 82.32 70.1924C81.6825 70.2498 81.1002 70.5601 80.5052 70.8958C79.9423 71.2124 79.3104 71.3861 78.6649 71.4016H78.6245C78.0713 71.4189 77.5203 71.3235 77.0052 71.1211C76.6014 70.9511 76.1552 70.6791 76.0255 70.2286C76.0069 70.1688 75.9997 70.1061 76.0043 70.0437C76.0226 69.935 76.081 69.8372 76.1679 69.7696C76.2545 69.7028 76.3495 69.6478 76.4505 69.6059C77.0328 69.3297 77.6215 69.064 78.1952 68.7729C78.769 68.4818 79.3088 68.1991 79.8443 67.874C80.1099 67.7104 80.3692 67.5382 80.6199 67.3512C80.7283 67.2705 80.8473 67.1918 80.9536 67.109C81.011 67.0643 81.1193 66.8688 81.2001 66.8731L83.7098 67.0133Z" fill="#263238"/>
<path d="M83.6416 66.2079C83.6416 66.2079 83.6416 66.7541 83.6416 67.058C83.6416 67.3618 83.2761 67.8357 82.3156 67.8081C81.6398 67.7869 81.1659 67.6084 81.1914 67.058V66.2632L83.6416 66.2079Z" fill="#B16668"/>
<path d="M90.6076 53.8124C90.4516 52.6198 90.179 51.4454 89.7937 50.306C89.7937 50.306 90.019 47.2756 90.1189 44.4025C90.2068 41.4592 90.1252 38.5132 89.8745 35.5792C89.8745 35.5792 80.114 34.6548 79.9525 38.2398C79.791 41.8248 79.9823 50.7161 79.9823 52.4417C79.9823 54.0206 80.1756 55.5911 80.4625 58.5258C80.7367 61.3394 81.1595 66.5161 81.1595 66.5161C82.3071 67.1281 83.7096 66.4502 83.7096 66.4502C83.7096 66.4502 84.5023 59.2972 84.7042 57.4887C84.8453 56.1914 84.7128 54.8789 84.3153 53.636C84.3153 53.636 84.43 52.2589 84.7913 49.2116C85.0463 47.0589 85.2588 44.4897 85.2588 44.4897C85.2588 44.4897 85.4522 47.9833 85.6541 49.6748C85.8432 51.2432 86.0685 51.8701 86.6699 54.945C87.2543 57.9201 87.93 62.8716 87.93 62.8716C89.0776 63.4836 90.2102 62.7589 90.2102 62.7589C90.2102 62.7589 90.9179 56.0118 90.6076 53.8124Z" fill="#37474F"/>
<path d="M85.2539 44.4897L85.7193 41.4933C85.7193 41.4933 87.6191 40.8898 88.586 39.7593C88.586 39.7593 88.0696 41.0768 86.2994 41.7845L85.5897 44.3069L85.3942 46.6445L85.2539 44.4897Z" fill="#263238"/>
<path d="M87.8559 23.5556C89.3795 23.1879 90.3401 23.9253 90.9032 25.9952C91.3835 27.7696 92.089 31.4417 92.3631 32.8145C92.4652 33.3224 92.6649 33.9047 91.596 34.5465C90.0463 35.443 88.4471 36.2511 86.8061 36.9669L86.2217 34.7781L88.5826 29.9457L87.8559 23.5556Z" fill="#37474F"/>
<path d="M83.6523 22.5908L84.1071 25.7933L87.265 25.6318L86.9887 21.8895L83.6523 22.5908Z" fill="#B16668"/>
<path d="M81.5815 18.6381C81.5815 18.6381 80.8101 19.7708 80.8929 19.8856C80.9758 20.0003 81.5305 20.0981 81.5305 20.0981L81.5815 18.6381Z" fill="#9A4A4D"/>
<path d="M81.8366 19.3777C81.6504 19.3747 81.4693 19.3166 81.3162 19.2107C81.163 19.1048 81.0447 18.9559 80.9762 18.7828C80.9077 18.6097 80.8921 18.4201 80.9313 18.2381C80.9705 18.0561 81.0628 17.8898 81.1965 17.7603C81.3302 17.6307 81.4993 17.5437 81.6825 17.5103C81.8656 17.4768 82.0546 17.4985 82.2255 17.5724C82.3963 17.6464 82.5414 17.7693 82.6424 17.9257C82.7434 18.0821 82.7958 18.265 82.7929 18.4511C82.7884 18.7006 82.6853 18.9382 82.506 19.1119C82.3268 19.2855 82.0861 19.3811 81.8366 19.3777ZM81.8621 17.7052C81.7175 17.7032 81.5756 17.744 81.4542 17.8226C81.3329 17.9011 81.2375 18.0139 81.1803 18.1467C81.123 18.2794 81.1064 18.4262 81.1326 18.5684C81.1587 18.7106 81.2264 18.8418 81.3272 18.9455C81.4279 19.0492 81.5571 19.1208 81.6985 19.151C81.8399 19.1813 81.987 19.169 82.1214 19.1156C82.2558 19.0622 82.3713 18.9702 82.4534 18.8512C82.5354 18.7321 82.5804 18.5915 82.5825 18.4469C82.5847 18.2532 82.5103 18.0664 82.3753 17.9275C82.2403 17.7885 82.0558 17.7086 81.8621 17.7052Z" fill="#263238"/>
<path d="M83.7307 15.5037C82.1964 15.8012 81.7459 16.4663 81.5631 18.891C81.3718 21.4241 81.6183 22.2253 81.9456 22.5717C82.1581 22.8054 83.4162 22.867 84.0494 22.7034C84.8421 22.4909 86.6356 21.8959 87.492 20.6336C88.4972 19.146 88.7883 17.1166 87.7492 16.2666C86.2871 15.0659 84.3533 15.3804 83.7307 15.5037Z" fill="#B16668"/>
<path d="M83.6751 22.7672C83.0164 22.8394 82.1302 22.7672 81.9453 22.5695C82.5074 22.566 83.0639 22.4571 83.5859 22.2486L83.6751 22.7672Z" fill="#9A4A4D"/>
<path d="M81.2768 16.2644C81.2768 16.2963 81.2768 16.3282 81.2874 16.3579C81.3146 16.4737 81.3667 16.5822 81.4401 16.6758C81.5135 16.7694 81.6065 16.8458 81.7124 16.8998C81.8684 16.9842 82.0411 17.0328 82.2182 17.0422C82.2819 17.0422 82.7303 17.0656 82.7473 17.0146C82.6632 17.17 82.6071 17.3391 82.5816 17.514C82.5798 17.6022 82.601 17.6893 82.6431 17.7668C82.6852 17.8443 82.7467 17.9095 82.8217 17.956C82.9169 17.9906 83.0087 18.034 83.0958 18.0856C83.2382 18.2025 83.183 18.4703 83.2446 18.6254C83.2637 18.6764 83.6144 19.1418 83.6314 19.0802C83.6314 19.0802 83.8991 18.1026 84.7237 18.2301C85.5482 18.3576 85.6502 19.4308 85.1168 20.0662C84.5834 20.7016 84.0968 20.4487 84.0968 20.4487C84.0968 20.4487 84.0968 21.8491 84.7088 22.6545C84.7088 22.6545 85.4122 22.8947 86.717 22.6375C87.5181 22.4803 88.6635 21.4985 89.1544 20.4487C90.1957 18.2259 90.2977 16.2156 88.8782 15.5887C88.6827 14.1266 87.0931 13.6952 85.8436 13.657C85.0339 13.6336 84.2179 13.7144 83.4125 13.6123C83.0297 13.5568 82.6502 13.4809 82.2756 13.385C82.0435 13.3123 81.7994 13.2863 81.5573 13.3085C81.3188 13.364 81.1046 13.4952 80.9468 13.6825C80.789 13.8698 80.696 14.1031 80.6818 14.3476C80.6633 14.6026 80.7086 14.8582 80.8135 15.0914C80.9254 15.3302 81.1031 15.5322 81.3257 15.6737C81.3392 15.6809 81.3504 15.692 81.3575 15.7055C81.3618 15.7216 81.3618 15.7384 81.3575 15.7544C81.3048 15.9193 81.2776 16.0913 81.2768 16.2644Z" fill="#263238"/>
<path d="M88.765 15.7693L89.6873 15.2444C89.6549 15.1801 89.6097 15.123 89.5546 15.0767C89.4994 15.0304 89.4354 14.9958 89.3665 14.975C89.2975 14.9542 89.2251 14.9476 89.1535 14.9556C89.0819 14.9637 89.0127 14.9862 88.9501 15.0219C88.8875 15.0575 88.8328 15.1055 88.7894 15.1629C88.7459 15.2203 88.7145 15.286 88.6972 15.3559C88.6799 15.4258 88.677 15.4985 88.6886 15.5695C88.7003 15.6406 88.7263 15.7086 88.765 15.7693Z" fill="#263238"/>
<path d="M83.6071 19.6284L83.6517 18.5659C83.5108 18.56 83.3733 18.6103 83.2695 18.7057C83.1657 18.8012 83.104 18.934 83.0981 19.0749C83.0922 19.2158 83.1425 19.3532 83.238 19.4571C83.3334 19.5609 83.4662 19.6225 83.6071 19.6284Z" fill="#263238"/>
<path d="M81.0023 18.2259L83.8371 18.6381L83.7203 18.8358L80.998 18.4405L81.0023 18.2259Z" fill="#263238"/>
<path d="M90.1702 25.2386C89.8345 23.9232 89.3606 23.4939 88.2152 23.4642C87.6247 23.504 87.0371 23.5792 86.4556 23.6895C86.3366 24.2441 84.9001 24.6224 83.4465 24.327C83.0215 24.4524 81.8718 24.7626 81.5127 24.8944C80.4842 25.2663 79.9869 26.3352 79.9189 29.7225C79.9189 29.7225 79.7213 37.7596 79.9189 39.1472C82.5115 40.1588 85.2018 40.112 86.6872 39.7848C89.7792 39.092 90.1447 37.8063 90.1447 37.8063C90.1447 37.8063 89.9832 34.5805 89.8791 32.1281C90.0321 30.5662 90.2659 29.391 90.3509 28.1457C90.4267 27.173 90.3659 26.1945 90.1702 25.2386Z" fill="#455A64"/>
<path d="M69.7348 27.691C69.8283 27.7568 70.519 28.3285 70.8207 28.6047C70.8207 28.6047 71.4242 25.9867 71.4242 25.9845C71.4242 25.9824 71.1458 25.7253 71.1203 25.6955C71.0215 25.5892 70.9299 25.4763 70.8462 25.3576C70.6707 25.0703 70.5206 24.7681 70.3978 24.4545C70.2476 24.1135 70.0571 23.7918 69.8304 23.4961C69.6094 23.1957 69.3877 22.8968 69.1653 22.5993C69.1288 22.5367 69.0739 22.487 69.008 22.4569C68.9511 22.4431 68.8912 22.4503 68.8392 22.4773C68.7873 22.5042 68.7468 22.5491 68.7254 22.6035C68.685 22.7144 68.6762 22.8343 68.6999 22.9499C68.7333 23.1822 68.7918 23.4102 68.8741 23.63C68.923 23.7596 69.0654 24.0805 68.77 24.055C68.6772 24.0335 68.5933 23.9837 68.5299 23.9126C68.1712 23.5777 67.836 23.2184 67.5268 22.8373C67.4303 22.7046 67.3158 22.5859 67.1868 22.4845C67.1211 22.4354 67.0447 22.4024 66.964 22.388C66.8832 22.3736 66.8001 22.3783 66.7214 22.4017C66.6294 22.4524 66.5489 22.5217 66.4849 22.6051C66.4209 22.6885 66.3748 22.7842 66.3496 22.8862C66.2372 23.1278 66.1654 23.3863 66.137 23.6512C66.1337 23.8206 66.1552 23.9895 66.2008 24.1527C66.3813 24.7991 66.7228 25.3891 67.1932 25.8677C67.5596 26.2802 67.9832 26.638 68.4513 26.9302C68.5554 26.9939 68.7509 27.1044 68.9443 27.2256C69.2312 27.3892 69.4054 27.4636 69.7348 27.691Z" fill="#B16668"/>
<path d="M75.6212 29.0446L70.9758 25.6445L70.0684 27.9098C70.0684 27.9098 73.1773 30.8637 74.684 32.1472C75.3215 32.7104 76.0249 32.585 76.7113 32.2492C77.8929 31.6712 80.9084 29.3336 80.9084 29.3336C80.9084 29.3336 82.5192 26.5285 81.5119 24.8965C80.9823 24.999 80.4869 25.2329 80.0711 25.5765C79.3507 26.1822 75.7104 29.034 75.7104 29.034" fill="#B16668"/>
<path d="M81.7089 24.8242C81.2075 24.8003 80.7097 24.9205 80.2745 25.1706C79.7453 25.4703 75.7098 28.9405 75.7098 28.9405L72.4436 26.6284C71.5404 26.8537 70.9327 28.0374 70.8477 28.847C70.8477 28.847 72.5966 30.4663 73.6358 31.5182C75.3358 33.2332 75.7247 33.0185 76.664 32.5298C77.6033 32.041 81.0438 29.5292 81.0438 29.5292C81.0438 29.5292 82.0957 28.7471 82.2954 27.8631C82.8458 25.4235 81.7089 24.8242 81.7089 24.8242Z" fill="#37474F"/>
<path opacity="0.1" d="M75.7108 28.9405C75.2968 29.2673 74.9916 29.7118 74.8353 30.2156C74.8188 29.9422 74.8648 29.6687 74.9697 29.4157C75.0747 29.1628 75.2358 28.9371 75.4409 28.7556L75.7108 28.9405Z" fill="black"/>
<path d="M72.4437 26.6284L71.6277 26.044C71.2065 26.2739 70.8432 26.5965 70.5652 26.9876C70.302 27.3232 70.1286 27.7203 70.0615 28.1415L70.8414 28.847C71.1738 27.9809 71.726 27.2162 72.4437 26.6284Z" fill="#263238"/>
<path d="M70.4188 28.1245C70.4293 28.1523 70.4477 28.1764 70.4718 28.1937C70.4959 28.2111 70.5245 28.221 70.5542 28.2221C70.5839 28.2233 70.6132 28.2157 70.6386 28.2002C70.6639 28.1848 70.6842 28.1622 70.6968 28.1353C70.7093 28.1084 70.7137 28.0784 70.7093 28.049C70.7049 28.0196 70.6919 27.9922 70.672 27.9702C70.6521 27.9482 70.6261 27.9325 70.5973 27.9252C70.5685 27.9178 70.5382 27.9192 70.5102 27.929C70.4912 27.9356 70.4738 27.946 70.4589 27.9595C70.444 27.9729 70.4319 27.9893 70.4234 28.0075C70.4149 28.0257 70.4101 28.0454 70.4093 28.0655C70.4085 28.0856 70.4118 28.1057 70.4188 28.1245Z" fill="#407BFF"/>
<path d="M87.056 22.7948L87.0772 23.1029C86.7237 23.4553 86.2677 23.6866 85.7745 23.7638C84.3061 24.0358 83.7918 23.5789 83.7918 23.5789L83.7536 23.3154C83.7536 23.3154 83.6133 23.2581 83.3753 23.4408C83.0123 23.8166 82.6724 24.214 82.3574 24.6309C82.3574 24.6309 82.6379 24.5501 83.556 24.9411C84.4725 25.2973 85.4823 25.3348 86.4227 25.0474C87.158 24.803 87.7105 24.0783 87.7487 23.8106C87.787 23.5428 87.3088 22.6843 87.056 22.7948Z" fill="#263238"/>
</svg>
