<svg width="134" height="110" viewBox="0 0 134 110" fill="none" xmlns="http://www.w3.org/2000/svg">
<path d="M134 82.195H0V82.2541H134V82.195Z" fill="#EBEBEB"/>
<path d="M120.573 85.9993H111.697V86.0584H120.573V85.9993Z" fill="#EBEBEB"/>
<path d="M88.7669 86.6424H86.438V86.7015H88.7669V86.6424Z" fill="#EBEBEB"/>
<path d="M111.429 83.8052H106.286V83.8643H111.429V83.8052Z" fill="#EBEBEB"/>
<path d="M25.634 84.2024H14.0591V84.2615H25.634V84.2024Z" fill="#EBEBEB"/>
<path d="M29.7184 84.2024H28.022V84.2615H29.7184V84.2024Z" fill="#EBEBEB"/>
<path d="M60.3401 85.2001H35.2339V85.2593H60.3401V85.2001Z" fill="#EBEBEB"/>
<path d="M63.516 71.65H11.7678C11.3624 71.6493 10.9739 71.5068 10.6875 71.2537C10.4011 71.0006 10.2402 70.6576 10.2402 70.2999V6.12387C10.2438 5.76827 10.4062 5.42826 10.6922 5.1777C10.9782 4.92713 11.3648 4.78624 11.7678 4.78563H63.516C63.9218 4.78563 64.311 4.92787 64.598 5.18105C64.885 5.43424 65.0462 5.77763 65.0462 6.13569V70.2999C65.0462 70.658 64.885 71.0014 64.598 71.2545C64.311 71.5077 63.9218 71.65 63.516 71.65ZM11.7678 4.83292C11.3802 4.83355 11.0087 4.96983 10.7349 5.21186C10.461 5.4539 10.3072 5.78189 10.3072 6.12387V70.2999C10.3072 70.6419 10.461 70.9699 10.7349 71.2119C11.0087 71.4539 11.3802 71.5902 11.7678 71.5908H63.516C63.9038 71.5902 64.2756 71.454 64.5499 71.212C64.8241 70.9701 64.9785 70.6421 64.9792 70.2999V6.12387C64.9785 5.78168 64.8241 5.45368 64.5499 5.21172C64.2756 4.96976 63.9038 4.83355 63.516 4.83292H11.7678Z" fill="#EBEBEB"/>
<path d="M121.487 71.65H69.7363C69.3307 71.6493 68.9419 71.5069 68.655 71.2538C68.3682 71.0008 68.2068 70.6578 68.2061 70.2999V6.12387C68.2103 5.76805 68.3733 5.42805 68.6597 5.17755C68.9462 4.92705 69.333 4.78624 69.7363 4.78563H121.487C121.89 4.78686 122.276 4.92803 122.561 5.17853C122.846 5.42903 123.009 5.76868 123.012 6.12387V70.2999C123.012 70.6571 122.852 70.9998 122.566 71.2529C122.28 71.5059 121.892 71.6487 121.487 71.65ZM69.7363 4.83292C69.3485 4.83355 68.9767 4.96976 68.7024 5.21172C68.4282 5.45368 68.2738 5.78168 68.2731 6.12387V70.2999C68.2738 70.6421 68.4282 70.9701 68.7024 71.212C68.9767 71.454 69.3485 71.5902 69.7363 71.5908H121.487C121.875 71.5902 122.247 71.454 122.521 71.212C122.795 70.9701 122.95 70.6421 122.95 70.2999V6.12387C122.95 5.78168 122.795 5.45368 122.521 5.21172C122.247 4.96976 121.875 4.83355 121.487 4.83292H69.7363Z" fill="#EBEBEB"/>
<path d="M113.461 29.4176H19.1836V32.9642H113.461V29.4176Z" fill="#E6E6E6"/>
<path d="M113.581 29.044H112.659V33.3401H113.581V29.044Z" fill="#E0E0E0"/>
<path d="M82.4234 29.044H81.5015V33.3401H82.4234V29.044Z" fill="#E0E0E0"/>
<path d="M51.2657 29.044H50.3438V33.3401H51.2657V29.044Z" fill="#E0E0E0"/>
<path d="M20.1055 29.044H19.1836V33.3401H20.1055V29.044Z" fill="#E0E0E0"/>
<path d="M101.057 29.044H94.7271V33.3401H101.057V29.044Z" fill="#E0E0E0"/>
<path d="M98.4231 23.7431H97.3618V29.6044H98.4231V23.7431Z" fill="#E0E0E0"/>
<path d="M99.8115 25.084C100.871 24.1496 100.871 22.6346 99.8115 21.7002C98.7523 20.7657 97.0351 20.7657 95.9759 21.7002C94.9167 22.6346 94.9167 24.1496 95.9759 25.084C97.0351 26.0184 98.7523 26.0184 99.8115 25.084Z" fill="#E0E0E0"/>
<path d="M99.8192 23.3932C99.8186 23.7293 99.7052 24.0578 99.4931 24.337C99.2811 24.6163 98.9799 24.8338 98.6278 24.9621C98.2756 25.0904 97.8883 25.1237 97.5147 25.0579C97.1411 24.992 96.798 24.8299 96.5288 24.5921C96.2595 24.3542 96.0763 24.0513 96.0022 23.7216C95.928 23.3919 95.9663 23.0502 96.1123 22.7397C96.2582 22.4292 96.5052 22.1639 96.822 21.9772C97.1388 21.7905 97.5113 21.6909 97.8922 21.6909C98.1455 21.6909 98.3963 21.7349 98.6303 21.8205C98.8642 21.9061 99.0768 22.0315 99.2557 22.1896C99.4347 22.3477 99.5766 22.5354 99.6733 22.7419C99.7699 22.9484 99.8195 23.1698 99.8192 23.3932Z" fill="#EBEBEB"/>
<path d="M113.461 36.5107H19.1836V40.0573H113.461V36.5107Z" fill="#E6E6E6"/>
<path d="M113.581 36.1372H112.659V40.4332H113.581V36.1372Z" fill="#E0E0E0"/>
<path d="M82.4234 36.1372H81.5015V40.4332H82.4234V36.1372Z" fill="#E0E0E0"/>
<path d="M51.2657 36.1372H50.3438V40.4332H51.2657V36.1372Z" fill="#E0E0E0"/>
<path d="M20.1055 36.1372H19.1836V40.4332H20.1055V36.1372Z" fill="#E0E0E0"/>
<path d="M19.1836 43.8403V47.3868H86.3471C87.1853 47.3868 88.0153 47.5325 88.7896 47.8156C89.564 48.0986 90.2676 48.5135 90.8601 49.0365C91.4527 49.5595 91.9227 50.1804 92.2432 50.8637C92.5637 51.547 92.7285 52.2793 92.7281 53.0187V82.0082H96.7482V52.9691C96.7482 50.548 95.658 48.226 93.7174 46.514C91.7769 44.802 89.145 43.8403 86.4007 43.8403H19.1836Z" fill="#E6E6E6"/>
<path d="M82.4234 43.4667H81.5015V47.7627H82.4234V43.4667Z" fill="#E0E0E0"/>
<path d="M51.2657 43.4667H50.3438V47.7627H51.2657V43.4667Z" fill="#E0E0E0"/>
<path d="M20.1055 43.4667H19.1836V47.7627H20.1055V43.4667Z" fill="#E0E0E0"/>
<path d="M97.1714 82.1146V81.3013H92.3018V82.1146H97.1714Z" fill="#E0E0E0"/>
<path d="M97.1743 57.2273V56.414H92.3048V57.2273H97.1743Z" fill="#E0E0E0"/>
<path d="M67.0001 92.8725C95.6982 92.8725 118.963 91.6742 118.963 90.1961C118.963 88.7179 95.6982 87.5196 67.0001 87.5196C38.302 87.5196 15.0376 88.7179 15.0376 90.1961C15.0376 91.6742 38.302 92.8725 67.0001 92.8725Z" fill="#F5F5F5"/>
<path d="M73.027 85.0701H76.1733C76.4356 85.0701 76.6871 85.162 76.8726 85.3256C77.0581 85.4893 77.1623 85.7112 77.1623 85.9426V86.6519H72.0381V85.9426C72.0381 85.7112 72.1423 85.4893 72.3277 85.3256C72.5132 85.162 72.7647 85.0701 73.027 85.0701Z" stroke="#263238" stroke-width="2" stroke-miterlimit="10"/>
<path d="M69.2055 86.03H80.4615C80.6286 86.03 80.7888 86.0886 80.9069 86.1928C81.025 86.297 81.0913 86.4383 81.0913 86.5857V90.6051H68.5757V86.5928C68.5747 86.5192 68.5902 86.4462 68.6213 86.378C68.6525 86.3097 68.6987 86.2476 68.7573 86.1953C68.8159 86.1429 68.8857 86.1014 68.9626 86.073C69.0396 86.0446 69.1221 86.03 69.2055 86.03Z" fill="#263238"/>
<path opacity="0.2" d="M69.2055 86.03H75.3856C75.5526 86.03 75.7128 86.0886 75.8309 86.1928C75.9491 86.297 76.0154 86.4383 76.0154 86.5857V90.6051H68.5757V86.5928C68.5747 86.5192 68.5902 86.4462 68.6213 86.378C68.6525 86.3097 68.6987 86.2476 68.7573 86.1953C68.8159 86.1429 68.8857 86.1014 68.9626 86.073C69.0396 86.0446 69.1221 86.03 69.2055 86.03Z" fill="white"/>
<path opacity="0.2" d="M81.102 87.3801H68.5757V87.6189H81.102V87.3801Z" fill="black"/>
<path d="M36.3516 43.0884L37.4906 41.9062C37.4906 41.9062 37.2226 40.9274 37.4906 40.6909C37.7586 40.4545 38.2946 39.6884 38.852 39.5797C39.4094 39.4709 40.6396 40.6105 40.2054 41.1638C39.7712 41.7171 39.4014 42.2254 39.0798 42.2301H38.7636L37.3324 43.4549L36.3516 43.0884Z" fill="#E4897B"/>
<path d="M28.4078 45.4764C29.9167 45.6561 32.3555 45.9753 33.4168 45.3487C34.478 44.7222 36.9302 42.2372 36.9302 42.2372L38.2408 42.8969C38.2408 42.8969 35.0596 47.1929 34.1591 47.5239C33.2586 47.855 27.9951 47.8455 27.9951 47.8455L28.4078 45.4764Z" fill="#407BFF"/>
<path opacity="0.6" d="M38.2329 42.8969C38.2329 42.8969 35.0518 47.1929 34.1513 47.5216C33.6609 47.7036 31.8733 47.784 30.3484 47.8171C29.0754 47.8502 27.9873 47.8455 27.9873 47.8455L28.2875 46.1266L28.4 45.4764C29.9089 45.6561 32.3477 45.9776 33.4089 45.3487C34.4702 44.7198 36.9224 42.2396 36.9224 42.2396L38.2329 42.8969Z" fill="white"/>
<path opacity="0.2" d="M30.3484 47.8171C29.0754 47.8502 27.9873 47.8455 27.9873 47.8455L28.2875 46.1266C29.1163 46.5384 29.8226 47.1178 30.3484 47.8171Z" fill="black"/>
<path d="M20.8449 42.2372C20.4894 42.4044 20.1938 42.656 19.9916 42.9634C19.7894 43.2709 19.6886 43.6221 19.7005 43.9774C19.6791 45.2825 18.8831 47.1527 19.0949 48.4697C19.3066 49.7866 20.861 49.6211 21.3541 47.9614C21.8472 46.3016 20.9709 45.2163 21.1719 44.2233C21.2461 43.9158 21.3902 43.6248 21.5957 43.3679C21.8012 43.1111 22.0636 42.8937 22.3671 42.729L20.8449 42.2372Z" fill="#263238"/>
<path d="M35.5824 88.7845L34.0977 89.0162L33.4893 87.2311L32.9346 85.5903L34.6471 85.063L35.1429 87.0349L35.5824 88.7845Z" fill="#E4897B"/>
<path opacity="0.2" d="M35.1507 87.0751L33.4971 87.2666L32.937 85.6092L34.6469 85.0725L35.1507 87.0751Z" fill="black"/>
<path d="M25.669 89.3898H24.1628L23.9136 87.5149L23.6885 85.8054L25.4787 85.543L25.5806 87.5787L25.669 89.3898Z" fill="#E4897B"/>
<path opacity="0.2" d="M25.5806 87.5953L23.9136 87.5314L23.6885 85.8125L25.4787 85.5477L25.5806 87.5953Z" fill="black"/>
<path d="M35.2901 86.0348L32.8487 86.4154C30.3857 81.001 28.633 76.4851 27.3975 72.7281C26.7302 70.7042 26.1728 68.9049 25.7895 67.309L25.8619 73.2033V86.4816H23.4499C17.4199 61.1427 21.6918 55.3666 21.6918 55.3666L28.9064 54.3073C29.1915 55.4868 29.3938 56.6807 29.5121 57.8822L29.8363 59.9936L32.6557 72.8463L35.2901 86.0348Z" fill="#263238"/>
<path d="M23.8092 88.4843C23.8092 88.3448 25.7468 88.4535 25.7468 88.4535C25.7468 88.4535 26.9367 89.5222 28.0945 89.7634C29.2523 90.0045 28.6037 90.6146 27.3119 90.6146H24.1201C23.1981 90.6122 23.7717 89.9218 23.8092 88.4843Z" fill="#263238"/>
<path d="M26.7651 88.8886C26.485 88.8586 26.213 88.7857 25.9611 88.6734C25.9539 88.6709 25.9475 88.6668 25.9424 88.6616C25.9372 88.6502 25.9372 88.6375 25.9424 88.6261C25.9424 88.6096 26.1112 88.2124 26.3739 88.1154C26.4134 88.0996 26.4564 88.0914 26.4998 88.0914C26.5433 88.0914 26.5862 88.0996 26.6258 88.1154C26.7115 88.1532 26.7544 88.2005 26.7517 88.2596C26.7491 88.3187 26.607 88.4393 26.4516 88.5126C26.598 88.4912 26.7483 88.5059 26.8857 88.5552C26.9109 88.5672 26.9329 88.5837 26.9505 88.6037C26.968 88.6236 26.9806 88.6466 26.9876 88.671C27.002 88.7019 27.0053 88.7358 26.9972 88.7684C26.989 88.8009 26.9698 88.8305 26.942 88.8531C26.8895 88.8827 26.827 88.8952 26.7651 88.8886ZM26.1407 88.6521C26.4248 88.7585 26.7785 88.8531 26.8723 88.7869C26.8723 88.7869 26.9045 88.7633 26.8723 88.6947C26.8685 88.6821 26.8618 88.6704 26.8525 88.6602C26.8433 88.65 26.8318 88.6416 26.8187 88.6356C26.596 88.5842 26.3615 88.5875 26.1407 88.645V88.6521ZM26.4864 88.1793C26.4597 88.1794 26.4333 88.1842 26.4087 88.1934C26.2562 88.2809 26.1397 88.4094 26.0764 88.5599C26.3631 88.4653 26.6392 88.3235 26.6445 88.2549C26.6445 88.2313 26.6017 88.2076 26.5749 88.1982C26.5477 88.1847 26.5175 88.1766 26.4864 88.1745V88.1793Z" fill="#407BFF"/>
<path d="M33.6983 88.4843C33.6983 88.3448 35.636 88.4535 35.636 88.4535C35.636 88.4535 36.8259 89.5222 37.981 89.7634C39.1361 90.0045 38.4929 90.6146 37.1984 90.6146H34.0039C33.0846 90.6122 33.6581 89.9218 33.6983 88.4843Z" fill="#263238"/>
<path d="M36.6543 88.8886C36.3742 88.8583 36.1022 88.7855 35.8503 88.6734L35.8342 88.6616C35.8315 88.656 35.8301 88.6499 35.8301 88.6438C35.8301 88.6377 35.8315 88.6317 35.8342 88.6261C35.8342 88.6096 36.0031 88.2124 36.2657 88.1154C36.3048 88.0997 36.3473 88.0915 36.3903 88.0915C36.4333 88.0915 36.4758 88.0997 36.5149 88.1154C36.6034 88.1532 36.6463 88.2005 36.6436 88.2596C36.6409 88.3187 36.4989 88.4393 36.3407 88.5126C36.4871 88.4912 36.6374 88.5059 36.7749 88.5552C36.8008 88.5667 36.8235 88.583 36.8415 88.603C36.8596 88.623 36.8725 88.6462 36.8794 88.671C36.8935 88.7021 36.8964 88.7362 36.8878 88.7688C36.8792 88.8013 36.8594 88.8308 36.8312 88.8531C36.7787 88.8827 36.7161 88.8952 36.6543 88.8886ZM36.0299 88.6521C36.3139 88.7585 36.6677 88.8531 36.7588 88.7869C36.7588 88.7869 36.791 88.7633 36.7722 88.6947C36.7625 88.6695 36.7424 88.6484 36.7159 88.6356C36.4907 88.5825 36.2531 88.5858 36.0299 88.645V88.6521ZM36.3756 88.1792C36.348 88.1794 36.3207 88.1842 36.2952 88.1934C36.1442 88.2818 36.0288 88.4101 35.9655 88.5599C36.2496 88.4653 36.5283 88.3235 36.5337 88.2549C36.5337 88.2313 36.4908 88.2076 36.464 88.1982C36.4368 88.1847 36.4067 88.1766 36.3756 88.1745V88.1792Z" fill="#407BFF"/>
<path opacity="0.2" d="M27.3976 72.7281C26.7303 70.7042 26.2104 68.9049 25.811 67.309C25.845 65.4183 26.0007 63.5309 26.2774 61.6558C26.2774 61.6558 27.336 68.9475 27.3976 72.7281Z" fill="black"/>
<path d="M23.8174 56.4022L27.6015 56.1066V55.0237L23.8174 55.3122V56.4022Z" fill="black"/>
<path d="M23.485 55.3382L21.5849 55.4824L21.416 56.5913L23.485 56.4282V55.3382Z" fill="black"/>
<path d="M27.8906 55.0024V56.0853L28.7402 56.0191V54.9386L27.8906 55.0024Z" fill="black"/>
<path d="M26.6018 55.1254C26.5565 55.0889 26.5031 55.0611 26.445 55.0436C26.3869 55.0261 26.3253 55.0193 26.2642 55.0237L25.369 55.0923C25.2584 55.1006 25.1553 55.1453 25.0803 55.2176C25.0054 55.2899 24.964 55.3844 24.9644 55.4824V55.986C24.9644 56.0403 24.9773 56.0941 25.0022 56.1437C25.0271 56.1934 25.0635 56.2379 25.1091 56.2745C25.1901 56.3421 25.2977 56.3794 25.4092 56.3785H25.4602L26.3553 56.3099C26.4659 56.3016 26.569 56.2569 26.644 56.1846C26.719 56.1123 26.7604 56.0178 26.76 55.9198V55.4186C26.7583 55.3627 26.7434 55.3077 26.7162 55.2572C26.6889 55.2067 26.65 55.1618 26.6018 55.1254ZM26.3204 56.1066L25.428 56.1752C25.3979 56.1778 25.3675 56.1748 25.3388 56.1662C25.3102 56.1577 25.2839 56.1438 25.2618 56.1255C25.24 56.1077 25.2226 56.0861 25.2106 56.0621C25.1986 56.0381 25.1923 56.0122 25.1922 55.986V55.4824C25.1926 55.4348 25.2132 55.389 25.2499 55.354C25.2865 55.319 25.3367 55.2974 25.3905 55.2933L26.2829 55.2271H26.3017C26.3551 55.2277 26.4065 55.2454 26.4464 55.2767C26.4686 55.2948 26.4862 55.3167 26.4982 55.3412C26.5102 55.3656 26.5163 55.3919 26.5161 55.4186V55.4942H26.4812L26.232 55.5108C26.1919 55.5138 26.1548 55.5306 26.1287 55.5576C26.1026 55.5846 26.0897 55.6196 26.0926 55.655C26.094 55.6726 26.0993 55.6898 26.1083 55.7056C26.1173 55.7214 26.1298 55.7354 26.145 55.7469C26.1602 55.7583 26.1779 55.767 26.197 55.7723C26.2161 55.7777 26.2362 55.7796 26.2561 55.778L26.5054 55.7614V55.9269C26.5033 55.9712 26.4837 56.0135 26.4499 56.0464C26.4161 56.0792 26.3703 56.1005 26.3204 56.1066Z" fill="white"/>
<path d="M20.1642 48.7865C20.4322 49.5668 20.652 50.243 20.8235 50.8459C21.2601 52.3637 21.5152 53.9177 21.5846 55.4824L28.7402 54.9386C29.027 50.4912 28.901 48.0465 28.7697 46.8241C28.6276 45.5213 28.3998 45.474 28.3998 45.474C28.3998 45.474 26.7918 45.3369 25.4063 45.3464C24.3276 45.378 23.2529 45.4776 22.1903 45.6443C21.4202 45.7571 20.6579 45.9079 19.9069 46.0959C19.8173 46.1177 19.7339 46.1557 19.6617 46.2073C19.5895 46.2589 19.5301 46.3232 19.4874 46.3959C19.4446 46.4687 19.4193 46.5485 19.4131 46.6303C19.4069 46.7122 19.4199 46.7942 19.4513 46.8714C19.529 47.0723 19.6014 47.2639 19.6711 47.453C19.8533 47.9212 20.0141 48.3704 20.1642 48.7865Z" fill="#407BFF"/>
<path opacity="0.6" d="M19.4516 46.8714C19.5293 47.07 19.6017 47.2639 19.6714 47.453C19.6928 47.505 19.7116 47.557 19.733 47.6067C19.8134 47.8431 19.8965 48.0583 19.9742 48.2687L20.1591 48.7912C20.3601 49.3563 20.529 49.8647 20.6683 50.3304C20.7193 50.5101 20.7702 50.6851 20.8184 50.853L20.8827 51.0752C21.148 52.0179 21.3343 52.9764 21.4402 53.9432C21.4991 54.4421 21.5393 54.941 21.5795 55.4824L28.7351 54.941C29.0219 50.4912 28.8933 48.0488 28.7619 46.8265C28.6172 45.5237 28.3921 45.4764 28.3921 45.4764C28.3921 45.4764 27.1245 45.3653 25.8622 45.3511H25.4066C25.2779 45.3511 25.1386 45.3511 25.0153 45.3676C24.892 45.3842 24.6883 45.3818 24.5249 45.3936C23.772 45.4369 23.0223 45.5158 22.279 45.6301L22.1959 45.6419L21.743 45.7128C21.1266 45.8169 20.5156 45.9493 19.9099 46.0935C19.82 46.1154 19.7362 46.1534 19.6637 46.2051C19.5912 46.2569 19.5315 46.3213 19.4885 46.3943C19.4455 46.4673 19.42 46.5473 19.4137 46.6294C19.4073 46.7115 19.4202 46.7939 19.4516 46.8714Z" fill="white"/>
<path d="M24.5409 46.6941C22.8713 46.5049 22.3701 45.876 22.3701 45.876C23.4421 44.9941 22.5497 43.4667 22.5497 43.4667L24.5597 43.7977C24.5128 44.0447 24.4868 44.2944 24.482 44.5448C24.4659 45.6206 25.018 45.6301 25.018 45.6301C25.369 46.2141 24.5409 46.6941 24.5409 46.6941Z" fill="#E4897B"/>
<path opacity="0.2" d="M24.5593 43.7977C24.5124 44.0447 24.4864 44.2944 24.4816 44.5448C24.0794 44.535 23.6877 44.4296 23.3476 44.2399C23.0076 44.0502 22.7318 43.7831 22.5493 43.4667L24.5593 43.7977Z" fill="black"/>
<path d="M29.3083 55.3382L26.0923 55.6503L25.7332 54.5721L25.6046 55.6503L21.1746 55.8536L21.271 54.2458L21.338 53.1322L21.3005 53.0353L20.9789 52.2219L20.4751 50.9405L20.2366 48.9638L19.8721 45.9776L20.6144 45.8169L21.3514 45.6608L21.8955 45.5473L25.1034 48.0252L25.6046 45.0816L26.1084 45.1359L26.9124 45.2187L28.0729 45.344L29.169 49.0679L29.0028 52.3236L28.9385 53.598L28.9144 54.0827L29.3083 55.3382Z" fill="#407BFF"/>
<path opacity="0.7" d="M29.0029 52.3236L28.9386 53.6004L21.2711 54.2435L21.3381 53.1322L21.3006 53.0376L23.525 52.8319C23.466 51.95 23.2838 50.4179 22.721 49.2405C22.1135 48.0571 21.4104 46.9137 20.6172 45.8192L21.3542 45.6632C22.1306 46.5787 22.7617 47.5833 23.2302 48.6494C23.7328 49.9916 24.1444 51.3591 24.463 52.7445L27.5075 52.4631C27.6235 51.2081 27.592 49.9459 27.4137 48.6967C27.2046 47.4956 26.5561 46.0344 26.1139 45.1359L26.9179 45.2211C27.4056 46.1479 28.0301 47.5216 28.1533 48.6848C28.2676 49.9188 28.29 51.158 28.2203 52.3945L29.0029 52.3236Z" fill="white"/>
<path opacity="0.2" d="M20.9792 52.2243L20.4753 50.9405L20.2368 48.9662C20.3592 48.9268 20.4858 48.8982 20.6147 48.8811C20.6147 48.8811 21.483 50.8553 20.9792 52.2243Z" fill="black"/>
<path d="M25.996 40.8115C25.996 40.8115 26.8295 38.0357 23.852 37.8679C20.0143 37.6551 18.8297 42.5493 22.5763 43.2823C26.323 44.0152 25.996 40.8115 25.996 40.8115Z" fill="#263238"/>
<path d="M25.9961 43.0884C25.98 43.1404 25.964 43.1924 25.9479 43.2397C25.853 43.5472 25.6418 43.8169 25.3493 44.0039C25.0568 44.191 24.7007 44.2843 24.3399 44.2682C24.212 44.2724 24.0839 44.2684 23.9566 44.2564L23.6886 44.2257C20.6924 43.7977 20.545 38.9791 23.4501 38.8325C25.1948 38.7474 25.8085 39.5418 26.0363 41.1283C26.1576 41.7784 26.144 42.4426 25.9961 43.0884Z" fill="#E4897B"/>
<path d="M24.8999 41.1023C25.0506 41.3251 25.2305 41.5314 25.4359 41.7171C25.3887 41.7833 25.3217 41.8367 25.2422 41.8713C25.1627 41.9059 25.0739 41.9205 24.9857 41.9133L24.8999 41.1023Z" fill="#DE5753"/>
<path d="M23.8224 41.029C23.8224 41.1543 23.7661 41.2655 23.6696 41.2655C23.5732 41.2655 23.4874 41.1733 23.4767 41.0479C23.466 40.9226 23.5356 40.8115 23.6294 40.8115C23.7232 40.8115 23.8117 40.9013 23.8224 41.029Z" fill="#263238"/>
<path d="M23.584 40.821L23.8841 40.6909C23.8841 40.6909 23.7582 40.9321 23.584 40.821Z" fill="#263238"/>
<path d="M25.6049 40.8777C25.6049 41.0054 25.5459 41.1141 25.4521 41.1141C25.3583 41.1141 25.2699 41.0243 25.2565 40.899C25.2431 40.7737 25.3154 40.6626 25.4092 40.6626C25.503 40.6626 25.5915 40.7524 25.6049 40.8777Z" fill="#263238"/>
<path d="M25.3716 40.6696L25.6717 40.542C25.6717 40.542 25.5377 40.7831 25.3716 40.6696Z" fill="#263238"/>
<path d="M23.7394 39.9651C23.6006 39.9568 23.4614 39.9768 23.3327 40.0236C23.204 40.0703 23.0891 40.1425 22.9971 40.2346" stroke="#263238" stroke-width="0.72468" stroke-linecap="round" stroke-linejoin="round"/>
<path d="M25.0073 39.8374C25.1248 39.8047 25.2491 39.7962 25.3709 39.8126C25.4926 39.829 25.6085 39.8698 25.7095 39.932" stroke="#263238" stroke-width="0.72468" stroke-linecap="round" stroke-linejoin="round"/>
<path d="M21.7083 41.5279C21.7083 41.5279 22.4453 40.2228 22.263 39.251C22.263 39.251 25.6479 37.8324 26.015 40.9274C26.015 40.9274 26.1839 38.1587 23.1742 38.2414C20.1646 38.3242 20.4219 42.2018 22.0433 43.2823C22.0299 43.2823 21.2446 42.346 21.7083 41.5279Z" fill="#263238"/>
<path d="M22.0057 41.84C21.9778 41.6626 21.8713 41.5023 21.7095 41.3941C21.5477 41.286 21.3439 41.2389 21.1428 41.2631C20.6068 41.3411 20.4058 42.3342 21.7672 42.5044C21.9763 42.528 22.062 42.3578 22.0057 41.84Z" fill="#E4897B"/>
<path d="M24.0693 42.197C24.1286 42.3505 24.2402 42.4841 24.389 42.5794C24.5378 42.6746 24.7163 42.7269 24.9001 42.729" stroke="#263238" stroke-width="0.5" stroke-linecap="round" stroke-linejoin="round"/>
<path d="M24.6562 41.1733C24.6567 41.2988 24.615 41.4216 24.5363 41.5262C24.4576 41.6307 24.3454 41.7123 24.2141 41.7606C24.0827 41.8088 23.9381 41.8216 23.7985 41.7972C23.6589 41.7728 23.5307 41.7124 23.4301 41.6237C23.3295 41.5349 23.261 41.4218 23.2334 41.2987C23.2058 41.1755 23.2202 41.0479 23.2749 40.932C23.3296 40.8162 23.4221 40.7172 23.5406 40.6478C23.6591 40.5783 23.7984 40.5415 23.9406 40.542C24.1304 40.542 24.3124 40.6085 24.4466 40.7269C24.5808 40.8453 24.6562 41.0058 24.6562 41.1733Z" stroke="#263238" stroke-width="0.5" stroke-linecap="round" stroke-linejoin="round"/>
<path d="M26.5322 40.9203C26.5317 41.045 26.4892 41.1668 26.4103 41.2703C26.3313 41.3738 26.2194 41.4544 26.0886 41.5018C25.9578 41.5492 25.814 41.5614 25.6754 41.5368C25.5368 41.5121 25.4095 41.4518 25.3097 41.3635C25.2099 41.2751 25.142 41.1626 25.1146 41.0402C25.0872 40.9178 25.1016 40.791 25.1558 40.6758C25.21 40.5606 25.3018 40.4621 25.4194 40.3928C25.537 40.3236 25.6752 40.2866 25.8166 40.2866C25.9109 40.2863 26.0044 40.3025 26.0915 40.3343C26.1787 40.366 26.2578 40.4127 26.3244 40.4717C26.3909 40.5306 26.4435 40.6006 26.4792 40.6776C26.5149 40.7546 26.5329 40.8371 26.5322 40.9203Z" stroke="#263238" stroke-width="0.5" stroke-linecap="round" stroke-linejoin="round"/>
<path d="M24.6562 41.0408C24.6562 41.0408 24.9242 40.7713 25.1226 40.9841" stroke="#263238" stroke-width="0.5" stroke-linecap="round" stroke-linejoin="round"/>
<path d="M23.2248 41.1733L21.6489 41.2702" stroke="#263238" stroke-width="0.5" stroke-linecap="round" stroke-linejoin="round"/>
<path d="M22.8016 38.031C23.5625 38.0096 24.3183 38.1473 25.0072 38.4329C25.9586 38.8893 26.0042 39.5891 26.0042 39.5891L25.6719 39.4804L25.0072 39.0075C25.0957 39.1528 25.1418 39.3154 25.1412 39.4804C25.1412 39.4804 24.9242 39.0973 24.6562 39.0335C24.6926 39.1298 24.6971 39.2332 24.6691 39.3317C24.6411 39.4301 24.5817 39.5195 24.498 39.5891C24.4381 39.3887 24.3018 39.2125 24.1121 39.0902C24.1121 39.0902 24.163 39.3101 23.6646 39.5891C23.6713 39.4856 23.6488 39.3822 23.5993 39.2881C23.5497 39.194 23.4745 39.1123 23.3805 39.05C23.3805 39.05 23.142 39.4496 22.815 39.5087C22.815 39.5087 23.0589 39.3101 23.0106 39.1895C22.738 39.4057 22.3982 39.5448 22.0351 39.5891C21.4777 39.6293 20.7514 38.6103 22.8016 38.031Z" fill="#263238"/>
<path d="M21.1719 39.679C21.1719 39.679 22.3162 43.9088 24.7202 44.3486L25.1919 44.2233C25.1919 44.2233 23.9135 44.2422 23.0211 42.9796C22.1286 41.7171 21.5203 39.6128 21.5203 39.6128L21.1719 39.679Z" fill="black"/>
<path d="M26.6555 38.9129C25.4602 40.2157 22.322 39.2652 21.2124 40.0147C20.1029 40.7642 20.2798 41.4333 20.2798 41.4452C19.5053 41.6556 19.926 40.5325 19.926 40.5325C19.106 38.3313 20.6228 37.0616 22.9518 36.8205C25.1333 36.584 25.7336 38.5323 25.7336 38.5323L26.6555 38.9129Z" fill="#407BFF"/>
<path opacity="0.2" d="M25.7282 38.5204C25.2378 39.2889 22.1692 39.0902 21.0222 39.4307C19.8751 39.7712 19.9207 40.5207 19.9207 40.5207C19.1006 38.3195 20.6175 37.0498 22.9464 36.8086C25.1333 36.5817 25.7282 38.5204 25.7282 38.5204Z" fill="black"/>
<path d="M21.3408 37.317C22.2681 37.0191 23.3026 37.7118 23.7073 38.2154C24.112 38.719 24.9562 38.5323 24.9722 37.979C24.9883 37.4257 24.4041 36.3547 24.4041 36.3547C24.4041 36.3547 20.5636 36.2932 20.0571 38.1918C20.3545 37.7756 20.8093 37.4657 21.3408 37.317Z" fill="#407BFF"/>
<path d="M24.1763 44.3651C24.364 44.1877 24.6092 44.0655 24.8784 44.0152C25.0728 43.9657 25.279 43.9657 25.4734 44.0152C25.4126 44.1133 25.3292 44.1992 25.2286 44.2672C25.128 44.3352 25.0124 44.3839 24.8892 44.4101C24.7755 44.4555 24.6507 44.4751 24.5263 44.4673C24.4018 44.4594 24.2815 44.4243 24.1763 44.3651Z" fill="#263238"/>
<path d="M22.4503 45.3487L23.8251 45.9327L24.4844 46.4718L24.6425 45.9091L24.5594 44.9752L25.6475 45.3487L26.0039 46.564L25.3581 46.2377L24.8757 47.5239L23.4847 46.6941L23.1792 47.2189L21.8955 45.8169L22.4503 45.3487Z" fill="#407BFF"/>
<path opacity="0.5" d="M21.8955 45.8169L23.1792 47.2189L23.4847 46.6941L24.8757 47.5239L25.3581 46.2377L26.0039 46.564L25.6475 45.3487L24.5594 44.9752L24.6425 45.9091L24.4844 46.4718L23.8251 45.9327L22.4503 45.3487L21.8955 45.8169Z" fill="white"/>
<path opacity="0.2" d="M23.1792 47.2189L23.4847 46.6941L24.8756 47.5239L23.5544 46.2495L23.1792 47.2189Z" fill="black"/>
<path opacity="0.2" d="M24.876 47.5239L25.3584 46.2377L26.0043 46.564L25.2539 45.7554L24.876 47.5239Z" fill="black"/>
<path d="M28.2524 50.6544C28.2524 50.6544 28.0004 54.1867 31.5809 53.9645C34.7112 53.7801 37.903 44.3817 38.6508 42.0339C38.6994 41.8822 38.803 41.7487 38.9458 41.6539C39.0886 41.5591 39.2627 41.5082 39.4414 41.509H39.9318" stroke="#263238" stroke-miterlimit="10"/>
<path d="M28.9144 50.9357H25.4277L25.9959 46.1242H29.4853L28.9144 50.9357Z" fill="#263238"/>
<path opacity="0.2" d="M26.2103 50.9357H25.4277L25.9959 46.1242H26.7785L26.2103 50.9357Z" fill="white"/>
<path d="M40.2161 41.5232C40.2166 41.5738 40.2001 41.6234 40.1686 41.6657C40.1371 41.708 40.0921 41.7411 40.0393 41.7608C39.9864 41.7805 39.9281 41.7859 39.8718 41.7763C39.8155 41.7667 39.7637 41.7426 39.7229 41.7069C39.6822 41.6713 39.6544 41.6258 39.643 41.5762C39.6316 41.5266 39.6372 41.4752 39.659 41.4284C39.6808 41.3816 39.7179 41.3416 39.7656 41.3134C39.8132 41.2852 39.8693 41.2702 39.9266 41.2702C40.0029 41.2702 40.0762 41.2968 40.1304 41.3441C40.1846 41.3915 40.2154 41.4559 40.2161 41.5232Z" fill="#263238"/>
<path d="M23.5547 51.314L24.6562 50.6544C24.6562 50.6544 24.7151 50.1106 24.8357 49.9994C24.9563 49.8883 26.7707 49.4107 27.1459 49.4391C27.5211 49.4675 27.5881 50.6544 27.2343 50.9665C26.8806 51.2786 25.4334 51.5434 25.3262 51.4393L24.1764 52.073L23.5547 51.314Z" fill="#E4897B"/>
<path d="M19.548 46.3276C18.5188 46.8123 17.2994 53.6855 18.8351 54.7967C20.3707 55.908 24.8758 51.9075 24.8758 51.9075L24.1308 50.4889C24.1308 50.4889 21.3784 52.5388 20.6762 52.1912C19.9741 51.8436 20.6762 49.9001 20.6762 49.9001C20.7892 49.2308 20.7892 48.5503 20.6762 47.881C20.6206 47.5671 20.4916 47.267 20.2974 46.9995C20.1031 46.7321 19.8479 46.5033 19.548 46.3276Z" fill="#407BFF"/>
<path opacity="0.6" d="M19.548 46.3276C18.5188 46.8123 17.2994 53.6855 18.8351 54.7967C20.3707 55.908 24.8758 51.9075 24.8758 51.9075L24.1308 50.4889C24.1308 50.4889 21.3784 52.5388 20.6762 52.1912C19.9741 51.8436 20.6762 49.9001 20.6762 49.9001C20.7892 49.2308 20.7892 48.5503 20.6762 47.881C20.6206 47.5671 20.4916 47.267 20.2974 46.9995C20.1031 46.7321 19.8479 46.5033 19.548 46.3276Z" fill="white"/>
<path d="M113.461 63.2092C113.461 66.8668 112.322 69.8294 110.917 69.8294H78.5616C77.1546 69.8294 76.0156 66.8621 76.0156 63.2092C76.0156 59.5562 77.1546 56.5889 78.5616 56.5889H110.917C112.322 56.5842 113.461 59.5491 113.461 63.2092Z" fill="#407BFF"/>
<path opacity="0.4" d="M113.461 63.2092C113.461 66.8668 112.322 69.8294 110.917 69.8294H78.5616C77.1546 69.8294 76.0156 66.8621 76.0156 63.2092C76.0156 59.5562 77.1546 56.5889 78.5616 56.5889H110.917C112.322 56.5842 113.461 59.5491 113.461 63.2092Z" fill="white"/>
<path d="M81.3376 55.9458H78.6576C77.0094 55.9458 75.6748 59.1732 75.6748 63.1572C75.6748 67.1411 77.0148 70.3661 78.6576 70.3661H81.3376C82.9832 70.3661 84.3178 67.1387 84.3178 63.1572C84.3178 59.1756 82.9832 55.9458 81.3376 55.9458Z" fill="#407BFF"/>
<path opacity="0.4" d="M78.6579 70.3661C80.3038 70.3661 81.6381 67.1385 81.6381 63.1572C81.6381 59.1758 80.3038 55.9482 78.6579 55.9482C77.012 55.9482 75.6777 59.1758 75.6777 63.1572C75.6777 67.1385 77.012 70.3661 78.6579 70.3661Z" fill="white"/>
<path opacity="0.2" d="M81.3376 55.9458H78.6576C77.0094 55.9458 75.6748 59.1732 75.6748 63.1572C75.6748 67.1411 77.0148 70.3661 78.6576 70.3661H81.3376C82.9832 70.3661 84.3178 67.1387 84.3178 63.1572C84.3178 59.1756 82.9832 55.9458 81.3376 55.9458Z" fill="white"/>
<path d="M78.1218 55.9458H75.4418C73.7936 55.9458 72.459 59.1732 72.459 63.1572C72.459 67.1411 73.799 70.3661 75.4418 70.3661H78.1218C79.7673 70.3661 81.102 67.1387 81.102 63.1572C81.102 59.1756 79.7673 55.9458 78.1218 55.9458Z" fill="#407BFF"/>
<path opacity="0.4" d="M75.4421 70.3661C77.088 70.3661 78.4222 67.1385 78.4222 63.1572C78.4222 59.1758 77.088 55.9482 75.4421 55.9482C73.7962 55.9482 72.4619 59.1758 72.4619 63.1572C72.4619 67.1385 73.7962 70.3661 75.4421 70.3661Z" fill="white"/>
<path opacity="0.2" d="M78.1218 55.9458H75.4418C73.7936 55.9458 72.459 59.1732 72.459 63.1572C72.459 67.1411 73.799 70.3661 75.4418 70.3661H78.1218C79.7673 70.3661 81.102 67.1387 81.102 63.1572C81.102 59.1756 79.7673 55.9458 78.1218 55.9458Z" fill="white"/>
<path d="M77.2804 63.2092C77.2804 66.8668 76.1414 69.8294 74.7371 69.8294H50.4215C49.0145 69.8294 47.8755 66.8621 47.8755 63.2092C47.8755 59.5562 49.0145 56.5889 50.4215 56.5889H74.7371C76.1414 56.5842 77.2804 59.5491 77.2804 63.2092Z" fill="#407BFF"/>
<path opacity="0.4" d="M77.2804 63.2092C77.2804 66.8668 76.1414 69.8294 74.7371 69.8294H50.4215C49.0145 69.8294 47.8755 66.8621 47.8755 63.2092C47.8755 59.5562 49.0145 56.5889 50.4215 56.5889H74.7371C76.1414 56.5842 77.2804 59.5491 77.2804 63.2092Z" fill="white"/>
<path d="M56.95 55.9458H54.27C52.6218 55.9458 51.2871 59.1732 51.2871 63.1572C51.2871 67.1411 52.6271 70.3661 54.27 70.3661H56.95C58.5955 70.3661 59.9301 67.1387 59.9301 63.1572C59.9301 59.1756 58.5955 55.9458 56.95 55.9458Z" fill="#407BFF"/>
<path opacity="0.4" d="M54.2697 70.3661C55.9156 70.3661 57.2499 67.1385 57.2499 63.1572C57.2499 59.1758 55.9156 55.9482 54.2697 55.9482C52.6238 55.9482 51.2896 59.1758 51.2896 63.1572C51.2896 67.1385 52.6238 70.3661 54.2697 70.3661Z" fill="white"/>
<path opacity="0.2" d="M56.95 55.9458H54.27C52.6218 55.9458 51.2871 59.1732 51.2871 63.1572C51.2871 67.1411 52.6271 70.3661 54.27 70.3661H56.95C58.5955 70.3661 59.9301 67.1387 59.9301 63.1572C59.9301 59.1756 58.5955 55.9458 56.95 55.9458Z" fill="white"/>
<path d="M53.8331 56.5842H40.0713V69.8247H53.8331C55.2374 69.8247 56.3764 66.8574 56.3764 63.2044C56.3764 59.5515 55.2374 56.5842 53.8331 56.5842Z" fill="#407BFF"/>
<path opacity="0.4" d="M53.8331 56.5842H40.0713V69.8247H53.8331C55.2374 69.8247 56.3764 66.8574 56.3764 63.2044C56.3764 59.5515 55.2374 56.5842 53.8331 56.5842Z" fill="white"/>
<path d="M51.9411 19.3147H36.9224V90.5271H51.9411V19.3147Z" fill="#407BFF"/>
<path opacity="0.4" d="M51.9411 19.3147H36.9224V90.5271H51.9411V19.3147Z" fill="white"/>
<path d="M52.1368 73.1915H36.7268C36.5195 73.1915 36.3516 73.3397 36.3516 73.5225V75.3857C36.3516 75.5685 36.5195 75.7167 36.7268 75.7167H52.1368C52.344 75.7167 52.512 75.5685 52.512 75.3857V73.5225C52.512 73.3397 52.344 73.1915 52.1368 73.1915Z" fill="#407BFF"/>
<path d="M52.1368 51.6758H36.7268C36.5195 51.6758 36.3516 51.824 36.3516 52.0068V53.8699C36.3516 54.0527 36.5195 54.2009 36.7268 54.2009H52.1368C52.344 54.2009 52.512 54.0527 52.512 53.8699V52.0068C52.512 51.824 52.344 51.6758 52.1368 51.6758Z" fill="#407BFF"/>
<path d="M53.3158 90.6122H35.5474L36.3514 89.7941H52.5118L53.3158 90.6122Z" fill="#407BFF"/>
<path d="M52.1368 37.9624H36.7268C36.5195 37.9624 36.3516 38.1106 36.3516 38.2935V42.5209C36.3516 42.7038 36.5195 42.852 36.7268 42.852H52.1368C52.344 42.852 52.512 42.7038 52.512 42.5209V38.2935C52.512 38.1106 52.344 37.9624 52.1368 37.9624Z" fill="#407BFF"/>
<path opacity="0.2" d="M52.1368 73.1915H36.7268C36.5195 73.1915 36.3516 73.3397 36.3516 73.5225V75.3857C36.3516 75.5685 36.5195 75.7167 36.7268 75.7167H52.1368C52.344 75.7167 52.512 75.5685 52.512 75.3857V73.5225C52.512 73.3397 52.344 73.1915 52.1368 73.1915Z" fill="white"/>
<path opacity="0.2" d="M52.1368 51.6758H36.7268C36.5195 51.6758 36.3516 51.824 36.3516 52.0068V53.8699C36.3516 54.0527 36.5195 54.2009 36.7268 54.2009H52.1368C52.344 54.2009 52.512 54.0527 52.512 53.8699V52.0068C52.512 51.824 52.344 51.6758 52.1368 51.6758Z" fill="white"/>
<path opacity="0.2" d="M52.1368 37.9624H36.7268C36.5195 37.9624 36.3516 38.1106 36.3516 38.2935V42.5209C36.3516 42.7038 36.5195 42.852 36.7268 42.852H52.1368C52.344 42.852 52.512 42.7038 52.512 42.5209V38.2935C52.512 38.1106 52.344 37.9624 52.1368 37.9624Z" fill="white"/>
<path d="M36.9169 38.6694H36.271C35.8743 38.6694 35.5527 39.4473 35.5527 40.4072C35.5527 41.3671 35.8743 42.145 36.271 42.145H36.9169C37.3162 42.145 37.6378 41.3671 37.6378 40.4072C37.6378 39.4473 37.3162 38.6694 36.9169 38.6694Z" fill="#407BFF"/>
<path opacity="0.4" d="M36.271 42.145C36.6676 42.145 36.9892 41.367 36.9892 40.4072C36.9892 39.4474 36.6676 38.6694 36.271 38.6694C35.8743 38.6694 35.5527 39.4474 35.5527 40.4072C35.5527 41.367 35.8743 42.145 36.271 42.145Z" fill="white"/>
<path opacity="0.1" d="M36.9169 38.6694H36.271C35.8743 38.6694 35.5527 39.4473 35.5527 40.4072C35.5527 41.3671 35.8743 42.145 36.271 42.145H36.9169C37.3162 42.145 37.6378 41.3671 37.6378 40.4072C37.6378 39.4473 37.3162 38.6694 36.9169 38.6694Z" fill="white"/>
<path d="M35.9118 39.861H32.8191C32.6154 39.861 32.4492 40.0975 32.4492 40.4072C32.4492 40.7169 32.6154 40.9534 32.8191 40.9534H35.9118C36.1155 40.9534 36.2789 40.7169 36.2789 40.4072C36.2789 40.0975 36.1074 39.861 35.9118 39.861Z" fill="#407BFF"/>
<path opacity="0.4" d="M33.1862 40.4072C33.1862 40.7075 33.0227 40.9534 32.8191 40.9534C32.6154 40.9534 32.4492 40.7169 32.4492 40.4072C32.4492 40.0975 32.6154 39.861 32.8191 39.861C33.0227 39.861 33.1862 40.1069 33.1862 40.4072Z" fill="white"/>
<path opacity="0.1" d="M35.9118 39.861H32.8191C32.6154 39.861 32.4492 40.0975 32.4492 40.4072C32.4492 40.7169 32.6154 40.9534 32.8191 40.9534H35.9118C36.1155 40.9534 36.2789 40.7169 36.2789 40.4072C36.2789 40.0975 36.1074 39.861 35.9118 39.861Z" fill="white"/>
<path d="M32.2054 38.92H33.3257C34.0144 38.92 34.5719 39.5868 34.5719 40.4072C34.5719 41.2276 34.0144 41.8944 33.3257 41.8944H32.2054C31.5194 41.8944 30.9619 41.2276 30.9619 40.4072C30.9619 39.5868 31.5194 38.92 32.2054 38.92Z" fill="#407BFF"/>
<path opacity="0.1" d="M32.2054 38.92H33.3257C34.0144 38.92 34.5719 39.5868 34.5719 40.4072C34.5719 41.2276 34.0144 41.8944 33.3257 41.8944H32.2054C31.5194 41.8944 30.9619 41.2276 30.9619 40.4072C30.9619 39.5868 31.5194 38.92 32.2054 38.92Z" fill="white"/>
<path opacity="0.2" d="M32.0796 40.4072C32.0796 41.2276 32.637 41.8944 33.3258 41.8944C34.0146 41.8944 34.572 41.2276 34.572 40.4072C34.572 39.5868 34.0146 38.92 33.3258 38.92C32.637 38.92 32.0796 39.5868 32.0796 40.4072Z" fill="black"/>
<path d="M81.421 64.4977H81.8551C82.6806 64.4977 83.3479 63.6844 83.3479 62.6795C83.3479 61.6747 82.6806 60.8613 81.8551 60.8613H81.421C80.5955 60.8613 79.9282 61.677 79.9282 62.6795C79.9282 63.682 80.5955 64.4977 81.421 64.4977Z" fill="#407BFF"/>
<path opacity="0.4" d="M80.3623 62.6795C80.3623 61.677 81.0323 60.8613 81.8551 60.8613C82.6778 60.8613 83.3478 61.677 83.3478 62.6795C83.3478 63.682 82.6805 64.4977 81.8551 64.4977C81.0296 64.4977 80.3623 63.6844 80.3623 62.6795Z" fill="white"/>
<path opacity="0.2" d="M81.421 64.4977H81.8551C82.6806 64.4977 83.3479 63.6844 83.3479 62.6795C83.3479 61.6747 82.6806 60.8613 81.8551 60.8613H81.421C80.5955 60.8613 79.9282 61.677 79.9282 62.6795C79.9282 63.682 80.5955 64.4977 81.421 64.4977Z" fill="white"/>
<path d="M82.3457 59.1472C80.7779 59.1472 79.5049 60.7715 79.5049 62.7741C79.5049 64.7767 80.7779 66.4034 82.3457 66.4034C83.9135 66.4034 85.1865 64.7791 85.1865 62.7741C85.1865 60.7691 83.9162 59.1472 82.3457 59.1472ZM81.204 62.6795H80.0543C80.0636 62.0635 80.2226 61.4564 80.5206 60.8992L81.3541 62.2445C81.2681 62.3779 81.2168 62.5265 81.204 62.6795ZM81.204 62.916C81.2207 63.0535 81.27 63.1865 81.3487 63.3061L80.5152 64.6514C80.2241 64.1081 80.0652 63.5169 80.0489 62.916H81.204ZM82.4609 62.916H84.6478C84.6326 63.5236 84.4719 64.1215 84.1761 64.6703L82.4127 63.1193C82.435 63.0529 82.4503 62.9849 82.4582 62.916H82.4609ZM82.4609 62.6795C82.4535 62.5994 82.4364 62.5201 82.41 62.4431L84.1734 60.8897C84.4769 61.4523 84.6387 62.0661 84.6478 62.689L82.4609 62.6795ZM84.0394 60.6651L82.276 62.2043C82.222 62.1319 82.1518 62.0699 82.0696 62.0223L82.4502 59.639C83.08 59.6673 83.6374 60.0622 84.0394 60.6651ZM82.1795 59.639L81.8204 61.9655C81.7159 61.9697 81.6156 62.0028 81.5336 62.0601L80.668 60.6509C81.0512 60.0764 81.5872 59.6934 82.1795 59.639ZM80.668 64.8997L81.539 63.4976C81.6202 63.5546 81.7195 63.5877 81.8231 63.5922L82.1768 65.9187C81.5846 65.8549 81.0486 65.4719 80.668 64.8997ZM82.4502 65.9235L82.0857 63.5284C82.1679 63.4807 82.2381 63.4188 82.2921 63.3463L84.0448 64.8855C83.6348 65.4908 83.08 65.888 82.4448 65.9235H82.4502Z" fill="#407BFF"/>
<path d="M87.8642 61.4524L86.4143 60.7762C86.2106 60.5375 86.0372 60.2798 85.897 60.0078C85.822 59.7714 84.825 58.932 84.4338 59.029C84.0425 59.1259 83.075 60.684 83.4395 60.8992C83.973 61.1548 84.5353 61.3609 85.1172 61.5139C85.3222 61.5308 85.5285 61.5308 85.7336 61.5139L87.0736 62.4597L87.8642 61.4524Z" fill="#263238"/>
<path d="M95.8907 60.8755C95.8907 60.8755 91.2864 62.3911 90.7692 62.4029C90.2519 62.4147 86.8323 60.6344 86.8323 60.6344L85.7603 61.9017C85.7603 61.9017 88.8449 64.285 89.5873 64.7933C90.3297 65.3016 96.5741 64.0627 96.5741 64.0627C96.7452 63.5208 96.7726 62.9515 96.6541 62.3987C96.5356 61.846 96.2744 61.3248 95.8907 60.8755Z" fill="#263238"/>
<path opacity="0.3" d="M95.8907 60.8755C95.8907 60.8755 91.2864 62.3911 90.7692 62.4029C90.2519 62.4147 86.8323 60.6344 86.8323 60.6344L85.7603 61.9017C85.7603 61.9017 88.8449 64.285 89.5873 64.7933C90.3297 65.3016 96.5741 64.0627 96.5741 64.0627C96.7452 63.5208 96.7726 62.9515 96.6541 62.3987C96.5356 61.846 96.2744 61.3248 95.8907 60.8755Z" fill="white"/>
<path d="M91.8118 89.2763L90.0002 89.6121L88.0679 86.8079L89.8769 86.4698L91.8118 89.2763Z" fill="#E4897B"/>
<path d="M89.6354 88.9358H91.6562C91.6893 88.9362 91.7214 88.9464 91.7472 88.9649C91.773 88.9833 91.791 89.0089 91.7982 89.0375L92.1278 90.3474C92.1349 90.3753 92.1355 90.4043 92.1298 90.4325C92.124 90.4606 92.1118 90.4875 92.0941 90.5115C92.0764 90.5355 92.0534 90.5562 92.0265 90.5722C91.9997 90.5883 91.9694 90.5995 91.9376 90.6051C91.9198 90.6075 91.9017 90.6075 91.884 90.6051C91.2274 90.6051 90.7503 90.5602 89.9276 90.5602C89.421 90.5602 87.8908 90.6075 87.1913 90.6075C86.4918 90.6075 86.3873 89.9974 86.6848 89.9407C87.9712 89.7043 88.9386 89.352 89.3514 89.0257C89.4298 88.9652 89.5313 88.9331 89.6354 88.9358Z" fill="#263238"/>
<path d="M89.0832 89.1936C88.9703 89.2009 88.8579 89.1742 88.7643 89.1179C88.7331 89.0959 88.709 89.0671 88.6945 89.0343C88.6799 89.0015 88.6753 88.966 88.6812 88.9311C88.6798 88.9109 88.6855 88.8907 88.6975 88.8734C88.7095 88.856 88.7272 88.8424 88.7482 88.8342C88.9331 88.7491 89.4718 89.0422 89.5308 89.0706C89.5384 89.0728 89.5448 89.0774 89.5488 89.0835C89.5527 89.0896 89.554 89.0968 89.5522 89.1037C89.5503 89.1109 89.5464 89.1174 89.5407 89.1228C89.5351 89.1282 89.528 89.1322 89.5201 89.1345C89.3771 89.1672 89.2307 89.187 89.0832 89.1936ZM88.8367 88.8886C88.8203 88.8829 88.8021 88.8829 88.7858 88.8886C88.7858 88.8886 88.7616 88.9004 88.7589 88.9288C88.756 88.9519 88.7593 88.9753 88.7686 88.9971C88.7779 89.0189 88.793 89.0384 88.8126 89.0541C88.9998 89.1296 89.2127 89.1389 89.4075 89.0801C89.233 88.9848 89.0391 88.9206 88.8367 88.8909V88.8886Z" fill="#407BFF"/>
<path d="M89.5123 89.1439H89.4935C89.322 89.0612 88.9897 88.7372 89.0245 88.5812C89.0296 88.5551 89.0451 88.5315 89.0682 88.5146C89.0913 88.4977 89.1205 88.4886 89.1505 88.489C89.1806 88.4855 89.2113 88.4877 89.2404 88.4954C89.2695 88.5032 89.2964 88.5163 89.3193 88.5339C89.5123 88.6734 89.5525 89.0966 89.5552 89.1155C89.5552 89.1222 89.5533 89.1288 89.5495 89.1347C89.5457 89.1405 89.5403 89.1453 89.5337 89.1486L89.5123 89.1439ZM89.1773 88.5457H89.1585C89.1076 88.5457 89.1049 88.5717 89.1022 88.5812C89.0808 88.6758 89.2925 88.9217 89.464 89.0352C89.4526 88.8684 89.3845 88.7085 89.2684 88.5765C89.2424 88.5565 89.209 88.5456 89.1746 88.5457H89.1773Z" fill="#407BFF"/>
<path opacity="0.2" d="M89.8769 86.4698L88.0679 86.8079L89.0648 88.2549L90.8765 87.9168L89.8769 86.4698Z" fill="black"/>
<path d="M97.7933 79.7716C97.6968 79.7716 96.5953 79.7716 96.4934 79.755C94.5087 79.5769 92.5495 79.222 90.6457 78.6958C88.9385 78.2442 87.7593 77.821 87.7593 77.821C87.3707 79.8165 91.0397 87.4723 91.0397 87.4723L88.0434 87.6354C88.0434 87.6354 79.6604 76.7286 83.2328 73.3287C85.8994 70.7917 93.1354 73.5462 93.1354 73.5462L95.0248 70.0256L103.035 70.4299C103.035 70.4299 104.767 80.1002 97.7933 79.7716Z" fill="#263238"/>
<path d="M88.1827 87.9499L91.1709 87.5267L90.8841 86.8103L87.6333 87.4085L88.1827 87.9499Z" fill="#407BFF"/>
<path d="M112.107 86.283L112.265 87.7489L108.43 88.1887L108.275 86.7228L112.107 86.283Z" fill="#E4897B"/>
<path d="M112.094 87.9688L111.904 86.1885C111.901 86.1592 111.91 86.1301 111.929 86.1057C111.947 86.0813 111.974 86.063 112.006 86.0537L113.453 85.6423C113.515 85.6252 113.582 85.6306 113.64 85.6571C113.698 85.6837 113.741 85.7294 113.761 85.7841C113.762 85.7999 113.762 85.8157 113.761 85.8314C113.812 86.4083 113.817 86.8316 113.892 87.5551C113.94 87.9996 114.136 89.3402 114.203 89.9549C114.27 90.5696 113.589 90.7068 113.498 90.4609C113.099 89.3543 112.622 88.5363 112.215 88.2053C112.143 88.1422 112.1 88.058 112.094 87.9688Z" fill="#263238"/>
<path d="M112.437 88.4275C112.457 88.5262 112.438 88.6282 112.383 88.716C112.361 88.7452 112.33 88.7689 112.295 88.7846C112.259 88.8004 112.219 88.8077 112.179 88.8058C112.157 88.8089 112.134 88.8058 112.113 88.7969C112.092 88.788 112.075 88.7738 112.064 88.7562C111.952 88.6025 112.23 88.1012 112.263 88.0469C112.265 88.0406 112.27 88.0353 112.276 88.0315C112.282 88.0277 112.29 88.0256 112.297 88.0256C112.306 88.0253 112.314 88.0274 112.321 88.0317C112.328 88.036 112.333 88.0422 112.335 88.0492C112.385 88.1716 112.419 88.2985 112.437 88.4275ZM112.115 88.6758C112.115 88.6911 112.121 88.7061 112.131 88.7183C112.131 88.7183 112.147 88.7372 112.179 88.7372C112.206 88.7379 112.232 88.7329 112.256 88.7226C112.28 88.7123 112.301 88.697 112.316 88.6781C112.384 88.5076 112.375 88.3207 112.292 88.1556C112.196 88.3173 112.136 88.494 112.115 88.6758Z" fill="#407BFF"/>
<path d="M112.338 88.0587V88.0752C112.26 88.2336 111.925 88.5481 111.748 88.5481C111.718 88.5459 111.691 88.5345 111.669 88.5159C111.648 88.4973 111.635 88.4727 111.633 88.4464C111.626 88.4205 111.625 88.3935 111.631 88.3673C111.637 88.3411 111.65 88.3165 111.668 88.2951C111.804 88.1107 112.279 88.0374 112.303 88.0327C112.31 88.0321 112.317 88.0331 112.324 88.0356C112.33 88.038 112.336 88.0419 112.34 88.0468C112.341 88.0509 112.34 88.055 112.338 88.0587ZM111.695 88.4086V88.4251C111.695 88.4701 111.729 88.4724 111.74 88.4724C111.85 88.4724 112.107 88.2738 112.22 88.1107C112.032 88.1369 111.857 88.2127 111.719 88.3282C111.7 88.3517 111.692 88.3801 111.695 88.4086Z" fill="#407BFF"/>
<path opacity="0.2" d="M108.277 86.7228L108.433 88.1887L110.411 87.9617L110.253 86.4935L108.277 86.7228Z" fill="black"/>
<path d="M109.784 88.5741C109.784 88.5741 98.9697 91.3641 96.2764 89.6806C94.9524 88.8531 94.4459 86.7583 94.3682 84.3797C94.3306 82.7646 94.4282 81.1493 94.6603 79.5469C95.0114 76.984 95.5688 74.8773 95.8127 74.5605C95.8127 74.5605 103.049 74.3832 102.85 75.9791C102.652 77.5751 98.7929 85.7983 99.6344 86.4509C100.476 87.1035 109.591 86.1388 109.591 86.1388L109.784 88.5741Z" fill="#263238"/>
<path d="M109.215 85.9497L109.438 88.8909L110.274 88.7041L109.896 85.7936L109.215 85.9497Z" fill="#407BFF"/>
<path opacity="0.5" d="M88.1827 87.9499L91.1709 87.5267L90.8841 86.8103L87.6333 87.4085L88.1827 87.9499Z" fill="white"/>
<path opacity="0.5" d="M109.215 85.9497L109.438 88.8909L110.274 88.7041L109.896 85.7936L109.215 85.9497Z" fill="white"/>
<path d="M91.4929 57.3715C91.5331 57.4874 91.4741 57.608 91.3884 57.608C91.3026 57.608 91.2061 57.5418 91.1767 57.4259C91.1472 57.3101 91.1954 57.1895 91.2812 57.1895C91.3669 57.1895 91.4661 57.2604 91.4929 57.3715Z" fill="#263238"/>
<path d="M91.6266 57.459C91.5569 57.8516 91.4252 58.2336 91.2354 58.5939C91.3422 58.6342 91.4576 58.6536 91.5738 58.6507C91.6899 58.6479 91.8039 58.6228 91.908 58.5774L91.6266 57.459Z" fill="#892B29"/>
<path d="M91.1603 56.7166C91.1401 56.7221 91.1232 56.7343 91.1132 56.7507C91.1032 56.767 91.1008 56.7862 91.1067 56.8041C91.1139 56.8176 91.1262 56.8285 91.1415 56.8348C91.159 56.8491 91.1821 56.8567 91.2058 56.8561C91.3026 56.8294 91.405 56.823 91.505 56.8373C91.6051 56.8517 91.6999 56.8865 91.782 56.9389C91.7971 56.9519 91.8173 56.9591 91.8383 56.9591C91.8594 56.9591 91.8796 56.9519 91.8946 56.9389C91.9093 56.9256 91.9176 56.9078 91.9176 56.8892C91.9176 56.8706 91.9093 56.8528 91.8946 56.8396C91.7926 56.7681 91.6725 56.7196 91.5446 56.6982C91.4167 56.6768 91.2848 56.6831 91.1603 56.7166Z" fill="#263238"/>
<path d="M92.0419 59.107C92.0847 59.1732 92.1303 59.237 92.1785 59.2985C92.4561 59.6501 92.8475 59.9195 93.3015 60.0716C93.416 60.1117 93.5344 60.1425 93.6552 60.1639C93.9714 60.2283 94.2999 60.2295 94.6166 60.1673C94.9334 60.1051 95.2303 59.9811 95.4857 59.8045C95.7144 59.6435 95.9047 59.4442 96.0458 59.2181C96.6541 58.2724 96.3674 57.4188 96.0163 55.9411C95.9414 55.594 95.7668 55.2697 95.5093 54.9991C95.2518 54.7285 94.92 54.5207 94.5456 54.3955C94.1711 54.2703 93.7665 54.2318 93.3704 54.2839C92.9743 54.3359 92.5999 54.4767 92.2831 54.6927C90.8519 55.6597 91.2834 57.8799 92.0419 59.107Z" fill="#B97964"/>
<path opacity="0.2" d="M93.3018 60.0716C93.4163 60.1117 93.5347 60.1425 93.6555 60.1639C93.9717 60.2283 94.3002 60.2295 94.6169 60.1673C94.9337 60.1051 95.2306 59.9811 95.486 59.8045C95.3577 59.6473 95.2073 59.5051 95.0384 59.3813C94.3963 59.4592 93.7933 59.6989 93.3018 60.0716Z" fill="black"/>
<path d="M97.2037 61.1687C96.5899 62.0152 94.5237 62.2492 94.5237 62.2492C94.5237 62.2492 93.1836 62.2492 93.3444 61.8402C94.0439 61.5588 94.3066 61.1734 94.3334 60.7526C94.3402 60.4941 94.2892 60.237 94.1833 59.996C94.1297 59.8612 94.0627 59.7288 93.9957 59.5988L95.9655 57.4023C95.9682 58.5419 96.1719 60.5847 97.2037 61.1687Z" fill="#B97964"/>
<path d="M91.9911 54.078C92.3717 53.8132 93.5134 53.3356 94.3013 53.3356C96.7428 53.3356 96.8205 54.5745 96.8205 54.5745C96.617 54.3741 96.3544 54.2276 96.0621 54.1513C98.7153 56.3359 96.306 59.0266 96.306 59.0266C95.2849 58.8682 94.162 59.4191 94.162 59.4191C94.162 59.4191 93.5134 58.1565 92.9828 57.8231C92.3867 57.3907 92.0067 56.7693 91.9241 56.0924C91.9241 55.5533 91.4176 55.9222 91.4176 55.9222C90.9057 55.6716 91.4337 54.4681 91.9911 54.078Z" fill="#263238"/>
<path d="M93.5055 57.4472C93.5154 57.5917 93.4891 57.7363 93.4284 57.8707C93.3677 58.0052 93.2742 58.1262 93.1544 58.2251C92.8569 58.4308 92.5085 58.0667 92.4227 57.6174C92.3504 57.2179 92.4094 56.6173 92.7926 56.6031C93.1758 56.5889 93.5028 57.0382 93.5055 57.4472Z" fill="#B97964"/>
<path d="M92.1438 55.4044C92.1438 55.4044 92.0661 58.8327 92.8915 59.8967C92.8915 59.8967 91.8517 59.2559 91.8624 55.5628L92.1438 55.4044Z" fill="black"/>
<path d="M93.3018 54.967C93.3018 54.967 94.7597 56.2154 95.8558 56.4494C96.9519 56.6835 97.3459 56.1042 97.3459 56.1042L97.2038 55.0639C97.2038 55.0639 97.2333 55.8654 96.7911 55.9458C96.3489 56.0262 95.3332 55.8489 94.1272 54.8157L93.3018 54.967Z" fill="#407BFF"/>
<path opacity="0.4" d="M93.3018 54.967C93.3018 54.967 94.7597 56.2154 95.8558 56.4494C96.9519 56.6835 97.3459 56.1042 97.3459 56.1042L97.2038 55.0639C97.2038 55.0639 97.2333 55.8654 96.7911 55.9458C96.3489 56.0262 95.3332 55.8489 94.1272 54.8157L93.3018 54.967Z" fill="white"/>
<path d="M90.8522 56.0191C90.8522 56.0191 90.7102 54.4988 91.3882 53.7895C92.0663 53.0802 94.0012 52.6901 95.2555 52.9525C96.5097 53.215 97.1931 54.6431 97.244 54.9339C97.3593 55.6101 94.4943 54.4184 92.8703 54.9552C91.2462 55.4919 90.8522 56.0191 90.8522 56.0191Z" fill="#407BFF"/>
<path opacity="0.2" d="M90.8522 56.0191C90.8522 56.0191 90.7102 54.4988 91.3882 53.7895C92.0663 53.0802 94.0012 52.6901 95.2555 52.9525C96.5097 53.215 97.1931 54.6431 97.244 54.9339C97.3593 55.6101 94.4943 54.4184 92.8703 54.9552C91.2462 55.4919 90.8522 56.0191 90.8522 56.0191Z" fill="black"/>
<path d="M91.5972 53.6027C91.5972 53.6027 91.6963 52.8485 91.9643 52.657C92.2323 52.4655 94.4674 52.2196 95.1401 52.4584C95.8128 52.6972 96.8339 53.7612 97.0295 55.0214L95.9441 55.1467C95.9441 55.1467 95.5877 53.728 94.6202 53.3214C93.508 52.8674 91.5972 53.6027 91.5972 53.6027Z" fill="#407BFF"/>
<path d="M90.332 56.7852C90.332 56.7852 91.2111 56.9672 91.9132 56.0144C92.6154 55.0616 94.1323 54.993 95.3329 55.2318C96.1828 55.4011 97.0593 55.4411 97.9245 55.35L97.2357 54.9339C97.2357 54.9339 96.3567 55.1159 94.8237 54.6974C93.2908 54.2789 91.2781 55.1892 90.8573 56.0191L90.332 56.7852Z" fill="#407BFF"/>
<path d="M103.199 70.6735L93.8698 71.9999C93.7143 70.0753 93.449 68.2334 93.1488 66.5831C93.1167 66.3892 93.0792 66.2001 93.0443 66.0133C92.9666 65.6043 92.854 65.1361 92.7254 64.6538C92.4065 63.448 91.9964 62.1452 91.8115 61.4217C91.8115 61.4217 95.266 60.3175 98.0157 60.9323C101.267 61.6581 103.199 70.6735 103.199 70.6735Z" fill="#407BFF"/>
<path opacity="0.2" d="M100.57 78.0125C100.508 78.1969 98.541 83.8737 94.3682 84.3797C94.3306 82.7646 94.4282 81.1493 94.6603 79.5469C95.6008 79.6816 96.5511 79.7559 97.5038 79.7692C98.5329 79.7361 100.302 78.6201 100.57 78.0125Z" fill="black"/>
<path opacity="0.7" d="M102.939 69.6001L93.7763 71.0068C93.7414 70.6262 93.6986 70.2479 93.6503 69.8743L97.7427 69.165C97.4747 67.9994 96.9387 65.888 96.1749 64.3133C95.5387 63.0492 94.5814 61.9312 93.377 61.0458C93.5378 61.0127 93.7066 60.9819 93.8835 60.9536C96.7323 62.8451 98.1715 67.1789 98.67 69.0042L101.259 68.5503C101.031 67.4839 100.455 65.1172 99.624 63.3912C99.1677 62.4657 98.533 61.6169 97.748 60.8826C97.8418 60.8992 97.9356 60.9181 98.016 60.9394C98.2621 60.997 98.4945 61.0931 98.7021 61.2231C100.806 63.5189 101.862 67.056 102.202 68.3848L102.577 68.3209C102.725 68.7985 102.843 69.2359 102.939 69.6001Z" fill="white"/>
<path opacity="0.2" d="M93.149 66.5831C93.1169 66.3892 93.0793 66.2001 93.0445 66.0133C92.9668 65.6043 92.8542 65.1361 92.7256 64.6538C92.9503 64.4774 93.2167 64.3474 93.5055 64.2731C93.5055 64.2731 93.7762 65.713 93.149 66.5831Z" fill="black"/>
<path d="M84.1173 65.6374L82.4879 65.479C82.1978 65.3228 81.9281 65.1389 81.6839 64.9304C81.515 64.7365 80.2447 64.2779 79.9151 64.4954C79.5854 64.7129 79.3389 66.4744 79.7704 66.5571C80.3724 66.6219 80.9805 66.6314 81.5847 66.5855C81.7819 66.5328 81.973 66.4639 82.1556 66.3798L83.8011 66.8148L84.1173 65.6374Z" fill="#263238"/>
<path d="M92.3957 61.6345C92.3957 61.6345 87.6923 65.4009 87.2153 65.5783C86.7382 65.7556 82.8254 65.2071 82.8254 65.2071L82.3457 66.7321C82.3457 66.7321 86.2076 67.9474 87.1081 68.1814C88.0085 68.4155 93.3015 65.2354 93.3015 65.2354C93.3015 65.2354 94.2878 62.7127 92.3957 61.6345Z" fill="#263238"/>
<path opacity="0.4" d="M92.3957 61.6345C92.3957 61.6345 87.6923 65.4009 87.2153 65.5783C86.7382 65.7556 82.8254 65.2071 82.8254 65.2071L82.3457 66.7321C82.3457 66.7321 86.2076 67.9474 87.1081 68.1814C88.0085 68.4155 93.3015 65.2354 93.3015 65.2354C93.3015 65.2354 94.2878 62.7127 92.3957 61.6345Z" fill="white"/>
</svg>
