<svg width="116" height="78" viewBox="0 0 116 78" fill="none" xmlns="http://www.w3.org/2000/svg">
<path d="M20.2614 10.5706C20.3526 9.90289 19.42 9.35377 18.7147 9.29761C18.3806 9.26953 18.0326 9.32101 17.7156 9.21025C17.0289 8.96845 16.7551 8.07301 16.0838 7.78909C15.5843 7.57537 15.0012 7.76569 14.5217 8.01217C14.0422 8.25865 13.555 8.56909 13.0137 8.60341C12.5404 8.63461 12.0285 8.45677 11.6217 8.68921C11.3124 8.86393 11.1577 9.22117 10.87 9.43177C10.5823 9.64237 10.2297 9.68137 9.88635 9.70009C9.54299 9.71881 9.18416 9.72349 8.87174 9.86857C8.55931 10.0137 8.29792 10.3475 8.36443 10.6891L20.2614 10.5706Z" fill="#EBEBEB"/>
<path d="M93.5135 9.07453C93.6047 8.40685 92.6706 7.85773 91.9668 7.80001C91.6327 7.77349 91.2847 7.82497 90.9692 7.71421C90.2825 7.47241 90.0072 6.57697 89.3375 6.29149C88.8364 6.07933 88.2548 6.26809 87.7738 6.51457C87.2928 6.76105 86.8087 7.07149 86.2658 7.10737C85.8018 7.13701 85.2806 6.96073 84.8738 7.19317C84.5645 7.36633 84.4098 7.72513 84.1221 7.93573C83.8344 8.14633 83.4834 8.18533 83.1385 8.20405C82.7935 8.22277 82.4378 8.22745 82.1238 8.37097C81.8099 8.51449 81.5516 8.85145 81.6165 9.19153L93.5135 9.07453Z" fill="#EBEBEB"/>
<path d="M46.1219 26.7868C46.1838 26.3359 45.5527 25.9631 45.0779 25.9256C44.8505 25.9069 44.6139 25.9412 44.4004 25.8664C43.9364 25.7026 43.7508 25.0973 43.2977 24.9038C42.9574 24.7603 42.5676 24.8882 42.2382 25.0598C41.9088 25.2314 41.5855 25.4374 41.2174 25.4608C40.8988 25.481 40.5523 25.3609 40.2724 25.5185C40.0636 25.637 39.9553 25.8788 39.7635 26.0208C39.5636 26.1456 39.332 26.209 39.0969 26.2033C38.8631 26.1977 38.6303 26.2357 38.4102 26.3156C38.3012 26.3589 38.2089 26.4364 38.147 26.5367C38.0852 26.6371 38.0571 26.7548 38.0668 26.8726L46.1219 26.7868Z" fill="#F5F5F5"/>
<path d="M109.89 17.7949C109.951 17.3441 109.32 16.9728 108.845 16.9338C108.617 16.9151 108.381 16.951 108.169 16.8745C107.705 16.7185 107.518 16.1054 107.065 15.912C106.726 15.7685 106.335 15.8964 106.007 16.068C105.679 16.2396 105.352 16.4455 104.986 16.4689C104.666 16.4892 104.319 16.3706 104.039 16.5282C103.831 16.6452 103.73 16.887 103.531 17.0305C103.33 17.1542 103.099 17.2171 102.864 17.2115C102.63 17.2058 102.397 17.2445 102.177 17.3254C102.068 17.3685 101.976 17.4458 101.914 17.5458C101.853 17.6458 101.824 17.7633 101.834 17.8807L109.89 17.7949Z" fill="#F5F5F5"/>
<path d="M112.932 51.9246H62.9062C60.281 51.9246 57.7632 50.8727 55.9068 49.0004C54.0505 47.128 53.0076 44.5885 53.0076 41.9406V21.6528C53.0072 21.0632 52.7749 20.4979 52.3617 20.0808C51.9485 19.6638 51.3881 19.4291 50.8036 19.4282H33.0741C32.6932 19.4287 32.328 19.5815 32.0586 19.8532C31.7892 20.1249 31.6377 20.4933 31.6373 20.8775V28.3827C31.6344 30.7622 30.6955 33.0435 29.0267 34.7255C27.3578 36.4076 25.0955 37.353 22.7362 37.3542H5.7832V29.8319H22.7362C23.1172 29.8315 23.4824 29.6787 23.7518 29.407C24.0211 29.1353 24.1727 28.7669 24.1731 28.3827V20.8775C24.1759 18.499 25.114 16.2187 26.7815 14.5368C28.449 12.855 30.7098 11.9088 33.0679 11.9059H50.8082C53.3709 11.9076 55.8283 12.9349 57.6407 14.7624C59.4531 16.5898 60.4724 19.068 60.4749 21.6528V41.9469C60.4761 42.598 60.7332 43.222 61.1898 43.6823C61.6464 44.1426 62.2653 44.4015 62.9109 44.4023H112.932V51.9246Z" fill="#EBEBEB"/>
<path d="M35.7281 20.8697C35.4901 20.8693 35.2619 20.7736 35.0937 20.6037C34.9255 20.4337 34.8311 20.2034 34.8311 19.9633V10.6689C34.8311 10.4289 34.9256 10.1987 35.0938 10.0291C35.262 9.85938 35.4902 9.76405 35.7281 9.76405C35.9662 9.76405 36.1945 9.85933 36.363 10.029C36.5315 10.1986 36.6263 10.4287 36.6267 10.6689V19.968C36.6255 20.2076 36.5303 20.4369 36.3619 20.6059C36.1935 20.7748 35.9656 20.8697 35.7281 20.8697Z" fill="#E0E0E0"/>
<path d="M33.3032 24.804C33.3032 25.044 33.2087 25.2741 33.0405 25.4438C32.8722 25.6135 32.6441 25.7088 32.4061 25.7088H23.1911C22.953 25.7088 22.7247 25.6135 22.5562 25.4439C22.3877 25.2742 22.2929 25.0441 22.2925 24.804C22.2925 24.6851 22.3157 24.5673 22.3609 24.4574C22.4061 24.3475 22.4723 24.2477 22.5558 24.1637C22.6392 24.0796 22.7383 24.013 22.8473 23.9676C22.9563 23.9222 23.0732 23.899 23.1911 23.8992H32.4061C32.6441 23.8992 32.8722 23.9945 33.0405 24.1642C33.2087 24.3339 33.3032 24.564 33.3032 24.804Z" fill="#E0E0E0"/>
<path d="M17.0753 39.5663C16.8374 39.5663 16.6092 39.471 16.441 39.3013C16.2727 39.1316 16.1782 38.9015 16.1782 38.6615V29.367C16.1782 29.1269 16.2727 28.8966 16.4409 28.7267C16.6091 28.5567 16.8372 28.4611 17.0753 28.4606C17.1932 28.4606 17.31 28.4841 17.4189 28.5297C17.5279 28.5752 17.6268 28.642 17.7102 28.7262C17.7935 28.8104 17.8595 28.9103 17.9045 29.0203C17.9495 29.1302 17.9726 29.2481 17.9724 29.367V38.6615C17.9724 38.9015 17.8778 39.1316 17.7096 39.3013C17.5414 39.471 17.3132 39.5663 17.0753 39.5663Z" fill="#E0E0E0"/>
<path d="M61.7275 25.4888C61.7275 25.729 61.6331 25.9593 61.4649 26.1292C61.2967 26.2991 61.0685 26.3948 60.8304 26.3952H51.6154C51.3771 26.3952 51.1485 26.2997 50.98 26.1297C50.8115 25.9598 50.7168 25.7292 50.7168 25.4888C50.7172 25.2487 50.8121 25.0186 50.9805 24.849C51.149 24.6793 51.3774 24.584 51.6154 24.584H60.8304C60.9483 24.584 61.0649 24.6074 61.1737 24.6529C61.2826 24.6984 61.3815 24.765 61.4648 24.8491C61.5481 24.9331 61.6142 25.0328 61.6592 25.1426C61.7043 25.2524 61.7275 25.37 61.7275 25.4888Z" fill="#E0E0E0"/>
<path d="M61.7275 40.7566C61.7275 40.9967 61.6331 41.227 61.4649 41.3969C61.2967 41.5668 61.0685 41.6625 60.8304 41.6629H51.6154C51.3771 41.6629 51.1485 41.5674 50.98 41.3975C50.8115 41.2275 50.7168 40.997 50.7168 40.7566C50.7172 40.5165 50.8121 40.2863 50.9805 40.1167C51.149 39.9471 51.3774 39.8518 51.6154 39.8518H60.8304C60.9483 39.8518 61.0649 39.8752 61.1737 39.9206C61.2826 39.9661 61.3815 40.0328 61.4648 40.1168C61.5481 40.2008 61.6142 40.3005 61.6592 40.4103C61.7043 40.5201 61.7275 40.6378 61.7275 40.7566Z" fill="#E0E0E0"/>
<path d="M86.8629 42.368C86.9807 42.3678 87.0975 42.3911 87.2064 42.4365C87.3153 42.4819 87.4143 42.5485 87.4977 42.6326C87.581 42.7167 87.6471 42.8165 87.6921 42.9263C87.7371 43.0362 87.7602 43.154 87.76 43.2728V52.572C87.7602 52.6909 87.7371 52.8086 87.6921 52.9185C87.6471 53.0284 87.581 53.1282 87.4977 53.2123C87.4143 53.2963 87.3153 53.3629 87.2064 53.4083C87.0975 53.4537 86.9807 53.477 86.8629 53.4768C86.625 53.4768 86.3968 53.3815 86.2286 53.2118C86.0603 53.0421 85.9658 52.812 85.9658 52.572V43.2728C85.9658 43.0329 86.0603 42.8027 86.2286 42.6331C86.3968 42.4634 86.625 42.368 86.8629 42.368Z" fill="#E0E0E0"/>
<path d="M104.927 42.368C105.165 42.368 105.393 42.4634 105.562 42.6331C105.73 42.8027 105.824 43.0329 105.824 43.2728V52.572C105.824 52.812 105.73 53.0421 105.562 53.2118C105.393 53.3815 105.165 53.4768 104.927 53.4768C104.809 53.477 104.693 53.4537 104.584 53.4083C104.475 53.3629 104.376 53.2963 104.293 53.2123C104.209 53.1282 104.143 53.0284 104.098 52.9185C104.053 52.8086 104.03 52.6909 104.03 52.572V43.2728C104.03 43.154 104.053 43.0362 104.098 42.9263C104.143 42.8165 104.209 42.7167 104.293 42.6326C104.376 42.5485 104.475 42.4819 104.584 42.4365C104.693 42.3911 104.809 42.3678 104.927 42.368Z" fill="#E0E0E0"/>
<path d="M49.8199 21.216C49.7021 21.216 49.5855 21.1926 49.4766 21.1471C49.3678 21.1017 49.2689 21.035 49.1856 20.951C49.1023 20.867 49.0362 20.7672 48.9911 20.6575C48.9461 20.5477 48.9229 20.43 48.9229 20.3112V11.0167C48.9226 10.8978 48.9457 10.7801 48.9907 10.6702C49.0357 10.5604 49.1018 10.4605 49.1851 10.3765C49.2685 10.2924 49.3675 10.2258 49.4764 10.1804C49.5853 10.135 49.7021 10.1117 49.8199 10.1119C50.0578 10.1119 50.286 10.2073 50.4542 10.3769C50.6225 10.5466 50.717 10.7768 50.717 11.0167V20.3112C50.717 20.43 50.6938 20.5477 50.6487 20.6575C50.6036 20.7672 50.5375 20.867 50.4542 20.951C50.3709 21.035 50.272 21.1017 50.1632 21.1471C50.0544 21.1926 49.9377 21.216 49.8199 21.216Z" fill="#E0E0E0"/>
<path d="M112.568 73.632C112.568 73.6554 88.1307 73.6726 58.0032 73.6726C27.8757 73.6726 3.43213 73.6492 3.43213 73.632C3.43213 73.6148 27.8602 73.5914 58.0032 73.5914C88.1462 73.5914 112.568 73.6039 112.568 73.632Z" fill="#263238"/>
<path d="M103.204 63.6932C103.428 63.8006 103.628 63.9528 103.793 64.1404C103.957 64.3281 104.082 64.5475 104.16 64.7852C104.313 65.2615 104.356 65.7668 104.287 66.2626C104.178 67.222 103.638 68.1907 103.057 68.9567C102.256 68.2516 102.072 67.0223 102.018 66.392C101.931 65.3983 102.373 63.5466 103.204 63.6948" fill="#407BFF"/>
<path d="M103.988 70.5385C103.933 70.2645 103.951 69.9807 104.04 69.716C104.129 69.4513 104.286 69.2151 104.496 69.0316C104.708 68.8504 104.954 68.7141 105.22 68.6308C105.486 68.5474 105.765 68.5187 106.042 68.5464C106.297 68.5651 106.573 68.64 106.718 68.8584C106.781 68.9613 106.815 69.0793 106.817 69.2001C106.819 69.3209 106.788 69.44 106.729 69.5448C106.608 69.754 106.434 69.9273 106.225 70.0471C105.53 70.4855 104.78 70.7819 103.996 70.5448" fill="#407BFF"/>
<path d="M102.961 73.476C102.964 73.4097 102.973 73.3438 102.989 73.2794C103.014 73.1406 103.046 72.9674 103.086 72.7459C103.175 72.1531 103.359 71.5788 103.631 71.0455C103.913 70.5119 104.331 70.0639 104.842 69.7476C104.997 69.655 105.163 69.5812 105.335 69.5276C105.382 69.5119 105.429 69.4994 105.477 69.4902C105.51 69.4902 105.527 69.4808 105.528 69.4902C105.298 69.5709 105.076 69.6755 104.866 69.8022C104.373 70.1248 103.969 70.568 103.691 71.0907C103.424 71.6195 103.237 72.1851 103.134 72.7693C103.085 72.9924 103.046 73.1733 103.015 73.2966C103.001 73.3575 102.983 73.4174 102.961 73.476Z" fill="#263238"/>
<path d="M102.991 65.1331C102.998 65.1611 103.001 65.19 103 65.2189C103 65.2829 103.01 65.364 103.016 65.4654C103.027 65.6807 103.039 65.9911 103.051 66.3764C103.076 67.144 103.096 68.2063 103.09 69.3794C103.084 70.5526 103.058 71.6149 103.025 72.384C103.01 72.7678 102.996 73.0782 102.982 73.2935C102.982 73.3949 102.969 73.476 102.965 73.54C102.965 73.5689 102.961 73.5977 102.954 73.6258C102.952 73.5972 102.952 73.5685 102.954 73.54C102.954 73.4755 102.954 73.3928 102.954 73.2919C102.954 73.0688 102.966 72.76 102.976 72.3824C102.994 71.6134 103.014 70.5526 103.02 69.3794C103.027 68.2063 103.013 67.1455 103 66.3764C103 65.9989 102.991 65.69 102.986 65.467C102.986 65.3656 102.986 65.2829 102.986 65.2189C102.986 65.1902 102.987 65.1616 102.991 65.1331Z" fill="#263238"/>
<path d="M102.602 71.122C102.505 70.5404 102.272 69.9906 101.923 69.518C101.573 69.0455 101.117 68.6637 100.592 68.4044C100.324 68.2749 99.973 68.1907 99.7549 68.392C99.5368 68.5932 99.5848 68.9535 99.6931 69.2328C99.928 69.8121 100.328 70.3082 100.842 70.6586C101.356 71.009 101.962 71.1979 102.582 71.2015" fill="#407BFF"/>
<path d="M100.723 69.3139C100.781 69.334 100.838 69.359 100.893 69.3888C100.959 69.4193 101.023 69.4542 101.085 69.4933C101.169 69.5408 101.251 69.5928 101.329 69.6493C101.426 69.7145 101.52 69.7853 101.609 69.8615C101.714 69.9463 101.814 70.0375 101.908 70.1345C102.347 70.5749 102.671 71.1176 102.853 71.7147C102.892 71.8444 102.923 71.9761 102.947 72.1094C102.969 72.2249 102.985 72.3416 102.995 72.4589C103.009 72.5665 103.004 72.6648 103.009 72.749C103.011 72.8224 103.009 72.8959 103.001 72.969C103.001 73.0314 102.994 73.0936 102.981 73.1546C102.965 73.1546 102.993 72.8879 102.945 72.4635C102.933 72.3482 102.914 72.2336 102.89 72.1203C102.864 71.9896 102.832 71.8605 102.792 71.7335C102.698 71.4432 102.574 71.1639 102.421 70.9004C102.263 70.6401 102.078 70.3975 101.869 70.1766C101.777 70.0806 101.681 69.9895 101.58 69.9036C101.493 69.8271 101.403 69.7553 101.309 69.6883C100.958 69.4387 100.717 69.3279 100.723 69.3139Z" fill="#263238"/>
<path d="M50.2344 61.0896L52.5173 63.531V73.6258H54.9641V63.531L57.3444 61.1957L50.2344 61.0896Z" fill="#E0E0E0"/>
<path d="M50.2344 61.0896L57.349 61.1645H57.4264L57.3707 61.2191L54.9919 63.5591L55.0027 63.5326C55.0027 65.8632 55.0027 68.498 55.0027 71.278C55.0027 72.0736 55.0027 72.8598 55.0027 73.6273V73.6679H52.4786V73.632C52.4786 69.4855 52.491 65.935 52.4941 63.5372V63.5528L50.2344 61.0896L52.5343 63.5154V63.5248C52.5343 65.9225 52.5435 69.473 52.5497 73.6195L52.5111 73.5805H54.9579L54.9177 73.6211V71.2764C54.9177 68.4965 54.9177 65.8616 54.9177 63.531V63.5154L54.9285 63.5045L57.3135 61.1723L57.3351 61.2284L50.2344 61.0896Z" fill="#263238"/>
<path d="M54.9641 63.5637C54.5556 63.6048 54.1448 63.6184 53.7345 63.6043C53.3242 63.6184 52.9134 63.6048 52.5049 63.5637C52.9135 63.5236 53.3242 63.5101 53.7345 63.5232C54.1448 63.5101 54.5555 63.5236 54.9641 63.5637Z" fill="#263238"/>
<path d="M73.0847 61.6699H72.9872L2.4917 60.9741L2.60151 48.438L69.136 49.0963C69.4138 49.0988 69.6893 49.0457 69.9467 48.9402C70.204 48.8347 70.4381 48.6788 70.6354 48.4816C70.8327 48.2843 70.9893 48.0496 71.0962 47.791C71.203 47.5323 71.258 47.2549 71.258 46.9747V37.4088C71.258 36.0032 71.5325 34.6114 72.0658 33.3129C72.5991 32.0143 73.3807 30.8344 74.3661 29.8405C76.3562 27.8333 79.0553 26.7056 81.8697 26.7056H113.508V39.2433H85.7952C85.519 39.2433 85.2456 39.2982 84.9904 39.4049C84.7353 39.5115 84.5035 39.6678 84.3083 39.8648C84.1131 40.0619 83.9583 40.2958 83.8528 40.5532C83.7473 40.8106 83.693 41.0864 83.6932 41.3649V50.9667C83.6932 53.8049 82.5757 56.5268 80.5863 58.5339C78.5968 60.5411 75.8985 61.6691 73.0847 61.6699Z" fill="#455A64"/>
<path d="M19.2961 62.4842C19.0746 62.4842 18.8622 62.3955 18.7056 62.2375C18.5489 62.0795 18.4609 61.8653 18.4609 61.6418V48.764C18.4609 48.5405 18.5489 48.326 18.7055 48.1678C18.8621 48.0096 19.0745 47.9205 19.2961 47.9201C19.406 47.9201 19.5148 47.9419 19.6163 47.9843C19.7179 48.0267 19.8101 48.0889 19.8878 48.1673C19.9655 48.2456 20.0271 48.3387 20.0692 48.4411C20.1112 48.5435 20.1329 48.6532 20.1329 48.764V61.6418C20.1325 61.8654 20.0441 62.0797 19.8873 62.2376C19.7304 62.3955 19.5178 62.4842 19.2961 62.4842Z" fill="#455A64"/>
<path d="M19.2962 62.4842C19.4022 62.4792 19.5066 62.4571 19.6056 62.4187C19.7425 62.3621 19.862 62.2696 19.9517 62.1509C20.0414 62.0322 20.0981 61.8914 20.116 61.7432C20.1252 60.9632 20.116 59.8213 20.116 58.4173C20.116 57.0133 20.116 55.3394 20.116 53.483C20.116 52.5548 20.116 51.5798 20.116 50.569V49.0277C20.1194 48.8986 20.1158 48.7695 20.1051 48.6408C20.087 48.5162 20.0392 48.3979 19.9659 48.296C19.874 48.1664 19.7458 48.0674 19.5978 48.0116C19.4498 47.9558 19.2886 47.9458 19.1349 47.9828C18.9812 48.0198 18.8419 48.1021 18.7349 48.2193C18.6278 48.3365 18.5578 48.4833 18.5337 48.6408C18.5228 48.7689 18.5197 48.8976 18.5244 49.0261C18.5244 49.5461 18.5244 50.0599 18.5244 50.5674C18.5244 51.5783 18.5244 52.5533 18.5244 53.483C18.5244 55.3394 18.5244 57.0118 18.5152 58.4189C18.5059 59.826 18.4997 60.9617 18.5152 61.7432C18.5328 61.8917 18.5896 62.0327 18.6797 62.1515C18.7697 62.2703 18.8897 62.3626 19.0271 62.4187C19.1261 62.4572 19.2305 62.4793 19.3364 62.4842H19.2576C19.1791 62.4792 19.1018 62.4618 19.0287 62.4328C18.9103 62.387 18.8044 62.3138 18.7193 62.219C18.5988 62.0902 18.5215 61.9265 18.4982 61.751C18.4796 60.9617 18.4858 59.8276 18.478 58.422C18.4703 57.0164 18.478 55.3426 18.478 53.4862C18.478 52.5502 18.478 51.5814 18.478 50.5705V49.0292C18.474 48.8965 18.4776 48.7637 18.4889 48.6314C18.5088 48.4937 18.5619 48.363 18.6435 48.2508C18.7244 48.1368 18.8311 48.0439 18.9547 47.9798C19.0783 47.9157 19.2153 47.8823 19.3542 47.8823C19.4932 47.8823 19.6302 47.9157 19.7538 47.9798C19.8774 48.0439 19.9841 48.1368 20.0649 48.2508C20.1459 48.3628 20.1989 48.4928 20.2196 48.6299C20.2308 48.7627 20.2344 48.896 20.2304 49.0292C20.2304 49.5503 20.2304 50.0651 20.2304 50.5705C20.2304 51.5814 20.2304 52.5564 20.2304 53.4846C20.2304 55.341 20.2304 57.0133 20.2211 58.4189C20.2119 59.8244 20.2211 60.9601 20.201 61.7495C20.1782 61.9248 20.1014 62.0885 19.9814 62.2175C19.8964 62.3122 19.7904 62.3854 19.6721 62.4312C19.5988 62.46 19.5216 62.4774 19.4432 62.4827L19.2962 62.4842Z" fill="#263238"/>
<path d="M85.4225 42.9C85.3681 42.9963 85.2954 43.0809 85.2085 43.1487C85.1216 43.2166 85.0222 43.2665 84.9161 43.2955C84.81 43.3245 84.6993 43.332 84.5903 43.3177C84.4813 43.3034 84.3762 43.2674 84.2811 43.212L70.6828 35.2903C70.5874 35.2353 70.5037 35.1619 70.4366 35.0742C70.3694 34.9865 70.32 34.8863 70.2913 34.7794C70.2626 34.6725 70.255 34.5608 70.2691 34.451C70.2832 34.3411 70.3187 34.2351 70.3734 34.139C70.428 34.0428 70.5008 33.9585 70.5877 33.8907C70.6746 33.8229 70.7739 33.7732 70.88 33.7442C70.986 33.7152 71.0967 33.7076 71.2056 33.7218C71.3146 33.736 71.4196 33.7718 71.5149 33.827L85.1101 41.744C85.2063 41.7988 85.2908 41.8722 85.3587 41.9602C85.4266 42.0481 85.4765 42.1487 85.5056 42.2562C85.5346 42.3637 85.5423 42.476 85.528 42.5865C85.5137 42.697 85.4779 42.8036 85.4225 42.9Z" fill="#455A64"/>
<path d="M85.4223 42.9C85.4786 42.7892 85.5127 42.6684 85.5229 42.5443C85.5321 42.4215 85.5138 42.2981 85.4693 42.1833C85.4249 42.0686 85.3554 41.9654 85.2661 41.8813C85.1852 41.809 85.0952 41.7477 84.9986 41.6988L81.5959 39.7285L76.5476 36.7988L73.5671 35.0672L71.9911 34.15L71.5905 33.916C71.4669 33.8286 71.3231 33.7749 71.1729 33.76C71.0237 33.7479 70.8743 33.7787 70.7417 33.8487C70.6091 33.9187 70.4989 34.025 70.4237 34.1555C70.3485 34.286 70.3114 34.4353 70.3167 34.5861C70.322 34.7369 70.3695 34.8832 70.4537 35.008C70.5405 35.1316 70.6571 35.2309 70.7924 35.2966L71.1946 35.5306L72.7706 36.4494L75.7479 38.1857L80.7885 41.131L84.1912 43.1231C84.2818 43.1826 84.3795 43.2303 84.482 43.265C84.5726 43.2929 84.6673 43.3045 84.7619 43.2994C84.9113 43.291 85.0556 43.2419 85.1795 43.1574C85.276 43.088 85.3584 43.0006 85.4223 42.9C85.408 42.9285 85.392 42.9561 85.3744 42.9827C85.3199 43.0594 85.2529 43.1264 85.1764 43.1808C85.0513 43.2707 84.9043 43.3246 84.7511 43.3368C84.6536 43.3445 84.5555 43.334 84.4619 43.3056C84.3565 43.2719 84.2561 43.2242 84.1634 43.1636L80.7607 41.1949L75.7108 38.2637L72.7304 36.5321L71.1466 35.6086L70.7445 35.3746C70.599 35.3027 70.4736 35.1955 70.3795 35.0626C70.285 34.9251 70.2312 34.7634 70.2244 34.5963C70.2176 34.4292 70.2581 34.2636 70.3411 34.1188C70.4241 33.9741 70.5463 33.8561 70.6933 33.7787C70.8403 33.7014 71.0061 33.6678 71.1714 33.682C71.3324 33.6954 71.4876 33.7491 71.623 33.838L72.0236 34.072L73.5996 34.9892L76.577 36.7271L81.616 39.6708L85.0109 41.6629C85.1095 41.7141 85.2011 41.7781 85.2831 41.8532C85.3533 41.9219 85.4113 42.0021 85.4548 42.0904C85.5216 42.2294 85.5499 42.3841 85.5368 42.5381C85.5274 42.6318 85.5034 42.7234 85.4657 42.8095C85.4534 42.8407 85.4389 42.8709 85.4223 42.9Z" fill="#263238"/>
<path d="M102.185 40.2371C101.964 40.2371 101.751 40.1484 101.594 39.9904C101.437 39.8325 101.349 39.6182 101.349 39.3947V26.52C101.349 26.2962 101.437 26.0815 101.594 25.9232C101.751 25.7649 101.963 25.676 102.185 25.676C102.407 25.6764 102.619 25.7655 102.776 25.9238C102.933 26.082 103.021 26.2964 103.021 26.52V39.3978C103.02 39.6207 102.931 39.8341 102.775 39.9914C102.618 40.1487 102.406 40.2371 102.185 40.2371Z" fill="#455A64"/>
<path d="M102.185 40.2371C102.291 40.232 102.395 40.2099 102.494 40.1716C102.632 40.1154 102.752 40.0231 102.842 39.9043C102.932 39.7855 102.989 39.6445 103.006 39.4961C103.006 38.7161 103.006 37.5742 103.006 36.1717C103.006 34.7693 103.006 33.0923 102.997 31.2359C102.997 30.3077 102.997 29.3327 102.997 28.3218C102.997 27.8164 102.997 27.3016 102.997 26.7805C103.002 26.6515 102.999 26.5223 102.988 26.3936C102.968 26.2691 102.92 26.151 102.847 26.0489C102.773 25.9455 102.676 25.8613 102.564 25.8032C102.452 25.745 102.327 25.7147 102.201 25.7147C102.075 25.7147 101.951 25.745 101.838 25.8032C101.726 25.8613 101.629 25.9455 101.556 26.0489C101.482 26.1512 101.434 26.2701 101.416 26.3952C101.405 26.5233 101.401 26.652 101.405 26.7805C101.405 27.3005 101.405 27.8148 101.405 28.3234C101.405 29.3327 101.405 30.3092 101.405 31.2374C101.405 33.0938 101.405 34.7677 101.396 36.1733C101.387 37.5788 101.382 38.7176 101.396 39.4976C101.414 39.6458 101.471 39.7866 101.56 39.9053C101.65 40.024 101.77 40.1165 101.907 40.1731C102.006 40.2115 102.11 40.2336 102.216 40.2386H102.136C102.057 40.2319 101.98 40.2146 101.907 40.1871C101.789 40.1402 101.683 40.0665 101.597 39.9719C101.477 39.8428 101.4 39.6793 101.376 39.5039C101.358 38.7145 101.364 37.5804 101.358 36.1748C101.351 34.7693 101.358 33.0954 101.348 31.239C101.348 30.3108 101.348 29.3342 101.348 28.3249V26.7821C101.344 26.6494 101.348 26.5166 101.359 26.3843C101.38 26.2468 101.433 26.1164 101.514 26.0036C101.595 25.8896 101.701 25.7967 101.825 25.7326C101.948 25.6685 102.085 25.6351 102.224 25.6351C102.363 25.6351 102.5 25.6685 102.624 25.7326C102.748 25.7967 102.854 25.8896 102.935 26.0036C103.017 26.1153 103.07 26.2455 103.09 26.3827C103.101 26.5155 103.105 26.6489 103.101 26.7821V28.3234C103.101 29.3342 103.101 30.3092 103.101 31.2374C103.101 33.0938 103.101 34.7662 103.093 36.1733C103.085 37.5804 103.093 38.713 103.073 39.5023C103.049 39.6776 102.972 39.8411 102.852 39.9703C102.766 40.065 102.66 40.1386 102.542 40.1856C102.469 40.213 102.392 40.2303 102.313 40.2371H102.185Z" fill="#263238"/>
<path d="M63.1644 62.4842C62.9427 62.4842 62.7301 62.3955 62.5733 62.2376C62.4164 62.0797 62.328 61.8654 62.3276 61.6418V48.764C62.3276 48.5402 62.4158 48.3255 62.5727 48.1673C62.7296 48.009 62.9425 47.9201 63.1644 47.9201C63.386 47.9205 63.5985 48.0096 63.7551 48.1678C63.9116 48.326 63.9996 48.5405 63.9996 48.764V61.6418C63.9996 61.8653 63.9116 62.0795 63.755 62.2375C63.5983 62.3955 63.3859 62.4842 63.1644 62.4842Z" fill="#455A64"/>
<path d="M63.1644 62.4842C63.2677 62.4785 63.3695 62.4564 63.466 62.4187C63.6034 62.3626 63.7234 62.2703 63.8134 62.1515C63.9035 62.0327 63.9603 61.8917 63.9779 61.7432C63.9872 60.9632 63.9779 59.8213 63.9779 58.4173C63.9779 57.0133 63.9779 55.3394 63.9687 53.483C63.9687 52.5548 63.9687 51.5798 63.9687 50.569V49.0277C63.9721 48.8986 63.9685 48.7694 63.9578 48.6408C63.9397 48.5162 63.8919 48.3979 63.8186 48.296C63.745 48.1926 63.6481 48.1084 63.5358 48.0503C63.4235 47.9922 63.2991 47.9619 63.1729 47.9619C63.0467 47.9619 62.9223 47.9922 62.81 48.0503C62.6977 48.1084 62.6008 48.1926 62.5272 48.296C62.4531 48.3982 62.4048 48.5171 62.3864 48.6424C62.3757 48.7705 62.3721 48.8991 62.3756 49.0277V50.569C62.3756 51.5798 62.3756 52.5548 62.3756 53.4846C62.3756 55.341 62.3756 57.0133 62.3679 58.4204C62.3601 59.8275 62.3524 60.9632 62.3679 61.7448C62.3857 61.893 62.4424 62.0337 62.5321 62.1525C62.6218 62.2712 62.7413 62.3636 62.8783 62.4203C62.9772 62.4587 63.0817 62.4808 63.1876 62.4858H63.1072C63.0292 62.4806 62.9525 62.4632 62.8798 62.4343C62.7614 62.3888 62.6554 62.3155 62.5705 62.2206C62.4504 62.0917 62.3736 61.9279 62.3508 61.7526C62.3307 60.9632 62.3369 59.8291 62.3307 58.4236C62.3245 57.018 62.3307 55.3441 62.3215 53.4877C62.3215 52.5517 62.3215 51.5829 62.3215 50.5721C62.3215 50.0666 62.3215 49.5529 62.3215 49.0308C62.3172 48.8981 62.3213 48.7652 62.3338 48.633C62.3544 48.4954 62.4074 48.3649 62.4885 48.2524C62.5695 48.1383 62.6763 48.0454 62.8001 47.9814C62.9238 47.9173 63.0609 47.8839 63.2 47.8839C63.339 47.8839 63.4761 47.9173 63.5999 47.9814C63.7236 48.0454 63.8304 48.1383 63.9114 48.2524C63.9931 48.364 64.0462 48.4942 64.0661 48.6314C64.0773 48.7642 64.0809 48.8976 64.0769 49.0308V50.5721C64.0769 51.5829 64.0769 52.5579 64.0769 53.4861C64.0769 55.3425 64.0769 57.0149 64.0769 58.4204C64.0769 59.826 64.0769 60.9617 64.0568 61.751C64.0335 61.9265 63.9561 62.0902 63.8356 62.219C63.7509 62.3141 63.6448 62.3874 63.5263 62.4327C63.4531 62.4618 63.3759 62.4792 63.2974 62.4842H63.1644Z" fill="#263238"/>
<path d="M45.2908 62.4842C45.0692 62.4842 44.8566 62.3955 44.6997 62.2376C44.5428 62.0797 44.4545 61.8654 44.4541 61.6418V48.764C44.4541 48.5402 44.5423 48.3255 44.6992 48.1673C44.8561 48.009 45.0689 47.9201 45.2908 47.9201C45.5125 47.9205 45.7249 48.0096 45.8815 48.1678C46.0381 48.326 46.126 48.5405 46.126 48.764V61.6418C46.126 61.8653 46.0381 62.0795 45.8814 62.2375C45.7248 62.3955 45.5124 62.4842 45.2908 62.4842Z" fill="#455A64"/>
<path d="M45.2909 62.4842C45.3942 62.4784 45.496 62.4562 45.5925 62.4187C45.7299 62.3626 45.8499 62.2703 45.9399 62.1515C46.03 62.0327 46.0868 61.8917 46.1044 61.7432C46.1122 60.9632 46.1044 59.8213 46.1044 58.4173C46.1044 57.0133 46.1044 55.3394 46.0952 53.483C46.0952 52.5548 46.0952 51.5798 46.0952 50.569C46.0952 50.0635 46.0952 49.5487 46.0952 49.0277C46.0999 48.8986 46.0968 48.7694 46.0859 48.6408C46.0562 48.4519 45.9608 48.2797 45.8169 48.1551C45.673 48.0305 45.4898 47.9616 45.3002 47.9606C45.174 47.9612 45.0497 47.9918 44.9374 48.0498C44.8251 48.1077 44.7279 48.1916 44.6537 48.2945C44.5801 48.3968 44.5324 48.5157 44.5145 48.6408C44.503 48.7689 44.4994 48.8976 44.5036 49.0261C44.5036 49.5461 44.5036 50.0599 44.5036 50.5674C44.5036 51.5783 44.5036 52.5533 44.5036 53.483C44.5036 55.3394 44.5036 57.0118 44.4944 58.4189C44.4851 59.826 44.4804 60.9617 44.4944 61.7432C44.5122 61.8914 44.5689 62.0322 44.6586 62.1509C44.7483 62.2696 44.8678 62.3621 45.0048 62.4187C45.1037 62.4571 45.2082 62.4792 45.3141 62.4842H45.2337C45.1552 62.4789 45.078 62.4615 45.0048 62.4328C44.8865 62.387 44.7805 62.3138 44.6954 62.219C44.5755 62.0898 44.4983 61.9263 44.4743 61.751C44.4557 60.9617 44.4619 59.8276 44.4557 58.422C44.4495 57.0164 44.4557 55.3426 44.4464 53.4862C44.4464 52.5502 44.4464 51.5814 44.4464 50.5705V49.0292C44.4424 48.8965 44.446 48.7637 44.4572 48.6314C44.4779 48.4939 44.5309 48.3634 44.6119 48.2508C44.6928 48.1368 44.7994 48.0439 44.923 47.9798C45.0466 47.9157 45.1836 47.8823 45.3226 47.8823C45.4616 47.8823 45.5986 47.9157 45.7222 47.9798C45.8458 48.0439 45.9524 48.1368 46.0333 48.2508C46.1149 48.3624 46.168 48.4926 46.188 48.6299C46.1992 48.7627 46.2028 48.896 46.1988 49.0292V50.5705C46.1988 51.5814 46.1988 52.5564 46.1988 53.4846C46.1988 55.341 46.1988 57.0133 46.1911 58.4189C46.1833 59.8244 46.1911 60.9601 46.1709 61.7495C46.1469 61.9248 46.0697 62.0883 45.9498 62.2175C45.8647 62.3122 45.7588 62.3854 45.6404 62.4312C45.5672 62.46 45.49 62.4774 45.4115 62.4827L45.2909 62.4842Z" fill="#263238"/>
<g opacity="0.3">
<path d="M73.7759 35.2872C73.7759 35.2872 79.6176 36.2435 84.6907 41.4819L73.7759 35.2872Z" fill="black"/>
</g>
<g opacity="0.3">
<path d="M63.9995 49.1915C63.9995 49.1915 66.038 54.795 63.9995 61.8275V49.1915Z" fill="black"/>
</g>
<g opacity="0.3">
<path d="M46.1528 49.1915C46.1528 49.1915 48.1634 54.3769 46.1265 61.4047L46.1528 49.1915Z" fill="black"/>
</g>
<g opacity="0.3">
<path d="M20.0555 49.1915C20.0555 49.1915 22.0662 54.3769 20.0308 61.4047L20.0555 49.1915Z" fill="black"/>
</g>
<g opacity="0.3">
<path d="M103.021 26.52C103.021 26.52 105.059 32.1235 103.021 39.156V26.52Z" fill="black"/>
</g>
<path d="M6.43896 60.9648L8.74504 63.4311V73.6257H11.2151V63.4311L13.6201 61.074L6.43896 60.9648Z" fill="#E0E0E0"/>
<path d="M6.43896 60.9648L13.6201 61.0412H13.6975L13.6418 61.0958L11.2398 63.4577L11.2506 63.4311C11.2506 65.7852 11.2506 68.445 11.2506 71.253C11.2506 72.0579 11.2506 72.8504 11.2506 73.6257V73.6663H8.70483V73.632C8.70483 69.4434 8.7172 65.8585 8.72184 63.4374V63.4545L6.43896 60.9648L8.75896 63.4155V63.4249C8.75896 65.846 8.76824 69.4309 8.77443 73.6195L8.73576 73.5805H11.2104L11.1702 73.6211V71.253C11.1702 68.445 11.1702 65.7852 11.1702 63.4311V63.4155L11.181 63.4046L13.5892 61.0506L13.6109 61.1052L6.43896 60.9648Z" fill="#263238"/>
<path d="M11.2149 63.4655C10.8037 63.5054 10.3904 63.519 9.97757 63.506C9.56469 63.519 9.15141 63.5054 8.74023 63.4655C9.15135 63.4246 9.56469 63.4111 9.97757 63.4249C10.3904 63.4111 10.8038 63.4246 11.2149 63.4655Z" fill="#263238"/>
<path d="M89.0059 39.1482L91.4248 41.7347V73.6258H94.014V41.7347L96.651 39.1482H89.0059Z" fill="#E0E0E0"/>
<path d="M89.0059 39.156L96.651 39.1326H96.7098L96.6681 39.1732L94.0387 41.7628V41.7425C94.0387 49.0948 94.0465 59.4922 94.0511 71.005V73.6741H91.3846V73.632C91.3939 59.3159 91.4032 47.3491 91.4078 41.7409V41.7518L89.0059 39.156L91.4357 41.7316C91.4357 47.3476 91.4481 59.3065 91.4589 73.6226L91.4187 73.5821H94.0093L93.9691 73.6226V70.9972C93.9691 59.4844 93.9784 49.087 93.9815 41.7347V41.7222L93.9908 41.7144L96.6309 39.131L96.6464 39.1716L89.0059 39.156Z" fill="#263238"/>
<path d="M94.0142 41.769C93.1473 41.8231 92.278 41.8231 91.4111 41.769C92.278 41.7149 93.1473 41.7149 94.0142 41.769Z" fill="#263238"/>
<path d="M62.3307 61.5092C62.3307 61.5311 58.7038 61.5264 54.2308 61.4967C49.7579 61.4671 46.1294 61.4265 46.1294 61.4047C46.1294 61.3829 49.7563 61.3875 54.2308 61.4156C58.7053 61.4437 62.3307 61.4858 62.3307 61.5092Z" fill="#263238"/>
<path d="M84.0147 16.2973C83.1061 18.406 82.928 20.7618 83.5089 22.985C83.6755 23.6121 83.9024 24.2213 84.1863 24.804C84.2104 24.8511 84.2436 24.8928 84.2842 24.9265C84.3247 24.9603 84.3716 24.9853 84.4221 25.0001C84.4725 25.0149 84.5254 25.0192 84.5776 25.0127C84.6297 25.0063 84.68 24.9891 84.7254 24.9624C84.7707 24.9356 84.8102 24.8998 84.8414 24.8572C84.8726 24.8145 84.8948 24.7659 84.9068 24.7143C84.9187 24.6627 84.9201 24.6092 84.9108 24.557C84.9016 24.5048 84.8819 24.4551 84.8529 24.4109C84.2829 23.2102 83.9728 21.9009 83.9432 20.5701C83.9136 19.2392 84.1652 17.9172 84.6813 16.692C84.7299 16.6021 84.7428 16.4969 84.7172 16.3977C84.6916 16.2986 84.6296 16.213 84.5436 16.1585C84.4549 16.1067 84.3495 16.0925 84.2505 16.1188C84.1514 16.1451 84.0666 16.2098 84.0147 16.2989V16.2973Z" fill="#E0E0E0"/>
<path d="M84.4112 23.0194L86.0305 20.6341C86.0815 20.5448 86.0957 20.4387 86.07 20.3389C86.0442 20.2391 85.9806 20.1535 85.8929 20.1006C85.8037 20.0509 85.699 20.0377 85.6005 20.0639C85.502 20.09 85.4172 20.1535 85.3639 20.241L83.743 22.62C83.6921 22.7096 83.6782 22.8157 83.7042 22.9155C83.7303 23.0153 83.7942 23.1008 83.8822 23.1535C83.9714 23.2032 84.0761 23.2164 84.1746 23.1902C84.2731 23.1641 84.3578 23.1007 84.4112 23.0131V23.0194Z" fill="#E0E0E0"/>
<path d="M83.6406 20.6294C84.362 20.6761 85.0858 20.6673 85.8059 20.6029C85.9085 20.6029 86.0068 20.5618 86.0793 20.4887C86.1518 20.4155 86.1926 20.3163 86.1926 20.2129C86.1926 20.1095 86.1518 20.0103 86.0793 19.9371C86.0068 19.864 85.9085 19.8229 85.8059 19.8229C85.0858 19.8873 84.362 19.8961 83.6406 19.8494C83.5381 19.8498 83.44 19.8911 83.3676 19.9641C83.2952 20.0372 83.2543 20.1361 83.2539 20.2394C83.2563 20.3421 83.2978 20.4399 83.3698 20.5126C83.4418 20.5852 83.5388 20.627 83.6406 20.6294Z" fill="#E0E0E0"/>
<path d="M83.8016 17.5906C84.3517 18.385 84.8537 19.2123 85.305 20.0678C85.3572 20.1566 85.442 20.2211 85.5409 20.2473C85.6399 20.2736 85.7451 20.2596 85.8339 20.2082C85.921 20.1547 85.9842 20.0692 86.0101 19.9698C86.0361 19.8703 86.0228 19.7645 85.9731 19.6747C85.5213 18.819 85.0193 17.9913 84.4698 17.1959C84.4162 17.1086 84.3313 17.0455 84.2328 17.0196C84.1344 16.9938 84.0298 17.0072 83.9408 17.057C83.8528 17.1097 83.7889 17.1952 83.7628 17.295C83.7368 17.3949 83.7507 17.501 83.8016 17.5906Z" fill="#E0E0E0"/>
<path d="M69.4825 66.3764L69.0649 71.175C69.0649 71.175 73.7606 73.2155 73.7761 74.1109L64.5146 73.632L64.8611 66.1268L69.4825 66.3764Z" fill="#455A64"/>
<path d="M66.2239 70.6212C66.1337 70.6441 66.055 70.6997 66.0028 70.7774C65.9506 70.8551 65.9285 70.9494 65.9408 71.0424C65.9599 71.1344 66.0132 71.2155 66.0897 71.2692C66.1662 71.3228 66.2601 71.3449 66.3522 71.331C66.4483 71.3066 66.5319 71.2471 66.587 71.1642C66.6421 71.0812 66.6648 70.9806 66.6508 70.8817C66.5982 70.7023 66.3569 70.551 66.1868 70.6321" fill="#E0E0E0"/>
<path d="M64.4961 73.8239L64.5301 73.0953L73.4265 73.6179C73.4265 73.6179 73.8302 73.8207 73.7684 74.1109L64.4961 73.8239Z" fill="#E0E0E0"/>
<path d="M69.218 71.136C69.218 71.1812 68.986 71.1906 68.754 71.3248C68.522 71.4589 68.3951 71.6461 68.3549 71.6258C68.3147 71.6056 68.3951 71.345 68.6766 71.1875C68.9581 71.0299 69.2288 71.0939 69.218 71.136Z" fill="#263238"/>
<path d="M70.1677 71.5915C70.1754 71.6368 69.9759 71.7038 69.8119 71.8879C69.648 72.072 69.5939 72.2748 69.549 72.2701C69.5042 72.2654 69.4887 72.0065 69.6959 71.7803C69.9032 71.5541 70.1692 71.5478 70.1677 71.5915Z" fill="#263238"/>
<path d="M70.6582 72.7927C70.618 72.7927 70.5654 72.5681 70.6953 72.3247C70.8252 72.0813 71.0402 71.994 71.0572 72.0314C71.0742 72.0689 70.9366 72.1983 70.8345 72.3996C70.7324 72.6008 70.7046 72.7896 70.6582 72.7927Z" fill="#263238"/>
<path d="M69.1931 70.0315C69.1715 70.0721 68.9673 69.9987 68.7106 70.0019C68.4538 70.005 68.2466 70.0783 68.2295 70.0377C68.2125 69.9972 68.4074 69.8443 68.7106 69.8443C69.0137 69.8443 69.2163 69.9972 69.1931 70.0315Z" fill="#263238"/>
<path d="M68.0534 18.135C68.0271 18.6997 67.9792 19.3159 67.5894 19.7277C67.2615 20.0803 66.7604 20.1957 66.2871 20.2659C66.021 20.3124 65.7497 20.3208 65.4813 20.2909C65.2113 20.2603 64.9592 20.1395 64.7652 19.9477C64.6701 19.8507 64.6019 19.7301 64.5675 19.5982C64.533 19.4663 64.5334 19.3275 64.5688 19.1958C64.4184 19.221 64.2641 19.2045 64.1223 19.1478C63.9806 19.0912 63.8569 18.9967 63.7645 18.8744C63.6747 18.7507 63.6121 18.609 63.5809 18.4589C63.5496 18.3088 63.5506 18.1537 63.5835 18.0039C63.653 17.7012 63.8154 17.4283 64.0475 17.2239C63.9127 17.1111 63.8176 16.9574 63.7764 16.7857C63.7351 16.6139 63.7499 16.4333 63.8186 16.2708C64.015 15.6858 64.4373 15.5891 64.7791 15.6936C64.7233 15.6133 64.6882 15.5203 64.6767 15.4229C64.6652 15.3255 64.6778 15.2268 64.7133 15.1355C64.7488 15.0442 64.8062 14.9632 64.8803 14.8998C64.9544 14.8363 65.0429 14.7922 65.1379 14.7716L65.7334 14.664L68.0534 18.135Z" fill="#263238"/>
<path d="M72.9393 14.04C73.0096 13.9046 73.0437 13.753 73.0384 13.6002C73.0331 13.4474 72.9885 13.2986 72.9089 13.1685C72.8293 13.0384 72.7176 12.9314 72.5846 12.858C72.4516 12.7846 72.302 12.7473 72.1505 12.7499L70.7925 13.0619L71.3771 15.3722C71.4134 15.5991 71.5132 15.8107 71.6648 15.9822C71.7483 16.0504 71.8447 16.1008 71.9482 16.1303C72.0516 16.1598 72.1599 16.1678 72.2665 16.1538C72.5006 16.133 72.7234 16.0431 72.907 15.8951C73.0906 15.7472 73.2269 15.5479 73.2987 15.3222C73.3706 15.0965 73.3748 14.8545 73.3108 14.6264C73.2469 14.3983 73.1176 14.1943 72.9393 14.04Z" fill="#263238"/>
<path d="M69.2179 23.7307C68.6655 23.7739 68.1184 23.5972 67.6934 23.2386C67.2685 22.88 66.9996 22.3679 66.9443 21.8119L66.2576 14.8496C66.0148 12.9776 66.8871 11.2897 68.7416 11.0947L68.9132 11.0869C69.75 11.0489 70.5702 11.33 71.2107 11.8743C71.8513 12.4187 72.2652 13.1863 72.37 14.0244C72.5726 15.6406 72.7753 17.4299 72.8046 18.3019C72.8619 20.1053 71.0878 20.4656 71.0878 20.4656C71.0878 20.4656 71.2935 21.6544 71.3399 22.1816C71.4436 23.3672 70.3934 23.6387 69.2179 23.7307Z" fill="#B56760"/>
<path d="M71.051 20.436C70.2253 20.471 69.4069 20.2669 68.6924 19.8479C68.6924 19.8479 69.3497 21.1349 71.1253 20.8915L71.051 20.436Z" fill="#8A4A43"/>
<path d="M71.9911 15.5688C71.9946 15.636 71.972 15.7019 71.9281 15.7525C71.8842 15.8032 71.8225 15.8347 71.756 15.8402C71.7237 15.8444 71.6908 15.8419 71.6594 15.833C71.628 15.8241 71.5987 15.809 71.5732 15.7885C71.5477 15.768 71.5265 15.7425 71.5109 15.7136C71.4952 15.6848 71.4855 15.653 71.4823 15.6203C71.4788 15.5531 71.5014 15.4872 71.5453 15.4365C71.5892 15.3859 71.6509 15.3544 71.7174 15.3488C71.7497 15.3447 71.7826 15.3472 71.814 15.3561C71.8454 15.3649 71.8747 15.3801 71.9002 15.4006C71.9258 15.4211 71.9469 15.4465 71.9625 15.4754C71.9782 15.5043 71.9879 15.5361 71.9911 15.5688Z" fill="#263238"/>
<path d="M71.9849 14.756C71.954 14.7904 71.7544 14.6546 71.4807 14.6687C71.2069 14.6827 71.0167 14.8247 70.9796 14.7966C70.9424 14.7685 70.9935 14.7202 71.0786 14.6515C71.1937 14.5633 71.3331 14.5132 71.4776 14.508C71.6204 14.5006 71.7618 14.5394 71.8813 14.6188C71.9679 14.6812 72.0004 14.7404 71.9849 14.756Z" fill="#263238"/>
<path d="M69.4022 15.742C69.406 15.809 69.3838 15.8749 69.3401 15.9256C69.2965 15.9763 69.2349 16.0078 69.1686 16.0134C69.1361 16.0175 69.1032 16.015 69.0717 16.006C69.0402 15.997 69.0108 15.9818 68.9852 15.9611C68.9597 15.9404 68.9385 15.9148 68.923 15.8857C68.9075 15.8567 68.8979 15.8247 68.8948 15.7919C68.8915 15.7238 68.915 15.6572 68.9602 15.6067C69.0054 15.5561 69.0687 15.5256 69.1361 15.522C69.2003 15.5159 69.2642 15.5356 69.314 15.5768C69.3638 15.618 69.3955 15.6773 69.4022 15.742Z" fill="#263238"/>
<path d="M69.2998 14.99C69.2689 15.0243 69.0694 14.8902 68.7956 14.9027C68.5219 14.9151 68.3316 15.0587 68.2945 15.0306C68.2574 15.0025 68.3084 14.9541 68.3935 14.8855C68.509 14.7979 68.6482 14.7478 68.7925 14.742C68.9353 14.7351 69.0766 14.7739 69.1962 14.8527C69.2906 14.9151 69.3153 14.976 69.2998 14.99Z" fill="#263238"/>
<path d="M70.3735 17.0742C70.5162 17.0223 70.6648 16.9882 70.8158 16.9728C70.8854 16.9619 70.9519 16.9447 70.9612 16.8963C70.9639 16.8231 70.9445 16.7507 70.9055 16.6889C70.8313 16.5204 70.7509 16.3441 70.6735 16.1585C70.3518 15.405 70.1152 14.7841 70.1446 14.7716C70.1739 14.7591 70.4616 15.3597 70.7833 16.1132L71.0061 16.6452C71.0545 16.7284 71.072 16.8263 71.0555 16.9213C71.0466 16.9469 71.0319 16.9701 71.0125 16.9891C70.9932 17.008 70.9698 17.0222 70.9442 17.0305C70.9061 17.0429 70.8666 17.0502 70.8266 17.0523C70.6771 17.0788 70.5248 17.0861 70.3735 17.0742Z" fill="#263238"/>
<path d="M70.2296 17.8168C70.2166 17.7511 70.1854 17.6905 70.1397 17.6419C70.094 17.5934 70.0357 17.5588 69.9713 17.5422C69.8944 17.5276 69.8148 17.538 69.744 17.5718C69.7093 17.5897 69.6787 17.6146 69.6539 17.6449C69.6292 17.6753 69.6109 17.7104 69.6001 17.7481C69.5985 17.76 69.5985 17.7721 69.6001 17.784C69.5885 17.8045 69.5816 17.8275 69.58 17.8511C69.5707 17.9216 69.5783 17.9933 69.6019 18.0603C69.6256 18.1273 69.6647 18.1877 69.7161 18.2364C69.779 18.2913 69.8604 18.3198 69.9435 18.316C70.0223 18.3087 70.0954 18.2713 70.1477 18.2114C70.1906 18.1565 70.2203 18.0922 70.2345 18.0238C70.2487 17.9553 70.2471 17.8845 70.2296 17.8168Z" fill="#8A4A43"/>
<path d="M69.5801 17.3019C69.6249 17.3019 69.6388 17.5983 69.9033 17.7996C70.1678 18.0008 70.4849 17.9556 70.4879 17.9961C70.491 18.0367 70.4199 18.057 70.2869 18.0679C70.1122 18.0779 69.9397 18.0255 69.7997 17.9197C69.6645 17.8191 69.574 17.6689 69.5476 17.5016C69.5306 17.3768 69.5599 17.3004 69.5801 17.3019Z" fill="#263238"/>
<path d="M69.2906 14.0306C69.2658 14.1071 68.9905 14.0837 68.6719 14.1367C68.3533 14.1898 68.095 14.2927 68.0532 14.2256C68.0331 14.1944 68.0749 14.1211 68.177 14.0447C68.3123 13.9472 68.4687 13.8835 68.6332 13.859C68.7972 13.8321 68.9652 13.8444 69.1235 13.8949C69.2426 13.937 69.3045 13.9948 69.2906 14.0306Z" fill="#263238"/>
<path d="M71.8318 13.7405C71.7854 13.806 71.5936 13.7498 71.3678 13.7561C71.142 13.7623 70.9502 13.8185 70.9038 13.7561C70.8821 13.7249 70.9038 13.6609 70.9919 13.6001C71.1019 13.5237 71.2319 13.4819 71.3654 13.48C71.4989 13.4781 71.63 13.516 71.7421 13.5892C71.8225 13.6453 71.8519 13.7093 71.8318 13.7405Z" fill="#263238"/>
<path d="M66.4262 16.1444C66.3952 16.132 65.1888 15.8324 65.2754 17.0648C65.3621 18.2972 66.5746 17.9462 66.5746 17.9104C66.5746 17.8745 66.4262 16.1444 66.4262 16.1444Z" fill="#B56760"/>
<path d="M66.1665 17.472C66.1665 17.472 66.1464 17.4876 66.1124 17.5079C66.0645 17.5322 66.0094 17.5378 65.9577 17.5235C65.8262 17.486 65.701 17.2879 65.6778 17.0664C65.6674 16.9609 65.6801 16.8544 65.7149 16.7544C65.7232 16.7151 65.7409 16.6785 65.7665 16.6477C65.7921 16.617 65.8249 16.5931 65.8618 16.5781C65.8857 16.5696 65.9117 16.5698 65.9354 16.5786C65.9592 16.5874 65.9791 16.6044 65.9917 16.6265C66.0103 16.6592 66.0041 16.6857 66.0118 16.6873C66.0196 16.6889 66.0366 16.6639 66.0227 16.614C66.013 16.5842 65.994 16.5585 65.9685 16.5407C65.951 16.5289 65.9312 16.5209 65.9105 16.5172C65.8897 16.5134 65.8684 16.514 65.8479 16.5188C65.7987 16.5327 65.7538 16.5591 65.7176 16.5954C65.6813 16.6317 65.6548 16.6768 65.6406 16.7263C65.5972 16.8372 65.5812 16.9572 65.5942 17.0757C65.6205 17.3222 65.7644 17.5437 65.9438 17.5827C65.9773 17.59 66.012 17.5894 66.0452 17.581C66.0785 17.5726 66.1094 17.5567 66.1356 17.5344C66.1665 17.5032 66.1711 17.472 66.1665 17.472Z" fill="#8A4A43"/>
<path d="M68.0535 13.26C67.8868 13.1388 67.685 13.0768 67.4797 13.0837C66.9459 13.0621 66.4169 13.1924 65.9531 13.4597C65.7013 13.5867 65.4948 13.7895 65.3623 14.04C65.2998 14.1663 65.2774 14.3089 65.2981 14.4485C65.3189 14.5881 65.3818 14.7178 65.4783 14.82C65.3092 14.9426 65.1901 15.1231 65.1434 15.3278C65.0967 15.5326 65.1255 15.7474 65.2244 15.9323C65.3234 16.1171 65.4857 16.2593 65.681 16.3322C65.8763 16.4051 66.0912 16.4038 66.2857 16.3285C66.3024 16.4219 66.3423 16.5096 66.4017 16.5832C66.461 16.6569 66.538 16.7141 66.6253 16.7496C66.7125 16.7852 66.8073 16.7978 66.9007 16.7863C66.9942 16.7749 67.0832 16.7398 67.1595 16.6842C67.2389 16.6242 67.3074 16.5508 67.3621 16.4674C67.5725 16.1554 67.5508 15.5719 67.4565 15.2006C67.578 15.1866 67.6948 15.1451 67.7982 15.0792C67.9015 15.0133 67.9888 14.9247 68.0535 14.82C68.1807 14.6077 68.257 14.3684 68.2762 14.1211C68.3118 13.8107 68.2824 13.4581 68.0535 13.26Z" fill="#263238"/>
<path d="M67.2676 9.85139C67.1856 9.87479 65.2337 10.6314 64.9476 12.2288C64.6614 13.8263 64.8795 14.2568 64.8795 14.2568C64.8082 14.3192 64.7462 14.3917 64.6955 14.4721C64.6259 14.5829 64.8192 15.0431 65.0744 14.951C66.9196 13.7764 69.2427 13.3411 71.8565 13.0369L73.844 12.7156C74.4116 12.6984 74.5864 12.5206 74.3297 12.4145C74.1332 12.3318 72.4566 11.9262 72.4566 11.9262L72.1133 11.7437L71.1219 10.7156C71.1219 10.7156 71.2008 10.5409 70.9796 10.4364C70.7584 10.3319 68.8823 9.37559 67.2676 9.85139Z" fill="#407BFF"/>
<g opacity="0.3">
<path d="M65.5542 11.0198C65.5542 11.0198 67.6793 10.3412 68.7233 10.6704L68.6011 10.6298L69.5817 10.9013C69.7472 10.9481 69.9405 10.9886 70.0797 10.8872C69.613 10.6113 69.0996 10.4251 68.5656 10.3381C67.6097 10.1634 66.145 10.2429 65.5542 11.0198Z" fill="black"/>
</g>
<path d="M65.5244 11.0354C65.5791 10.9789 65.638 10.9267 65.7007 10.8794C65.8697 10.7457 66.0534 10.6321 66.2483 10.5409C66.5377 10.4057 66.8451 10.3137 67.1608 10.2679C67.548 10.2019 67.9447 10.221 68.3239 10.3241C68.5175 10.3819 68.7075 10.4512 68.8931 10.5316C69.0709 10.6111 69.2472 10.6766 69.4096 10.7562C69.5577 10.8395 69.713 10.9089 69.8736 10.9637C70.0142 11.0052 70.1625 11.0132 70.3067 10.9871C70.8419 10.9153 71.1543 10.7546 71.1249 10.725C71.119 10.7448 71.1064 10.7619 71.0893 10.7734C71.0409 10.8061 70.989 10.8333 70.9347 10.8545C70.7344 10.9281 70.527 10.9804 70.316 11.0105C70.1679 11.0384 70.0155 11.0315 69.8705 10.9902C69.7104 10.9348 69.5552 10.8659 69.4065 10.7843C69.2519 10.7047 69.0694 10.6392 68.89 10.5612C68.7063 10.4807 68.5177 10.4119 68.3254 10.3553C67.9507 10.2548 67.5591 10.2351 67.1763 10.2976C66.8629 10.3424 66.5574 10.4312 66.2684 10.5612C66.0742 10.6501 65.8901 10.7599 65.7193 10.8888C65.659 10.934 65.6126 10.9715 65.5832 10.998C65.5645 11.0119 65.5449 11.0244 65.5244 11.0354Z" fill="#263238"/>
<g opacity="0.3">
<path d="M64.852 12.8903C65.2129 12.8137 65.5641 12.6965 65.8991 12.5408C66.2981 12.3848 66.6972 12.2554 67.0885 12.0838C67.387 11.9543 67.7411 11.8248 67.9113 11.569C67.9371 11.6437 67.9437 11.7239 67.9304 11.8019C67.9172 11.8799 67.8845 11.9533 67.8355 12.0151C67.6526 12.1802 67.4434 12.3131 67.2168 12.4082C66.3522 12.792 65.746 13.051 64.8164 13.26C64.8201 13.1376 64.832 13.0157 64.852 12.895" fill="black"/>
</g>
<path d="M64.988 12.0525C64.7575 12.1976 64.6152 12.2928 64.64 12.5065C64.6601 12.6843 64.7266 12.8949 64.9045 12.9012C64.9578 12.8989 65.0102 12.8868 65.0591 12.8653L67.6745 11.9184C67.7672 11.8955 67.8489 11.8402 67.905 11.7624C67.9314 11.6939 67.93 11.6176 67.9011 11.5502C67.8721 11.4827 67.818 11.4295 67.7503 11.402C67.6146 11.3503 67.4668 11.3394 67.325 11.3708C66.5168 11.4891 65.7281 11.7168 64.9803 12.0479" fill="#407BFF"/>
<path d="M67.8709 11.8123C67.9005 11.7751 67.9193 11.7302 67.925 11.6828C67.9319 11.6194 67.921 11.5552 67.8937 11.4976C67.8664 11.44 67.8237 11.3912 67.7704 11.3568C67.5936 11.2802 67.3963 11.266 67.2105 11.3162C66.9955 11.3584 66.7604 11.4098 66.516 11.4722C66.0963 11.5721 65.6863 11.7099 65.2911 11.8841C65.1364 11.9512 65.0204 12.0136 64.9384 12.0572L64.8441 12.1072C64.8334 12.1141 64.822 12.1198 64.8101 12.1243C64.8194 12.1157 64.8298 12.1084 64.841 12.1025L64.9322 12.0448C65.0127 11.998 65.1302 11.9324 65.2802 11.8622C65.6743 11.6806 66.0851 11.5385 66.5068 11.4379C66.7527 11.3755 66.9893 11.3272 67.2043 11.2819C67.3972 11.2312 67.6016 11.2494 67.7828 11.3334C67.8387 11.3708 67.883 11.4236 67.9104 11.4855C67.9378 11.5473 67.9471 11.6158 67.9374 11.6828C67.9319 11.7191 67.9176 11.7534 67.8957 11.7827C67.8817 11.8045 67.8709 11.8139 67.8709 11.8123Z" fill="#263238"/>
<path d="M71.4346 11.0464L69.7349 11.2616L69.9483 11.7218L71.7857 11.4098L71.4346 11.0464Z" fill="white"/>
<path d="M69.0913 12.948C69.0913 12.948 69.8291 12.7187 70.7447 12.4566C71.6603 12.1945 72.4027 11.9886 72.4058 11.9886C72.4089 11.9886 71.6681 12.2179 70.754 12.4815C69.8399 12.7452 69.0944 12.948 69.0913 12.948Z" fill="#263238"/>
<path d="M80.9355 17.0508L76.7286 21.6528L71.688 22.6356L73.1573 27.0504L77.754 25.4639C78.6018 25.1777 79.3353 24.6228 79.8451 23.882C80.9278 22.2581 82.7838 18.8807 82.7838 18.8807L80.9355 17.0508Z" fill="#407BFF"/>
<path d="M78.1357 20.1131L80.5578 22.7604L81.2631 21.5748L79.0297 19.1349L78.1357 20.1131Z" fill="white"/>
<path d="M81.9146 15.9432C81.9146 15.9432 83.9036 14.3177 84.3119 14.274C84.7202 14.2303 84.9986 14.118 85.2786 14.3614C85.5585 14.6047 86.1107 15.2974 86.1757 15.5142C86.2406 15.731 86.0968 16.21 86.0968 16.21C85.9732 15.9856 85.8084 15.787 85.6111 15.625C85.4565 15.508 84.8672 15.3364 84.7821 15.8995C84.7293 16.2092 84.7293 16.5258 84.7821 16.8355L85.1115 16.7887L85.3281 17.4782L83.1519 17.5718L82.5766 18.6638L80.9355 17.0508L81.9146 15.9432Z" fill="#B56760"/>
<g opacity="0.3">
<path d="M71.7485 22.6356C71.7485 22.6356 72.907 23.166 73.4066 24.3594C73.9061 25.5528 73.603 26.8959 73.603 26.8959L71.7485 22.6356Z" fill="black"/>
</g>
<path d="M65.9362 56.472C65.2093 59.89 64.4097 70.4449 64.4097 70.4449L69.5229 70.6165L71.365 59.9648C71.365 59.9648 72.1971 56.2208 72.706 54.1663C73.1592 52.3286 74.6826 38.1545 74.6826 38.1545L65.8264 38.3635C65.8264 38.3635 65.4877 39.1747 65.2588 41.354C65.0732 43.1231 65.0825 44.1121 65.2201 44.9873C65.3017 45.5021 65.4898 45.9937 65.7723 46.4303L66.4296 47.8608L65.9362 56.472Z" fill="#407BFF"/>
<path d="M91.9338 23.3703H90.3516V26.0364H91.9338V23.3703Z" fill="#E0E0E0"/>
<path d="M93.7158 25.9568H88.7881V26.6838H93.7158V25.9568Z" fill="#E0E0E0"/>
<path d="M88.5916 19.1677H86.5283V20.2784H88.5916V19.1677Z" fill="#E0E0E0"/>
<path d="M93.7176 16.8854H88.4326V23.4702H93.7176V16.8854Z" fill="#E0E0E0"/>
<path d="M92.1504 21.1277C92.7447 20.5283 92.7447 19.5563 92.1504 18.9569C91.556 18.3574 90.5924 18.3574 89.998 18.9569C89.4037 19.5563 89.4037 20.5283 89.998 21.1277C90.5924 21.7272 91.556 21.7272 92.1504 21.1277Z" fill="white"/>
<path d="M92.5956 20.0429C92.5848 20.0429 92.5956 19.9056 92.5307 19.6732C92.4405 19.344 92.2447 19.0543 91.9738 18.8495C91.7753 18.6999 91.5428 18.6027 91.2976 18.5668C91.0523 18.5308 90.8021 18.5572 90.5695 18.6436C90.295 18.7443 90.0569 18.9258 89.8858 19.1646C89.7 19.4194 89.5998 19.7274 89.5998 20.0437C89.5998 20.3599 89.7 20.6679 89.8858 20.9227C90.0576 21.1605 90.2955 21.3413 90.5695 21.4422C90.8021 21.5286 91.0523 21.555 91.2976 21.519C91.5428 21.483 91.7753 21.3859 91.9738 21.2363C92.2447 21.0314 92.4405 20.7417 92.5307 20.4126C92.591 20.1802 92.5848 20.0429 92.5956 20.0429C92.5996 20.0755 92.5996 20.1085 92.5956 20.1412C92.5972 20.1814 92.5947 20.2216 92.5879 20.2613C92.5839 20.314 92.5751 20.3662 92.5616 20.4173C92.4942 20.7087 92.3446 20.9741 92.1308 21.1815C91.9169 21.3889 91.6481 21.5293 91.3567 21.5857C91.0823 21.639 90.7988 21.6175 90.5354 21.5233C90.393 21.4727 90.259 21.4007 90.138 21.3096C90.0097 21.2169 89.8973 21.1036 89.8054 20.9742C89.6046 20.7042 89.4961 20.3757 89.4961 20.0382C89.4961 19.7007 89.6046 19.3722 89.8054 19.1022C89.8974 18.9733 90.0097 18.8605 90.138 18.7684C90.2583 18.6761 90.3925 18.604 90.5354 18.5546C90.7985 18.4593 91.0822 18.4372 91.3567 18.4907C91.6481 18.5471 91.9169 18.6875 92.1308 18.8949C92.3446 19.1023 92.4942 19.3677 92.5616 19.6591C92.5751 19.7102 92.5839 19.7624 92.5879 19.8151C92.5946 19.8548 92.5972 19.895 92.5956 19.9352C92.6005 19.9709 92.6005 20.0072 92.5956 20.0429Z" fill="#263238"/>
<path d="M88.4327 16.8854C88.4631 16.8832 88.4936 16.8832 88.524 16.8854H88.8008L89.8665 16.8745L93.7161 16.8527H93.7563V16.8932C93.7563 18.7777 93.7563 21.0428 93.7641 23.478C93.7749 23.4686 93.6728 23.5716 93.7161 23.5279H90.9445H88.4296H88.3848V23.4842C88.3848 21.5218 88.4002 19.8728 88.4064 18.7075C88.4064 18.135 88.4064 17.6826 88.4172 17.3675C88.4172 17.2115 88.4172 17.0992 88.4172 17.0165C88.4133 16.9771 88.4133 16.9373 88.4172 16.8979C88.4172 16.8979 88.4172 16.9104 88.4172 16.9322C88.4172 16.9541 88.4172 16.9868 88.4172 17.0258C88.4172 17.1111 88.4172 17.2312 88.4172 17.3862C88.4172 17.6982 88.4172 18.1662 88.4281 18.7356C88.4281 19.8931 88.442 21.5342 88.4497 23.4842L88.408 23.4406H90.9228H93.6914C93.7347 23.3984 93.6326 23.5014 93.6434 23.4889C93.6434 21.0538 93.6434 18.7886 93.6434 16.9042L93.6836 16.9447L89.8587 16.9244L88.7853 16.9135H88.5008C88.4777 16.9051 88.455 16.8958 88.4327 16.8854Z" fill="#263238"/>
<path d="M93.6365 25.9568C93.6365 25.9834 92.5538 26.0052 91.202 26.0052C89.8502 26.0052 88.7676 25.9834 88.7676 25.9568C88.7676 25.9303 89.858 25.9085 91.202 25.9085C92.5461 25.9085 93.6365 25.9303 93.6365 25.9568Z" fill="#263238"/>
<path d="M90.916 19.9883L91.3398 20.1209L91.4991 18.9836L90.916 19.9883Z" fill="#407BFF"/>
<path d="M85.4785 24.2814C85.9425 23.882 86.0972 23.5576 86.2905 22.8228C86.5197 21.9478 86.6586 21.0512 86.7051 20.1474C86.7886 18.2894 86.4328 17.0492 86.2411 16.5204C86.154 16.2774 86.0193 16.0546 85.8451 15.8652C85.6379 15.6452 85.3362 15.4315 85.0145 15.5657C84.4299 15.8075 84.8599 16.5017 85.0145 16.7014C85.2926 17.2558 85.4677 17.857 85.5311 18.4751C85.6471 19.9415 85.3765 22.3501 85.1537 23.1098C84.931 23.8696 84.9295 24.0661 84.9295 24.0661C84.9295 24.0661 85.3363 24.35 85.3811 24.3594C85.4176 24.339 85.4505 24.3126 85.4785 24.2814Z" fill="#E0E0E0"/>
<path d="M85.4778 24.2814C85.4778 24.2814 85.4685 24.2923 85.4484 24.3126L85.4067 24.3469C85.3976 24.3551 85.3871 24.3614 85.3757 24.3656C85.3609 24.3633 85.3467 24.358 85.334 24.35C85.235 24.2954 85.0958 24.194 84.9133 24.077C84.9361 23.8718 84.976 23.6688 85.0324 23.4702C85.0912 23.2409 85.1731 22.9882 85.2226 22.6996C85.3411 22.0228 85.4232 21.3401 85.4685 20.6544C85.4964 20.266 85.5165 19.8541 85.5196 19.4251C85.5327 18.9799 85.5047 18.5344 85.4361 18.0944C85.3931 17.8645 85.3347 17.6378 85.2613 17.4158C85.1918 17.1867 85.1023 16.9643 84.9937 16.7513C84.8374 16.5497 84.7314 16.3132 84.6844 16.0618C84.6737 15.9935 84.6781 15.9236 84.6974 15.8573C84.7166 15.7909 84.7502 15.7297 84.7957 15.678C84.842 15.6278 84.8977 15.5875 84.9597 15.5594C85.0197 15.5269 85.0853 15.5062 85.153 15.4986C85.3287 15.4854 85.5032 15.5376 85.6433 15.6452C85.7792 15.743 85.8992 15.8614 85.9991 15.9962C86.1853 16.2624 86.3206 16.5613 86.3981 16.8776C86.5655 17.462 86.6733 18.0621 86.7198 18.6685C86.8009 19.6943 86.7489 20.7264 86.5651 21.7386C86.4893 22.1692 86.4012 22.556 86.3068 22.8914C86.2316 23.1776 86.1215 23.4532 85.979 23.712C85.8834 23.8748 85.7652 24.023 85.6279 24.1519L85.518 24.2486C85.4933 24.2689 85.4794 24.2798 85.4778 24.2783C85.4763 24.2767 85.5273 24.2315 85.6155 24.1394C85.7468 24.0078 85.8597 23.8587 85.9511 23.6964C86.0876 23.4331 86.1915 23.1538 86.2604 22.8649C86.3501 22.5311 86.4337 22.1442 86.5064 21.7136C86.683 20.7063 86.7303 19.6802 86.6471 18.6607C86.5995 18.0599 86.4912 17.4656 86.3239 16.887C86.2484 16.5799 86.1173 16.2896 85.9372 16.0306C85.8417 15.903 85.7275 15.791 85.5985 15.6983C85.4745 15.602 85.3199 15.5548 85.1639 15.5657C85.1054 15.572 85.0488 15.5895 84.9968 15.6172C84.9437 15.6412 84.8959 15.6757 84.8561 15.7186C84.8188 15.7623 84.7914 15.8137 84.7757 15.8692C84.7599 15.9246 84.7562 15.9829 84.7648 16.0399C84.8106 16.2791 84.9124 16.5037 85.0618 16.6951C85.1734 16.9137 85.2655 17.1418 85.3371 17.3768C85.41 17.6026 85.4684 17.833 85.5119 18.0664C85.5801 18.5111 85.607 18.9613 85.5923 19.4111C85.5923 19.8432 85.5644 20.255 85.5335 20.645C85.4845 21.3327 85.3972 22.0171 85.2721 22.6949C85.2195 22.9866 85.1314 23.2409 85.0711 23.4671C85.0128 23.662 84.9698 23.8612 84.9427 24.063V24.0505C85.1221 24.1784 85.252 24.2752 85.3541 24.3344L85.385 24.35C85.3954 24.347 85.4049 24.3417 85.4129 24.3344L85.4562 24.3032C85.4628 24.2954 85.47 24.2881 85.4778 24.2814Z" fill="#263238"/>
<path d="M66.7141 21.0694L66.5671 21.9523C66.0428 22.9148 64.8055 24.804 64.9694 27.6947C65.1829 31.2827 65.5092 38.0359 65.5092 38.0359L65.4938 38.1295C65.4528 38.3815 65.4747 38.6399 65.5576 38.8812C65.6405 39.1226 65.7818 39.3392 65.9686 39.5117L74.0561 39.688C74.5354 39.6069 74.9647 39.341 75.2534 38.9466C75.542 38.5522 75.6672 38.06 75.6028 37.5742L74.3283 27.9958L71.8707 22.3408L71.6402 21.8556L71.3633 21.6871L66.7141 21.0694Z" fill="#407BFF"/>
<path d="M65.0264 28.679L65.2197 32.2873L74.724 32.2202L74.5198 28.7305L65.0264 28.679Z" fill="white"/>
<path d="M71.0275 21.6528C71.0268 21.7337 71.0211 21.8144 71.0105 21.8946C70.9917 22.113 70.985 22.3322 70.9904 22.5514V22.5888L70.9548 22.581C70.48 22.4858 69.8351 22.372 69.1236 22.2768C68.3704 22.1754 67.6852 22.1036 67.1903 22.0428C66.9428 22.0147 66.7417 21.9882 66.6041 21.9695C66.5319 21.9629 66.4605 21.9499 66.3906 21.9305C66.4626 21.9226 66.5352 21.9226 66.6072 21.9305L67.1949 21.9788C67.6929 22.0241 68.3781 22.0865 69.1344 22.1879C69.8474 22.2846 70.4939 22.4063 70.9672 22.5155L70.9316 22.5451C70.9308 22.3238 70.9463 22.1027 70.978 21.8837C70.9853 21.805 71.0019 21.7275 71.0275 21.6528Z" fill="#263238"/>
<path d="M74.2046 27.8803C74.1636 27.8108 74.129 27.7377 74.101 27.6619C74.0361 27.5059 73.9463 27.3016 73.8458 27.0566C73.6308 26.545 73.3292 25.8398 72.989 25.0645L72.1043 23.088L71.8367 22.4874C71.8006 22.4154 71.7711 22.3402 71.7485 22.2628C71.7932 22.3302 71.8325 22.4012 71.8661 22.4749C71.9357 22.6122 72.0362 22.8134 72.1553 23.0646C72.3966 23.5638 72.7214 24.2596 73.0617 25.0364C73.4019 25.8133 73.6958 26.5216 73.8984 27.0395C73.9989 27.2984 74.0778 27.5075 74.1304 27.6541C74.1611 27.7274 74.1859 27.803 74.2046 27.8803Z" fill="#263238"/>
<path d="M74.5495 39.3791C74.5205 39.3889 74.4903 39.3947 74.4598 39.3962L74.2015 39.4259C73.9772 39.4508 73.6509 39.4805 73.2472 39.5117C72.4414 39.5756 71.3263 39.638 70.0936 39.6568C68.8609 39.6755 67.7411 39.649 66.9337 39.61C66.53 39.5912 66.2037 39.5725 65.9794 39.5538L65.7196 39.532C65.6892 39.5323 65.659 39.5281 65.6299 39.5195C65.6597 39.5161 65.6898 39.5161 65.7196 39.5195H65.981L66.9368 39.5507C67.7442 39.5741 68.8593 39.5912 70.092 39.5725C71.3247 39.5538 72.4383 39.5008 73.2441 39.4508L74.1984 39.3916L74.4583 39.376C74.4887 39.3749 74.5192 39.376 74.5495 39.3791Z" fill="#263238"/>
<path d="M83.1261 24.5403L84.3124 23.244C84.3642 23.1877 84.4268 23.1427 84.4966 23.1118C84.5663 23.0809 84.6415 23.0649 84.7177 23.0646H85.1306C85.1306 23.0646 85.0007 23.7447 85.4894 23.8025C85.626 23.8185 85.764 23.7893 85.8826 23.7192C86.0012 23.6492 86.0939 23.542 86.1468 23.414C86.1468 23.414 86.8768 23.7447 86.801 24.2377C86.7252 24.7307 86.501 24.9179 86.501 24.9179C86.501 24.9179 86.6897 25.3344 86.5396 25.637C86.4363 25.8291 86.28 25.9868 86.0895 26.091C85.941 26.2817 85.7635 26.4475 85.5637 26.5824C85.3394 26.6963 83.6752 26.7805 83.6752 26.7805L82.2244 28.2812L81.1572 25.9194L83.1261 24.5403Z" fill="#B56760"/>
<g opacity="0.3">
<path d="M66.6521 26.6853C66.6521 26.6853 66.5609 27.4326 67.5446 28.9193C68.5282 30.4059 70.112 33.0002 72.2866 33.5681C74.4613 34.1359 74.8758 33.9549 74.8758 33.9549L74.5169 31.2561L66.6521 26.6853Z" fill="black"/>
</g>
<path d="M66.2731 25.0084C66.3549 26.3645 66.9535 27.6361 67.9435 28.5574C69.4593 29.991 72.4041 33.1204 74.3111 33.1625C77.0286 33.2218 82.6477 28.3655 82.6477 28.3655L81.4846 25.297L74.5169 28.6666L70.9379 23.96C70.6454 23.5687 70.2732 23.2451 69.8463 23.011C69.4195 22.7769 68.9478 22.6377 68.4632 22.6028C67.8863 22.5685 67.28 22.6793 66.816 23.127C66.352 23.5747 66.2375 24.2892 66.2731 25.0084Z" fill="#407BFF"/>
<path d="M77.9316 27.0145L79.3468 30.8896L80.5331 30.044L79.2664 26.3827L77.9316 27.0145Z" fill="white"/>
<path d="M66.2733 25.0083C66.2733 25.0083 66.264 24.9272 66.2624 24.7712C66.2577 24.5421 66.2763 24.3132 66.3181 24.0879C66.3626 23.7854 66.4864 23.5004 66.6767 23.2623C66.8671 23.0242 67.1171 22.8418 67.4008 22.7339C67.6479 22.6377 67.9094 22.585 68.1741 22.5779C68.7912 22.5579 69.4013 22.7142 69.9342 23.0287C70.2351 23.2042 70.5082 23.424 70.7447 23.6808C70.868 23.817 70.9842 23.9597 71.0927 24.1082L71.436 24.5591L74.5495 28.6431L74.5046 28.6322L81.4724 25.2595L81.511 25.2408L81.528 25.2813C81.791 25.9802 82.0725 26.7197 82.3555 27.4653L82.6896 28.3483L82.7004 28.3748L82.6788 28.3935C81.5551 29.3456 80.3816 30.2361 79.1632 31.0611C78.5724 31.4558 77.98 31.8287 77.3799 32.1531C76.7969 32.4829 76.1849 32.7576 75.5517 32.9737C75.2443 33.0763 74.927 33.1458 74.6052 33.1812C74.4466 33.1944 74.2873 33.1944 74.1288 33.1812C73.9714 33.1615 73.8161 33.1276 73.6648 33.0798C73.0975 32.8831 72.5614 32.6046 72.0733 32.253C71.1989 31.6283 70.3718 30.9389 69.5986 30.1907C69.2413 29.8537 68.9072 29.5277 68.5902 29.2188L68.1262 28.7711C67.9715 28.626 67.8292 28.4887 67.6962 28.3452C67.2419 27.8599 66.8806 27.2939 66.6305 26.676C66.4716 26.2845 66.3635 25.8739 66.3088 25.4545C66.2887 25.311 66.281 25.2018 66.2779 25.1269C66.2748 25.052 66.2779 25.0161 66.2779 25.0161C66.2779 25.0161 66.2779 25.0536 66.2903 25.1269C66.3027 25.2002 66.3073 25.3094 66.329 25.4529C66.3904 25.8693 66.5026 26.2764 66.663 26.6651C66.9188 27.2813 67.2859 27.8441 67.7457 28.3249C67.8787 28.4669 68.0256 28.6026 68.1757 28.7477L68.6397 29.1938C68.9567 29.5058 69.2924 29.8178 69.6512 30.161C70.4226 30.9033 71.2466 31.5878 72.1166 32.2093C72.6005 32.5556 73.1313 32.8298 73.6926 33.0236C73.8386 33.0689 73.9882 33.1018 74.1396 33.1219C74.294 33.1345 74.4492 33.1345 74.6036 33.1219C74.9193 33.0866 75.2304 33.0176 75.5316 32.916C76.1557 32.6969 76.7588 32.4212 77.3335 32.0923C77.932 31.7663 78.5213 31.3934 79.1106 31.0003C80.3258 30.1761 81.4963 29.2867 82.6169 28.3358L82.6061 28.3811C82.4994 28.1018 82.3864 27.8023 82.272 27.4997C81.9874 26.7509 81.7075 26.0099 81.443 25.3157L81.4987 25.3375L74.5325 28.704L74.5062 28.7165L74.4876 28.6931L71.3835 24.5996L71.0401 24.1488C70.9272 23.9928 70.8189 23.8539 70.6983 23.7229C70.468 23.4686 70.2023 23.2495 69.9095 23.0724C69.3853 22.7615 68.7851 22.6053 68.1772 22.6215C67.9171 22.6296 67.6603 22.6823 67.4178 22.7775C67.1392 22.8824 66.8933 23.0602 66.7055 23.2927C66.5176 23.5252 66.3946 23.804 66.3491 24.1004C66.3052 24.324 66.2824 24.5512 66.281 24.779C66.281 24.857 66.281 24.9163 66.281 24.9553C66.281 24.9943 66.2733 25.0083 66.2733 25.0083Z" fill="#263238"/>
<path d="M74.4102 30.1548C74.4021 29.914 74.414 29.6729 74.4457 29.4341C74.4497 29.1933 74.4735 28.9533 74.5169 28.7165C74.5511 28.9565 74.5511 29.2003 74.5169 29.4403C74.5138 29.6823 74.4779 29.9227 74.4102 30.1548Z" fill="#263238"/>
<g opacity="0.3">
<path d="M66.6134 21.9539C66.5871 21.9632 71.2534 22.9086 71.2534 22.9086L71.0214 21.7854L70.9549 22.5529C70.9549 22.5529 66.9707 21.84 66.6134 21.9539Z" fill="black"/>
</g>
<path d="M65.4532 36.9096C65.4483 36.8792 65.4457 36.8484 65.4455 36.8175C65.4455 36.7473 65.4455 36.6615 65.4346 36.5508C65.4346 36.3183 65.4145 35.9845 65.3944 35.5711C65.3542 34.7443 65.2676 33.6024 65.164 32.3435C65.0604 31.0845 64.983 29.9395 64.9583 29.1111C64.9444 28.6977 64.9397 28.3623 64.9428 28.1299C64.9428 28.0207 64.9428 27.9333 64.9428 27.8631C64.9421 27.8318 64.9447 27.8004 64.9505 27.7695C64.9575 27.8002 64.9606 27.8317 64.9598 27.8631C64.9598 27.9318 64.9598 28.0191 64.9706 28.1299C64.9706 28.3608 64.9892 28.6962 65.0109 29.1096C65.0511 29.9364 65.1377 31.0767 65.2398 32.3372C65.3418 33.5977 65.4207 34.7396 65.4455 35.568C65.4594 35.9829 65.4656 36.3183 65.4609 36.5492C65.4609 36.6584 65.4609 36.7473 65.4609 36.8175C65.4627 36.8484 65.4601 36.8794 65.4532 36.9096Z" fill="#263238"/>
<path d="M35.9773 71.916L40.3389 70.4106C40.3389 70.4106 43.3208 74.3777 44.1545 74.1796L41.5654 65.5434L34.6719 67.6057L35.9773 71.916Z" fill="#455A64"/>
<path d="M39.1681 67.86C39.1683 67.7695 39.2015 67.6823 39.2614 67.615C39.3213 67.5477 39.4037 67.5049 39.4929 67.495C39.5829 67.4918 39.6707 67.5235 39.7383 67.5835C39.8059 67.6436 39.8481 67.7274 39.8563 67.8179C39.8557 67.9141 39.8198 68.0067 39.7555 68.0778C39.6913 68.1489 39.6033 68.1936 39.5083 68.2032C39.4143 68.196 39.3265 68.1527 39.2632 68.0822C39.1999 68.0116 39.1658 67.9193 39.1681 67.8241" fill="#E0E0E0"/>
<path d="M41.7434 65.4857L41.0752 65.6838L43.6164 73.9736C43.6164 73.9736 43.8963 74.3075 44.1531 74.1827L41.7434 65.4857Z" fill="#E0E0E0"/>
<path d="M40.337 70.5681C40.3787 70.5525 40.337 70.3373 40.4066 70.0877C40.4762 69.8381 40.6215 69.6758 40.5937 69.6415C40.5659 69.6072 40.3431 69.7445 40.2596 70.0471C40.1761 70.3497 40.3014 70.5884 40.337 70.5681Z" fill="#263238"/>
<path d="M40.9866 71.3606C41.0299 71.3606 41.0469 71.1532 41.1799 70.955C41.3129 70.7569 41.4893 70.6602 41.4738 70.6181C41.4583 70.576 41.2155 70.6181 41.0531 70.8708C40.8907 71.1235 40.9402 71.3716 40.9866 71.3606Z" fill="#263238"/>
<path d="M42.2102 71.5463C42.2102 71.5057 41.9813 71.5104 41.7833 71.6882C41.5853 71.8661 41.5559 72.0923 41.5961 72.0985C41.6363 72.1048 41.7214 71.9425 41.8854 71.8037C42.0493 71.6648 42.2241 71.59 42.2102 71.5463Z" fill="#263238"/>
<path d="M39.3056 70.799C39.3381 70.7694 39.2221 70.5947 39.168 70.3513C39.1138 70.108 39.1308 69.8989 39.0891 69.8833C39.0473 69.8677 38.9499 70.097 39.0195 70.3825C39.0891 70.668 39.2855 70.824 39.3056 70.799Z" fill="#263238"/>
<path d="M35.4464 60.1864C35.2778 60.1396 27.891 68.133 27.7224 69.4543C27.5538 70.7756 27.8229 71.9269 28.6968 72.6726C29.5706 73.4183 39.5095 70.98 39.5095 70.98L38.5691 66.7805L42.1621 65.5606L38.9512 59.6326L35.4464 60.1864Z" fill="#407BFF"/>
<g opacity="0.3">
<path d="M33.699 61.9585L33.4624 62.2143C33.4624 62.2143 37.6972 66.6947 38.9964 66.6338L41.0751 65.924L34.0409 61.5701L33.699 61.9585Z" fill="black"/>
</g>
<path d="M38.5942 66.8881C38.5942 66.9099 37.0584 67.3857 35.1498 67.952C33.2412 68.5183 31.6883 68.9582 31.6821 68.9364C31.676 68.9145 33.218 68.4387 35.1266 67.874C37.0352 67.3093 38.588 66.8663 38.5942 66.8881Z" fill="#263238"/>
<path d="M29.3682 67.3499L30.8036 71.9441C30.8036 71.9441 26.6554 74.9596 26.8394 75.8347L35.7714 73.3465L33.8257 66.0956L29.3682 67.3499Z" fill="#455A64"/>
<path d="M33.459 70.785C33.5523 70.7874 33.6414 70.8246 33.7092 70.8894C33.7769 70.9543 33.8183 71.0421 33.8256 71.136C33.8265 71.2298 33.7918 71.3205 33.7285 71.3893C33.6652 71.458 33.5782 71.4997 33.4853 71.5057C33.3869 71.5033 33.2929 71.4642 33.2215 71.3959C33.15 71.3276 33.1063 71.235 33.0986 71.136C33.111 70.9488 33.3136 70.7491 33.4946 70.7897" fill="#E0E0E0"/>
<path d="M35.8302 73.5353L35.6415 72.8317L27.0668 75.2794C27.0668 75.2794 26.7172 75.5648 26.8394 75.8347L35.8302 73.5353Z" fill="#E0E0E0"/>
<path d="M30.6458 71.9394C30.6598 71.9831 30.884 71.9394 31.1361 72.0236C31.3882 72.1079 31.5553 72.2592 31.5909 72.2296C31.6264 72.1999 31.4919 71.9659 31.1825 71.8723C30.8732 71.7787 30.6242 71.902 30.6458 71.9394Z" fill="#263238"/>
<path d="M29.8167 72.5915C29.8167 72.6367 30.0271 72.6586 30.2266 72.8036C30.4261 72.9487 30.522 73.1328 30.5653 73.1156C30.6086 73.0985 30.5653 72.8458 30.3163 72.6695C30.0673 72.4932 29.8059 72.5494 29.8167 72.5915Z" fill="#263238"/>
<path d="M29.5939 73.8707C29.6357 73.8707 29.6372 73.632 29.4578 73.423C29.2784 73.2139 29.0495 73.1734 29.0418 73.2155C29.034 73.2576 29.1964 73.3512 29.3387 73.5275C29.481 73.7038 29.5491 73.8785 29.5939 73.8707Z" fill="#263238"/>
<path d="M30.4338 70.8552C30.4632 70.8911 30.6472 70.7741 30.8978 70.7226C31.1484 70.6711 31.3618 70.6961 31.3757 70.6508C31.3896 70.6056 31.1592 70.4948 30.8653 70.5666C30.5715 70.6384 30.4029 70.824 30.4338 70.8552Z" fill="#263238"/>
<g opacity="0.3">
<path d="M35.8347 71.8146L35.2856 69.6353L35.6955 69.4434L33.1961 62.5825L32.7197 63.0022L34.684 69.2858L35.3862 71.9098L35.8347 71.8146Z" fill="black"/>
</g>
<path d="M29.9388 54.8309C29.4542 54.7256 28.953 54.7253 28.4683 54.8299C27.9836 54.9345 27.5264 55.1417 27.1269 55.4377C26.4557 55.9463 25.8896 56.7606 26.0768 58.0398C26.4804 60.8852 30.0857 70.5978 30.0857 70.5978L35.0722 69.0846C35.1016 69.0752 35.1294 68.9925 35.1139 69.0191C35.0722 69.0846 32.5836 60.9944 32.6393 61.0896C32.6949 61.1847 37.6737 65.2329 39.7369 65.9771C40.6608 66.3151 41.668 66.3445 42.6097 66.0607C43.5513 65.777 44.3776 65.1953 44.9662 64.4015C45.4488 63.7197 45.4828 60.7245 44.9662 59.1411C44.9662 59.1411 30.5714 55.0259 30.3022 54.9291C30.1833 54.8885 30.0619 54.8557 29.9388 54.8309Z" fill="#407BFF"/>
<path d="M29.7349 57.7902C30.5319 58.3337 31.2049 59.0421 31.7092 59.8685C32.2135 60.6948 32.5375 61.62 32.6596 62.5825" fill="#407BFF"/>
<path d="M45.0439 64.272L44.9836 64.3671C44.9449 64.4311 44.8753 64.5232 44.7856 64.6339C44.5063 64.9598 44.183 65.2444 43.8251 65.4794C43.5652 65.6519 43.2903 65.8002 43.0038 65.9225C42.6596 66.0651 42.2998 66.1661 41.932 66.2236C41.5063 66.286 41.0739 66.286 40.6482 66.2236C40.1676 66.1511 39.7014 66.0021 39.2671 65.7821C39.0382 65.6713 38.8031 65.5434 38.5726 65.4155C38.3422 65.2875 38.1086 65.1456 37.8673 64.9911C37.6261 64.8367 37.3879 64.6885 37.1466 64.5231C36.9053 64.3578 36.6563 64.1924 36.4073 64.0177C35.4112 63.3204 34.3672 62.531 33.2846 61.6621L32.8793 61.3298C32.8113 61.2721 32.7448 61.2175 32.6752 61.1551L32.6226 61.1052C32.6458 61.1052 32.5607 61.1052 32.6736 61.1052C32.6845 61.0646 32.6736 61.0943 32.6736 61.0865V61.1021L32.6814 61.1333L32.7185 61.2612L33.0386 62.3017L33.7176 64.4607C34.1816 65.9323 34.6652 67.4632 35.1684 69.0534L35.1808 69.0908L35.1437 69.1018L30.0907 70.6352L30.0551 70.6461L30.0412 70.6118C29.7149 69.7258 29.373 68.7819 29.0343 67.8241C28.312 65.7836 27.6253 63.7837 27.0237 61.8337C26.7143 60.8587 26.4375 59.8946 26.2148 58.9368C26.1529 58.6981 26.1111 58.4563 26.0678 58.2161C26.0197 57.9764 25.9984 57.732 26.0044 57.4876C26.0106 57.0022 26.155 56.5289 26.4205 56.1241C26.6873 55.7464 27.0294 55.4292 27.425 55.1928C27.8205 54.9564 28.2607 54.806 28.7173 54.7513C29.1532 54.6923 29.5962 54.7145 30.0242 54.8168L30.3335 54.898L30.6429 54.9884L31.243 55.1694L35.6541 56.497L42.0402 58.4236L43.771 58.9524L44.221 59.0912L44.3757 59.1411C44.3757 59.1411 44.3231 59.1287 44.221 59.099L43.771 58.968L42.031 58.4547L35.6355 56.5516L31.2198 55.2334L30.6243 55.054L30.315 54.9619L30.0056 54.8839C29.5855 54.7847 29.1509 54.7641 28.7234 54.8231C28.2832 54.8802 27.8586 55.0244 27.4737 55.2474C27.0771 55.4738 26.7366 55.7879 26.4777 56.1662C26.2212 56.5599 26.0822 57.0196 26.0771 57.4907C26.0713 57.73 26.0926 57.9692 26.1405 58.2036C26.1838 58.4423 26.224 58.681 26.2859 58.9196C26.5086 59.8728 26.7932 60.8353 27.0964 61.8087C27.7011 63.7587 28.3894 65.7571 29.107 67.7976C29.4457 68.7539 29.7876 69.6977 30.1139 70.5822L30.0644 70.5588L35.1174 69.0269L35.0911 69.0768L33.6449 64.4841C33.414 63.7478 33.1897 63.0287 32.9721 62.3267L32.6535 61.2846L32.6164 61.1551L32.6071 61.1224V61.1036C32.6071 61.0927 32.5994 61.1161 32.6071 61.0693C32.6891 61.0927 32.6628 61.0584 32.669 61.0693L32.7138 61.1099L32.9134 61.2799L33.317 61.6122C34.3997 62.4827 35.4391 63.2736 36.432 63.9725C36.681 64.1472 36.9254 64.3188 37.1682 64.4795C37.4111 64.6401 37.6508 64.7915 37.8874 64.9475C38.1241 65.1035 38.3607 65.2345 38.5896 65.3734C38.8185 65.5122 39.0536 65.6292 39.2794 65.74C39.7084 65.9601 40.1694 66.1096 40.6452 66.183C41.0672 66.2454 41.496 66.2454 41.9181 66.183C42.2829 66.1282 42.64 66.0303 42.9822 65.8913C43.2678 65.7717 43.5417 65.6254 43.8004 65.4545C44.1588 65.2239 44.4837 64.9441 44.7655 64.623C44.8567 64.5091 44.9279 64.4249 44.9681 64.3609C45.0083 64.297 45.0439 64.272 45.0439 64.272Z" fill="#263238"/>
<path d="M30.3672 58.8619C30.5126 58.9235 30.6506 59.0015 30.7786 59.0943C31.0961 59.304 31.3943 59.5421 31.6695 59.8057C31.9456 60.0699 32.1938 60.3621 32.4103 60.6777C32.4923 60.7994 32.5542 60.9008 32.5928 60.9726C32.6166 61.0084 32.6343 61.048 32.6454 61.0896C32.6346 61.0896 32.5387 60.9429 32.3639 60.7105C32.1364 60.4091 31.8856 60.1264 31.6138 59.865C31.3408 59.6046 31.051 59.3627 30.7461 59.1411C30.6143 59.0559 30.4878 58.9626 30.3672 58.8619Z" fill="#263238"/>
<path d="M32.0703 58.3019C32.1437 58.4206 32.2024 58.5479 32.2451 58.681C32.3657 58.9966 32.4624 59.3209 32.5343 59.6513C32.6072 59.981 32.6558 60.3158 32.6797 60.6528C32.6974 60.7921 32.6974 60.9331 32.6797 61.0724C32.6513 60.9361 32.6322 60.798 32.6225 60.659C32.5915 60.4032 32.5405 60.0522 32.4554 59.6684C32.3835 59.3417 32.2952 59.0189 32.191 58.7012C32.14 58.5717 32.0996 58.4381 32.0703 58.3019Z" fill="#263238"/>
<path d="M36.2246 37.44L37.7125 44.3648C37.9662 45.5426 38.0992 47.3288 36.2339 47.6408C34.596 47.7968 33.8629 46.3523 33.6278 45.2525C33.5164 44.7314 33.4221 44.2978 33.4066 44.2447C33.4066 44.2447 31.6233 44.4616 31.1222 42.744C30.8794 41.9141 30.519 40.1638 30.2112 38.5772C30.052 37.755 30.2055 36.9024 30.6411 36.189C31.0767 35.4757 31.7625 34.9538 32.5621 34.7272L32.7261 34.6804C34.5326 34.2888 35.8828 35.6132 36.2246 37.44Z" fill="#FFBE9D"/>
<path d="M33.4082 44.2509C34.1967 44.0252 34.9046 43.5764 35.4483 42.9577C35.4483 42.9577 35.2642 44.4116 33.5165 44.7408L33.4082 44.2509Z" fill="#EB996E"/>
<path d="M30.7046 39.3682C30.7449 39.3962 30.9707 39.273 31.2986 39.2699C31.6265 39.2668 31.8739 39.3775 31.908 39.3479C31.942 39.3182 31.8832 39.2855 31.7765 39.234C31.6227 39.1654 31.4558 39.1318 31.2877 39.1357C31.1264 39.1369 30.9676 39.1759 30.8237 39.2496C30.7186 39.312 30.6861 39.3572 30.7046 39.3682Z" fill="#263238"/>
<path d="M33.4172 38.9095C33.4636 38.9095 33.6121 38.7067 33.9044 38.5569C34.1968 38.4072 34.4628 38.4009 34.4813 38.3541C34.4999 38.3073 34.4334 38.3105 34.3143 38.312C34.1473 38.3207 33.9842 38.3659 33.8364 38.4446C33.6902 38.5179 33.563 38.6248 33.4652 38.7566C33.408 38.844 33.3956 38.9064 33.4172 38.9095Z" fill="#263238"/>
<path d="M33.5027 39.4165C33.5162 39.4661 33.5482 39.5085 33.5921 39.5347C33.636 39.5609 33.6882 39.5689 33.7378 39.5569C33.7631 39.5528 33.7873 39.5436 33.8089 39.5298C33.8306 39.516 33.8492 39.4978 33.8636 39.4765C33.8781 39.4552 33.8881 39.4312 33.8931 39.4058C33.898 39.3805 33.8978 39.3544 33.8925 39.3291C33.8787 39.2798 33.8466 39.2376 33.8028 39.2115C33.759 39.1853 33.7069 39.1772 33.6574 39.1887C33.6321 39.1928 33.6079 39.2021 33.5863 39.2159C33.5646 39.2297 33.546 39.2478 33.5315 39.2691C33.5171 39.2904 33.5071 39.3145 33.5021 39.3398C33.4971 39.3652 33.4974 39.3912 33.5027 39.4165Z" fill="#263238"/>
<path d="M31.0064 39.9999C31.0199 40.0495 31.0519 40.0919 31.0958 40.1181C31.1397 40.1443 31.1919 40.1523 31.2415 40.1403C31.2659 40.1353 31.2891 40.1255 31.3098 40.1114C31.3304 40.0973 31.3481 40.0792 31.3617 40.0581C31.3754 40.0371 31.3848 40.0136 31.3894 39.9888C31.3939 39.9641 31.3936 39.9387 31.3884 39.9141C31.3753 39.8643 31.3433 39.8217 31.2994 39.7954C31.2554 39.7692 31.2029 39.7614 31.1533 39.7737C31.1288 39.7786 31.1055 39.7883 31.0847 39.8023C31.064 39.8164 31.0463 39.8345 31.0326 39.8556C31.0189 39.8767 31.0095 39.9003 31.005 39.9251C31.0005 39.9499 31.001 39.9753 31.0064 39.9999Z" fill="#263238"/>
<path d="M33.003 40.872C32.8522 40.8669 32.7015 40.8816 32.5545 40.9157C32.4849 40.9266 32.4184 40.9313 32.3998 40.8892C32.3747 40.8207 32.3709 40.7461 32.389 40.6754C32.406 40.4945 32.4245 40.3042 32.4431 40.1045C32.5143 39.2933 32.5467 38.6334 32.5143 38.6318C32.4818 38.6303 32.3983 39.2839 32.3271 40.0951C32.3101 40.2948 32.2946 40.4851 32.2807 40.6676C32.2619 40.7609 32.2755 40.8579 32.3194 40.9422C32.3357 40.9633 32.3566 40.9803 32.3805 40.9919C32.4043 41.0035 32.4305 41.0095 32.457 41.0093C32.4972 41.0096 32.5373 41.0044 32.5761 40.9937C32.7229 40.9714 32.8663 40.9305 33.003 40.872Z" fill="#263238"/>
<path d="M33.2196 37.5648C33.2598 37.6225 33.4826 37.5274 33.7641 37.4837C34.0456 37.44 34.2868 37.4556 34.3054 37.387C34.3147 37.3542 34.259 37.3027 34.1507 37.2653C34.0122 37.2193 33.8646 37.208 33.7208 37.2325C33.5767 37.2544 33.4401 37.3117 33.3233 37.3994C33.2366 37.4696 33.2011 37.5352 33.2196 37.5648Z" fill="#263238"/>
<path d="M30.5714 38.6739C30.6131 38.7207 30.8266 38.6147 31.1003 38.5491C31.3741 38.4836 31.6076 38.4727 31.6262 38.4119C31.6262 38.3838 31.5782 38.3448 31.4715 38.3229C31.3319 38.2969 31.1882 38.3022 31.0508 38.3385C30.9117 38.3716 30.781 38.4338 30.6672 38.5211C30.5868 38.5913 30.5528 38.6505 30.5714 38.6739Z" fill="#263238"/>
<path d="M36.4395 38.7613C36.4657 38.7395 37.5221 38.078 37.8067 39.2667C38.0913 40.4555 36.8555 40.5038 36.8447 40.4711C36.8339 40.4383 36.4395 38.7613 36.4395 38.7613Z" fill="#FFBE9D"/>
<path d="M37.0939 39.936C37.0939 39.936 37.1187 39.9453 37.1574 39.9516C37.2114 39.9612 37.267 39.9489 37.312 39.9173C37.4249 39.8393 37.4806 39.6146 37.4342 39.3993C37.4126 39.2965 37.3682 39.2 37.3043 39.117C37.2842 39.0826 37.2561 39.0537 37.2224 39.0327C37.1887 39.0118 37.1505 38.9995 37.111 38.9969C37.0859 38.9963 37.0613 39.0045 37.0416 39.0202C37.0218 39.0358 37.0081 39.0579 37.0027 39.0827C36.995 39.1201 37.0027 39.1419 37.0027 39.1466C37.0027 39.1513 36.9733 39.1326 36.9702 39.0811C36.9701 39.0502 36.9799 39.0201 36.9981 38.9953C37.0109 38.9787 37.027 38.9648 37.0454 38.9546C37.0637 38.9444 37.0839 38.9381 37.1048 38.936C37.1555 38.9339 37.206 38.9448 37.2515 38.9677C37.2969 38.9906 37.3358 39.0248 37.3646 39.0671C37.4404 39.1569 37.4935 39.264 37.5193 39.3791C37.5703 39.6209 37.5038 39.8751 37.3461 39.9672C37.3165 39.9842 37.2835 39.9944 37.2496 39.9971C37.2156 39.9998 37.1815 39.9949 37.1496 39.9828C37.1032 39.9594 37.0909 39.936 37.0939 39.936Z" fill="#EB996E"/>
<path d="M33.4498 41.652C33.4313 41.6239 33.6494 41.5054 33.7685 41.2526C33.8173 41.1416 33.8516 41.0247 33.8705 40.9047C33.8876 40.8111 33.903 40.7487 33.9154 40.7487C33.9278 40.7487 33.937 40.8096 33.9386 40.9047C33.9384 41.0362 33.9099 41.1661 33.8551 41.2854C33.7986 41.4064 33.7103 41.5094 33.5999 41.5833C33.5164 41.6426 33.456 41.652 33.4498 41.652Z" fill="#263238"/>
<path d="M28.5081 37.7972C28.4608 37.8303 28.423 37.8755 28.3985 37.9281C28.3741 37.9807 28.3639 38.0389 28.3689 38.0968C28.3831 38.1811 28.4244 38.2584 28.4865 38.3168C28.5485 38.3751 28.6279 38.4113 28.7123 38.4197C28.797 38.4243 28.8814 38.407 28.9575 38.3693C29.0336 38.3316 29.0988 38.2748 29.1469 38.2044C29.0991 38.2577 29.06 38.3182 29.0309 38.3838C29.0037 38.4531 29.0019 38.5299 29.026 38.6003C29.05 38.6708 29.0983 38.7302 29.162 38.7679C29.2257 38.8056 29.3007 38.819 29.3734 38.8058C29.4461 38.7926 29.5117 38.7536 29.5583 38.6958C29.631 38.7769 29.6898 38.8627 29.7517 38.947L29.7656 38.9626C29.8042 39.0156 29.8429 39.0671 29.8878 39.1186L30.4585 39.8221C30.3842 39.326 30.2017 38.6381 30.129 38.1404C30.4933 38.0537 30.8366 37.8938 31.1382 37.6703C31.4398 37.4467 31.6936 37.1641 31.8845 36.8394C32.0918 36.4868 32.2248 36.0703 32.5449 35.8192C32.9594 35.4962 33.5395 35.5508 34.0591 35.6195L34.0344 35.6054C34.3121 35.6713 34.5746 35.7905 34.8077 35.9564C34.8951 36.9511 35.1937 37.9152 35.6831 38.7832C35.7574 38.9126 35.9399 39.1747 36.0853 39.1997C36.3745 39.2496 36.3946 38.961 36.5214 38.7816C36.6442 38.6535 36.8093 38.5753 36.9854 38.5616C37.0366 38.1268 37.0614 37.6892 37.0597 37.2512L37.1401 36.7926L36.9854 36.3246C36.6529 35.9518 37.1401 35.6257 36.9035 35.1827C36.6668 34.7396 36.3126 34.3028 35.8208 34.2326H35.8115C35.3661 34.1515 34.8588 34.2529 34.5742 34.6102C34.3638 34.0049 33.7235 33.6227 33.0878 33.5868C32.4521 33.5509 31.5056 33.8458 30.9751 34.1999C30.5637 34.4729 30.2017 34.9331 29.7919 35.5867C29.6171 35.8628 29.546 36.6865 29.4176 36.9907L28.5081 37.7972Z" fill="#263238"/>
<path d="M33.6665 32.785C33.7546 32.785 35.9231 32.8988 36.7119 34.3777C37.5007 35.8566 37.4295 36.3652 37.4295 36.3652C37.5195 36.4048 37.6034 36.4574 37.6785 36.5212C37.7837 36.6085 37.7404 37.1249 37.4574 37.1171C35.2642 36.557 32.8328 36.8815 30.1571 37.4291L28.0923 37.752C27.5262 37.9189 27.2973 37.7988 27.5169 37.6116C27.684 37.4665 29.209 36.5196 29.209 36.5196L29.4905 36.2279L30.1401 34.8925C30.1211 34.8686 30.1073 34.8409 30.0996 34.8113C30.0919 34.7816 30.0903 34.7507 30.0952 34.7205C30.1 34.6902 30.111 34.6613 30.1275 34.6356C30.144 34.6099 30.1657 34.5879 30.1911 34.5712C30.3767 34.3996 31.9218 32.838 33.6665 32.785Z" fill="#407BFF"/>
<path d="M29.4902 36.231C29.4902 36.231 29.5181 36.231 29.5707 36.217L29.7996 36.1733C29.9975 36.1296 30.2868 36.0828 30.6456 36.0298C31.5803 35.9024 32.5244 35.8585 33.4667 35.8987C34.4093 35.9424 35.3486 36.0403 36.2801 36.192C36.6389 36.2466 36.9282 36.2965 37.1277 36.3293L37.3581 36.3667L37.4386 36.3776L37.3597 36.3589L37.1292 36.3152C36.9312 36.2778 36.642 36.2248 36.2847 36.1592C35.3528 36.0026 34.4122 35.9036 33.4683 35.8628C32.5235 35.8232 31.5771 35.8707 30.641 36.0048C29.9248 36.114 29.4902 36.231 29.4902 36.231Z" fill="#263238"/>
<g opacity="0.3">
<path d="M35.7282 33.384C35.7282 33.384 33.4159 33.4043 32.4895 34.0673L32.5977 33.9877L31.7161 34.5743C31.5615 34.6726 31.3913 34.7771 31.2212 34.7209C31.5935 34.2976 32.0403 33.9475 32.539 33.6882C33.4283 33.203 34.9007 32.8068 35.7282 33.384Z" fill="black"/>
</g>
<path d="M35.7651 33.384C35.6927 33.3459 35.6178 33.3131 35.5408 33.2857C35.3312 33.2079 35.1131 33.1556 34.8912 33.1297C34.5623 33.0896 34.2293 33.0985 33.9029 33.1562C33.5007 33.217 33.1161 33.3644 32.7754 33.5884C32.6023 33.7075 32.437 33.8378 32.2804 33.9784C32.1258 34.1141 31.9711 34.2358 31.8412 34.3684C31.7214 34.4973 31.591 34.6158 31.4514 34.7225C31.3255 34.8064 31.1821 34.8598 31.0323 34.8785C30.4801 34.9814 30.1213 34.9253 30.1398 34.8863C30.1524 34.9036 30.1704 34.9163 30.1909 34.9222C30.2493 34.9392 30.3096 34.9486 30.3703 34.9502C30.5935 34.9589 30.817 34.9432 31.0369 34.9034C31.1915 34.8838 31.3394 34.8277 31.4684 34.7396C31.6104 34.6334 31.7428 34.5149 31.8644 34.3855C31.9958 34.256 32.1505 34.1328 32.3021 33.9986C32.4581 33.8598 32.6224 33.7306 32.7939 33.6118C33.1312 33.3904 33.5114 33.2442 33.9091 33.1828C34.2321 33.1236 34.5618 33.1121 34.8881 33.1484C35.1087 33.1721 35.326 33.2202 35.5362 33.292C35.6104 33.3185 35.6661 33.3403 35.7048 33.3559C35.7434 33.3715 35.7651 33.384 35.7651 33.384Z" fill="#263238"/>
<g opacity="0.3">
<path d="M37.018 34.9986C36.6143 35.0657 36.2895 35.0126 35.875 34.9986C35.4311 34.9783 34.9965 34.9752 34.5542 34.9346C34.2201 34.9019 33.8288 34.8894 33.5798 34.6928C33.5774 34.775 33.5961 34.8563 33.6341 34.929C33.672 35.0017 33.7279 35.0633 33.7963 35.1078C34.0296 35.2112 34.2785 35.2745 34.5325 35.295C35.5116 35.3917 36.1875 35.451 37.1619 35.3527C37.1185 35.2327 37.0668 35.116 37.0072 35.0033" fill="black"/>
</g>
<path d="M36.6175 34.217C36.8912 34.2857 37.0614 34.334 37.1062 34.5509C37.1433 34.7334 37.1433 34.9627 36.9717 35.0267C36.9174 35.0421 36.8608 35.0474 36.8046 35.0423L33.9232 34.9565C33.8251 34.9644 33.7273 34.938 33.6463 34.8816C33.5984 34.8233 33.575 34.7484 33.581 34.6729C33.5871 34.5974 33.6222 34.5273 33.6788 34.4776C33.7962 34.3823 33.9387 34.3238 34.0887 34.3091C34.9237 34.1638 35.7743 34.1328 36.6175 34.217Z" fill="#407BFF"/>
<path d="M33.6976 34.9144C33.6558 34.8881 33.6225 34.8502 33.6017 34.8052C33.5749 34.7439 33.5657 34.6763 33.5753 34.6101C33.5849 34.5439 33.6128 34.4817 33.6558 34.4308C33.8052 34.2977 33.995 34.2196 34.1941 34.2092C34.4199 34.1827 34.6689 34.1546 34.9303 34.1359C35.3761 34.099 35.8244 34.1021 36.2697 34.1453C36.4398 34.1624 36.579 34.1858 36.6718 34.2014L36.7801 34.2217H36.8188C36.8072 34.2155 36.7946 34.2112 36.7816 34.2092L36.6749 34.1827C36.5806 34.1624 36.4429 34.1359 36.2712 34.1156C35.8249 34.0648 35.3747 34.0585 34.9272 34.0969C34.6658 34.1156 34.4168 34.1437 34.191 34.1718C33.9844 34.1836 33.7885 34.2681 33.6373 34.4105C33.5923 34.4649 33.5639 34.5312 33.5554 34.6015C33.5469 34.6717 33.5587 34.743 33.5893 34.8067C33.6071 34.8403 33.6319 34.8695 33.662 34.8925C33.6837 34.9097 33.696 34.9159 33.6976 34.9144Z" fill="#263238"/>
<path d="M29.9359 35.3137L31.6821 34.9752L31.6187 35.4993L29.707 35.7864L29.9359 35.3137Z" fill="white"/>
<path d="M32.8527 36.426C32.8527 36.4151 32.0515 36.4385 31.0647 36.4744C30.0779 36.5102 29.2783 36.5508 29.2783 36.5602C29.2783 36.5695 30.0795 36.5477 31.0663 36.5102C32.053 36.4728 32.8527 36.4354 32.8527 36.426Z" fill="#263238"/>
<path d="M11.7625 48.5019H10.4092V45.5255C10.4067 45.099 10.5721 44.689 10.869 44.3854C11.166 44.0818 11.5702 43.9095 11.993 43.9062H13.4082V45.2915H11.993C11.9317 45.2919 11.8731 45.3167 11.8299 45.3606C11.7868 45.4044 11.7625 45.4637 11.7625 45.5255V48.5019Z" fill="#E0E0E0"/>
<path d="M12.4664 45.6924C12.423 45.522 12.4472 45.3413 12.5338 45.1887C12.6205 45.036 12.7628 44.9235 12.9304 44.875C13.6295 44.6675 14.7137 44.407 15.0091 44.6784C15.4561 45.0902 16.5233 46.0824 16.5233 46.0824L18.7969 46.6315L18.933 48.6876L14.9318 47.5316C14.9318 47.5316 13.8491 47.5909 13.9404 47.0028C13.9404 47.0028 13.3975 46.7875 13.4764 46.4552C13.5552 46.123 14.0007 46.0434 14.0007 46.0434L13.9032 45.4553L12.4726 45.708L12.4664 45.6924Z" fill="#FFBE9D"/>
<path d="M13.1315 46.1276C13.8875 46.1276 14.5003 45.5095 14.5003 44.747C14.5003 43.9845 13.8875 43.3664 13.1315 43.3664C12.3755 43.3664 11.7627 43.9845 11.7627 44.747C11.7627 45.5095 12.3755 46.1276 13.1315 46.1276Z" fill="white"/>
<path d="M13.1312 46.2056C12.8452 46.2056 12.5656 46.1201 12.3278 45.9598C12.0899 45.7995 11.9046 45.5717 11.7951 45.3052C11.6857 45.0387 11.657 44.7454 11.7128 44.4625C11.7686 44.1795 11.9064 43.9196 12.1086 43.7156C12.3109 43.5116 12.5685 43.3727 12.8491 43.3164C13.1296 43.2602 13.4204 43.2891 13.6846 43.3995C13.9488 43.5099 14.1747 43.6968 14.3336 43.9367C14.4925 44.1765 14.5773 44.4585 14.5773 44.747C14.5773 45.1339 14.425 45.5049 14.1538 45.7784C13.8826 46.0519 13.5147 46.2056 13.1312 46.2056ZM13.1312 43.4444C12.8758 43.4444 12.6261 43.5208 12.4137 43.6639C12.2013 43.8071 12.0358 44.0105 11.938 44.2485C11.8403 44.4866 11.8147 44.7485 11.8645 45.0011C11.9144 45.2538 12.0374 45.4859 12.218 45.6681C12.3986 45.8503 12.6287 45.9743 12.8792 46.0246C13.1298 46.0749 13.3894 46.0491 13.6254 45.9505C13.8614 45.8519 14.0631 45.6849 14.205 45.4707C14.3469 45.2565 14.4227 45.0047 14.4227 44.747C14.4222 44.4017 14.2861 44.0706 14.0439 43.8264C13.8018 43.5822 13.4736 43.4448 13.1312 43.4444Z" fill="#E0E0E0"/>
<path d="M14.9086 45.5598L13.1021 45.0918C13.1021 45.0918 12.618 44.9545 12.8701 45.4833C13.1222 46.0122 13.8801 45.8936 14.1709 46.2072C14.4616 46.5207 14.6271 47.0496 15.832 47.2461" fill="#FFBE9D"/>
<path d="M15.8317 47.2446C15.7516 47.2416 15.6718 47.2311 15.5935 47.2134C15.3795 47.1729 15.1716 47.1047 14.9749 47.0106C14.8379 46.9427 14.7109 46.8561 14.5975 46.7532C14.4705 46.6333 14.3555 46.5011 14.2541 46.3585C14.2023 46.2849 14.1391 46.2201 14.067 46.1666C13.9883 46.1166 13.9028 46.0783 13.8133 46.0527C13.6137 46.0023 13.4174 45.9392 13.2256 45.864C13.1268 45.8177 13.0368 45.7543 12.9596 45.6768C12.8918 45.5961 12.8394 45.5036 12.8049 45.4038C12.7867 45.3535 12.7748 45.3011 12.7693 45.2478C12.7678 45.2188 12.7725 45.1898 12.7832 45.1629C12.7939 45.136 12.8103 45.1117 12.8312 45.0918C12.8755 45.0577 12.9302 45.0401 12.9859 45.0419C13.035 45.0422 13.0839 45.049 13.1312 45.0621L14.0592 45.3133L14.6779 45.4911C14.7561 45.5081 14.8323 45.5332 14.9053 45.566C14.8258 45.5575 14.7472 45.5424 14.6702 45.5208L14.0376 45.3648L13.1003 45.1292C13.0624 45.1152 13.022 45.1095 12.9817 45.1125C12.9414 45.1154 12.9023 45.127 12.8668 45.1464C12.8142 45.1885 12.8312 45.2915 12.8668 45.3773C12.8999 45.4677 12.9492 45.5512 13.0122 45.6237C13.0825 45.6929 13.1641 45.7494 13.2534 45.7907C13.4417 45.8655 13.6344 45.9285 13.8303 45.9794C13.9273 46.0068 14.0197 46.0489 14.1041 46.1042C14.1819 46.163 14.2502 46.2335 14.3067 46.3133C14.4041 46.4539 14.5144 46.585 14.6362 46.7048C14.747 46.8043 14.8702 46.8887 15.0027 46.956C15.1951 47.0523 15.3974 47.1271 15.6059 47.1791C15.6829 47.1944 15.7585 47.2163 15.8317 47.2446Z" fill="#EB996E"/>
<path d="M13.1222 44.747L13.3248 44.6285L12.7324 43.822L13.1222 44.747Z" fill="#407BFF"/>
<path d="M12.0503 43.783C12.0596 43.7923 11.9838 43.8641 11.9065 44.0076C11.8057 44.1955 11.7457 44.4029 11.7302 44.616C11.7114 44.8298 11.7356 45.0452 11.8013 45.2493C11.838 45.3315 11.8695 45.4159 11.8957 45.5021C11.8268 45.4378 11.7738 45.3582 11.741 45.2696C11.6555 45.061 11.6216 44.8345 11.642 44.6097C11.6573 44.384 11.7286 44.1656 11.8493 43.9748C11.9529 43.836 12.0457 43.7752 12.0503 43.783Z" fill="#263238"/>
<path d="M18.7815 46.3866L26.4436 47.2446L32.969 45.708L33.0294 51.1555C33.0294 51.1555 25.9008 50.9012 25.4352 50.8622C24.9697 50.8232 18.6206 49.9809 18.6206 49.9809L18.7815 46.3866Z" fill="#407BFF"/>
<path d="M20.2629 46.5519L20.2227 50.1992L21.5868 50.3786L21.6162 46.7033L20.2629 46.5519Z" fill="white"/>
<path d="M37.3443 42.3946L37.9166 42.8797L41.7462 44.1776L43.9563 47.4692C43.9563 47.4692 44.9849 57.266 44.9292 58.124C44.8735 58.982 44.9725 59.1412 44.9725 59.1412L33.3184 55.8012L32.6997 50.4551L32.9688 45.708L33.5334 44.8188L34.1752 45.8749L35.3058 44.2822L37.3443 42.3946Z" fill="#407BFF"/>
<path d="M44.309 50.9231L32.644 50.4753L32.859 52.391L44.5255 53.1195L44.309 50.9231Z" fill="white"/>
<path d="M32.2685 48.1338C32.28 48.1573 32.2873 48.1826 32.2901 48.2087C32.3025 48.2695 32.3164 48.3413 32.335 48.4302C32.3736 48.6221 32.4216 48.8982 32.4773 49.2476C32.5871 49.9403 32.7108 50.9012 32.8345 51.962C32.9583 53.0228 33.0712 53.99 33.1686 54.678C33.215 55.015 33.2552 55.2926 33.2846 55.4986C33.2954 55.5875 33.3063 55.6546 33.314 55.7216C33.3181 55.748 33.3181 55.7748 33.314 55.8012C33.305 55.7764 33.2982 55.7508 33.2939 55.7247C33.2815 55.6655 33.2661 55.5922 33.249 55.5032C33.2104 55.3114 33.1624 55.0352 33.1067 54.6858C32.9969 53.9931 32.8717 53.0338 32.7495 51.9714C32.6273 50.909 32.5113 49.9434 32.4154 49.257C32.3674 48.9185 32.3288 48.6423 32.2994 48.4364C32.287 48.3459 32.2777 48.2726 32.27 48.2118C32.2661 48.186 32.2655 48.1597 32.2685 48.1338Z" fill="#263238"/>
<path d="M34.1816 45.8811C34.2058 45.8416 34.2338 45.8045 34.2652 45.7704L34.5157 45.4771L35.4081 44.4647L35.4329 44.4366L35.4607 44.4615L36.2604 45.1869L36.3269 45.2478H36.2681C36.7491 44.6129 37.1837 44.0435 37.5054 43.6347L37.8844 43.1558C37.9309 43.0947 37.9826 43.0378 38.039 42.9858C38.0045 43.0526 37.9636 43.1158 37.9168 43.1745C37.8225 43.3025 37.7034 43.4694 37.558 43.6691C37.2487 44.0871 36.8233 44.6612 36.3423 45.2961L36.316 45.332L36.2836 45.3024C36.2635 45.2821 36.2403 45.2618 36.2171 45.2415L35.4221 44.5115H35.4747L34.5606 45.5021L34.2945 45.7829C34.2614 45.8205 34.2234 45.8536 34.1816 45.8811Z" fill="#263238"/>
<path d="M34.0347 45.9623C33.8396 45.8073 33.6709 45.6213 33.5351 45.4116H33.5985C33.5552 45.4693 33.5103 45.5333 33.467 45.6004C33.3607 45.7647 33.2666 45.9367 33.1855 46.1152L33.1623 46.1666L33.1314 46.123C33.0498 46.0247 32.9812 45.9161 32.9272 45.8C33.0233 45.8836 33.1085 45.9789 33.1809 46.084H33.1268C33.2019 45.8972 33.2963 45.7189 33.4083 45.552C33.4516 45.4849 33.498 45.4194 33.5428 45.3601L33.5768 45.318L33.6062 45.3617C33.8382 45.7158 34.0501 45.9482 34.0347 45.9623Z" fill="#263238"/>
<path d="M25.3545 49.8186L29.6666 53.3458L30.7075 52.0853L26.4959 48.4988L25.3545 49.8186Z" fill="#263238"/>
<path d="M25.9038 49.1618C25.9038 49.1618 25.4831 48.6346 24.5242 48.2056C23.9518 47.9504 23.3058 47.9187 22.7115 48.1166L22.6543 47.9731C23.2867 47.755 23.9775 47.7868 24.5876 48.062C25.5837 48.5098 26.0075 49.0433 26.0245 49.0667L25.9038 49.1618Z" fill="#263238"/>
<path d="M28.7419 50.4114C28.7419 50.4114 29.5755 50.5175 29.8632 50.6672C30.1509 50.817 30.9845 51.377 30.9845 51.377L32.6688 51.6984L32.2667 54.5064L31.1392 53.9417L28.6568 54.1913C28.6568 54.1913 28.1155 54.0665 28.1155 53.6765C27.9865 53.5974 27.8764 53.4905 27.7933 53.3635C27.7101 53.2365 27.6559 53.0924 27.6344 52.9417C27.6344 52.9417 26.9694 52.0619 26.9091 51.8919C26.8487 51.7218 27.1875 51.3209 27.1875 51.3209C27.1875 51.3209 27.8958 51.9262 28.3273 52.0213C28.7589 52.1165 29.1486 51.9449 29.1857 51.6656C29.26 51.0962 28.7419 50.4114 28.7419 50.4114Z" fill="#E0E0E0"/>
<g opacity="0.3">
<path d="M33.2272 55.2505C33.2272 55.2505 38.8803 57.2957 40.7765 57.174C42.3835 57.071 43.1738 56.3113 43.3007 55.2505C43.4275 54.1897 43.61 49.6844 43.61 49.6844L40.577 54.9884L33.1963 54.756L33.2272 55.2505Z" fill="black"/>
</g>
<path d="M42.4034 54.965C42.8102 53.7935 43.2572 51.533 43.2572 51.533L43.9625 47.7797C43.9863 46.8003 43.6608 45.8449 43.0453 45.0871C42.5813 44.5286 41.9348 44.0497 41.0718 44.0544C39.242 44.0622 39.307 47.463 39.307 47.463L38.809 52.3333L31.651 51.168L31.1963 54.639L39.6148 56.472C39.9672 56.5602 40.3344 56.5701 40.691 56.5009C41.0475 56.4316 41.3849 56.285 41.6796 56.0711C42.028 55.7863 42.2807 55.4 42.4034 54.965Z" fill="#407BFF"/>
<path d="M41.2745 44.3617C41.2745 44.3742 41.1275 44.3789 40.9033 44.4397C40.6108 44.5157 40.3396 44.6589 40.111 44.8581C39.8824 45.0572 39.7026 45.307 39.5855 45.5879C39.4943 45.8032 39.4695 45.9482 39.4556 45.9467C39.4544 45.8157 39.4808 45.686 39.5329 45.566C39.6397 45.268 39.8207 45.0027 40.0585 44.7956C40.2963 44.5885 40.583 44.4466 40.8909 44.3836C41.0159 44.3494 41.1465 44.3419 41.2745 44.3617Z" fill="#263238"/>
<path d="M33.4807 51.4628L33.2271 55.0758L34.6933 55.394L34.9191 51.6999L33.4807 51.4628Z" fill="white"/>
<path d="M43.9624 47.7859C43.9624 47.7859 43.9624 47.8156 43.9485 47.8764C43.9346 47.9372 43.9237 48.0324 43.9036 48.1385C43.8619 48.374 43.8 48.7141 43.7211 49.1509C43.6422 49.5877 43.5417 50.1275 43.4288 50.7499C43.37 51.0619 43.3128 51.3958 43.2401 51.7483C43.1674 52.1009 43.0854 52.4722 43.0004 52.8606C42.9153 53.249 42.8148 53.6578 42.7019 54.079C42.6462 54.2896 42.5843 54.5033 42.5178 54.7201C42.4531 54.9432 42.3709 55.1607 42.2719 55.3706C42.1684 55.5902 42.0276 55.7898 41.8558 55.9603C41.6729 56.1282 41.4639 56.2647 41.2372 56.3644C40.7579 56.5688 40.2287 56.6231 39.7183 56.5204L33.0677 55.0758L31.1978 54.6686L31.1606 54.6608V54.6234C31.3153 53.4253 31.47 52.2631 31.6154 51.1524V51.1134H31.654L38.8213 52.3115L38.7888 52.3364C38.9435 50.8248 39.078 49.6096 39.1662 48.7672C39.2126 48.3506 39.2482 48.0277 39.2729 47.8046C39.2853 47.697 39.2946 47.6143 39.3023 47.555C39.31 47.4958 39.3147 47.4692 39.3147 47.4692C39.3147 47.4692 39.3147 47.4989 39.3147 47.555C39.3147 47.6112 39.3023 47.697 39.293 47.8062C39.2714 48.0293 39.2404 48.3538 39.2018 48.7703C39.1182 49.6127 38.9976 50.8295 38.8491 52.3411V52.3708H38.8197L31.6602 51.2054L31.7035 51.1711C31.5597 52.2834 31.4081 53.444 31.2519 54.6437L31.221 54.5984L33.0909 55.0056L39.7416 56.4548C40.2383 56.553 40.7528 56.4987 41.2186 56.2988C41.4403 56.2045 41.6443 56.0726 41.8218 55.9088C41.9894 55.7449 42.1266 55.552 42.227 55.3394C42.3242 55.1329 42.4054 54.919 42.4699 54.6998C42.5379 54.4846 42.5998 54.2724 42.6555 54.0618C42.7699 53.6422 42.8689 53.2366 42.9648 52.8481C43.0607 52.4597 43.1365 52.0884 43.2107 51.7374C43.285 51.3864 43.3437 51.0526 43.4041 50.7421C43.5232 50.1181 43.6268 49.5846 43.7134 49.1447C43.8 48.7048 43.8681 48.3647 43.9114 48.1354C43.9346 48.023 43.9516 47.9357 43.964 47.8748C43.9763 47.814 43.9624 47.7859 43.9624 47.7859Z" fill="#263238"/>
<path d="M39.6414 53.5735C39.4664 53.375 39.311 53.1597 39.1774 52.9308L38.8758 52.4628C38.8337 52.4023 38.7736 52.3569 38.7041 52.3333C38.7041 52.3333 38.7258 52.3193 38.7706 52.3333C38.831 52.35 38.8849 52.3849 38.9253 52.4332C39.0212 52.5486 39.1263 52.7124 39.2485 52.9012C39.4013 53.1116 39.5329 53.3368 39.6414 53.5735Z" fill="#263238"/>
<g opacity="0.3">
<path d="M34.4258 45.6035L35.3971 44.9998L36.4658 46.1433L37.8578 43.2104L36.2942 45.2774L35.4296 44.4897L34.4258 45.6035Z" fill="black"/>
</g>
<path d="M9.80267 43.9296H8.04102V48.477H9.80267V43.9296Z" fill="#E0E0E0"/>
<path d="M8.96175 44.1948C10.214 44.1948 11.2292 43.159 11.2292 41.8813C11.2292 40.6036 10.214 39.5678 8.96175 39.5678C7.70949 39.5678 6.69434 40.6036 6.69434 41.8813C6.69434 43.159 7.70949 44.1948 8.96175 44.1948Z" fill="white"/>
<path d="M8.96171 44.2728C8.49174 44.2777 8.03091 44.1417 7.63775 43.8819C7.24459 43.6222 6.93684 43.2504 6.75359 42.8139C6.57033 42.3774 6.51983 41.8958 6.6085 41.4302C6.69717 40.9647 6.92102 40.5363 7.25161 40.1993C7.5822 39.8623 8.00461 39.6321 8.46521 39.5378C8.92581 39.4435 9.40381 39.4893 9.83851 39.6696C10.2732 39.8498 10.645 40.1563 10.9066 40.5501C11.1683 40.9439 11.308 41.4073 11.308 41.8813C11.3109 42.5121 11.0654 43.1183 10.6255 43.5667C10.1855 44.0151 9.58714 44.2691 8.96171 44.2728ZM8.96171 39.6458C8.52233 39.6409 8.09141 39.7678 7.72369 40.0104C7.35596 40.253 7.06804 40.6004 6.89648 41.0084C6.72493 41.4164 6.67749 41.8667 6.7602 42.3019C6.8429 42.7372 7.05202 43.1379 7.36097 43.453C7.66993 43.7681 8.06479 43.9835 8.49538 44.0718C8.92598 44.1601 9.37288 44.1173 9.77931 43.9489C10.1857 43.7805 10.5334 43.494 10.778 43.1258C11.0227 42.7577 11.1533 42.3245 11.1533 41.8813C11.1562 41.2919 10.927 40.7253 10.5161 40.3062C10.1052 39.8871 9.54612 39.6495 8.96171 39.6458Z" fill="#E0E0E0"/>
<path d="M8.68018 41.8813L9.11324 42.0077L9.46588 40.3821L8.68018 41.8813Z" fill="#407BFF"/>
<path d="M10.0658 44.0232C9.97699 44.1031 9.87113 44.1613 9.75642 44.1932C9.4884 44.285 9.20533 44.3237 8.92277 44.3071C8.64051 44.2947 8.3621 44.2362 8.0984 44.134C7.98511 44.0986 7.87995 44.0408 7.78906 43.9639C7.78906 43.953 7.9128 44.0138 8.11386 44.0794C8.37536 44.1641 8.64685 44.2134 8.92122 44.226C9.19478 44.2409 9.46893 44.2114 9.73322 44.1386C9.94512 44.0794 10.0534 44.0107 10.0658 44.0232Z" fill="#263238"/>
<path d="M13.9201 48.516C13.9201 48.5378 11.9095 48.5394 9.41779 48.516C6.92611 48.4926 4.91699 48.4614 4.91699 48.4396C4.91699 48.4177 6.92766 48.4146 9.41934 48.4396C11.911 48.4645 13.9201 48.4879 13.9201 48.516Z" fill="#263238"/>
</svg>
