<svg width="115" height="110" viewBox="0 0 115 110" fill="none" xmlns="http://www.w3.org/2000/svg">
<path opacity="0.3" d="M81.117 32.959C81.117 32.7096 81.1045 32.4602 81.097 32.1983L83.287 31.9688L82.9778 29.0155L80.7902 29.245C80.7005 28.7461 80.6007 28.2473 80.4785 27.7484L82.5662 27.07L81.6483 24.2439L79.5581 24.9224C79.3685 24.4501 79.1631 23.987 78.942 23.533L80.8426 22.4355L79.346 19.8639L77.4454 20.9614C77.1635 20.5399 76.8592 20.1333 76.5474 19.7367L78.1837 18.2626L76.1882 16.0551L74.552 17.5292C74.1878 17.1775 73.8037 16.8358 73.4245 16.5116L74.7191 14.7306L72.3146 12.9846L71.0225 14.763C70.5935 14.4962 70.157 14.2392 69.708 14.0148L70.601 12.0193L67.8872 10.8121L66.9967 12.8075C66.5228 12.6329 66.0364 12.4832 65.5475 12.3436L66.0065 10.1935L63.1006 9.57488L62.6416 11.7275C62.1428 11.6576 61.6398 11.6052 61.1326 11.5703V9.35788H58.1793V11.5604C57.6705 11.5953 57.1666 11.6477 56.6678 11.7175L56.2113 9.5649L53.3054 10.186L53.7619 12.3361C53.263 12.4758 52.7891 12.6254 52.3152 12.8L51.4222 10.8046L48.7084 12.0118L49.6014 14.0073C49.1549 14.2567 48.7159 14.5061 48.2869 14.7556L46.9948 12.9771L44.5928 14.7231L45.8849 16.5041C45.4958 16.8283 45.1216 17.1701 44.7574 17.5218L43.1212 16.0476L41.1257 18.2551L42.762 19.7292C42.4502 20.1258 42.1484 20.5324 41.864 20.9539L39.9634 19.8564L38.4668 22.4281L40.3675 23.5256C40.1455 23.9795 39.9434 24.4435 39.7514 24.9149L37.6911 24.2539L36.7732 27.0799L38.8609 27.7584C38.7387 28.2573 38.6364 28.7436 38.5491 29.255L36.3616 29.0255L36.0498 31.9788L38.2398 32.2082C38.2398 32.4577 38.2224 32.7071 38.2224 32.969C38.2224 33.2309 38.2223 33.4679 38.2398 33.7173L36.0498 33.9493L36.3616 36.9025L38.5491 36.6731C38.6364 37.1719 38.7387 37.6708 38.8609 38.1696L36.7732 38.8481L37.6911 41.6617L39.7788 40.9832C39.9709 41.4546 40.1729 41.9186 40.3949 42.3726L38.4942 43.47L39.9908 46.0442L41.8915 44.9467C42.1758 45.3657 42.4776 45.7723 42.7894 46.1714L41.1532 47.6455L43.1486 49.853L44.7849 48.3788C45.149 48.7305 45.5332 49.0698 45.9123 49.3965L44.6203 51.175L47.0223 52.921L48.3143 51.1425C48.7433 51.4119 49.1815 51.6664 49.6288 51.9058L48.7359 53.9012L51.4497 55.111L52.3426 53.1155C52.8166 53.2876 53.3005 53.4398 53.7893 53.5795L53.3329 55.7296L56.2388 56.3457L56.6952 54.1956C57.1941 54.2654 57.6929 54.3153 58.2068 54.3502V56.5527H61.1775V54.3502C61.6763 54.3153 62.1902 54.2654 62.6865 54.1956L63.1455 56.3457L66.0514 55.7296L65.5924 53.5795C66.0913 53.4398 66.5677 53.2876 67.0416 53.1155L67.9321 55.111L70.616 53.9112L69.723 51.9158C70.172 51.6663 70.6085 51.4169 71.0375 51.1525L72.3295 52.931L74.7341 51.1849L73.4395 49.4065C73.8286 49.0798 74.2028 48.7405 74.5669 48.3888L76.2032 49.863L78.1987 47.6555L76.5624 46.1814C76.8742 45.7823 77.1785 45.3757 77.4603 44.9567L79.361 46.0542L80.8576 43.48L78.9569 42.3825C79.1781 41.9286 79.3835 41.4655 79.573 40.9932L81.6633 41.6717L82.5812 38.8481L80.4934 38.1696C80.6156 37.6708 80.7154 37.1844 80.8052 36.6731L82.9927 36.9025L83.302 33.9493L81.112 33.7173C81.1045 33.4654 81.117 33.2134 81.117 32.959ZM59.6659 50.9804C56.101 50.9804 52.6162 49.9233 49.6521 47.9427C46.6881 45.9621 44.3779 43.147 43.0138 39.8534C41.6497 36.5598 41.2929 32.9357 41.9886 29.4393C42.6842 25.943 44.4011 22.7314 46.922 20.2108C49.4429 17.6903 52.6547 15.9739 56.1512 15.2787C59.6476 14.5835 63.2717 14.9408 66.5651 16.3054C69.8585 17.6699 72.6733 19.9805 74.6535 22.9448C76.6336 25.9092 77.6903 29.3941 77.6898 32.959C77.6898 35.326 77.2235 37.6699 76.3175 39.8567C75.4116 42.0434 74.0837 44.0303 72.4097 45.7038C70.7357 47.3773 68.7485 48.7047 66.5615 49.6101C64.3744 50.5154 62.0305 50.9811 59.6634 50.9804H59.6659Z" fill="black"/>
<path opacity="0.3" d="M101.713 53.9811C101.713 53.8638 101.713 53.7491 101.713 53.6319L102.725 53.5246L102.581 52.1602L101.571 52.2675C101.531 52.0347 101.483 51.8052 101.428 51.5791L102.391 51.2673L101.967 49.9627L100.992 50.2646C100.905 50.0475 100.81 49.833 100.708 49.6235L101.586 49.1247L100.9 47.9349L100.022 48.4337C99.892 48.2392 99.7523 48.0496 99.6076 47.8675L100.356 47.1866L99.438 46.1664L98.6897 46.8473C98.5201 46.6852 98.348 46.5281 98.1684 46.3759L98.7645 45.5553L97.6546 44.7471L97.0584 45.5703C96.8614 45.4455 96.6568 45.3208 96.4498 45.2186L96.8639 44.2907L95.6167 43.732L95.2051 44.6573C94.9856 44.5775 94.7636 44.5077 94.5367 44.4428L94.7487 43.4451L93.4067 43.1608L93.1947 44.1585C92.9652 44.1261 92.7308 44.1036 92.4963 44.0861V43.0809H91.1244V44.0986C90.89 44.1161 90.658 44.1385 90.426 44.171L90.2165 43.1732L88.8746 43.4576L89.0841 44.4553C88.8596 44.5202 88.6351 44.59 88.4156 44.6698L88.0041 43.7444L86.7569 44.3032L87.171 45.231C86.9639 45.3408 86.7619 45.458 86.5624 45.5827L85.9662 44.7596L84.8338 45.5678L85.4299 46.3884C85.2528 46.5405 85.0782 46.6977 84.9111 46.8598L84.1628 46.1789L83.2449 47.199L83.9932 47.88C83.8485 48.0621 83.7089 48.2516 83.5767 48.4462L82.6987 47.9473L82.0127 49.1371L82.8907 49.636C82.7885 49.8455 82.6937 50.06 82.6064 50.277L81.6411 49.9652L81.217 51.2698L82.1823 51.5815C82.125 51.8085 82.0776 52.038 82.0377 52.27L81.0275 52.1627L80.8828 53.5271L81.8955 53.6344C81.8955 53.7516 81.8955 53.8663 81.8955 53.9836C81.8955 54.1008 81.8955 54.218 81.8955 54.3353L80.8828 54.4425L81.0275 55.8069L82.0377 55.6997C82.0776 55.9316 82.125 56.1611 82.1823 56.3881L81.217 56.6999L81.6411 58.0044L82.6064 57.6926C82.6937 57.9096 82.7885 58.1241 82.8907 58.3336L82.0127 58.8325L82.6987 60.0223L83.5767 59.5234C83.7089 59.718 83.8485 59.9076 83.9932 60.0896L83.2449 60.7706L84.1628 61.7908L84.9111 61.1098C85.0782 61.2719 85.2528 61.4291 85.4299 61.5812L84.8338 62.3969L85.9438 63.205L86.5399 62.3819C86.7395 62.5066 86.9415 62.6313 87.1485 62.7336L86.7345 63.6615L87.9816 64.2202L88.3932 63.2948C88.6127 63.3746 88.8372 63.4445 89.0617 63.5093L88.8521 64.5071L90.1941 64.7914L90.4036 63.7937C90.6356 63.8261 90.8675 63.8486 91.102 63.866V64.8837H92.4739V63.866C92.7083 63.8486 92.9428 63.8261 93.1723 63.7937L93.3843 64.7914L94.7262 64.5071L94.5142 63.5093C94.7412 63.4445 94.9632 63.3746 95.1827 63.2948L95.6092 64.2327L96.8564 63.674L96.4498 62.7361C96.6568 62.6263 96.8614 62.5091 97.0584 62.3844L97.6546 63.2075L98.7645 62.3994L98.1684 61.5787C98.348 61.4266 98.5201 61.2694 98.6897 61.1073L99.438 61.7883L100.356 60.7681L99.6076 60.0871C99.7523 59.9051 99.892 59.7155 100.022 59.5209L100.9 60.0198L101.586 58.83L100.708 58.3311C100.81 58.1216 100.905 57.9071 100.992 57.6901L101.957 58.0019L102.381 56.6974L101.418 56.3856C101.473 56.1594 101.521 55.93 101.561 55.6972L102.571 55.8044L102.716 54.44L101.703 54.3328C101.708 54.2155 101.713 54.1008 101.713 53.9811ZM91.8029 62.3071C90.1562 62.3071 88.5464 61.8188 87.1772 60.9039C85.808 59.989 84.7408 58.6887 84.1107 57.1673C83.4805 55.6459 83.3156 53.9718 83.6369 52.3567C83.9581 50.7417 84.7511 49.2581 85.9155 48.0937C87.0799 46.9293 88.5635 46.1363 90.1786 45.8151C91.7937 45.4938 93.4677 45.6587 94.9891 46.2888C96.5105 46.919 97.8109 47.9862 98.7257 49.3554C99.6406 50.7246 100.129 52.3343 100.129 53.9811C100.129 56.1893 99.2517 58.307 97.6903 59.8685C96.1288 61.4299 94.0111 62.3071 91.8029 62.3071Z" fill="black"/>
<path opacity="0.3" d="M32.5679 31.0584C32.5679 30.9586 32.5679 30.8563 32.5679 30.7566L33.4409 30.6643L33.3161 29.4869L32.4431 29.5792C32.4082 29.3797 32.3683 29.1802 32.3209 28.9856L33.1515 28.7162L32.7799 27.5663L31.9543 27.8482C31.8769 27.6611 31.7971 27.474 31.7048 27.2945L32.4531 26.8555L31.8669 25.8203L31.1187 26.2593C31.0039 26.0922 30.8842 25.9301 30.7595 25.7605L31.413 25.1718L30.6098 24.3237L29.9588 24.8999C29.8116 24.7602 29.662 24.623 29.5073 24.4933L30.0237 23.785L29.0658 23.089L28.5495 23.7974C28.3799 23.6902 28.2053 23.5904 28.0257 23.4956L28.3824 22.6949L27.2999 22.2135L26.9457 23.0117C26.7561 22.9419 26.564 22.882 26.3695 22.8271L26.5516 21.9691L25.3917 21.7197L25.2196 22.5777C25.0226 22.5503 24.8205 22.5303 24.6185 22.5154V21.6374H23.4237V22.5154C23.2217 22.5303 23.0196 22.5503 22.8226 22.5777L22.638 21.7197L21.4806 21.9691L21.6627 22.8271C21.4682 22.882 21.2761 22.9419 21.0865 23.0117L20.7299 22.2135L19.6498 22.6949L20.004 23.4956C19.8269 23.5904 19.6523 23.6902 19.4802 23.7974L18.9664 23.089L18.0086 23.785L18.5224 24.4933C18.3677 24.623 18.2181 24.7602 18.0734 24.8999L17.4224 24.3237L16.6292 25.2017L17.2827 25.7904C17.158 25.95 17.0333 26.1122 16.9235 26.2892L16.1752 25.8502L15.5841 26.8754L16.3324 27.3144C16.2451 27.494 16.1628 27.6811 16.083 27.8681L15.2424 27.5663L14.8757 28.6938L15.7088 28.9631C15.6614 29.1577 15.619 29.3572 15.5841 29.5568L14.7136 29.4645L14.5889 30.6418L15.4619 30.7341C15.4619 30.8339 15.4619 30.9361 15.4619 31.0359C15.4619 31.1357 15.4619 31.238 15.4619 31.3402L14.5889 31.4325L14.7136 32.6098L15.5841 32.5175C15.619 32.7171 15.6614 32.9166 15.7088 33.1112L14.8757 33.3806L15.2424 34.518L16.0755 34.2461C16.1503 34.4332 16.2326 34.6202 16.3249 34.7998L15.5766 35.2388L16.1678 36.264L16.9161 35.825C17.0283 35.9921 17.1505 36.1542 17.2752 36.3239L16.6217 36.9125L17.4224 37.793L18.0734 37.2068C18.2181 37.3465 18.3677 37.4812 18.5224 37.6134L18.0086 38.3218L18.9664 39.0177L19.4827 38.2919C19.6548 38.3991 19.8294 38.4989 20.0065 38.5937L19.6523 39.3943L20.7324 39.8758L21.089 39.0776C21.2786 39.1474 21.4707 39.2073 21.6652 39.2621L21.4831 40.1202L22.6405 40.3696L22.8251 39.5116C23.0221 39.539 23.2242 39.559 23.4262 39.5739V40.4519H24.611V39.5739C24.813 39.559 25.0151 39.539 25.2121 39.5116L25.3942 40.3696L26.5541 40.1202L26.372 39.2621C26.5665 39.2073 26.7586 39.1474 26.9482 39.0776L27.3024 39.8758L28.3849 39.3943L28.0282 38.5937C28.2078 38.4989 28.3824 38.3991 28.552 38.2919L29.0683 39.0002L30.0262 38.3043L29.5098 37.596C29.6645 37.4638 29.8141 37.3291 29.9613 37.1894L30.6123 37.7755L31.4055 36.8975L30.752 36.3089C30.8767 36.1493 31.0014 35.9871 31.1112 35.81L31.8595 36.249L32.4506 35.2239L31.7048 34.7998C31.7946 34.6202 31.8744 34.4332 31.9543 34.2461L32.7873 34.518L33.1515 33.3905L32.3209 33.1212C32.3683 32.9266 32.4082 32.7271 32.4431 32.5275L33.3161 32.6198L33.4409 31.4425L32.5679 31.3502C32.5629 31.2479 32.5679 31.1482 32.5679 31.0584ZM24.0149 38.2445C22.5938 38.2435 21.2049 37.8212 20.0238 37.031C18.8427 36.2408 17.9225 35.1181 17.3793 33.8049C16.8362 32.4917 16.6946 31.047 16.9724 29.6534C17.2503 28.2597 17.9351 26.9798 18.9403 25.9753C19.9455 24.9708 21.2259 24.2868 22.6197 24.01C24.0136 23.7331 25.4582 23.8757 26.771 24.4197C28.0838 24.9638 29.2058 25.8849 29.9952 27.0665C30.7846 28.2481 31.206 29.6373 31.206 31.0584C31.2027 32.9629 30.4434 34.7883 29.095 36.1334C27.7467 37.4785 25.9194 38.2333 24.0149 38.232V38.2445Z" fill="black"/>
<path opacity="0.3" d="M94.9919 16.2621C93.064 16.2621 91.1794 16.8338 89.5763 17.9049C87.9733 18.976 86.7239 20.4984 85.9861 22.2796C85.2484 24.0608 85.0553 26.0207 85.4314 27.9116C85.8076 29.8025 86.736 31.5393 88.0992 32.9026C89.4625 34.2658 91.1993 35.1942 93.0902 35.5704C94.9811 35.9465 96.941 35.7534 98.7222 35.0156C100.503 34.2779 102.026 33.0285 103.097 31.4255C104.168 29.8224 104.74 27.9378 104.74 26.0099C104.74 23.4246 103.713 20.9452 101.885 19.1172C100.057 17.2891 97.5772 16.2621 94.9919 16.2621ZM94.9919 33.9019C93.431 33.9019 91.9052 33.439 90.6074 32.5718C89.3095 31.7047 88.298 30.4721 87.7007 29.03C87.1033 27.5879 86.947 26.0011 87.2516 24.4702C87.5561 22.9393 88.3077 21.5331 89.4114 20.4294C90.5151 19.3257 91.9214 18.574 93.4523 18.2695C94.9832 17.965 96.57 18.1213 98.012 18.7186C99.4541 19.316 100.687 20.3275 101.554 21.6253C102.421 22.9232 102.884 24.449 102.884 26.0099C102.884 27.0464 102.68 28.0728 102.284 29.0304C101.887 29.9881 101.306 30.8582 100.573 31.5911C99.8402 32.324 98.9701 32.9053 98.0124 33.3018C97.0548 33.6983 96.0284 33.9022 94.9919 33.9019Z" fill="black"/>
<path opacity="0.3" d="M97.6307 24.6355L98.1595 23.3485L96.8001 23.6478C96.8001 23.6478 95.7251 23.553 95.5679 23.9147C95.4699 24.1921 95.43 24.4867 95.4507 24.7802L89.165 30.9037L96.2813 25.7704C96.5671 25.8405 96.8641 25.8515 97.1543 25.8029C97.5384 25.7131 97.6307 24.6355 97.6307 24.6355Z" fill="black"/>
<path d="M65.7003 28.5641H53.1564C52.9774 28.5634 52.8058 28.492 52.6792 28.3654C52.5526 28.2387 52.4811 28.0672 52.4805 27.8881C52.4824 27.7099 52.5544 27.5396 52.6809 27.4141C52.8074 27.2885 52.9782 27.2178 53.1564 27.2171H65.7053C65.8852 27.2171 66.0578 27.2886 66.185 27.4158C66.3123 27.5431 66.3838 27.7156 66.3838 27.8956C66.3811 28.0747 66.3078 28.2454 66.1798 28.3706C66.0517 28.4959 65.8794 28.5654 65.7003 28.5641Z" fill="black"/>
<path d="M65.7003 26.9428H53.1564C52.9769 26.9421 52.805 26.8703 52.6783 26.7432C52.5516 26.616 52.4805 26.4438 52.4805 26.2643C52.4811 26.0852 52.5526 25.9137 52.6792 25.7871C52.8058 25.6604 52.9774 25.589 53.1564 25.5883H65.7053C65.8848 25.5883 66.057 25.6595 66.1842 25.7862C66.3113 25.9129 66.3831 26.0848 66.3838 26.2643C66.3838 26.3538 66.366 26.4425 66.3316 26.5251C66.2972 26.6077 66.2468 26.6827 66.1833 26.7458C66.1197 26.8089 66.0444 26.8587 65.9615 26.8925C65.8786 26.9264 65.7898 26.9434 65.7003 26.9428Z" fill="black"/>
<path d="M65.7003 25.3215H53.1564C52.9772 25.3215 52.8052 25.2502 52.6785 25.1235C52.5517 24.9967 52.4805 24.8248 52.4805 24.6455C52.4805 24.4662 52.5517 24.2943 52.6785 24.1675C52.8052 24.0408 52.9772 23.9695 53.1564 23.9695H65.7053C65.7943 23.9692 65.8824 23.9865 65.9647 24.0203C66.047 24.0541 66.1219 24.1038 66.1849 24.1666C66.2479 24.2294 66.2979 24.3041 66.3321 24.3862C66.3662 24.4684 66.3838 24.5565 66.3838 24.6455C66.3838 24.7349 66.366 24.8234 66.3316 24.9059C66.2972 24.9884 66.2467 25.0633 66.1831 25.1261C66.1196 25.189 66.0442 25.2386 65.9613 25.2722C65.8784 25.3057 65.7897 25.3224 65.7003 25.3215Z" fill="black"/>
<path d="M65.7003 23.6827H53.1564C52.9772 23.6827 52.8052 23.6115 52.6785 23.4847C52.5517 23.3579 52.4805 23.186 52.4805 23.0067C52.4801 22.9178 52.4974 22.8296 52.5312 22.7473C52.565 22.665 52.6148 22.5902 52.6776 22.5272C52.7404 22.4641 52.815 22.4141 52.8972 22.38C52.9794 22.3459 53.0675 22.3283 53.1564 22.3283H65.7053C65.7943 22.328 65.8824 22.3452 65.9647 22.379C66.047 22.4128 66.1219 22.4626 66.1849 22.5254C66.2479 22.5882 66.2979 22.6628 66.3321 22.745C66.3662 22.8272 66.3838 22.9153 66.3838 23.0042C66.3841 23.0939 66.3666 23.1826 66.3323 23.2654C66.298 23.3482 66.2476 23.4234 66.184 23.4865C66.1204 23.5496 66.0449 23.5995 65.9619 23.6332C65.8788 23.6669 65.7899 23.6837 65.7003 23.6827Z" fill="black"/>
<path d="M65.7003 22.0539H53.1564C52.9772 22.0539 52.8052 21.9827 52.6785 21.8559C52.5517 21.7292 52.4805 21.5572 52.4805 21.378C52.4805 21.1987 52.5517 21.0267 52.6785 20.9C52.8052 20.7732 52.9772 20.702 53.1564 20.702H65.7053C65.7943 20.7017 65.8824 20.7189 65.9647 20.7527C66.047 20.7866 66.1219 20.8363 66.1849 20.8991C66.2479 20.9619 66.2979 21.0365 66.3321 21.1187C66.3662 21.2009 66.3838 21.289 66.3838 21.378C66.3838 21.4674 66.366 21.5559 66.3316 21.6384C66.2972 21.7209 66.2467 21.7957 66.1831 21.8586C66.1196 21.9215 66.0442 21.9711 65.9613 22.0046C65.8784 22.0381 65.7897 22.0549 65.7003 22.0539Z" fill="black"/>
<path d="M63.0563 20.4376C62.8535 19.6286 62.3863 18.9105 61.7287 18.3974C61.0712 17.8844 60.2611 17.6057 59.4271 17.6057C58.5931 17.6057 57.7829 17.8844 57.1254 18.3974C56.4679 18.9105 56.0006 19.6286 55.7979 20.4376H63.0563Z" fill="black"/>
<path d="M54.6526 43.1059H42.1037C41.9244 43.1059 41.7525 43.0347 41.6257 42.9079C41.499 42.7811 41.4277 42.6092 41.4277 42.4299C41.4274 42.3409 41.4447 42.2528 41.4785 42.1705C41.5123 42.0882 41.562 42.0134 41.6248 41.9503C41.6876 41.8873 41.7623 41.8373 41.8444 41.8032C41.9266 41.769 42.0147 41.7515 42.1037 41.7515H54.6526C54.7416 41.7515 54.8297 41.769 54.9118 41.8032C54.994 41.8373 55.0686 41.8873 55.1314 41.9503C55.1942 42.0134 55.244 42.0882 55.2778 42.1705C55.3116 42.2528 55.3289 42.3409 55.3285 42.4299C55.3285 42.6092 55.2573 42.7811 55.1305 42.9079C55.0038 43.0347 54.8318 43.1059 54.6526 43.1059Z" fill="black"/>
<path d="M54.6526 41.4771H42.1037C42.0147 41.4771 41.9266 41.4595 41.8444 41.4254C41.7623 41.3913 41.6876 41.3413 41.6248 41.2782C41.562 41.2152 41.5123 41.1404 41.4785 41.0581C41.4447 40.9758 41.4274 40.8876 41.4277 40.7986C41.4277 40.6194 41.499 40.4474 41.6257 40.3207C41.7525 40.1939 41.9244 40.1227 42.1037 40.1227H54.6526C54.8318 40.1227 55.0038 40.1939 55.1305 40.3207C55.2573 40.4474 55.3285 40.6194 55.3285 40.7986C55.3289 40.8876 55.3116 40.9758 55.2778 41.0581C55.244 41.1404 55.1942 41.2152 55.1314 41.2782C55.0686 41.3413 54.994 41.3913 54.9118 41.4254C54.8297 41.4595 54.7416 41.4771 54.6526 41.4771Z" fill="black"/>
<path d="M54.6526 39.8458H42.1037C41.9244 39.8458 41.7525 39.7746 41.6257 39.6478C41.499 39.5211 41.4277 39.3491 41.4277 39.1699C41.4277 38.9906 41.499 38.8187 41.6257 38.6919C41.7525 38.5651 41.9244 38.4939 42.1037 38.4939H54.6526C54.8318 38.4939 55.0038 38.5651 55.1305 38.6919C55.2573 38.8187 55.3285 38.9906 55.3285 39.1699C55.3285 39.3491 55.2573 39.5211 55.1305 39.6478C55.0038 39.7746 54.8318 39.8458 54.6526 39.8458Z" fill="black"/>
<path d="M54.6525 38.217H42.1036C41.9256 38.2157 41.7553 38.1443 41.6297 38.0182C41.5041 37.8921 41.4333 37.7216 41.4326 37.5436C41.4326 37.3643 41.5038 37.1924 41.6306 37.0656C41.7574 36.9388 41.9293 36.8676 42.1086 36.8676H54.6525C54.8317 36.8676 55.0037 36.9388 55.1304 37.0656C55.2572 37.1924 55.3284 37.3643 55.3284 37.5436C55.3278 37.7224 55.2563 37.8937 55.1296 38.0199C55.0029 38.1462 54.8313 38.217 54.6525 38.217Z" fill="black"/>
<path d="M54.6526 36.5883H42.1037C41.9244 36.5883 41.7525 36.517 41.6257 36.3903C41.499 36.2635 41.4277 36.0916 41.4277 35.9123C41.4277 35.733 41.499 35.5611 41.6257 35.4343C41.7525 35.3076 41.9244 35.2363 42.1037 35.2363H54.6526C54.8318 35.2363 55.0038 35.3076 55.1305 35.4343C55.2573 35.5611 55.3285 35.733 55.3285 35.9123C55.3285 36.0916 55.2573 36.2635 55.1305 36.3903C55.0038 36.517 54.8318 36.5883 54.6526 36.5883Z" fill="black"/>
<path d="M52.009 34.9719C51.8071 34.1618 51.3401 33.4425 50.6822 32.9284C50.0243 32.4143 49.2134 32.1351 48.3785 32.1351C47.5436 32.1351 46.7327 32.4143 46.0748 32.9284C45.4169 33.4425 44.9499 34.1618 44.748 34.9719H52.009Z" fill="black"/>
<path d="M76.551 43.1059H64.0021C63.8229 43.1059 63.6509 43.0347 63.5242 42.9079C63.3974 42.7811 63.3262 42.6092 63.3262 42.4299C63.3258 42.3409 63.3431 42.2528 63.3769 42.1705C63.4107 42.0882 63.4605 42.0134 63.5233 41.9503C63.5861 41.8873 63.6607 41.8373 63.7429 41.8032C63.8251 41.769 63.9132 41.7515 64.0021 41.7515H76.551C76.64 41.7515 76.7281 41.769 76.8103 41.8032C76.8924 41.8373 76.9671 41.8873 77.0299 41.9503C77.0927 42.0134 77.1424 42.0882 77.1762 42.1705C77.2101 42.2528 77.2273 42.3409 77.227 42.4299C77.227 42.6092 77.1558 42.7811 77.029 42.9079C76.9022 43.0347 76.7303 43.1059 76.551 43.1059Z" fill="black"/>
<path d="M76.551 41.4771H64.0021C63.9132 41.4771 63.8251 41.4595 63.7429 41.4254C63.6607 41.3913 63.5861 41.3413 63.5233 41.2782C63.4605 41.2152 63.4107 41.1404 63.3769 41.0581C63.3431 40.9758 63.3258 40.8876 63.3262 40.7986C63.3262 40.6194 63.3974 40.4474 63.5242 40.3207C63.6509 40.1939 63.8229 40.1227 64.0021 40.1227H76.551C76.7303 40.1227 76.9022 40.1939 77.029 40.3207C77.1558 40.4474 77.227 40.6194 77.227 40.7986C77.2273 40.8876 77.2101 40.9758 77.1762 41.0581C77.1424 41.1404 77.0927 41.2152 77.0299 41.2782C76.9671 41.3413 76.8924 41.3913 76.8103 41.4254C76.7281 41.4595 76.64 41.4771 76.551 41.4771Z" fill="black"/>
<path d="M76.551 39.8458H64.0021C63.8229 39.8458 63.6509 39.7746 63.5242 39.6478C63.3974 39.5211 63.3262 39.3491 63.3262 39.1699C63.3262 38.9906 63.3974 38.8187 63.5242 38.6919C63.6509 38.5651 63.8229 38.4939 64.0021 38.4939H76.551C76.7303 38.4939 76.9022 38.5651 77.029 38.6919C77.1557 38.8187 77.227 38.9906 77.227 39.1699C77.227 39.3491 77.1557 39.5211 77.029 39.6478C76.9022 39.7746 76.7303 39.8458 76.551 39.8458Z" fill="black"/>
<path d="M76.551 38.217H64.0021C63.8229 38.217 63.6509 38.1458 63.5242 38.0191C63.3974 37.8923 63.3262 37.7204 63.3262 37.5411C63.3262 37.3618 63.3974 37.1899 63.5242 37.0631C63.6509 36.9363 63.8229 36.8651 64.0021 36.8651H76.551C76.64 36.8651 76.7281 36.8827 76.8103 36.9168C76.8924 36.9509 76.9671 37.001 77.0299 37.064C77.0927 37.127 77.1424 37.2018 77.1762 37.2841C77.2101 37.3664 77.2273 37.4546 77.227 37.5436C77.2263 37.7224 77.1548 37.8937 77.0281 38.0199C76.9014 38.1462 76.7299 38.217 76.551 38.217Z" fill="black"/>
<path d="M76.551 36.5883H64.0021C63.8229 36.5883 63.6509 36.517 63.5242 36.3903C63.3974 36.2635 63.3262 36.0916 63.3262 35.9123C63.3262 35.733 63.3974 35.5611 63.5242 35.4343C63.6509 35.3076 63.8229 35.2363 64.0021 35.2363H76.551C76.7303 35.2363 76.9022 35.3076 77.029 35.4343C77.1557 35.5611 77.227 35.733 77.227 35.9123C77.227 36.0916 77.1557 36.2635 77.029 36.3903C76.9022 36.517 76.7303 36.5883 76.551 36.5883Z" fill="black"/>
<path d="M73.9064 34.9719C73.7046 34.1618 73.2376 33.4425 72.5797 32.9284C71.9218 32.4143 71.1109 32.1351 70.276 32.1351C69.4411 32.1351 68.6302 32.4143 67.9723 32.9284C67.3144 33.4425 66.8474 34.1618 66.6455 34.9719H73.9064Z" fill="black"/>
<path d="M99.052 89.8742V77.7493C99.0513 67.3015 94.9005 57.2819 87.5125 49.8944C80.1246 42.5069 70.1046 38.3567 59.6568 38.3567C49.209 38.3567 39.1891 42.5069 31.8012 49.8944C24.4132 57.2819 20.2624 67.3015 20.2617 77.7493V89.8742H99.052Z" fill="#E8E8E8" stroke="#263238" stroke-miterlimit="10"/>
<path d="M92.8183 56.5377H82.2998V85.155" stroke="#263238" stroke-miterlimit="10"/>
<path d="M82.4124 69.8848H20.2617" stroke="#263238" stroke-miterlimit="10"/>
<path d="M30.2686 69.9995V85.1549" stroke="#263238" stroke-miterlimit="10"/>
<path d="M85.5801 56.423V48.0546" stroke="#263238" stroke-miterlimit="10"/>
<path d="M59.4275 47.1093C64.811 47.1093 69.1752 42.745 69.1752 37.3615C69.1752 31.9779 64.811 27.6137 59.4275 27.6137C54.0439 27.6137 49.6797 31.9779 49.6797 37.3615C49.6797 42.745 54.0439 47.1093 59.4275 47.1093Z" fill="#263238" stroke="#263238" stroke-miterlimit="10"/>
<path d="M59.4272 45.2535C63.7858 45.2535 67.3191 41.7201 67.3191 37.3615C67.3191 33.0029 63.7858 29.4695 59.4272 29.4695C55.0685 29.4695 51.5352 33.0029 51.5352 37.3615C51.5352 41.7201 55.0685 45.2535 59.4272 45.2535Z" fill="white"/>
<path d="M62.0663 35.9871L62.5951 34.7001L61.2357 34.9994C61.2357 34.9994 60.1606 34.9046 60.0035 35.2663C59.9055 35.5437 59.8656 35.8383 59.8862 36.1318L53.6006 42.2578L60.7169 37.122C61.0025 37.1923 61.2995 37.2041 61.5899 37.157C61.974 37.0647 62.0663 35.9871 62.0663 35.9871Z" fill="#407BFF" stroke="#263238" stroke-miterlimit="10"/>
<path d="M70.7392 50.8632C74.6143 50.8632 77.7556 47.7218 77.7556 43.8467C77.7556 39.9716 74.6143 36.8302 70.7392 36.8302C66.864 36.8302 63.7227 39.9716 63.7227 43.8467C63.7227 47.7218 66.864 50.8632 70.7392 50.8632Z" fill="#263238" stroke="#263238" stroke-miterlimit="10"/>
<path d="M70.7387 49.5287C73.8768 49.5287 76.4207 46.9848 76.4207 43.8467C76.4207 40.7086 73.8768 38.1647 70.7387 38.1647C67.6006 38.1647 65.0566 40.7086 65.0566 43.8467C65.0566 46.9848 67.6006 49.5287 70.7387 49.5287Z" fill="white"/>
<path d="M68.5959 43.8317L67.8252 44.4753L68.7905 44.7422C68.7905 44.7422 69.444 45.1637 69.666 44.9916C69.822 44.8481 69.9468 44.674 70.0327 44.4802L76.0938 42.6993L69.8356 43.5698C69.6777 43.429 69.4927 43.3221 69.2919 43.2555C69.0175 43.1807 68.5959 43.8317 68.5959 43.8317Z" fill="#407BFF" stroke="#263238" stroke-miterlimit="10"/>
<path d="M47.7018 51.1874C50.5024 51.1874 52.7727 48.9171 52.7727 46.1165C52.7727 43.3159 50.5024 41.0456 47.7018 41.0456C44.9012 41.0456 42.6309 43.3159 42.6309 46.1165C42.6309 48.9171 44.9012 51.1874 47.7018 51.1874Z" fill="#263238" stroke="#263238" stroke-miterlimit="10"/>
<path d="M47.7013 50.2221C49.9688 50.2221 51.807 48.384 51.807 46.1165C51.807 43.849 49.9688 42.0109 47.7013 42.0109C45.4339 42.0109 43.5957 43.849 43.5957 46.1165C43.5957 48.384 45.4339 50.2221 47.7013 50.2221Z" fill="white"/>
<path d="M48.6088 47.3711L49.3122 47.5458L49.0628 46.8673C49.0628 46.8673 49.0278 46.3086 48.8308 46.2537C48.6811 46.2226 48.5266 46.2226 48.3768 46.2537L44.7451 43.485L47.9179 46.7725C47.9033 46.9255 47.9194 47.0798 47.9653 47.2265C48.0476 47.4061 48.6088 47.3711 48.6088 47.3711Z" fill="#407BFF" stroke="#263238" stroke-miterlimit="10"/>
<path d="M48.031 85.3745H17.1465V88.7193H48.031V85.3745Z" fill="#407BFF" stroke="#263238" stroke-miterlimit="10"/>
<path d="M102.366 85.3745H71.4814V88.7193H102.366V85.3745Z" fill="#407BFF" stroke="#263238" stroke-miterlimit="10"/>
<path d="M89.8877 71.6283V65.5896" stroke="#263238" stroke-width="5" stroke-miterlimit="10"/>
<path d="M90.3018 68.7524H98.0541C98.2471 68.7521 98.4383 68.7898 98.6167 68.8635C98.7951 68.9373 98.9572 69.0455 99.0936 69.182C99.2301 69.3184 99.3383 69.4805 99.4121 69.6589C99.4858 69.8373 99.5235 70.0285 99.5232 70.2215V88.3153" stroke="#263238" stroke-width="5" stroke-miterlimit="10"/>
<path d="M91.3316 67.035C92.1293 66.2372 92.1293 64.9438 91.3316 64.146C90.5338 63.3482 89.2403 63.3482 88.4426 64.146C87.6448 64.9438 87.6448 66.2372 88.4426 67.035C89.2403 67.8328 90.5338 67.8328 91.3316 67.035Z" fill="#407BFF" stroke="#263238" stroke-miterlimit="10"/>
<path d="M91.0921 65.5896C91.0926 65.3512 91.0224 65.118 90.8903 64.9196C90.7582 64.7211 90.5702 64.5663 90.3501 64.4748C90.13 64.3832 89.8877 64.359 89.6539 64.4052C89.42 64.4514 89.2051 64.5659 89.0364 64.7343C88.8676 64.9027 88.7526 65.1174 88.7059 65.3511C88.6593 65.5849 88.683 65.8273 88.7741 66.0475C88.8652 66.2678 89.0196 66.4561 89.2178 66.5886C89.416 66.7211 89.649 66.7918 89.8874 66.7918C90.2065 66.7918 90.5125 66.6653 90.7384 66.4399C90.9642 66.2145 91.0915 65.9087 91.0921 65.5896Z" fill="white"/>
<path d="M89.8882 70.1517C91.116 70.1517 92.2935 70.6394 93.1617 71.5076C94.0299 72.3758 94.5177 73.5533 94.5177 74.7811V88.2703H85.2588V74.7836C85.2585 74.1755 85.378 73.5732 85.6105 73.0112C85.843 72.4493 86.1839 71.9386 86.6138 71.5085C87.0438 71.0783 87.5542 70.7371 88.116 70.5043C88.6779 70.2715 89.2801 70.1517 89.8882 70.1517Z" fill="#263238" stroke="#263238" stroke-miterlimit="10"/>
<path d="M94.5202 74.7761C94.5182 73.549 94.0293 72.3727 93.1609 71.5057C92.2924 70.6387 91.1154 70.1517 89.8882 70.1517C88.6613 70.1517 87.4845 70.6387 86.6165 71.5058C85.7484 72.373 85.2601 73.5492 85.2588 74.7761H94.5202Z" fill="#407BFF" stroke="#263238" stroke-miterlimit="10"/>
<path d="M112.999 98.502H6.35742L15.2446 88.3452H104.112L112.999 98.502Z" fill="#E8E8E8" stroke="#263238" stroke-miterlimit="10"/>
<path d="M77.6061 98.502H41.7529L44.7386 88.3452H74.6204L77.6061 98.502Z" fill="#407BFF" stroke="#263238" stroke-miterlimit="10"/>
<path d="M44.3174 89.9291H74.8677" stroke="#263238" stroke-width="0.5" stroke-miterlimit="10"/>
<path d="M43.4834 92.573H75.6999" stroke="#263238" stroke-width="0.5" stroke-miterlimit="10"/>
<path d="M42.5684 95.9828H76.6157" stroke="#263238" stroke-width="0.5" stroke-miterlimit="10"/>
<path d="M24.3111 82.4929C34.4224 80.8353 41.2756 71.2947 39.618 61.1833C37.9604 51.0719 28.4197 44.2188 18.3083 45.8764C8.1969 47.534 1.34376 57.0746 3.00138 67.186C4.65899 77.2974 14.1997 84.1506 24.3111 82.4929Z" fill="#263238" stroke="#263238" stroke-miterlimit="10"/>
<path d="M36.4843 64.1828C36.4843 64.0032 36.4843 63.8261 36.4693 63.6465L38.0183 63.4844L37.7988 61.3942L36.2523 61.5563C36.1899 61.2021 36.1176 60.8504 36.0328 60.5062L37.5094 60.0248L36.8584 58.0293L35.3818 58.5107C35.2471 58.1765 35.1024 57.8497 34.9453 57.528L36.2897 56.7522L35.2396 54.9314L33.8952 55.7096C33.6956 55.4103 33.4811 55.1235 33.2591 54.8416L34.4165 53.799L33.0122 52.24L31.8548 53.2802C31.6054 53.0307 31.331 52.7813 31.0566 52.5618L31.9721 51.3147L30.2709 50.0675L29.358 51.3147C29.0537 51.1251 28.7444 50.9455 28.4276 50.7759L29.0587 49.3591L27.1406 48.5185L26.5095 49.9353C26.1753 49.8131 25.8311 49.7058 25.4869 49.6061L25.8086 48.087L23.7558 47.648L23.4315 49.1695C23.0798 49.1222 22.7232 49.0847 22.3615 49.0598V47.4959H20.2613V49.0523C19.9021 49.0773 19.5454 49.1147 19.1937 49.1621L18.8694 47.6405L16.8141 48.0795L17.1384 49.5986C16.7917 49.6983 16.45 49.8056 16.1157 49.9278L15.4922 48.5185L13.5715 49.3741L14.2051 50.7908C13.8883 50.9605 13.5765 51.1401 13.2747 51.3296L12.3593 50.0825L10.6607 51.3296L11.5761 52.5768C11.3017 52.8063 11.0348 53.0482 10.7779 53.2951L9.62055 52.255L8.21625 53.814L9.37361 54.8566C9.15162 55.1384 8.93711 55.4253 8.73756 55.7246L7.38565 54.9289L6.33554 56.7498L7.67998 57.5255C7.52284 57.8473 7.37817 58.174 7.24347 58.5082L5.76435 58.0268L5.11583 60.0223L6.59246 60.5037C6.50765 60.8479 6.43532 61.1996 6.37296 61.5538L4.82399 61.3917L4.60449 63.4844L6.15346 63.6465C6.15346 63.8261 6.14099 64.0032 6.14099 64.1828C6.14099 64.3624 6.14099 64.542 6.15346 64.7216L4.60449 64.8837L4.82399 66.9739L6.37296 66.8093C6.43532 67.166 6.50765 67.5152 6.59246 67.8619L5.11583 68.3408L5.76435 70.3363L7.24347 69.8573C7.37817 70.1916 7.52284 70.5183 7.67998 70.8401L6.33554 71.6158L7.38565 73.4342L8.73008 72.6585C8.92963 72.9553 9.14414 73.2446 9.36613 73.5265L8.20877 74.5666L9.61307 76.128L10.7704 75.0854C11.0199 75.3349 11.2942 75.5843 11.5686 75.8063L10.6532 77.0534L12.3518 78.3006L13.2672 77.041C13.569 77.2305 13.8808 77.4126 14.1976 77.5797L13.5641 78.999L15.4847 79.8545L16.1157 78.4502C16.45 78.5725 16.7917 78.6797 17.1384 78.7795L16.8141 80.2985L18.8694 80.735L19.1937 79.2135C19.5454 79.2634 19.9021 79.3008 20.2613 79.3258V80.8822H22.3615V79.3258C22.7223 79.3008 23.079 79.2634 23.4315 79.2135L23.7558 80.735L25.8086 80.2985L25.4869 78.7795C25.8311 78.6797 26.1753 78.5725 26.5095 78.4502L27.1406 79.867L29.0587 79.0115L28.4276 77.5922C28.7444 77.4251 29.0537 77.243 29.358 77.0534L30.2709 78.3131L31.9721 77.0659L31.0566 75.8188C31.331 75.5893 31.5954 75.3473 31.8548 75.0979L33.0122 76.1405L34.4165 74.5791L33.2591 73.5389C33.4811 73.2571 33.6956 72.9678 33.8952 72.6709L35.2396 73.4467L36.2897 71.6283L34.9478 70.8426C35.1049 70.5208 35.2496 70.1941 35.3843 69.8598L36.8609 70.3388L37.5119 68.3433L36.0353 67.8644C36.1201 67.5177 36.1924 67.1685 36.2548 66.8118L37.8013 66.9764L38.0208 64.8862L36.4693 64.7315C36.4768 64.542 36.4843 64.3649 36.4843 64.1828ZM21.3114 76.9287C18.7905 76.9287 16.3262 76.1812 14.2301 74.7806C12.1341 73.3801 10.5004 71.3895 9.53568 69.0605C8.57097 66.7314 8.31856 64.1687 8.81037 61.6962C9.30217 59.2237 10.5161 56.9526 12.2987 55.1701C14.0812 53.3875 16.3523 52.1736 18.8248 51.6818C21.2972 51.19 23.86 51.4424 26.189 52.4071C28.518 53.3718 30.5087 55.0055 31.9092 57.1015C33.3098 59.1976 34.0573 61.6619 34.0573 64.1828C34.0573 67.5632 32.7144 70.8052 30.3241 73.1955C27.9338 75.5858 24.6918 76.9287 21.3114 76.9287Z" fill="#919191" stroke="#263238" stroke-miterlimit="10"/>
<path d="M22.0354 67.6324C22.0354 67.5651 22.0354 67.4977 22.0354 67.4329L22.6115 67.3705L22.5317 66.5948L21.9555 66.6547C21.9331 66.5225 21.9056 66.4052 21.8732 66.2631L22.422 66.086L22.1725 65.3377L21.6213 65.5148C21.5714 65.3925 21.519 65.2653 21.4592 65.1506L21.958 64.8612L21.5664 64.1853L21.0676 64.4721C20.9952 64.3624 20.9154 64.2551 20.8331 64.1504L21.2621 63.7638L20.7408 63.1826L20.3093 63.5692C20.2145 63.4769 20.1147 63.3871 20.0125 63.3023L20.3517 62.8334L19.7331 62.3794L19.3939 62.8483C19.2791 62.776 19.1644 62.7112 19.0472 62.6463L19.2816 62.12L18.5683 61.8007L18.3338 62.327C18.2091 62.2821 18.0819 62.2422 17.9522 62.2073L18.0719 61.6411L17.3012 61.4889L17.1814 62.0551C17.0492 62.0352 16.917 62.0227 16.7823 62.0127V61.4341H15.9916V62.0127C15.8569 62.0127 15.7248 62.0352 15.595 62.0551L15.4928 61.4889L14.7295 61.6511L14.8492 62.2173C14.722 62.2522 14.5998 62.2921 14.4676 62.337L14.2332 61.8107L13.5198 62.13L13.7542 62.6563C13.637 62.7211 13.5223 62.786 13.41 62.8583L13.0683 62.3894L12.4372 62.8483L12.7765 63.3173C12.6742 63.4021 12.5769 63.4919 12.4797 63.5842L12.0506 63.1975L11.5268 63.7787L11.9583 64.1653C11.876 64.2701 11.7962 64.3773 11.7089 64.4871L11.21 64.2003L10.8209 64.8762L11.3198 65.1656C11.2624 65.2853 11.2076 65.415 11.1577 65.5297L10.6089 65.3526L10.3595 66.1009L10.9082 66.278C10.8758 66.4077 10.8509 66.5274 10.8259 66.6696L10.2522 66.6098L10.1699 67.3855L10.7461 67.4479C10.7461 67.5127 10.7461 67.58 10.7461 67.6474C10.7461 67.7147 10.7461 67.7796 10.7461 67.8469L10.1699 67.9068L10.2522 68.685L10.8259 68.6252C10.8509 68.7574 10.8758 68.8871 10.9082 69.0143L10.3595 69.1939L10.6089 69.9422L11.1577 69.7626C11.2076 69.8873 11.2624 70.012 11.3198 70.1292L10.8209 70.4186L11.21 71.0945L11.7089 70.8052C11.7837 70.9174 11.8636 71.0247 11.9583 71.1294L11.5268 71.5161L12.0506 72.0972L12.4797 71.7081C12.5769 71.8004 12.6742 71.8902 12.7765 71.9775L12.4372 72.444L13.0683 72.9054L13.41 72.4365C13.5223 72.5063 13.637 72.5737 13.7542 72.636L13.5198 73.1648L14.2232 73.4616L14.4576 72.9353C14.5824 72.9827 14.7071 73.0201 14.8393 73.0576L14.7195 73.6238L15.4828 73.7859L15.605 73.2197C15.7347 73.2396 15.8545 73.2521 16.0016 73.2621V73.8408H16.7823V73.2621C16.917 73.2621 17.0492 73.2396 17.1814 73.2197L17.3012 73.7859L18.0644 73.6238L17.9447 73.0576C18.0744 73.0201 18.1941 72.9827 18.3263 72.9353L18.5608 73.4616L19.2742 73.1449L19.0397 72.6161C19.1569 72.5537 19.2717 72.4864 19.3864 72.4165L19.7256 72.8854L20.3567 72.424L20.0175 71.965C20.1197 71.8777 20.2195 71.7879 20.3143 71.6957L20.7458 72.0848L21.2671 71.5036L20.8381 71.117C20.9204 71.0122 21.0002 70.905 21.0725 70.7927L21.5714 71.0821L21.963 70.4061L21.4642 70.1168C21.524 69.997 21.5764 69.8673 21.6263 69.7501L22.1775 69.9297L22.427 69.1814L21.8782 69.0018C21.9098 68.8754 21.9372 68.7457 21.9605 68.6127L22.5367 68.6725L22.6165 67.8943L22.0403 67.8345C22.0329 67.7646 22.0354 67.6998 22.0354 67.6324ZM16.3932 72.3716C15.4559 72.3716 14.5396 72.0937 13.7603 71.5729C12.9809 71.0522 12.3735 70.312 12.0148 69.446C11.6561 68.5801 11.5622 67.6272 11.7451 66.7079C11.928 65.7885 12.3793 64.9441 13.0421 64.2813C13.7049 63.6185 14.5493 63.1672 15.4687 62.9843C16.388 62.8014 17.3409 62.8953 18.2068 63.254C19.0728 63.6127 19.813 64.2201 20.3337 64.9995C20.8545 65.7788 21.1324 66.6951 21.1324 67.6324C21.1327 68.255 21.0104 68.8715 20.7724 69.4468C20.5344 70.0221 20.1853 70.5448 19.7452 70.9852C19.3051 71.4255 18.7826 71.7748 18.2074 72.0131C17.6323 72.2514 17.0158 72.3741 16.3932 72.3741V72.3716Z" fill="#919191" stroke="#263238" stroke-miterlimit="10"/>
<path d="M29.025 65.9089C29.025 65.8764 29.025 65.8415 29.025 65.8066L29.3219 65.7767L29.2794 65.3776L28.9826 65.4075C28.9826 65.3402 28.9577 65.2728 28.9427 65.208L29.2246 65.1157L29.0999 64.734L28.818 64.8263C28.7906 64.7615 28.7631 64.6991 28.7332 64.6393L28.9826 64.4896L28.7831 64.1429L28.5336 64.2925C28.4962 64.2352 28.4538 64.1803 28.4114 64.1254L28.6334 63.9259L28.364 63.6291L28.1445 63.8286C28.0947 63.7812 28.0448 63.7338 27.9924 63.6914L28.167 63.442L27.8427 63.2075L27.6681 63.457L27.491 63.3547L27.6108 63.0828L27.2441 62.9207L27.1244 63.1901L26.9273 63.1277L26.9897 62.8384L26.5981 62.7536L26.5357 63.0454C26.4684 63.0454 26.401 63.0279 26.3312 63.0229V62.7361H25.9321V63.0329C25.8622 63.0329 25.7949 63.0454 25.7275 63.0554L25.6652 62.7635L25.2736 62.8483L25.3359 63.1377L25.1389 63.2L25.0192 62.9307L24.6525 63.0928L24.7722 63.3647L24.5951 63.4669L24.4205 63.2175L24.0963 63.452L24.2709 63.7014C24.2185 63.7438 24.1686 63.7912 24.1187 63.8386L23.8992 63.639L23.6298 63.9359L23.8518 64.1354C23.8094 64.1903 23.767 64.2452 23.7296 64.3025L23.4802 64.1529L23.2806 64.4996L23.5301 64.6492C23.5001 64.7091 23.4727 64.7715 23.4453 64.8363L23.1634 64.744L23.0387 65.1256L23.3205 65.2179C23.3056 65.2828 23.2906 65.3501 23.2806 65.4175L22.9838 65.3876L22.9414 65.7866L23.2382 65.8166C23.2382 65.8515 23.2382 65.8864 23.2382 65.9188C23.2382 65.9513 23.2382 65.9887 23.2382 66.0211L22.9414 66.0535L22.9838 66.4526L23.2806 66.4202C23.2806 66.49 23.3056 66.5549 23.3205 66.6222L23.0387 66.7145L23.1634 67.0937L23.4453 67.0039C23.4727 67.0662 23.5001 67.1286 23.5301 67.1909L23.2806 67.3381L23.4802 67.6873L23.7296 67.5376C23.767 67.595 23.8094 67.6499 23.8518 67.7048L23.6298 67.9018L23.8992 68.2011L24.1187 68.0016L24.2709 68.1388L24.0963 68.3882L24.4205 68.6252L24.5951 68.3757L24.7722 68.478L24.6525 68.7474L25.0192 68.912L25.1389 68.6401C25.2037 68.6651 25.2686 68.685 25.3359 68.705L25.2736 68.9943L25.6652 69.0766L25.7275 68.7873C25.7953 68.7978 25.8636 68.8044 25.9321 68.8072V69.1066H26.3312V68.8072C26.3997 68.8044 26.468 68.7978 26.5357 68.7873L26.5981 69.0766L26.9897 68.9943L26.9273 68.705C26.9947 68.685 27.0595 68.6651 27.1244 68.6401L27.2441 68.912L27.6108 68.7474L27.491 68.478L27.6681 68.3757L27.8427 68.6252L28.167 68.3882L27.9924 68.1388L28.1445 68.0016L28.364 68.2011L28.6334 67.9018L28.4114 67.7048C28.4538 67.6499 28.4962 67.595 28.5336 67.5376L28.7831 67.6873L28.9826 67.3381L28.7332 67.1909C28.7631 67.1286 28.7906 67.0662 28.818 67.0039L29.0999 67.0937L29.2246 66.7145L28.9427 66.6222C28.9577 66.5549 28.9726 66.49 28.9826 66.4202L29.2794 66.4526L29.3219 66.0535L29.025 66.0211C29.025 65.9787 29.025 65.9438 29.025 65.9089ZM26.1291 68.3433C25.6475 68.3438 25.1766 68.2014 24.7759 67.9342C24.3753 67.667 24.0629 67.287 23.8782 66.8422C23.6936 66.3974 23.645 65.9079 23.7387 65.4355C23.8323 64.9631 24.064 64.529 24.4043 64.1883C24.7447 63.8476 25.1785 63.6155 25.6508 63.5214C26.1231 63.4272 26.6127 63.4753 27.0577 63.6595C27.5027 63.8437 27.883 64.1557 28.1506 64.5561C28.4182 64.9565 28.5611 65.4273 28.5611 65.9089C28.5614 66.2284 28.4988 66.5449 28.3767 66.8403C28.2546 67.1356 28.0755 67.404 27.8497 67.6301C27.6238 67.8562 27.3556 68.0356 27.0604 68.1579C26.7652 68.2803 26.4487 68.3433 26.1291 68.3433Z" fill="#919191" stroke="#263238" stroke-miterlimit="10"/>
<path d="M41.7448 62.9731H39.3652V66.505H41.7448V62.9731Z" fill="#263238" stroke="#263238" stroke-miterlimit="10"/>
<path d="M37.1927 57.2486H43.1192V60.7806H37.1927C36.7244 60.7806 36.2752 60.5945 35.944 60.2633C35.6128 59.9321 35.4268 59.483 35.4268 59.0146C35.4268 58.5462 35.6128 58.097 35.944 57.7659C36.2752 57.4347 36.7244 57.2486 37.1927 57.2486Z" fill="#919191" stroke="#263238" stroke-miterlimit="10"/>
<path d="M43.1142 72.2145H37.1927C36.7244 72.2145 36.2752 72.0284 35.944 71.6972C35.6128 71.3661 35.4268 70.9169 35.4268 70.4485C35.4268 69.9801 35.6128 69.531 35.944 69.1998C36.2752 68.8686 36.7244 68.6825 37.1927 68.6825H43.1192L43.1142 72.2145Z" fill="#919191" stroke="#263238" stroke-miterlimit="10"/>
<path d="M64.0725 82.1996C74.0261 79.7676 80.1236 69.7272 77.6917 59.7736C75.2597 49.82 65.2193 43.7226 55.2657 46.1545C45.3121 48.5864 39.2146 58.6269 41.6466 68.5805C44.0785 78.534 54.119 84.6315 64.0725 82.1996Z" fill="#919191" stroke="#263238" stroke-miterlimit="10"/>
<path d="M76.6306 64.1828C76.6306 67.5374 75.6359 70.8167 73.7721 73.606C71.9084 76.3953 69.2594 78.5692 66.1601 79.853C63.0609 81.1368 59.6505 81.4727 56.3603 80.8182C53.0702 80.1637 50.0479 78.5483 47.6759 76.1763C45.3038 73.8042 43.6884 70.782 43.0339 67.4918C42.3795 64.2016 42.7154 60.7913 43.9991 57.692C45.2829 54.5927 47.4569 51.9437 50.2461 50.08C53.0354 48.2163 56.3147 47.2215 59.6693 47.2215C61.8986 47.2149 64.1071 47.6491 66.1679 48.4992C68.2287 49.3492 70.1011 50.5984 71.6775 52.1747C73.2538 53.751 74.5029 55.6234 75.3529 57.6842C76.203 59.745 76.6372 61.9536 76.6306 64.1828Z" fill="#263238" stroke="#263238" stroke-miterlimit="10"/>
<path d="M18.3014 55.1833H16.2236V58.9223H18.3014V55.1833Z" fill="#407BFF" stroke="#263238" stroke-miterlimit="10"/>
<path d="M21.0026 55.1833H18.9248V58.9223H21.0026V55.1833Z" fill="#407BFF" stroke="#263238" stroke-miterlimit="10"/>
<path d="M23.7018 55.1833H21.624V58.9223H23.7018V55.1833Z" fill="#407BFF" stroke="#263238" stroke-miterlimit="10"/>
<path d="M26.403 55.1833H24.3252V58.9223H26.403V55.1833Z" fill="#407BFF" stroke="#263238" stroke-miterlimit="10"/>
<path d="M70.8661 58.9946C70.8661 58.8723 70.8298 58.7527 70.7618 58.651C70.6939 58.5492 70.5973 58.4699 70.4842 58.4231C70.3712 58.3763 70.2468 58.3641 70.1268 58.3879C70.0068 58.4118 69.8966 58.4707 69.8101 58.5572C69.7236 58.6437 69.6647 58.754 69.6408 58.874C69.6169 58.9939 69.6292 59.1183 69.676 59.2314C69.7228 59.3444 69.8021 59.441 69.9038 59.509C70.0056 59.5769 70.1251 59.6132 70.2475 59.6132C70.4116 59.6132 70.5689 59.5481 70.6849 59.432C70.8009 59.316 70.8661 59.1587 70.8661 58.9946Z" fill="#407BFF" stroke="#263238" stroke-miterlimit="10"/>
<path d="M71.7391 60.5336C71.7391 60.4112 71.7028 60.2915 71.6347 60.1897C71.5666 60.0879 71.4699 60.0086 71.3567 59.9619C71.2435 59.9151 71.119 59.903 70.9989 59.9271C70.8789 59.9512 70.7687 60.0103 70.6823 60.0971C70.5958 60.1839 70.5371 60.2943 70.5135 60.4145C70.49 60.5346 70.5026 60.6591 70.5498 60.7721C70.597 60.8851 70.6766 60.9815 70.7787 61.0492C70.8807 61.1168 71.0006 61.1527 71.123 61.1522C71.2042 61.1522 71.2845 61.1362 71.3594 61.1051C71.4343 61.074 71.5023 61.0284 71.5596 60.9709C71.6168 60.9134 71.6621 60.8452 71.693 60.7701C71.7238 60.6951 71.7395 60.6147 71.7391 60.5336Z" fill="white" stroke="#263238" stroke-miterlimit="10"/>
<path d="M74.3329 60.5336C74.3329 60.4113 74.2966 60.2917 74.2286 60.19C74.1607 60.0882 74.064 60.0089 73.951 59.9621C73.838 59.9153 73.7136 59.903 73.5936 59.9269C73.4736 59.9508 73.3634 60.0097 73.2769 60.0962C73.1904 60.1827 73.1315 60.293 73.1076 60.4129C73.0837 60.5329 73.096 60.6573 73.1428 60.7703C73.1896 60.8834 73.2689 60.98 73.3706 61.048C73.4723 61.1159 73.592 61.1522 73.7143 61.1522C73.7956 61.1525 73.8762 61.1368 73.9514 61.1058C74.0266 61.0748 74.0949 61.0293 74.1524 60.9718C74.2099 60.9143 74.2555 60.8459 74.2865 60.7707C74.3174 60.6955 74.3332 60.615 74.3329 60.5336Z" fill="white" stroke="#263238" stroke-miterlimit="10"/>
<path d="M73.16 58.9946C73.16 58.8723 73.1237 58.7527 73.0558 58.651C72.9878 58.5492 72.8912 58.4699 72.7782 58.4231C72.6651 58.3763 72.5408 58.3641 72.4208 58.3879C72.3008 58.4118 72.1905 58.4707 72.104 58.5572C72.0175 58.6437 71.9586 58.754 71.9347 58.874C71.9109 58.9939 71.9231 59.1183 71.9699 59.2314C72.0168 59.3444 72.096 59.441 72.1978 59.509C72.2995 59.5769 72.4191 59.6132 72.5414 59.6132C72.6227 59.6132 72.7031 59.5972 72.7782 59.5661C72.8532 59.5351 72.9214 59.4895 72.9789 59.432C73.0363 59.3746 73.0819 59.3064 73.1129 59.2314C73.144 59.1563 73.16 59.0759 73.16 58.9946Z" fill="#407BFF" stroke="#263238" stroke-miterlimit="10"/>
<path d="M48.667 58.9946C48.667 58.8722 48.7033 58.7525 48.7714 58.6507C48.8395 58.5489 48.9363 58.4696 49.0494 58.4229C49.1626 58.3762 49.2871 58.3641 49.4072 58.3881C49.5272 58.4122 49.6375 58.4714 49.7239 58.5581C49.8103 58.6449 49.869 58.7553 49.8926 58.8755C49.9162 58.9957 49.9036 59.1201 49.8564 59.2331C49.8092 59.3461 49.7295 59.4425 49.6274 59.5102C49.5254 59.5779 49.4055 59.6137 49.2831 59.6132C49.202 59.6132 49.1217 59.5972 49.0467 59.5661C48.9718 59.535 48.9038 59.4894 48.8466 59.4319C48.7893 59.3744 48.744 59.3062 48.7132 59.2312C48.6824 59.1561 48.6667 59.0758 48.667 58.9946Z" fill="#407BFF" stroke="#263238" stroke-miterlimit="10"/>
<path d="M47.7988 60.5336C47.7988 60.4113 47.8351 60.2917 47.9031 60.19C47.9711 60.0882 48.0677 60.0089 48.1807 59.9621C48.2937 59.9153 48.4181 59.903 48.5381 59.9269C48.6581 59.9508 48.7683 60.0097 48.8548 60.0962C48.9413 60.1827 49.0003 60.293 49.0241 60.4129C49.048 60.5329 49.0357 60.6573 48.9889 60.7703C48.9421 60.8834 48.8628 60.98 48.7611 61.048C48.6594 61.1159 48.5398 61.1522 48.4174 61.1522C48.3361 61.1525 48.2555 61.1368 48.1803 61.1058C48.1051 61.0748 48.0368 61.0293 47.9793 60.9718C47.9218 60.9143 47.8762 60.8459 47.8452 60.7707C47.8143 60.6955 47.7985 60.615 47.7988 60.5336Z" fill="white" stroke="#263238" stroke-miterlimit="10"/>
<path d="M45.2041 60.5336C45.2041 60.4113 45.2404 60.2917 45.3084 60.19C45.3763 60.0882 45.4729 60.0089 45.586 59.9621C45.699 59.9153 45.8234 59.903 45.9434 59.9269C46.0634 59.9508 46.1736 60.0097 46.2601 60.0962C46.3466 60.1827 46.4055 60.293 46.4294 60.4129C46.4533 60.5329 46.441 60.6573 46.3942 60.7703C46.3474 60.8834 46.2681 60.98 46.1664 61.048C46.0646 61.1159 45.945 61.1522 45.8227 61.1522C45.7414 61.1525 45.6608 61.1368 45.5856 61.1058C45.5104 61.0748 45.4421 61.0293 45.3846 60.9718C45.327 60.9143 45.2815 60.8459 45.2505 60.7707C45.2196 60.6955 45.2038 60.615 45.2041 60.5336Z" fill="white" stroke="#263238" stroke-miterlimit="10"/>
<path d="M46.3799 58.9946C46.3799 58.8722 46.4162 58.7525 46.4843 58.6507C46.5524 58.5489 46.6492 58.4696 46.7623 58.4229C46.8755 58.3762 47 58.3641 47.1201 58.3881C47.2401 58.4122 47.3504 58.4714 47.4368 58.5581C47.5232 58.6449 47.5819 58.7553 47.6055 58.8755C47.6291 58.9957 47.6165 59.1201 47.5693 59.2331C47.5221 59.3461 47.4424 59.4425 47.3403 59.5102C47.2383 59.5779 47.1184 59.6137 46.996 59.6132C46.9149 59.6132 46.8345 59.5972 46.7596 59.5661C46.6847 59.535 46.6167 59.4894 46.5595 59.4319C46.5022 59.3744 46.4569 59.3062 46.4261 59.2312C46.3953 59.1561 46.3796 59.0758 46.3799 58.9946Z" fill="#407BFF" stroke="#263238" stroke-miterlimit="10"/>
<path d="M71.2157 66.3878H48.4277V74.1027H71.2157V66.3878Z" fill="#919191" stroke="#263238" stroke-miterlimit="10"/>
<path d="M66.9873 73.6063H51.9766L53.2262 57.8772H65.7352L66.9873 73.6063Z" fill="#919191" stroke="#263238" stroke-miterlimit="10"/>
<path d="M65.2715 69.6428H53.6904L54.6557 57.8772H64.3062L65.2715 69.6428Z" fill="#407BFF" stroke="#263238" stroke-miterlimit="10"/>
<path d="M54.6279 59.7479H64.4979" stroke="#263238" stroke-width="0.5" stroke-miterlimit="10"/>
<path d="M54.2314 62.1923H64.498" stroke="#263238" stroke-width="0.5" stroke-miterlimit="10"/>
<path d="M54.0342 64.6343H64.862" stroke="#263238" stroke-width="0.5" stroke-miterlimit="10"/>
<path d="M53.8379 67.0762H65.0947" stroke="#263238" stroke-width="0.5" stroke-miterlimit="10"/>
<path d="M62.4725 53.4198H56.4887C56.0203 53.4198 55.6406 53.7995 55.6406 54.2679V57.0316C55.6406 57.5 56.0203 57.8797 56.4887 57.8797H62.4725C62.9409 57.8797 63.3206 57.5 63.3206 57.0316V54.2679C63.3206 53.7995 62.9409 53.4198 62.4725 53.4198Z" fill="#407BFF" stroke="#263238" stroke-miterlimit="10"/>
<path d="M71.215 71.309V75.2451C68.1293 78.1163 64.085 79.7358 59.8704 79.7879C55.6558 79.84 51.5727 78.321 48.417 75.5269V71.309H71.215Z" fill="#407BFF" stroke="#263238" stroke-miterlimit="10"/>
<path d="M71.215 72.6709V76.6069C68.1293 79.4782 64.085 81.0977 59.8704 81.1498C55.6558 81.2019 51.5727 79.6829 48.417 76.8888V72.6709H71.215Z" fill="#919191" stroke="#263238" stroke-miterlimit="10"/>
<path d="M51.1535 65.8041H46.8184V68.034H51.1535V65.8041Z" fill="#407BFF" stroke="#263238" stroke-miterlimit="10"/>
<path d="M51.1535 67.166H46.8184V69.3959H51.1535V67.166Z" fill="#919191" stroke="#263238" stroke-miterlimit="10"/>
<path d="M72.5177 65.8041H68.1826V68.034H72.5177V65.8041Z" fill="#407BFF" stroke="#263238" stroke-miterlimit="10"/>
<path d="M72.5177 67.166H68.1826V69.3959H72.5177V67.166Z" fill="#919191" stroke="#263238" stroke-miterlimit="10"/>
<path d="M14.2029 20.3877V13.0669C14.1105 13.1166 14.0155 13.1616 13.9185 13.2016L13.5843 13.3488L13.2476 13.486C13.1378 13.5309 13.038 13.5758 12.9482 13.6231V12.2139L13.2999 12.0268C13.4521 11.947 13.6142 11.8597 13.7988 11.7599C13.9834 11.6601 14.1355 11.5604 14.2852 11.4581C14.4076 11.3805 14.522 11.2911 14.6269 11.1912H16.1235V20.3877H14.2029Z" fill="#263238"/>
<path d="M17.8463 20.3877L19.8417 12.6354H17.335V11.1912H21.695V12.4982L19.6996 20.3877H17.8463Z" fill="#263238"/>
<path d="M25.22 20.5598C24.7363 20.5771 24.2573 20.4606 23.8357 20.2231C23.4691 20.0058 23.1763 19.6834 22.9951 19.2977C22.7975 18.8679 22.7003 18.3988 22.7107 17.9258V13.7578C22.7014 13.2757 22.7914 12.7969 22.9751 12.351C23.1434 11.9566 23.4313 11.6251 23.7982 11.4032C24.2309 11.1583 24.7231 11.0383 25.22 11.0565C25.7138 11.0355 26.2037 11.153 26.6343 11.3957C26.998 11.62 27.2836 11.951 27.4524 12.3436C27.6363 12.7919 27.7254 13.2734 27.7143 13.7578V17.9258C27.7235 18.397 27.6263 18.8642 27.43 19.2927C27.2497 19.6803 26.9568 20.0046 26.5894 20.2231C26.1724 20.4588 25.6987 20.5753 25.22 20.5598ZM25.22 18.8662C25.2948 18.8732 25.3701 18.8609 25.4387 18.8303C25.5073 18.7997 25.5669 18.7519 25.6116 18.6916C25.6935 18.5694 25.7441 18.4289 25.7588 18.2825C25.7772 18.1486 25.7872 18.0136 25.7887 17.8784V13.8027C25.7887 13.6755 25.7887 13.5284 25.7662 13.3662C25.7543 13.213 25.7056 13.065 25.6241 12.9347C25.5793 12.8705 25.5183 12.8194 25.4473 12.7865C25.3763 12.7536 25.2979 12.7402 25.22 12.7476C25.1425 12.7402 25.0643 12.7536 24.9937 12.7864C24.9231 12.8193 24.8626 12.8705 24.8184 12.9347C24.7369 13.065 24.6881 13.213 24.6762 13.3662C24.6613 13.5284 24.6538 13.6755 24.6538 13.8027V17.8784C24.655 18.0137 24.6658 18.1488 24.6862 18.2825C24.7058 18.4289 24.7587 18.5689 24.8409 18.6916C24.8836 18.7509 24.941 18.7982 25.0075 18.8288C25.0739 18.8594 25.1471 18.8723 25.22 18.8662Z" fill="#263238"/>
<path d="M28.8019 20.3877V19.0483L31.0044 15.666C31.1707 15.4166 31.3278 15.1746 31.4758 14.9401C31.6197 14.7137 31.7417 14.474 31.84 14.2243C31.9348 13.9819 31.983 13.7238 31.9822 13.4635C31.9986 13.254 31.9422 13.0452 31.8225 12.8724C31.7703 12.8092 31.7041 12.7591 31.6293 12.7257C31.5544 12.6924 31.4729 12.6769 31.391 12.6803C31.3043 12.6754 31.2175 12.6878 31.1357 12.717C31.0538 12.7461 30.9787 12.7913 30.9146 12.8499C30.7949 12.9756 30.7143 13.1333 30.6826 13.3039C30.6387 13.513 30.6178 13.7263 30.6203 13.9399V14.3939H28.7795V13.895C28.7673 13.3971 28.852 12.9015 29.0289 12.4359C29.1953 12.0257 29.4846 11.6772 29.857 11.4381C30.3096 11.1727 30.8295 11.0445 31.3536 11.069C32.1767 11.069 32.8003 11.2835 33.2193 11.7125C33.4386 11.9528 33.6075 12.2347 33.7159 12.5415C33.8243 12.8483 33.87 13.1737 33.8504 13.4984C33.8532 13.8512 33.7932 14.2017 33.6733 14.5336C33.5525 14.8579 33.397 15.1681 33.2094 15.459C33.0148 15.7583 32.8103 16.0701 32.5908 16.3943L30.9096 18.9036H33.601V20.4002L28.8019 20.3877Z" fill="#263238"/>
<path d="M95.959 43.3653V42.9063L97.8447 40.008C97.9819 39.7959 98.1116 39.5889 98.2338 39.3894C98.3541 39.1915 98.4536 38.9817 98.5306 38.7633C98.6134 38.5227 98.6531 38.2694 98.6479 38.015C98.6663 37.7038 98.586 37.3948 98.4184 37.132C98.3374 37.024 98.2305 36.9381 98.1076 36.8823C97.9846 36.8265 97.8496 36.8025 97.715 36.8127C97.4785 36.7965 97.2437 36.8636 97.0515 37.0023C96.8927 37.139 96.781 37.3223 96.7322 37.5261C96.6696 37.7705 96.6394 38.0221 96.6424 38.2744V38.4291H96.0114V38.2569C96.0006 37.8877 96.059 37.5197 96.1835 37.1719C96.2843 36.8963 96.4749 36.6625 96.7247 36.5084C97.019 36.3466 97.3521 36.2689 97.6875 36.2839C97.9094 36.2673 98.1321 36.3011 98.339 36.3827C98.5459 36.4643 98.7316 36.5917 98.8823 36.7554C99.1665 37.1306 99.3071 37.595 99.2789 38.0649C99.2819 38.3299 99.2414 38.5936 99.1592 38.8456C99.0773 39.0813 98.9729 39.3085 98.8474 39.5241C98.7202 39.7411 98.598 39.9581 98.4483 40.1776L96.7023 42.824H99.1417V43.3603L95.959 43.3653Z" fill="#263238"/>
<path d="M101.96 43.4501C101.607 43.4723 101.257 43.3786 100.962 43.1832C100.714 42.995 100.533 42.733 100.443 42.4349C100.335 42.0914 100.282 41.7326 100.289 41.3723V38.3393C100.282 37.977 100.336 37.6161 100.448 37.2717C100.542 36.9804 100.726 36.7268 100.975 36.5483C101.273 36.3784 101.611 36.2891 101.955 36.2891C102.299 36.2891 102.636 36.3784 102.935 36.5483C103.182 36.7277 103.366 36.9811 103.459 37.2717C103.57 37.6164 103.624 37.9771 103.619 38.3393V41.3848C103.625 41.7485 103.572 42.1107 103.461 42.4574C103.371 42.7502 103.189 43.0064 102.943 43.1882C102.65 43.3755 102.307 43.467 101.96 43.4501ZM101.96 42.9512C102.187 42.9662 102.412 42.8939 102.588 42.7492C102.743 42.6009 102.851 42.4112 102.9 42.2029C102.963 41.9526 102.993 41.6952 102.99 41.4372V38.2919C102.993 38.0338 102.963 37.7764 102.9 37.5261C102.851 37.3203 102.745 37.1326 102.593 36.9848C102.415 36.8409 102.189 36.7697 101.96 36.7853C101.737 36.7719 101.517 36.8431 101.344 36.9848C101.188 37.1301 101.08 37.3186 101.032 37.5261C100.967 37.7761 100.936 38.0336 100.94 38.2919V41.4347C100.936 41.6929 100.967 41.9505 101.032 42.2004C101.08 42.4097 101.19 42.5999 101.346 42.7467C101.518 42.8891 101.737 42.9613 101.96 42.9487V42.9512Z" fill="#263238"/>
<path d="M106.39 43.4501C106.058 43.4661 105.73 43.3742 105.454 43.1882C105.209 42.9976 105.028 42.7364 104.936 42.4399C104.819 42.0595 104.764 41.6628 104.773 41.2651V38.4715C104.766 38.0866 104.818 37.7029 104.928 37.3341C105.01 37.0179 105.2 36.7408 105.466 36.5514C105.733 36.3621 106.057 36.2727 106.382 36.2989C106.684 36.2877 106.983 36.3502 107.255 36.481C107.484 36.6004 107.667 36.7902 107.779 37.0223C107.906 37.3034 107.966 37.6096 107.956 37.9177C107.956 37.9177 107.956 37.9526 107.956 37.9901C107.958 38.015 107.958 38.04 107.956 38.0649H107.333C107.362 37.7306 107.288 37.3955 107.121 37.1046C107.032 37.0022 106.921 36.9227 106.795 36.8727C106.67 36.8228 106.534 36.8039 106.4 36.8177C106.218 36.8149 106.038 36.8643 105.883 36.9599C105.717 37.0744 105.593 37.2399 105.529 37.4313C105.435 37.7192 105.393 38.0216 105.404 38.3243V39.6563C105.536 39.533 105.69 39.4357 105.858 39.3694C106.113 39.2707 106.385 39.2275 106.657 39.2425C106.93 39.2576 107.196 39.3306 107.437 39.4567C107.668 39.6181 107.834 39.8571 107.904 40.1302C108.006 40.5199 108.052 40.9222 108.041 41.3249C108.048 41.7064 107.992 42.0864 107.876 42.4499C107.785 42.7487 107.6 43.0107 107.35 43.1982C107.065 43.3816 106.728 43.4698 106.39 43.4501ZM106.39 42.9238C106.59 42.9325 106.787 42.8794 106.956 42.7716C107.116 42.6494 107.231 42.4775 107.283 42.2828C107.366 42.0046 107.404 41.7149 107.395 41.4247C107.399 41.1067 107.377 40.7889 107.33 40.4744C107.304 40.2584 107.207 40.0573 107.053 39.9032C106.86 39.7614 106.621 39.6941 106.382 39.7136C106.247 39.7137 106.113 39.7356 105.986 39.7785C105.865 39.818 105.749 39.8698 105.639 39.9331C105.549 39.9817 105.465 40.0412 105.39 40.1102V41.3224C105.382 41.6308 105.416 41.9388 105.492 42.2379C105.54 42.4412 105.654 42.6229 105.816 42.7542C105.983 42.8727 106.185 42.9323 106.39 42.9238Z" fill="#263238"/>
<path d="M109.478 43.3653L110.845 36.8676H108.725V36.3688H111.493V36.6805L110.091 43.3753L109.478 43.3653Z" fill="#263238"/>
<path d="M3.69173 88.8815C3.44381 88.8951 3.19808 88.8286 2.99083 88.6919C2.81764 88.5629 2.68868 88.3834 2.62167 88.1781C2.54633 87.9359 2.5093 87.6834 2.51192 87.4298V85.2622C2.50858 85.0083 2.54649 84.7556 2.62417 84.5139C2.69164 84.3068 2.82363 84.1268 3.00081 84.0001C3.20599 83.8675 3.44775 83.8029 3.69173 83.8155C3.9398 83.8013 4.18601 83.8659 4.39513 84.0001C4.56565 84.1206 4.69532 84.2903 4.76678 84.4865C4.84446 84.7282 4.88237 84.9809 4.87902 85.2348V87.4023C4.88507 87.6654 4.84713 87.9275 4.76678 88.1781C4.70223 88.3866 4.57293 88.5692 4.39762 88.6994C4.18724 88.8326 3.9403 88.8963 3.69173 88.8815ZM3.69173 88.5248C3.85365 88.536 4.01365 88.4842 4.13821 88.3801C4.24822 88.2755 4.32536 88.1412 4.36021 87.9935C4.40504 87.8149 4.42684 87.6313 4.42506 87.4472V85.2148C4.42684 85.0315 4.40505 84.8488 4.36021 84.6711C4.32743 84.5238 4.25092 84.3899 4.14071 84.2869C4.01119 84.1943 3.85595 84.1445 3.69672 84.1445C3.53749 84.1445 3.38225 84.1943 3.25273 84.2869C3.14269 84.3904 3.06549 84.524 3.03074 84.6711C2.9859 84.8488 2.9641 85.0315 2.96589 85.2148V87.4472C2.96411 87.6313 2.9859 87.8149 3.03074 87.9935C3.06747 88.141 3.14532 88.2751 3.25523 88.3801C3.37698 88.4822 3.53311 88.5339 3.69173 88.5248Z" fill="#263238"/>
<path d="M6.87494 88.8815C6.6262 88.8955 6.37957 88.829 6.17155 88.6919C5.99668 88.5602 5.86756 88.377 5.80239 88.1681C5.72705 87.9259 5.69002 87.6734 5.69264 87.4198V85.2522C5.68882 84.9981 5.7276 84.7452 5.80738 84.5039C5.87274 84.2965 6.00413 84.116 6.18152 83.9901C6.39397 83.8692 6.63423 83.8056 6.87868 83.8056C7.12314 83.8056 7.36339 83.8692 7.57584 83.9901C7.75154 84.1172 7.88182 84.2973 7.9475 84.5039C8.02607 84.7455 8.06482 84.9982 8.06223 85.2522V87.4198C8.06667 87.6778 8.02875 87.9348 7.94999 88.1806C7.8864 88.3896 7.7569 88.5725 7.58083 88.7019C7.37037 88.8347 7.12329 88.8975 6.87494 88.8815ZM6.87494 88.5248C7.03606 88.5356 7.19513 88.4838 7.31893 88.3801C7.42893 88.2755 7.50608 88.1412 7.54092 87.9935C7.58576 87.8149 7.60755 87.6313 7.60578 87.4472V85.2148C7.60756 85.0315 7.58576 84.8488 7.54092 84.6711C7.50798 84.5244 7.43249 84.3908 7.32392 84.2869C7.19387 84.1945 7.03826 84.1448 6.87868 84.1448C6.71911 84.1448 6.56349 84.1945 6.43345 84.2869C6.3234 84.3905 6.24621 84.524 6.21146 84.6711C6.16751 84.8489 6.14655 85.0316 6.1491 85.2148V87.4472C6.14656 87.6312 6.16751 87.8148 6.21146 87.9935C6.24819 88.141 6.32603 88.2751 6.43594 88.3801C6.55871 88.4821 6.71558 88.5338 6.87494 88.5248Z" fill="#263238"/>
<path d="M9.10247 88.8191L10.0728 84.1996H8.57617V83.838H10.5442V84.0575L9.54646 88.8191H9.10247Z" fill="#263238"/>
<path d="M12.3921 88.8815C12.1514 88.8937 11.9125 88.8338 11.7061 88.7094C11.5311 88.5881 11.4006 88.4129 11.3345 88.2105C11.2526 87.974 11.2129 87.7249 11.2172 87.4747C11.2134 87.2913 11.2352 87.1082 11.2821 86.9309C11.3162 86.8018 11.3737 86.6801 11.4517 86.5717C11.5154 86.4826 11.5939 86.405 11.6837 86.3423C11.7642 86.2888 11.8474 86.2397 11.9331 86.1951C11.7269 86.1163 11.5519 85.9728 11.4342 85.786C11.3 85.5558 11.2358 85.2914 11.2497 85.0253C11.2464 84.805 11.2836 84.586 11.3594 84.3792C11.4342 84.1954 11.5663 84.0406 11.736 83.9377C11.9349 83.8228 12.1626 83.7674 12.3921 83.7781C12.6195 83.767 12.8451 83.8234 13.0406 83.9402C13.202 84.0488 13.3257 84.2048 13.3948 84.3867C13.4729 84.5947 13.5109 84.8156 13.507 85.0377C13.5194 85.2995 13.4562 85.5593 13.3249 85.786C13.2084 85.9673 13.0397 86.109 12.841 86.1926C12.9271 86.2366 13.0103 86.2857 13.0905 86.3398C13.1801 86.4019 13.2578 86.4796 13.3199 86.5692C13.3988 86.679 13.4587 86.8013 13.497 86.9309C13.5461 87.1079 13.5688 87.2911 13.5644 87.4747C13.5687 87.7249 13.529 87.974 13.4471 88.2105C13.381 88.4129 13.2505 88.5881 13.0755 88.7094C12.87 88.8337 12.6319 88.8937 12.3921 88.8815ZM12.3921 88.5248C12.5364 88.531 12.6788 88.4907 12.7986 88.41C12.9174 88.3259 13.0051 88.2049 13.0481 88.0658C13.106 87.8777 13.133 87.6814 13.1279 87.4846C13.1313 87.3026 13.1078 87.121 13.058 86.9459C13.0165 86.8035 12.9372 86.6751 12.8286 86.5742C12.7089 86.4736 12.5583 86.4173 12.402 86.4146C12.2438 86.4187 12.0912 86.4748 11.968 86.5742C11.857 86.6741 11.7759 86.8027 11.7336 86.9459C11.685 87.1213 11.6615 87.3027 11.6637 87.4846C11.6582 87.6816 11.686 87.8781 11.746 88.0658C11.7871 88.2054 11.8744 88.3269 11.9936 88.4103C12.1128 88.4937 12.2568 88.5341 12.402 88.5248H12.3921ZM12.3921 86.003C12.5391 86.0034 12.6817 85.9532 12.7961 85.8608C12.8953 85.7676 12.9662 85.6483 13.0007 85.5166C13.0445 85.3583 13.0655 85.1945 13.063 85.0302C13.0784 84.8004 13.0227 84.5713 12.9034 84.3742C12.8436 84.2972 12.7655 84.2364 12.6762 84.1972C12.5869 84.158 12.4892 84.1417 12.3921 84.1498C12.2938 84.1413 12.1949 84.1574 12.1043 84.1966C12.0138 84.2358 11.9344 84.2968 11.8732 84.3742C11.751 84.5703 11.6934 84.7997 11.7086 85.0302C11.7062 85.1945 11.7272 85.3583 11.771 85.5166C11.8062 85.6498 11.8799 85.7695 11.983 85.8608C12.0995 85.9528 12.2436 86.0029 12.3921 86.003Z" fill="#263238"/>
<path d="M63.7818 102.827V91.6701C63.6809 91.7931 63.5517 91.8899 63.4052 91.9519C63.2053 92.0501 62.9986 92.1334 62.7866 92.2014L62.1755 92.3959C61.9909 92.4533 61.8737 92.4882 61.8213 92.4982V91.5728C61.9685 91.5304 62.1406 91.4705 62.3401 91.3932C62.5473 91.3084 62.7468 91.2057 62.9362 91.0864C63.1388 90.9576 63.3329 90.816 63.5174 90.6624C63.7043 90.5048 63.8717 90.3257 64.0163 90.1286H64.9417V102.85L63.7818 102.827Z" fill="#263238"/>
<path d="M70.6864 102.969C70.1142 102.996 69.5461 102.86 69.0477 102.578C68.6246 102.303 68.3065 101.893 68.1447 101.415C67.9432 100.815 67.8478 100.183 67.8629 99.5496H69.0078C69.0004 99.9982 69.0507 100.446 69.1574 100.882C69.2349 101.223 69.4224 101.53 69.6912 101.755C69.994 101.972 70.3618 102.079 70.7338 102.059C70.9327 102.073 71.1324 102.047 71.321 101.983C71.5096 101.918 71.6832 101.816 71.8313 101.682C72.1102 101.377 72.2909 100.994 72.3501 100.585C72.4527 99.9994 72.4995 99.4055 72.4898 98.8113C72.5045 98.1902 72.4492 97.5693 72.3252 96.9605C72.2589 96.576 72.0657 96.2247 71.7764 95.9628C71.4785 95.7474 71.116 95.6401 70.7488 95.6585C70.4259 95.6575 70.1096 95.7502 69.8384 95.9254C69.5354 96.1255 69.2834 96.3938 69.1025 96.7086H68.1447V90.1186H73.0884L73.071 91.2012H69.1649L69.1025 95.6111C69.3131 95.3629 69.5719 95.1601 69.8633 95.015C70.2323 94.8372 70.6388 94.7516 71.0481 94.7655C71.5926 94.7391 72.1289 94.9061 72.5621 95.2369C72.9678 95.5892 73.2552 96.0577 73.3853 96.5789C73.565 97.2615 73.6489 97.9659 73.6347 98.6716C73.6414 99.2872 73.5888 99.902 73.4776 100.507C73.3948 100.986 73.2213 101.444 72.9662 101.857C72.744 102.211 72.4304 102.499 72.0583 102.69C71.629 102.889 71.1592 102.984 70.6864 102.969Z" fill="#263238"/>
<path d="M76.2268 102.827L78.7037 91.044H74.8574V90.1186H79.8785V90.6848L77.3517 102.827H76.2268Z" fill="#263238"/>
<path d="M84.6195 102.984C84.0068 103.014 83.3991 102.861 82.8735 102.545C82.4318 102.242 82.0994 101.805 81.9256 101.298C81.7154 100.696 81.614 100.06 81.6263 99.4224C81.6156 98.9547 81.671 98.4878 81.7909 98.0356C81.8804 97.7069 82.0264 97.3963 82.2224 97.1177C82.3864 96.8904 82.589 96.6937 82.8211 96.5365C83.0265 96.3975 83.2407 96.2717 83.4621 96.1598C82.9472 95.9519 82.5109 95.5871 82.215 95.1172C81.8767 94.5293 81.7139 93.8567 81.746 93.1791C81.7354 92.6167 81.8311 92.0574 82.0279 91.5304C82.2037 91.0645 82.5258 90.6681 82.9458 90.4005C83.4524 90.1076 84.0325 89.9665 84.617 89.9939C85.1982 89.9643 85.7751 90.1094 86.2732 90.4105C86.6848 90.6863 86.9996 91.084 87.1736 91.5479C87.3713 92.0789 87.4669 92.6425 87.4555 93.2091C87.4909 93.8789 87.3306 94.5445 86.994 95.1247C86.696 95.5852 86.2668 95.9457 85.7619 96.1598C85.9823 96.2706 86.1948 96.3965 86.3979 96.5365C86.6251 96.6961 86.8241 96.8925 86.9866 97.1177C87.1832 97.3969 87.3316 97.7072 87.4256 98.0356C87.5508 98.4869 87.6088 98.9542 87.5977 99.4224C87.6094 100.06 87.509 100.695 87.3009 101.298C87.1264 101.805 86.7931 102.243 86.3505 102.545C85.83 102.86 85.2273 103.013 84.6195 102.984ZM84.6195 102.074C84.9868 102.101 85.3521 101.999 85.6526 101.786C85.953 101.573 86.1698 101.262 86.2657 100.907C86.4152 100.426 86.4844 99.925 86.4702 99.4224C86.4782 98.9588 86.4177 98.4965 86.2907 98.0505C86.1875 97.6865 85.9865 97.3578 85.7095 97.1002C85.4033 96.844 85.0186 96.7006 84.6195 96.6936C84.2155 96.7027 83.8259 96.8457 83.512 97.1002C83.2271 97.354 83.0204 97.6836 82.9159 98.0505C82.7888 98.4965 82.7283 98.9588 82.7363 99.4224C82.7217 99.9256 82.7934 100.428 82.9483 100.907C83.0517 101.263 83.2738 101.573 83.5779 101.785C83.8819 101.997 84.2495 102.099 84.6195 102.074ZM84.6195 95.641C84.9934 95.6446 85.3568 95.5175 85.6471 95.2818C85.903 95.0446 86.0856 94.7391 86.1734 94.4014C86.284 93.9951 86.3369 93.5752 86.3306 93.1542C86.3306 92.4242 86.1942 91.868 85.9215 91.4855C85.6488 91.103 85.2148 90.9118 84.6195 90.9118C84.0134 90.9118 83.5694 91.1039 83.2925 91.4855C83.0156 91.8671 82.8784 92.4234 82.8784 93.1542C82.8721 93.5752 82.925 93.9951 83.0356 94.4014C83.123 94.7428 83.3117 95.0497 83.5768 95.2818C83.8736 95.5163 84.2413 95.6429 84.6195 95.641Z" fill="#263238"/>
</svg>
