<svg width="131" height="98" viewBox="0 0 131 98" fill="none" xmlns="http://www.w3.org/2000/svg">
<path d="M130.803 85.6496H0V85.715H130.803V85.6496Z" fill="#EBEBEB"/>
<path d="M117.697 89.8589H109.032V89.9243H117.697V89.8589Z" fill="#EBEBEB"/>
<path d="M86.6493 90.5704H84.376V90.6358H86.6493V90.5704Z" fill="#EBEBEB"/>
<path d="M108.77 87.4312H103.75V87.4966H108.77V87.4312Z" fill="#EBEBEB"/>
<path d="M25.0224 87.8707H13.7236V87.9361H25.0224V87.8707Z" fill="#EBEBEB"/>
<path d="M29.0095 87.8707H27.3535V87.9361H29.0095V87.8707Z" fill="#EBEBEB"/>
<path d="M58.9008 88.9746H34.3936V89.04H58.9008V88.9746Z" fill="#EBEBEB"/>
<path d="M62.0006 73.982H11.4872C11.0915 73.9813 10.7123 73.8237 10.4327 73.5436C10.1531 73.2635 9.99609 72.884 9.99609 72.4883V1.48069C9.99954 1.08724 10.1581 0.711038 10.4373 0.433799C10.7165 0.15656 11.0938 0.000673997 11.4872 0H62.0006C62.3968 0 62.7768 0.157379 63.0569 0.437514C63.337 0.71765 63.4944 1.0976 63.4944 1.49377V72.4883C63.4944 72.8844 63.337 73.2644 63.0569 73.5445C62.7768 73.8247 62.3968 73.982 62.0006 73.982ZM11.4872 0.0523213C11.1089 0.0530143 10.7462 0.203808 10.4789 0.471603C10.2116 0.739399 10.0615 1.10231 10.0615 1.48069V72.4883C10.0615 72.8666 10.2116 73.2295 10.4789 73.4973C10.7462 73.7651 11.1089 73.9159 11.4872 73.9166H62.0006C62.3793 73.9159 62.7422 73.7652 63.0099 73.4975C63.2776 73.2298 63.4283 72.8669 63.429 72.4883V1.48069C63.4283 1.10207 63.2776 0.739164 63.0099 0.471444C62.7422 0.203723 62.3793 0.0530128 62.0006 0.0523213H11.4872Z" fill="#EBEBEB"/>
<path d="M118.589 73.982H68.0729C67.6769 73.9813 67.2974 73.8237 67.0174 73.5437C66.7374 73.2638 66.5798 72.8842 66.5791 72.4883V1.48069C66.5832 1.087 66.7424 0.710802 67.022 0.433635C67.3016 0.156468 67.6792 0.000666647 68.0729 0H118.589C118.982 0.00136152 119.359 0.157552 119.637 0.434717C119.916 0.711883 120.074 1.08769 120.077 1.48069V72.4883C120.077 72.8835 119.921 73.2627 119.642 73.5427C119.363 73.8226 118.984 73.9806 118.589 73.982ZM68.0729 0.0523213C67.6943 0.0530128 67.3313 0.203723 67.0636 0.471444C66.7959 0.739164 66.6452 1.10207 66.6445 1.48069V72.4883C66.6452 72.8669 66.7959 73.2298 67.0636 73.4975C67.3313 73.7652 67.6943 73.9159 68.0729 73.9166H118.589C118.967 73.9159 119.33 73.7652 119.598 73.4975C119.866 73.2298 120.017 72.8669 120.017 72.4883V1.48069C120.017 1.10207 119.866 0.739164 119.598 0.471444C119.33 0.203723 118.967 0.0530128 118.589 0.0523213H68.0729Z" fill="#EBEBEB"/>
<path d="M43.3407 45.4226C43.3407 45.4226 48.6225 46.5736 50.8775 45.4226C53.1325 44.2715 52.2902 27.4869 54.5949 27.139C59.8977 26.3411 58.9951 48.6325 56.7401 53.3283C54.4851 58.0241 42.875 56.028 42.875 56.028L43.3407 45.4226Z" fill="#EBEBEB"/>
<path d="M45.9688 48.5357C47.0518 48.5043 48.1322 48.4127 49.2074 48.274C50.2894 48.1504 51.355 47.911 52.3859 47.5599C52.6447 47.4608 52.8935 47.3373 53.1289 47.191C53.2616 47.1221 53.3735 47.0192 53.4533 46.8928C53.5301 46.773 53.595 46.6459 53.6469 46.5134C53.8358 45.9977 53.9751 45.4651 54.0628 44.9229C54.2538 43.8503 54.3663 42.7725 54.4605 41.692C54.6253 39.5312 54.7221 37.3651 54.7456 35.2016C54.7692 33.0381 54.7744 30.872 54.709 28.7086L54.6436 31.9525C54.6227 33.0355 54.5939 34.1168 54.5573 35.1964C54.4814 37.3572 54.3977 39.5181 54.2146 41.6711C54.1282 42.7463 54.0236 43.8241 53.8405 44.8836C53.7607 45.4112 53.6302 45.9299 53.4507 46.4323C53.4042 46.5518 53.3464 46.6666 53.278 46.775C53.2145 46.879 53.1241 46.964 53.0164 47.021C52.7948 47.1643 52.5601 47.286 52.3153 47.3846C51.3013 47.7535 50.2506 48.0122 49.1813 48.1563C48.1348 48.3342 47.0466 48.4467 45.9688 48.5357Z" fill="#E0E0E0"/>
<path d="M56.2848 30.7386L56.1252 34.5319L55.9526 38.3252C55.827 40.8549 55.691 43.3847 55.4974 45.9118C55.4032 47.1727 55.2907 48.4336 55.1206 49.6841C55.0467 50.3042 54.9198 50.9169 54.7413 51.5154C54.6457 51.7958 54.4622 52.038 54.2181 52.206C53.9677 52.3872 53.6974 52.539 53.4124 52.6586C52.8306 52.896 52.2292 53.0825 51.6151 53.2158C51.003 53.3571 50.3804 53.4774 49.7551 53.5585C48.5046 53.7495 47.2411 53.8646 45.9775 53.9378C47.2456 53.916 48.5117 53.8286 49.7708 53.6762C50.3987 53.5977 51.0265 53.4983 51.6491 53.3649C52.2734 53.2434 52.8861 53.0684 53.4804 52.8417C53.7816 52.72 54.0684 52.5656 54.3358 52.3813C54.472 52.284 54.595 52.1697 54.7021 52.0412C54.8077 51.9077 54.89 51.7574 54.9454 51.5965C55.1319 50.9828 55.2658 50.3545 55.3456 49.7181C55.5261 48.4598 55.6439 47.1962 55.7459 45.9327C55.9203 43.4056 56.0528 40.8767 56.1435 38.3461C56.2246 35.8059 56.2822 33.2736 56.2848 30.7386Z" fill="#E0E0E0"/>
<path d="M45.1369 74.3561C45.1369 74.3561 52.9589 16.2248 43.6196 15.5551C34.2803 14.8853 32.0279 35.3848 35.6354 73.6158L45.1369 74.3561Z" fill="#F0F0F0"/>
<path d="M36.2852 35.6228C36.2852 35.6228 27.7725 36.3684 27.5188 35.6228C27.265 34.8772 27.2572 18.7702 23.6549 19.7224C20.0526 20.6747 21.6274 40.0675 23.6549 42.3225C25.6823 44.5776 36.2852 45.7966 36.2852 45.7966C36.2852 45.7966 37.7031 38.647 36.2852 35.6228Z" fill="#F0F0F0"/>
<path d="M41.2557 69.0455C41.8085 64.6104 42.3117 60.1684 42.7651 55.7193C43.2099 51.272 43.6101 46.8247 43.9397 42.3591C44.2694 37.8935 44.5336 33.4332 44.6173 28.9597C44.6565 26.723 44.6539 24.4836 44.5153 22.2469C44.4543 21.1255 44.3241 20.0089 44.1255 18.9036C44.0264 18.3444 43.8686 17.7972 43.6546 17.2712C43.5444 16.9976 43.3848 16.7466 43.1837 16.5308C43.0736 16.416 42.9396 16.3267 42.7913 16.2692C42.7102 16.2407 42.6243 16.2286 42.5386 16.2335C42.4528 16.2384 42.3688 16.2604 42.2916 16.298C42.1507 16.3695 42.0274 16.4713 41.9306 16.5962C41.8382 16.711 41.756 16.8336 41.6847 16.9625C41.5509 17.2155 41.4355 17.4777 41.3394 17.7473C41.1549 18.2802 41.002 18.8236 40.8816 19.3745C40.62 20.4706 40.4525 21.5772 40.2982 22.6838C39.9895 24.9022 39.775 27.1311 39.6023 29.36C39.2544 33.8203 39.0451 38.2859 38.8829 42.7542C38.7207 47.2224 38.6213 51.6932 38.5585 56.1641C38.4957 60.6349 38.4853 65.1057 38.5114 69.5766C38.5271 65.1066 38.5829 60.6367 38.6788 56.1667C38.7599 51.6958 38.875 47.2276 39.0477 42.762C39.2204 38.2964 39.4453 33.8308 39.8064 29.3757C39.9921 27.1494 40.2066 24.9284 40.5205 22.7152C40.6801 21.6112 40.8632 20.5099 41.1118 19.4268C41.2337 18.8868 41.3856 18.3541 41.567 17.831C41.659 17.5737 41.77 17.3236 41.8992 17.0828C42.0093 16.8519 42.1826 16.6569 42.3989 16.5204C42.5068 16.479 42.6254 16.4745 42.7362 16.5076C42.8469 16.5408 42.9436 16.6096 43.011 16.7035C43.1911 16.8972 43.3339 17.1224 43.4322 17.368C43.6406 17.8735 43.795 18.3996 43.8926 18.9376C44.0935 20.0323 44.2263 21.1384 44.2903 22.2495C44.4342 24.4758 44.4446 26.7099 44.4132 28.944C44.3426 33.4096 44.0888 37.8752 43.7775 42.333C43.4662 46.7907 43.0738 51.259 42.6422 55.722C42.2105 60.1849 41.7684 64.6165 41.2557 69.0455Z" fill="#E0E0E0"/>
<path d="M35.2115 39.4475C34.1102 39.4135 33.0114 39.369 31.9127 39.2931C30.8139 39.2173 29.7204 39.1336 28.6348 38.9766C28.094 38.9006 27.5577 38.7949 27.0285 38.66C26.7694 38.5937 26.5178 38.5007 26.2777 38.3827C26.1667 38.3293 26.0671 38.2546 25.9847 38.163C25.9522 38.1246 25.9297 38.0788 25.9193 38.0296C25.9131 37.9731 25.9131 37.916 25.9193 37.8595C25.9193 37.7183 25.9481 37.5718 25.9429 37.4331V37.0172C25.9429 36.7372 25.9193 36.4626 25.9088 36.1879C25.8748 35.6359 25.8382 35.0865 25.7911 34.5371C25.5888 32.3414 25.3464 30.1518 25.0639 27.9682C24.7682 25.7864 24.4936 23.5994 24.0488 21.4412C24.232 22.5268 24.3601 23.6204 24.4909 24.7112C24.6217 25.8021 24.7525 26.8983 24.8755 27.9918C25.1188 30.1788 25.3621 32.3658 25.5452 34.5581C25.5975 35.1048 25.6368 35.6542 25.6734 36.201C25.6734 36.4756 25.71 36.7503 25.7153 37.0224V37.4305C25.7153 37.5665 25.6996 37.6921 25.6943 37.8281V37.9328C25.6877 37.9779 25.6877 38.0237 25.6943 38.0688C25.7116 38.1552 25.7513 38.2355 25.8094 38.3016C25.9097 38.417 26.0326 38.5105 26.1704 38.5763C26.4217 38.6983 26.6847 38.7947 26.9553 38.8641C27.4928 39.0008 28.0391 39.1004 28.5903 39.1623C30.7887 39.4032 33.0006 39.4984 35.2115 39.4475Z" fill="#E0E0E0"/>
<path d="M35.2114 43.1649C33.9924 42.9504 32.7733 42.7385 31.549 42.5056C30.3247 42.2728 29.116 42.0478 27.9074 41.7862C27.3031 41.6554 26.7014 41.5246 26.1023 41.3703C25.8015 41.2944 25.5033 41.2185 25.2103 41.127C25.0638 41.0851 24.9147 41.0433 24.7734 40.9883C24.6295 40.9438 24.4888 40.8896 24.3522 40.8261L24.156 40.7293L24.1063 40.7032L24.0749 40.677C24.0531 40.6567 24.0338 40.6339 24.0173 40.609C23.9411 40.4862 23.8805 40.3544 23.8368 40.2166C23.7449 39.9266 23.6707 39.6313 23.6145 39.3324C23.4994 38.7307 23.4183 38.1185 23.3529 37.5011C23.0677 35.0473 22.9421 32.5751 22.8297 30.1029C22.7669 28.8682 22.7137 27.6316 22.6701 26.3934L22.5367 22.6812C22.5183 25.1586 22.5576 27.636 22.6387 30.1108C22.7198 32.5856 22.8532 35.063 23.12 37.5299C23.1959 38.1473 23.2796 38.7621 23.4026 39.3768C23.4623 39.6857 23.5409 39.9906 23.638 40.2898C23.6886 40.4477 23.7598 40.5981 23.8499 40.7372C23.8767 40.7751 23.9074 40.8102 23.9415 40.8418C23.9604 40.859 23.9805 40.8747 24.0017 40.8889L24.054 40.9177L24.2737 41.0276C24.4188 41.0914 24.5673 41.1473 24.7185 41.195C24.8676 41.2499 25.0167 41.2918 25.1658 41.3337C25.4666 41.4252 25.7675 41.5011 26.0683 41.5743C26.6726 41.7234 27.2796 41.849 27.8996 41.9694C30.309 42.4507 32.7576 42.8379 35.2114 43.1649Z" fill="#E0E0E0"/>
<path d="M56.0856 65.9429H25.3652L27.9316 85.5973H53.5192L56.0856 65.9429Z" fill="#E0E0E0"/>
<path d="M24.0709 69.9768H57.3838V65.2549H24.0709V69.9768Z" fill="#E6E6E6"/>
<path d="M85.9134 11.4714L99.0015 25.2685L97.0003 27.5941L84.6211 14.3386L85.9134 11.4714Z" fill="#E6E6E6"/>
<path d="M96.3647 25.1141L93.3301 79.4077H97.1129L100.221 23.5811C100.221 23.5811 97.1574 21.6635 96.3647 25.1141Z" fill="#E6E6E6"/>
<path d="M81.4014 15.0397L86.262 10.0221C86.262 10.0221 87.6171 10.3831 87.8787 11.1601L84.64 16.3922L81.4014 15.0397Z" fill="#EBEBEB"/>
<path d="M87.2092 18.9559C87.2092 17.3314 85.6212 15.2281 83.1307 13.7892C80.5147 12.285 77.7835 11.9998 76.4362 12.9652L67.6855 17.0305L87.4995 29.2396L87.2092 18.9559Z" fill="#E6E6E6"/>
<path d="M87.0049 30.8657C88.8275 27.7088 85.5691 22.4154 79.7271 19.0425C73.885 15.6696 67.6716 15.4945 65.849 18.6513C64.0264 21.8082 67.2847 27.1016 73.1268 30.4746C78.9688 33.8475 85.1822 34.0226 87.0049 30.8657Z" fill="#EBEBEB"/>
<path d="M85.9397 30.7232C87.6142 27.8229 84.6212 22.9599 79.2547 19.8615C73.8881 16.7631 68.1802 16.6026 66.5056 19.503C64.8311 22.4034 67.8241 27.2663 73.1907 30.3647C78.5572 33.4631 84.2652 33.6236 85.9397 30.7232Z" fill="#E0E0E0"/>
<path d="M79.964 26.7737C81.5444 25.1932 81.5444 22.6308 79.964 21.0503C78.3835 19.4699 75.8211 19.4699 74.2406 21.0503C72.6601 22.6308 72.6601 25.1932 74.2406 26.7737C75.8211 28.3542 78.3835 28.3542 79.964 26.7737Z" fill="#E6E6E6"/>
<path d="M114.322 82.7929C111.967 78.0029 104.441 74.5 95.5174 74.5C86.594 74.5 79.0729 78.0029 76.7158 82.7929H114.322Z" fill="#F0F0F0"/>
<path d="M114.311 82.7929H76.7051V85.1212H114.311V82.7929Z" fill="#E6E6E6"/>
<path d="M65.4014 97.4637C93.4148 97.4637 116.124 96.1379 116.124 94.5024C116.124 92.8668 93.4148 91.541 65.4014 91.541C37.388 91.541 14.6787 92.8668 14.6787 94.5024C14.6787 96.1379 37.388 97.4637 65.4014 97.4637Z" fill="#F5F5F5"/>
<path d="M79.2271 22.2809L78.1885 23.6308L80.263 24.5647L79.2271 22.2809Z" fill="#407BFF"/>
<path d="M87.2481 63.6931L88.5849 62.6388L86.8008 61.2261L87.2481 63.6931Z" fill="#407BFF"/>
<path d="M57.7919 16.4654L57.6925 14.7676L55.5107 15.4216L57.7919 16.4654Z" fill="#407BFF"/>
<path d="M45.3647 79.5359L44.3262 80.8832L46.4007 81.8171L45.3647 79.5359Z" fill="#407BFF"/>
<path d="M67.3686 38.0531L69.0298 38.1552L68.8205 40.023L66.8506 39.505L67.3686 38.0531Z" fill="#407BFF"/>
<path d="M74.7827 54.4584L73.9953 55.9234L72.3838 54.9555L73.6787 53.3806L74.7827 54.4584Z" fill="#407BFF"/>
<path d="M64.5463 64.075L66.2075 64.1797L66.0008 66.0475L64.0283 65.5295L64.5463 64.075Z" fill="#407BFF"/>
<path d="M84.9741 42.4272L86.0205 42.6338C86.0205 42.6338 84.4509 43.6803 85.1886 44.5017C85.9263 45.3231 84.6654 46.0583 84.6654 46.0583L83.7314 45.4356C83.7314 45.4356 84.5607 44.813 84.1474 43.9837C83.7341 43.1544 84.9741 42.4272 84.9741 42.4272Z" fill="#407BFF"/>
<path d="M101.691 58.7487L100.736 60.1588L102.866 60.9645L101.691 58.7487Z" fill="#407BFF"/>
<path d="M99.5301 19.1495L100.111 17.5485L97.8506 17.2895L99.5301 19.1495Z" fill="#407BFF"/>
<path d="M92.2686 29.101L92.5746 27.466L94.4032 27.8976L93.6498 29.7916L92.2686 29.101Z" fill="#407BFF"/>
<path d="M104.974 35.5522L103.928 35.6699C103.928 35.6699 105.094 34.2075 104.15 33.6372C103.206 33.0669 104.174 31.9969 104.174 31.9969L105.251 32.3056C105.251 32.3056 104.65 33.1506 105.298 33.8177C105.947 34.4848 104.974 35.5522 104.974 35.5522Z" fill="#407BFF"/>
<path d="M62.3982 81.4639L63.4446 81.6706C63.4446 81.6706 61.875 82.717 62.6153 83.5385C63.3557 84.3599 62.0921 85.095 62.0921 85.095L61.1582 84.4724C61.1582 84.4724 61.9901 83.8498 61.5742 83.0205C61.1582 82.1912 62.3982 81.4639 62.3982 81.4639Z" fill="#407BFF"/>
<path d="M76.4041 71.727L75.3682 73.0769L77.4427 74.0108L76.4041 71.727Z" fill="#407BFF"/>
<path d="M89.9428 74.4869L91.604 74.589L91.3973 76.4568L89.4248 75.9388L89.9428 74.4869Z" fill="#407BFF"/>
<path d="M96.2707 76.258L97.3171 76.4647C97.3171 76.4647 95.7605 77.5111 96.4878 78.3325C97.2151 79.154 95.9646 79.8891 95.9646 79.8891L95.0176 79.2665C95.0176 79.2665 95.8469 78.6438 95.4309 77.8146C95.015 76.9853 96.2707 76.258 96.2707 76.258Z" fill="#407BFF"/>
<path d="M71.6144 22.3463L70.963 22.5007C70.963 22.5007 71.2403 21.1168 70.4398 20.6381C69.6393 20.1593 69.9166 19.1417 69.9166 19.1417L70.7275 19.3771C70.7044 19.632 70.7407 19.8887 70.8338 20.127C70.9269 20.3654 71.0741 20.5789 71.2638 20.7506C71.8917 21.3287 71.6144 22.3463 71.6144 22.3463Z" fill="#407BFF"/>
<path d="M60.3159 50.8509L59.3349 51.2485C59.3349 51.2485 60.0648 49.5245 59.0027 49.2315C57.9405 48.9385 58.5789 47.6462 58.5789 47.6462H59.7012C59.7012 47.6462 59.3506 48.622 60.1537 49.0877C60.9569 49.5533 60.3159 50.8509 60.3159 50.8509Z" fill="#407BFF"/>
<path d="M54.6077 41.6397C54.6077 41.795 54.5617 41.9467 54.4755 42.0758C54.3892 42.2048 54.2666 42.3054 54.1232 42.3648C53.9798 42.4242 53.822 42.4398 53.6698 42.4095C53.5176 42.3792 53.3777 42.3044 53.268 42.1947C53.1582 42.0849 53.0834 41.9451 53.0532 41.7928C53.0229 41.6406 53.0384 41.4828 53.0978 41.3394C53.1572 41.196 53.2578 41.0734 53.3869 40.9872C53.5159 40.901 53.6677 40.8549 53.8229 40.8549C54.0311 40.8549 54.2307 40.9376 54.3779 41.0848C54.525 41.232 54.6077 41.4316 54.6077 41.6397Z" fill="#407BFF"/>
<path d="M82.8274 10.4119C82.8274 10.5671 82.7814 10.7188 82.6952 10.8479C82.6089 10.977 82.4864 11.0776 82.343 11.137C82.1996 11.1964 82.0418 11.2119 81.8895 11.1816C81.7373 11.1513 81.5974 11.0766 81.4877 10.9668C81.3779 10.8571 81.3032 10.7172 81.2729 10.565C81.2426 10.4128 81.2582 10.255 81.3176 10.1116C81.377 9.96815 81.4776 9.84558 81.6066 9.75934C81.7357 9.6731 81.8874 9.62708 82.0426 9.62708C82.2508 9.62708 82.4504 9.70976 82.5976 9.85694C82.7448 10.0041 82.8274 10.2037 82.8274 10.4119Z" fill="#407BFF"/>
<path d="M48.4727 24.8159L47.2354 25.9853L49.1372 27.2357L48.4727 24.8159Z" fill="#407BFF"/>
<path d="M42.8119 58.3066L43.6385 56.8181L41.4463 56.2033L42.8119 58.3066Z" fill="#407BFF"/>
<path d="M27.7302 69.4144L27.2959 71.0599L29.5693 71.12L27.7302 69.4144Z" fill="#407BFF"/>
<path d="M32.2637 51.5049L32.1042 53.1608L30.2441 52.8914L30.8301 50.9372L32.2637 51.5049Z" fill="#407BFF"/>
<path d="M39.2068 45.2159L40.2532 45.004C40.2532 45.004 39.2068 46.5736 40.2087 47.0497C41.2107 47.5259 40.3317 48.6848 40.3317 48.6848L39.2303 48.4703C39.2303 48.4703 39.7535 47.5756 39.0524 46.9713C38.3513 46.3669 39.2068 45.2159 39.2068 45.2159Z" fill="#407BFF"/>
<path d="M25.7709 37.5273L26.6865 36.0911L24.5361 35.3429L25.7709 37.5273Z" fill="#407BFF"/>
<path d="M37.5349 32.1278L35.8711 32.1696L35.913 30.2913L37.9247 30.634L37.5349 32.1278Z" fill="#407BFF"/>
<path d="M34.1138 14.8356L33.0674 14.7205C33.0674 14.7205 34.5271 13.5512 33.7319 12.7873C32.9366 12.0234 34.1112 11.1915 34.1112 11.1915L35.0948 11.7147C35.0948 11.7147 34.3231 12.4079 34.8097 13.2006C35.2963 13.9933 34.1138 14.8356 34.1138 14.8356Z" fill="#407BFF"/>
<path d="M50.2283 67.7322C50.2132 67.5771 50.2446 67.421 50.3186 67.2838C50.3925 67.1466 50.5056 67.0345 50.6435 66.9619C50.7814 66.8892 50.9378 66.8592 51.0927 66.8758C51.2477 66.8923 51.3943 66.9546 51.5137 67.0548C51.6331 67.1549 51.72 67.2883 51.7633 67.4381C51.8066 67.5878 51.8044 67.747 51.7569 67.8954C51.7094 68.0439 51.6187 68.1748 51.4965 68.2715C51.3743 68.3683 51.2261 68.4264 51.0707 68.4386C50.8657 68.4546 50.6627 68.3896 50.5052 68.2575C50.3476 68.1254 50.2482 67.9368 50.2283 67.7322Z" fill="#407BFF"/>
<g opacity="0.7">
<path d="M79.2271 22.2809L78.1885 23.6308L80.263 24.5648L79.2271 22.2809Z" fill="white"/>
<path d="M87.2481 63.6931L88.5849 62.6388L86.8008 61.2262L87.2481 63.6931Z" fill="white"/>
<path d="M57.7919 16.4655L57.6925 14.7676L55.5107 15.4217L57.7919 16.4655Z" fill="white"/>
<path d="M45.3647 79.5359L44.3262 80.8832L46.4007 81.8171L45.3647 79.5359Z" fill="white"/>
<path d="M67.3686 38.0531L69.0298 38.1552L68.8205 40.023L66.8506 39.5051L67.3686 38.0531Z" fill="white"/>
<path d="M74.7827 54.4584L73.9953 55.9234L72.3838 54.9555L73.6787 53.3806L74.7827 54.4584Z" fill="white"/>
<path d="M64.5463 64.075L66.2075 64.1797L66.0008 66.0476L64.0283 65.5296L64.5463 64.075Z" fill="white"/>
<path d="M84.9741 42.4272L86.0205 42.6339C86.0205 42.6339 84.4509 43.6803 85.1886 44.5017C85.9263 45.3232 84.6654 46.0583 84.6654 46.0583L83.7314 45.4356C83.7314 45.4356 84.5607 44.813 84.1474 43.9837C83.7341 43.1545 84.9741 42.4272 84.9741 42.4272Z" fill="white"/>
<path d="M101.691 58.7487L100.736 60.1588L102.866 60.9645L101.691 58.7487Z" fill="white"/>
<path d="M99.5301 19.1495L100.111 17.5485L97.8506 17.2895L99.5301 19.1495Z" fill="white"/>
<path d="M92.2686 29.101L92.5746 27.466L94.4032 27.8976L93.6498 29.7916L92.2686 29.101Z" fill="white"/>
<path d="M104.974 35.5522L103.928 35.6699C103.928 35.6699 105.094 34.2075 104.15 33.6372C103.206 33.0669 104.174 31.997 104.174 31.997L105.251 32.3057C105.251 32.3057 104.65 33.1506 105.298 33.8177C105.947 34.4848 104.974 35.5522 104.974 35.5522Z" fill="white"/>
<path d="M62.3982 81.4639L63.4446 81.6706C63.4446 81.6706 61.875 82.717 62.6153 83.5385C63.3557 84.3599 62.0921 85.095 62.0921 85.095L61.1582 84.4724C61.1582 84.4724 61.9901 83.8498 61.5742 83.0205C61.1582 82.1912 62.3982 81.4639 62.3982 81.4639Z" fill="white"/>
<path d="M76.4041 71.727L75.3682 73.0769L77.4427 74.0108L76.4041 71.727Z" fill="white"/>
<path d="M89.9428 74.4869L91.604 74.589L91.3973 76.4568L89.4248 75.9388L89.9428 74.4869Z" fill="white"/>
<path d="M96.2707 76.258L97.3171 76.4647C97.3171 76.4647 95.7605 77.5111 96.4878 78.3325C97.2151 79.154 95.9646 79.8891 95.9646 79.8891L95.0176 79.2665C95.0176 79.2665 95.8469 78.6438 95.4309 77.8146C95.015 76.9853 96.2707 76.258 96.2707 76.258Z" fill="white"/>
<path d="M71.6144 22.3464L70.963 22.5007C70.963 22.5007 71.2403 21.1168 70.4398 20.6381C69.6393 20.1593 69.9166 19.1417 69.9166 19.1417L70.7275 19.3771C70.7044 19.632 70.7407 19.8887 70.8338 20.1271C70.9269 20.3654 71.0741 20.5789 71.2638 20.7506C71.8917 21.3287 71.6144 22.3464 71.6144 22.3464Z" fill="white"/>
<path d="M60.3159 50.8509L59.3349 51.2485C59.3349 51.2485 60.0648 49.5245 59.0027 49.2315C57.9405 48.9385 58.5789 47.6462 58.5789 47.6462H59.7012C59.7012 47.6462 59.3506 48.622 60.1537 49.0877C60.9569 49.5533 60.3159 50.8509 60.3159 50.8509Z" fill="white"/>
<path d="M54.6077 41.6398C54.6077 41.795 54.5617 41.9467 54.4755 42.0758C54.3892 42.2048 54.2666 42.3054 54.1232 42.3648C53.9798 42.4242 53.822 42.4398 53.6698 42.4095C53.5176 42.3792 53.3777 42.3045 53.268 42.1947C53.1582 42.0849 53.0834 41.9451 53.0532 41.7929C53.0229 41.6406 53.0384 41.4828 53.0978 41.3394C53.1572 41.196 53.2578 41.0734 53.3869 40.9872C53.5159 40.901 53.6677 40.8549 53.8229 40.8549C54.0311 40.8549 54.2307 40.9376 54.3779 41.0848C54.525 41.232 54.6077 41.4316 54.6077 41.6398Z" fill="white"/>
<path d="M82.8274 10.4119C82.8274 10.5671 82.7814 10.7189 82.6952 10.8479C82.6089 10.977 82.4864 11.0776 82.343 11.137C82.1996 11.1964 82.0418 11.2119 81.8895 11.1816C81.7373 11.1514 81.5974 11.0766 81.4877 10.9669C81.3779 10.8571 81.3032 10.7173 81.2729 10.565C81.2426 10.4128 81.2582 10.255 81.3176 10.1116C81.377 9.96816 81.4776 9.84559 81.6066 9.75935C81.7357 9.67312 81.8874 9.62709 82.0426 9.62709C82.2508 9.62709 82.4504 9.70978 82.5976 9.85696C82.7448 10.0041 82.8274 10.2038 82.8274 10.4119Z" fill="white"/>
<path d="M48.4727 24.8159L47.2354 25.9853L49.1372 27.2358L48.4727 24.8159Z" fill="white"/>
<path d="M42.8119 58.3066L43.6385 56.8181L41.4463 56.2033L42.8119 58.3066Z" fill="white"/>
<path d="M27.7302 69.4144L27.2959 71.0599L29.5693 71.1201L27.7302 69.4144Z" fill="white"/>
<path d="M32.2637 51.5049L32.1042 53.1609L30.2441 52.8914L30.8301 50.9372L32.2637 51.5049Z" fill="white"/>
<path d="M39.2068 45.2159L40.2532 45.004C40.2532 45.004 39.2068 46.5736 40.2087 47.0498C41.2107 47.5259 40.3317 48.6848 40.3317 48.6848L39.2303 48.4703C39.2303 48.4703 39.7535 47.5756 39.0524 46.9713C38.3513 46.367 39.2068 45.2159 39.2068 45.2159Z" fill="white"/>
<path d="M25.7709 37.5273L26.6865 36.0911L24.5361 35.3429L25.7709 37.5273Z" fill="white"/>
<path d="M37.5349 32.1278L35.8711 32.1696L35.913 30.2913L37.9247 30.634L37.5349 32.1278Z" fill="white"/>
<path d="M34.1138 14.8357L33.0674 14.7206C33.0674 14.7206 34.5271 13.5512 33.7319 12.7873C32.9366 12.0234 34.1112 11.1915 34.1112 11.1915L35.0948 11.7147C35.0948 11.7147 34.3231 12.408 34.8097 13.2006C35.2963 13.9933 34.1138 14.8357 34.1138 14.8357Z" fill="white"/>
<path d="M50.2283 67.7323C50.2132 67.5772 50.2446 67.421 50.3186 67.2838C50.3925 67.1466 50.5056 67.0346 50.6435 66.9619C50.7814 66.8892 50.9378 66.8593 51.0927 66.8758C51.2477 66.8924 51.3943 66.9547 51.5137 67.0548C51.6331 67.1549 51.72 67.2884 51.7633 67.4381C51.8066 67.5878 51.8044 67.747 51.7569 67.8955C51.7094 68.0439 51.6187 68.1748 51.4965 68.2716C51.3743 68.3683 51.2261 68.4264 51.0707 68.4386C50.8657 68.4546 50.6627 68.3896 50.5052 68.2576C50.3476 68.1255 50.2482 67.9369 50.2283 67.7323Z" fill="white"/>
</g>
<path d="M83.3659 94.4945H18.9115L16.6826 53.2106H81.137L83.3659 94.4945Z" fill="#407BFF"/>
<g opacity="0.6">
<path d="M83.3659 94.4945H18.9115L16.6826 53.2106H81.137L83.3659 94.4945Z" fill="white"/>
</g>
<g opacity="0.2">
<path d="M76.9112 92.4462H25.0872L25.0715 92.0459C25.0031 91.0055 24.5451 90.0291 23.7886 89.3115C23.0322 88.5938 22.033 88.1877 20.9905 88.1742H20.6216L19.0781 59.6121H19.4758C19.9724 59.6182 20.4649 59.5216 20.9224 59.3282C21.3799 59.1349 21.7924 58.8491 22.1341 58.4887C22.4759 58.1283 22.7394 57.7011 22.9081 57.234C23.0769 56.7669 23.1472 56.2699 23.1147 55.7743L23.0676 55.2511H74.9257V55.6906V55.7429C74.9934 56.7829 75.4511 57.759 76.2071 58.4763C76.9632 59.1935 77.962 59.5991 79.0041 59.6121H79.42L80.9635 88.1951H80.5266C80.0298 88.1887 79.537 88.285 79.0792 88.478C78.6213 88.6709 78.2083 88.9564 77.8659 89.3164C77.5235 89.6765 77.2592 90.1034 77.0895 90.5704C76.9198 91.0374 76.8485 91.5344 76.8799 92.0302L76.9112 92.4462ZM25.5764 91.923H76.3619C76.3423 91.3746 76.4324 90.8278 76.6269 90.3147C76.8214 89.8016 77.1164 89.3325 77.4945 88.9349C77.8727 88.5372 78.3264 88.2191 78.8291 87.9991C79.3318 87.779 79.8733 87.6616 80.422 87.6536L78.9361 60.1327C77.7754 60.1001 76.6685 59.6361 75.8316 58.8311C74.9947 58.0262 74.4879 56.9381 74.4103 55.7796H23.6379C23.6689 56.3313 23.5887 56.8837 23.402 57.4039C23.2153 57.924 22.9259 58.4013 22.551 58.8074C22.1762 59.2135 21.7235 59.5401 21.2199 59.7678C20.7164 59.9954 20.1721 60.1195 19.6196 60.1327L21.1056 87.6536C22.2448 87.696 23.3292 88.1535 24.1546 88.9398C24.9799 89.7262 25.4894 90.7872 25.5869 91.923H25.5764Z" fill="white"/>
</g>
<path opacity="0.2" d="M26.4665 90.8765C26.1927 89.8509 25.6415 88.9206 24.8736 88.1878C24.1057 87.4549 23.1506 86.9478 22.1134 86.7222L20.7295 61.0352C21.7222 60.7974 22.6222 60.2706 23.3156 59.5214C24.0089 58.7721 24.4645 57.8341 24.6248 56.826H73.511C73.7753 57.8784 74.3307 58.8351 75.1135 59.5865C75.8964 60.3378 76.875 60.8535 77.9374 61.0744L79.3213 86.7405C78.3333 86.9683 77.4342 87.482 76.7364 88.2176C76.0385 88.9531 75.5727 89.8779 75.3972 90.8765H26.4665Z" fill="white"/>
<g opacity="0.6">
<path d="M32.2924 63.4446C32.2801 63.2864 32.3019 63.1274 32.3563 62.9783C32.4108 62.8292 32.4966 62.6936 32.6079 62.5805C32.7192 62.4674 32.8535 62.3796 33.0018 62.3228C33.15 62.2661 33.3086 62.2418 33.467 62.2517C33.6352 62.2463 33.8027 62.2759 33.9589 62.3385C34.1152 62.4011 34.2568 62.4953 34.3748 62.6153L34.1681 62.8246C34.0794 62.738 33.9741 62.6702 33.8586 62.6252C33.7431 62.5803 33.6197 62.5591 33.4958 62.563C33.3777 62.5561 33.2595 62.5748 33.1492 62.6177C33.039 62.6606 32.9393 62.7268 32.8569 62.8117C32.7745 62.8966 32.7113 62.9982 32.6717 63.1097C32.6321 63.2211 32.6169 63.3398 32.6272 63.4577C32.6381 63.704 32.7455 63.9362 32.9261 64.1041C33.1067 64.272 33.3461 64.3621 33.5926 64.355C33.7138 64.358 33.8341 64.3346 33.9453 64.2862C34.0565 64.2379 34.1557 64.1658 34.2361 64.0751L34.4637 64.2844C34.355 64.4065 34.2204 64.5028 34.0696 64.5662C33.9189 64.6295 33.7559 64.6584 33.5926 64.6506C33.2605 64.6619 32.9375 64.5415 32.6939 64.3156C32.4504 64.0896 32.306 63.7765 32.2924 63.4446Z" fill="black"/>
<path d="M34.6546 63.4446C34.6446 63.2865 34.6684 63.1281 34.7244 62.9799C34.7805 62.8317 34.8675 62.6972 34.9796 62.5853C35.0918 62.4734 35.2265 62.3867 35.3748 62.331C35.5231 62.2753 35.6816 62.2518 35.8396 62.2621C36.1707 62.2493 36.4934 62.3673 36.7382 62.5905C36.983 62.8137 37.13 63.1243 37.1477 63.4551C37.16 63.6133 37.1381 63.7723 37.0837 63.9214C37.0293 64.0704 36.9435 64.2061 36.8322 64.3192C36.7208 64.4322 36.5865 64.5201 36.4383 64.5768C36.2901 64.6336 36.1314 64.6578 35.9731 64.648C35.6391 64.6615 35.3133 64.5427 35.0664 64.3174C34.8195 64.0921 34.6715 63.7784 34.6546 63.4446ZM36.805 63.4446C36.7954 63.2003 36.6902 62.9696 36.5121 62.8022C36.3339 62.6349 36.0971 62.5442 35.8527 62.5499C35.735 62.5439 35.6174 62.5631 35.5078 62.6064C35.3982 62.6496 35.2992 62.7159 35.2173 62.8007C35.1355 62.8855 35.0728 62.9868 35.0335 63.0979C34.9942 63.209 34.9792 63.3272 34.9894 63.4446C34.9996 63.6903 35.106 63.922 35.2857 64.0899C35.4653 64.2578 35.7037 64.3483 35.9495 64.3419C36.0669 64.3473 36.1841 64.3274 36.2931 64.2836C36.4022 64.2399 36.5006 64.1732 36.5817 64.0882C36.6627 64.0031 36.7246 63.9016 36.7632 63.7906C36.8017 63.6796 36.8159 63.5616 36.805 63.4446Z" fill="black"/>
<path d="M39.5963 62.2778L39.7219 64.6114H39.4603L37.9639 62.8717L38.0555 64.6114H37.7232L37.5977 62.2778H37.8593L39.3556 64.0175L39.2641 62.2778H39.5963Z" fill="black"/>
<path d="M41.9796 63.4315H42.2988L42.3485 64.3419C42.1041 64.5421 41.7956 64.6471 41.4799 64.6375C41.1489 64.6503 40.8261 64.5324 40.5814 64.3092C40.3366 64.086 40.1895 63.7754 40.1719 63.4446C40.1603 63.2854 40.183 63.1256 40.2385 62.9759C40.294 62.8263 40.381 62.6903 40.4936 62.5772C40.6062 62.4641 40.7418 62.3765 40.8912 62.3203C41.0406 62.2642 41.2004 62.2407 41.3596 62.2517C41.5292 62.2455 41.6983 62.2744 41.8563 62.3365C42.0143 62.3986 42.1578 62.4926 42.2778 62.6127L42.0816 62.8193C41.8942 62.6439 41.645 62.5498 41.3884 62.5577C41.2693 62.5494 41.1499 62.5669 41.0382 62.6091C40.9266 62.6513 40.8254 62.7171 40.7416 62.8022C40.6579 62.8872 40.5935 62.9893 40.5529 63.1016C40.5124 63.2138 40.4966 63.3335 40.5068 63.4524C40.519 63.7002 40.6282 63.9332 40.8108 64.1011C40.9933 64.269 41.2346 64.3583 41.4825 64.3497C41.673 64.3544 41.8605 64.3026 42.0215 64.2006L41.9796 63.4315Z" fill="black"/>
<path d="M44.5614 64.6166L44.0199 63.8998C43.9728 63.8998 43.9231 63.8998 43.8734 63.8998H43.2952L43.3318 64.6087H42.9996L42.874 62.2752H43.7844C44.3913 62.2752 44.7759 62.5839 44.8047 63.0888C44.8227 63.2478 44.7851 63.4082 44.6983 63.5427C44.6115 63.6771 44.4809 63.7774 44.3285 63.8265L44.925 64.6114L44.5614 64.6166ZM44.4698 63.0967C44.4515 62.7644 44.2082 62.5734 43.7896 62.5734H43.222L43.2795 63.6199H43.8472C44.2736 63.6172 44.4881 63.4263 44.4724 63.0914L44.4698 63.0967Z" fill="black"/>
<path d="M46.8852 64.028H45.6426L45.415 64.6166H45.0723L46.0036 62.2831H46.3358L47.5235 64.6166H47.173L46.8852 64.028ZM46.7518 63.7664L46.1867 62.6231L45.7446 63.7664H46.7518Z" fill="black"/>
<path d="M48.1059 62.5682H47.3028L47.2871 62.2778H49.223L49.2387 62.5682H48.4356L48.5454 64.6114H48.2158L48.1059 62.5682Z" fill="black"/>
<path d="M49.5931 63.6042L49.5225 62.2778H49.8573L49.928 63.5859C49.9567 64.1091 50.2053 64.3367 50.6264 64.3367C51.0476 64.3367 51.2752 64.1038 51.2464 63.5859L51.1758 62.2778H51.5002L51.5708 63.6042C51.6075 64.2817 51.2569 64.6375 50.6395 64.6375C50.0221 64.6375 49.6297 64.2817 49.5931 63.6042Z" fill="black"/>
<path d="M52.1826 62.2778H52.5175L52.6273 64.321H53.8909L53.9066 64.6114H52.3213L52.1826 62.2778Z" fill="black"/>
<path d="M55.7582 64.028H54.5156L54.2906 64.6114H53.9453L54.8792 62.2778H55.1984L56.3861 64.6114H56.0355L55.7582 64.028ZM55.6274 63.7664L55.0624 62.6232L54.6176 63.7664H55.6274Z" fill="black"/>
<path d="M56.9803 62.5682H56.1798L56.1641 62.2778H58.0973L58.113 62.5682H57.3125L57.4224 64.6114H57.0901L56.9803 62.5682Z" fill="black"/>
<path d="M58.4609 62.2778H58.7932L58.9214 64.6114H58.5996L58.4609 62.2778Z" fill="black"/>
<path d="M59.3691 63.4446C59.3576 63.2861 59.3802 63.127 59.4352 62.9779C59.4903 62.8289 59.5766 62.6933 59.6883 62.5803C59.8 62.4674 59.9346 62.3796 60.0831 62.3229C60.2315 62.2662 60.3904 62.2419 60.549 62.2517C60.88 62.2388 61.2028 62.3568 61.4475 62.58C61.6923 62.8032 61.8394 63.1138 61.857 63.4446C61.8693 63.6028 61.8475 63.7618 61.793 63.9109C61.7386 64.06 61.6528 64.1956 61.5415 64.3087C61.4301 64.4218 61.2958 64.5096 61.1476 64.5664C60.9994 64.6231 60.8408 64.6473 60.6824 64.6375C60.3508 64.6504 60.0275 64.5326 59.7819 64.3095C59.5363 64.0864 59.3881 63.7758 59.3691 63.4446ZM61.5195 63.4446C61.5086 63.2003 61.4027 62.97 61.2243 62.8028C61.0458 62.6357 60.8091 62.5449 60.5647 62.5499C60.447 62.5438 60.3294 62.5631 60.2198 62.6064C60.1102 62.6496 60.0111 62.7159 59.9293 62.8007C59.8475 62.8855 59.7848 62.9868 59.7455 63.0979C59.7061 63.209 59.6911 63.3272 59.7014 63.4446C59.7123 63.69 59.8189 63.9214 59.9983 64.0891C60.1778 64.2569 60.4159 64.3476 60.6615 64.3419C60.7789 64.3472 60.8962 64.3273 61.0054 64.2836C61.1146 64.2398 61.2131 64.1732 61.2944 64.0882C61.3757 64.0032 61.4378 63.9018 61.4766 63.7908C61.5155 63.6798 61.5301 63.5617 61.5195 63.4446Z" fill="black"/>
<path d="M64.3106 62.2778L64.4361 64.6114H64.1615L62.6651 62.8717L62.7593 64.6114H62.4244L62.2988 62.2778H62.5735L64.0699 64.0175L63.9757 62.2778H64.3106Z" fill="black"/>
<path d="M64.9066 64.355L65.0165 64.0934C65.241 64.2667 65.5176 64.3589 65.8013 64.355C66.2068 64.355 66.3716 64.198 66.3611 63.994C66.3297 63.4263 64.9327 63.7847 64.8857 62.9188C64.8673 62.5577 65.1316 62.2517 65.7463 62.2517C66.0144 62.248 66.2782 62.3196 66.5076 62.4583L66.4108 62.7199C66.2156 62.5972 65.99 62.5311 65.7594 62.529C65.3644 62.529 65.2022 62.6964 65.2127 62.9004C65.2441 63.4707 66.641 63.1123 66.6855 63.9704C66.7064 64.3262 66.4239 64.6323 65.817 64.6323C65.4911 64.6439 65.1706 64.5463 64.9066 64.355Z" fill="black"/>
</g>
<g opacity="0.4">
<path d="M70.1757 67.4942H29.19C29.1404 67.4943 29.0927 67.4754 29.0567 67.4413C29.0207 67.4072 28.9991 67.3606 28.9964 67.3111C28.995 67.2876 28.9984 67.264 29.0064 67.2418C29.0145 67.2196 29.027 67.1994 29.0431 67.1822C29.0593 67.165 29.0788 67.1514 29.1005 67.1421C29.1221 67.1327 29.1455 67.1279 29.1691 67.128H70.1548C70.2042 67.1285 70.2516 67.1477 70.2875 67.1816C70.3233 67.2156 70.3451 67.2618 70.3484 67.3111C70.3498 67.3346 70.3464 67.3582 70.3384 67.3804C70.3303 67.4026 70.3178 67.4229 70.3017 67.44C70.2855 67.4572 70.266 67.4708 70.2443 67.4802C70.2227 67.4895 70.1993 67.4943 70.1757 67.4942Z" fill="black"/>
</g>
<g opacity="0.4">
<path d="M71.4813 69.1345H28.0548C28.0056 69.1339 27.9586 69.1147 27.9231 69.0807C27.8877 69.0467 27.8665 69.0004 27.8638 68.9514C27.8619 68.9279 27.8651 68.9042 27.873 68.882C27.8809 68.8598 27.8934 68.8395 27.9097 68.8225C27.926 68.8054 27.9457 68.792 27.9676 68.7831C27.9894 68.7742 28.0129 68.7701 28.0365 68.7709H71.463C71.5121 68.7708 71.5595 68.7894 71.5954 68.8229C71.6314 68.8564 71.6532 68.9023 71.6566 68.9514C71.658 68.9752 71.6545 68.999 71.6463 69.0213C71.6381 69.0437 71.6254 69.0641 71.609 69.0813C71.5925 69.0985 71.5727 69.1121 71.5507 69.1212C71.5287 69.1304 71.5051 69.1349 71.4813 69.1345Z" fill="black"/>
</g>
<g opacity="0.4">
<path d="M67.9156 70.7695H31.814C31.7649 70.7697 31.7175 70.7511 31.6816 70.7175C31.6456 70.684 31.6238 70.6381 31.6204 70.589C31.619 70.5655 31.6224 70.5419 31.6304 70.5197C31.6385 70.4976 31.651 70.4773 31.6672 70.4601C31.6833 70.443 31.7028 70.4293 31.7245 70.42C31.7462 70.4107 31.7695 70.4059 31.7931 70.4059H67.8973C67.9465 70.4071 67.9935 70.4264 68.0293 70.4602C68.065 70.4941 68.087 70.54 68.0909 70.589C68.0919 70.6126 68.0882 70.6361 68.0798 70.6581C68.0714 70.6802 68.0587 70.7003 68.0422 70.7172C68.0258 70.7341 68.0061 70.7475 67.9843 70.7565C67.9625 70.7655 67.9391 70.7699 67.9156 70.7695Z" fill="black"/>
</g>
<g opacity="0.5">
<path d="M59.5967 74.4712H40.5204C40.4713 74.4706 40.4242 74.4514 40.3887 74.4174C40.3533 74.3834 40.3321 74.3372 40.3294 74.2881C40.328 74.2647 40.3314 74.2412 40.3395 74.2192C40.3475 74.1972 40.36 74.177 40.3763 74.1601C40.3925 74.1431 40.412 74.1297 40.4337 74.1207C40.4553 74.1116 40.4786 74.1072 40.5021 74.1076H59.5757C59.6249 74.1075 59.6722 74.1261 59.7082 74.1596C59.7442 74.1931 59.766 74.2391 59.7693 74.2881C59.7708 74.3116 59.7673 74.3352 59.7593 74.3574C59.7513 74.3796 59.7388 74.3999 59.7226 74.417C59.7064 74.4342 59.6869 74.4478 59.6652 74.4572C59.6436 74.4665 59.6202 74.4713 59.5967 74.4712Z" fill="black"/>
</g>
<g opacity="0.5">
<path d="M56.0384 76.2031H44.2662C44.217 76.2032 44.1697 76.1846 44.1337 76.1511C44.0978 76.1176 44.0759 76.0716 44.0726 76.0226C44.0712 75.999 44.0746 75.9754 44.0826 75.9533C44.0906 75.9311 44.1031 75.9108 44.1193 75.8937C44.1355 75.8765 44.155 75.8628 44.1767 75.8535C44.1983 75.8442 44.2217 75.8394 44.2452 75.8394H56.0175C56.0671 75.8394 56.1148 75.8583 56.1508 75.8924C56.1868 75.9265 56.2084 75.9731 56.2111 76.0226C56.2125 76.046 56.2091 76.0695 56.201 76.0915C56.193 76.1135 56.1805 76.1336 56.1642 76.1506C56.148 76.1676 56.1285 76.181 56.1068 76.19C56.0852 76.199 56.0619 76.2035 56.0384 76.2031Z" fill="black"/>
</g>
<g opacity="0.4">
<path d="M72.0748 80.1585H28.6483C28.5992 80.158 28.5521 80.1387 28.5167 80.1047C28.4812 80.0707 28.46 80.0245 28.4573 79.9754C28.4559 79.9519 28.4593 79.9283 28.4674 79.9061C28.4754 79.884 28.4879 79.8637 28.5041 79.8465C28.5202 79.8293 28.5398 79.8157 28.5614 79.8064C28.5831 79.797 28.6064 79.7923 28.63 79.7923H72.0565C72.1055 79.7935 72.1522 79.8129 72.1875 79.8468C72.2228 79.8807 72.2442 79.9266 72.2475 79.9754C72.2493 79.999 72.2462 80.0228 72.2383 80.0451C72.2304 80.0675 72.2179 80.0879 72.2017 80.1052C72.1854 80.1224 72.1657 80.1361 72.1439 80.1453C72.122 80.1545 72.0985 80.159 72.0748 80.1585Z" fill="black"/>
</g>
<g opacity="0.4">
<path d="M68.5117 81.7936H32.3944C32.3453 81.793 32.2982 81.7737 32.2628 81.7397C32.2273 81.7057 32.2061 81.6595 32.2034 81.6105C32.202 81.587 32.2054 81.5636 32.2135 81.5416C32.2215 81.5195 32.2341 81.4994 32.2503 81.4824C32.2665 81.4655 32.2861 81.4521 32.3077 81.443C32.3294 81.434 32.3527 81.4296 32.3761 81.43H68.4907C68.5399 81.4298 68.5873 81.4484 68.6232 81.482C68.6592 81.5155 68.681 81.5614 68.6843 81.6105C68.6858 81.634 68.6824 81.6576 68.6743 81.6798C68.6663 81.7019 68.6538 81.7222 68.6376 81.7394C68.6214 81.7565 68.6019 81.7702 68.5803 81.7795C68.5586 81.7888 68.5353 81.7936 68.5117 81.7936Z" fill="black"/>
</g>
<g opacity="0.5">
<path d="M38.2318 89.579C38.2022 89.5789 38.1733 89.5707 38.148 89.5554C38.0203 89.5051 37.9051 89.4276 37.8105 89.3282C37.7158 89.2288 37.6439 89.11 37.5998 88.98C37.5557 88.85 37.5405 88.712 37.5552 88.5755C37.57 88.4391 37.6142 88.3074 37.685 88.1898C38.5169 86.3874 43.3932 83.8498 45.1146 84.6843C45.7503 84.993 46.0328 85.6026 45.923 86.4161L46.2343 86.2723C46.7575 86.0473 48.0446 85.5842 48.5887 86.1336C48.872 86.4679 49.0245 86.8936 49.0178 87.3318C49.2023 87.1886 49.4035 87.0683 49.6168 86.9734C50.0485 86.7824 50.6345 86.6594 50.9772 86.8949C51.0786 86.9816 51.1603 87.0891 51.2167 87.21C51.2731 87.3309 51.3029 87.4625 51.3042 87.596C52.3218 87.0074 54.4147 86.853 54.4539 86.853C54.6763 86.853 54.7548 86.942 54.7809 87.0257C54.7947 87.0592 54.7992 87.0958 54.7942 87.1316C54.7891 87.1675 54.7746 87.2013 54.7521 87.2297C55.9006 87.0623 58.4146 86.853 63.8142 86.853C63.8637 86.853 63.9115 86.8719 63.9475 86.906C63.9835 86.9401 64.0051 86.9866 64.0077 87.0362C64.0092 87.0597 64.0058 87.0833 63.9977 87.1054C63.9897 87.1276 63.9772 87.1479 63.961 87.1651C63.9449 87.1822 63.9253 87.1959 63.9037 87.2052C63.882 87.2145 63.8587 87.2193 63.8351 87.2193C55.2937 87.2193 54.0694 87.7294 54.0118 87.7582C53.9665 87.7816 53.9139 87.7866 53.8651 87.7719C53.8163 87.7573 53.7751 87.7242 53.7502 87.6797C53.7259 87.6397 53.7183 87.5918 53.729 87.5462C53.7398 87.5007 53.7681 87.4612 53.8077 87.4364C53.9202 87.3736 54.0327 87.3082 54.1321 87.2454C53.2767 87.3292 51.7777 87.6143 51.2806 88.0303C51.2698 88.2148 51.2337 88.397 51.1734 88.5718C51.0975 88.7523 50.9719 88.7392 50.9118 88.7287C50.726 88.679 50.7287 88.4541 50.7339 88.2919C50.7393 88.1338 50.8037 87.9836 50.9144 87.8707C50.9144 87.5855 50.8909 87.2847 50.7496 87.1905C50.6083 87.0963 50.2264 87.0989 49.7476 87.3056C49.4497 87.434 49.1822 87.6239 48.9628 87.8628C48.9425 88.1435 48.8716 88.4183 48.7535 88.6738C48.7303 88.7202 48.6906 88.7561 48.6421 88.7745C48.5937 88.7929 48.5401 88.7925 48.4919 88.7732C48.3167 88.7078 48.335 88.4881 48.3454 88.3442C48.3677 88.1162 48.4528 87.8988 48.5913 87.7163C48.6332 87.2533 48.5913 86.6908 48.2853 86.3769C48.0394 86.1153 47.2624 86.2173 46.352 86.6071C46.1532 86.6908 45.9622 86.785 45.7791 86.8818C45.4678 87.9544 44.5365 89.2938 43.9635 89.2179C43.872 89.2049 43.6522 89.1395 43.6156 88.7784C43.5424 88.0564 44.4004 87.2245 45.4625 86.6307C45.6012 86.0656 45.6116 85.3409 44.9262 85.0061C43.3566 84.2448 38.734 86.7118 37.978 88.352C37.787 88.7654 37.8734 89.0348 38.2579 89.231C38.3017 89.2525 38.3354 89.2902 38.352 89.336C38.3686 89.3819 38.3668 89.4324 38.3469 89.4769C38.337 89.5018 38.3215 89.524 38.3015 89.5417C38.2815 89.5594 38.2576 89.5722 38.2318 89.579ZM45.3291 87.1774C44.5155 87.7006 43.9792 88.3311 44.0211 88.7654C44.0214 88.801 44.0304 88.836 44.0472 88.8674C44.2382 88.8857 44.9393 88.1349 45.3291 87.1774Z" fill="black"/>
</g>
<path d="M64.5596 94.0446L70.3934 31.6674H114.895L109.061 94.0446H64.5596Z" fill="#407BFF"/>
<path opacity="0.2" d="M64.5596 94.0446L70.3934 31.6674H114.895L109.061 94.0446H64.5596Z" fill="black"/>
<path d="M113.875 31.6674L108.046 94.0446H63.542L65.3915 74.2803L65.784 70.0527L66.4824 62.6074L69.2973 32.5097L69.3758 31.6674H113.875Z" fill="#407BFF"/>
<path opacity="0.2" d="M90.0923 31.6674L66.4824 62.6074L69.2973 32.5097L69.9382 31.6674H90.0923Z" fill="white"/>
<path opacity="0.2" d="M97.9065 31.6674L65.3916 74.2803L65.784 70.0527L95.076 31.6674H97.9065Z" fill="white"/>
<path d="M106.294 36.7582C106.356 36.2172 106.265 35.6695 106.031 35.1778C105.797 34.6861 105.429 34.2701 104.97 33.9773L105.048 33.1193H76.1017L76.0206 33.9773C75.5128 34.2593 75.08 34.659 74.7586 35.1429C74.4372 35.6268 74.2366 36.1807 74.1737 36.7582C74.1125 37.2994 74.2044 37.8469 74.4389 38.3384C74.6733 38.83 75.041 39.246 75.5 39.5391L75.4189 40.3971H104.366L104.447 39.5391C104.955 39.2577 105.388 38.8582 105.71 38.3742C106.031 37.8902 106.231 37.3359 106.294 36.7582Z" fill="#407BFF"/>
<path opacity="0.4" d="M106.294 36.7582C106.356 36.2172 106.265 35.6695 106.031 35.1778C105.797 34.6861 105.429 34.2701 104.97 33.9773L105.048 33.1193H76.1017L76.0206 33.9773C75.5128 34.2593 75.08 34.659 74.7586 35.1429C74.4372 35.6268 74.2366 36.1807 74.1737 36.7582C74.1125 37.2994 74.2044 37.8469 74.4389 38.3384C74.6733 38.83 75.041 39.246 75.5 39.5391L75.4189 40.3971H104.366L104.447 39.5391C104.955 39.2577 105.388 38.8582 105.71 38.3742C106.031 37.8902 106.231 37.3359 106.294 36.7582Z" fill="white"/>
<path opacity="0.4" d="M105.838 36.7582C105.776 37.3358 105.575 37.8899 105.254 38.3738C104.933 38.8578 104.5 39.2574 103.991 39.5391L103.91 40.3971H75.4189L75.5 39.5391C75.4555 39.5103 75.411 39.4815 75.3692 39.4501C74.9486 39.1482 74.6161 38.7396 74.4059 38.2665C74.1958 37.7933 74.1156 37.2727 74.1736 36.7582C74.2362 36.1803 74.437 35.6259 74.7589 35.1419C75.0808 34.6579 75.5144 34.2585 76.0232 33.9773L76.1017 33.1193H104.593L104.515 33.9773C104.973 34.2705 105.341 34.6866 105.575 35.1782C105.809 35.6698 105.9 36.2172 105.838 36.7582Z" fill="white"/>
<path d="M95.5468 88.2736L95.2093 91.8602H75.3691L75.7066 88.2736H95.5468Z" fill="#263238"/>
<g opacity="0.4">
<path d="M89.4699 89.6548H81.8048C81.7597 89.6548 81.7165 89.6369 81.6846 89.605C81.6527 89.5731 81.6348 89.5299 81.6348 89.4848C81.6348 89.4395 81.6526 89.3959 81.6844 89.3636C81.7162 89.3313 81.7595 89.3128 81.8048 89.3121H89.4699C89.5152 89.3128 89.5584 89.3313 89.5903 89.3636C89.6221 89.3959 89.6399 89.4395 89.6399 89.4848C89.6399 89.5299 89.622 89.5731 89.5901 89.605C89.5582 89.6369 89.515 89.6548 89.4699 89.6548Z" fill="white"/>
<path d="M92.7685 90.7981H78.0402C77.9948 90.7974 77.9516 90.7789 77.9198 90.7466C77.8879 90.7143 77.8701 90.6707 77.8701 90.6254C77.8701 90.5803 77.888 90.5371 77.9199 90.5052C77.9518 90.4733 77.9951 90.4554 78.0402 90.4554H92.7685C92.8139 90.4553 92.8574 90.4732 92.8897 90.505C92.922 90.5368 92.9405 90.5801 92.9412 90.6254C92.9405 90.671 92.9221 90.7145 92.8899 90.7467C92.8577 90.779 92.8141 90.7974 92.7685 90.7981Z" fill="white"/>
</g>
<path d="M84.0126 36.2219L83.989 36.46H82.6025L82.7804 34.5424H84.1329L84.1094 34.7805H83.0316L82.9766 35.3691H83.9367L83.9158 35.6019H82.9557L82.8982 36.2219H84.0126Z" fill="#263238"/>
<path d="M86.2076 36.46L86.3305 35.0552L85.5457 36.2271H85.4201L84.8367 35.0708L84.7059 36.46H84.4443L84.6248 34.5424H84.8472L85.5195 35.8897L86.4325 34.5424H86.6575L86.4796 36.46H86.2076Z" fill="#263238"/>
<path d="M88.7087 35.2095C88.6694 35.6281 88.345 35.8792 87.8454 35.8792H87.3771L87.3222 36.46H87.0605L87.2411 34.5424H87.9866C88.4706 34.5319 88.7479 34.7935 88.7087 35.2095ZM88.4471 35.2095C88.4732 34.9479 88.3032 34.7805 87.9552 34.7805H87.4896L87.4085 35.6411H87.8741C88.2116 35.6411 88.4078 35.4842 88.4235 35.2095H88.4471Z" fill="#263238"/>
<path d="M89.1737 34.5319H89.4353L89.2783 36.2114H90.3247L90.3012 36.4495H88.9932L89.1737 34.5319Z" fill="#263238"/>
<path d="M90.516 35.4999C90.5436 35.2264 90.6735 34.9733 90.8796 34.7914C91.0857 34.6095 91.353 34.5122 91.6278 34.5189C91.7562 34.5105 91.8848 34.5306 92.0045 34.5778C92.1241 34.625 92.2318 34.6981 92.3199 34.7919C92.4079 34.8857 92.4741 34.9979 92.5136 35.1203C92.5532 35.2427 92.5652 35.3723 92.5487 35.4999C92.5223 35.7732 92.3936 36.0265 92.1884 36.2089C91.9832 36.3913 91.7166 36.4894 91.4421 36.4835C91.3132 36.4923 91.1839 36.4724 91.0636 36.4252C90.9433 36.3781 90.835 36.3048 90.7464 36.2107C90.6578 36.1167 90.5912 36.0041 90.5514 35.8812C90.5115 35.7583 90.4994 35.628 90.516 35.4999ZM92.2766 35.4999C92.2903 35.4055 92.2829 35.3093 92.2549 35.2182C92.2268 35.1271 92.1789 35.0434 92.1146 34.973C92.0503 34.9027 91.9711 34.8475 91.8829 34.8115C91.7946 34.7755 91.6994 34.7595 91.6043 34.7648C91.3988 34.7593 91.199 34.8322 91.0455 34.9688C90.8919 35.1053 90.7961 35.2952 90.7776 35.4999C90.7638 35.5948 90.7714 35.6916 90.7997 35.7832C90.828 35.8748 90.8763 35.959 90.9412 36.0297C91.006 36.1003 91.0858 36.1556 91.1747 36.1916C91.2636 36.2275 91.3594 36.2433 91.4551 36.2376C91.6603 36.2423 91.8594 36.1686 92.0121 36.0316C92.1647 35.8945 92.2593 35.7043 92.2766 35.4999Z" fill="#263238"/>
<path d="M93.5927 35.7981L93.5299 36.46H93.2683L93.3311 35.7929L92.6797 34.5319H92.9727L93.4959 35.5417L94.2075 34.5319H94.4691L93.5927 35.7981Z" fill="#263238"/>
<path d="M95.9442 36.2219L95.9207 36.46H94.5342L94.7147 34.5424H96.0646L96.041 34.7805H94.9632L94.9083 35.3691H95.8684L95.8474 35.6019H94.8873L94.8298 36.2219H95.9442Z" fill="#263238"/>
<path d="M97.7753 36.2219L97.7544 36.46H96.3652L96.5457 34.5424H97.8956L97.8747 34.7805H96.7943L96.7393 35.3691H97.6994L97.6759 35.6019H96.7158L96.6582 36.2219H97.7753Z" fill="#263238"/>
<path d="M79.0395 38.0139C79.067 37.7408 79.1965 37.4882 79.4021 37.3064C79.6077 37.1245 79.8743 37.0269 80.1487 37.0329C80.2772 37.0241 80.4062 37.0439 80.5262 37.0909C80.6461 37.138 80.7542 37.2111 80.8425 37.3049C80.9309 37.3987 80.9973 37.511 81.037 37.6336C81.0767 37.7562 81.0887 37.8861 81.0721 38.0139C81.0458 38.287 80.917 38.54 80.7117 38.722C80.5064 38.904 80.2398 39.0015 79.9656 38.9949C79.8368 39.0041 79.7075 38.9846 79.5872 38.9378C79.4669 38.8909 79.3585 38.8179 79.2699 38.724C79.1813 38.6301 79.1146 38.5177 79.0748 38.3949C79.0349 38.2721 79.0229 38.142 79.0395 38.0139ZM80.7975 38.0139C80.8115 37.9196 80.8045 37.8234 80.7768 37.7321C80.7491 37.6409 80.7015 37.5569 80.6375 37.4863C80.5734 37.4157 80.4944 37.3602 80.4062 37.3239C80.3181 37.2876 80.223 37.2713 80.1277 37.2762C79.9237 37.2734 79.7262 37.3479 79.5748 37.4848C79.4234 37.6216 79.3294 37.8106 79.3115 38.0139C79.2978 38.1088 79.3053 38.2056 79.3336 38.2972C79.3619 38.3889 79.4102 38.4731 79.4751 38.5437C79.54 38.6143 79.6198 38.6696 79.7087 38.7056C79.7976 38.7416 79.8934 38.7573 79.9891 38.7516C80.1921 38.7536 80.3884 38.6786 80.5384 38.5418C80.6884 38.4049 80.7809 38.2163 80.7975 38.0139Z" fill="#263238"/>
<path d="M81.8333 37.2945L81.7705 37.9616H82.728L82.7071 38.197H81.747L81.6737 38.9818H81.4121L81.5926 37.0643H82.9294L82.9059 37.3023L81.8333 37.2945Z" fill="#263238"/>
<path d="M84.4099 37.2945H83.7559L83.7768 37.0564H85.3595L85.3386 37.2945H84.6819L84.525 38.974H84.2634L84.4099 37.2945Z" fill="#263238"/>
<path d="M87.3035 37.0564L87.1151 38.9792H86.8535L86.9346 38.1238H85.8359L85.7548 38.9792H85.4932L85.6711 37.0617H85.9457L85.8673 37.8857H86.966L87.0445 37.0617L87.3035 37.0564Z" fill="#263238"/>
<path d="M89.1109 38.7359L89.0874 38.974H87.6982L87.8788 37.0564H89.2286L89.2077 37.2945H88.1299L88.075 37.8831H89.035L89.0115 38.1159H88.054L87.9938 38.7359H89.1109Z" fill="#263238"/>
<path d="M92.0413 38.9792L92.1695 37.5823L91.3689 38.7464H91.2434L90.66 37.5901L90.5292 38.9792H90.2676L90.4481 37.0617H90.6731L91.3428 38.4089L92.2584 37.0617H92.4808L92.3055 38.9792H92.0413Z" fill="#263238"/>
<path d="M92.8125 38.0139C92.8407 37.7406 92.9708 37.488 93.1768 37.3062C93.3828 37.1244 93.6497 37.0268 93.9244 37.0329C94.0529 37.0241 94.1819 37.0439 94.3019 37.0909C94.4218 37.138 94.5299 37.2111 94.6182 37.3049C94.7066 37.3987 94.773 37.511 94.8127 37.6336C94.8524 37.7562 94.8644 37.8861 94.8478 38.0139C94.8209 38.2868 94.6919 38.5394 94.4868 38.7213C94.2816 38.9031 94.0154 39.0009 93.7412 38.9949C93.6124 39.0041 93.4831 38.9845 93.3627 38.9377C93.2422 38.8908 93.1337 38.8179 93.0449 38.724C92.9561 38.6302 92.8892 38.5179 92.849 38.3951C92.8088 38.2723 92.7964 38.1421 92.8125 38.0139ZM94.5732 38.0139C94.5868 37.9195 94.5794 37.8232 94.5514 37.7319C94.5234 37.6407 94.4755 37.5568 94.4112 37.4863C94.3469 37.4157 94.2678 37.3603 94.1796 37.324C94.0913 37.2877 93.9961 37.2713 93.9008 37.2762C93.6971 37.2735 93.4998 37.3481 93.3489 37.485C93.1979 37.6218 93.1044 37.8109 93.0872 38.0139C93.0735 38.1088 93.081 38.2056 93.1093 38.2972C93.1376 38.3889 93.1859 38.4731 93.2508 38.5437C93.3157 38.6143 93.3955 38.6696 93.4844 38.7056C93.5733 38.7416 93.6691 38.7573 93.7648 38.7516C93.9678 38.7536 94.1641 38.6786 94.3141 38.5418C94.4641 38.4049 94.5566 38.2163 94.5732 38.0139Z" fill="#263238"/>
<path d="M97.0014 37.0564L96.8235 38.974H96.5985L95.5835 37.543L95.4501 38.974H95.1885L95.3664 37.0564H95.5914L96.6064 38.4848L96.7398 37.0564H97.0014Z" fill="#263238"/>
<path d="M97.9359 37.2945H97.2793L97.3028 37.0564H98.8882L98.8646 37.2945H98.208L98.051 38.974H97.7894L97.9359 37.2945Z" fill="#263238"/>
<path d="M100.829 37.0564L100.649 38.974H100.387L100.466 38.1185H99.3668L99.2884 38.974H99.0137L99.1942 37.0564H99.4558L99.3799 37.8805H100.479L100.555 37.0564H100.829Z" fill="#263238"/>
<path opacity="0.2" d="M104.564 37.0355C104.584 36.9739 104.6 36.9109 104.611 36.8471C104.679 36.3998 104.475 35.9995 104.156 35.9498C104.051 35.9431 103.947 35.9657 103.855 36.0152C103.762 36.0646 103.685 36.139 103.633 36.2298L104.564 37.0355Z" fill="black"/>
<path opacity="0.2" d="M103.518 36.439C103.49 36.5137 103.469 36.5907 103.455 36.6692C103.387 37.1166 103.592 37.5168 103.911 37.5665C104.024 37.5739 104.136 37.5478 104.234 37.4915C104.333 37.4352 104.412 37.3512 104.463 37.25L103.518 36.439Z" fill="black"/>
<path opacity="0.2" d="M75.4867 36.439C75.4566 36.5132 75.4347 36.5904 75.4213 36.6692C75.3533 37.1166 75.5573 37.5168 75.8765 37.5665C75.9894 37.5739 76.102 37.5478 76.2002 37.4915C76.2984 37.4352 76.3778 37.3512 76.4285 37.25L75.4867 36.439Z" fill="black"/>
<path opacity="0.2" d="M76.5312 37.0355C76.5525 36.9742 76.5682 36.9112 76.5783 36.8472C76.6463 36.3998 76.4449 35.9996 76.1258 35.9498C76.0212 35.9434 75.9168 35.9662 75.8245 36.0156C75.7321 36.065 75.6552 36.1392 75.6025 36.2298L76.5312 37.0355Z" fill="black"/>
<path opacity="0.2" d="M86.2624 33.1193L80.7085 40.3971H75.4188L75.4999 39.5391C75.4555 39.5103 75.411 39.4815 75.3691 39.4501L80.1984 33.1193H86.2624Z" fill="white"/>
<path opacity="0.2" d="M88.6121 33.1193L83.0582 40.3971H82.208L87.7593 33.1193H88.6121Z" fill="white"/>
<path opacity="0.2" d="M95.5466 88.2736L95.2091 91.8602H89.8018L92.5382 88.2736H95.5466Z" fill="white"/>
<path opacity="0.2" d="M91.0388 88.2736L88.3024 91.8602H87.4521L90.1885 88.2736H91.0388Z" fill="white"/>
<path d="M75.5994 40.643L76.706 40.3971L75.5994 40.1512L75.3535 39.0446L75.1076 40.1512L74.001 40.3971L75.1076 40.643L75.3535 41.7496L75.5994 40.643Z" fill="white"/>
<path d="M104.708 33.4358L105.814 33.1899L104.708 32.944L104.462 31.8348L104.216 32.944L103.109 33.1899L104.216 33.4358L104.462 34.5424L104.708 33.4358Z" fill="white"/>
<path d="M101.106 39.6332L101.715 39.4998L101.106 39.3638L100.97 38.7516L100.834 39.3638L100.222 39.4998L100.834 39.6332L100.97 40.2454L101.106 39.6332Z" fill="white"/>
<path d="M75.4897 91.9988L76.0992 91.8628L75.4897 91.7267L75.3537 91.1146L75.2176 91.7267L74.6055 91.8628L75.2176 91.9988L75.3537 92.6084L75.4897 91.9988Z" fill="white"/>
<path d="M91.6668 88.802L92.2789 88.6659L91.6668 88.5299L91.5334 87.9178L91.3973 88.5299L90.7852 88.6659L91.3973 88.802L91.5334 89.4115L91.6668 88.802Z" fill="white"/>
<path opacity="0.2" d="M106.082 85.6863L110.116 43.0106H70.3777L66.3438 85.6863H106.082Z" fill="black"/>
<path d="M106.082 85.6863L110.116 43.0106H71.3953L67.3613 85.6863H106.082Z" fill="#263238"/>
<path opacity="0.5" d="M106.082 85.6863L110.116 43.0106H71.3953L67.3613 85.6863H106.082Z" fill="white"/>
<path d="M110.115 43.9654L106.285 84.4619H68.6377L72.465 43.9654H110.115Z" fill="#407BFF"/>
<path opacity="0.7" d="M110.115 43.9654L106.285 84.4619H68.6377L72.465 43.9654H110.115Z" fill="white"/>
<path d="M77.8647 76.2868L78.9373 78.0605C78.9373 78.0605 79.9497 77.948 80.2741 78.0605C80.5985 78.173 80.4991 82.2148 80.2217 82.4685C79.9444 82.7223 79.0995 82.097 78.6783 81.7936C78.2571 81.4901 78.2231 79.8969 78.2231 79.8969L76.6953 77.4588L77.8647 76.2868Z" fill="#EBB376"/>
<path d="M74.9843 70.0161C74.9843 70.644 78.8142 77.4405 78.8142 77.4405L76.8835 78.7485C76.8835 78.7485 71.7822 71.4497 71.7822 69.8382C71.7822 68.2267 79.8501 60.0829 81.8645 60.1745L82.4243 64.2869C82.4243 64.2869 82.2804 64.3837 82.0345 64.5485C81.3674 65.009 79.9417 66.0005 78.5526 67.0181C76.7449 68.3471 74.9843 69.7126 74.9843 70.0161Z" fill="white"/>
<path opacity="0.1" d="M82.0342 64.559C81.3671 65.0194 79.9413 66.0109 78.5522 67.0286C78.513 64.852 81.1185 63.1516 81.1185 63.1516C81.3565 63.3142 81.5598 63.5223 81.717 63.7638C81.8741 64.0054 81.9819 64.2756 82.0342 64.559Z" fill="black"/>
<path d="M95.2404 84.462H94.4556C94.3373 84.5405 94.2121 84.608 94.0815 84.6634C94.0422 84.6817 93.9611 84.6032 93.8565 84.462H79.9521C80.0463 83.8106 80.1379 83.2089 80.2268 82.6673C80.2452 82.5679 80.2608 82.4659 80.2765 82.3665C80.3184 82.1206 80.3576 81.8851 80.3943 81.6654C80.3956 81.6541 80.3956 81.6427 80.3943 81.6314C80.4283 81.443 80.4623 81.2678 80.4937 81.1082C80.4937 81.0506 80.5146 80.9931 80.5224 80.9355H95.1985C95.1985 80.9957 95.1985 81.0532 95.1985 81.1108C95.1985 81.5791 95.2168 82.547 95.2325 83.8655C95.2247 84.0486 95.2378 84.2527 95.2404 84.462Z" fill="#263238"/>
<path opacity="0.2" d="M95.2404 84.462H94.4556C94.3373 84.5405 94.2121 84.608 94.0815 84.6634C94.0422 84.6817 93.9611 84.6032 93.8565 84.462H79.9521C80.0463 83.8106 80.1379 83.2089 80.2268 82.6673C80.2452 82.5679 80.2608 82.4659 80.2765 82.3665C80.3184 82.1206 80.3576 81.8851 80.3943 81.6654C80.3956 81.6541 80.3956 81.6427 80.3943 81.6314C80.4283 81.443 80.4623 81.2678 80.4937 81.1082C80.4937 81.0506 80.5146 80.9931 80.5224 80.9355H95.1985C95.1985 80.9957 95.1985 81.0532 95.1985 81.1108C95.1985 81.5791 95.2168 82.547 95.2325 83.8655C95.2247 84.0486 95.2378 84.2527 95.2404 84.462Z" fill="white"/>
<path d="M80.4022 81.0925H95.1725V82.8505L80.2139 82.6674L80.4022 81.0925Z" fill="#263238"/>
<path d="M90.4269 80.2998H89.8984V83.4208H90.4269V80.2998Z" fill="#263238"/>
<path d="M82.9532 80.2998H82.4248V83.4208H82.9532V80.2998Z" fill="#263238"/>
<path d="M87.1335 80.7838H84.4023V82.7511H87.1335V80.7838Z" fill="#407BFF"/>
<path opacity="0.2" d="M90.4269 80.2998H89.8984V83.4208H90.4269V80.2998Z" fill="white"/>
<path opacity="0.2" d="M82.9532 80.2998H82.4248V83.4208H82.9532V80.2998Z" fill="white"/>
<path opacity="0.4" d="M87.1335 80.7838H84.4023V82.7511H87.1335V80.7838Z" fill="white"/>
<path d="M98.1525 61.2523C98.1525 61.2523 97.6816 63.196 97.1061 65.9952C96.9386 66.8219 96.7634 67.7218 96.5829 68.6662C95.8399 72.6897 95.1257 77.5608 95.1833 81.0925H80.4026C80.4026 81.0925 79.4425 67.6015 81.8649 60.164C81.8649 60.1693 91.199 59.8161 98.1525 61.2523Z" fill="white"/>
<path d="M92.703 60.5538C91.361 61.7729 88.0778 61.323 88.0778 61.323C88.0778 61.323 86.0295 60.7605 86.4611 60.1222C87.6671 59.9207 88.2505 59.3583 88.4938 58.6363C88.6248 58.1892 88.6657 57.7206 88.6141 57.2576C88.595 56.9996 88.5618 56.7429 88.5147 56.4885L92.5722 53.4826C92.0412 55.4604 91.3898 59.1228 92.703 60.5538Z" fill="#EBB376"/>
<path opacity="0.2" d="M91.6354 55.3924C91.4732 57.8279 89.4719 58.5002 88.4961 58.6363C88.6271 58.1892 88.668 57.7206 88.6164 57.2576L91.6354 55.3924Z" fill="black"/>
<path d="M85.7021 47.1727C85.7021 47.1727 84.5693 50.8352 86.343 52.5749C88.1167 54.3145 89.1631 47.3428 89.1631 47.3428L85.7021 47.1727Z" fill="#263238"/>
<path d="M91.6723 56.4205C91.1627 56.9751 90.4851 57.3471 89.7436 57.4794C89.0022 57.6117 88.2377 57.4971 87.5677 57.153C86.6913 56.7233 86.0127 55.9745 85.6711 55.0601C85.6223 54.9343 85.5804 54.8059 85.5455 54.6756C84.9098 52.2374 85.2002 48.1851 87.8476 47.0445C88.4314 46.7899 89.0706 46.6889 89.7044 46.7512C90.3382 46.8136 90.9455 47.0371 91.4685 47.4006C91.9914 47.7641 92.4126 48.2555 92.6919 48.8278C92.9712 49.4002 93.0993 50.0345 93.0641 50.6704C92.9594 53.3989 93.0248 55.0026 91.6723 56.4205Z" fill="#EBB376"/>
<path d="M89.5476 51.4944C89.5659 51.7142 89.4378 51.8973 89.286 51.8999C89.1343 51.9025 89.0244 51.7247 89.0244 51.5049C89.0244 51.2852 89.1369 51.0994 89.286 51.0968C89.4351 51.0942 89.5398 51.2747 89.5476 51.4944Z" fill="#263238"/>
<path d="M86.699 51.5363C86.7199 51.756 86.5891 51.9418 86.4374 51.9444C86.2857 51.947 86.1758 51.7665 86.1758 51.5467C86.1758 51.327 86.2883 51.1439 86.4374 51.1413C86.5865 51.1386 86.6938 51.3348 86.699 51.5363Z" fill="#263238"/>
<path d="M87.2348 51.6645C86.9844 52.348 86.6402 52.9934 86.2119 53.5821C86.3665 53.688 86.5424 53.7587 86.7272 53.7895C86.912 53.8202 87.1014 53.8101 87.2819 53.7599L87.2348 51.6645Z" fill="#D58745"/>
<path d="M89.7045 50.6913C89.6809 50.6949 89.6567 50.6925 89.6343 50.6843C89.6119 50.676 89.5919 50.6623 89.5763 50.6442C89.4783 50.5135 89.3511 50.4076 89.2048 50.335C89.0585 50.2623 88.8973 50.2248 88.7339 50.2257C88.7168 50.2272 88.6994 50.2253 88.683 50.2202C88.6665 50.2151 88.6512 50.2067 88.638 50.1957C88.6247 50.1846 88.6138 50.1711 88.6058 50.1558C88.5978 50.1405 88.5929 50.1238 88.5913 50.1066C88.5898 50.0894 88.5917 50.0721 88.5968 50.0557C88.6019 50.0392 88.6103 50.0239 88.6213 50.0107C88.6324 49.9974 88.6459 49.9865 88.6612 49.9785C88.6765 49.9705 88.6932 49.9656 88.7104 49.964C88.9174 49.9603 89.1224 50.0058 89.3084 50.0968C89.4944 50.1878 89.6561 50.3216 89.7803 50.4873C89.8023 50.5137 89.813 50.5478 89.8101 50.582C89.8071 50.6163 89.7908 50.6481 89.7647 50.6704C89.7462 50.6813 89.7257 50.6884 89.7045 50.6913Z" fill="#263238"/>
<path d="M85.3416 50.7279C85.3169 50.7356 85.2904 50.7356 85.2657 50.7279C85.2342 50.7136 85.2095 50.6876 85.1968 50.6554C85.1841 50.6231 85.1844 50.5873 85.1977 50.5553C85.2813 50.366 85.4086 50.1993 85.5691 50.0688C85.7296 49.9382 85.9188 49.8477 86.1212 49.8045C86.1551 49.8 86.1895 49.8089 86.2169 49.8295C86.2443 49.85 86.2625 49.8805 86.2677 49.9143C86.2715 49.9482 86.2623 49.9822 86.2418 50.0094C86.2214 50.0367 86.1913 50.055 86.1578 50.0608C85.9983 50.0984 85.8499 50.1729 85.7245 50.2783C85.5991 50.3838 85.5002 50.5171 85.4358 50.6678C85.4254 50.684 85.4115 50.6978 85.3953 50.7082C85.379 50.7186 85.3607 50.7253 85.3416 50.7279Z" fill="#263238"/>
<path d="M90.9943 47.3166L90.8164 48.5147C91.0163 48.6172 91.1703 48.7912 91.2479 49.002C91.3254 49.2128 91.3208 49.4451 91.235 49.6527C90.819 50.6521 91.3475 52.2348 92.1061 52.8809C92.1061 52.8809 92.1427 52.4441 92.509 52.5565C92.8752 52.669 92.7104 54.945 91.9596 56.0124C91.9596 56.0124 93.2677 54.8456 93.9426 52.4702C94.5731 50.2754 94.5077 48.6482 94.076 47.7796L90.9943 47.3166Z" fill="#263238"/>
<path d="M94.2982 52.8836C94.008 53.5061 93.4832 53.9886 92.8385 54.2256C91.983 54.5317 91.4886 53.7809 91.6717 52.9385C91.8392 52.1903 92.4827 51.1073 93.3695 51.1727C94.2564 51.2381 94.6436 52.1171 94.2982 52.8836Z" fill="#EBB376"/>
<path d="M87.0811 54.427C87.1922 54.7419 87.2796 55.0645 87.3427 55.3924C87.4028 55.3924 87.4604 55.3924 87.5205 55.3924C88.3211 55.3557 88.6795 55.0732 88.8286 54.7724C88.9022 54.6246 88.939 54.4613 88.9358 54.2962C88.9363 54.2017 88.924 54.1076 88.8992 54.0163C88.4859 54.291 87.7429 54.3826 87.3427 54.414C87.1883 54.414 87.0811 54.427 87.0811 54.427Z" fill="#263238"/>
<path d="M87.3525 54.414L87.4389 54.6991C88.1923 54.6625 88.7181 54.5343 88.9457 54.2962C88.9462 54.2017 88.9339 54.1076 88.9091 54.0163C88.4958 54.2858 87.7528 54.3773 87.3525 54.414Z" fill="white"/>
<path d="M87.5254 55.3871C88.3259 55.3505 88.6843 55.068 88.8334 54.7671C88.5299 54.7871 88.2323 54.8606 87.9544 54.9842C87.7735 55.0713 87.6237 55.212 87.5254 55.3871Z" fill="#DE5753"/>
<path d="M90.1628 47.7299C90.1628 47.7299 89.9849 49.1609 91.7743 49.8986C93.5637 50.6364 94.2125 51.2642 94.2125 51.2642C94.2125 51.2642 95.4185 47.7509 93.2288 46.4533C93.2288 46.4533 93.1818 45.7836 91.3034 45.1453C89.4251 44.507 86.7306 44.8052 85.5115 47.0681C84.5932 48.7685 85.4435 49.9771 85.4435 49.9771C85.4435 49.9771 85.6214 48.9909 87.3663 48.7685C88.3633 48.6314 89.318 48.2769 90.1628 47.7299Z" fill="#263238"/>
<path d="M86.7411 61.1241L87.1361 63.0548C87.1361 63.0548 84.8863 72.4333 84.4023 77.2966L85.2212 78.118L86.5109 77.2966C86.5109 77.2966 86.626 67.3922 87.764 63.2301L89.8019 61.561L88.1982 61.0378L86.7411 61.1241Z" fill="#407BFF"/>
<path d="M92.2419 58.7174L88.344 60.4754L88.1138 59.0653L86.6828 59.5702C86.4319 59.6573 86.2178 59.8267 86.0753 60.0509C85.9328 60.275 85.8703 60.5408 85.898 60.805L86.0602 62.3511L88.0379 61.268L89.0242 62.6624L93.7069 60.4073L92.2419 58.7174Z" fill="#407BFF"/>
<path opacity="0.9" d="M92.2419 58.7174L88.344 60.4754L88.1138 59.0653L86.6828 59.5702C86.4319 59.6573 86.2178 59.8267 86.0753 60.0509C85.9328 60.275 85.8703 60.5408 85.898 60.805L86.0602 62.3511L88.0379 61.268L89.0242 62.6624L93.7069 60.4073L92.2419 58.7174Z" fill="white"/>
<path d="M92.3422 70.6675L90.9976 70.0423L89.5273 70.4608L89.7706 67.1934L92.5829 67.4027L92.3422 70.6675Z" fill="#407BFF"/>
<path opacity="0.2" d="M92.3422 70.6675L90.9976 70.0423L89.5273 70.4608L89.7706 67.1934L92.5829 67.4027L92.3422 70.6675Z" fill="white"/>
<path d="M91.3812 64.5904L91.6506 64.7971L91.975 64.7107L92.1843 64.9776L92.5218 64.975L92.6578 65.2863L92.9848 65.3674L93.0372 65.6996L93.3354 65.8618L93.304 66.1967L93.5525 66.4269L93.4374 66.746L93.6231 67.0286L93.4322 67.3085L93.5394 67.6302L93.2857 67.8526L93.3092 68.1901L93.0084 68.3444L92.9482 68.6767L92.6186 68.7525L92.4773 69.0586L92.1398 69.0482L91.9253 69.3098L91.6009 69.2156L91.3289 69.417L91.0385 69.247L90.7246 69.3725L90.4865 69.1345L90.1516 69.179L89.979 68.8886L89.6415 68.8493L89.5473 68.5249L89.2334 68.402L89.2203 68.0645L88.9456 67.8683L89.0189 67.5387L88.8018 67.2797L88.9561 66.9789L88.8096 66.6728L89.032 66.419L88.9666 66.0894L89.2439 65.8984L89.2622 65.5609L89.5813 65.4458L89.6834 65.1241L90.0208 65.0901L90.1987 64.8049L90.5336 64.8572L90.7769 64.6218L91.0882 64.7578L91.3812 64.5904Z" fill="#407BFF"/>
<path opacity="0.4" d="M91.2902 69.0369C92.4176 68.99 93.2936 68.0381 93.2467 66.9107C93.1998 65.7833 92.2479 64.9073 91.1205 64.9542C89.9931 65.001 89.1171 65.953 89.1639 67.0804C89.2108 68.2078 90.1628 69.0838 91.2902 69.0369Z" fill="white"/>
<path d="M90.3096 67.4314L90.2023 67.8762L90.4875 67.8971L90.5973 67.4524L90.8459 67.4707L90.736 67.9154L91.0264 67.9363L91.131 67.4916L91.4292 67.5125L91.4711 67.3216L91.4946 67.23L91.199 67.2091L91.288 66.8507L91.5862 66.8742L91.6516 66.5891L91.356 66.5681L91.4763 66.058L91.1912 66.0371L91.0656 66.5472L90.8197 66.5289L90.9427 66.0188L90.6575 65.9978L90.5345 66.521L90.2494 66.5001L90.1814 66.7853L90.4665 66.8036L90.3776 67.162L90.0924 67.141L90.0689 67.2326L90.0244 67.4236L90.3096 67.4314ZM90.9976 66.8271L90.9139 67.1855L90.6654 67.1672L90.7517 66.8088L90.9976 66.8271Z" fill="#407BFF"/>
<path d="M91.8686 66.3248L91.8555 66.5263L92.0988 66.542L92.0386 67.3608L91.9889 68.007L92.274 68.0279L92.3237 67.3817L92.4179 66.1286L92.2165 66.1129C92.1817 66.1748 92.1312 66.2262 92.07 66.2621C92.0099 66.3012 91.9402 66.323 91.8686 66.3248Z" fill="#407BFF"/>
<path d="M99.2251 78.8165L98.6679 79.4313L97.0197 81.2625C97.0197 81.2625 96.902 82.0866 96.5645 82.4816C96.15 82.9694 95.7053 83.4308 95.233 83.8629C94.9883 84.0869 94.7258 84.2908 94.4482 84.4724C94.3299 84.551 94.2047 84.6184 94.0741 84.6738C94.0348 84.6922 93.9537 84.6137 93.8491 84.4724C93.4887 83.9453 93.1594 83.3976 92.8628 82.8321C92.6692 82.479 92.5332 82.2147 92.5332 82.2147C92.7523 81.8317 92.9915 81.4606 93.25 81.1029C93.2895 81.0422 93.3323 80.9837 93.3782 80.9277C93.8334 80.3155 94.4089 79.6693 94.9661 79.4287C95.0495 79.3958 95.1381 79.3781 95.2277 79.3763C95.5878 79.364 95.9483 79.3815 96.3056 79.4287L97.4043 78.3194L98.7359 76.9748L99.2251 78.8165Z" fill="#EBB376"/>
<path d="M97.7364 61.2942C99.7482 61.459 106.369 70.5707 106.16 72.1691C105.951 73.7675 98.9424 79.6746 98.9424 79.6746L97.1949 78.1285C97.1949 78.1285 102.88 72.5563 102.95 71.9363C103.021 71.3163 96.6455 65.2994 96.6455 65.2994L97.7364 61.2942Z" fill="white"/>
<path opacity="0.1" d="M97.114 65.9952C96.9466 66.8219 96.7713 67.7218 96.5908 68.6662C95.513 66.5734 96.2245 63.9259 96.2245 63.9259C96.3213 64.9488 97.114 65.9952 97.114 65.9952Z" fill="black"/>
<path opacity="0.2" d="M84.6331 43.0079L69.5254 62.8089L71.3959 43.0079H84.6331Z" fill="white"/>
<path opacity="0.2" d="M92.4474 43.0079L68.4189 74.5L68.8218 70.2646L89.6168 43.0079H92.4474Z" fill="white"/>
<path d="M73.1572 94.8581H76.2703C76.4396 94.8581 76.602 94.7909 76.7217 94.6712C76.8414 94.5515 76.9086 94.3891 76.9086 94.2198C76.9086 94.0505 76.8414 93.8882 76.7217 93.7685C76.602 93.6488 76.4396 93.5815 76.2703 93.5815H73.1572V94.8581Z" fill="#263238"/>
<path opacity="0.5" d="M73.1572 93.5815V94.8581H76.3881C76.5159 94.8662 76.6419 94.8244 76.7395 94.7414C76.8371 94.6585 76.8986 94.5409 76.9113 94.4134V94.0236C76.9092 93.9538 76.8896 93.8857 76.8544 93.8253C76.8193 93.765 76.7695 93.7145 76.7098 93.6783C76.6118 93.6144 76.4972 93.5807 76.3802 93.5815H73.1572Z" fill="white"/>
<path opacity="0.5" d="M73.1572 93.5815V94.4553H76.1788C76.3068 94.464 76.4331 94.4224 76.5308 94.3393C76.6286 94.2562 76.69 94.1382 76.702 94.0105V93.6783C76.604 93.6144 76.4893 93.5807 76.3724 93.5815H73.1572Z" fill="white"/>
<path d="M37.7047 94.3663H38.9211V94.0707H37.7047L37.3672 94.2198L37.7047 94.3663Z" fill="#263238"/>
<path opacity="0.5" d="M37.7047 94.3663H38.9211V94.0707H37.7047L37.3672 94.2198L37.7047 94.3663Z" fill="white"/>
<path d="M38.3662 93.9007C39.6834 93.4803 41.0485 93.228 42.4289 93.1499C54.4628 92.4592 61.9159 92.4121 73.8373 93.0112C73.9895 93.0059 74.138 93.059 74.2524 93.1597C74.3667 93.2604 74.4381 93.401 74.4521 93.5527V94.8843C74.4375 95.036 74.366 95.1765 74.2519 95.2775C74.1378 95.3785 73.9896 95.4325 73.8373 95.4284C61.9159 96.0249 54.4523 95.9778 42.4289 95.2898C41.0485 95.2095 39.6836 94.9564 38.3662 94.5364V93.9007Z" fill="#263238"/>
<path d="M38.3662 93.9007V94.5364C39.6834 94.9568 41.0485 95.209 42.4289 95.2872C54.4628 95.9778 61.9159 96.0249 73.8373 95.4258C73.9893 95.4311 74.1375 95.3779 74.2514 95.2771C74.3652 95.1764 74.4361 95.0358 74.4495 94.8843V93.5554C74.4368 93.4034 74.3662 93.2622 74.2522 93.1609C74.1382 93.0596 73.9897 93.006 73.8373 93.0112C61.9159 92.4121 54.4523 92.4592 42.4289 93.1499C41.0493 93.2278 39.6851 93.4801 38.3688 93.9007H38.3662Z" fill="#263238"/>
<path opacity="0.1" d="M38.3691 93.9007C39.686 94.3188 41.0499 94.571 42.4293 94.6515C54.4631 95.3421 61.9162 95.3866 73.8376 94.7901C73.9897 94.7941 74.1375 94.7401 74.2512 94.639C74.3649 94.538 74.4359 94.3975 74.4498 94.246V93.5554C74.4371 93.4034 74.3665 93.2622 74.2525 93.1609C74.1385 93.0596 73.99 93.006 73.8376 93.0112C61.9162 92.4121 54.4526 92.4592 42.4293 93.1499C41.0496 93.2278 39.6854 93.4801 38.3691 93.9007Z" fill="white"/>
<path d="M60.8037 92.3467L62.0647 92.5953L62.1981 92.3467C65.4675 92.2189 68.742 92.3422 71.9926 92.7156V95.6744L73.3425 95.5697V92.3886L71.9926 92.2813C69.7114 92.1061 62.737 91.6456 60.8037 92.3467Z" fill="#407BFF"/>
<path d="M56.71 95.8418H57.207V92.5926H56.71V95.8418Z" fill="#407BFF"/>
<path opacity="0.2" d="M73.343 92.985L71.9932 92.9222V93.6495H73.343V92.985Z" fill="white"/>
<path opacity="0.2" d="M60.8037 92.3467C63.8253 91.8471 73.3425 92.6083 73.3425 92.6083V92.4043L71.9926 92.297C69.7114 92.106 62.737 91.6456 60.8037 92.3467Z" fill="white"/>
<path opacity="0.2" d="M56.71 94.0158H57.207V92.5926H56.71V94.0158Z" fill="white"/>
</svg>
