<svg width="99" height="99" viewBox="0 0 99 99" fill="none" xmlns="http://www.w3.org/2000/svg">
<path d="M99 75.7152H0V75.7647H99V75.7152Z" fill="#EBEBEB"/>
<path d="M46.9258 66.8844H8.69403C8.39452 66.8839 8.10747 66.7645 7.89587 66.5526C7.68427 66.3406 7.56543 66.0533 7.56543 65.7538V12.0107C7.56804 11.7129 7.68803 11.4282 7.89935 11.2183C8.11066 11.0085 8.39623 10.8905 8.69403 10.89H46.9258C47.2257 10.89 47.5133 11.0091 47.7253 11.2211C47.9373 11.4332 48.0564 11.7207 48.0564 12.0206V65.7538C48.0564 66.0537 47.9373 66.3412 47.7253 66.5533C47.5133 66.7653 47.2257 66.8844 46.9258 66.8844ZM8.69403 10.9296C8.40765 10.9301 8.13318 11.0443 7.93087 11.2469C7.72856 11.4496 7.61493 11.7243 7.61493 12.0107V65.7538C7.61493 66.0402 7.72856 66.3149 7.93087 66.5176C8.13318 66.7202 8.40765 66.8344 8.69403 66.8349H46.9258C47.2124 66.8344 47.4871 66.7203 47.6897 66.5177C47.8923 66.315 48.0064 66.0404 48.0069 65.7538V12.0107C48.0064 11.7241 47.8923 11.4494 47.6897 11.2468C47.4871 11.0442 47.2124 10.9301 46.9258 10.9296H8.69403Z" fill="#EBEBEB"/>
<path d="M89.755 66.8844H51.5212C51.2215 66.8839 50.9343 66.7646 50.7223 66.5527C50.5104 66.3408 50.3911 66.0535 50.3906 65.7538V12.0107C50.3938 11.7127 50.5142 11.428 50.7258 11.2182C50.9374 11.0084 51.2232 10.8905 51.5212 10.89H89.755C90.0525 10.891 90.3375 11.0092 90.5484 11.219C90.7593 11.4288 90.879 11.7132 90.8816 12.0107V65.7538C90.8816 66.053 90.7631 66.34 90.5519 66.5519C90.3407 66.7638 90.0542 66.8834 89.755 66.8844ZM51.5212 10.9296C51.2346 10.9301 50.96 11.0442 50.7573 11.2468C50.5547 11.4494 50.4406 11.7241 50.4401 12.0107V65.7538C50.4406 66.0404 50.5547 66.315 50.7573 66.5177C50.96 66.7203 51.2346 66.8344 51.5212 66.8349H89.755C90.0416 66.8344 90.3162 66.7203 90.5189 66.5177C90.7215 66.315 90.8356 66.0404 90.8361 65.7538V12.0107C90.8356 11.7241 90.7215 11.4494 90.5189 11.2468C90.3162 11.0442 90.0416 10.9301 89.755 10.9296H51.5212Z" fill="#EBEBEB"/>
<path d="M89.08 77.6002H82.8291V77.6497H89.08V77.6002Z" fill="#EBEBEB"/>
<path d="M66.3974 77.0636H59.7822V77.1131H66.3974V77.0636Z" fill="#EBEBEB"/>
<path d="M90.8856 79.4396H78.5244V79.4891H90.8856V79.4396Z" fill="#EBEBEB"/>
<path d="M14.1943 79.1069H10.3867V79.1564H14.1943V79.1069Z" fill="#EBEBEB"/>
<path d="M21.9564 79.1069H15.959V79.1564H21.9564V79.1069Z" fill="#EBEBEB"/>
<path d="M48.34 78.2714H37.5371V78.3209H48.34V78.2714Z" fill="#EBEBEB"/>
<path d="M90.3767 50.5375C88.369 49.696 85.0426 50.5078 82.2865 53.8501C81.0133 55.3945 79.7857 57.6596 79.4551 59.9782C79.4768 57.3329 79.5046 54.4916 79.5303 51.8087C79.8341 50.4928 80.3129 49.2235 80.9539 48.0348C82.9755 43.9718 84.6466 44.4213 87.3929 41.2414C91.9607 35.9509 94.5783 25.9697 90.0342 29.9554C85.9138 33.559 83.92 37.1666 82.5359 40.297C80.6629 44.5282 79.9105 47.4804 79.5442 50.4425C79.5699 47.9239 79.5937 45.6113 79.6154 43.8273C79.6867 38.0081 79.8451 36.137 79.8748 35.5588C79.9461 34.159 80.4074 33.3432 80.5361 33.1432C81.6192 31.4424 83.32 30.3296 84.9852 28.3912C88.868 23.8788 91.1093 18.2932 89.2382 17.7665C87.284 17.226 84.7159 19.6891 81.8627 25.4727C80.2273 28.7872 79.8095 29.5713 79.4867 36.0657C79.459 36.63 79.3343 38.7565 79.2749 41.7107C78.8135 38.5328 77.9364 35.3747 76.4059 33.2818C73.4537 29.2446 71.2084 28.8585 69.5729 29.2446C67.9374 29.6307 68.6225 33.8699 70.4678 36.135C73.2398 39.5446 77.873 38.8199 79.2452 43.3561C79.1759 47.3616 79.1264 52.4344 79.0987 57.1586C78.6314 54.7193 78.1423 52.6898 77.0692 50.7791C75.0733 47.227 72.6181 45.6766 70.9312 47.3497C69.8798 48.3912 71.0995 51.3097 73.2973 52.4977C75.5287 53.7134 77.3602 55.3945 78.0691 56.4062C78.2334 56.6419 78.7819 57.5447 79.0947 58.0655C79.065 63.8332 79.069 68.9238 79.1185 70.6603L79.3976 70.686C79.3798 70.2385 79.3976 67.3042 79.4214 63.4214C79.9085 58.5763 83.3299 58.313 85.5178 57.3903C89.4283 55.737 92.3845 51.381 90.3767 50.5375Z" fill="#E6E6E6"/>
<path d="M76.4284 75.7152H82.1981C82.3399 75.7236 82.4805 75.6849 82.598 75.605C82.7155 75.5251 82.8032 75.4086 82.8476 75.2737L83.2594 68.112H75.3711L75.779 75.2677C75.8225 75.4036 75.9099 75.5212 76.0274 75.6022C76.1449 75.6831 76.2859 75.7229 76.4284 75.7152Z" fill="#E6E6E6"/>
<path d="M75.5155 70.5533H83.1148C83.2969 70.5533 83.4494 70.3138 83.4712 69.997L83.6256 67.5814C83.6494 67.2091 83.4831 66.8844 83.2712 66.8844H75.3512C75.1374 66.8844 74.971 67.2091 74.9968 67.5814L75.1512 69.997C75.1789 70.3138 75.3334 70.5533 75.5155 70.5533Z" fill="#F5F5F5"/>
<path d="M36.8282 60.2851H29.3379V74.4044H36.8282V60.2851Z" fill="#F0F0F0"/>
<path d="M67.7182 74.4044H30.7773V75.7152H67.7182V74.4044Z" fill="#F0F0F0"/>
<path d="M36.8278 74.4025H69.1553V60.2831H36.8278V74.4025Z" fill="#FAFAFA"/>
<path d="M39.774 66.3478H66.2109V62.0037H39.774V66.3478Z" fill="#F0F0F0"/>
<path d="M39.774 71.9294H66.2109V67.5853H39.774V71.9294Z" fill="#F0F0F0"/>
<path d="M56.2358 61.4632H49.7493C49.4978 61.4632 49.2939 61.6671 49.2939 61.9186V61.9384C49.2939 62.1899 49.4978 62.3938 49.7493 62.3938H56.2358C56.4873 62.3938 56.6912 62.1899 56.6912 61.9384V61.9186C56.6912 61.6671 56.4873 61.4632 56.2358 61.4632Z" fill="#FAFAFA"/>
<path d="M56.2358 67.0448H49.7493C49.4978 67.0448 49.2939 67.2487 49.2939 67.5002V67.52C49.2939 67.7715 49.4978 67.9754 49.7493 67.9754H56.2358C56.4873 67.9754 56.6912 67.7715 56.6912 67.52V67.5002C56.6912 67.2487 56.4873 67.0448 56.2358 67.0448Z" fill="#FAFAFA"/>
<path d="M70.1555 59.0179H36.8301V60.2831H70.1555V59.0179Z" fill="#F0F0F0"/>
<path d="M28.2904 60.2851H36.8281V59.0198H28.2904V60.2851Z" fill="#E6E6E6"/>
<path d="M22.144 64.643C21.2887 64.1956 19.7878 64.4272 18.4434 65.7994C17.73 66.5211 17.2186 67.4176 16.9604 68.3991C17.0693 67.2329 17.1901 65.9776 17.3029 64.7935C17.4875 64.2237 17.7472 63.6811 18.0751 63.1798C19.1225 61.4612 19.8452 61.7225 21.1778 60.4217C23.3993 58.2575 24.9398 53.9451 22.7756 55.5311C21.227 56.6552 19.9586 58.1215 19.0691 59.8158C18.0791 61.6156 17.6356 62.8907 17.3603 64.1857C17.4673 63.0749 17.5583 62.0532 17.6435 61.2652C17.8969 58.6912 18.0395 57.8754 18.0731 57.622C18.1104 57.2471 18.2426 56.888 18.4573 56.5785C19.0077 55.8677 19.7997 55.44 20.6036 54.648C22.4905 52.8007 23.6924 50.4148 22.8865 50.1138C22.043 49.801 20.8135 50.7929 19.3344 53.2382C18.485 54.6421 18.2711 54.9727 17.8791 57.8299C17.8435 58.0793 17.7088 59.0179 17.5702 60.3167C17.4871 58.8951 17.2198 57.4675 16.6218 56.4835C15.4714 54.5866 14.4933 54.3312 13.7567 54.45C13.0202 54.5688 13.1627 56.4577 13.8894 57.5289C14.9883 59.1406 17.0574 58.9961 17.495 61.0533C17.3128 62.8195 17.099 65.0608 16.901 67.1477C16.7881 66.0508 16.6495 65.1361 16.2476 64.251C15.5011 62.6056 14.4656 61.8275 13.6736 62.5027C13.1707 62.9224 13.5983 64.2569 14.525 64.8787C15.4516 65.5004 16.21 66.3122 16.4852 66.7874C16.5485 66.8963 16.7564 67.318 16.8812 67.5596C16.6317 70.092 16.4456 72.3393 16.402 73.1075L16.5307 73.1254C16.5406 72.9274 16.6574 71.6324 16.8178 69.9178C17.2138 67.7932 18.7384 67.8071 19.7403 67.4824C21.5282 66.9042 22.9994 65.0905 22.144 64.643Z" fill="#F0F0F0"/>
<path d="M8.89792 60.2316C10.0047 59.7326 11.8679 60.1346 13.4519 61.9582C14.2937 62.9147 14.8699 64.0753 15.123 65.3242C15.0696 63.8491 15.0141 62.2651 14.9587 60.7702C14.7695 60.0412 14.4838 59.3407 14.1093 58.6872C12.9213 56.4518 11.9946 56.727 10.4166 54.9945C7.78912 52.1116 6.17938 46.5854 8.77516 48.7357C10.6352 50.2631 12.1188 52.198 13.1114 54.3906C14.2182 56.723 14.6815 58.3506 14.931 60.0039C14.8795 58.6001 14.83 57.3111 14.7904 56.3152C14.6657 53.0719 14.5488 52.0304 14.5231 51.7077C14.5049 51.2361 14.3687 50.7766 14.1271 50.3712C13.4975 49.4386 12.5431 48.8446 11.5729 47.7873C9.34144 45.3281 8.0089 42.2433 9.04246 41.9265C10.1255 41.5958 11.5947 42.9304 13.2717 46.1122C14.234 47.9378 14.4776 48.3674 14.7587 51.9849C14.7845 52.2997 14.8835 53.4838 14.9567 55.1311C15.1666 53.3491 15.6081 51.579 16.4318 50.3791C18.0158 48.0823 19.2632 47.8348 20.18 48.0249C21.0967 48.215 20.774 50.5989 19.784 51.8819C18.2871 53.8243 15.6953 53.4877 14.9983 56.0399C15.0953 58.2714 15.1963 61.1008 15.2854 63.7342C15.5091 62.368 15.7527 61.2275 16.3209 60.1465C17.3822 58.1348 18.7286 57.2339 19.6869 58.1427C20.2809 58.707 19.6533 60.3524 18.4435 61.0533C17.2337 61.7542 16.2358 62.7462 15.8556 63.3204C15.7665 63.4531 15.4755 63.9659 15.3092 64.2609C15.4121 67.4764 15.4854 70.3157 15.4834 71.284L15.3191 71.2978C15.3191 71.0483 15.2715 69.4129 15.1963 67.2467C14.8498 64.548 12.9411 64.4569 11.7075 63.9758C9.5038 63.1165 7.7911 60.7306 8.89792 60.2316Z" fill="#E6E6E6"/>
<path d="M13.5811 75.7152H18.6994C18.8259 75.7219 18.9511 75.6868 19.0556 75.6152C19.1601 75.5436 19.2382 75.4396 19.2776 75.3192L19.6399 68.9713H12.6406L13.0049 75.3192C13.0437 75.4396 13.1213 75.5438 13.2255 75.6154C13.3298 75.6871 13.4548 75.7222 13.5811 75.7152Z" fill="#E6E6E6"/>
<path d="M12.7688 71.1374H19.5107C19.673 71.1374 19.8077 70.9236 19.8275 70.6424L19.9641 68.5001C19.9859 68.1694 19.8394 67.8823 19.6493 67.8823H12.6322C12.4342 67.8823 12.2956 68.1694 12.3154 68.5001L12.454 70.6424C12.4738 70.9236 12.6084 71.1374 12.7688 71.1374Z" fill="#F5F5F5"/>
<path d="M54.0999 15.8123H11.918V39.6634H54.0999V15.8123Z" fill="#E6E6E6"/>
<path d="M55.4185 15.8123H12.1416V39.6634H55.4185V15.8123Z" fill="#F5F5F5"/>
<path d="M54.3652 37.7843V17.6933C54.3652 17.2362 53.9947 16.8656 53.5376 16.8656L14.0208 16.8656C13.5637 16.8656 13.1931 17.2362 13.1931 17.6933V37.7843C13.1931 38.2414 13.5637 38.612 14.0208 38.612H53.5376C53.9947 38.612 54.3652 38.2414 54.3652 37.7843Z" fill="white"/>
<path d="M49.4996 84.6569C70.7019 84.6569 87.8898 83.6534 87.8898 82.4155C87.8898 81.1777 70.7019 80.1742 49.4996 80.1742C28.2973 80.1742 11.1094 81.1777 11.1094 82.4155C11.1094 83.6534 28.2973 84.6569 49.4996 84.6569Z" fill="#F5F5F5"/>
<path d="M79.5782 61.8572H74.8262V61.6592H79.5782C80.1371 61.6477 80.6829 61.4885 81.1604 61.1977C81.6379 60.907 82.0299 60.4951 82.2967 60.0039L82.4709 60.0989C82.187 60.6214 81.7698 61.0593 81.2617 61.3682C80.7535 61.677 80.1727 61.8457 79.5782 61.8572Z" fill="#407BFF"/>
<path d="M73.8858 61.6592H71.9395V61.8572H73.8858V61.6592Z" fill="#407BFF"/>
<path d="M79.5786 61.1642H23.9802C23.6754 61.1701 23.3728 61.1111 23.0925 60.9911C22.8122 60.871 22.5607 60.6927 22.3547 60.4679C22.1487 60.2432 21.9929 59.9772 21.8976 59.6875C21.8023 59.3979 21.7698 59.0913 21.8022 58.7882L24.8058 24.3362C24.873 23.695 25.1713 23.1003 25.645 22.663C26.1187 22.2257 26.7354 21.9759 27.3798 21.9602H82.9782C83.283 21.9546 83.5854 22.0138 83.8655 22.1339C84.1456 22.2541 84.397 22.4324 84.603 22.6571C84.8089 22.8818 84.9648 23.1477 85.0601 23.4371C85.1555 23.7266 85.1883 24.0331 85.1562 24.3362L82.1704 58.7882C82.1028 59.4323 81.802 60.0295 81.3246 60.4671C80.8472 60.9048 80.2261 61.1527 79.5786 61.1642Z" fill="#407BFF"/>
<path d="M78.4205 60.4415H24.2081C23.9486 60.4453 23.6912 60.3939 23.453 60.2906C23.2149 60.1873 23.0014 60.0345 22.8269 59.8423C22.6523 59.6502 22.5207 59.4231 22.4406 59.1761C22.3606 58.9292 22.3341 58.668 22.3628 58.41L25.0991 27.025C25.1155 26.8677 25.1887 26.7218 25.305 26.6146C25.4212 26.5075 25.5726 26.4464 25.7307 26.4429H82.828C82.9025 26.4416 82.9764 26.4562 83.0449 26.4857C83.1133 26.5152 83.1747 26.559 83.2249 26.614C83.2751 26.6691 83.313 26.7343 83.336 26.8051C83.3591 26.876 83.3668 26.951 83.3586 27.025L80.6203 58.41C80.5648 58.9588 80.3105 59.4683 79.9053 59.8425C79.5001 60.2167 78.972 60.4298 78.4205 60.4415Z" fill="white"/>
<path d="M31.1179 24.8807C30.7439 24.8871 30.3728 24.8138 30.0293 24.6658C29.6858 24.5178 29.3777 24.2984 29.1254 24.0222C28.8732 23.746 28.6826 23.4193 28.5663 23.0638C28.45 22.7082 28.4106 22.3321 28.4508 21.9602C28.5322 21.1709 28.8991 20.4385 29.4825 19.9007C30.0658 19.3629 30.8256 19.0567 31.6188 19.0397C31.9928 19.0333 32.3638 19.1065 32.7072 19.2545C33.0506 19.4026 33.3586 19.622 33.6107 19.8982C33.8628 20.1745 34.0532 20.5012 34.1693 20.8567C34.2854 21.2123 34.3244 21.5884 34.2839 21.9602H33.0959C33.1198 21.7394 33.0965 21.5161 33.0274 21.305C32.9583 21.094 32.8451 20.9 32.6952 20.7361C32.5454 20.5722 32.3624 20.4421 32.1583 20.3545C31.9543 20.2668 31.7339 20.2236 31.5119 20.2277C31.0403 20.2363 30.5882 20.4173 30.2409 20.7365C29.8937 21.0557 29.6752 21.491 29.627 21.9602C29.603 22.181 29.6264 22.4043 29.6955 22.6154C29.7645 22.8264 29.8778 23.0203 30.0276 23.1842C30.1775 23.3481 30.3605 23.4782 30.5645 23.5659C30.7686 23.6536 30.9889 23.6968 31.211 23.6927L31.1179 24.8807Z" fill="#263238"/>
<path d="M42.869 24.8807C42.4943 24.8882 42.1224 24.8158 41.7779 24.6683C41.4334 24.5208 41.1243 24.3015 40.8712 24.0252C40.6181 23.7489 40.4268 23.4218 40.31 23.0657C40.1933 22.7096 40.1537 22.3327 40.194 21.9602C40.2754 21.1709 40.6423 20.4385 41.2256 19.9007C41.809 19.3629 42.5687 19.0567 43.362 19.0397C43.7359 19.0333 44.1069 19.1065 44.4504 19.2545C44.7938 19.4026 45.1018 19.622 45.3539 19.8982C45.606 20.1745 45.7964 20.5012 45.9125 20.8567C46.0285 21.2123 46.0676 21.5884 46.0271 21.9602H44.8391C44.863 21.7394 44.8397 21.5161 44.7706 21.305C44.7015 21.094 44.5883 20.9 44.4384 20.7361C44.2886 20.5722 44.1056 20.4421 43.9015 20.3545C43.6975 20.2668 43.4771 20.2236 43.2551 20.2277C42.7835 20.2363 42.3314 20.4173 41.9841 20.7365C41.6368 21.0557 41.4184 21.491 41.3701 21.9602C41.3465 22.1809 41.3701 22.4041 41.4393 22.615C41.5085 22.8259 41.6218 23.0197 41.7715 23.1835C41.9213 23.3474 42.1042 23.4775 42.3081 23.5652C42.512 23.653 42.7322 23.6965 42.9541 23.6927L42.869 24.8807Z" fill="#263238"/>
<path d="M54.6208 24.8807C54.247 24.8868 53.8761 24.8133 53.5328 24.6652C53.1895 24.517 52.8817 24.2976 52.6297 24.0214C52.3776 23.7453 52.1872 23.4186 52.071 23.0633C51.9548 22.7079 51.9155 22.3319 51.9557 21.9602C52.0363 21.1706 52.4029 20.4377 52.9864 19.8998C53.57 19.3618 54.3302 19.0559 55.1237 19.0397C55.4976 19.0333 55.8686 19.1065 56.2121 19.2545C56.5555 19.4026 56.8635 19.622 57.1156 19.8982C57.3677 20.1745 57.5581 20.5012 57.6742 20.8567C57.7902 21.2123 57.8293 21.5884 57.7888 21.9602H56.6008C56.625 21.7393 56.6019 21.5159 56.533 21.3047C56.464 21.0935 56.3508 20.8994 56.2009 20.7355C56.051 20.5715 55.8678 20.4414 55.6636 20.3538C55.4594 20.2663 55.2389 20.2233 55.0168 20.2277C54.5454 20.2364 54.0935 20.4175 53.7466 20.7367C53.3996 21.0559 53.1817 21.4912 53.1338 21.9602C53.1099 22.181 53.1332 22.4043 53.2023 22.6154C53.2714 22.8264 53.3846 23.0203 53.5345 23.1842C53.6843 23.3481 53.8673 23.4782 54.0714 23.5659C54.2754 23.6536 54.4958 23.6968 54.7178 23.6927L54.6208 24.8807Z" fill="#263238"/>
<path d="M66.3718 24.8807C65.9979 24.8868 65.6271 24.8133 65.2838 24.6652C64.9405 24.517 64.6327 24.2976 64.3806 24.0214C64.1286 23.7452 63.9382 23.4186 63.822 23.0633C63.7058 22.7079 63.6665 22.3319 63.7067 21.9602C63.7877 21.1707 64.1544 20.4381 64.7379 19.9002C65.3213 19.3624 66.0813 19.0563 66.8747 19.0397C67.2487 19.0333 67.6198 19.1065 67.9633 19.2546C68.3068 19.4026 68.6149 19.622 68.8672 19.8982C69.1194 20.1744 69.31 20.5011 69.4263 20.8566C69.5426 21.2121 69.582 21.5883 69.5417 21.9602H68.3537C68.3777 21.7394 68.3543 21.5161 68.2852 21.305C68.2162 21.094 68.1029 20.9 67.9531 20.7361C67.8032 20.5722 67.6202 20.4421 67.4162 20.3545C67.2121 20.2668 66.9918 20.2236 66.7697 20.2277C66.2984 20.2364 65.8465 20.4174 65.4996 20.7367C65.1526 21.0559 64.9346 21.4911 64.8868 21.9602C64.8628 22.181 64.8862 22.4043 64.9553 22.6153C65.0244 22.8264 65.1376 23.0203 65.2874 23.1842C65.4373 23.3481 65.6203 23.4782 65.8243 23.5659C66.0284 23.6536 66.2487 23.6968 66.4708 23.6927L66.3718 24.8807Z" fill="#263238"/>
<path d="M78.1237 24.8807C77.7499 24.8868 77.379 24.8133 77.0357 24.6652C76.6925 24.517 76.3846 24.2976 76.1326 24.0214C75.8806 23.7452 75.6901 23.4186 75.5739 23.0633C75.4578 22.7079 75.4185 22.3319 75.4586 21.9602C75.5396 21.1707 75.9063 20.4381 76.4898 19.9002C77.0733 19.3624 77.8332 19.0563 78.6266 19.0397C79.0006 19.0333 79.3717 19.1065 79.7152 19.2546C80.0588 19.4026 80.3669 19.622 80.6191 19.8982C80.8713 20.1744 81.0619 20.5011 81.1782 20.8566C81.2946 21.2121 81.3339 21.5883 81.2937 21.9602H80.1057C80.1296 21.7394 80.1063 21.5161 80.0372 21.305C79.9681 21.094 79.8549 20.9 79.705 20.7361C79.5552 20.5722 79.3722 20.4421 79.1681 20.3545C78.9641 20.2668 78.7437 20.2236 78.5217 20.2277C78.0504 20.2368 77.5988 20.418 77.252 20.7372C76.9051 21.0563 76.687 21.4913 76.6387 21.9602C76.6148 22.181 76.6381 22.4043 76.7072 22.6153C76.7763 22.8264 76.8895 23.0203 77.0394 23.1842C77.1892 23.3481 77.3723 23.4782 77.5763 23.5659C77.7803 23.6536 78.0007 23.6968 78.2227 23.6927L78.1237 24.8807Z" fill="#263238"/>
<path d="M78.2773 59.0179H24.6846C24.672 59.0183 24.6594 59.0159 24.6477 59.0109C24.636 59.006 24.6256 58.9985 24.6171 58.9891C24.6086 58.9796 24.6023 58.9685 24.5986 58.9563C24.5948 58.9442 24.5938 58.9314 24.5955 58.9189L27.2666 28.2962C27.269 28.2694 27.2813 28.2444 27.301 28.2262C27.3208 28.2079 27.3466 28.1976 27.3735 28.1972H80.9642C80.9769 28.1968 80.9896 28.1992 81.0013 28.2042C81.0131 28.2091 81.0236 28.2165 81.0323 28.2259C81.0409 28.2353 81.0474 28.2464 81.0514 28.2586C81.0554 28.2707 81.0567 28.2835 81.0552 28.2962L78.3842 58.9189C78.3818 58.9457 78.3695 58.9706 78.3498 58.9889C78.33 59.0072 78.3042 59.0175 78.2773 59.0179ZM24.8015 58.8199H78.1941L80.8493 28.3952H27.4566L24.8015 58.8199Z" fill="#E0E0E0"/>
<path d="M78.8043 52.8937H25.2195C25.207 52.8938 25.1945 52.8912 25.183 52.8861C25.1715 52.881 25.1612 52.8736 25.1528 52.8642C25.1443 52.8549 25.138 52.8438 25.1341 52.8319C25.1303 52.8199 25.129 52.8072 25.1304 52.7947C25.1324 52.7678 25.1446 52.7425 25.1644 52.7242C25.1843 52.7058 25.2103 52.6956 25.2374 52.6957H78.828C78.8408 52.6954 78.8535 52.6977 78.8652 52.7027C78.877 52.7076 78.8875 52.7151 78.8961 52.7245C78.9048 52.7338 78.9113 52.745 78.9153 52.7571C78.9192 52.7692 78.9205 52.782 78.9191 52.7947C78.9157 52.8225 78.902 52.8481 78.8808 52.8664C78.8596 52.8847 78.8323 52.8944 78.8043 52.8937Z" fill="#E0E0E0"/>
<path d="M79.3452 46.7696H25.7545C25.7419 46.7696 25.7293 46.767 25.7177 46.762C25.7061 46.7569 25.6957 46.7495 25.6871 46.7402C25.6786 46.7309 25.672 46.7199 25.668 46.7079C25.6639 46.6959 25.6623 46.6832 25.6634 46.6706C25.6663 46.6436 25.679 46.6187 25.6991 46.6004C25.7192 46.5822 25.7452 46.5719 25.7723 46.5716H79.363C79.3758 46.5712 79.3884 46.5736 79.4002 46.5786C79.4119 46.5835 79.4225 46.5909 79.4311 46.6003C79.4398 46.6097 79.4463 46.6208 79.4502 46.633C79.4542 46.6451 79.4555 46.6579 79.4541 46.6706C79.4508 46.6974 79.438 46.7221 79.418 46.7403C79.398 46.7584 79.3722 46.7688 79.3452 46.7696Z" fill="#E0E0E0"/>
<path d="M79.8796 40.6435H26.2889C26.2762 40.6438 26.2635 40.6414 26.2517 40.6365C26.24 40.6315 26.2294 40.6241 26.2208 40.6147C26.2122 40.6053 26.2056 40.5942 26.2017 40.5821C26.1977 40.57 26.1964 40.5571 26.1978 40.5445C26.2011 40.5177 26.2139 40.4929 26.2339 40.4748C26.2539 40.4566 26.2797 40.4462 26.3067 40.4455H79.8974C79.91 40.4454 79.9224 40.448 79.934 40.453C79.9455 40.4581 79.9558 40.4656 79.9642 40.4749C79.9726 40.4843 79.9789 40.4953 79.9828 40.5073C79.9866 40.5193 79.9879 40.5319 79.9865 40.5445C79.9845 40.5714 79.9724 40.5966 79.9525 40.615C79.9327 40.6334 79.9066 40.6435 79.8796 40.6435Z" fill="#E0E0E0"/>
<path d="M80.4138 34.5193H26.8231C26.8103 34.5197 26.7977 34.5173 26.7859 34.5123C26.7742 34.5074 26.7636 34.5 26.755 34.4906C26.7463 34.4812 26.7398 34.4701 26.7359 34.4579C26.7319 34.4458 26.7306 34.433 26.732 34.4203C26.7344 34.3935 26.7467 34.3686 26.7665 34.3503C26.7862 34.332 26.812 34.3217 26.8389 34.3213H80.4316C80.4443 34.3209 80.4569 34.3233 80.4685 34.3282C80.4802 34.3332 80.4907 34.3407 80.4991 34.3501C80.5076 34.3595 80.5139 34.3707 80.5177 34.3828C80.5214 34.395 80.5224 34.4078 80.5207 34.4203C80.5187 34.4473 80.5065 34.4725 80.4867 34.4909C80.4669 34.5092 80.4408 34.5194 80.4138 34.5193Z" fill="#E0E0E0"/>
<path d="M71.5772 59.0179C71.5645 59.0183 71.5519 59.0159 71.5403 59.0109C71.5286 59.006 71.5182 58.9985 71.5097 58.9891C71.5012 58.9796 71.4949 58.9685 71.4911 58.9563C71.4874 58.9442 71.4864 58.9314 71.4881 58.9189L74.1591 28.2962C74.1616 28.2694 74.1739 28.2444 74.1936 28.2262C74.2134 28.2079 74.2392 28.1976 74.2661 28.1972C74.2788 28.1968 74.2915 28.1992 74.3032 28.2042C74.315 28.2091 74.3255 28.2165 74.3342 28.2259C74.3428 28.2353 74.3493 28.2464 74.3533 28.2586C74.3573 28.2707 74.3586 28.2835 74.3571 28.2962L71.6861 58.9189C71.6832 58.9458 71.6705 58.9708 71.6505 58.989C71.6304 59.0073 71.6043 59.0175 71.5772 59.0179Z" fill="#E0E0E0"/>
<path d="M64.8787 59.0179C64.866 59.0182 64.8533 59.0158 64.8416 59.0109C64.8298 59.0059 64.8193 58.9985 64.8106 58.9891C64.802 58.9797 64.7955 58.9686 64.7915 58.9565C64.7876 58.9444 64.7862 58.9315 64.7877 58.9189L67.4587 28.2962C67.4616 28.2692 67.4743 28.2442 67.4943 28.226C67.5144 28.2078 67.5405 28.1975 67.5676 28.1972C67.5803 28.1968 67.5929 28.1991 67.6045 28.2041C67.6162 28.2091 67.6267 28.2165 67.6351 28.226C67.6436 28.2354 67.65 28.2466 67.6537 28.2587C67.6574 28.2708 67.6584 28.2836 67.6567 28.2962L64.9857 58.9189C64.9837 58.9458 64.9715 58.971 64.9517 58.9894C64.9318 59.0078 64.9058 59.0179 64.8787 59.0179Z" fill="#E0E0E0"/>
<path d="M58.1805 59.0179C58.1678 59.0182 58.1551 59.0158 58.1433 59.0109C58.1316 59.0059 58.121 58.9985 58.1124 58.9891C58.1038 58.9797 58.0972 58.9686 58.0933 58.9565C58.0893 58.9444 58.088 58.9315 58.0894 58.9189L60.7604 28.2962C60.7633 28.2692 60.776 28.2442 60.7961 28.226C60.8162 28.2078 60.8422 28.1975 60.8693 28.1972C60.882 28.1968 60.8946 28.1991 60.9063 28.2041C60.918 28.2091 60.9284 28.2165 60.9369 28.226C60.9454 28.2354 60.9517 28.2466 60.9554 28.2587C60.9591 28.2708 60.9602 28.2836 60.9584 28.2962L58.2874 58.9189C58.285 58.9457 58.2727 58.9706 58.253 58.9889C58.2332 59.0071 58.2074 59.0175 58.1805 59.0179Z" fill="#E0E0E0"/>
<path d="M51.4803 59.0179C51.4676 59.0182 51.4549 59.0158 51.4431 59.0109C51.4314 59.0059 51.4208 58.9985 51.4122 58.9891C51.4036 58.9797 51.397 58.9686 51.3931 58.9565C51.3891 58.9444 51.3878 58.9315 51.3892 58.9189L54.0543 28.2962C54.0567 28.2694 54.069 28.2444 54.0888 28.2262C54.1085 28.2079 54.1343 28.1976 54.1612 28.1972C54.174 28.1968 54.1867 28.1992 54.1984 28.2042C54.2102 28.2091 54.2207 28.2165 54.2293 28.2259C54.238 28.2353 54.2445 28.2464 54.2485 28.2586C54.2524 28.2707 54.2537 28.2835 54.2523 28.2962L51.5892 58.9189C51.5867 58.946 51.5742 58.9712 51.554 58.9895C51.5339 59.0079 51.5076 59.018 51.4803 59.0179Z" fill="#E0E0E0"/>
<path d="M44.7823 59.0179C44.7696 59.0183 44.757 59.0159 44.7453 59.0109C44.7337 59.006 44.7232 58.9985 44.7147 58.9891C44.7063 58.9796 44.6999 58.9685 44.6962 58.9563C44.6925 58.9442 44.6915 58.9314 44.6932 58.9189L47.3642 28.2962C47.3662 28.2692 47.3784 28.244 47.3982 28.2256C47.418 28.2073 47.4441 28.1971 47.4711 28.1972C47.4839 28.1968 47.4966 28.1992 47.5083 28.2042C47.5201 28.2091 47.5306 28.2165 47.5393 28.2259C47.5479 28.2353 47.5544 28.2464 47.5584 28.2586C47.5623 28.2707 47.5636 28.2835 47.5622 28.2962L44.8912 58.9189C44.8883 58.9458 44.8756 58.9708 44.8555 58.989C44.8355 59.0073 44.8094 59.0175 44.7823 59.0179Z" fill="#E0E0E0"/>
<path d="M38.0838 59.0179C38.0711 59.0182 38.0584 59.0158 38.0466 59.0109C38.0349 59.0059 38.0243 58.9985 38.0157 58.9891C38.0071 58.9797 38.0006 58.9686 37.9966 58.9565C37.9926 58.9444 37.9913 58.9315 37.9927 58.9189L40.6638 28.2962C40.6667 28.2692 40.6794 28.2442 40.6994 28.226C40.7195 28.2078 40.7455 28.1975 40.7727 28.1972C40.7853 28.1968 40.798 28.1991 40.8096 28.2041C40.8213 28.2091 40.8317 28.2165 40.8402 28.226C40.8487 28.2354 40.855 28.2466 40.8587 28.2587C40.8625 28.2708 40.8635 28.2836 40.8618 28.2962L38.1907 58.9189C38.1887 58.9458 38.1766 58.971 38.1568 58.9894C38.1369 59.0078 38.1109 59.0179 38.0838 59.0179Z" fill="#E0E0E0"/>
<path d="M31.3856 59.0179C31.3728 59.0182 31.3602 59.0158 31.3484 59.0109C31.3367 59.0059 31.3261 58.9985 31.3175 58.9891C31.3088 58.9797 31.3023 58.9686 31.2984 58.9565C31.2944 58.9444 31.2931 58.9315 31.2945 58.9189L33.9655 28.2962C33.9684 28.2692 33.9811 28.2442 34.0012 28.226C34.0212 28.2078 34.0473 28.1975 34.0744 28.1972C34.0871 28.1968 34.0997 28.1991 34.1114 28.2041C34.1231 28.2091 34.1335 28.2165 34.142 28.226C34.1505 28.2354 34.1568 28.2466 34.1605 28.2587C34.1642 28.2708 34.1653 28.2836 34.1635 28.2962L31.4925 58.9189C31.4901 58.9457 31.4778 58.9706 31.458 58.9889C31.4383 59.0071 31.4125 59.0175 31.3856 59.0179Z" fill="#E0E0E0"/>
<path d="M58.5435 39.9326H54.4508C54.3698 39.934 54.2894 39.9181 54.215 39.8859C54.1406 39.8537 54.074 39.8061 54.0195 39.7461C53.9649 39.6862 53.9238 39.6153 53.8988 39.5382C53.8739 39.4611 53.8656 39.3796 53.8746 39.299L54.1914 35.6657C54.2084 35.4943 54.2877 35.335 54.4144 35.2182C54.5411 35.1014 54.7062 35.0352 54.8785 35.0321H58.9712C59.0523 35.0305 59.1329 35.0462 59.2076 35.0783C59.2822 35.1103 59.3491 35.1579 59.4038 35.2179C59.4586 35.2779 59.4999 35.3489 59.525 35.4261C59.55 35.5033 59.5584 35.585 59.5493 35.6657L59.2325 39.299C59.2155 39.4708 59.1359 39.6304 59.0088 39.7472C58.8817 39.8641 58.7161 39.9301 58.5435 39.9326Z" fill="#407BFF"/>
<path opacity="0.6" d="M58.5435 39.9326H54.4508C54.3698 39.934 54.2894 39.9181 54.215 39.8859C54.1406 39.8537 54.074 39.8061 54.0195 39.7461C53.9649 39.6862 53.9238 39.6153 53.8988 39.5382C53.8739 39.4611 53.8656 39.3796 53.8746 39.299L54.1914 35.6657C54.2084 35.4943 54.2877 35.335 54.4144 35.2182C54.5411 35.1014 54.7062 35.0352 54.8785 35.0321H58.9712C59.0523 35.0305 59.1329 35.0462 59.2076 35.0783C59.2822 35.1103 59.3491 35.1579 59.4038 35.2179C59.4586 35.2779 59.4999 35.3489 59.525 35.4261C59.55 35.5033 59.5584 35.585 59.5493 35.6657L59.2325 39.299C59.2155 39.4708 59.1359 39.6304 59.0088 39.7472C58.8817 39.8641 58.7161 39.9301 58.5435 39.9326Z" fill="white"/>
<path d="M87.0984 39.9326H82.7959L83.2216 35.0321H87.5261L85.9085 37.4834L87.0984 39.9326Z" fill="white"/>
<path d="M87.2593 40.0316H82.6875L83.133 34.9331H87.7147L86.0337 37.4834L87.2593 40.0316ZM82.9033 39.8336H86.9366L85.7941 37.4834L87.3464 35.1311H83.3132L82.9033 39.8336Z" fill="#407BFF"/>
<path d="M71.3675 46.0568H67.2748C67.1938 46.0584 67.1134 46.0427 67.039 46.0108C66.9645 45.9789 66.8977 45.9314 66.843 45.8717C66.7883 45.8119 66.7469 45.7412 66.7217 45.6642C66.6965 45.5872 66.6879 45.5057 66.6967 45.4252L67.0135 41.7899C67.0314 41.6186 67.1113 41.4598 67.2383 41.3434C67.3652 41.2271 67.5303 41.1612 67.7025 41.1583H71.7952C71.8761 41.157 71.9564 41.1729 72.0307 41.2049C72.105 41.2369 72.1717 41.2844 72.2263 41.344C72.2809 41.4037 72.3223 41.4743 72.3477 41.5512C72.373 41.628 72.3818 41.7094 72.3733 41.7899L72.0565 45.4252C72.0387 45.5964 71.9587 45.7552 71.8318 45.8716C71.7048 45.988 71.5397 46.0538 71.3675 46.0568Z" fill="#407BFF"/>
<path opacity="0.4" d="M71.3675 46.0568H67.2748C67.1938 46.0584 67.1134 46.0427 67.039 46.0108C66.9645 45.9789 66.8977 45.9314 66.843 45.8717C66.7883 45.8119 66.7469 45.7412 66.7217 45.6642C66.6965 45.5872 66.6879 45.5057 66.6967 45.4252L67.0135 41.7899C67.0314 41.6186 67.1113 41.4598 67.2383 41.3434C67.3652 41.2271 67.5303 41.1612 67.7025 41.1583H71.7952C71.8761 41.157 71.9564 41.1729 72.0307 41.2049C72.105 41.2369 72.1717 41.2844 72.2263 41.344C72.2809 41.4037 72.3223 41.4743 72.3477 41.5512C72.373 41.628 72.3818 41.7094 72.3733 41.7899L72.0565 45.4252C72.0387 45.5964 71.9587 45.7552 71.8318 45.8716C71.7048 45.988 71.5397 46.0538 71.3675 46.0568Z" fill="white"/>
<path d="M79.2106 33.8085H68.3444C68.2632 33.8101 68.1826 33.7944 68.108 33.7624C68.0334 33.7303 67.9664 33.6827 67.9117 33.6227C67.857 33.5628 67.8157 33.4918 67.7906 33.4145C67.7655 33.3373 67.7572 33.2556 67.7662 33.1749L68.083 29.5416C68.1 29.3701 68.1793 29.2109 68.306 29.0941C68.4327 28.9773 68.5978 28.911 68.7701 28.908H79.6383C79.7194 28.9067 79.7999 28.9226 79.8743 28.9548C79.9488 28.9869 80.0156 29.0345 80.0703 29.0944C80.1249 29.1544 80.1662 29.2252 80.1915 29.3023C80.2167 29.3794 80.2252 29.461 80.2165 29.5416L79.8997 33.1749C79.8827 33.3467 79.803 33.5062 79.676 33.6231C79.5489 33.7399 79.3833 33.8059 79.2106 33.8085Z" fill="#407BFF"/>
<path d="M35.8621 39.105C34.2107 39.105 32.8346 38.5209 31.8585 37.4022C30.6052 35.9627 30.4171 34.1768 31.3655 32.7393C32.7733 30.6108 36.4422 29.4763 38.8558 29.7911C38.8684 29.7927 38.8806 29.7969 38.8915 29.8035C38.9024 29.8101 38.9118 29.8189 38.919 29.8294C38.9263 29.8398 38.9313 29.8517 38.9337 29.8642C38.9361 29.8767 38.9359 29.8896 38.933 29.902C38.9269 29.9281 38.9115 29.9512 38.8896 29.9669C38.8678 29.9825 38.841 29.9897 38.8142 29.9871C36.46 29.6802 32.8921 30.7791 31.5298 32.8383C30.4567 34.4619 31.0764 36.1885 32.0149 37.2656C33.3237 38.7664 35.1077 38.9783 36.3709 38.8892C38.7845 38.7209 41.4278 37.3408 42.9505 35.4559C43.3762 34.9292 44.0296 33.9174 43.6296 33.0799C43.0356 31.8265 41.0556 31.9136 39.4043 32.1275C39.3918 32.1291 39.3792 32.1282 39.3671 32.1247C39.3551 32.1213 39.3439 32.1154 39.3342 32.1074C39.3245 32.0994 39.3166 32.0895 39.311 32.0783C39.3053 32.0671 39.302 32.0549 39.3013 32.0423C39.3006 32.0154 39.3099 31.9891 39.3275 31.9686C39.3451 31.9481 39.3696 31.9349 39.3964 31.9315C40.5012 31.7869 43.0871 31.4523 43.8098 32.9848C44.2573 33.9273 43.5563 35.0163 43.1009 35.5826C41.5427 37.5111 38.836 38.9248 36.3689 39.0951C36.1987 39.0991 36.0363 39.105 35.8621 39.105Z" fill="#407BFF"/>
<path d="M68.9045 44.9658H68.8887C68.8577 44.9637 68.8278 44.9534 68.8021 44.936C68.7764 44.9186 68.7557 44.8948 68.7422 44.8668C68.5382 44.3999 68.2578 43.9703 67.9125 43.5956C67.8737 43.557 67.8517 43.5046 67.8516 43.4498C67.8514 43.3951 67.873 43.3425 67.9116 43.3036C67.9502 43.2647 68.0026 43.2428 68.0574 43.2426C68.1121 43.2424 68.1647 43.264 68.2036 43.3026C68.5211 43.6345 68.7838 44.0148 68.9817 44.4292C69.6621 43.7305 70.3992 43.0895 71.1855 42.5126C71.2264 42.4808 71.2781 42.4664 71.3296 42.4723C71.381 42.4782 71.4281 42.504 71.4607 42.5443C71.4758 42.5661 71.4864 42.5907 71.4918 42.6167C71.4972 42.6427 71.4973 42.6696 71.4922 42.6956C71.487 42.7217 71.4766 42.7464 71.4617 42.7684C71.4468 42.7903 71.4276 42.8091 71.4053 42.8234C70.5617 43.4402 69.7776 44.1342 69.0629 44.8965C69.0427 44.9184 69.0182 44.9358 68.991 44.9477C68.9637 44.9596 68.9343 44.9658 68.9045 44.9658Z" fill="white"/>
<path d="M61.6125 58.0793C61.3278 58.0841 61.0454 58.0282 60.7839 57.9155C60.5225 57.8027 60.288 57.6357 60.0961 57.4254C59.9042 57.2151 59.7592 56.9664 59.6707 56.6958C59.5822 56.4252 59.5523 56.1388 59.583 55.8558C59.6448 55.254 59.9249 54.6957 60.3703 54.2864C60.8158 53.8771 61.3957 53.6451 62.0005 53.6342C62.2851 53.6292 62.5675 53.6848 62.8289 53.7973C63.0904 53.9098 63.3248 54.0767 63.5168 54.2868C63.7088 54.497 63.8538 54.7455 63.9423 55.0161C64.0308 55.2866 64.0607 55.5728 64.03 55.8558C63.9682 56.4577 63.6882 57.0163 63.2428 57.4259C62.7974 57.8355 62.2175 58.068 61.6125 58.0793ZM61.9748 54.0302C61.479 54.0411 61.0043 54.2326 60.6397 54.5687C60.2751 54.9049 60.0458 55.3625 59.9948 55.8558C59.9695 56.0884 59.9939 56.3237 60.0666 56.5461C60.1392 56.7685 60.2583 56.9729 60.416 57.1458C60.5736 57.3186 60.7663 57.456 60.9811 57.5486C61.1959 57.6413 61.428 57.6872 61.662 57.6833C62.1579 57.672 62.6327 57.4801 62.9972 57.1436C63.3617 56.8071 63.591 56.3492 63.642 55.8558C63.6666 55.6234 63.6417 55.3884 63.5688 55.1664C63.496 54.9444 63.3768 54.7403 63.2192 54.5678C63.0617 54.3952 62.8692 54.2581 62.6547 54.1654C62.4402 54.0728 62.2084 54.0267 61.9748 54.0302Z" fill="#407BFF"/>
<path d="M42.5705 45.8073C42.2858 45.812 42.0034 45.7562 41.7419 45.6434C41.4805 45.5307 41.246 45.3636 41.0541 45.1533C40.8622 44.9431 40.7172 44.6944 40.6287 44.4238C40.5402 44.1531 40.5103 43.8668 40.541 43.5838C40.6029 42.9805 40.8841 42.4209 41.3311 42.011C41.7782 41.6012 42.3601 41.3696 42.9665 41.3602C43.2511 41.3555 43.5335 41.4113 43.795 41.5241C44.0564 41.6368 44.2909 41.8039 44.4828 42.0142C44.6747 42.2244 44.8198 42.4732 44.9082 42.7438C44.9967 43.0144 45.0266 43.3007 44.996 43.5838C44.9336 44.1869 44.6523 44.7462 44.2053 45.156C43.7584 45.5657 43.1767 45.7974 42.5705 45.8073ZM42.9229 41.7562C42.4268 41.7672 41.9518 41.9589 41.5872 42.2955C41.2226 42.632 40.9935 43.0901 40.9429 43.5838C40.9176 43.8163 40.9421 44.0517 41.0147 44.2741C41.0873 44.4965 41.2064 44.7009 41.3641 44.8738C41.5217 45.0466 41.7144 45.1839 41.9292 45.2766C42.144 45.3693 42.3761 45.4152 42.6101 45.4113C43.106 45.3999 43.5808 45.208 43.9453 44.8716C44.3098 44.5351 44.5391 44.0772 44.5901 43.5838C44.615 43.3516 44.5904 43.1167 44.5179 42.8947C44.4454 42.6727 44.3266 42.4687 44.1695 42.2959C44.0123 42.1232 43.8203 41.9858 43.6061 41.8928C43.3919 41.7997 43.1604 41.7532 42.9269 41.7562H42.9229Z" fill="#407BFF"/>
<path opacity="0.1" d="M46.439 51.1315H25.8668C25.6769 51.1343 25.4885 51.0967 25.3141 51.0212C25.1398 50.9458 24.9834 50.8342 24.8554 50.6938C24.7274 50.5535 24.6307 50.3875 24.5715 50.207C24.5124 50.0264 24.4923 49.8354 24.5125 49.6465C24.5544 49.2449 24.7415 48.8724 25.0386 48.5989C25.3357 48.3255 25.7225 48.17 26.1262 48.1615H46.6984C46.8883 48.1588 47.0767 48.1964 47.2511 48.2718C47.4254 48.3473 47.5817 48.4589 47.7098 48.5992C47.8378 48.7396 47.9345 48.9055 47.9937 49.0861C48.0528 49.2666 48.0729 49.4576 48.0527 49.6465C48.0108 50.0481 47.8237 50.4207 47.5266 50.6941C47.2295 50.9675 46.8427 51.1231 46.439 51.1315Z" fill="black"/>
<path d="M19.0859 46.4132L19.8581 46.7438L18.8225 48.013C18.6416 47.6978 18.5006 47.3612 18.4028 47.0111C18.3882 46.9599 18.3841 46.9063 18.3908 46.8534C18.3974 46.8006 18.4147 46.7496 18.4415 46.7036C18.4683 46.6575 18.5041 46.6174 18.5468 46.5855C18.5895 46.5537 18.6381 46.5307 18.6899 46.5181L19.0859 46.4132Z" fill="#FF8B7B"/>
<path d="M20.2122 48.114L19.7489 48.6288C19.7139 48.6679 19.6705 48.6984 19.6218 48.7182C19.5732 48.7379 19.5208 48.7463 19.4684 48.7426C19.4161 48.739 19.3653 48.7235 19.3199 48.6972C19.2745 48.671 19.2357 48.6347 19.2064 48.5912L18.8223 48.0209L19.8578 46.7518L20.2756 47.7418C20.3027 47.8032 20.3111 47.8712 20.2998 47.9374C20.2886 48.0036 20.2581 48.065 20.2122 48.114Z" fill="#FF8B7B"/>
<path d="M47.4492 50.6325L20.6697 48.51C20.4805 48.4975 20.2961 48.4451 20.1286 48.3562C19.9611 48.2674 19.8143 48.1441 19.6978 47.9945C19.5813 47.845 19.4977 47.6724 19.4526 47.4883C19.4075 47.3041 19.4019 47.1125 19.4361 46.926C19.5097 46.5289 19.7258 46.1724 20.0437 45.9234C20.3616 45.6744 20.7595 45.55 21.1627 45.5736L47.9422 47.6942C48.1315 47.7064 48.316 47.7586 48.4837 47.8474C48.6514 47.9361 48.7983 48.0594 48.9149 48.2091C49.0314 48.3587 49.1149 48.5314 49.1599 48.7157C49.2048 48.9 49.2102 49.0917 49.1757 49.2782C49.1021 49.6755 48.8862 50.0322 48.5683 50.2816C48.2504 50.5309 47.8525 50.6557 47.4492 50.6325Z" fill="#407BFF"/>
<path d="M28.5539 38.1368C28.8885 38.8912 29.2311 39.6653 29.5776 40.4177C29.9241 41.1701 30.2825 41.9344 30.6666 42.5957C30.748 42.7337 30.8387 42.866 30.9378 42.9917C31.0566 43.1323 31.1893 43.2769 31.3239 43.4254C31.5992 43.7204 31.8942 44.0194 32.1892 44.3124C32.7832 44.9064 33.3772 45.5004 33.9712 46.1201L33.3772 46.8943C32.6268 46.4618 31.8998 45.9899 31.1992 45.4806C30.8468 45.2252 30.5022 44.9599 30.1577 44.6708C29.9855 44.5262 29.8152 44.3718 29.6409 44.2035C29.459 44.0133 29.2928 43.8087 29.144 43.5917C28.6481 42.849 28.203 42.0737 27.8114 41.2711C27.4253 40.489 27.0709 39.7109 26.7402 38.8951L28.5539 38.1368Z" fill="#FF8B7B"/>
<path d="M22.0062 38.016C21.5567 38.7506 21.0954 39.4891 20.6341 40.2197L19.258 42.4136L19.0897 42.6868L19.0699 42.7225V42.7383V42.7502C19.06 42.7653 19.0514 42.7812 19.0441 42.7977C18.9981 42.9306 18.9701 43.0692 18.961 43.2095C18.9384 43.5926 18.9496 43.9769 18.9946 44.3579C19.0798 45.1658 19.2401 46.0192 19.4104 46.8448L18.4917 47.1854C18.0724 46.3727 17.7405 45.5179 17.5017 44.6351C17.3715 44.1613 17.2938 43.6746 17.27 43.1838C17.2562 42.887 17.2842 42.5897 17.3532 42.3007C17.3809 42.2136 17.4027 42.1344 17.4403 42.0413L17.5017 41.9067L17.5274 41.8532L17.5453 41.8176L17.6977 41.5186C18.0937 40.7266 18.5313 39.9584 18.9728 39.1981C19.4144 38.4377 19.8737 37.6913 20.3588 36.9508L22.0062 38.016Z" fill="#FF8B7B"/>
<path d="M27.2446 32.5334C27.209 32.6304 27.2308 32.7314 27.2941 32.7591C27.3575 32.7868 27.4387 32.7274 27.4763 32.6284C27.5139 32.5294 27.4902 32.4304 27.4268 32.4027C27.3634 32.375 27.2823 32.4344 27.2446 32.5334Z" fill="#263238"/>
<path d="M27.2215 32.7294C27.2258 33.0797 27.2764 33.4279 27.372 33.7649C27.2865 33.7853 27.1976 33.7864 27.1117 33.7683C27.0258 33.7501 26.9449 33.7131 26.875 33.66L27.2215 32.7294Z" fill="#FF5652"/>
<path d="M27.6075 31.9552C27.5947 31.9529 27.583 31.9466 27.5738 31.9374C27.5145 31.8887 27.4443 31.8549 27.3693 31.8387C27.2942 31.8225 27.2164 31.8244 27.1422 31.8443C27.1343 31.8464 27.126 31.8469 27.1179 31.8457C27.1098 31.8445 27.102 31.8417 27.095 31.8374C27.0879 31.8332 27.0819 31.8276 27.077 31.821C27.0722 31.8143 27.0688 31.8068 27.0669 31.7988C27.0634 31.7831 27.0662 31.7665 27.0747 31.7528C27.0832 31.7391 27.0968 31.7293 27.1125 31.7255C27.2067 31.7003 27.3057 31.6984 27.4008 31.7197C27.496 31.7411 27.5846 31.7852 27.659 31.8483C27.6647 31.854 27.6693 31.8608 27.6724 31.8683C27.6755 31.8757 27.6771 31.8838 27.6771 31.8919C27.6771 31.9 27.6755 31.908 27.6724 31.9154C27.6693 31.9229 27.6647 31.9297 27.659 31.9354C27.6525 31.9425 27.6445 31.948 27.6356 31.9514C27.6266 31.9549 27.617 31.9562 27.6075 31.9552Z" fill="#263238"/>
<path d="M23.6358 32.7274C23.511 33.7927 23.715 35.1351 22.9863 35.6697C22.9863 35.6697 23.1388 36.6597 24.8911 36.931C26.8176 37.2161 25.9167 36.1053 25.9167 36.1053C24.8931 35.6954 25.0059 34.9173 25.2693 34.2065L23.6358 32.7274Z" fill="#FF8B7B"/>
<path d="M22.3738 36.3389C22.348 35.8479 22.3738 35.1074 22.6787 35.0005C23.0113 34.8836 24.9775 35.0401 25.9635 35.933C25.7378 36.3783 25.6224 36.8713 25.6269 37.3705L22.3738 36.3389Z" fill="#263238"/>
<path d="M16.349 80.5009C16.1707 80.4861 15.9971 80.4363 15.8382 80.3543C15.8326 80.3517 15.828 80.3474 15.8248 80.3421C15.8217 80.3369 15.8201 80.3308 15.8203 80.3246C15.8208 80.3189 15.8229 80.3134 15.8264 80.3088C15.8299 80.3043 15.8347 80.3008 15.8401 80.2989C15.858 80.2989 16.254 80.1405 16.4341 80.2256C16.4535 80.235 16.4708 80.2482 16.4848 80.2646C16.4987 80.281 16.5092 80.3001 16.5153 80.3207C16.5264 80.3448 16.5295 80.3718 16.5241 80.3978C16.5188 80.4238 16.5053 80.4474 16.4856 80.4652C16.446 80.4935 16.3974 80.5062 16.349 80.5009ZM15.9312 80.3306C16.1134 80.4118 16.3728 80.4751 16.4421 80.4177C16.4421 80.4177 16.4698 80.3959 16.4421 80.3385C16.4382 80.326 16.4318 80.3145 16.4233 80.3046C16.4148 80.2948 16.4043 80.2867 16.3926 80.2811C16.2372 80.2536 16.0772 80.2708 15.9312 80.3306Z" fill="#407BFF"/>
<path d="M15.8523 80.3583C15.844 80.358 15.8362 80.3544 15.8305 80.3484C15.8277 80.3439 15.8262 80.3388 15.8262 80.3335C15.8262 80.3283 15.8277 80.3231 15.8305 80.3187C15.8305 80.3028 15.9414 79.9425 16.1156 79.8573C16.137 79.8475 16.1603 79.8425 16.1839 79.8425C16.2075 79.8425 16.2308 79.8475 16.2522 79.8573C16.2754 79.8629 16.2959 79.8765 16.31 79.8957C16.3242 79.9149 16.331 79.9385 16.3294 79.9623C16.3294 80.1108 16.0107 80.3246 15.8681 80.3583H15.8523ZM16.1849 79.9009C16.1671 79.9011 16.1495 79.9051 16.1334 79.9128C16.0209 80.0078 15.9401 80.1349 15.9018 80.2771C16.0503 80.2098 16.2542 80.0415 16.2601 79.9524C16.2601 79.9524 16.2601 79.9227 16.2225 79.9088C16.2107 79.9035 16.1979 79.9008 16.1849 79.9009Z" fill="#407BFF"/>
<path d="M26.3027 81.077C26.1699 81.0765 26.0373 81.0639 25.9067 81.0394C25.9011 81.0373 25.8963 81.0335 25.8929 81.0285C25.8895 81.0236 25.8877 81.0177 25.8877 81.0117C25.8877 81.0057 25.8895 80.9998 25.8929 80.9949C25.8963 80.9899 25.9011 80.9861 25.9067 80.984C25.9721 80.9444 26.5502 80.6137 26.6888 80.8434C26.7029 80.8634 26.7104 80.8873 26.7104 80.9117C26.7104 80.9362 26.7029 80.96 26.6888 80.98C26.6294 81.0533 26.4691 81.077 26.3027 81.077ZM25.9998 80.9939C26.2453 81.0295 26.576 81.0236 26.6314 80.9444C26.6314 80.9444 26.6492 80.9186 26.6314 80.8751C26.5443 80.7444 26.1919 80.8929 25.9998 80.9939Z" fill="#407BFF"/>
<path d="M25.9068 81.0414C25.9017 81.0434 25.896 81.0434 25.8909 81.0414C25.8863 81.0385 25.8825 81.0344 25.8801 81.0295C25.8776 81.0246 25.8766 81.0191 25.8771 81.0137C25.8822 80.8308 25.946 80.6545 26.0592 80.5108C26.0827 80.491 26.1098 80.4761 26.139 80.467C26.1682 80.4578 26.199 80.4545 26.2295 80.4573C26.3166 80.4672 26.3424 80.5107 26.3483 80.5464C26.3721 80.6969 26.077 80.9721 25.9206 81.0434L25.9068 81.0414ZM26.2057 80.5127C26.1665 80.5129 26.1287 80.5269 26.0988 80.5523C26.0075 80.6651 25.9535 80.8035 25.9444 80.9483C26.1008 80.8513 26.3028 80.6335 26.2869 80.5424C26.2869 80.5424 26.2869 80.5108 26.2236 80.5048L26.2057 80.5127Z" fill="#407BFF"/>
<path d="M24.4746 81.0097H25.7774L25.7913 77.9902H24.4865L24.4746 81.0097Z" fill="#FF8B7B"/>
<path d="M14.377 80.0752L15.5986 80.3583L16.6243 77.3725L15.4026 77.0893L14.377 80.0752Z" fill="#FF8B7B"/>
<path d="M15.7888 80.1563L14.3691 79.794C14.3444 79.787 14.318 79.7892 14.2947 79.8001C14.2714 79.811 14.2528 79.8299 14.2424 79.8534L13.7533 80.9246C13.7415 80.9513 13.7357 80.9802 13.7364 81.0094C13.7371 81.0386 13.7442 81.0673 13.7572 81.0934C13.7703 81.1195 13.789 81.1424 13.8119 81.1605C13.8348 81.1785 13.8615 81.1913 13.89 81.1978C14.3889 81.3146 14.6364 81.3463 15.2601 81.5027C15.6442 81.5998 16.4283 81.8393 16.959 81.972C17.4896 82.1047 17.6698 81.5918 17.4619 81.4909C16.5333 81.0295 16.2303 80.6414 15.9769 80.2791C15.9305 80.2174 15.8639 80.1739 15.7888 80.1563Z" fill="#263238"/>
<path d="M25.7639 80.8592H24.3402C24.3146 80.8592 24.2897 80.868 24.2699 80.8843C24.25 80.9005 24.2364 80.9232 24.2313 80.9483L24.0195 82.1066C24.0145 82.1353 24.016 82.1647 24.0237 82.1928C24.0314 82.2208 24.0452 82.2468 24.0641 82.2689C24.083 82.2911 24.1065 82.3087 24.1331 82.3207C24.1596 82.3327 24.1884 82.3387 24.2175 82.3383C24.7303 82.3383 25.4708 82.3007 26.1163 82.3007C26.8727 82.3007 26.8865 82.3403 27.7716 82.3403C28.3062 82.3403 28.4349 81.7997 28.2092 81.7463C27.1796 81.5245 26.9855 81.5007 26.0826 80.9543C25.9871 80.894 25.8768 80.8612 25.7639 80.8592Z" fill="#263238"/>
<path d="M21.4595 35.5806C20.22 35.6796 18.4717 38.7882 18.4717 38.7882L20.717 40.8217C21.4162 40.0389 22.0525 39.202 22.6198 38.3189C23.5009 36.9072 22.7267 35.4796 21.4595 35.5806Z" fill="#407BFF"/>
<path opacity="0.6" d="M21.4595 35.5806C20.22 35.6796 18.4717 38.7882 18.4717 38.7882L20.717 40.8217C21.4162 40.0389 22.0525 39.202 22.6198 38.3189C23.5009 36.9072 22.7267 35.4796 21.4595 35.5806Z" fill="white"/>
<path opacity="0.2" d="M22.0934 37.818L20.6104 40.7207L20.7153 40.8177C20.7153 40.8177 21.2895 40.19 21.929 39.3248L22.0934 37.818Z" fill="black"/>
<path d="M27.6704 42.5502C27.4466 43.9877 27.0922 45.7657 26.5477 47.9556L19.6514 46.926C19.7147 45.936 20.7701 41.5226 20.5622 36.7844C20.5548 36.6266 20.58 36.469 20.6361 36.3214C20.6922 36.1737 20.778 36.0392 20.8883 35.9261C20.9986 35.813 21.131 35.7238 21.2772 35.664C21.4234 35.6043 21.5804 35.5752 21.7383 35.5786C22.0788 35.5786 22.4531 35.6043 22.8213 35.64C23.8062 35.7298 24.7853 35.8752 25.7537 36.0756C26.4178 36.2436 27.0678 36.4628 27.6981 36.731C27.6981 36.731 28.1931 37.4576 27.9258 40.4811C27.8723 41.081 27.7911 41.7641 27.6704 42.5502Z" fill="#407BFF"/>
<path opacity="0.6" d="M27.6704 42.5502C27.4466 43.9877 27.0922 45.7657 26.5477 47.9556L19.6514 46.926C19.7147 45.936 20.7701 41.5226 20.5622 36.7844C20.5548 36.6266 20.58 36.469 20.6361 36.3214C20.6922 36.1737 20.778 36.0392 20.8883 35.9261C20.9986 35.813 21.131 35.7238 21.2772 35.664C21.4234 35.6043 21.5804 35.5752 21.7383 35.5786C22.0788 35.5786 22.4531 35.6043 22.8213 35.64C23.8062 35.7298 24.7853 35.8752 25.7537 36.0756C26.4178 36.2436 27.0678 36.4628 27.6981 36.731C27.6981 36.731 28.1931 37.4576 27.9258 40.4811C27.8723 41.081 27.7911 41.7641 27.6704 42.5502Z" fill="white"/>
<path opacity="0.2" d="M27.6709 42.5502C27.1106 42.1958 26.5859 40.5702 26.8215 39.7129L27.9263 40.4851C27.8729 41.081 27.7917 41.7641 27.6709 42.5502Z" fill="black"/>
<path d="M26.1208 37.62C25.7644 38.808 27.9226 42.3066 27.9226 42.3066L30.4966 40.9602C30.118 39.8637 29.6102 38.8162 28.9839 37.8398C27.9523 36.3211 26.5326 36.2775 26.1208 37.62Z" fill="#407BFF"/>
<path opacity="0.6" d="M26.1208 37.62C25.7644 38.808 27.9226 42.3066 27.9226 42.3066L30.4966 40.9602C30.118 39.8637 29.6102 38.8162 28.9839 37.8398C27.9523 36.3211 26.5326 36.2775 26.1208 37.62Z" fill="white"/>
<path opacity="0.2" d="M25.7902 77.9922L25.7843 79.5485H24.4814L24.4874 77.9922H25.7902Z" fill="black"/>
<path opacity="0.2" d="M15.4027 77.0913L16.6243 77.3725L16.0937 78.9129L14.874 78.6298L15.4027 77.0913Z" fill="black"/>
<path d="M24.0867 30.9751C23.7085 32.2166 23.4253 32.9215 23.7976 33.7927C23.9131 34.0779 24.1047 34.3259 24.3515 34.5097C24.5983 34.6935 24.8909 34.8061 25.1972 34.8351C25.5036 34.8641 25.812 34.8084 26.0889 34.6742C26.3658 34.54 26.6006 34.3323 26.7676 34.0738C27.4289 33.0838 27.9358 31.2266 26.9478 30.2584C26.7404 30.0424 26.4797 29.885 26.192 29.8022C25.9042 29.7194 25.5997 29.7141 25.3093 29.7868C25.0189 29.8596 24.7528 30.0078 24.5381 30.2165C24.3234 30.4252 24.1677 30.6869 24.0867 30.9751Z" fill="#FF8B7B"/>
<path d="M26.0812 32.3393C25.9327 32.9749 25.5466 34.1213 24.5962 34.254C24.0656 34.3273 23.1825 34.1708 23.1013 33.7432C23.0201 33.3155 23.3488 33.3729 23.2656 33.0224C23.1825 32.672 22.7489 31.4384 23.2419 30.5752C22.5568 30.6326 23.0261 29.6168 24.2556 29.3872C23.8755 29.2387 24.0576 28.1992 25.9545 28.6942C26.8415 28.9219 27.5009 29.2703 27.5801 29.7475C28.3879 30.0881 28.6017 30.9454 28.1008 31.2583C27.5999 31.5711 26.8752 31.2187 26.8752 31.2187C26.8752 31.2187 27.2177 33.0323 26.0812 32.3393Z" fill="#263238"/>
<path d="M25.5637 32.2423C25.5463 32.5274 25.6336 32.809 25.8092 33.0343C26.0448 33.3353 26.124 33.3373 26.2211 33.0026C26.3102 32.7017 26.526 32.0285 26.2112 31.8503C25.8963 31.6721 25.5914 31.8958 25.5637 32.2423Z" fill="#FF8B7B"/>
<path d="M24.1026 47.5913C24.1026 47.5913 23.0315 57.816 22.3741 61.5463C21.6415 65.633 16.7747 78.7723 16.7747 78.7723L14.4541 78.1981C15.6421 73.6441 17.4023 65.1638 18.4735 61.9166C19.2813 56.9804 18.4735 50.7751 19.6615 46.93L24.1026 47.5913Z" fill="#263238"/>
<path d="M17.3156 78.012L16.8879 78.8495L14.2822 78.1942L14.498 77.4022L17.3156 78.012Z" fill="#407BFF"/>
<path opacity="0.2" d="M23.4414 51.579C23.5152 51.5643 23.5913 51.5643 23.6651 51.579C23.3226 54.6322 22.8355 58.707 22.4514 61.0454C22.1306 57.6477 21.8336 51.8958 23.4414 51.579Z" fill="black"/>
<path d="M26.5478 47.9556C26.5478 47.9556 27.0884 58.8812 27.1676 62.8551C27.2488 66.9893 26.2588 79.2475 26.2588 79.2475H24.0491C24.0491 79.2475 23.2155 67.8803 23.665 62.3363C23.1323 58.113 22.0156 47.2883 22.0156 47.2883L26.5478 47.9556Z" fill="#263238"/>
<path d="M34.5217 45.9954C34.1624 45.9656 33.801 46.017 33.4644 46.1459L33.304 46.4112C33.2728 46.4637 33.2539 46.5226 33.2486 46.5834C33.2433 46.6443 33.2518 46.7055 33.2735 46.7626C33.2952 46.8197 33.3295 46.8712 33.3739 46.9132C33.4182 46.9552 33.4715 46.9866 33.5297 47.0052L34.3039 47.2527L34.6821 47.3675C34.7616 47.3921 34.847 47.3911 34.9259 47.3644C35.0048 47.3377 35.0733 47.2869 35.1216 47.219L35.284 46.9933C35.3423 46.9136 35.3687 46.815 35.3581 46.7169C35.3475 46.6187 35.3006 46.528 35.2266 46.4627L34.8781 46.1478C34.7788 46.06 34.6538 46.0065 34.5217 45.9954Z" fill="#FF8B7B"/>
<path d="M26.6494 78.3664L26.5603 79.2832H23.8735L23.7705 78.4654L26.6494 78.3664Z" fill="#407BFF"/>
</svg>
