<svg width="108" height="81" viewBox="0 0 108 81" fill="none" xmlns="http://www.w3.org/2000/svg">
<path d="M107.426 70.3428H0V70.3965H107.426V70.3428Z" fill="#EBEBEB"/>
<path d="M74.8395 72.7406H72.5879V72.7943H74.8395V72.7406Z" fill="#EBEBEB"/>
<path d="M22.598 71.6664H13.9502V71.7201H22.598V71.6664Z" fill="#EBEBEB"/>
<path d="M39.6041 71.8253H26.8955V71.879H39.6041V71.8253Z" fill="#EBEBEB"/>
<path d="M57.7957 71.8253H54.1367V71.879H57.7957V71.8253Z" fill="#EBEBEB"/>
<path d="M95.8335 72.1648H84.1025V72.2185H95.8335V72.1648Z" fill="#EBEBEB"/>
<path d="M49.1537 73.05H44.3066V73.1037H49.1537V73.05Z" fill="#EBEBEB"/>
<path d="M100.162 72.1927H97.0879V72.2465H100.162V72.1927Z" fill="#EBEBEB"/>
<path d="M50.9201 60.7604H9.43413C9.10914 60.7598 8.79764 60.6303 8.56804 60.4003C8.33843 60.1703 8.20947 59.8586 8.20947 59.5336V1.21607C8.2123 0.892934 8.34251 0.583966 8.57181 0.356273C8.80111 0.12858 9.11099 0.000553544 9.43413 0H50.9201C51.2455 0 51.5575 0.129253 51.7876 0.359324C52.0176 0.589396 52.1469 0.90144 52.1469 1.22681V59.5336C52.1469 59.859 52.0176 60.171 51.7876 60.4011C51.5575 60.6312 51.2455 60.7604 50.9201 60.7604ZM9.43413 0.0429708C9.12338 0.0435399 8.82555 0.167384 8.60602 0.387321C8.38648 0.607258 8.26319 0.905315 8.26319 1.21607V59.5336C8.26319 59.8443 8.38648 60.1424 8.60602 60.3623C8.82555 60.5823 9.12338 60.7061 9.43413 60.7067H50.9201C51.231 60.7061 51.5291 60.5823 51.749 60.3625C51.9688 60.1426 52.0926 59.8445 52.0932 59.5336V1.21607C52.0926 0.905117 51.9688 0.607065 51.749 0.38719C51.5291 0.167315 51.231 0.0435387 50.9201 0.0429708H9.43413Z" fill="#EBEBEB"/>
<path d="M97.3951 60.7604H55.907C55.5818 60.7598 55.2701 60.6304 55.0401 60.4005C54.8102 60.1705 54.6807 59.8588 54.6802 59.5336V1.21607C54.6836 0.892738 54.8142 0.583772 55.0439 0.356139C55.2735 0.128505 55.5836 0.000547508 55.907 0H97.3951C97.7179 0.0011182 98.0272 0.129395 98.256 0.357027C98.4849 0.584659 98.6148 0.893305 98.6176 1.21607V59.5336C98.6176 59.8582 98.4889 60.1696 98.2598 60.3996C98.0307 60.6295 97.7197 60.7593 97.3951 60.7604ZM55.907 0.0429708C55.596 0.0435387 55.298 0.167315 55.0781 0.38719C54.8582 0.607065 54.7345 0.905117 54.7339 1.21607V59.5336C54.7345 59.8445 54.8582 60.1426 55.0781 60.3625C55.298 60.5823 55.596 60.7061 55.907 60.7067H97.3951C97.706 60.7061 98.0041 60.5823 98.224 60.3625C98.4438 60.1426 98.5676 59.8445 98.5682 59.5336V1.21607C98.5676 0.905117 98.4438 0.607065 98.224 0.38719C98.0041 0.167315 97.706 0.0435387 97.3951 0.0429708H55.907Z" fill="#EBEBEB"/>
<path d="M15.6456 38.1214L44.9258 38.1214L44.9258 4.00272L15.6456 4.00272L15.6456 38.1214Z" fill="#F5F5F5"/>
<path d="M14.8483 38.1214L44.5518 38.1214L44.5518 4.00272L14.8483 4.00272L14.8483 38.1214Z" fill="#F5F5F5"/>
<path d="M15.6456 40.0314L44.9258 40.0314V38.1192H15.6456V40.0314Z" fill="#E6E6E6"/>
<path d="M11.2088 40.0314H39.1719V38.1192H11.2088V40.0314Z" fill="#F5F5F5"/>
<path d="M43.439 36.6732V5.44867L15.9636 5.44867L15.9636 36.6732H43.439Z" fill="#FAFAFA"/>
<path d="M39.4856 36.6732L32.9455 5.45081H24.375L30.913 36.6732H39.4856Z" fill="white"/>
<path d="M29.5253 36.6732L22.9874 5.45081H19.1157L25.6558 36.6732H29.5253Z" fill="white"/>
<path d="M16.103 33.4075V5.25531H15.9612L15.9612 33.4075H16.103Z" fill="white"/>
<path d="M45.7636 3.95329V16.1011H42.5408C42.5408 16.1011 36.7655 12.3347 35.4506 4.58496C35.4195 4.40039 35.4288 4.21125 35.4781 4.03068C35.5274 3.8501 35.6154 3.68242 35.736 3.5393C35.8567 3.39618 36.007 3.28104 36.1766 3.20189C36.3463 3.12275 36.5311 3.08149 36.7183 3.08099H44.8827C44.9979 3.08014 45.1121 3.10206 45.2188 3.14549C45.3255 3.18892 45.4226 3.253 45.5044 3.33406C45.5863 3.41512 45.6513 3.51155 45.6958 3.61782C45.7403 3.72408 45.7633 3.83809 45.7636 3.95329Z" fill="#E6E6E6"/>
<path d="M45.7634 35.5732V17.0808H42.5406C42.5406 17.0808 40.6929 20.815 38.8495 25.1077C38.3628 26.2509 38.1669 27.4968 38.2794 28.7342C38.3919 29.9716 38.8092 31.1618 39.4941 32.1984C40.179 33.2351 41.11 34.0859 42.2041 34.6748C43.2981 35.2637 44.521 35.5724 45.7634 35.5732Z" fill="#E6E6E6"/>
<path d="M42.6396 17.0808H45.6411C45.8191 17.0808 45.9634 16.9365 45.9634 16.7585V16.4234C45.9634 16.2454 45.8191 16.1011 45.6411 16.1011H42.6396C42.4616 16.1011 42.3173 16.2454 42.3173 16.4234V16.7585C42.3173 16.9365 42.4616 17.0808 42.6396 17.0808Z" fill="#F5F5F5"/>
<path d="M13.9375 3.95329V16.1011H17.1603C17.1603 16.1011 22.9355 12.3347 24.2504 4.58496C24.2816 4.40039 24.2723 4.21125 24.223 4.03068C24.1737 3.8501 24.0857 3.68242 23.965 3.5393C23.8444 3.39618 23.6941 3.28104 23.5244 3.20189C23.3548 3.12275 23.17 3.08149 22.9828 3.08099H14.8184C14.7032 3.08014 14.589 3.10206 14.4823 3.14549C14.3756 3.18892 14.2785 3.253 14.1967 3.33406C14.1148 3.41512 14.0498 3.51155 14.0053 3.61782C13.9608 3.72408 13.9378 3.83809 13.9375 3.95329Z" fill="#E6E6E6"/>
<path d="M13.9375 35.5732V17.0808H17.1603C17.1603 17.0808 19.008 20.815 20.8515 25.1077C21.3379 26.2502 21.5338 27.4954 21.4217 28.7321C21.3096 29.9687 20.8931 31.1584 20.2092 32.1948C19.5253 33.2313 18.5954 34.0823 17.5026 34.6718C16.4097 35.2613 15.1878 35.571 13.9461 35.5732H13.9375Z" fill="#E6E6E6"/>
<path d="M17.0591 16.1011H14.0576C13.8796 16.1011 13.7354 16.2454 13.7354 16.4234V16.7585C13.7354 16.9365 13.8796 17.0808 14.0576 17.0808H17.0591C17.2371 17.0808 17.3814 16.9365 17.3814 16.7585V16.4234C17.3814 16.2454 17.2371 16.1011 17.0591 16.1011Z" fill="#F5F5F5"/>
<path d="M79.3582 31.4459H92.2559V8.19236H79.3582V31.4459Z" fill="#E0E0E0"/>
<path d="M77.9141 31.4459H91.9268V8.19236H77.9141V31.4459Z" fill="#F5F5F5"/>
<path d="M90.4814 29.9999V9.63617H79.3585V29.9999H90.4814Z" fill="white"/>
<path d="M86.5947 16.7542V13.7441H83.2452V16.7542H86.5947Z" fill="#F5F5F5"/>
<path d="M86.5947 21.322V18.3119H83.2452V21.322H86.5947Z" fill="#F5F5F5"/>
<path d="M86.5947 25.8898V22.8797H83.2452V25.8898H86.5947Z" fill="#F5F5F5"/>
<path d="M65.5645 25.9972C67.4142 25.9649 69.1772 25.2075 70.4739 23.888C71.7705 22.5685 72.4971 20.7925 72.4971 18.9425C72.4971 17.0925 71.7705 15.3165 70.4739 13.9971C69.1772 12.6776 67.4142 11.9201 65.5645 11.8878H65.1348V25.9972H65.5645Z" fill="#E6E6E6"/>
<path d="M66.7772 25.8032C70.5655 24.8951 72.9003 21.0879 71.9922 17.2996C71.0842 13.5114 67.277 11.1765 63.4887 12.0846C59.7004 12.9927 57.3655 16.7998 58.2736 20.5881C59.1817 24.3764 62.9889 26.7113 66.7772 25.8032Z" fill="#F5F5F5"/>
<path d="M65.9895 24.1991C68.889 23.7248 70.855 20.9898 70.3807 18.0903C69.9064 15.1908 67.1714 13.2248 64.272 13.6991C61.3725 14.1734 59.4065 16.9084 59.8807 19.8078C60.355 22.7073 63.09 24.6733 65.9895 24.1991Z" fill="white"/>
<path d="M62.9303 20.9288L62.5156 20.3337L64.7286 18.791L63.9981 15.2373L64.7071 15.0912L65.5343 19.1111L62.9303 20.9288Z" fill="#E6E6E6"/>
<path d="M30.8314 71.1056H40.0508V46.1955H30.8314L30.8314 71.1056Z" fill="#E6E6E6"/>
<path d="M33.2938 71.1035H30.8315V66.9783H35.8741L33.2938 71.1035Z" fill="#F0F0F0"/>
<path d="M86.1019 71.1056H95.3213V46.1955H86.1019V71.1056Z" fill="#F0F0F0"/>
<path d="M30.8313 69.6854H88.2529V46.1956L30.8313 46.1956V69.6854Z" fill="#FAFAFA"/>
<path d="M85.7905 71.1035H88.2528V66.9783H83.208L85.7905 71.1035Z" fill="#F0F0F0"/>
<path d="M32.7413 56.8608L86.3428 56.8608V48.2152L32.7413 48.2152V56.8608Z" fill="#F0F0F0"/>
<path d="M32.7413 67.5949H86.3428V58.9492L32.7413 58.9492V67.5949Z" fill="#F0F0F0"/>
<path d="M72.1692 43.7612C73.2324 43.7612 74.0943 42.8993 74.0943 41.8362C74.0943 40.773 73.2324 39.9111 72.1692 39.9111C71.106 39.9111 70.2441 40.773 70.2441 41.8362C70.2441 42.8993 71.106 43.7612 72.1692 43.7612Z" fill="#F5F5F5"/>
<path d="M73.5269 42.7557C73.5269 43.0532 73.6151 43.344 73.7803 43.5913C73.9456 43.8386 74.1805 44.0314 74.4553 44.1452C74.7301 44.2591 75.0325 44.2888 75.3242 44.2308C75.616 44.1728 75.884 44.0295 76.0943 43.8192C76.3046 43.6089 76.4479 43.3409 76.5059 43.0492C76.5639 42.7574 76.5341 42.455 76.4203 42.1802C76.3065 41.9054 76.1137 41.6705 75.8664 41.5052C75.6191 41.34 75.3283 41.2518 75.0308 41.2518C74.6319 41.2518 74.2494 41.4102 73.9674 41.6923C73.6853 41.9743 73.5269 42.3569 73.5269 42.7557Z" fill="#F5F5F5"/>
<path d="M68.8758 44.6787C69.939 44.6787 70.8009 43.8168 70.8009 42.7536C70.8009 41.6904 69.939 40.8285 68.8758 40.8285C67.8126 40.8285 66.9507 41.6904 66.9507 42.7536C66.9507 43.8168 67.8126 44.6787 68.8758 44.6787Z" fill="#F5F5F5"/>
<path d="M65.719 44.1136C66.7822 44.1136 67.6441 43.2517 67.6441 42.1885C67.6441 41.1253 66.7822 40.2635 65.719 40.2635C64.6558 40.2635 63.7939 41.1253 63.7939 42.1885C63.7939 43.2517 64.6558 44.1136 65.719 44.1136Z" fill="#F5F5F5"/>
<path d="M80.3312 42.4399C80.3312 42.4399 80.0669 46.1934 69.9366 46.1934C59.8063 46.1934 59.542 42.4399 59.542 42.4399H80.3312Z" fill="#E6E6E6"/>
<path d="M53.7135 80.0456C76.7205 80.0456 95.3713 78.9567 95.3713 77.6135C95.3713 76.2702 76.7205 75.1813 53.7135 75.1813C30.7065 75.1813 12.0557 76.2702 12.0557 77.6135C12.0557 78.9567 30.7065 80.0456 53.7135 80.0456Z" fill="#F5F5F5"/>
<path d="M44.3231 22.697C44.3511 22.7916 44.4005 22.9355 44.4435 23.0558L44.581 23.4404C44.6755 23.6961 44.7786 23.9496 44.8882 24.201C45.1024 24.6985 45.3434 25.1841 45.6101 25.6555C46.1387 26.5794 46.7811 27.4152 47.5438 27.9502L47.677 28.0426C47.677 28.0426 47.677 28.0576 47.7092 28.0619C47.8546 28.0582 47.997 28.0191 48.1239 27.948C48.5642 27.7148 48.9693 27.4204 49.3271 27.0736C49.7405 26.6951 50.1342 26.2957 50.5066 25.8768C50.8891 25.4471 51.265 25.0024 51.6196 24.5662L52.6444 25.185C52.112 26.3139 51.4431 27.3731 50.6527 28.3391C50.2185 28.8761 49.7039 29.3428 49.1273 29.7227C48.7483 29.9668 48.3196 30.1231 47.8725 30.1803C47.588 30.2093 47.3006 30.183 47.026 30.103C46.8845 30.0615 46.7476 30.0053 46.6178 29.9354L46.3707 29.7979C45.7702 29.4358 45.2264 28.9869 44.7572 28.4658C44.3085 27.9757 43.9085 27.4432 43.5626 26.8759C43.2232 26.3251 42.9238 25.7507 42.6666 25.1571C42.5399 24.8649 42.4195 24.5684 42.31 24.2697C42.2541 24.1193 42.2004 23.969 42.151 23.8143C42.1016 23.6596 42.0564 23.5178 42.0049 23.3265L44.3231 22.697Z" fill="#B97964"/>
<path d="M46.5429 26.4935L43.795 28.0146C43.795 28.0146 43.7133 27.8965 43.5801 27.6924C43.4834 27.542 43.3653 27.3443 43.2149 27.1123C42.407 25.7995 41.0663 23.4018 41.4165 22.3855C41.9515 20.8214 43.9239 20.8472 44.8929 22.6605C45.3614 23.564 45.781 24.4921 46.1497 25.4407C46.2507 25.6942 46.3345 25.9155 46.399 26.0853C46.4914 26.3452 46.5429 26.4935 46.5429 26.4935Z" fill="#407BFF"/>
<path opacity="0.2" d="M46.5429 26.4935L43.795 28.0146C43.795 28.0146 43.7133 27.8965 43.5801 27.6924C43.4834 27.542 43.3653 27.3443 43.2149 27.1123C42.407 25.7995 41.0663 23.4018 41.4165 22.3855C41.9515 20.8214 43.9239 20.8472 44.8929 22.6605C45.3614 23.564 45.781 24.4921 46.1497 25.4407C46.2507 25.6942 46.3345 25.9155 46.399 26.0853C46.4914 26.3452 46.5429 26.4935 46.5429 26.4935Z" fill="black"/>
<path opacity="0.2" d="M46.4078 26.096L43.5889 27.6923C43.4922 27.5419 43.374 27.3443 43.2236 27.1122L46.1585 25.4493C46.2509 25.7028 46.3347 25.9241 46.4078 26.096Z" fill="black"/>
<path opacity="0.2" d="M41.3759 22.5746C41.9904 22.2781 42.6994 22.5252 43.4428 23.7026C44.1862 24.88 44.8243 26.8566 44.9038 27.4088L43.8059 28.0147C43.8059 28.0147 41.1503 24.1409 41.3759 22.5746Z" fill="black"/>
<path d="M43.9239 35.1521H35.405C35.3449 34.3915 35.521 31.9164 35.39 28.7645C35.309 26.4283 35.0258 24.1034 34.5435 21.8161C34.5048 21.6442 34.4661 21.4745 34.4253 21.3026C34.4253 21.3026 34.855 21.2145 35.4759 21.1243C35.9894 21.0491 36.634 20.9718 37.2656 20.9417C38.4714 20.8729 39.6801 20.8729 40.8859 20.9417C41.4424 20.9932 41.986 21.0856 42.42 21.1694C42.9743 21.2811 43.3524 21.3843 43.3524 21.3843C43.3524 21.3843 45.4 26.1948 43.9239 35.1521Z" fill="#407BFF"/>
<path opacity="0.2" d="M43.9239 35.1521H35.405C35.3449 34.3915 35.521 31.9164 35.39 28.7645C35.309 26.4283 35.0258 24.1034 34.5435 21.8161C34.5048 21.6442 34.4661 21.4745 34.4253 21.3026C34.4253 21.3026 34.855 21.2145 35.4759 21.1243C35.9894 21.0491 36.634 20.9718 37.2656 20.9417C38.4714 20.8729 39.6801 20.8729 40.8859 20.9417C41.4424 20.9932 41.986 21.0856 42.42 21.1694C42.9743 21.2811 43.3524 21.3843 43.3524 21.3843C43.3524 21.3843 45.4 26.1948 43.9239 35.1521Z" fill="black"/>
<path d="M32.3066 73.2348L33.57 74.3649L35.972 71.8618L34.7108 70.7317L32.3066 73.2348Z" fill="#B97964"/>
<path d="M36.6318 75.5874H38.2239L38.4323 71.8984H36.8381L36.6318 75.5874Z" fill="#B97964"/>
<path d="M35.9723 71.864L34.7326 73.1531L33.4692 72.023L34.7089 70.7317L35.9723 71.864Z" fill="#A76755"/>
<path d="M36.8379 71.9005H38.4321L38.3247 73.802H36.7305L36.8379 71.9005Z" fill="#A76755"/>
<path d="M43.8424 35.0704C43.8424 35.0704 45.5204 46.6854 46.0941 53.0085C46.5539 58.079 35.5856 73.2047 35.5856 73.2047L33.4629 71.2087C33.4629 71.2087 41.4748 57.6493 40.8581 52.003C40.2608 46.5328 38.2369 35.064 38.2369 35.064L43.8424 35.0704Z" fill="#407BFF"/>
<path opacity="0.7" d="M43.8424 35.0704C43.8424 35.0704 45.5204 46.6854 46.0941 53.0085C46.5539 58.079 35.5856 73.2047 35.5856 73.2047L33.4629 71.2087C33.4629 71.2087 41.4748 57.6493 40.8581 52.003C40.2608 46.5328 38.2369 35.064 38.2369 35.064L43.8424 35.0704Z" fill="black"/>
<path d="M38.3072 75.4134H36.5239C36.509 75.4128 36.4941 75.4152 36.48 75.4204C36.466 75.4256 36.4531 75.4335 36.4421 75.4436C36.4312 75.4538 36.4223 75.4661 36.4161 75.4797C36.4098 75.4933 36.4063 75.508 36.4058 75.5229L36.3198 76.9388C36.3198 77.0133 36.3491 77.0848 36.4014 77.1378C36.4536 77.1909 36.5247 77.2213 36.5991 77.2224C37.2222 77.2117 37.5187 77.173 38.318 77.173C38.8014 77.173 40.8597 77.2246 41.5279 77.2246C42.196 77.2246 42.1724 76.5628 41.8953 76.5027C40.6233 76.2341 39.0485 75.8581 38.5994 75.5122C38.5169 75.4454 38.4133 75.4104 38.3072 75.4134Z" fill="#263238"/>
<path d="M33.9181 73.9094L32.3819 72.876C32.357 72.8566 32.3264 72.8461 32.2949 72.8461C32.2634 72.8461 32.2328 72.8566 32.2079 72.876L31.0348 74.0598C31.0115 74.0858 30.9943 74.1167 30.9843 74.1502C30.9744 74.1837 30.972 74.219 30.9774 74.2535C30.9827 74.288 30.9957 74.3209 31.0152 74.3498C31.0348 74.3788 31.0606 74.403 31.0906 74.4208C32.0704 75.1749 32.7772 75.7421 33.3337 76.3695C33.9783 77.1043 34.3285 77.2074 35.8324 77.2074C36.5286 77.2074 36.9217 76.6209 36.6381 76.5306C34.1308 75.7378 34.8011 75.3919 34.1931 74.2295C34.1284 74.1023 34.0341 73.9925 33.9181 73.9094Z" fill="#263238"/>
<path d="M51.4307 24.837L51.9785 23.0838L53.4009 24.1258C53.4009 24.1258 52.6231 25.6878 52.0967 25.546L51.4307 24.837Z" fill="#B97964"/>
<path d="M53.476 22.4134L54.2774 23.3953L53.4008 24.1258L51.9785 23.0838L53.476 22.4134Z" fill="#B97964"/>
<path opacity="0.2" d="M35.39 28.7645C35.309 26.4283 35.0258 24.1034 34.5435 21.8161C35.1128 21.7667 36.0861 21.8161 36.2472 22.7421C36.4213 23.7305 36.2021 26.0552 35.39 28.7645Z" fill="black"/>
<path opacity="0.5" d="M40.858 52.0073C40.5508 49.1905 39.8633 44.7775 39.2724 41.1636C39.5818 40.5578 40.4477 39.3331 40.4477 39.3331C41.2254 42.0209 42.9163 52.1512 40.5057 65.8352C37.9919 69.8873 35.5856 73.209 35.5856 73.209L35.2568 67.9837C37.5794 63.6136 41.2856 55.9154 40.858 52.0073Z" fill="black"/>
<path d="M35.9702 23.6166L35.5942 24.2612C35.4653 24.4846 35.3407 24.7102 35.2204 24.938C34.9754 25.3934 34.7398 25.8518 34.5135 26.313C34.2987 26.7749 34.0838 27.239 33.8926 27.7031C33.7079 28.1609 33.5465 28.6277 33.4092 29.1018L33.3834 29.1877L33.3705 29.2329C33.3634 29.2447 33.359 29.2579 33.3576 29.2715C33.351 29.338 33.351 29.4049 33.3576 29.4714C33.3798 29.6742 33.4222 29.8743 33.4844 30.0686C33.6332 30.5349 33.8149 30.9901 34.0279 31.4308C34.4576 32.3547 34.9797 33.2936 35.5018 34.2003L34.5586 34.9372C33.7751 34.1404 33.0667 33.273 32.4423 32.3461C32.1112 31.8558 31.8236 31.3374 31.5829 30.797C31.4471 30.4887 31.342 30.1677 31.2692 29.8387C31.2273 29.6402 31.2057 29.4379 31.2048 29.235C31.2032 29.1128 31.2118 28.9906 31.2306 28.8698L31.2456 28.7817V28.7258L31.2692 28.6162C31.5007 27.4817 31.8574 26.3763 32.3328 25.3204C32.5583 24.8004 32.8054 24.2934 33.0697 23.7971C33.2029 23.5479 33.3383 23.3029 33.4801 23.058C33.6219 22.8131 33.7615 22.581 33.9291 22.321L35.9702 23.6166Z" fill="#B97964"/>
<path d="M36.5391 24.2032C36.1419 25.3035 35.6806 26.3796 35.1576 27.426C35.0437 27.6623 34.9427 27.8729 34.8525 28.0426C34.7021 28.3412 34.6076 28.5217 34.6076 28.5217L31.3848 26.7341C31.3848 26.7341 31.4256 26.5988 31.4986 26.371C31.5545 26.1992 31.6275 25.9736 31.7135 25.7136C32.2506 24.1817 33.3485 21.4488 34.4249 21.2919C36.0342 21.0685 37.1922 22.2716 36.5391 24.2032Z" fill="#407BFF"/>
<path opacity="0.2" d="M35.1574 27.4367C35.0435 27.673 34.9425 27.8836 34.8523 28.0533L31.4941 26.3818C31.55 26.2099 31.6231 25.9843 31.709 25.7243L35.1574 27.4367Z" fill="black"/>
<path d="M38.8726 75.6798C38.7278 75.6765 38.5838 75.6577 38.4429 75.6239C38.4357 75.6219 38.4292 75.6181 38.4239 75.6129C38.4186 75.6076 38.4148 75.601 38.4128 75.5938C38.4121 75.5868 38.4132 75.5796 38.4163 75.5732C38.4193 75.5667 38.4241 75.5612 38.43 75.5573C38.4794 75.5208 38.9328 75.2136 39.1261 75.2888C39.1482 75.2975 39.1677 75.3118 39.1828 75.3302C39.1978 75.3487 39.2079 75.3706 39.2121 75.394C39.2219 75.4289 39.2227 75.4658 39.2144 75.5011C39.2062 75.5364 39.1891 75.5691 39.1648 75.596C39.0809 75.6586 38.977 75.6884 38.8726 75.6798ZM38.5503 75.5702C38.8361 75.6261 39.0445 75.6175 39.1197 75.5444C39.1351 75.5263 39.1456 75.5046 39.1502 75.4812C39.1547 75.4579 39.1531 75.4338 39.1455 75.4112C39.1439 75.3997 39.1393 75.3889 39.1321 75.3798C39.125 75.3708 39.1155 75.3638 39.1047 75.3597C38.9994 75.3188 38.7351 75.452 38.5503 75.5702Z" fill="#407BFF"/>
<path d="M38.458 75.6282C38.4525 75.63 38.4464 75.63 38.4409 75.6282C38.4355 75.6251 38.4309 75.6208 38.4275 75.6155C38.4241 75.6103 38.4221 75.6043 38.4215 75.5981C38.4215 75.5788 38.385 75.1212 38.5461 74.9665C38.5664 74.9462 38.5912 74.9309 38.6184 74.9219C38.6456 74.913 38.6746 74.9106 38.703 74.9149C38.7346 74.9163 38.7649 74.928 38.7893 74.9482C38.8137 74.9683 38.8309 74.9959 38.8383 75.0266C38.8749 75.2007 38.6364 75.5337 38.4774 75.6282H38.458ZM38.6729 74.9837C38.6581 74.9833 38.6435 74.9859 38.6298 74.9915C38.6161 74.997 38.6037 75.0053 38.5934 75.0159C38.505 75.1685 38.4681 75.3455 38.4881 75.5208C38.6256 75.4048 38.7846 75.1512 38.761 75.0374C38.761 75.0159 38.7438 74.9901 38.6901 74.9837H38.6729Z" fill="#407BFF"/>
<path d="M34.9491 74.7688C34.665 74.7252 34.3937 74.6204 34.1541 74.4616C34.1476 74.4577 34.1425 74.4519 34.1394 74.445C34.1363 74.4381 34.1355 74.4303 34.137 74.4229C34.1386 74.4152 34.1426 74.4082 34.1484 74.4028C34.1541 74.3974 34.1614 74.394 34.1692 74.3928C34.2551 74.3928 35.0093 74.337 35.1554 74.5088C35.1672 74.5238 35.1753 74.5413 35.179 74.56C35.1828 74.5786 35.182 74.5979 35.1768 74.6163C35.1706 74.6459 35.1571 74.6736 35.1376 74.6968C35.1181 74.7201 35.0932 74.7381 35.0651 74.7495C35.0279 74.7628 34.9886 74.7694 34.9491 74.7688ZM34.3045 74.4594C34.6483 74.6485 34.919 74.7301 35.0393 74.6743C35.0571 74.6671 35.0728 74.6557 35.0851 74.6411C35.0975 74.6265 35.1061 74.6092 35.1102 74.5905C35.1138 74.5843 35.1157 74.5772 35.1157 74.5701C35.1157 74.5629 35.1138 74.5559 35.1102 74.5497C35.02 74.468 34.6075 74.453 34.3002 74.4659L34.3045 74.4594Z" fill="#407BFF"/>
<path d="M34.174 74.4745C34.1676 74.4745 34.1613 74.4729 34.1557 74.4699C34.1501 74.4669 34.1453 74.4626 34.1418 74.4573C34.1391 74.4516 34.1377 74.4453 34.1377 74.439C34.1377 74.4327 34.1391 74.4265 34.1418 74.4208C34.1547 74.395 34.4426 73.8106 34.81 73.991C34.9109 74.0405 34.9217 74.1006 34.9131 74.1414C34.8744 74.3133 34.3953 74.4723 34.1761 74.4788L34.174 74.4745ZM34.6703 74.0297C34.4748 74.0297 34.3072 74.279 34.2406 74.395C34.4705 74.3649 34.8186 74.2231 34.84 74.1221C34.84 74.0985 34.8229 74.077 34.7777 74.0534C34.7442 74.0373 34.7075 74.0292 34.6703 74.0297Z" fill="#407BFF"/>
<path d="M35.0738 33.8629L36.6595 33.5879L35.8452 35.4228C35.8452 35.4228 34.3971 35.4228 34.4637 34.6686L35.0738 33.8629Z" fill="#B97964"/>
<path d="M37.8417 34.5096L37.0983 35.9921L35.8457 35.4228L36.66 33.5879L37.8417 34.5096Z" fill="#B97964"/>
<path d="M33.3335 71.0927L35.7141 73.3314L36.4789 72.5085L33.7589 70.0291L33.3335 71.0927Z" fill="#407BFF"/>
<path opacity="0.7" d="M33.3335 71.0927L35.7141 73.3314L36.4789 72.5085L33.7589 70.0291L33.3335 71.0927Z" fill="white"/>
<path d="M40.821 35.0704C40.821 35.0704 40.9736 47.244 40.7158 51.8032C40.4322 56.7985 39.0163 73.3422 39.0163 73.3422H36.0943C36.0943 73.3422 36.1802 57.2003 36.0062 52.2565C35.815 46.8852 35.3208 35.0683 35.3208 35.0683L40.821 35.0704Z" fill="#407BFF"/>
<path opacity="0.7" d="M40.821 35.0704C40.821 35.0704 40.9736 47.244 40.7158 51.8032C40.4322 56.7985 39.0163 73.3422 39.0163 73.3422H36.0943C36.0943 73.3422 36.1802 57.2003 36.0062 52.2565C35.815 46.8852 35.3208 35.0683 35.3208 35.0683L40.821 35.0704Z" fill="black"/>
<path d="M35.9724 73.3422H39.1243L39.3004 72.2357L35.8198 72.4076L35.9724 73.3422Z" fill="#407BFF"/>
<path opacity="0.7" d="M35.9724 73.3422H39.1243L39.3004 72.2357L35.8198 72.4076L35.9724 73.3422Z" fill="white"/>
<path opacity="0.2" d="M36.5391 24.2032C36.1419 25.3035 35.6806 26.3796 35.1576 27.426C35.0437 27.6623 34.9427 27.8729 34.8525 28.0426C34.7021 28.3412 34.6076 28.5217 34.6076 28.5217L31.3848 26.7341C31.3848 26.7341 31.4256 26.5988 31.4986 26.371C31.5545 26.1992 31.6275 25.9736 31.7135 25.7136C32.2506 24.1817 33.3485 21.4488 34.4249 21.2919C36.0342 21.0685 37.1922 22.2716 36.5391 24.2032Z" fill="black"/>
<path d="M42.2456 22.1814C42.0737 22.7507 41.601 23.5113 40.2797 23.9002L39.9359 24.0033L39.5857 23.941C36.8893 23.4576 35.8967 22.0073 35.7184 21.7259L35.3574 21.1243C35.8709 21.0491 36.5155 20.9718 37.1471 20.9417C38.3529 20.8729 39.5616 20.8729 40.7674 20.9417C41.3239 20.9932 41.8675 21.0856 42.3015 21.1694C42.3614 21.5065 42.3423 21.8529 42.2456 22.1814Z" fill="#407BFF"/>
<path opacity="0.4" d="M42.2456 22.1814C42.0737 22.7507 41.601 23.5113 40.2797 23.9002L39.9359 24.0033L39.5857 23.941C36.8893 23.4576 35.8967 22.0073 35.7184 21.7259L35.3574 21.1243C35.8709 21.0491 36.5155 20.9718 37.1471 20.9417C38.3529 20.8729 39.5616 20.8729 40.7674 20.9417C41.3239 20.9932 41.8675 21.0856 42.3015 21.1694C42.3614 21.5065 42.3423 21.8529 42.2456 22.1814Z" fill="black"/>
<path d="M39.9617 22.4607C37.8003 22.0718 37.1235 20.9567 37.1235 20.9567C37.912 20.179 37.6091 18.0541 37.3384 16.8874L38.3074 17.691L39.6266 18.7867C39.5875 18.9624 39.5595 19.1404 39.5428 19.3196C39.4719 20.035 39.6567 20.686 40.7094 20.9352C40.7137 20.9288 41.586 21.9773 39.9617 22.4607Z" fill="#B97964"/>
<path d="M39.631 18.7803C39.5919 18.9559 39.5639 19.1339 39.5472 19.3131C39.0552 19.2143 38.3977 18.69 38.329 18.1873C38.3048 18.0208 38.299 17.8522 38.3118 17.6845L39.631 18.7803Z" fill="#A76755"/>
<path d="M40.5267 12.8117C41.3131 13.1662 41.7492 15.377 40.7415 15.854C39.7339 16.3309 39.0399 12.1392 40.5267 12.8117Z" fill="#263238"/>
<path d="M36.954 15.203C37.2913 16.7521 37.4095 17.6738 38.3247 18.3806C38.6199 18.6131 38.9729 18.7606 39.3457 18.8071C39.7184 18.8537 40.0969 18.7975 40.4401 18.6447C40.7833 18.4919 41.0782 18.2483 41.2931 17.9401C41.508 17.6319 41.6346 17.2709 41.6593 16.896C41.7796 15.4544 41.2081 13.164 39.5773 12.7257C39.227 12.6213 38.8554 12.6109 38.4997 12.6955C38.1441 12.7801 37.8169 12.9567 37.5512 13.2077C37.2854 13.4587 37.0903 13.7752 36.9855 14.1254C36.8806 14.4756 36.8698 14.8472 36.954 15.203Z" fill="#B97964"/>
<path d="M35.1469 13.6668C34.3928 13.9998 34.8203 15.0311 35.3338 15.6864C36.045 16.5974 36.797 17.0228 37.3083 16.6038C37.7681 16.3739 38.071 15.0182 37.6714 14.1824C38.3783 13.7162 39.8457 14.292 40.3034 13.5379C40.761 12.7837 41.0876 12.846 41.8933 13.3445C42.699 13.843 43.3435 11.8728 41.2487 11.5054C42.4089 12.0274 42.1425 13.0437 41.2938 12.0017C40.6944 11.2669 39.257 10.4547 38.258 11.5505C37.521 12.3497 34.932 11.1143 35.1469 13.6668Z" fill="#263238"/>
<path d="M36.5868 16.8187C36.8381 17.121 37.1854 17.328 37.5709 17.4052C38.0586 17.4869 38.1682 17.0357 37.9211 16.5974C37.7062 16.2042 37.1734 15.6864 36.7372 15.8024C36.3011 15.9184 36.271 16.4384 36.5868 16.8187Z" fill="#B97964"/>
<path d="M39.3883 15.3577C39.4077 15.4844 39.4915 15.5725 39.5753 15.5725C39.6591 15.5725 39.7106 15.4522 39.6891 15.3254C39.6676 15.1987 39.5881 15.1106 39.5044 15.1106C39.4206 15.1106 39.369 15.2288 39.3883 15.3577Z" fill="#263238"/>
<path d="M40.8213 15.1858C40.8406 15.3125 40.9244 15.4006 41.0082 15.4006C41.092 15.4006 41.1436 15.2782 41.1242 15.1514C41.1049 15.0246 41.0211 14.9366 40.9373 14.9366C40.8535 14.9366 40.8213 15.059 40.8213 15.1858Z" fill="#263238"/>
<path d="M40.3916 15.304C40.6047 15.675 40.8663 16.016 41.1694 16.3181C41.0902 16.3905 40.996 16.4447 40.8935 16.4766C40.791 16.5085 40.6827 16.5175 40.5764 16.5028L40.3916 15.304Z" fill="#A24E3F"/>
<path d="M40.0974 16.9067C39.9486 16.9085 39.801 16.8804 39.6633 16.8239C39.5256 16.7674 39.4007 16.6838 39.296 16.578C39.289 16.5708 39.2852 16.5612 39.2852 16.5512C39.2852 16.5411 39.289 16.5315 39.296 16.5243C39.3032 16.5173 39.3128 16.5135 39.3229 16.5135C39.3329 16.5135 39.3425 16.5173 39.3497 16.5243C39.4656 16.6368 39.6054 16.7216 39.7587 16.7726C39.912 16.8235 40.0747 16.8393 40.2349 16.8187C40.2399 16.8181 40.2449 16.8185 40.2497 16.8199C40.2545 16.8214 40.259 16.8238 40.2628 16.827C40.2666 16.8302 40.2697 16.8342 40.272 16.8387C40.2742 16.8431 40.2755 16.848 40.2757 16.853C40.2767 16.8579 40.2765 16.8629 40.2754 16.8677C40.2742 16.8725 40.272 16.8769 40.269 16.8808C40.2659 16.8847 40.262 16.8879 40.2576 16.8901C40.2533 16.8924 40.2484 16.8936 40.2435 16.8939C40.1951 16.9011 40.1463 16.9054 40.0974 16.9067Z" fill="#263238"/>
<path d="M38.8704 14.9451C38.8584 14.9483 38.8458 14.9483 38.8339 14.9451C38.8165 14.9352 38.8036 14.9189 38.798 14.8996C38.7924 14.8804 38.7945 14.8597 38.8038 14.842C38.8603 14.7375 38.9412 14.6482 39.0396 14.5817C39.1379 14.5151 39.2509 14.4732 39.3689 14.4596C39.3869 14.4626 39.4033 14.4719 39.4151 14.4859C39.4269 14.4999 39.4334 14.5175 39.4334 14.5358C39.4334 14.5541 39.4269 14.5718 39.4151 14.5858C39.4033 14.5997 39.3869 14.6091 39.3689 14.6121C39.2763 14.6227 39.1877 14.6559 39.1109 14.7087C39.0341 14.7615 38.9714 14.8324 38.9284 14.9151C38.9215 14.924 38.9128 14.9313 38.9027 14.9365C38.8927 14.9417 38.8817 14.9447 38.8704 14.9451Z" fill="#263238"/>
<path d="M41.3738 14.61C41.3614 14.6097 41.3493 14.6064 41.3384 14.6004C41.3276 14.5944 41.3183 14.5859 41.3114 14.5756C41.2595 14.4941 41.1894 14.4257 41.1067 14.3758C41.0239 14.3259 40.9308 14.2957 40.8345 14.2877C40.8145 14.2877 40.7954 14.2798 40.7813 14.2657C40.7672 14.2516 40.7593 14.2324 40.7593 14.2125C40.7593 14.1926 40.7672 14.1734 40.7813 14.1593C40.7954 14.1452 40.8145 14.1373 40.8345 14.1373C40.9557 14.1442 41.0736 14.18 41.1782 14.2417C41.2829 14.3033 41.3713 14.3891 41.4361 14.4918C41.4418 14.5 41.4458 14.5092 41.4479 14.5189C41.45 14.5286 41.4502 14.5387 41.4484 14.5485C41.4466 14.5583 41.4429 14.5676 41.4374 14.576C41.432 14.5843 41.425 14.5915 41.4167 14.5971C41.404 14.6055 41.389 14.61 41.3738 14.61Z" fill="#263238"/>
<g opacity="0.9">
<path opacity="0.9" d="M63.7983 39.4749C63.9809 39.0172 64.293 38.6227 64.6963 38.3396C65.0997 38.0564 65.5768 37.897 66.0693 37.8807H85.0107C86.1451 37.8807 86.9122 38.8003 86.7295 39.9369L80.7373 75.712C80.6316 76.2778 80.3363 76.7906 79.9 77.1659C79.4637 77.5413 78.9126 77.7567 78.3374 77.7767H30.842C30.5834 77.7868 30.3259 77.7373 30.0894 77.6323C29.8529 77.5273 29.6436 77.3694 29.4776 77.1708C29.3116 76.9723 29.1933 76.7383 29.1319 76.4869C29.0705 76.2355 29.0675 75.9733 29.1232 75.7206L34.2173 45.2652C34.3251 44.7012 34.6213 44.1906 35.0573 43.817C35.4934 43.4434 36.0434 43.229 36.6172 43.2091H58.4936C60.7323 43.2005 62.9303 41.6557 63.7983 39.4749Z" fill="#407BFF"/>
</g>
<path opacity="0.5" d="M63.7983 39.4749C63.9809 39.0172 64.293 38.6227 64.6963 38.3396C65.0997 38.0564 65.5768 37.897 66.0693 37.8807H85.0107C86.1451 37.8807 86.9122 38.8003 86.7295 39.9369L80.7373 75.712C80.6316 76.2778 80.3363 76.7906 79.9 77.1659C79.4637 77.5413 78.9126 77.7567 78.3374 77.7767H30.842C30.5834 77.7868 30.3259 77.7373 30.0894 77.6323C29.8529 77.5273 29.6436 77.3694 29.4776 77.1708C29.3116 76.9723 29.1933 76.7383 29.1319 76.4869C29.0705 76.2355 29.0675 75.9733 29.1232 75.7206L34.2173 45.2652C34.3251 44.7012 34.6213 44.1906 35.0573 43.817C35.4934 43.4434 36.0434 43.229 36.6172 43.2091H58.4936C60.7323 43.2005 62.9303 41.6557 63.7983 39.4749Z" fill="white"/>
<path opacity="0.9" d="M56.2586 7.71106L41.9258 57.514L74.7123 66.9482L89.043 17.1453L56.2586 7.71106Z" fill="#407BFF"/>
<path opacity="0.7" d="M56.2586 7.71106L41.9258 57.514L74.7123 66.9482L89.043 17.1453L56.2586 7.71106Z" fill="white"/>
<g style="mix-blend-mode:multiply" opacity="0.9">
<path d="M55.6227 9.9176L41.9258 57.514L73.5972 66.628L86.4347 17.3666L55.6227 9.9176Z" fill="#407BFF"/>
</g>
<path opacity="0.6" d="M55.6227 9.9176L41.9258 57.514L73.5972 66.628L86.4347 17.3666L55.6227 9.9176Z" fill="#407BFF"/>
<g opacity="0.9">
<g style="mix-blend-mode:multiply" opacity="0.9">
<path d="M55.6227 9.91757L41.9258 57.5139L73.5972 66.628L86.4347 17.3665L55.6227 9.91757Z" fill="white"/>
</g>
<path opacity="0.6" d="M55.6227 9.91757L41.9258 57.5139L73.5972 66.628L86.4347 17.3665L55.6227 9.91757Z" fill="white"/>
</g>
<path d="M67.2323 23.4015C69.3812 20.9442 69.1312 17.2102 66.674 15.0613C64.2167 12.9124 60.4827 13.1624 58.3338 15.6196C56.1849 18.0769 56.4349 21.8109 58.8921 23.9598C61.3494 26.1087 65.0834 25.8588 67.2323 23.4015Z" fill="#407BFF"/>
<path d="M61.4862 24.0055C60.5964 23.7484 59.8028 23.2333 59.2057 22.5252C58.6086 21.8172 58.2349 20.948 58.1317 20.0276C58.0285 19.1071 58.2005 18.1768 58.626 17.3541C59.0515 16.5314 59.7114 15.8534 60.5221 15.4056C61.3329 14.9579 62.2582 14.7606 63.1811 14.8387C64.104 14.9167 64.9831 15.2667 65.7071 15.8442C66.4312 16.4218 66.9677 17.2011 67.249 18.0835C67.5302 18.966 67.5435 19.912 67.2872 20.802C67.1171 21.3936 66.8321 21.9458 66.4483 22.4271C66.0646 22.9083 65.5898 23.3092 65.051 23.6067C64.5122 23.9043 63.92 24.0926 63.3083 24.1611C62.6966 24.2295 62.0774 24.1766 61.4862 24.0055Z" fill="white"/>
<path d="M65.0624 28.9377L54.627 25.9355L53.9521 28.2811L64.3876 31.2833L65.0624 28.9377Z" fill="#407BFF"/>
<path d="M54.7022 47.328L48.9497 45.6731L46.3265 54.7912L52.079 56.4461L54.7022 47.328Z" fill="#407BFF"/>
<path d="M75.0572 53.1851L69.3047 51.5302L66.6815 60.6482L72.434 62.3032L75.0572 53.1851Z" fill="#407BFF"/>
<path d="M64.8785 50.2576L59.126 48.6027L56.5028 57.7208L62.2553 59.3757L64.8785 50.2576Z" fill="#407BFF"/>
<path d="M73.495 31.3617L66.4355 29.3308L65.7607 31.6764L72.8202 33.7073L73.495 31.3617Z" fill="#407BFF"/>
<path d="M78.9931 38.4623L53.1606 31.0305L52.8826 31.9969L78.7151 39.4286L78.9931 38.4623Z" fill="white"/>
<path d="M65.4153 36.7791L52.5703 33.0837L52.2923 34.0501L65.1373 37.7454L65.4153 36.7791Z" fill="white"/>
<path d="M76.2043 39.8831L67.6128 37.4114L67.3348 38.3777L75.9263 40.8494L76.2043 39.8831Z" fill="white"/>
<path d="M72.6294 41.0761L51.9795 35.1354L51.7015 36.1017L72.3514 42.0425L72.6294 41.0761Z" fill="white"/>
<path d="M74.8643 44.2319L51.1528 37.3161L50.8713 38.2814L74.5828 45.1972L74.8643 44.2319Z" fill="white"/>
<path d="M53.5389 40.0319L50.7969 39.2431L50.5189 40.2094L53.2609 40.9982L53.5389 40.0319Z" fill="white"/>
<path d="M67.8559 44.1512L55.7397 40.6655L55.4617 41.6318L67.5779 45.1175L67.8559 44.1512Z" fill="white"/>
<path d="M76.04 48.7292L50.2075 41.2974L49.9295 42.2637L75.762 49.6955L76.04 48.7292Z" fill="white"/>
<path d="M52.4434 9.45352L39.8423 59.7291L72.9296 68.0246L85.5286 17.749L52.4434 9.45352Z" fill="#407BFF"/>
<path opacity="0.8" d="M52.4434 9.45352L39.8423 59.7291L72.9296 68.0246L85.5286 17.749L52.4434 9.45352Z" fill="white"/>
<path d="M61.9416 26.3249C64.881 24.9052 66.113 21.3714 64.6933 18.4319C63.2736 15.4925 59.7398 14.2605 56.8003 15.6802C53.8609 17.1 52.6289 20.6337 54.0486 23.5732C55.4684 26.5126 59.0022 27.7446 61.9416 26.3249Z" fill="#407BFF"/>
<path d="M63.9742 21.8503C64.4398 19.3057 62.7545 16.8655 60.21 16.3999C57.6655 15.9342 55.2252 17.6195 54.7596 20.164C54.294 22.7086 55.9793 25.1488 58.5238 25.6144C61.0683 26.0801 63.5086 24.3948 63.9742 21.8503Z" fill="white"/>
<path d="M61.9763 30.3574L51.4434 27.7176L50.85 30.0851L61.3829 32.7249L61.9763 30.3574Z" fill="#407BFF"/>
<path d="M52.2569 49.0958L46.4507 47.6406L44.1441 56.8438L49.9503 58.299L52.2569 49.0958Z" fill="#407BFF"/>
<path d="M72.7999 54.2451L66.9937 52.7899L64.6871 61.9932L70.4933 63.4484L72.7999 54.2451Z" fill="#407BFF"/>
<path d="M62.5289 51.6704L56.7227 50.2152L54.4161 59.4185L60.2223 60.8737L62.5289 51.6704Z" fill="#407BFF"/>
<path d="M70.4843 32.489L63.3589 30.7032L62.7655 33.0707L69.891 34.8565L70.4843 32.489Z" fill="#407BFF"/>
<path d="M76.2262 39.3945L50.1523 32.8597L49.9079 33.835L75.9817 40.3698L76.2262 39.3945Z" fill="white"/>
<path d="M62.5988 38.1808L49.6338 34.9314L49.3893 35.9068L62.3544 39.1561L62.5988 38.1808Z" fill="white"/>
<path d="M73.4882 40.9092L64.8164 38.7358L64.572 39.7112L73.2438 41.8845L73.4882 40.9092Z" fill="white"/>
<path d="M69.9566 42.2276L49.1138 37.0039L48.8693 37.9792L69.7121 43.203L69.9566 42.2276Z" fill="white"/>
<path d="M72.5547 45.0827L48.5962 39.0781L48.3517 40.0534L72.3102 46.0581L72.5547 45.0827Z" fill="white"/>
<path d="M50.8428 41.8461L48.0752 41.1525L47.8307 42.1278L50.5984 42.8215L50.8428 41.8461Z" fill="white"/>
<path d="M65.2933 45.4652L53.064 42.4002L52.8195 43.3755L65.0489 46.4405L65.2933 45.4652Z" fill="white"/>
<path d="M73.63 49.7576L47.5562 43.2228L47.3117 44.1982L73.3855 50.7329L73.63 49.7576Z" fill="white"/>
<path opacity="0.5" d="M51.1476 46.9432C51.1884 46.1375 51.8931 45.5681 52.8513 45.5681H71.7949C72.9293 45.5681 74.0229 46.361 74.2378 47.3407L79.925 75.9935C80.1398 76.9732 79.3921 77.7682 78.2577 77.7682H30.7559C29.6193 77.7682 28.5257 76.9732 28.3108 75.9935L23.6335 51.9321C23.4186 50.9524 24.1663 50.1574 25.3029 50.1574H47.1706C49.4158 50.1574 51.0573 48.8253 51.1476 46.9432Z" fill="#407BFF"/>
</svg>
