<svg width="124" height="75" viewBox="0 0 124 75" fill="none" xmlns="http://www.w3.org/2000/svg">
<path d="M72.9375 0.96312H61.6748V73.5694H72.9375V0.96312Z" fill="white" stroke="#263238" stroke-linecap="round" stroke-linejoin="round"/>
<path d="M71.4502 12.9869V24.3857" stroke="#263238" stroke-linecap="round" stroke-linejoin="round"/>
<path d="M71.3311 6.69528V5.86368" stroke="#263238" stroke-linecap="round" stroke-linejoin="round"/>
<path d="M72.82 11.6916C73.4017 11.6916 73.8733 11.22 73.8733 10.6382C73.8733 10.0565 73.4017 9.58488 72.82 9.58488C72.2382 9.58488 71.7666 10.0565 71.7666 10.6382C71.7666 11.22 72.2382 11.6916 72.82 11.6916Z" fill="white" stroke="#263238" stroke-linecap="round" stroke-linejoin="round"/>
<path d="M70.0631 11.6916C70.6449 11.6916 71.1165 11.22 71.1165 10.6382C71.1165 10.0565 70.6449 9.58488 70.0631 9.58488C69.4814 9.58488 69.0098 10.0565 69.0098 10.6382C69.0098 11.22 69.4814 11.6916 70.0631 11.6916Z" fill="white" stroke="#263238" stroke-linecap="round" stroke-linejoin="round"/>
<path d="M67.3073 11.6916C67.889 11.6916 68.3606 11.22 68.3606 10.6382C68.3606 10.0565 67.889 9.58488 67.3073 9.58488C66.7255 9.58488 66.2539 10.0565 66.2539 10.6382C66.2539 11.22 66.7255 11.6916 67.3073 11.6916Z" fill="white" stroke="#263238" stroke-linecap="round" stroke-linejoin="round"/>
<path d="M64.5524 11.6916C65.1341 11.6916 65.6057 11.22 65.6057 10.6382C65.6057 10.0565 65.1341 9.58488 64.5524 9.58488C63.9706 9.58488 63.499 10.0565 63.499 10.6382C63.499 11.22 63.9706 11.6916 64.5524 11.6916Z" fill="white" stroke="#263238" stroke-linecap="round" stroke-linejoin="round"/>
<path d="M61.7955 11.6916C62.3773 11.6916 62.8489 11.22 62.8489 10.6382C62.8489 10.0565 62.3773 9.58488 61.7955 9.58488C61.2138 9.58488 60.7422 10.0565 60.7422 10.6382C60.7422 11.22 61.2138 11.6916 61.7955 11.6916Z" fill="white" stroke="#263238" stroke-linecap="round" stroke-linejoin="round"/>
<path d="M72.8197 9.58656C72.6113 9.58689 72.4075 9.5254 72.234 9.40986C72.0606 9.29431 71.9253 9.12992 71.8453 8.93747C71.7653 8.74503 71.7442 8.53318 71.7847 8.32873C71.8251 8.12429 71.9253 7.93644 72.0726 7.78896C72.2198 7.64148 72.4075 7.54099 72.6119 7.50021C72.8163 7.45943 73.0281 7.48019 73.2207 7.55986C73.4133 7.63954 73.5779 7.77455 73.6937 7.94781C73.8095 8.12107 73.8714 8.3248 73.8714 8.5332C73.8714 8.81228 73.7606 9.07995 73.5634 9.27745C73.3663 9.47494 73.0988 9.58612 72.8197 9.58656Z" fill="white" stroke="#263238" stroke-linecap="round" stroke-linejoin="round"/>
<path d="M70.0641 9.58656C69.8558 9.58656 69.6521 9.52478 69.4789 9.40904C69.3057 9.29329 69.1707 9.12878 69.0909 8.9363C69.0112 8.74383 68.9903 8.53203 69.031 8.3277C69.0716 8.12337 69.172 7.93568 69.3193 7.78836C69.4666 7.64105 69.6543 7.54072 69.8586 7.50008C70.0629 7.45944 70.2747 7.4803 70.4672 7.56002C70.6597 7.63975 70.8242 7.77476 70.9399 7.94798C71.0557 8.12121 71.1175 8.32486 71.1175 8.5332C71.1175 8.81257 71.0065 9.08049 70.8089 9.27804C70.6114 9.47558 70.3435 9.58656 70.0641 9.58656Z" fill="white" stroke="#263238" stroke-linecap="round" stroke-linejoin="round"/>
<path d="M67.3073 9.58656C67.0989 9.58656 66.8953 9.52478 66.722 9.40904C66.5488 9.29329 66.4138 9.12878 66.3341 8.9363C66.2544 8.74383 66.2335 8.53203 66.2741 8.3277C66.3148 8.12337 66.4151 7.93568 66.5624 7.78836C66.7097 7.64105 66.8974 7.54072 67.1018 7.50008C67.3061 7.45944 67.5179 7.4803 67.7104 7.56002C67.9028 7.63975 68.0674 7.77476 68.1831 7.94798C68.2988 8.12121 68.3606 8.32486 68.3606 8.5332C68.3606 8.81257 68.2496 9.08049 68.0521 9.27804C67.8546 9.47558 67.5866 9.58656 67.3073 9.58656Z" fill="white" stroke="#263238" stroke-linecap="round" stroke-linejoin="round"/>
<path d="M64.5521 9.58656C64.3437 9.58689 64.1399 9.5254 63.9664 9.40986C63.793 9.29431 63.6577 9.12992 63.5777 8.93747C63.4977 8.74503 63.4767 8.53318 63.5171 8.32873C63.5576 8.12429 63.6577 7.93644 63.805 7.78896C63.9522 7.64148 64.1399 7.54099 64.3443 7.50021C64.5487 7.45943 64.7606 7.48019 64.9531 7.55986C65.1457 7.63954 65.3103 7.77455 65.4261 7.94781C65.542 8.12107 65.6038 8.3248 65.6038 8.5332C65.6038 8.81228 65.493 9.07995 65.2959 9.27745C65.0987 9.47494 64.8312 9.58612 64.5521 9.58656Z" fill="white" stroke="#263238" stroke-linecap="round" stroke-linejoin="round"/>
<path d="M61.7955 9.58656C61.5872 9.58656 61.3836 9.52478 61.2103 9.40904C61.0371 9.29329 60.9021 9.12878 60.8224 8.9363C60.7426 8.74383 60.7218 8.53203 60.7624 8.3277C60.8031 8.12337 60.9034 7.93568 61.0507 7.78836C61.198 7.64105 61.3857 7.54072 61.5901 7.50008C61.7944 7.45944 62.0062 7.4803 62.1987 7.56002C62.3911 7.63975 62.5556 7.77476 62.6714 7.94798C62.7871 8.12121 62.8489 8.32486 62.8489 8.5332C62.8489 8.81257 62.7379 9.08049 62.5404 9.27804C62.3428 9.47558 62.0749 9.58656 61.7955 9.58656Z" fill="white" stroke="#263238" stroke-linecap="round" stroke-linejoin="round"/>
<path d="M74.3301 10.8953V8.23416H60.3626V10.8953H74.3301Z" fill="white" stroke="#263238" stroke-linecap="round" stroke-linejoin="round"/>
<path d="M74.2812 9.51768H60.4111" stroke="#263238" stroke-linecap="round" stroke-linejoin="round"/>
<path d="M72.8197 35.0554C72.6113 35.0557 72.4075 34.9942 72.234 34.8787C72.0606 34.7631 71.9253 34.5987 71.8453 34.4063C71.7653 34.2138 71.7442 34.002 71.7847 33.7975C71.8251 33.5931 71.9253 33.4052 72.0726 33.2578C72.2198 33.1103 72.4075 33.0098 72.6119 32.969C72.8163 32.9282 73.0281 32.949 73.2207 33.0287C73.4133 33.1083 73.5779 33.2433 73.6937 33.4166C73.8095 33.5899 73.8714 33.7936 73.8714 34.002C73.8714 34.2811 73.7606 34.5487 73.5634 34.7462C73.3663 34.9437 73.0988 35.0549 72.8197 35.0554Z" fill="white" stroke="#263238" stroke-linecap="round" stroke-linejoin="round"/>
<path d="M70.0641 35.0554C69.8558 35.0554 69.6521 34.9936 69.4789 34.8778C69.3057 34.7621 69.1707 34.5976 69.0909 34.4051C69.0112 34.2126 68.9903 34.0008 69.031 33.7965C69.0716 33.5922 69.172 33.4045 69.3193 33.2572C69.4666 33.1098 69.6543 33.0095 69.8586 32.9689C70.0629 32.9282 70.2747 32.9491 70.4672 33.0288C70.6597 33.1085 70.8242 33.2436 70.9399 33.4168C71.0557 33.59 71.1175 33.7937 71.1175 34.002C71.1175 34.2814 71.0065 34.5493 70.8089 34.7468C70.6114 34.9444 70.3435 35.0554 70.0641 35.0554Z" fill="white" stroke="#263238" stroke-linecap="round" stroke-linejoin="round"/>
<path d="M67.3073 35.0554C67.0989 35.0554 66.8953 34.9936 66.722 34.8778C66.5488 34.7621 66.4138 34.5976 66.3341 34.4051C66.2544 34.2126 66.2335 34.0008 66.2741 33.7965C66.3148 33.5922 66.4151 33.4045 66.5624 33.2572C66.7097 33.1098 66.8974 33.0095 67.1018 32.9689C67.3061 32.9282 67.5179 32.9491 67.7104 33.0288C67.9028 33.1085 68.0674 33.2436 68.1831 33.4168C68.2988 33.59 68.3606 33.7937 68.3606 34.002C68.3606 34.2814 68.2496 34.5493 68.0521 34.7468C67.8546 34.9444 67.5866 35.0554 67.3073 35.0554Z" fill="white" stroke="#263238" stroke-linecap="round" stroke-linejoin="round"/>
<path d="M64.5521 35.0554C64.3437 35.0557 64.1399 34.9942 63.9664 34.8787C63.793 34.7631 63.6577 34.5987 63.5777 34.4063C63.4977 34.2138 63.4767 34.002 63.5171 33.7975C63.5576 33.5931 63.6577 33.4052 63.805 33.2578C63.9522 33.1103 64.1399 33.0098 64.3443 32.969C64.5487 32.9282 64.7606 32.949 64.9531 33.0287C65.1457 33.1083 65.3103 33.2433 65.4261 33.4166C65.542 33.5899 65.6038 33.7936 65.6038 34.002C65.6038 34.2811 65.493 34.5487 65.2959 34.7462C65.0987 34.9437 64.8312 35.0549 64.5521 35.0554Z" fill="white" stroke="#263238" stroke-linecap="round" stroke-linejoin="round"/>
<path d="M61.7955 35.0554C61.5872 35.0554 61.3836 34.9936 61.2103 34.8778C61.0371 34.7621 60.9021 34.5976 60.8224 34.4051C60.7426 34.2126 60.7218 34.0008 60.7624 33.7965C60.8031 33.5922 60.9034 33.4045 61.0507 33.2572C61.198 33.1098 61.3857 33.0095 61.5901 32.9689C61.7944 32.9282 62.0062 32.9491 62.1987 33.0288C62.3911 33.1085 62.5556 33.2436 62.6714 33.4168C62.7871 33.59 62.8489 33.7937 62.8489 34.002C62.8489 34.2814 62.7379 34.5493 62.5404 34.7468C62.3428 34.9444 62.0749 35.0554 61.7955 35.0554Z" fill="white" stroke="#263238" stroke-linecap="round" stroke-linejoin="round"/>
<path d="M72.82 32.9503C73.4017 32.9503 73.8733 32.4787 73.8733 31.897C73.8733 31.3152 73.4017 30.8436 72.82 30.8436C72.2382 30.8436 71.7666 31.3152 71.7666 31.897C71.7666 32.4787 72.2382 32.9503 72.82 32.9503Z" fill="white" stroke="#263238" stroke-linecap="round" stroke-linejoin="round"/>
<path d="M70.0631 32.9503C70.6449 32.9503 71.1165 32.4787 71.1165 31.897C71.1165 31.3152 70.6449 30.8436 70.0631 30.8436C69.4814 30.8436 69.0098 31.3152 69.0098 31.897C69.0098 32.4787 69.4814 32.9503 70.0631 32.9503Z" fill="white" stroke="#263238" stroke-linecap="round" stroke-linejoin="round"/>
<path d="M67.3073 32.9503C67.889 32.9503 68.3606 32.4787 68.3606 31.897C68.3606 31.3152 67.889 30.8436 67.3073 30.8436C66.7255 30.8436 66.2539 31.3152 66.2539 31.897C66.2539 32.4787 66.7255 32.9503 67.3073 32.9503Z" fill="white" stroke="#263238" stroke-linecap="round" stroke-linejoin="round"/>
<path d="M64.5524 32.9503C65.1341 32.9503 65.6057 32.4787 65.6057 31.897C65.6057 31.3152 65.1341 30.8436 64.5524 30.8436C63.9706 30.8436 63.499 31.3152 63.499 31.897C63.499 32.4787 63.9706 32.9503 64.5524 32.9503Z" fill="white" stroke="#263238" stroke-linecap="round" stroke-linejoin="round"/>
<path d="M61.7955 32.9503C62.3773 32.9503 62.8489 32.4787 62.8489 31.897C62.8489 31.3152 62.3773 30.8436 61.7955 30.8436C61.2138 30.8436 60.7422 31.3152 60.7422 31.897C60.7422 32.4787 61.2138 32.9503 61.7955 32.9503Z" fill="white" stroke="#263238" stroke-linecap="round" stroke-linejoin="round"/>
<path d="M74.332 34.259V31.5979H60.3645V34.259H74.332Z" fill="white" stroke="#263238" stroke-linecap="round" stroke-linejoin="round"/>
<path d="M74.2812 32.8814H60.4111" stroke="#263238" stroke-linecap="round" stroke-linejoin="round"/>
<path d="M72.82 66.6646C73.4017 66.6646 73.8733 66.193 73.8733 65.6112C73.8733 65.0294 73.4017 64.5578 72.82 64.5578C72.2382 64.5578 71.7666 65.0294 71.7666 65.6112C71.7666 66.193 72.2382 66.6646 72.82 66.6646Z" fill="white" stroke="#263238" stroke-linecap="round" stroke-linejoin="round"/>
<path d="M70.0631 66.6646C70.6449 66.6646 71.1165 66.193 71.1165 65.6112C71.1165 65.0294 70.6449 64.5578 70.0631 64.5578C69.4814 64.5578 69.0098 65.0294 69.0098 65.6112C69.0098 66.193 69.4814 66.6646 70.0631 66.6646Z" fill="white" stroke="#263238" stroke-linecap="round" stroke-linejoin="round"/>
<path d="M67.3073 66.6646C67.889 66.6646 68.3606 66.193 68.3606 65.6112C68.3606 65.0294 67.889 64.5578 67.3073 64.5578C66.7255 64.5578 66.2539 65.0294 66.2539 65.6112C66.2539 66.193 66.7255 66.6646 67.3073 66.6646Z" fill="white" stroke="#263238" stroke-linecap="round" stroke-linejoin="round"/>
<path d="M64.5524 66.6646C65.1341 66.6646 65.6057 66.193 65.6057 65.6112C65.6057 65.0294 65.1341 64.5578 64.5524 64.5578C63.9706 64.5578 63.499 65.0294 63.499 65.6112C63.499 66.193 63.9706 66.6646 64.5524 66.6646Z" fill="white" stroke="#263238" stroke-linecap="round" stroke-linejoin="round"/>
<path d="M61.7955 66.6646C62.3773 66.6646 62.8489 66.193 62.8489 65.6112C62.8489 65.0294 62.3773 64.5578 61.7955 64.5578C61.2138 64.5578 60.7422 65.0294 60.7422 65.6112C60.7422 66.193 61.2138 66.6646 61.7955 66.6646Z" fill="white" stroke="#263238" stroke-linecap="round" stroke-linejoin="round"/>
<path d="M72.8197 64.5578C72.6112 64.5582 72.4073 64.4966 72.2338 64.381C72.0604 64.2654 71.9251 64.1009 71.8452 63.9084C71.7652 63.7158 71.7442 63.5039 71.7848 63.2994C71.8254 63.0949 71.9258 62.9071 72.0732 62.7596C72.2206 62.6122 72.4084 62.5119 72.6129 62.4713C72.8174 62.4307 73.0293 62.4517 73.2219 62.5316C73.4144 62.6116 73.5789 62.7468 73.6945 62.9203C73.8102 63.0938 73.8717 63.2977 73.8714 63.5062C73.8709 63.7849 73.76 64.0522 73.5629 64.2493C73.3657 64.4465 73.0985 64.5574 72.8197 64.5578Z" fill="white" stroke="#263238" stroke-linecap="round" stroke-linejoin="round"/>
<path d="M70.0641 64.5578C69.8557 64.5578 69.652 64.496 69.4787 64.3802C69.3054 64.2644 69.1704 64.0998 69.0908 63.9072C69.0111 63.7146 68.9903 63.5027 69.0311 63.2984C69.0719 63.094 69.1724 62.9063 69.3199 62.759C69.4673 62.6118 69.6552 62.5116 69.8596 62.4712C70.0641 62.4307 70.2759 62.4518 70.4684 62.5318C70.6608 62.6118 70.8252 62.747 70.9408 62.9205C71.0563 63.0939 71.1178 63.2978 71.1175 63.5062C71.1175 63.6444 71.0902 63.7813 71.0372 63.909C70.9843 64.0367 70.9067 64.1527 70.8088 64.2504C70.711 64.3481 70.5949 64.4255 70.4671 64.4783C70.3393 64.531 70.2024 64.5581 70.0641 64.5578Z" fill="white" stroke="#263238" stroke-linecap="round" stroke-linejoin="round"/>
<path d="M67.3073 64.5578C67.0989 64.5578 66.8951 64.496 66.7219 64.3802C66.5486 64.2644 66.4136 64.0998 66.3339 63.9072C66.2543 63.7146 66.2335 63.5027 66.2743 63.2984C66.3151 63.094 66.4155 62.9063 66.563 62.759C66.7105 62.6118 66.8984 62.5116 67.1028 62.4712C67.3072 62.4307 67.5191 62.4518 67.7115 62.5318C67.904 62.6118 68.0684 62.747 68.1839 62.9205C68.2995 63.0939 68.361 63.2978 68.3606 63.5062C68.3602 63.7852 68.249 64.0527 68.0515 64.2499C67.854 64.4471 67.5863 64.5578 67.3073 64.5578Z" fill="white" stroke="#263238" stroke-linecap="round" stroke-linejoin="round"/>
<path d="M64.5521 64.5578C64.3436 64.5582 64.1397 64.4966 63.9663 64.381C63.7928 64.2654 63.6575 64.1009 63.5776 63.9084C63.4976 63.7158 63.4766 63.5039 63.5172 63.2994C63.5578 63.0949 63.6582 62.9071 63.8056 62.7596C63.953 62.6122 64.1409 62.5119 64.3453 62.4713C64.5498 62.4307 64.7618 62.4517 64.9543 62.5316C65.1469 62.6116 65.3114 62.7468 65.427 62.9203C65.5426 63.0938 65.6041 63.2977 65.6038 63.5062C65.6033 63.7849 65.4924 64.0522 65.2953 64.2493C65.0981 64.4465 64.8309 64.5574 64.5521 64.5578Z" fill="white" stroke="#263238" stroke-linecap="round" stroke-linejoin="round"/>
<path d="M61.7955 64.5578C61.5871 64.5578 61.3834 64.496 61.2102 64.3802C61.0369 64.2644 60.9019 64.0998 60.8222 63.9072C60.7425 63.7146 60.7218 63.5027 60.7626 63.2984C60.8033 63.094 60.9038 62.9063 61.0513 62.759C61.1988 62.6118 61.3866 62.5116 61.5911 62.4712C61.7955 62.4307 62.0074 62.4518 62.1998 62.5318C62.3923 62.6118 62.5567 62.747 62.6722 62.9205C62.7877 63.0939 62.8492 63.2978 62.8489 63.5062C62.8489 63.6444 62.8216 63.7813 62.7687 63.909C62.7157 64.0367 62.6381 64.1527 62.5403 64.2504C62.4424 64.3481 62.3263 64.4255 62.1985 64.4783C62.0707 64.531 61.9338 64.5581 61.7955 64.5578Z" fill="white" stroke="#263238" stroke-linecap="round" stroke-linejoin="round"/>
<path d="M74.332 65.8682V63.2071H60.3645V65.8682H74.332Z" fill="white" stroke="#263238" stroke-linecap="round" stroke-linejoin="round"/>
<path d="M74.2812 64.4906H60.4111" stroke="#263238" stroke-linecap="round" stroke-linejoin="round"/>
<path d="M52.9103 0.865681H50.0039V73.5089H52.9103V0.865681Z" fill="white" stroke="#263238" stroke-linecap="round" stroke-linejoin="round"/>
<path d="M49.8088 25.854C49.9805 25.854 50.1196 25.7149 50.1196 25.5432C50.1196 25.3716 49.9805 25.2324 49.8088 25.2324C49.6372 25.2324 49.498 25.3716 49.498 25.5432C49.498 25.7149 49.6372 25.854 49.8088 25.854Z" fill="white" stroke="#263238" stroke-linecap="round" stroke-linejoin="round"/>
<path d="M50.6253 25.854C50.7969 25.854 50.9361 25.7149 50.9361 25.5432C50.9361 25.3716 50.7969 25.2324 50.6253 25.2324C50.4536 25.2324 50.3145 25.3716 50.3145 25.5432C50.3145 25.7149 50.4536 25.854 50.6253 25.854Z" fill="white" stroke="#263238" stroke-linecap="round" stroke-linejoin="round"/>
<path d="M51.4397 25.854C51.6114 25.854 51.7505 25.7149 51.7505 25.5432C51.7505 25.3716 51.6114 25.2324 51.4397 25.2324C51.2681 25.2324 51.1289 25.3716 51.1289 25.5432C51.1289 25.7149 51.2681 25.854 51.4397 25.854Z" fill="white" stroke="#263238" stroke-linecap="round" stroke-linejoin="round"/>
<path d="M52.2551 25.854C52.4268 25.854 52.5659 25.7149 52.5659 25.5432C52.5659 25.3716 52.4268 25.2324 52.2551 25.2324C52.0835 25.2324 51.9443 25.3716 51.9443 25.5432C51.9443 25.7149 52.0835 25.854 52.2551 25.854Z" fill="white" stroke="#263238" stroke-linecap="round" stroke-linejoin="round"/>
<path d="M53.0696 25.854C53.2412 25.854 53.3804 25.7149 53.3804 25.5432C53.3804 25.3716 53.2412 25.2324 53.0696 25.2324C52.8979 25.2324 52.7588 25.3716 52.7588 25.5432C52.7588 25.7149 52.8979 25.854 53.0696 25.854Z" fill="white" stroke="#263238" stroke-linecap="round" stroke-linejoin="round"/>
<path d="M49.8088 26.4756C49.9805 26.4756 50.1196 26.3365 50.1196 26.1648C50.1196 25.9932 49.9805 25.854 49.8088 25.854C49.6372 25.854 49.498 25.9932 49.498 26.1648C49.498 26.3365 49.6372 26.4756 49.8088 26.4756Z" fill="white" stroke="#263238" stroke-linecap="round" stroke-linejoin="round"/>
<path d="M50.6253 26.4756C50.7969 26.4756 50.9361 26.3365 50.9361 26.1648C50.9361 25.9932 50.7969 25.854 50.6253 25.854C50.4536 25.854 50.3145 25.9932 50.3145 26.1648C50.3145 26.3365 50.4536 26.4756 50.6253 26.4756Z" fill="white" stroke="#263238" stroke-linecap="round" stroke-linejoin="round"/>
<path d="M51.4397 26.4756C51.6114 26.4756 51.7505 26.3365 51.7505 26.1648C51.7505 25.9932 51.6114 25.854 51.4397 25.854C51.2681 25.854 51.1289 25.9932 51.1289 26.1648C51.1289 26.3365 51.2681 26.4756 51.4397 26.4756Z" fill="white" stroke="#263238" stroke-linecap="round" stroke-linejoin="round"/>
<path d="M52.2551 26.4756C52.4268 26.4756 52.5659 26.3365 52.5659 26.1648C52.5659 25.9932 52.4268 25.854 52.2551 25.854C52.0835 25.854 51.9443 25.9932 51.9443 26.1648C51.9443 26.3365 52.0835 26.4756 52.2551 26.4756Z" fill="white" stroke="#263238" stroke-linecap="round" stroke-linejoin="round"/>
<path d="M53.0696 26.4756C53.2412 26.4756 53.3804 26.3365 53.3804 26.1648C53.3804 25.9932 53.2412 25.854 53.0696 25.854C52.8979 25.854 52.7588 25.9932 52.7588 26.1648C52.7588 26.3365 52.8979 26.4756 53.0696 26.4756Z" fill="white" stroke="#263238" stroke-linecap="round" stroke-linejoin="round"/>
<path d="M49.3633 25.4676V26.2538H53.4927V25.4676H49.3633Z" fill="white" stroke="#263238" stroke-linecap="round" stroke-linejoin="round"/>
<path d="M49.377 25.8742H53.4778" stroke="#263238" stroke-linecap="round" stroke-linejoin="round"/>
<path d="M49.8088 8.83896C49.9805 8.83896 50.1196 8.69981 50.1196 8.52816C50.1196 8.35651 49.9805 8.21736 49.8088 8.21736C49.6372 8.21736 49.498 8.35651 49.498 8.52816C49.498 8.69981 49.6372 8.83896 49.8088 8.83896Z" fill="white" stroke="#263238" stroke-linecap="round" stroke-linejoin="round"/>
<path d="M50.6253 8.83896C50.7969 8.83896 50.9361 8.69981 50.9361 8.52816C50.9361 8.35651 50.7969 8.21736 50.6253 8.21736C50.4536 8.21736 50.3145 8.35651 50.3145 8.52816C50.3145 8.69981 50.4536 8.83896 50.6253 8.83896Z" fill="white" stroke="#263238" stroke-linecap="round" stroke-linejoin="round"/>
<path d="M51.4397 8.83896C51.6114 8.83896 51.7505 8.69981 51.7505 8.52816C51.7505 8.35651 51.6114 8.21736 51.4397 8.21736C51.2681 8.21736 51.1289 8.35651 51.1289 8.52816C51.1289 8.69981 51.2681 8.83896 51.4397 8.83896Z" fill="white" stroke="#263238" stroke-linecap="round" stroke-linejoin="round"/>
<path d="M52.2551 8.83896C52.4268 8.83896 52.5659 8.69981 52.5659 8.52816C52.5659 8.35651 52.4268 8.21736 52.2551 8.21736C52.0835 8.21736 51.9443 8.35651 51.9443 8.52816C51.9443 8.69981 52.0835 8.83896 52.2551 8.83896Z" fill="white" stroke="#263238" stroke-linecap="round" stroke-linejoin="round"/>
<path d="M53.0696 8.83896C53.2412 8.83896 53.3804 8.69981 53.3804 8.52816C53.3804 8.35651 53.2412 8.21736 53.0696 8.21736C52.8979 8.21736 52.7588 8.35651 52.7588 8.52816C52.7588 8.69981 52.8979 8.83896 53.0696 8.83896Z" fill="white" stroke="#263238" stroke-linecap="round" stroke-linejoin="round"/>
<path d="M49.8088 9.46056C49.9805 9.46056 50.1196 9.32141 50.1196 9.14976C50.1196 8.97811 49.9805 8.83896 49.8088 8.83896C49.6372 8.83896 49.498 8.97811 49.498 9.14976C49.498 9.32141 49.6372 9.46056 49.8088 9.46056Z" fill="white" stroke="#263238" stroke-linecap="round" stroke-linejoin="round"/>
<path d="M50.6253 9.46056C50.7969 9.46056 50.9361 9.32141 50.9361 9.14976C50.9361 8.97811 50.7969 8.83896 50.6253 8.83896C50.4536 8.83896 50.3145 8.97811 50.3145 9.14976C50.3145 9.32141 50.4536 9.46056 50.6253 9.46056Z" fill="white" stroke="#263238" stroke-linecap="round" stroke-linejoin="round"/>
<path d="M51.4397 9.46056C51.6114 9.46056 51.7505 9.32141 51.7505 9.14976C51.7505 8.97811 51.6114 8.83896 51.4397 8.83896C51.2681 8.83896 51.1289 8.97811 51.1289 9.14976C51.1289 9.32141 51.2681 9.46056 51.4397 9.46056Z" fill="white" stroke="#263238" stroke-linecap="round" stroke-linejoin="round"/>
<path d="M52.2551 9.46056C52.4268 9.46056 52.5659 9.32141 52.5659 9.14976C52.5659 8.97811 52.4268 8.83896 52.2551 8.83896C52.0835 8.83896 51.9443 8.97811 51.9443 9.14976C51.9443 9.32141 52.0835 9.46056 52.2551 9.46056Z" fill="white" stroke="#263238" stroke-linecap="round" stroke-linejoin="round"/>
<path d="M53.0696 9.46056C53.2412 9.46056 53.3804 9.32141 53.3804 9.14976C53.3804 8.97811 53.2412 8.83896 53.0696 8.83896C52.8979 8.83896 52.7588 8.97811 52.7588 9.14976C52.7588 9.32141 52.8979 9.46056 53.0696 9.46056Z" fill="white" stroke="#263238" stroke-linecap="round" stroke-linejoin="round"/>
<path d="M49.3633 8.45256V9.2388H53.4927V8.45256H49.3633Z" fill="white" stroke="#263238" stroke-linecap="round" stroke-linejoin="round"/>
<path d="M49.377 8.85912H53.4778" stroke="#263238" stroke-linecap="round" stroke-linejoin="round"/>
<path d="M49.8088 32.7101C49.9805 32.7101 50.1196 32.5709 50.1196 32.3993C50.1196 32.2276 49.9805 32.0885 49.8088 32.0885C49.6372 32.0885 49.498 32.2276 49.498 32.3993C49.498 32.5709 49.6372 32.7101 49.8088 32.7101Z" fill="white" stroke="#263238" stroke-linecap="round" stroke-linejoin="round"/>
<path d="M50.6253 32.7101C50.7969 32.7101 50.9361 32.5709 50.9361 32.3993C50.9361 32.2276 50.7969 32.0885 50.6253 32.0885C50.4536 32.0885 50.3145 32.2276 50.3145 32.3993C50.3145 32.5709 50.4536 32.7101 50.6253 32.7101Z" fill="white" stroke="#263238" stroke-linecap="round" stroke-linejoin="round"/>
<path d="M51.4397 32.7101C51.6114 32.7101 51.7505 32.5709 51.7505 32.3993C51.7505 32.2276 51.6114 32.0885 51.4397 32.0885C51.2681 32.0885 51.1289 32.2276 51.1289 32.3993C51.1289 32.5709 51.2681 32.7101 51.4397 32.7101Z" fill="white" stroke="#263238" stroke-linecap="round" stroke-linejoin="round"/>
<path d="M52.2551 32.7101C52.4268 32.7101 52.5659 32.5709 52.5659 32.3993C52.5659 32.2276 52.4268 32.0885 52.2551 32.0885C52.0835 32.0885 51.9443 32.2276 51.9443 32.3993C51.9443 32.5709 52.0835 32.7101 52.2551 32.7101Z" fill="white" stroke="#263238" stroke-linecap="round" stroke-linejoin="round"/>
<path d="M53.0696 32.7101C53.2412 32.7101 53.3804 32.5709 53.3804 32.3993C53.3804 32.2276 53.2412 32.0885 53.0696 32.0885C52.8979 32.0885 52.7588 32.2276 52.7588 32.3993C52.7588 32.5709 52.8979 32.7101 53.0696 32.7101Z" fill="white" stroke="#263238" stroke-linecap="round" stroke-linejoin="round"/>
<path d="M49.8088 33.3334C49.9805 33.3334 50.1196 33.1942 50.1196 33.0226C50.1196 32.8509 49.9805 32.7118 49.8088 32.7118C49.6372 32.7118 49.498 32.8509 49.498 33.0226C49.498 33.1942 49.6372 33.3334 49.8088 33.3334Z" fill="white" stroke="#263238" stroke-linecap="round" stroke-linejoin="round"/>
<path d="M50.6253 33.3334C50.7969 33.3334 50.9361 33.1942 50.9361 33.0226C50.9361 32.8509 50.7969 32.7118 50.6253 32.7118C50.4536 32.7118 50.3145 32.8509 50.3145 33.0226C50.3145 33.1942 50.4536 33.3334 50.6253 33.3334Z" fill="white" stroke="#263238" stroke-linecap="round" stroke-linejoin="round"/>
<path d="M51.4397 33.3334C51.6114 33.3334 51.7505 33.1942 51.7505 33.0226C51.7505 32.8509 51.6114 32.7118 51.4397 32.7118C51.2681 32.7118 51.1289 32.8509 51.1289 33.0226C51.1289 33.1942 51.2681 33.3334 51.4397 33.3334Z" fill="white" stroke="#263238" stroke-linecap="round" stroke-linejoin="round"/>
<path d="M52.2551 33.3334C52.4268 33.3334 52.5659 33.1942 52.5659 33.0226C52.5659 32.8509 52.4268 32.7118 52.2551 32.7118C52.0835 32.7118 51.9443 32.8509 51.9443 33.0226C51.9443 33.1942 52.0835 33.3334 52.2551 33.3334Z" fill="white" stroke="#263238" stroke-linecap="round" stroke-linejoin="round"/>
<path d="M53.0696 33.3334C53.2412 33.3334 53.3804 33.1942 53.3804 33.0226C53.3804 32.8509 53.2412 32.7118 53.0696 32.7118C52.8979 32.7118 52.7588 32.8509 52.7588 33.0226C52.7588 33.1942 52.8979 33.3334 53.0696 33.3334Z" fill="white" stroke="#263238" stroke-linecap="round" stroke-linejoin="round"/>
<path d="M49.3613 32.3254V33.1116H53.4908V32.3254H49.3613Z" fill="white" stroke="#263238" stroke-linecap="round" stroke-linejoin="round"/>
<path d="M49.377 32.7319H53.4778" stroke="#263238" stroke-linecap="round" stroke-linejoin="round"/>
<path d="M50.5025 22.3949C52.2422 22.3949 53.6525 20.4069 53.6525 17.9546C53.6525 15.5024 52.2422 13.5144 50.5025 13.5144C48.7628 13.5144 47.3525 15.5024 47.3525 17.9546C47.3525 20.4069 48.7628 22.3949 50.5025 22.3949Z" fill="white" stroke="#263238" stroke-linecap="round" stroke-linejoin="round"/>
<path d="M49.5416 22.3949C51.2813 22.3949 52.6916 20.4069 52.6916 17.9546C52.6916 15.5024 51.2813 13.5144 49.5416 13.5144C47.8019 13.5144 46.3916 15.5024 46.3916 17.9546C46.3916 20.4069 47.8019 22.3949 49.5416 22.3949Z" fill="white" stroke="#263238" stroke-linecap="round" stroke-linejoin="round"/>
<path d="M49.1503 15.4918H47.4888V17.1281C47.341 17.6926 47.341 18.2856 47.4888 18.8501V20.4864H49.1503C50.1281 20.4864 50.921 19.3692 50.921 17.9899C50.921 16.6106 50.1281 15.4918 49.1503 15.4918Z" fill="white" stroke="#263238" stroke-linecap="round" stroke-linejoin="round"/>
<path d="M47.4885 20.4864C48.4664 20.4864 49.2592 19.3687 49.2592 17.9899C49.2592 16.6112 48.4664 15.4934 47.4885 15.4934C46.5106 15.4934 45.7178 16.6112 45.7178 17.9899C45.7178 19.3687 46.5106 20.4864 47.4885 20.4864Z" fill="white" stroke="#263238" stroke-linecap="round" stroke-linejoin="round"/>
<path d="M104.347 37.1705H100.489V42.7582H104.347V37.1705Z" fill="white" stroke="#263238" stroke-linecap="round" stroke-linejoin="round"/>
<path d="M106.209 35.0419H98.3604V39.9643H106.209V35.0419Z" fill="white" stroke="#263238" stroke-linecap="round" stroke-linejoin="round"/>
<path d="M102.35 36.7387C104.756 36.7387 106.707 34.7884 106.707 32.3825C106.707 29.9766 104.756 28.0262 102.35 28.0262C99.9445 28.0262 97.9941 29.9766 97.9941 32.3825C97.9941 34.7884 99.9445 36.7387 102.35 36.7387Z" fill="white" stroke="#263238" stroke-linecap="round" stroke-linejoin="round"/>
<path d="M102.35 39.0336C106.024 39.0336 109.001 36.0558 109.001 32.3825C109.001 28.7092 106.024 25.7314 102.35 25.7314C98.677 25.7314 95.6992 28.7092 95.6992 32.3825C95.6992 36.0558 98.677 39.0336 102.35 39.0336Z" stroke="#263238" stroke-width="4" stroke-linecap="round" stroke-linejoin="round"/>
<path d="M103.436 32.3825C103.437 32.1678 103.373 31.9578 103.254 31.7791C103.135 31.6004 102.966 31.461 102.767 31.3786C102.569 31.2962 102.351 31.2745 102.14 31.3162C101.93 31.3579 101.736 31.4611 101.584 31.6128C101.432 31.7645 101.329 31.9579 101.287 32.1685C101.245 32.379 101.266 32.5973 101.348 32.7957C101.43 32.9941 101.569 33.1637 101.748 33.2831C101.926 33.4024 102.136 33.4661 102.351 33.4661C102.638 33.4661 102.914 33.352 103.118 33.1488C103.321 32.9456 103.436 32.67 103.436 32.3825Z" stroke="#263238" stroke-width="4" stroke-linecap="round" stroke-linejoin="round"/>
<path d="M102.351 25.7314V38.8992" stroke="#263238" stroke-width="4" stroke-linecap="round" stroke-linejoin="round"/>
<path d="M95.6992 32.3825H109.001" stroke="#263238" stroke-width="4" stroke-linecap="round" stroke-linejoin="round"/>
<path d="M0.750977 41.7367H107.36C111.052 41.7416 114.591 43.2103 117.202 45.8208C119.812 48.4313 121.281 51.9705 121.286 55.6622V73.5694H110.03V55.6622C110.029 54.9544 109.748 54.2756 109.248 53.7751C108.747 53.2746 108.068 52.9932 107.36 52.9927H0.750977" fill="white"/>
<path d="M0.750977 41.7367H107.36C111.052 41.7416 114.591 43.2103 117.202 45.8208C119.812 48.4313 121.281 51.9705 121.286 55.6622V73.5694H110.03V55.6622C110.029 54.9544 109.748 54.2756 109.248 53.7751C108.747 53.2746 108.068 52.9932 107.36 52.9927H0.750977" stroke="#263238" stroke-linecap="round" stroke-linejoin="round"/>
<path d="M50.6826 51.8806H53.5907" stroke="#263238" stroke-linecap="round" stroke-linejoin="round"/>
<path d="M39.418 51.8806H49.9364" stroke="#263238" stroke-linecap="round" stroke-linejoin="round"/>
<path d="M89.791 51.8806H92.6991" stroke="#263238" stroke-linecap="round" stroke-linejoin="round"/>
<path d="M62.7666 51.8806H89.0452" stroke="#263238" stroke-linecap="round" stroke-linejoin="round"/>
<path d="M98.9768 42.2239C98.9772 42.4323 98.9157 42.6362 98.8001 42.8096C98.6846 42.983 98.5202 43.1183 98.3278 43.1983C98.1353 43.2783 97.9234 43.2994 97.719 43.2589C97.5146 43.2185 97.3267 43.1183 97.1792 42.971C97.0317 42.8238 96.9313 42.6361 96.8905 42.4317C96.8497 42.2273 96.8705 42.0155 96.9501 41.8229C97.0298 41.6303 97.1648 41.4657 97.3381 41.3499C97.5113 41.2341 97.7151 41.1722 97.9235 41.1722C98.2026 41.1722 98.4702 41.283 98.6677 41.4802C98.8652 41.6774 98.9764 41.9448 98.9768 42.2239Z" fill="white" stroke="#263238" stroke-linecap="round" stroke-linejoin="round"/>
<path d="M98.9768 44.9808C98.9768 45.1891 98.9151 45.3928 98.7993 45.566C98.6836 45.7392 98.5191 45.8743 98.3266 45.954C98.1341 46.0337 97.9223 46.0546 97.718 46.0139C97.5136 45.9733 97.326 45.873 97.1786 45.7256C97.0313 45.5783 96.931 45.3906 96.8904 45.1863C96.8497 44.982 96.8706 44.7702 96.9503 44.5777C97.03 44.3852 97.165 44.2207 97.3383 44.105C97.5115 43.9892 97.7151 43.9274 97.9235 43.9274C98.2028 43.9274 98.4708 44.0384 98.6683 44.236C98.8659 44.4335 98.9768 44.7014 98.9768 44.9808Z" fill="white" stroke="#263238" stroke-linecap="round" stroke-linejoin="round"/>
<path d="M98.9768 47.736C98.9772 47.9444 98.9157 48.1482 98.8001 48.3217C98.6846 48.4951 98.5202 48.6304 98.3278 48.7104C98.1353 48.7904 97.9234 48.8115 97.719 48.771C97.5146 48.7305 97.3267 48.6304 97.1792 48.4831C97.0317 48.3359 96.9313 48.1482 96.8905 47.9438C96.8497 47.7394 96.8705 47.5275 96.9501 47.335C97.0298 47.1424 97.1648 46.9778 97.3381 46.862C97.5113 46.7461 97.7151 46.6843 97.9235 46.6843C98.2026 46.6843 98.4702 46.7951 98.6677 46.9922C98.8652 47.1894 98.9764 47.4569 98.9768 47.736Z" fill="white" stroke="#263238" stroke-linecap="round" stroke-linejoin="round"/>
<path d="M98.9768 50.4929C98.9768 50.7012 98.9151 50.9049 98.7993 51.0781C98.6836 51.2513 98.5191 51.3863 98.3266 51.4661C98.1341 51.5458 97.9223 51.5666 97.718 51.526C97.5136 51.4854 97.326 51.385 97.1786 51.2377C97.0313 51.0904 96.931 50.9027 96.8904 50.6984C96.8497 50.494 96.8706 50.2823 96.9503 50.0898C97.03 49.8973 97.165 49.7328 97.3383 49.617C97.5115 49.5013 97.7151 49.4395 97.9235 49.4395C98.2028 49.4395 98.4708 49.5505 98.6683 49.748C98.8659 49.9456 98.9768 50.2135 98.9768 50.4929Z" fill="white" stroke="#263238" stroke-linecap="round" stroke-linejoin="round"/>
<path d="M98.9768 53.2481C98.9768 53.4564 98.9151 53.6601 98.7993 53.8333C98.6836 54.0065 98.5191 54.1415 98.3266 54.2213C98.1341 54.301 97.9223 54.3218 97.718 54.2812C97.5136 54.2406 97.326 54.1402 97.1786 53.9929C97.0313 53.8456 96.931 53.6579 96.8904 53.4536C96.8497 53.2492 96.8706 53.0375 96.9503 52.845C97.03 52.6525 97.165 52.488 97.3383 52.3722C97.5115 52.2565 97.7151 52.1947 97.9235 52.1947C98.2028 52.1947 98.4708 52.3057 98.6683 52.5032C98.8659 52.7008 98.9768 52.9687 98.9768 53.2481Z" fill="white" stroke="#263238" stroke-linecap="round" stroke-linejoin="round"/>
<path d="M95.819 43.2773C96.4007 43.2773 96.8723 42.8057 96.8723 42.2239C96.8723 41.6422 96.4007 41.1706 95.819 41.1706C95.2372 41.1706 94.7656 41.6422 94.7656 42.2239C94.7656 42.8057 95.2372 43.2773 95.819 43.2773Z" fill="white" stroke="#263238" stroke-linecap="round" stroke-linejoin="round"/>
<path d="M95.819 46.0342C96.4007 46.0342 96.8723 45.5626 96.8723 44.9808C96.8723 44.399 96.4007 43.9274 95.819 43.9274C95.2372 43.9274 94.7656 44.399 94.7656 44.9808C94.7656 45.5626 95.2372 46.0342 95.819 46.0342Z" fill="white" stroke="#263238" stroke-linecap="round" stroke-linejoin="round"/>
<path d="M95.819 48.7894C96.4007 48.7894 96.8723 48.3178 96.8723 47.736C96.8723 47.1542 96.4007 46.6826 95.819 46.6826C95.2372 46.6826 94.7656 47.1542 94.7656 47.736C94.7656 48.3178 95.2372 48.7894 95.819 48.7894Z" fill="white" stroke="#263238" stroke-linecap="round" stroke-linejoin="round"/>
<path d="M95.819 51.5462C96.4007 51.5462 96.8723 51.0746 96.8723 50.4929C96.8723 49.9111 96.4007 49.4395 95.819 49.4395C95.2372 49.4395 94.7656 49.9111 94.7656 50.4929C94.7656 51.0746 95.2372 51.5462 95.819 51.5462Z" fill="white" stroke="#263238" stroke-linecap="round" stroke-linejoin="round"/>
<path d="M95.819 54.3014C96.4007 54.3014 96.8723 53.8298 96.8723 53.2481C96.8723 52.6663 96.4007 52.1947 95.819 52.1947C95.2372 52.1947 94.7656 52.6663 94.7656 53.2481C94.7656 53.8298 95.2372 54.3014 95.819 54.3014Z" fill="white" stroke="#263238" stroke-linecap="round" stroke-linejoin="round"/>
<path d="M98.1806 40.7136H95.5195V54.6811H98.1806V40.7136Z" fill="white" stroke="#263238" stroke-linecap="round" stroke-linejoin="round"/>
<path d="M96.8037 40.7623V54.6324" stroke="#263238" stroke-linecap="round" stroke-linejoin="round"/>
<path d="M108.169 43.2773C108.75 43.2773 109.222 42.8057 109.222 42.2239C109.222 41.6422 108.75 41.1706 108.169 41.1706C107.587 41.1706 107.115 41.6422 107.115 42.2239C107.115 42.8057 107.587 43.2773 108.169 43.2773Z" fill="white" stroke="#263238" stroke-linecap="round" stroke-linejoin="round"/>
<path d="M108.169 46.0342C108.75 46.0342 109.222 45.5626 109.222 44.9808C109.222 44.399 108.75 43.9274 108.169 43.9274C107.587 43.9274 107.115 44.399 107.115 44.9808C107.115 45.5626 107.587 46.0342 108.169 46.0342Z" fill="white" stroke="#263238" stroke-linecap="round" stroke-linejoin="round"/>
<path d="M108.169 48.7894C108.75 48.7894 109.222 48.3178 109.222 47.736C109.222 47.1542 108.75 46.6826 108.169 46.6826C107.587 46.6826 107.115 47.1542 107.115 47.736C107.115 48.3178 107.587 48.7894 108.169 48.7894Z" fill="white" stroke="#263238" stroke-linecap="round" stroke-linejoin="round"/>
<path d="M108.169 51.5462C108.75 51.5462 109.222 51.0746 109.222 50.4929C109.222 49.9111 108.75 49.4395 108.169 49.4395C107.587 49.4395 107.115 49.9111 107.115 50.4929C107.115 51.0746 107.587 51.5462 108.169 51.5462Z" fill="white" stroke="#263238" stroke-linecap="round" stroke-linejoin="round"/>
<path d="M108.169 54.3014C108.75 54.3014 109.222 53.8298 109.222 53.2481C109.222 52.6663 108.75 52.1947 108.169 52.1947C107.587 52.1947 107.115 52.6663 107.115 53.2481C107.115 53.8298 107.587 54.3014 108.169 54.3014Z" fill="white" stroke="#263238" stroke-linecap="round" stroke-linejoin="round"/>
<path d="M107.116 42.2239C107.117 42.4323 107.055 42.6362 106.94 42.8096C106.824 42.983 106.66 43.1183 106.467 43.1983C106.275 43.2783 106.063 43.2994 105.859 43.2589C105.654 43.2185 105.466 43.1183 105.319 42.971C105.171 42.8238 105.071 42.6361 105.03 42.4317C104.989 42.2273 105.01 42.0155 105.09 41.8229C105.169 41.6303 105.304 41.4657 105.478 41.3499C105.651 41.2341 105.855 41.1722 106.063 41.1722C106.342 41.1722 106.61 41.283 106.807 41.4802C107.005 41.6774 107.116 41.9448 107.116 42.2239Z" fill="white" stroke="#263238" stroke-linecap="round" stroke-linejoin="round"/>
<path d="M107.116 44.9808C107.116 45.1891 107.055 45.3928 106.939 45.566C106.823 45.7392 106.659 45.8743 106.466 45.954C106.274 46.0337 106.062 46.0546 105.858 46.0139C105.653 45.9733 105.466 45.873 105.318 45.7256C105.171 45.5783 105.071 45.3906 105.03 45.1863C104.989 44.982 105.01 44.7702 105.09 44.5777C105.17 44.3852 105.305 44.2207 105.478 44.105C105.651 43.9892 105.855 43.9274 106.063 43.9274C106.342 43.9274 106.61 44.0384 106.808 44.236C107.006 44.4335 107.116 44.7014 107.116 44.9808Z" fill="white" stroke="#263238" stroke-linecap="round" stroke-linejoin="round"/>
<path d="M107.116 47.736C107.117 47.9444 107.055 48.1482 106.94 48.3217C106.824 48.4951 106.66 48.6304 106.467 48.7104C106.275 48.7904 106.063 48.8115 105.859 48.771C105.654 48.7305 105.466 48.6304 105.319 48.4831C105.171 48.3359 105.071 48.1482 105.03 47.9438C104.989 47.7394 105.01 47.5275 105.09 47.335C105.169 47.1424 105.304 46.9778 105.478 46.862C105.651 46.7461 105.855 46.6843 106.063 46.6843C106.342 46.6843 106.61 46.7951 106.807 46.9922C107.005 47.1894 107.116 47.4569 107.116 47.736Z" fill="white" stroke="#263238" stroke-linecap="round" stroke-linejoin="round"/>
<path d="M107.116 50.4929C107.116 50.7012 107.055 50.9049 106.939 51.0781C106.823 51.2513 106.659 51.3863 106.466 51.4661C106.274 51.5458 106.062 51.5666 105.858 51.526C105.653 51.4854 105.466 51.385 105.318 51.2377C105.171 51.0904 105.071 50.9027 105.03 50.6984C104.989 50.494 105.01 50.2823 105.09 50.0898C105.17 49.8973 105.305 49.7328 105.478 49.617C105.651 49.5013 105.855 49.4395 106.063 49.4395C106.342 49.4395 106.61 49.5505 106.808 49.748C107.006 49.9456 107.116 50.2135 107.116 50.4929Z" fill="white" stroke="#263238" stroke-linecap="round" stroke-linejoin="round"/>
<path d="M107.116 53.2481C107.116 53.4564 107.055 53.6601 106.939 53.8333C106.823 54.0065 106.659 54.1415 106.466 54.2213C106.274 54.301 106.062 54.3218 105.858 54.2812C105.653 54.2406 105.466 54.1402 105.318 53.9929C105.171 53.8456 105.071 53.6579 105.03 53.4536C104.989 53.2492 105.01 53.0375 105.09 52.845C105.17 52.6525 105.305 52.488 105.478 52.3722C105.651 52.2565 105.855 52.1947 106.063 52.1947C106.342 52.1947 106.61 52.3057 106.808 52.5032C107.006 52.7008 107.116 52.9687 107.116 53.2481Z" fill="white" stroke="#263238" stroke-linecap="round" stroke-linejoin="round"/>
<path d="M108.426 40.7136H105.765V54.6811H108.426V40.7136Z" fill="white" stroke="#263238" stroke-linecap="round" stroke-linejoin="round"/>
<path d="M107.05 40.7623V54.6324" stroke="#263238" stroke-linecap="round" stroke-linejoin="round"/>
<path d="M59.319 43.2773C59.9007 43.2773 60.3723 42.8057 60.3723 42.2239C60.3723 41.6422 59.9007 41.1706 59.319 41.1706C58.7372 41.1706 58.2656 41.6422 58.2656 42.2239C58.2656 42.8057 58.7372 43.2773 59.319 43.2773Z" fill="white" stroke="#263238" stroke-linecap="round" stroke-linejoin="round"/>
<path d="M59.319 46.0342C59.9007 46.0342 60.3723 45.5626 60.3723 44.9808C60.3723 44.399 59.9007 43.9274 59.319 43.9274C58.7372 43.9274 58.2656 44.399 58.2656 44.9808C58.2656 45.5626 58.7372 46.0342 59.319 46.0342Z" fill="white" stroke="#263238" stroke-linecap="round" stroke-linejoin="round"/>
<path d="M59.319 48.7894C59.9007 48.7894 60.3723 48.3178 60.3723 47.736C60.3723 47.1542 59.9007 46.6826 59.319 46.6826C58.7372 46.6826 58.2656 47.1542 58.2656 47.736C58.2656 48.3178 58.7372 48.7894 59.319 48.7894Z" fill="white" stroke="#263238" stroke-linecap="round" stroke-linejoin="round"/>
<path d="M59.319 51.5462C59.9007 51.5462 60.3723 51.0746 60.3723 50.4929C60.3723 49.9111 59.9007 49.4395 59.319 49.4395C58.7372 49.4395 58.2656 49.9111 58.2656 50.4929C58.2656 51.0746 58.7372 51.5462 59.319 51.5462Z" fill="white" stroke="#263238" stroke-linecap="round" stroke-linejoin="round"/>
<path d="M59.319 54.3014C59.9007 54.3014 60.3723 53.8298 60.3723 53.2481C60.3723 52.6663 59.9007 52.1947 59.319 52.1947C58.7372 52.1947 58.2656 52.6663 58.2656 53.2481C58.2656 53.8298 58.7372 54.3014 59.319 54.3014Z" fill="white" stroke="#263238" stroke-linecap="round" stroke-linejoin="round"/>
<path d="M58.2659 42.2239C58.2662 42.4324 58.2047 42.6363 58.0891 42.8098C57.9735 42.9833 57.809 43.1185 57.6164 43.1985C57.4239 43.2784 57.2119 43.2994 57.0074 43.2588C56.803 43.2182 56.6151 43.1179 56.4677 42.9704C56.3203 42.823 56.2199 42.6352 56.1793 42.4307C56.1387 42.2262 56.1597 42.0143 56.2397 41.8217C56.3196 41.6292 56.4549 41.4647 56.6284 41.3491C56.8019 41.2334 57.0057 41.1719 57.2142 41.1722C57.493 41.1727 57.7602 41.2836 57.9574 41.4808C58.1545 41.6779 58.2655 41.9451 58.2659 42.2239Z" fill="white" stroke="#263238" stroke-linecap="round" stroke-linejoin="round"/>
<path d="M58.2659 44.9808C58.2659 45.1892 58.2041 45.3929 58.0883 45.5662C57.9724 45.7395 57.8078 45.8745 57.6153 45.9541C57.4227 46.0338 57.2108 46.0546 57.0064 46.0138C56.802 45.973 56.6144 45.8725 56.4671 45.725C56.3199 45.5776 56.2197 45.3897 56.1792 45.1853C56.1388 44.9808 56.1599 44.769 56.2398 44.5765C56.3198 44.3841 56.4551 44.2197 56.6285 44.1041C56.802 43.9886 57.0058 43.9271 57.2142 43.9274C57.3525 43.9274 57.4894 43.9547 57.6171 44.0077C57.7448 44.0606 57.8608 44.1382 57.9585 44.2361C58.0561 44.3339 58.1336 44.45 58.1863 44.5778C58.2391 44.7056 58.2661 44.8426 58.2659 44.9808Z" fill="white" stroke="#263238" stroke-linecap="round" stroke-linejoin="round"/>
<path d="M58.2659 47.736C58.2662 47.9445 58.2047 48.1484 58.0891 48.3218C57.9735 48.4953 57.809 48.6306 57.6164 48.7105C57.4239 48.7905 57.2119 48.8115 57.0074 48.7709C56.803 48.7303 56.6151 48.6299 56.4677 48.4825C56.3203 48.3351 56.2199 48.1473 56.1793 47.9428C56.1387 47.7383 56.1597 47.5263 56.2397 47.3338C56.3196 47.1413 56.4549 46.9768 56.6284 46.8611C56.8019 46.7455 57.0057 46.684 57.2142 46.6843C57.493 46.6848 57.7602 46.7957 57.9574 46.9928C58.1545 47.19 58.2655 47.4572 58.2659 47.736Z" fill="white" stroke="#263238" stroke-linecap="round" stroke-linejoin="round"/>
<path d="M58.2659 50.4929C58.2659 50.7013 58.2041 50.905 58.0883 51.0783C57.9724 51.2515 57.8078 51.3865 57.6153 51.4662C57.4227 51.5459 57.2108 51.5667 57.0064 51.5259C56.802 51.4851 56.6144 51.3846 56.4671 51.2371C56.3199 51.0896 56.2197 50.9018 56.1792 50.6973C56.1388 50.4929 56.1599 50.2811 56.2398 50.0886C56.3198 49.8962 56.4551 49.7318 56.6285 49.6162C56.802 49.5007 57.0058 49.4392 57.2142 49.4395C57.3525 49.4395 57.4894 49.4668 57.6171 49.5197C57.7448 49.5727 57.8608 49.6503 57.9585 49.7481C58.0561 49.846 58.1336 49.9621 58.1863 50.0899C58.2391 50.2177 58.2661 50.3546 58.2659 50.4929Z" fill="white" stroke="#263238" stroke-linecap="round" stroke-linejoin="round"/>
<path d="M58.2659 53.2481C58.2659 53.4565 58.2041 53.6602 58.0883 53.8335C57.9724 54.0067 57.8078 54.1417 57.6153 54.2214C57.4227 54.3011 57.2108 54.3219 57.0064 54.2811C56.802 54.2403 56.6144 54.1398 56.4671 53.9923C56.3199 53.8448 56.2197 53.657 56.1792 53.4525C56.1388 53.2481 56.1599 53.0363 56.2398 52.8438C56.3198 52.6514 56.4551 52.487 56.6285 52.3714C56.802 52.2559 57.0058 52.1944 57.2142 52.1947C57.4933 52.1952 57.7608 52.3063 57.958 52.5038C58.1552 52.7013 58.2659 52.969 58.2659 53.2481Z" fill="white" stroke="#263238" stroke-linecap="round" stroke-linejoin="round"/>
<path d="M59.5742 40.7136H56.9131V54.6811H59.5742V40.7136Z" fill="white" stroke="#263238" stroke-linecap="round" stroke-linejoin="round"/>
<path d="M58.1982 40.7623V54.6324" stroke="#263238" stroke-linecap="round" stroke-linejoin="round"/>
<path d="M22.1286 43.2773C22.7103 43.2773 23.1819 42.8057 23.1819 42.2239C23.1819 41.6422 22.7103 41.1706 22.1286 41.1706C21.5468 41.1706 21.0752 41.6422 21.0752 42.2239C21.0752 42.8057 21.5468 43.2773 22.1286 43.2773Z" fill="white" stroke="#263238" stroke-linecap="round" stroke-linejoin="round"/>
<path d="M22.1286 46.0342C22.7103 46.0342 23.1819 45.5626 23.1819 44.9808C23.1819 44.399 22.7103 43.9274 22.1286 43.9274C21.5468 43.9274 21.0752 44.399 21.0752 44.9808C21.0752 45.5626 21.5468 46.0342 22.1286 46.0342Z" fill="white" stroke="#263238" stroke-linecap="round" stroke-linejoin="round"/>
<path d="M22.1286 48.7894C22.7103 48.7894 23.1819 48.3178 23.1819 47.736C23.1819 47.1542 22.7103 46.6826 22.1286 46.6826C21.5468 46.6826 21.0752 47.1542 21.0752 47.736C21.0752 48.3178 21.5468 48.7894 22.1286 48.7894Z" fill="white" stroke="#263238" stroke-linecap="round" stroke-linejoin="round"/>
<path d="M22.1286 51.5462C22.7103 51.5462 23.1819 51.0746 23.1819 50.4929C23.1819 49.9111 22.7103 49.4395 22.1286 49.4395C21.5468 49.4395 21.0752 49.9111 21.0752 50.4929C21.0752 51.0746 21.5468 51.5462 22.1286 51.5462Z" fill="white" stroke="#263238" stroke-linecap="round" stroke-linejoin="round"/>
<path d="M22.1286 54.3014C22.7103 54.3014 23.1819 53.8298 23.1819 53.2481C23.1819 52.6663 22.7103 52.1947 22.1286 52.1947C21.5468 52.1947 21.0752 52.6663 21.0752 53.2481C21.0752 53.8298 21.5468 54.3014 22.1286 54.3014Z" fill="white" stroke="#263238" stroke-linecap="round" stroke-linejoin="round"/>
<path d="M20.0241 43.2773C20.6058 43.2773 21.0774 42.8057 21.0774 42.2239C21.0774 41.6422 20.6058 41.1706 20.0241 41.1706C19.4423 41.1706 18.9707 41.6422 18.9707 42.2239C18.9707 42.8057 19.4423 43.2773 20.0241 43.2773Z" fill="white" stroke="#263238" stroke-linecap="round" stroke-linejoin="round"/>
<path d="M20.0241 46.0342C20.6058 46.0342 21.0774 45.5626 21.0774 44.9808C21.0774 44.399 20.6058 43.9274 20.0241 43.9274C19.4423 43.9274 18.9707 44.399 18.9707 44.9808C18.9707 45.5626 19.4423 46.0342 20.0241 46.0342Z" fill="white" stroke="#263238" stroke-linecap="round" stroke-linejoin="round"/>
<path d="M20.0241 48.7894C20.6058 48.7894 21.0774 48.3178 21.0774 47.736C21.0774 47.1542 20.6058 46.6826 20.0241 46.6826C19.4423 46.6826 18.9707 47.1542 18.9707 47.736C18.9707 48.3178 19.4423 48.7894 20.0241 48.7894Z" fill="white" stroke="#263238" stroke-linecap="round" stroke-linejoin="round"/>
<path d="M20.0241 51.5462C20.6058 51.5462 21.0774 51.0746 21.0774 50.4929C21.0774 49.9111 20.6058 49.4395 20.0241 49.4395C19.4423 49.4395 18.9707 49.9111 18.9707 50.4929C18.9707 51.0746 19.4423 51.5462 20.0241 51.5462Z" fill="white" stroke="#263238" stroke-linecap="round" stroke-linejoin="round"/>
<path d="M20.0241 54.3014C20.6058 54.3014 21.0774 53.8298 21.0774 53.2481C21.0774 52.6663 20.6058 52.1947 20.0241 52.1947C19.4423 52.1947 18.9707 52.6663 18.9707 53.2481C18.9707 53.8298 19.4423 54.3014 20.0241 54.3014Z" fill="white" stroke="#263238" stroke-linecap="round" stroke-linejoin="round"/>
<path d="M22.3857 40.7136H19.7246V54.6811H22.3857V40.7136Z" fill="white" stroke="#263238" stroke-linecap="round" stroke-linejoin="round"/>
<path d="M21.0088 40.7623V54.6324" stroke="#263238" stroke-linecap="round" stroke-linejoin="round"/>
<path d="M121.176 64.9745C121.758 64.9745 122.23 64.5029 122.23 63.9211C122.23 63.3394 121.758 62.8678 121.176 62.8678C120.595 62.8678 120.123 63.3394 120.123 63.9211C120.123 64.5029 120.595 64.9745 121.176 64.9745Z" fill="white" stroke="#263238" stroke-linecap="round" stroke-linejoin="round"/>
<path d="M118.422 64.9745C119.003 64.9745 119.475 64.5029 119.475 63.9211C119.475 63.3394 119.003 62.8678 118.422 62.8678C117.84 62.8678 117.368 63.3394 117.368 63.9211C117.368 64.5029 117.84 64.9745 118.422 64.9745Z" fill="white" stroke="#263238" stroke-linecap="round" stroke-linejoin="round"/>
<path d="M115.665 64.9745C116.246 64.9745 116.718 64.5029 116.718 63.9211C116.718 63.3394 116.246 62.8678 115.665 62.8678C115.083 62.8678 114.611 63.3394 114.611 63.9211C114.611 64.5029 115.083 64.9745 115.665 64.9745Z" fill="white" stroke="#263238" stroke-linecap="round" stroke-linejoin="round"/>
<path d="M112.91 64.9745C113.492 64.9745 113.963 64.5029 113.963 63.9211C113.963 63.3394 113.492 62.8678 112.91 62.8678C112.328 62.8678 111.856 63.3394 111.856 63.9211C111.856 64.5029 112.328 64.9745 112.91 64.9745Z" fill="white" stroke="#263238" stroke-linecap="round" stroke-linejoin="round"/>
<path d="M110.153 64.9745C110.735 64.9745 111.206 64.5029 111.206 63.9211C111.206 63.3394 110.735 62.8678 110.153 62.8678C109.571 62.8678 109.1 63.3394 109.1 63.9211C109.1 64.5029 109.571 64.9745 110.153 64.9745Z" fill="white" stroke="#263238" stroke-linecap="round" stroke-linejoin="round"/>
<path d="M121.176 62.8694C121.758 62.8694 122.23 62.3978 122.23 61.8161C122.23 61.2343 121.758 60.7627 121.176 60.7627C120.595 60.7627 120.123 61.2343 120.123 61.8161C120.123 62.3978 120.595 62.8694 121.176 62.8694Z" fill="white" stroke="#263238" stroke-linecap="round" stroke-linejoin="round"/>
<path d="M118.422 62.8694C119.003 62.8694 119.475 62.3978 119.475 61.8161C119.475 61.2343 119.003 60.7627 118.422 60.7627C117.84 60.7627 117.368 61.2343 117.368 61.8161C117.368 62.3978 117.84 62.8694 118.422 62.8694Z" fill="white" stroke="#263238" stroke-linecap="round" stroke-linejoin="round"/>
<path d="M115.665 62.8694C116.246 62.8694 116.718 62.3978 116.718 61.8161C116.718 61.2343 116.246 60.7627 115.665 60.7627C115.083 60.7627 114.611 61.2343 114.611 61.8161C114.611 62.3978 115.083 62.8694 115.665 62.8694Z" fill="white" stroke="#263238" stroke-linecap="round" stroke-linejoin="round"/>
<path d="M112.91 62.8694C113.492 62.8694 113.963 62.3978 113.963 61.8161C113.963 61.2343 113.492 60.7627 112.91 60.7627C112.328 60.7627 111.856 61.2343 111.856 61.8161C111.856 62.3978 112.328 62.8694 112.91 62.8694Z" fill="white" stroke="#263238" stroke-linecap="round" stroke-linejoin="round"/>
<path d="M110.153 62.8694C110.735 62.8694 111.206 62.3978 111.206 61.8161C111.206 61.2343 110.735 60.7627 110.153 60.7627C109.571 60.7627 109.1 61.2343 109.1 61.8161C109.1 62.3978 109.571 62.8694 110.153 62.8694Z" fill="white" stroke="#263238" stroke-linecap="round" stroke-linejoin="round"/>
<path d="M122.688 64.1782V61.517H108.72V64.1782H122.688Z" fill="white" stroke="#263238" stroke-linecap="round" stroke-linejoin="round"/>
<path d="M122.639 62.8006H108.769" stroke="#263238" stroke-linecap="round" stroke-linejoin="round"/>
</svg>
