<svg width="100" height="96" viewBox="0 0 100 96" fill="none" xmlns="http://www.w3.org/2000/svg">
<path d="M28.7278 18.1096C30.1069 10.8662 25.353 3.87627 18.1096 2.49714C10.8662 1.11801 3.87627 5.87194 2.49714 13.1153C1.11801 20.3587 5.87194 27.3487 13.1153 28.7278C20.3587 30.107 27.3487 25.353 28.7278 18.1096Z" fill="#EBEBEB"/>
<path d="M16.2232 28.6489C23.2587 28.6489 28.9621 22.9455 28.9621 15.9101C28.9621 8.8746 23.2587 3.17122 16.2232 3.17122C9.18775 3.17122 3.48438 8.8746 3.48438 15.9101C3.48438 22.9455 9.18775 28.6489 16.2232 28.6489Z" fill="#DBDBDB"/>
<path d="M16.2238 27.8448C22.8152 27.8448 28.1586 22.5015 28.1586 15.9101C28.1586 9.31869 22.8152 3.97531 16.2238 3.97531C9.63244 3.97531 4.28906 9.31869 4.28906 15.9101C4.28906 22.5015 9.63244 27.8448 16.2238 27.8448Z" fill="white"/>
<path opacity="0.5" d="M27.889 13.3781C22.4546 16.6712 13.5216 22.0694 8.52774 25.0351C7.11521 23.8445 5.99737 22.3433 5.26172 20.6487L21.7793 5.35535C23.3209 6.16652 24.6664 7.30489 25.7218 8.69073C26.7772 10.0766 27.5169 11.6764 27.889 13.3781Z" fill="#EBEBEB"/>
<path opacity="0.5" d="M28.1515 16.3279C28.1084 17.6557 27.8419 18.9668 27.3632 20.206L12.4764 27.2463C11.8275 27.0323 11.1987 26.7617 10.5972 26.4377C15.0942 23.8402 23.3089 19.1129 28.1515 16.3279Z" fill="#EBEBEB"/>
<path d="M16.3388 4.84263H16.1084V6.65182H16.3388V4.84263Z" fill="#C7C7C7"/>
<path d="M10.7903 6.26775L10.5908 6.38294L11.4954 7.94975L11.6949 7.83455L10.7903 6.26775Z" fill="#C7C7C7"/>
<path d="M6.7607 10.2214L6.64551 10.4219L8.2195 11.3265L8.33469 11.126L6.7607 10.2214Z" fill="#C7C7C7"/>
<path d="M6.96544 15.7949H5.15625V16.0253H6.96544V15.7949Z" fill="#C7C7C7"/>
<path d="M8.14883 20.441L6.58203 21.3456L6.69722 21.5451L8.26402 20.6405L8.14883 20.441Z" fill="#C7C7C7"/>
<path d="M11.4956 23.8719L10.5918 25.4392L10.7914 25.5543L11.6951 23.987L11.4956 23.8719Z" fill="#C7C7C7"/>
<path d="M16.3388 25.1706H16.1084V26.9798H16.3388V25.1706Z" fill="#C7C7C7"/>
<path d="M20.9524 23.8736L20.7529 23.9888L21.6575 25.5556L21.857 25.4404L20.9524 23.8736Z" fill="#C7C7C7"/>
<path d="M24.3012 20.4378L24.186 20.6373L25.7528 21.5419L25.868 21.3424L24.3012 20.4378Z" fill="#C7C7C7"/>
<path d="M27.2931 15.7949H25.4839V16.0253H27.2931V15.7949Z" fill="#C7C7C7"/>
<path d="M25.7527 10.273L24.186 11.1779L24.3013 11.3774L25.8679 10.4725L25.7527 10.273Z" fill="#C7C7C7"/>
<path d="M21.6582 6.2673L20.7544 7.83458L20.954 7.94967L21.8577 6.38239L21.6582 6.2673Z" fill="#C7C7C7"/>
<path d="M16.3973 5.66027L16.7903 16.7164L15.6587 16.7029L16.0901 5.65801L16.3973 5.66027Z" fill="#C7C7C7"/>
<path d="M23.2837 12.0568L15.846 16.8045L15.3062 15.8084L23.1369 11.7858L23.2837 12.0568Z" fill="#A6A6A6"/>
<path d="M16.6098 15.9101C16.6089 15.9863 16.5855 16.0605 16.5426 16.1234C16.4996 16.1863 16.439 16.2351 16.3683 16.2637C16.2977 16.2922 16.2201 16.2992 16.1455 16.2838C16.0709 16.2684 16.0025 16.2313 15.9489 16.1771C15.8954 16.1229 15.859 16.0541 15.8445 15.9793C15.83 15.9045 15.8379 15.827 15.8672 15.7567C15.8966 15.6864 15.9461 15.6264 16.0095 15.5841C16.0729 15.5419 16.1474 15.5193 16.2236 15.5193C16.2747 15.5193 16.3253 15.5295 16.3725 15.5492C16.4196 15.5688 16.4624 15.5977 16.4983 15.634C16.5342 15.6704 16.5626 15.7135 16.5817 15.7609C16.6009 15.8083 16.6104 15.859 16.6098 15.9101Z" fill="#C7C7C7"/>
<path d="M97.1601 4.5603H52.5493V35.4317H97.1601V4.5603Z" fill="#DBDBDB"/>
<path d="M95.3379 6.38304H54.3726V33.6248H95.3379V6.38304Z" fill="#EBEBEB"/>
<path d="M65.6025 11.6841H57.1348V21.7193H65.6025V11.6841Z" fill="white"/>
<path d="M61.6723 12.3685C61.6723 12.4289 61.6544 12.4879 61.6208 12.5381C61.5872 12.5883 61.5394 12.6274 61.4836 12.6504C61.4277 12.6734 61.3663 12.6793 61.3071 12.6674C61.2479 12.6554 61.1936 12.6262 61.151 12.5833C61.1085 12.5404 61.0796 12.4859 61.0681 12.4266C61.0566 12.3673 61.0629 12.3059 61.0864 12.2502C61.1098 12.1946 61.1492 12.1471 61.1997 12.1139C61.2501 12.0806 61.3093 12.0631 61.3697 12.0636C61.4096 12.0636 61.4492 12.0715 61.486 12.0868C61.5229 12.1022 61.5564 12.1247 61.5845 12.153C61.6126 12.1814 61.6349 12.215 61.6499 12.252C61.665 12.289 61.6726 12.3286 61.6723 12.3685Z" fill="#455A64"/>
<path d="M58.7451 13.6943C59.6011 13.6288 60.4594 13.6243 61.3155 13.6153C62.1715 13.6062 63.0275 13.6288 63.8836 13.6943C63.0275 13.7621 62.1715 13.7643 61.3155 13.7756C60.4594 13.7869 59.6011 13.7598 58.7451 13.6943Z" fill="#EBEBEB"/>
<path d="M58.7451 14.4871C59.2091 14.4326 59.676 14.4062 60.1432 14.4081C60.6097 14.4051 61.0759 14.4315 61.5391 14.4871C60.6109 14.5955 59.6733 14.5955 58.7451 14.4871Z" fill="#EBEBEB"/>
<path d="M58.7451 15.2935C59.3414 15.2302 59.9354 15.2167 60.5295 15.2121C61.1235 15.2076 61.7198 15.2302 62.3138 15.2935C61.7198 15.3544 61.1257 15.3703 60.5295 15.3725C59.9332 15.3748 59.3414 15.3431 58.7451 15.2935Z" fill="#EBEBEB"/>
<path d="M58.7451 16.075C59.4905 16.0117 60.2336 15.9982 60.9789 15.9936C61.7243 15.9891 62.4674 16.0117 63.2105 16.075C62.4674 16.1359 61.722 16.1518 60.9789 16.154C60.2358 16.1563 59.4905 16.1359 58.7451 16.075Z" fill="#EBEBEB"/>
<path d="M58.7451 16.8745C59.3934 16.8113 60.0393 16.7977 60.6853 16.7932C61.3313 16.7887 61.9773 16.8113 62.6255 16.8745C61.9773 16.9355 61.3313 16.9513 60.6853 16.9536C60.0393 16.9558 59.3934 16.9287 58.7451 16.8745Z" fill="#EBEBEB"/>
<path d="M58.7451 17.6605C59.574 17.595 60.4007 17.5905 61.2296 17.5815C62.0586 17.5724 62.8852 17.5928 63.7142 17.6605C62.8852 17.726 62.0586 17.7306 61.2296 17.7396C60.4007 17.7486 59.574 17.726 58.7451 17.6605Z" fill="#EBEBEB"/>
<path d="M58.7451 18.4556C59.8116 18.3502 60.8859 18.3502 61.9524 18.4556C61.4198 18.5123 60.8844 18.5387 60.3488 18.5346C59.8132 18.5376 59.2778 18.5112 58.7451 18.4556Z" fill="#EBEBEB"/>
<path d="M58.7451 19.2461C59.6011 19.1806 60.4594 19.1761 61.3155 19.1671C62.1715 19.158 63.0275 19.1806 63.8836 19.2461C63.0275 19.3116 62.1715 19.3161 61.3155 19.3252C60.4594 19.3342 59.6011 19.3116 58.7451 19.2461Z" fill="#EBEBEB"/>
<path d="M58.7451 20.0366C59.6011 19.9711 60.4594 19.9666 61.3155 19.9576C62.1715 19.9486 63.0275 19.9711 63.8836 20.0366C63.0275 20.1044 62.1715 20.1067 61.3155 20.1157C60.4594 20.1247 59.6011 20.1044 58.7451 20.0366Z" fill="#EBEBEB"/>
<path d="M93.0449 8.59879H84.5771V18.634H93.0449V8.59879Z" fill="white"/>
<path d="M89.1176 9.2809C89.1162 9.3409 89.0972 9.39918 89.0629 9.44842C89.0286 9.49767 88.9805 9.53569 88.9247 9.55773C88.8689 9.57978 88.8078 9.58486 88.7491 9.57234C88.6904 9.55982 88.6367 9.53026 88.5948 9.48735C88.5528 9.44445 88.5244 9.39012 88.5132 9.33117C88.502 9.27221 88.5084 9.21125 88.5317 9.15593C88.5549 9.1006 88.594 9.05338 88.644 9.02016C88.694 8.98695 88.7526 8.96922 88.8127 8.96921C88.8533 8.9692 88.8935 8.9773 88.9309 8.99305C88.9684 9.00879 89.0023 9.03186 89.0307 9.0609C89.0591 9.08993 89.0814 9.12435 89.0963 9.16213C89.1113 9.19991 89.1185 9.24029 89.1176 9.2809Z" fill="#455A64"/>
<path d="M86.1904 10.609C87.0465 10.5412 87.9025 10.539 88.7585 10.5277C89.6146 10.5164 90.4706 10.5412 91.3266 10.609C90.4706 10.6745 89.6146 10.679 88.7585 10.688C87.9025 10.6971 87.0465 10.6745 86.1904 10.609Z" fill="#EBEBEB"/>
<path d="M86.1904 11.4018C87.1178 11.2934 88.0547 11.2934 88.9821 11.4018C88.0546 11.5072 87.118 11.5072 86.1904 11.4018Z" fill="#EBEBEB"/>
<path d="M86.1904 12.1946C87.3777 12.0892 88.5719 12.0892 89.7591 12.1946C89.1651 12.2556 88.5688 12.2714 87.9748 12.2736C87.3807 12.2759 86.7845 12.2556 86.1904 12.1946Z" fill="#EBEBEB"/>
<path d="M86.1904 12.9874C86.9335 12.9241 87.6789 12.9106 88.422 12.9083C89.1651 12.9061 89.9104 12.9241 90.6558 12.9874C89.9104 13.0506 89.1673 13.0642 88.422 13.0664C87.6766 13.0687 86.9335 13.0483 86.1904 12.9874Z" fill="#EBEBEB"/>
<path d="M86.1904 13.7802C86.8364 13.7124 87.4779 13.7124 88.1306 13.7124C88.7834 13.7124 89.4226 13.7282 90.0686 13.7915C89.4226 13.8547 88.7766 13.8682 88.1306 13.8705C87.4846 13.8728 86.8364 13.8411 86.1904 13.7802Z" fill="#EBEBEB"/>
<path d="M86.1904 14.5729C87.0171 14.5074 87.846 14.5029 88.675 14.4939C89.5039 14.4849 90.3306 14.5074 91.1595 14.5729C90.3328 14.6407 89.5039 14.643 88.675 14.652C87.846 14.661 87.0261 14.6384 86.1904 14.5729Z" fill="#EBEBEB"/>
<path d="M86.1904 15.3657C87.2569 15.2603 88.3312 15.2603 89.3977 15.3657C88.3314 15.4742 87.2568 15.4742 86.1904 15.3657Z" fill="#EBEBEB"/>
<path d="M86.1904 16.1585C87.0465 16.093 87.9025 16.0885 88.7585 16.0795C89.6146 16.0704 90.4706 16.093 91.3266 16.1585C90.4706 16.2263 89.6146 16.2308 88.7585 16.2398C87.9025 16.2489 87.0465 16.224 86.1904 16.1585Z" fill="#EBEBEB"/>
<path d="M86.1904 16.9513C87.0465 16.8858 87.9025 16.8813 88.7585 16.8723C89.6146 16.8632 90.4706 16.8858 91.3266 16.9513C90.4706 17.0191 89.6146 17.0236 88.7585 17.0326C87.9025 17.0417 87.0465 17.0191 86.1904 16.9513Z" fill="#EBEBEB"/>
<path d="M82.0451 16.7706H72.0234V28.6444H82.0451V16.7706Z" fill="white"/>
<path d="M77.3384 18.372C77.3384 18.4323 77.3205 18.4913 77.287 18.5414C77.2535 18.5916 77.2058 18.6306 77.1501 18.6537C77.0944 18.6768 77.0331 18.6828 76.974 18.6711C76.9148 18.6593 76.8605 18.6303 76.8178 18.5876C76.7752 18.545 76.7461 18.4906 76.7344 18.4315C76.7226 18.3724 76.7286 18.311 76.7517 18.2553C76.7748 18.1996 76.8139 18.152 76.864 18.1185C76.9142 18.085 76.9731 18.0671 77.0334 18.0671C77.0736 18.0668 77.1133 18.0745 77.1505 18.0897C77.1876 18.1049 77.2213 18.1274 77.2497 18.1557C77.2781 18.1841 77.3005 18.2178 77.3158 18.255C77.331 18.2921 77.3387 18.3319 77.3384 18.372Z" fill="#455A64"/>
<path d="M73.4268 19.7317C73.7946 19.6773 74.1661 19.6509 74.538 19.6527C74.9099 19.6498 75.2815 19.6762 75.6493 19.7317C74.9124 19.8401 74.1636 19.8401 73.4268 19.7317Z" fill="#EBEBEB"/>
<path d="M73.4268 20.6284C74.383 20.523 75.348 20.523 76.3043 20.6284C75.348 20.7338 74.383 20.7338 73.4268 20.6284Z" fill="#EBEBEB"/>
<path d="M73.4268 21.5228C74.312 21.4174 75.2067 21.4174 76.092 21.5228C75.2067 21.6283 74.312 21.6283 73.4268 21.5228Z" fill="#EBEBEB"/>
<path d="M73.4268 22.4195C74.3119 22.3111 75.2069 22.3111 76.092 22.4195C75.65 22.4751 75.2048 22.5015 74.7594 22.4986C74.3139 22.5004 73.8688 22.474 73.4268 22.4195Z" fill="#EBEBEB"/>
<path d="M73.4268 23.314C74.1949 23.2086 74.9738 23.2086 75.7419 23.314C75.3591 23.3706 74.9724 23.397 74.5855 23.393C74.1978 23.396 73.8104 23.3695 73.4268 23.314Z" fill="#EBEBEB"/>
<path d="M73.4268 24.2084C74.4117 24.103 75.4051 24.103 76.3901 24.2084C75.4053 24.3168 74.4116 24.3168 73.4268 24.2084Z" fill="#EBEBEB"/>
<path d="M73.4268 25.1051C74.2385 24.9967 75.0611 24.9967 75.8729 25.1051C75.468 25.1606 75.0596 25.1871 74.6509 25.1841C74.2416 25.186 73.8325 25.1596 73.4268 25.1051Z" fill="#EBEBEB"/>
<path d="M73.4268 25.9995C73.936 25.9439 74.4481 25.9175 74.9604 25.9205C75.4727 25.9164 75.9848 25.9428 76.494 25.9995C75.4743 26.105 74.4465 26.105 73.4268 25.9995Z" fill="#EBEBEB"/>
<path d="M73.4268 26.8939C73.9361 26.8395 74.4481 26.8131 74.9604 26.8149C75.4727 26.8119 75.9847 26.8383 76.494 26.8939C75.4745 27.0024 74.4463 27.0024 73.4268 26.8939Z" fill="#EBEBEB"/>
<path d="M77.8066 19.7317C78.2896 19.6773 78.7752 19.6509 79.2612 19.6527C79.748 19.6497 80.2345 19.6761 80.7181 19.7317C79.7506 19.8401 78.7741 19.8401 77.8066 19.7317Z" fill="#EBEBEB"/>
<path d="M77.8066 20.6284C78.44 20.523 79.0864 20.523 79.7197 20.6284C79.0864 20.7338 78.44 20.7338 77.8066 20.6284Z" fill="#EBEBEB"/>
<path d="M77.8066 21.5228C78.7169 21.4174 79.6362 21.4174 80.5464 21.5228C79.6362 21.6283 78.7169 21.6283 77.8066 21.5228Z" fill="#EBEBEB"/>
<path d="M77.8066 22.4195C78.6917 22.3111 79.5868 22.3111 80.4719 22.4195C80.0299 22.4751 79.5847 22.5015 79.1392 22.4986C78.6938 22.5005 78.2487 22.4741 77.8066 22.4195Z" fill="#EBEBEB"/>
<path d="M77.8066 23.314C78.7743 23.2086 79.7504 23.2086 80.7181 23.314C80.2346 23.3707 79.748 23.3971 79.2612 23.393C78.7752 23.396 78.2895 23.3696 77.8066 23.314Z" fill="#EBEBEB"/>
<path d="M77.8066 24.2084C78.5748 24.103 79.3537 24.103 80.1218 24.2084C79.3539 24.3168 78.5745 24.3168 77.8066 24.2084Z" fill="#EBEBEB"/>
<path d="M77.8066 25.1051C78.7167 24.9967 79.6364 24.9967 80.5464 25.1051C80.0915 25.1606 79.6336 25.187 79.1754 25.1841C78.7179 25.1859 78.2608 25.1595 77.8066 25.1051Z" fill="#EBEBEB"/>
<path d="M77.8066 25.9995C78.157 25.9439 78.5113 25.9175 78.866 25.9205C79.2207 25.9165 79.5751 25.943 79.9253 25.9995C79.223 26.1049 78.5089 26.1049 77.8066 25.9995Z" fill="#EBEBEB"/>
<path d="M77.8066 26.8939C78.1427 26.8396 78.4826 26.8131 78.823 26.8149C79.1635 26.812 79.5035 26.8385 79.8394 26.8939C79.1662 27.0023 78.4799 27.0023 77.8066 26.8939Z" fill="#EBEBEB"/>
<path d="M69.9188 8.92629H64.8232V14.0218H69.9188V8.92629Z" fill="#407BFF"/>
<path d="M67.6762 9.44353C67.6762 9.50403 67.6582 9.56316 67.6245 9.61339C67.5908 9.66363 67.5429 9.7027 67.4869 9.72564C67.431 9.74858 67.3694 9.75435 67.3102 9.74222C67.2509 9.73008 67.1966 9.70059 67.1541 9.65749C67.1117 9.61439 67.083 9.55964 67.0717 9.5002C67.0605 9.44076 67.0672 9.37931 67.0909 9.32368C67.1147 9.26805 67.1545 9.22074 67.2052 9.18779C67.256 9.15483 67.3154 9.13771 67.3758 9.13861C67.4559 9.1398 67.5323 9.17244 67.5885 9.2295C67.6447 9.28655 67.6763 9.36344 67.6762 9.44353Z" fill="#455A64"/>
<path d="M95.3126 6.38304H94.626V33.6541H95.3126V6.38304Z" fill="#C7C7C7"/>
<path d="M51.6963 95.878C78.3737 95.878 100 93.7544 100 91.1348C100 88.5152 78.3737 86.3916 51.6963 86.3916C25.0189 86.3916 3.39258 88.5152 3.39258 91.1348C3.39258 93.7544 25.0189 95.878 51.6963 95.878Z" fill="#EBEBEB"/>
<path d="M2.16797 82.5022L14.2337 82.4457L26.3018 82.4277L50.4356 82.3893L74.5694 82.4277L86.6374 82.4457L98.7032 82.5022L86.6374 82.5564L74.5694 82.5767L50.4356 82.6151L26.3018 82.5767L14.2337 82.5564L2.16797 82.5022Z" fill="#263238"/>
<path d="M90.5497 19.533H8.08594V75.6065H90.5497V19.533Z" fill="#263238"/>
<path d="M90.5497 67.3353H8.08594V75.6065H90.5497V67.3353Z" fill="#407BFF"/>
<path opacity="0.4" d="M90.5497 67.3353H8.08594V75.6065H90.5497V67.3353Z" fill="white"/>
<path d="M65.3861 85.714H33.2476V88.3996H65.3861V85.714Z" fill="#407BFF"/>
<path opacity="0.3" d="M65.3861 85.714H33.2476V88.3996H65.3861V85.714Z" fill="white"/>
<path d="M61.5591 85.7163H37.0752L37.6963 81.0566L37.7279 80.8353L37.7844 80.3994L37.8138 80.178L37.8725 79.7421L37.8815 79.6743L37.9019 79.523L37.9606 79.0848L37.99 78.8657L38.4259 75.6088H60.2084L60.6172 78.6805L60.6398 78.8273L60.7076 79.3378L60.7256 79.4846L60.7527 79.6743L60.7957 79.9951L60.8137 80.1419L60.8815 80.6523L60.9018 80.7992L61.5591 85.7163Z" fill="#407BFF"/>
<g opacity="0.4">
<path d="M61.5591 85.7163H37.0752L37.6963 81.0567L37.7279 80.8353L37.7844 80.3994L37.8138 80.178L37.8725 79.7421L37.8815 79.6744L37.9019 79.523L37.9606 79.0848L37.99 78.8658L38.4259 75.6088H60.2084L60.6172 78.6805L60.6398 78.8274L60.7076 79.3378L60.7256 79.4846L60.7527 79.6744L60.7957 79.9951L60.8137 80.1419L60.8815 80.6524L60.9018 80.7992L61.5591 85.7163Z" fill="white"/>
</g>
<path d="M50.6612 70.9153C50.6612 71.1855 50.5811 71.4497 50.4309 71.6744C50.2808 71.8992 50.0673 72.0743 49.8176 72.1777C49.568 72.2812 49.2932 72.3082 49.0281 72.2555C48.763 72.2028 48.5196 72.0726 48.3285 71.8815C48.1373 71.6904 48.0072 71.4469 47.9545 71.1819C47.9018 70.9168 47.9288 70.642 48.0322 70.3923C48.1357 70.1426 48.3108 69.9292 48.5355 69.7791C48.7603 69.6289 49.0244 69.5488 49.2947 69.5488C49.6571 69.5488 50.0047 69.6927 50.261 69.949C50.5172 70.2053 50.6612 70.5528 50.6612 70.9153Z" fill="#37474F"/>
<g opacity="0.16">
<path d="M60.753 79.6743L37.9902 78.8657L38.4262 75.6088H60.2087L60.753 79.6743Z" fill="black"/>
</g>
<path d="M86.7436 23.1785H11.8916V63.4436H86.7436V23.1785Z" fill="white"/>
<path d="M86.7436 23.1785H11.8916V63.4436H86.7436V23.1785Z" fill="#37474F"/>
<g opacity="0.1">
<path d="M66.0322 23.1785L25.7648 63.4459H17.3354L57.6051 23.1785H66.0322Z" fill="white"/>
<path d="M86.7442 44.0982V52.5275L75.8258 63.4459H67.3965L86.7442 44.0982Z" fill="white"/>
<path d="M28.8043 23.1785L11.8892 40.0936V31.6665L20.3772 23.1785H28.8043Z" fill="white"/>
<path d="M86.7432 32.8726V36.3916L59.6867 63.4459H56.1699L86.7432 32.8726Z" fill="white"/>
<path d="M43.8447 23.1785L11.8892 55.134V51.6173L40.328 23.1785H43.8447Z" fill="white"/>
<path d="M73.9935 23.1785L33.7261 63.4459H32.791L73.0562 23.1785H73.9935Z" fill="white"/>
<path d="M17.59 23.1785L11.8892 28.8771V27.942L16.6527 23.1785H17.59Z" fill="white"/>
</g>
<path d="M88.2074 29.3649L86.0142 29.7692L85.5241 32.0821L85.034 29.7692L82.8408 29.3627L85.0249 28.8296L85.5241 26.6455L86.0233 28.8296L88.2074 29.3649Z" fill="#407BFF"/>
<path d="M82.301 25.1277L81.0768 25.3535L80.8035 26.6455L80.5279 25.3535L79.3037 25.1277L80.5234 24.8295L80.8035 23.6076L81.0813 24.8295L82.301 25.1277Z" fill="#407BFF"/>
<path d="M17.7231 52.8889L16.4989 53.1147L16.2234 54.4067L15.9501 53.1147L14.7236 52.8889L15.9456 52.5907L16.2234 51.3688L16.5035 52.5907L17.7231 52.8889Z" fill="#407BFF"/>
<g opacity="0.8">
<path d="M88.2084 29.3649L86.0152 29.7692L85.5251 32.0821L85.035 29.7692L82.8418 29.3627L85.0259 28.8296L85.5251 26.6455L86.0242 28.8296L88.2084 29.3649Z" fill="white"/>
<path d="M82.301 25.1277L81.0768 25.3535L80.8035 26.6455L80.5279 25.3535L79.3037 25.1277L80.5234 24.8295L80.8035 23.6076L81.0813 24.8295L82.301 25.1277Z" fill="white"/>
<path d="M17.7241 52.8889L16.4999 53.1147L16.2244 54.4067L15.9511 53.1147L14.7246 52.8889L15.9465 52.5907L16.2244 51.3688L16.5044 52.5907L17.7241 52.8889Z" fill="white"/>
</g>
<path d="M18.8304 64.4442C18.7566 63.2062 18.5814 61.9764 18.3064 60.7671C18.0467 59.6762 17.6785 58.5626 16.9919 57.6614C16.364 56.8393 15.4628 56.1843 14.4148 56.0578C13.4074 55.9336 12.4588 56.383 11.7044 57.02C10.7693 57.806 10.0533 58.8495 9.38021 59.8614C8.64336 60.9922 7.97291 62.1649 7.37226 63.3736C7.35193 63.4142 7.41291 63.4481 7.43324 63.4075C7.95733 62.3827 8.56152 61.4009 9.24017 60.4712C9.85471 59.5783 10.5462 58.7409 11.3068 57.9686C12.0003 57.291 12.8879 56.6608 13.884 56.6292C14.88 56.5976 15.8038 57.1577 16.4046 57.928C17.0822 58.7885 17.4188 59.8636 17.6763 60.9094C17.9399 62.0618 18.1128 63.2331 18.1935 64.4126C18.39 66.8361 18.4442 69.2755 18.4984 71.7058C18.53 73.0813 18.5481 74.4568 18.5617 75.8324C18.5617 76.528 18.5617 77.226 18.5775 77.9216C18.5514 78.595 18.5786 79.2695 18.6588 79.9386C18.6814 80.0741 18.9027 80.0606 18.9253 79.9386C19.007 79.3051 19.038 78.6662 19.0179 78.0278C19.0179 77.3682 19.036 76.7065 19.0405 76.0469C19.0525 74.761 19.0578 73.4766 19.0563 72.1937C19.0405 69.6052 19.0066 67.0168 18.8304 64.4442Z" fill="#A6A6A6"/>
<path d="M10.9202 58.0838C10.6943 58.1719 10.9992 55.588 9.98055 55.2582C8.54178 54.7907 5.23736 55.6354 3.41462 58.0838C3.05926 58.5843 2.7905 59.1409 2.61957 59.7304C3.52304 59.2899 6.52931 57.9008 7.28145 58.3255C7.95905 58.714 3.66759 60.0646 2.34176 60.932C2.2828 61.2902 2.24284 61.6514 2.22205 62.0139C2.99677 61.4808 5.10636 60.0985 6.04822 60.0985C7.09624 60.0985 3.62242 61.9371 2.2085 63.2606C2.26142 64.5399 2.53657 65.8002 3.02161 66.9852C3.38074 66.3076 4.17353 64.9795 5.19896 64.2748C6.6174 63.2832 7.23176 64.8779 5.44968 66.1427C4.49652 66.8203 3.80989 67.3714 3.37397 67.7464C3.77441 68.5208 4.30982 69.2176 4.95503 69.804C5.58999 69.0821 6.39394 68.5288 7.295 68.1936C7.64284 68.0716 8.19847 67.9157 8.89187 67.6854C9.13187 66.8192 9.29364 65.9333 9.37523 65.0382C9.41363 63.9879 10.6581 64.5707 10.1545 66.4363C10.0573 66.7887 9.97151 67.0778 9.8902 67.3195C10.4243 67.1314 10.9345 66.8813 11.4103 66.5741C11.478 65.962 11.3764 64.5549 11.1257 63.229C10.814 61.5757 12.0743 61.4582 12.3476 63.5407C12.4741 64.5007 12.2912 65.4967 12.2302 66.145C13.6622 65.316 14.8412 63.6288 14.8412 63.6288C14.7122 62.6972 14.3757 61.8065 13.8564 61.0223C13.1562 59.9675 13.9151 59.5519 14.6153 60.5051C15.0061 61.0359 15.2387 61.9303 15.3652 62.6147C16.8695 57.6004 15.0106 56.4372 10.9202 58.0838ZM4.09674 63.5791C3.70825 63.0145 5.04989 61.9845 5.34126 62.3346C5.71394 62.7841 4.48523 64.1415 4.09674 63.5791ZM13.0681 61.2663C12.5215 61.6615 12.0021 60.3628 12.3544 60.1369C12.7068 59.9111 13.5312 60.9297 13.0681 61.2663Z" fill="#407BFF"/>
<path d="M11.8129 60.5322C11.6277 60.1663 11.4357 59.8049 11.2234 59.4526C11.0296 59.1048 10.8027 58.7765 10.5458 58.4723C10.6045 58.4023 10.661 58.3277 10.722 58.2577C10.7446 58.2284 10.7039 58.1877 10.6791 58.2171C10.6091 58.2961 10.5458 58.3752 10.4781 58.4429C10.465 58.4503 10.4553 58.4625 10.4509 58.4768C10.198 58.778 9.95856 59.0889 9.73269 59.4096C9.33042 59.5021 8.93376 59.6175 8.54464 59.7552C8.1426 59.8885 7.74507 60.0285 7.35432 60.1934C7.31367 60.2092 7.334 60.277 7.37465 60.2589C7.76088 60.0872 8.15389 59.9223 8.55367 59.7868C8.95346 59.6513 9.3171 59.561 9.70107 59.4526C9.57685 59.6287 9.45488 59.8072 9.33743 59.9856C8.61537 60.2149 7.91293 60.502 7.23687 60.8439C6.5254 61.1804 5.84328 61.5734 5.16342 61.9732C5.12503 61.9958 5.16342 62.0545 5.19956 62.0319C5.86838 61.6411 6.55665 61.2845 7.26172 60.9636C7.91899 60.6564 8.6011 60.4034 9.26289 60.1098C7.60278 62.7254 6.59993 65.7294 5.2628 68.5143C5.24473 68.555 5.30798 68.5866 5.32379 68.5459C5.73261 67.5702 6.20467 66.6193 6.64962 65.6571C7.0494 64.7965 7.44015 63.9292 7.83994 63.0664C7.95739 62.8134 8.0771 62.5627 8.19906 62.3098C8.12679 63.7034 8.15615 65.1195 7.92802 66.4951C7.92802 66.504 7.93159 66.5127 7.93795 66.519C7.9443 66.5254 7.95292 66.5289 7.9619 66.5289C7.97089 66.5289 7.97951 66.5254 7.98586 66.519C7.99221 66.5127 7.99578 66.504 7.99578 66.4951C8.09291 65.0089 8.35491 63.543 8.34362 62.0478C8.3449 62.041 8.3449 62.0341 8.34362 62.0274C8.62595 61.4605 8.92861 60.8981 9.24708 60.3515C9.80045 61.6547 10.3764 62.9783 10.6407 64.3764C10.6407 64.4193 10.7197 64.4013 10.7062 64.3561C10.3312 62.9535 9.98115 61.5508 9.30581 60.2544C9.66109 59.6642 10.0542 59.0976 10.4826 58.5581C10.6678 58.9037 10.9072 59.2357 11.1173 59.5632C11.3273 59.8907 11.5261 60.2115 11.7158 60.5457C12.1277 61.2496 12.4776 61.988 12.7616 62.7525C12.7774 62.7954 12.8451 62.7728 12.8271 62.7321C12.5063 61.9981 12.1833 61.2527 11.8129 60.5322Z" fill="#263238"/>
<path d="M24.9848 63.7011C23.9119 62.626 22.6674 61.2166 21.0095 61.2166C19.4126 61.2166 18.2359 62.5063 17.5583 63.8343C16.8513 65.2212 16.5983 66.7955 16.3996 68.3246C16.1643 70.157 16.0226 72.0002 15.975 73.847C15.9456 74.8702 15.9501 75.8979 15.975 76.9233C15.97 77.962 16.0455 78.9996 16.2008 80.0267C16.2302 80.1916 16.4967 80.1984 16.5057 80.0267C16.5554 79.1639 16.5193 78.2966 16.5057 77.4315C16.4922 76.5664 16.5057 75.7307 16.5464 74.8792C16.6096 73.1604 16.7339 71.4415 16.9371 69.7317C17.1133 68.2387 17.2534 66.7051 17.6983 65.2618C18.1026 63.9608 18.857 62.4724 20.1828 61.9009C21.9898 61.1217 23.7425 62.5469 24.926 63.7485C24.9622 63.7756 25.0164 63.7327 24.9848 63.7011Z" fill="#A6A6A6"/>
<path d="M28.2465 65.3815C26.8077 65.2347 27.2052 64.4532 28.513 64.7965C29.2148 64.9865 29.8756 65.3043 30.4622 65.7339C30.5044 64.5715 30.3068 63.4128 29.8817 62.3301C28.6801 62.0297 27.5892 62.5559 26.4689 63.0822C25.3486 63.6085 24.601 62.2465 25.9178 61.5915C26.469 61.3194 27.0736 61.1726 27.6883 61.1617C28.3029 61.1507 28.9124 61.2759 29.4729 61.5283C29.369 61.3476 29.2651 61.1804 29.1522 61.0223C28.8431 60.5707 28.4747 60.1627 28.0567 59.8094C27.0765 59.8885 26.5321 60.487 26.2498 60.6858C25.8365 60.9568 25.1882 60.6361 25.5993 60.0511C25.9223 59.5994 26.7287 59.3735 27.3859 59.3261C26.2046 58.6304 25.0256 58.6281 24.3593 58.9308C23.2006 59.4571 23.5259 62.5108 23.5259 62.5108C23.5259 62.5108 20.488 60.8845 19.4942 62.1629C19.1773 62.6095 18.9614 63.1198 18.8617 63.6582C19.9369 63.2607 21.2582 63.1658 21.3824 63.8095C21.5134 64.4871 19.6952 64.2883 18.7511 64.399C18.6381 65.7542 18.9543 67.3488 20.0408 68.4646C20.9623 66.6916 23.0132 65.3454 23.3045 66.3211C23.5959 67.2969 21.3937 67.5476 20.4925 68.8734C20.8833 69.1592 21.3082 69.3951 21.7573 69.5759C22.2475 68.8395 23.0696 67.8232 23.4649 68.1326C23.8602 68.442 22.8257 69.1603 22.1571 69.7385C23.1085 70.0836 24.0858 70.3524 25.0798 70.5426C25.3238 69.5194 25.7913 68.564 26.243 68.6521C26.6948 68.7402 25.8184 69.8108 25.4412 70.6171C26.7683 70.8774 28.1115 71.0472 29.4616 71.1253C29.5429 71.1027 30.0963 69.4878 30.3448 67.4798C29.6811 67.2119 28.9734 67.0702 28.2578 67.062C27.2414 67.0123 27.1442 65.8559 28.6643 66.0185C29.3015 66.1107 29.9055 66.3607 30.4216 66.7458C30.4351 66.5335 30.4487 66.3166 30.4577 66.0953C29.7767 65.7098 29.0243 65.4669 28.2465 65.3815ZM27.867 63.8005C28.0229 63.4549 28.9512 63.5746 28.8608 64.0015C28.7705 64.4284 27.7383 64.0941 27.867 63.8005ZM20.2666 66.669C20.2102 66.3821 20.8313 66.1179 20.9194 66.3505C21.0075 66.5831 20.3434 67.0552 20.2666 66.669ZM24.6371 69.0496C24.1425 68.7921 24.8494 67.665 25.3034 67.8457C25.6739 67.9858 25.1386 69.2981 24.6371 69.0496Z" fill="#407BFF"/>
<path d="M29.2784 70.9017C28.6008 69.7611 27.9232 68.6137 27.205 67.4956C26.873 66.9739 26.5274 66.4634 26.1592 65.962L26.3218 65.9236C26.4122 65.9033 26.5025 65.8852 26.5951 65.8694C26.8029 65.8333 27.0153 65.8039 27.2253 65.7813C27.4354 65.7587 27.6251 65.752 27.8261 65.7497C28.0398 65.7361 28.2543 65.7475 28.4653 65.7836C28.4902 65.7836 28.4947 65.7474 28.4653 65.7497C28.253 65.7497 28.0362 65.7294 27.8216 65.7271C27.607 65.7249 27.406 65.7271 27.2005 65.7407C26.9949 65.7542 26.812 65.7723 26.62 65.8017C26.5138 65.8175 26.4077 65.8355 26.3015 65.8581C26.2369 65.8677 26.1728 65.8805 26.1095 65.8965C25.7414 65.3906 25.3574 64.8914 24.9599 64.4035C26.1417 63.8298 27.3998 63.4289 28.6957 63.2132C28.716 63.2132 28.7093 63.1748 28.6957 63.1793C27.3824 63.3617 26.1058 63.7488 24.9124 64.3267L24.2348 63.5272C23.9886 63.2313 23.7244 62.9422 23.5008 62.6237C23.4999 62.6209 23.4985 62.6184 23.4964 62.6163C23.4944 62.6142 23.4919 62.6126 23.4891 62.6117C23.4864 62.6108 23.4834 62.6105 23.4805 62.611C23.4777 62.6115 23.4749 62.6126 23.4726 62.6144C23.4703 62.6161 23.4684 62.6184 23.4672 62.6211C23.4659 62.6237 23.4653 62.6266 23.4654 62.6295C23.4655 62.6324 23.4663 62.6353 23.4677 62.6378C23.4692 62.6403 23.4712 62.6425 23.4737 62.644C23.7803 62.9818 24.069 63.3354 24.3387 63.7034C23.8511 64.0435 23.387 64.4163 22.9497 64.8191C22.4979 65.2212 22.0552 65.636 21.6216 66.0637C21.608 66.0795 21.6216 66.1043 21.6464 66.0885C22.071 65.6661 22.5137 65.2618 22.9745 64.8801C23.4353 64.4984 23.9209 64.1438 24.3839 63.7643L24.7024 64.1822L24.8628 64.3922C24.8652 64.3984 24.8691 64.4038 24.874 64.4081C25.0525 64.6339 25.2287 64.8598 25.4048 65.1015C25.1981 65.4012 25.0211 65.7205 24.8763 66.0546C24.725 66.3754 24.5917 66.7074 24.4675 67.0417C24.2248 67.7385 24.0353 68.4528 23.9006 69.1784C23.9006 69.2009 23.9277 69.2122 23.9322 69.1896C24.0792 68.4746 24.287 67.7733 24.5533 67.0936C24.6866 66.7458 24.8379 66.4047 24.9938 66.0659C25.1496 65.7271 25.3054 65.4606 25.4455 65.1489C25.5991 65.3522 25.7504 65.5577 25.8972 65.7633C25.9401 65.822 25.9808 65.883 26.0237 65.9439C26.0237 65.9575 26.0237 65.9756 26.0395 65.9756C26.5093 66.6283 26.9543 67.2991 27.3947 67.9767C27.3678 68.0232 27.348 68.0735 27.336 68.1258C27.3066 68.2071 27.2818 68.2907 27.2569 68.3743C27.2095 68.5414 27.1688 68.7108 27.1372 68.8802C27.1056 69.0496 27.0853 69.2032 27.0695 69.3658C27.0685 69.551 27.0549 69.7359 27.0288 69.9192C27.0288 69.9463 27.0672 69.9486 27.0627 69.9192C27.0508 69.7466 27.0637 69.5732 27.1011 69.4042C27.1259 69.228 27.1575 69.0541 27.1982 68.8802C27.2389 68.7063 27.2773 68.5663 27.3247 68.4127C27.3473 68.3359 27.3721 68.2606 27.3992 68.1868C27.4128 68.1461 27.4331 68.1055 27.4467 68.0603C27.6499 68.3795 27.851 68.6995 28.0497 69.0202L29.222 70.9378C29.2468 70.9627 29.2988 70.9333 29.2784 70.9017Z" fill="#263238"/>
<path d="M18.7579 79.6653C18.7398 79.0171 18.6382 78.3666 18.5682 77.7251C18.4982 77.0837 18.4259 76.4332 18.3559 75.7872C18.2249 74.5427 18.1503 73.271 17.8567 72.0491C17.6398 70.9843 17.1078 70.0093 16.3299 69.2506C15.9293 68.8495 15.4029 68.5983 14.8391 68.5391C14.2727 68.5231 13.7169 68.6946 13.2581 69.027C12.7351 69.4129 12.284 69.8876 11.9255 70.4296C11.5389 70.9658 11.1924 71.5298 10.8887 72.1169C10.8752 72.1372 10.9113 72.153 10.9226 72.1304C11.4979 71.152 12.2609 70.2969 13.1677 69.6143C13.5713 69.2823 14.064 69.0772 14.5839 69.0248C14.8373 69.0204 15.0889 69.0665 15.3243 69.1603C15.5597 69.2542 15.774 69.3939 15.9549 69.5714C16.7093 70.2264 17.1452 71.1908 17.405 72.1372C17.7144 73.2665 17.8138 74.4388 17.9674 75.5907C18.0577 76.2683 18.1458 76.9572 18.2362 77.6416C18.3265 78.3259 18.383 79.0193 18.5275 79.6902C18.5308 79.7207 18.5461 79.7487 18.5701 79.768C18.594 79.7872 18.6246 79.7962 18.6551 79.7929C18.6857 79.7896 18.7137 79.7743 18.733 79.7504C18.7522 79.7265 18.7612 79.6959 18.7579 79.6653Z" fill="#A6A6A6"/>
<path d="M14.7487 69.9531C13.2625 69.9237 11.6904 71.0305 11.6904 71.0305C11.6904 71.0305 12.5239 68.1394 10.202 68.2342C8.82193 68.2884 7.09857 69.7362 6.753 71.9949C7.28378 71.7126 8.40634 71.1682 9.29399 71.1524C10.4979 71.1298 10.5792 72.0717 8.91906 72.2162C8.16689 72.2565 7.42151 72.38 6.69653 72.5844C6.66916 73.2901 6.76313 73.9953 6.97435 74.6692C7.9004 74.1068 9.48146 73.5105 9.52889 74.2852C9.56277 74.8611 7.92976 74.9086 7.12342 75.1096C7.4631 75.9949 7.93031 76.8258 8.51024 77.5761C9.64293 77.4106 10.7612 77.1584 11.8553 76.8217C11.8589 76.4157 11.8241 76.0104 11.7514 75.611C11.5549 74.5811 12.3138 74.5607 12.4109 75.5523C12.4452 75.9219 12.4216 76.2945 12.3409 76.6568C13.0946 76.406 13.8156 76.0663 14.4889 75.6449C14.4669 74.8615 14.3056 74.0882 14.0123 73.3614C13.7165 72.555 14.3037 72.092 14.7961 73.0203C15.1146 73.6166 14.9858 74.7369 14.8797 75.3671C15.1472 75.162 15.3844 74.9202 15.5844 74.6488C17.1677 72.4376 16.2236 69.9757 14.7487 69.9531ZM8.3431 70.4861C8.3973 70.0683 9.43403 70.1473 9.38208 70.4726C9.33013 70.7978 8.27534 70.9446 8.33858 70.4771L8.3431 70.4861ZM7.18666 73.8741C7.2883 73.6053 7.73552 73.6482 7.71519 73.856C7.69486 74.0638 7.11438 74.0458 7.18214 73.8719L7.18666 73.8741ZM13.3438 75.3287C12.7407 75.3535 12.9395 74.1022 13.2896 74.0525C13.5832 74.0187 13.7978 75.3084 13.3393 75.3264L13.3438 75.3287Z" fill="#407BFF"/>
<path d="M12.8017 75.4416C12.7429 75.2858 12.691 75.1277 12.6436 74.9673C12.6887 75.1277 12.7271 75.2903 12.7587 75.4529C12.7633 75.4845 12.813 75.471 12.8017 75.4416Z" fill="#263238"/>
<path d="M12.1873 73.4291C12.0789 73.1084 11.9614 72.7922 11.8327 72.476C11.7649 72.3089 11.6972 72.1417 11.6226 71.9768C11.5707 71.8293 11.5017 71.6883 11.4171 71.5567C11.4891 71.4266 11.5518 71.2915 11.6045 71.1524C11.6055 71.1495 11.6054 71.1464 11.6043 71.1436C11.6032 71.1407 11.6012 71.1383 11.5986 71.1368C11.596 71.1352 11.5929 71.1346 11.5899 71.1349C11.5869 71.1353 11.5841 71.1367 11.582 71.1389C11.4119 71.3599 11.2608 71.5949 11.1302 71.8413L10.9405 72.1733C10.809 72.1848 10.6785 72.2052 10.5498 72.2343C10.412 72.2592 10.2719 72.2863 10.1342 72.3179L9.72082 72.415C9.58531 72.4466 9.44753 72.4918 9.30975 72.5144C9.30636 72.5133 9.30275 72.513 9.29922 72.5135C9.29569 72.5141 9.29234 72.5155 9.28945 72.5176C9.28656 72.5196 9.2842 72.5224 9.28258 72.5256C9.28096 72.5288 9.28011 72.5323 9.28011 72.5358C9.28011 72.5394 9.28096 72.5429 9.28258 72.5461C9.2842 72.5493 9.28656 72.552 9.28945 72.5541C9.29234 72.5562 9.29569 72.5576 9.29922 72.5582C9.30275 72.5587 9.30636 72.5584 9.30975 72.5573C9.45079 72.5073 9.59588 72.4695 9.74341 72.4444C9.87667 72.415 10.0099 72.3924 10.1455 72.3721C10.281 72.3518 10.4165 72.336 10.552 72.3224L10.8592 72.2976C10.8027 72.3947 10.7463 72.4918 10.692 72.5889L10.6672 72.6364C10.5546 72.6357 10.4424 72.6486 10.3329 72.6747C10.2132 72.6973 10.0935 72.7199 9.97605 72.747C9.73212 72.799 9.4927 72.8577 9.25328 72.9232C8.7496 73.0632 8.25495 73.2236 7.75805 73.3862C7.73094 73.3862 7.75805 73.4382 7.77612 73.4291C8.26809 73.2628 8.76874 73.1233 9.27587 73.0113C9.51529 72.9593 9.75245 72.9029 9.98961 72.8532L10.3487 72.7787C10.4391 72.7583 10.5362 72.747 10.6265 72.7177C10.3691 73.1897 10.1296 73.6686 9.90829 74.1587C9.4272 75.2225 9.02064 76.3202 8.6073 77.4134C8.6073 77.4405 8.64119 77.4586 8.65022 77.4315C9.05195 76.3428 9.51728 75.2786 10.0438 74.2445C10.1364 74.0548 10.2335 73.8673 10.3261 73.6776C10.3261 73.716 10.3442 73.7544 10.351 73.7928C10.3736 73.9238 10.3984 74.0525 10.4188 74.1813C10.4639 74.441 10.5068 74.6985 10.5452 74.9605C10.656 75.4914 10.7187 76.0311 10.7327 76.5732C10.7327 76.6071 10.7824 76.6048 10.7779 76.5732C10.7448 76.3124 10.7252 76.05 10.7192 75.7872C10.7033 75.5161 10.683 75.2429 10.6514 74.9741C10.6198 74.7053 10.5882 74.4523 10.5452 74.1926L10.4775 73.8041C10.4701 73.7069 10.4448 73.612 10.4029 73.524C10.5407 73.2507 10.674 72.9774 10.8118 72.7064C10.9495 72.4353 11.0715 72.1959 11.2048 71.9429C11.2612 71.8345 11.3222 71.7284 11.3809 71.6177C11.4227 71.7514 11.4741 71.882 11.5345 72.0084C11.5933 72.1553 11.6542 72.3021 11.7152 72.4489C11.8462 72.7719 11.9705 73.0994 12.0947 73.4269C12.2709 73.8922 12.4651 74.3665 12.6097 74.8498C12.4674 74.38 12.3476 73.8967 12.1873 73.4291Z" fill="#263238"/>
<path d="M22.6409 78.4027L22.4783 81.8585L22.0582 90.7689H12.8654L12.4453 81.8585L12.2827 78.4027H22.6409Z" fill="#455A64"/>
<path d="M22.6409 78.4027L22.4783 81.8585H12.4453L12.2827 78.4027H22.6409Z" fill="#263238"/>
<path d="M23.2959 77.0046H11.6299V79.7986H23.2959V77.0046Z" fill="#455A64"/>
<path d="M15.2225 90.7689H13.6099V92.2325H15.2225V90.7689Z" fill="#455A64"/>
<path d="M15.2225 90.7689H13.6099V91.5007H15.2225V90.7689Z" fill="#263238"/>
<path d="M21.3148 90.7689H19.7021V92.2325H21.3148V90.7689Z" fill="#455A64"/>
<path d="M21.3148 90.7689H19.7021V91.5007H21.3148V90.7689Z" fill="#263238"/>
<path d="M90.8112 88.8468L98.0005 58.5129L89.438 45.826L88.1279 46.7092L96.302 58.8224L89.2731 88.4809L90.8112 88.8468Z" fill="#DBDBDB"/>
<path d="M98.5255 58.6598C98.5259 58.932 98.4456 59.1983 98.2946 59.4248C98.1436 59.6514 97.9288 59.828 97.6774 59.9324C97.4259 60.0368 97.1492 60.0642 96.8821 60.0112C96.6151 59.9582 96.3698 59.8272 96.1773 59.6347C95.9848 59.4422 95.8537 59.1969 95.8007 58.9298C95.7477 58.6628 95.7752 58.386 95.8796 58.1346C95.9839 57.8832 96.1606 57.6683 96.3871 57.5174C96.6137 57.3664 96.88 57.2861 97.1522 57.2865C97.5162 57.2871 97.8652 57.432 98.1226 57.6894C98.38 57.9468 98.5249 58.2957 98.5255 58.6598Z" fill="#407BFF"/>
<path d="M79.8975 42.743L86.355 49.9526L89.3364 46.271L91.1524 44.0259L86.3098 38.6254L83.8795 40.1862L79.8975 42.743Z" fill="#407BFF"/>
<path opacity="0.1" d="M79.8975 42.743L86.355 49.9526L89.3364 46.271L83.8795 40.1862L79.8975 42.743Z" fill="black"/>
<path d="M70.5332 46.3004L81.7971 58.8698L89.2756 49.3292L80.835 39.9084L70.5332 46.3004Z" fill="#407BFF"/>
<path d="M81.8232 92.2325H98.4876L97.4645 86.9969H82.8464L81.8232 92.2325Z" fill="#407BFF"/>
<path d="M77.1775 91.2681H71.0068V92.2303H77.1775V91.2681Z" fill="#455A64"/>
<path d="M77.1775 91.2681H71.0068V91.9027H77.1775V91.2681Z" fill="#263238"/>
<path d="M63.6824 88.6796C64.0578 89.2329 64.5838 89.667 65.1983 89.9304C65.8128 90.1938 66.49 90.2755 67.1495 90.1658C67.3633 90.1257 67.5728 90.0652 67.7751 89.9851C68.0819 89.8681 68.3744 89.7165 68.647 89.5334L67.8632 88.3725C67.7178 88.4748 67.5627 88.5625 67.4002 88.6345C65.9321 89.3008 65.0015 88.1421 64.8185 87.8778C63.9715 86.6898 63.6689 83.9748 64.5249 82.9291C64.5836 82.8523 64.8298 82.7303 65.8236 82.9404C66.0066 82.9833 66.2166 83.0285 66.4515 83.094C66.6338 83.1557 66.8225 83.1966 67.014 83.2159L67.0411 82.518L67.1088 81.8201C67.0433 81.8088 66.9439 81.7817 66.8129 81.7433C66.3537 81.6096 65.8847 81.5122 65.4103 81.4519C64.6785 81.3774 63.9128 81.4632 63.443 82.0414C62.0585 83.7309 62.6321 87.1889 63.6824 88.6796Z" fill="#455A64"/>
<path opacity="0.1" d="M67.8722 88.3657C67.7268 88.468 67.5717 88.5557 67.4092 88.6277L67.7841 89.9829C68.0909 89.8658 68.3834 89.7143 68.656 89.5311L67.8722 88.3657Z" fill="black"/>
<path d="M65.4199 81.4451L65.8333 82.9336C66.0162 82.9765 66.2263 83.0217 66.4612 83.0872C66.6434 83.1489 66.8321 83.1899 67.0236 83.2092L67.0507 82.5112L67.1184 81.8133C67.0529 81.802 66.9536 81.7749 66.8225 81.7365C66.3633 81.6029 65.8944 81.5054 65.4199 81.4451Z" fill="#263238"/>
<path d="M82.3007 79.6269C82.3007 79.6269 81.5621 85.915 80.2837 88.5644C79.0053 91.2139 77.2187 91.5007 76.1097 91.5007H72.0758C70.9668 91.5007 69.1824 91.2048 67.904 88.5644C66.6256 85.9241 65.8848 79.6269 65.8848 79.6269H82.3007Z" fill="#455A64"/>
<path d="M81.5055 84.4627C81.4468 84.7315 81.3903 84.9958 81.3316 85.2623H66.8559L66.6797 84.4627H81.5055Z" fill="#37474F"/>
<path d="M81.1332 86.0641C80.9796 86.6581 80.8125 87.2273 80.6273 87.731H67.5587C67.3757 87.2273 67.2086 86.6581 67.0527 86.0641H81.1332Z" fill="#37474F"/>
</svg>
