<svg width="104" height="78" viewBox="0 0 104 78" fill="none" xmlns="http://www.w3.org/2000/svg">
<path d="M103.821 67.9822H0V68.0341H103.821V67.9822Z" fill="#EBEBEB"/>
<path d="M93.4181 71.3232H86.541V71.3752H93.4181V71.3232Z" fill="#EBEBEB"/>
<path d="M68.7751 71.8879H66.9707V71.9399H68.7751V71.8879Z" fill="#EBEBEB"/>
<path d="M86.3333 69.3962H82.3486V69.4482H86.3333V69.3962Z" fill="#EBEBEB"/>
<path d="M19.8607 69.7451H10.8926V69.797H19.8607V69.7451Z" fill="#EBEBEB"/>
<path d="M23.0253 69.7451H21.7109V69.797H23.0253V69.7451Z" fill="#EBEBEB"/>
<path d="M46.7508 70.6213H27.2988V70.6732H46.7508V70.6213Z" fill="#EBEBEB"/>
<path d="M49.2109 58.7213H9.11716C8.80307 58.7208 8.50203 58.5956 8.28013 58.3733C8.05822 58.151 7.93359 57.8498 7.93359 57.5357V1.17526C7.93633 0.862968 8.06216 0.564368 8.28377 0.344317C8.50538 0.124265 8.80486 0.000534968 9.11716 0H49.2109C49.5253 0 49.8269 0.124915 50.0492 0.347266C50.2716 0.569616 50.3965 0.871188 50.3965 1.18564V57.5357C50.3965 57.8501 50.2716 58.1517 50.0492 58.3741C49.8269 58.5964 49.5253 58.7213 49.2109 58.7213ZM9.11716 0.0415287C8.81683 0.0420787 8.529 0.161767 8.31683 0.374323C8.10467 0.586879 7.9855 0.874933 7.9855 1.17526V57.5357C7.9855 57.836 8.10467 58.1241 8.31683 58.3366C8.529 58.5492 8.81683 58.6689 9.11716 58.6694H49.2109C49.5114 58.6689 49.7994 58.5492 50.0119 58.3367C50.2244 58.1242 50.344 57.8362 50.3446 57.5357V1.17526C50.344 0.874742 50.2244 0.586693 50.0119 0.374196C49.7994 0.1617 49.5114 0.0420776 49.2109 0.0415287H9.11716Z" fill="#EBEBEB"/>
<path d="M94.1261 58.7213H54.0304C53.7161 58.7208 53.4148 58.5957 53.1926 58.3735C52.9704 58.1512 52.8453 57.85 52.8447 57.5357V1.17526C52.848 0.862778 52.9743 0.564181 53.1962 0.344187C53.4182 0.124193 53.7179 0.000529134 54.0304 0H94.1261C94.4381 0.00108068 94.737 0.125053 94.9582 0.345045C95.1794 0.565038 95.3049 0.863326 95.3076 1.17526V57.5357C95.3076 57.8494 95.1833 58.1504 94.9618 58.3726C94.7404 58.5948 94.4399 58.7202 94.1261 58.7213ZM54.0304 0.0415287C53.7298 0.0420776 53.4418 0.1617 53.2293 0.374196C53.0168 0.586693 52.8972 0.874742 52.8966 1.17526V57.5357C52.8972 57.8362 53.0168 58.1242 53.2293 58.3367C53.4418 58.5492 53.7298 58.6689 54.0304 58.6694H94.1261C94.4267 58.6689 94.7147 58.5492 94.9272 58.3367C95.1397 58.1242 95.2593 57.8362 95.2599 57.5357V1.17526C95.2593 0.874742 95.1397 0.586693 94.9272 0.374196C94.7147 0.1617 94.4267 0.0420776 94.1261 0.0415287H54.0304Z" fill="#EBEBEB"/>
<path d="M34.3999 36.0531C34.3999 36.0531 38.5922 36.9668 40.3821 36.0531C42.1719 35.1395 41.5033 21.8172 43.3327 21.541C47.5416 20.9077 46.8252 38.6009 45.0353 42.3281C43.2455 46.0553 34.0303 44.471 34.0303 44.471L34.3999 36.0531Z" fill="#EBEBEB"/>
<path d="M36.4873 38.5239C37.3469 38.4989 38.2045 38.4263 39.0579 38.3162C39.9167 38.2181 40.7625 38.0281 41.5808 37.7493C41.7862 37.6707 41.9837 37.5727 42.1705 37.4566C42.2758 37.4019 42.3647 37.3202 42.428 37.2199C42.489 37.1248 42.5404 37.0239 42.5816 36.9188C42.7316 36.5094 42.8421 36.0867 42.9118 35.6563C43.0633 34.805 43.1526 33.9495 43.2274 33.0919C43.3582 31.3768 43.435 29.6575 43.4537 27.9403C43.4724 26.2231 43.4766 24.5038 43.4246 22.7866L43.3727 25.3614C43.3561 26.221 43.3333 27.0793 43.3042 27.9362C43.244 29.6513 43.1775 31.3664 43.0322 33.0753C42.9637 33.9287 42.8806 34.7842 42.7353 35.6252C42.672 36.0439 42.5683 36.4556 42.4259 36.8544C42.389 36.9493 42.3431 37.0403 42.2888 37.1264C42.2384 37.209 42.1667 37.2764 42.0812 37.3216C41.9053 37.4354 41.719 37.532 41.5247 37.6102C40.7199 37.903 39.8859 38.1084 39.0372 38.2228C38.2066 38.364 37.3428 38.4533 36.4873 38.5239Z" fill="#E0E0E0"/>
<path d="M44.6743 24.3979L44.5476 27.4088L44.4106 30.4196C44.3109 32.4275 44.2029 34.4354 44.0493 36.4412C43.9745 37.4421 43.8852 38.4429 43.7503 39.4354C43.6916 39.9276 43.5909 40.4139 43.4492 40.8889C43.3733 41.1115 43.2276 41.3038 43.0339 41.4371C42.8352 41.5809 42.6206 41.7014 42.3944 41.7963C41.9326 41.9848 41.4553 42.1328 40.9679 42.2386C40.482 42.3507 39.9878 42.4462 39.4915 42.5106C38.499 42.6622 37.4961 42.7536 36.4932 42.8117C37.4997 42.7943 38.5046 42.725 39.504 42.604C40.0023 42.5418 40.5007 42.4629 40.9949 42.357C41.4904 42.2605 41.9767 42.1216 42.4484 41.9417C42.6874 41.8451 42.9151 41.7226 43.1273 41.5762C43.2354 41.499 43.3331 41.4083 43.418 41.3063C43.5019 41.2004 43.5672 41.081 43.6112 40.9533C43.7592 40.4663 43.8655 39.9675 43.9288 39.4624C44.0721 38.4637 44.1656 37.4607 44.2465 36.4578C44.385 34.452 44.4902 32.4448 44.5622 30.4362C44.6265 28.42 44.6722 26.41 44.6743 24.3979Z" fill="#E0E0E0"/>
<path d="M35.8268 59.0182C35.8268 59.0182 42.0353 12.8779 34.6225 12.3464C27.2096 11.8148 25.4218 28.0857 28.2852 58.4306L35.8268 59.0182Z" fill="#F0F0F0"/>
<path d="M28.8006 28.2748C28.8006 28.2748 22.0439 28.8666 21.8425 28.2748C21.6411 27.683 21.6349 14.8985 18.7756 15.6543C15.9164 16.4101 17.1664 31.8027 18.7756 33.5925C20.3849 35.3824 28.8006 36.35 28.8006 36.35C28.8006 36.35 29.926 30.6752 28.8006 28.2748Z" fill="#F0F0F0"/>
<path d="M32.7454 54.8031C33.1842 51.2828 33.5836 47.7571 33.9435 44.2257C34.2965 40.6958 34.6142 37.1659 34.8758 33.6214C35.1375 30.077 35.3472 26.5367 35.4136 22.986C35.4448 21.2106 35.4427 19.4332 35.3327 17.6579C35.2843 16.7678 35.1809 15.8816 35.0233 15.0042C34.9446 14.5604 34.8194 14.1261 34.6495 13.7085C34.5621 13.4914 34.4354 13.2922 34.2758 13.1209C34.1884 13.0297 34.082 12.9589 33.9643 12.9132C33.9 12.8906 33.8318 12.881 33.7637 12.8849C33.6956 12.8888 33.629 12.9062 33.5677 12.9361C33.4558 12.9928 33.358 13.0737 33.2811 13.1728C33.2078 13.2639 33.1425 13.3612 33.086 13.4635C32.9797 13.6643 32.8882 13.8725 32.8119 14.0864C32.6654 14.5094 32.5441 14.9407 32.4485 15.378C32.2409 16.248 32.108 17.1263 31.9854 18.0046C31.7404 19.7655 31.5702 21.5346 31.4331 23.3037C31.157 26.844 30.9908 30.3884 30.8621 33.935C30.7334 37.4815 30.6545 41.0301 30.6046 44.5787C30.5548 48.1274 30.5465 51.676 30.5673 55.2246C30.5797 51.6767 30.624 48.1287 30.7001 44.5808C30.7645 41.0322 30.8559 37.4857 30.9929 33.9412C31.13 30.3968 31.3085 26.8523 31.5951 23.3161C31.7425 21.5491 31.9128 19.7862 32.1619 18.0296C32.2886 17.1533 32.434 16.2791 32.6312 15.4195C32.728 14.9909 32.8486 14.568 32.9925 14.1529C33.0655 13.9486 33.1537 13.7501 33.2562 13.559C33.3436 13.3758 33.4811 13.221 33.6528 13.1126C33.7385 13.0797 33.8326 13.0762 33.9205 13.1025C34.0084 13.1288 34.0852 13.1834 34.1387 13.2579C34.2817 13.4117 34.395 13.5905 34.473 13.7853C34.6384 14.1866 34.7609 14.6042 34.8385 15.0312C34.9979 15.9001 35.1033 16.778 35.1541 17.66C35.2683 19.427 35.2766 21.2003 35.2517 22.9735C35.1956 26.518 34.9942 30.0625 34.7471 33.6007C34.5 37.1389 34.1885 40.6854 33.8459 44.2278C33.5033 47.7702 33.1524 51.2877 32.7454 54.8031Z" fill="#E0E0E0"/>
<path d="M27.949 31.3106C27.0748 31.2836 26.2027 31.2483 25.3306 31.1881C24.4585 31.1279 23.5906 31.0614 22.7288 30.9368C22.2996 30.8765 21.874 30.7926 21.4539 30.6856C21.2482 30.6329 21.0485 30.5591 20.858 30.4655C20.7699 30.423 20.6909 30.3638 20.6254 30.2911C20.5996 30.2606 20.5818 30.2242 20.5735 30.1852C20.5686 30.1403 20.5686 30.0951 20.5735 30.0502C20.5735 29.9381 20.5964 29.8218 20.5922 29.7117V29.3816C20.5922 29.1594 20.5735 28.9414 20.5652 28.7234C20.5382 28.2852 20.5091 27.8492 20.4718 27.4131C20.3112 25.6703 20.1188 23.9324 19.8945 22.1992C19.6599 20.4675 19.4419 18.7316 19.0889 17.0186C19.2342 17.8803 19.336 18.7482 19.4398 19.6141C19.5436 20.48 19.6474 21.35 19.745 22.2179C19.9381 23.9538 20.1312 25.6897 20.2766 27.4298C20.3181 27.8637 20.3493 28.2998 20.3783 28.7337C20.3783 28.9518 20.4074 29.1698 20.4116 29.3857V29.7097C20.4116 29.8176 20.3991 29.9173 20.3949 30.0253V30.1083C20.3897 30.1441 20.3897 30.1805 20.3949 30.2163C20.4087 30.2849 20.4402 30.3486 20.4863 30.4011C20.5659 30.4927 20.6634 30.5669 20.7728 30.6191C20.9723 30.716 21.181 30.7925 21.3958 30.8475C21.8224 30.956 22.256 31.0351 22.6935 31.0843C24.4385 31.2754 26.1941 31.351 27.949 31.3106Z" fill="#E0E0E0"/>
<path d="M27.9486 34.2611C26.981 34.0908 26.0133 33.9226 25.0416 33.7378C24.0698 33.553 23.1105 33.3745 22.1512 33.1668C21.6715 33.063 21.194 32.9592 20.7185 32.8367C20.4797 32.7765 20.243 32.7162 20.0104 32.6436C19.8941 32.6103 19.7758 32.5771 19.6636 32.5335C19.5494 32.4982 19.4377 32.4552 19.3293 32.4048L19.1736 32.3279L19.1341 32.3072L19.1092 32.2864C19.0919 32.2703 19.0766 32.2522 19.0635 32.2324C19.0031 32.135 18.9549 32.0303 18.9203 31.921C18.8473 31.6908 18.7884 31.4564 18.7438 31.2191C18.6524 30.7416 18.588 30.2557 18.5361 29.7656C18.3098 27.818 18.2101 25.8557 18.1208 23.8935C18.071 22.9134 18.0288 21.932 17.9942 20.9491L17.8883 18.0027C17.8738 19.9691 17.9049 21.9354 17.9693 23.8997C18.0336 25.864 18.1395 27.8304 18.3513 29.7885C18.4115 30.2785 18.478 30.7665 18.5756 31.2544C18.623 31.4996 18.6854 31.7416 18.7625 31.9791C18.8026 32.1044 18.8591 32.2238 18.9307 32.3342C18.9519 32.3643 18.9763 32.3921 19.0033 32.4172C19.0183 32.4308 19.0343 32.4433 19.0511 32.4546L19.0926 32.4775L19.267 32.5647C19.3822 32.6153 19.5 32.6597 19.62 32.6976C19.7384 32.7412 19.8567 32.7744 19.9751 32.8076C20.2139 32.8803 20.4527 32.9405 20.6915 32.9986C21.1711 33.117 21.6528 33.2167 22.145 33.3122C24.0573 33.6942 26.0009 34.0015 27.9486 34.2611Z" fill="#E0E0E0"/>
<path d="M44.5163 52.3406H20.1328L22.1698 67.9408H42.4793L44.5163 52.3406Z" fill="#E0E0E0"/>
<path d="M19.1047 55.5422H45.5459V51.7943H19.1047V55.5422Z" fill="#E6E6E6"/>
<path d="M68.1918 9.10498L78.5801 20.0561L76.9917 21.902L67.166 11.3807L68.1918 9.10498Z" fill="#E6E6E6"/>
<path d="M76.4868 19.9337L74.0781 63.0278H77.0806L79.5474 18.7169C79.5474 18.7169 77.1159 17.1949 76.4868 19.9337Z" fill="#E6E6E6"/>
<path d="M64.6104 11.9374L68.4683 7.95483C68.4683 7.95483 69.5439 8.24138 69.7516 8.85808L67.181 13.0109L64.6104 11.9374Z" fill="#EBEBEB"/>
<path d="M69.219 15.0458C69.219 13.7563 67.9586 12.0869 65.9819 10.9448C63.9054 9.75089 61.7377 9.52456 60.6683 10.2908L53.7227 13.5175L69.4495 23.2082L69.219 15.0458Z" fill="#E6E6E6"/>
<path d="M69.0578 24.4989C70.5045 21.9933 67.9182 17.7917 63.2813 15.1146C58.6443 12.4374 53.7126 12.2984 52.2659 14.8041C50.8192 17.3098 53.4055 21.5113 58.0425 24.1885C62.6794 26.8656 67.6112 27.0046 69.0578 24.4989Z" fill="#EBEBEB"/>
<path d="M68.2117 24.3857C69.5409 22.0836 67.1653 18.2237 62.9057 15.7645C58.6461 13.3052 54.1156 13.1778 52.7865 15.4799C51.4573 17.782 53.8329 21.6418 58.0925 24.1011C62.3521 26.5604 66.8826 26.6878 68.2117 24.3857Z" fill="#E0E0E0"/>
<path d="M63.4694 21.2509C64.7239 19.9964 64.7239 17.9626 63.4694 16.7081C62.215 15.4536 60.1811 15.4536 58.9267 16.7081C57.6722 17.9626 57.6722 19.9964 58.9267 21.2509C60.1811 22.5053 62.215 22.5053 63.4694 21.2509Z" fill="#E6E6E6"/>
<path d="M90.7402 65.7148C88.8714 61.9129 82.8976 59.1326 75.8149 59.1326C68.7322 59.1326 62.7625 61.9129 60.8916 65.7148H90.7402Z" fill="#F0F0F0"/>
<path d="M90.7314 65.7148H60.8828V67.5629H90.7314V65.7148Z" fill="#E6E6E6"/>
<path d="M51.9112 77.3592C74.1461 77.3592 92.171 76.3069 92.171 75.0087C92.171 73.7106 74.1461 72.6582 51.9112 72.6582C29.6763 72.6582 11.6514 73.7106 11.6514 75.0087C11.6514 76.3069 29.6763 77.3592 51.9112 77.3592Z" fill="#F5F5F5"/>
<path d="M62.8839 17.6848L62.0596 18.7563L63.7062 19.4975L62.8839 17.6848Z" fill="#0D92F4"/>
<path d="M69.2506 50.5547L70.3116 49.7179L68.8955 48.5967L69.2506 50.5547Z" fill="#0D92F4"/>
<path d="M45.8702 13.069L45.7913 11.7214L44.0596 12.2405L45.8702 13.069Z" fill="#0D92F4"/>
<path d="M36.007 63.1296L35.1826 64.199L36.8292 64.9403L36.007 63.1296Z" fill="#0D92F4"/>
<path d="M53.4717 30.2036L54.7902 30.2846L54.6241 31.7672L53.0605 31.356L53.4717 30.2036Z" fill="#0D92F4"/>
<path d="M59.3562 43.2249L58.7312 44.3877L57.4521 43.6194L58.48 42.3694L59.3562 43.2249Z" fill="#0D92F4"/>
<path d="M51.2314 50.8579L52.55 50.941L52.3859 52.4235L50.8203 52.0124L51.2314 50.8579Z" fill="#0D92F4"/>
<path d="M67.4463 33.6755L68.2768 33.8396C68.2768 33.8396 67.031 34.6701 67.6165 35.3221C68.2021 35.9741 67.2012 36.5576 67.2012 36.5576L66.46 36.0634C66.46 36.0634 67.1182 35.5692 66.7901 34.911C66.462 34.2528 67.4463 33.6755 67.4463 33.6755Z" fill="#0D92F4"/>
<path d="M80.7149 46.6304L79.957 47.7496L81.6472 48.3891L80.7149 46.6304Z" fill="#0D92F4"/>
<path d="M79.0001 15.1995L79.461 13.9287L77.667 13.7231L79.0001 15.1995Z" fill="#0D92F4"/>
<path d="M73.2354 23.0983L73.4783 21.8005L74.9297 22.1431L74.3317 23.6465L73.2354 23.0983Z" fill="#0D92F4"/>
<path d="M83.3213 28.2188L82.4907 28.3123C82.4907 28.3123 83.4168 27.1516 82.6672 26.6989C81.9177 26.2462 82.6859 25.397 82.6859 25.397L83.5414 25.642C83.5414 25.642 83.0638 26.3127 83.5788 26.8422C84.0937 27.3717 83.3213 28.2188 83.3213 28.2188Z" fill="#0D92F4"/>
<path d="M49.5272 64.6599L50.3578 64.824C50.3578 64.824 49.1119 65.6545 49.6995 66.3065C50.2872 66.9585 49.2843 67.542 49.2843 67.542L48.543 67.0478C48.543 67.0478 49.2033 66.5536 48.8731 65.8954C48.543 65.2372 49.5272 64.6599 49.5272 64.6599Z" fill="#0D92F4"/>
<path d="M60.6436 56.9314L59.8213 58.0028L61.4679 58.7441L60.6436 56.9314Z" fill="#0D92F4"/>
<path d="M71.3897 59.1223L72.7082 59.2033L72.5441 60.6859L70.9785 60.2747L71.3897 59.1223Z" fill="#0D92F4"/>
<path d="M76.4116 60.5278L77.2422 60.6919C77.2422 60.6919 76.0067 61.5224 76.5839 62.1744C77.1612 62.8264 76.1687 63.4099 76.1687 63.4099L75.417 62.9157C75.417 62.9157 76.0752 62.4215 75.7451 61.7633C75.4149 61.1051 76.4116 60.5278 76.4116 60.5278Z" fill="#0D92F4"/>
<path d="M56.8425 17.7367L56.3254 17.8592C56.3254 17.8592 56.5455 16.7608 55.9102 16.3808C55.2748 16.0008 55.4949 15.1931 55.4949 15.1931L56.1386 15.38C56.1202 15.5823 56.149 15.786 56.2229 15.9752C56.2968 16.1644 56.4136 16.3338 56.5642 16.4701C57.0626 16.929 56.8425 17.7367 56.8425 17.7367Z" fill="#0D92F4"/>
<path d="M47.8735 40.3617L47.0948 40.6774C47.0948 40.6774 47.6741 39.309 46.8311 39.0764C45.9881 38.8439 46.4947 37.8181 46.4947 37.8181H47.3855C47.3855 37.8181 47.1073 38.5926 47.7447 38.9622C48.3822 39.3318 47.8735 40.3617 47.8735 40.3617Z" fill="#0D92F4"/>
<path d="M43.3435 33.0507C43.3435 33.1739 43.307 33.2943 43.2385 33.3967C43.1701 33.4992 43.0728 33.579 42.959 33.6262C42.8451 33.6733 42.7199 33.6857 42.5991 33.6616C42.4782 33.6376 42.3672 33.5783 42.2801 33.4911C42.193 33.404 42.1337 33.293 42.1096 33.1722C42.0856 33.0514 42.0979 32.9261 42.1451 32.8123C42.1922 32.6985 42.2721 32.6012 42.3745 32.5327C42.4769 32.4643 42.5974 32.4277 42.7206 32.4277C42.8858 32.4277 43.0442 32.4934 43.1611 32.6102C43.2779 32.727 43.3435 32.8855 43.3435 33.0507Z" fill="#0D92F4"/>
<path d="M65.7419 8.26429C65.7419 8.38749 65.7054 8.50793 65.637 8.61037C65.5685 8.71281 65.4712 8.79265 65.3574 8.83979C65.2436 8.88694 65.1183 8.89928 64.9975 8.87524C64.8767 8.85121 64.7657 8.79188 64.6785 8.70476C64.5914 8.61764 64.5321 8.50665 64.5081 8.38581C64.484 8.26498 64.4964 8.13973 64.5435 8.0259C64.5907 7.91207 64.6705 7.81479 64.7729 7.74634C64.8754 7.67789 64.9958 7.64136 65.119 7.64136C65.2842 7.64136 65.4427 7.70699 65.5595 7.82381C65.6763 7.94063 65.7419 8.09907 65.7419 8.26429Z" fill="#0D92F4"/>
<path d="M38.4734 19.697L37.4912 20.6252L39.0008 21.6177L38.4734 19.697Z" fill="#0D92F4"/>
<path d="M33.9804 46.2793L34.6365 45.0978L32.8965 44.6099L33.9804 46.2793Z" fill="#0D92F4"/>
<path d="M22.0097 55.0959L21.665 56.402L23.4695 56.4498L22.0097 55.0959Z" fill="#0D92F4"/>
<path d="M25.6089 40.8808L25.4822 42.1951L24.0059 41.9813L24.471 40.4302L25.6089 40.8808Z" fill="#0D92F4"/>
<path d="M31.119 35.8891L31.9495 35.7209C31.9495 35.7209 31.119 36.9668 31.9142 37.3447C32.7095 37.7226 32.0118 38.6425 32.0118 38.6425L31.1377 38.4722C31.1377 38.4722 31.5529 37.7621 30.9965 37.2824C30.44 36.8028 31.119 35.8891 31.119 35.8891Z" fill="#0D92F4"/>
<path d="M20.4547 29.7863L21.1814 28.6463L19.4746 28.0525L20.4547 29.7863Z" fill="#0D92F4"/>
<path d="M29.7923 25.5006L28.4717 25.5338L28.5049 24.043L30.1017 24.315L29.7923 25.5006Z" fill="#0D92F4"/>
<path d="M27.0767 11.7755L26.2461 11.6842C26.2461 11.6842 27.4047 10.756 26.7735 10.1497C26.1423 9.54336 27.0746 8.88306 27.0746 8.88306L27.8553 9.29834C27.8553 9.29834 27.2428 9.84859 27.629 10.4778C28.0152 11.1069 27.0767 11.7755 27.0767 11.7755Z" fill="#0D92F4"/>
<path d="M39.8672 53.7607C39.8552 53.6376 39.8801 53.5137 39.9388 53.4048C39.9975 53.2959 40.0873 53.2069 40.1967 53.1492C40.3062 53.0916 40.4303 53.0678 40.5533 53.0809C40.6763 53.094 40.7926 53.1435 40.8874 53.223C40.9822 53.3025 41.0512 53.4084 41.0856 53.5272C41.12 53.6461 41.1182 53.7724 41.0805 53.8902C41.0427 54.0081 40.9708 54.112 40.8738 54.1888C40.7768 54.2655 40.6591 54.3117 40.5358 54.3213C40.3731 54.3341 40.212 54.2825 40.0869 54.1776C39.9619 54.0728 39.883 53.9231 39.8672 53.7607Z" fill="#0D92F4"/>
<g opacity="0.7">
<path d="M62.8839 17.6848L62.0596 18.7563L63.7062 19.4975L62.8839 17.6848Z" fill="white"/>
<path d="M69.2506 50.5547L70.3116 49.7179L68.8955 48.5967L69.2506 50.5547Z" fill="white"/>
<path d="M45.8702 13.069L45.7913 11.7214L44.0596 12.2405L45.8702 13.069Z" fill="white"/>
<path d="M36.007 63.1296L35.1826 64.199L36.8292 64.9403L36.007 63.1296Z" fill="white"/>
<path d="M53.4717 30.2036L54.7902 30.2846L54.6241 31.7672L53.0605 31.356L53.4717 30.2036Z" fill="white"/>
<path d="M59.3562 43.2249L58.7312 44.3877L57.4521 43.6194L58.48 42.3694L59.3562 43.2249Z" fill="white"/>
<path d="M51.2314 50.8579L52.55 50.941L52.3859 52.4235L50.8203 52.0124L51.2314 50.8579Z" fill="white"/>
<path d="M67.4463 33.6755L68.2768 33.8396C68.2768 33.8396 67.031 34.6701 67.6165 35.3221C68.2021 35.9741 67.2012 36.5576 67.2012 36.5576L66.46 36.0634C66.46 36.0634 67.1182 35.5692 66.7901 34.911C66.462 34.2528 67.4463 33.6755 67.4463 33.6755Z" fill="white"/>
<path d="M80.7149 46.6304L79.957 47.7496L81.6472 48.3891L80.7149 46.6304Z" fill="white"/>
<path d="M79.0001 15.1995L79.461 13.9287L77.667 13.7231L79.0001 15.1995Z" fill="white"/>
<path d="M73.2354 23.0983L73.4783 21.8005L74.9297 22.1431L74.3317 23.6465L73.2354 23.0983Z" fill="white"/>
<path d="M83.3213 28.2188L82.4907 28.3123C82.4907 28.3123 83.4168 27.1516 82.6672 26.6989C81.9177 26.2462 82.6859 25.397 82.6859 25.397L83.5414 25.642C83.5414 25.642 83.0638 26.3127 83.5788 26.8422C84.0937 27.3717 83.3213 28.2188 83.3213 28.2188Z" fill="white"/>
<path d="M49.5272 64.6599L50.3578 64.824C50.3578 64.824 49.1119 65.6545 49.6995 66.3065C50.2872 66.9585 49.2843 67.542 49.2843 67.542L48.543 67.0478C48.543 67.0478 49.2033 66.5536 48.8731 65.8954C48.543 65.2372 49.5272 64.6599 49.5272 64.6599Z" fill="white"/>
<path d="M60.6436 56.9314L59.8213 58.0028L61.4679 58.7441L60.6436 56.9314Z" fill="white"/>
<path d="M71.3897 59.1223L72.7082 59.2033L72.5441 60.6859L70.9785 60.2747L71.3897 59.1223Z" fill="white"/>
<path d="M76.4116 60.5278L77.2422 60.6919C77.2422 60.6919 76.0067 61.5224 76.5839 62.1744C77.1612 62.8264 76.1687 63.4099 76.1687 63.4099L75.417 62.9157C75.417 62.9157 76.0752 62.4215 75.7451 61.7633C75.4149 61.1051 76.4116 60.5278 76.4116 60.5278Z" fill="white"/>
<path d="M56.8425 17.7367L56.3254 17.8592C56.3254 17.8592 56.5455 16.7608 55.9102 16.3808C55.2748 16.0008 55.4949 15.1931 55.4949 15.1931L56.1386 15.38C56.1202 15.5823 56.149 15.786 56.2229 15.9752C56.2968 16.1644 56.4136 16.3338 56.5642 16.4701C57.0626 16.929 56.8425 17.7367 56.8425 17.7367Z" fill="white"/>
<path d="M47.8735 40.3617L47.0948 40.6774C47.0948 40.6774 47.6741 39.309 46.8311 39.0764C45.9881 38.8439 46.4947 37.8181 46.4947 37.8181H47.3855C47.3855 37.8181 47.1073 38.5926 47.7447 38.9622C48.3822 39.3318 47.8735 40.3617 47.8735 40.3617Z" fill="white"/>
<path d="M43.3435 33.0507C43.3435 33.1739 43.307 33.2943 43.2385 33.3967C43.1701 33.4992 43.0728 33.579 42.959 33.6262C42.8451 33.6733 42.7199 33.6857 42.5991 33.6616C42.4782 33.6376 42.3672 33.5783 42.2801 33.4911C42.193 33.404 42.1337 33.293 42.1096 33.1722C42.0856 33.0514 42.0979 32.9261 42.1451 32.8123C42.1922 32.6985 42.2721 32.6012 42.3745 32.5327C42.4769 32.4643 42.5974 32.4277 42.7206 32.4277C42.8858 32.4277 43.0442 32.4934 43.1611 32.6102C43.2779 32.727 43.3435 32.8855 43.3435 33.0507Z" fill="white"/>
<path d="M65.7419 8.26429C65.7419 8.38749 65.7054 8.50793 65.637 8.61037C65.5685 8.71281 65.4712 8.79265 65.3574 8.83979C65.2436 8.88694 65.1183 8.89928 64.9975 8.87524C64.8767 8.85121 64.7657 8.79188 64.6785 8.70476C64.5914 8.61764 64.5321 8.50665 64.5081 8.38581C64.484 8.26498 64.4964 8.13973 64.5435 8.0259C64.5907 7.91207 64.6705 7.81479 64.7729 7.74634C64.8754 7.67789 64.9958 7.64136 65.119 7.64136C65.2842 7.64136 65.4427 7.70699 65.5595 7.82381C65.6763 7.94063 65.7419 8.09907 65.7419 8.26429Z" fill="white"/>
<path d="M38.4734 19.697L37.4912 20.6252L39.0008 21.6177L38.4734 19.697Z" fill="white"/>
<path d="M33.9804 46.2793L34.6365 45.0978L32.8965 44.6099L33.9804 46.2793Z" fill="white"/>
<path d="M22.0097 55.0959L21.665 56.402L23.4695 56.4498L22.0097 55.0959Z" fill="white"/>
<path d="M25.6089 40.8808L25.4822 42.1951L24.0059 41.9813L24.471 40.4302L25.6089 40.8808Z" fill="white"/>
<path d="M31.119 35.8891L31.9495 35.7209C31.9495 35.7209 31.119 36.9668 31.9142 37.3447C32.7095 37.7226 32.0118 38.6425 32.0118 38.6425L31.1377 38.4722C31.1377 38.4722 31.5529 37.7621 30.9965 37.2824C30.44 36.8028 31.119 35.8891 31.119 35.8891Z" fill="white"/>
<path d="M20.4547 29.7863L21.1814 28.6463L19.4746 28.0525L20.4547 29.7863Z" fill="white"/>
<path d="M29.7923 25.5006L28.4717 25.5338L28.5049 24.043L30.1017 24.315L29.7923 25.5006Z" fill="white"/>
<path d="M27.0767 11.7755L26.2461 11.6842C26.2461 11.6842 27.4047 10.756 26.7735 10.1497C26.1423 9.54336 27.0746 8.88306 27.0746 8.88306L27.8553 9.29834C27.8553 9.29834 27.2428 9.84859 27.629 10.4778C28.0152 11.1069 27.0767 11.7755 27.0767 11.7755Z" fill="white"/>
<path d="M39.8672 53.7607C39.8552 53.6376 39.8801 53.5137 39.9388 53.4048C39.9975 53.2959 40.0873 53.2069 40.1967 53.1492C40.3062 53.0916 40.4303 53.0678 40.5533 53.0809C40.6763 53.094 40.7926 53.1435 40.8874 53.223C40.9822 53.3025 41.0512 53.4084 41.0856 53.5272C41.12 53.6461 41.1182 53.7724 41.0805 53.8902C41.0427 54.0081 40.9708 54.112 40.8738 54.1888C40.7768 54.2655 40.6591 54.3117 40.5358 54.3213C40.3731 54.3341 40.212 54.2825 40.0869 54.1776C39.9619 54.0728 39.883 53.9231 39.8672 53.7607Z" fill="white"/>
</g>
<path d="M66.1693 75.0024H15.0103L13.2412 42.2344H64.4002L66.1693 75.0024Z" fill="#0D92F4"/>
<g opacity="0.6">
<path d="M66.1693 75.0024H15.0103L13.2412 42.2344H64.4002L66.1693 75.0024Z" fill="white"/>
</g>
<g opacity="0.2">
<path d="M61.0471 73.3766H19.9131L19.9006 73.0589C19.8464 72.2331 19.4828 71.4581 18.8824 70.8885C18.282 70.3189 17.4889 69.9966 16.6614 69.9858H16.3686L15.1436 47.3154H15.4592C15.8533 47.3203 16.2443 47.2436 16.6074 47.0901C16.9705 46.9366 17.2979 46.7098 17.5692 46.4237C17.8404 46.1377 18.0496 45.7986 18.1835 45.4278C18.3175 45.0571 18.3733 44.6626 18.3475 44.2693L18.3101 43.854H59.4711V44.2028V44.2444C59.5249 45.0698 59.8881 45.8446 60.4882 46.4139C61.0883 46.9832 61.8811 47.3051 62.7082 47.3154H63.0384L64.2635 70.0024H63.9167C63.5224 69.9974 63.1313 70.0738 62.7678 70.2269C62.4044 70.3801 62.0766 70.6067 61.8048 70.8925C61.5331 71.1783 61.3233 71.5171 61.1886 71.8878C61.0539 72.2584 60.9973 72.6529 61.0222 73.0465L61.0471 73.3766ZM20.3014 72.9613H60.6111C60.5955 72.5261 60.6671 72.0921 60.8214 71.6848C60.9758 71.2776 61.2099 70.9052 61.5101 70.5896C61.8102 70.274 62.1703 70.0215 62.5693 69.8468C62.9683 69.6722 63.3982 69.579 63.8337 69.5726L62.6543 47.7286C61.733 47.7028 60.8544 47.3344 60.1901 46.6955C59.5259 46.0566 59.1237 45.193 59.062 44.2734H18.7628C18.7874 44.7114 18.7237 45.1498 18.5755 45.5627C18.4273 45.9756 18.1976 46.3544 17.9001 46.6767C17.6026 46.9991 17.2433 47.2583 16.8436 47.439C16.4439 47.6197 16.0119 47.7182 15.5734 47.7286L16.7528 69.5726C17.657 69.6063 18.5177 69.9694 19.1728 70.5935C19.828 71.2177 20.2323 72.0598 20.3097 72.9613H20.3014Z" fill="white"/>
</g>
<path opacity="0.2" d="M21.0067 72.1308C20.7894 71.3167 20.3519 70.5783 19.7424 69.9966C19.1329 69.4149 18.3749 69.0125 17.5516 68.8334L16.4531 48.445C17.2411 48.2563 17.9554 47.8381 18.5058 47.2434C19.0561 46.6487 19.4177 45.9042 19.5449 45.104H58.3471C58.5569 45.9393 58.9977 46.6987 59.619 47.2951C60.2404 47.8915 61.0172 48.3008 61.8604 48.4761L62.9588 68.8479C62.1746 69.0287 61.461 69.4365 60.9071 70.0203C60.3532 70.6041 59.9835 71.3381 59.8442 72.1308H21.0067Z" fill="white"/>
<g opacity="0.6">
<path d="M25.6315 50.3575C25.6218 50.2319 25.6391 50.1057 25.6823 49.9874C25.7255 49.8691 25.7936 49.7614 25.882 49.6716C25.9703 49.5819 26.077 49.5121 26.1946 49.4671C26.3122 49.4221 26.4381 49.4028 26.5639 49.4106C26.6974 49.4064 26.8303 49.4299 26.9543 49.4795C27.0783 49.5292 27.1907 49.604 27.2844 49.6993L27.1203 49.8654C27.05 49.7966 26.9664 49.7428 26.8747 49.7071C26.783 49.6714 26.685 49.6546 26.5867 49.6577C26.493 49.6523 26.3991 49.6671 26.3116 49.7012C26.2241 49.7352 26.145 49.7877 26.0796 49.8551C26.0142 49.9225 25.9641 50.0032 25.9326 50.0916C25.9012 50.1801 25.8891 50.2743 25.8973 50.3679C25.906 50.5634 25.9912 50.7477 26.1345 50.8809C26.2779 51.0142 26.4679 51.0857 26.6635 51.0801C26.7597 51.0825 26.8553 51.0639 26.9435 51.0255C27.0317 50.9871 27.1105 50.9299 27.1743 50.8579L27.355 51.024C27.2687 51.121 27.1618 51.1974 27.0422 51.2477C26.9226 51.298 26.7932 51.3209 26.6635 51.3147C26.4 51.3237 26.1436 51.2281 25.9503 51.0488C25.7569 50.8695 25.6424 50.6209 25.6315 50.3575Z" fill="black"/>
<path d="M27.5066 50.3574C27.4987 50.2319 27.5176 50.1062 27.5621 49.9886C27.6066 49.871 27.6756 49.7642 27.7647 49.6754C27.8537 49.5866 27.9606 49.5177 28.0783 49.4735C28.196 49.4293 28.3218 49.4107 28.4473 49.4189C28.71 49.4087 28.9662 49.5023 29.1605 49.6795C29.3547 49.8567 29.4715 50.1032 29.4855 50.3657C29.4952 50.4913 29.4779 50.6175 29.4347 50.7358C29.3915 50.8542 29.3234 50.9618 29.2351 51.0516C29.1467 51.1413 29.0401 51.2111 28.9224 51.2561C28.8048 51.3011 28.6789 51.3204 28.5532 51.3126C28.2881 51.3233 28.0295 51.229 27.8335 51.0502C27.6376 50.8713 27.5201 50.6224 27.5066 50.3574ZM29.2135 50.3574C29.2059 50.1636 29.1224 49.9804 28.981 49.8476C28.8396 49.7147 28.6516 49.6428 28.4577 49.6473C28.3642 49.6425 28.2709 49.6578 28.1839 49.6921C28.0969 49.7264 28.0183 49.779 27.9533 49.8463C27.8884 49.9136 27.8386 49.9941 27.8074 50.0823C27.7762 50.1704 27.7643 50.2643 27.7724 50.3574C27.7805 50.5524 27.865 50.7364 28.0076 50.8696C28.1501 51.0029 28.3394 51.0747 28.5345 51.0696C28.6277 51.0739 28.7207 51.0581 28.8072 51.0234C28.8938 50.9886 28.9719 50.9357 29.0362 50.8682C29.1006 50.8007 29.1497 50.7202 29.1803 50.6321C29.2109 50.5439 29.2222 50.4503 29.2135 50.3574Z" fill="black"/>
<path d="M31.4292 49.4314L31.5288 51.2836H31.3212L30.1335 49.9027L30.2061 51.2836H29.9424L29.8428 49.4314H30.0504L31.2381 50.8122L31.1655 49.4314H31.4292Z" fill="black"/>
<path d="M33.3209 50.347H33.5743L33.6137 51.0696C33.4198 51.2285 33.1749 51.3118 32.9243 51.3042C32.6616 51.3144 32.4054 51.2208 32.2111 51.0436C32.0169 50.8664 31.9001 50.6199 31.8861 50.3574C31.8769 50.231 31.8949 50.1042 31.939 49.9854C31.9831 49.8666 32.0521 49.7587 32.1415 49.6689C32.2309 49.5791 32.3385 49.5096 32.4571 49.465C32.5757 49.4204 32.7024 49.4019 32.8288 49.4105C32.9635 49.4056 33.0977 49.4285 33.2231 49.4778C33.3485 49.5271 33.4624 49.6018 33.5577 49.6971L33.4019 49.8611C33.2532 49.7218 33.0553 49.6472 32.8517 49.6535C32.7572 49.6468 32.6624 49.6607 32.5737 49.6942C32.4851 49.7277 32.4048 49.78 32.3383 49.8475C32.2718 49.9149 32.2208 49.996 32.1886 50.0851C32.1564 50.1742 32.1439 50.2692 32.1519 50.3636C32.1616 50.5602 32.2483 50.7452 32.3932 50.8784C32.5381 51.0117 32.7297 51.0826 32.9264 51.0758C33.0776 51.0796 33.2264 51.0384 33.3542 50.9575L33.3209 50.347Z" fill="black"/>
<path d="M35.3696 51.2876L34.9397 50.7187C34.9024 50.7187 34.8629 50.7187 34.8235 50.7187H34.3646L34.3936 51.2814H34.1299L34.0303 49.4292H34.7529C35.2346 49.4292 35.5398 49.6742 35.5627 50.075C35.577 50.2012 35.5471 50.3285 35.4782 50.4352C35.4094 50.5419 35.3057 50.6215 35.1848 50.6605L35.6582 51.2835L35.3696 51.2876ZM35.2969 50.0812C35.2824 49.8175 35.0893 49.6659 34.757 49.6659H34.3064L34.3521 50.4965H34.8027C35.1412 50.4944 35.3114 50.3428 35.299 50.077L35.2969 50.0812Z" fill="black"/>
<path d="M37.2134 50.8205H36.2271L36.0464 51.2877H35.7744L36.5136 49.4355H36.7773L37.72 51.2877H37.4418L37.2134 50.8205ZM37.1075 50.6129L36.659 49.7055L36.3081 50.6129H37.1075Z" fill="black"/>
<path d="M38.1831 49.6619H37.5457L37.5332 49.4314H39.0698L39.0822 49.6619H38.4448L38.532 51.2836H38.2703L38.1831 49.6619Z" fill="black"/>
<path d="M39.3627 50.4841L39.3066 49.4314H39.5724L39.6285 50.4696C39.6513 50.8849 39.8486 51.0655 40.1829 51.0655C40.5172 51.0655 40.6978 50.8807 40.675 50.4696L40.6189 49.4314H40.8764L40.9325 50.4841C40.9616 51.0219 40.6833 51.3043 40.1933 51.3043C39.7032 51.3043 39.3918 51.0219 39.3627 50.4841Z" fill="black"/>
<path d="M41.4189 49.4314H41.6847L41.7719 51.0531H42.7749L42.7873 51.2836H41.529L41.4189 49.4314Z" fill="black"/>
<path d="M44.2573 50.8205H43.271L43.0924 51.2836H42.8184L43.5596 49.4314H43.813L44.7557 51.2836H44.4774L44.2573 50.8205ZM44.1535 50.6129L43.705 49.7055L43.352 50.6129H44.1535Z" fill="black"/>
<path d="M45.2269 49.6619H44.5916L44.5791 49.4314H46.1136L46.126 49.6619H45.4907L45.5779 51.2836H45.3142L45.2269 49.6619Z" fill="black"/>
<path d="M46.4023 49.4314H46.6661L46.7678 51.2836H46.5124L46.4023 49.4314Z" fill="black"/>
<path d="M47.1224 50.3574C47.1133 50.2317 47.1312 50.1054 47.1749 49.9871C47.2186 49.8687 47.2871 49.7611 47.3758 49.6715C47.4644 49.5818 47.5713 49.5121 47.6891 49.4671C47.8069 49.4221 47.933 49.4029 48.0589 49.4106C48.3216 49.4004 48.5778 49.494 48.7721 49.6712C48.9664 49.8484 49.0831 50.0949 49.0971 50.3574C49.1069 50.483 49.0896 50.6092 49.0463 50.7276C49.0031 50.8459 48.9351 50.9535 48.8467 51.0433C48.7583 51.133 48.6517 51.2028 48.5341 51.2478C48.4164 51.2928 48.2905 51.3121 48.1648 51.3043C47.9016 51.3145 47.645 51.221 47.45 51.044C47.2551 50.8669 47.1375 50.6204 47.1224 50.3574ZM48.8293 50.3574C48.8206 50.1636 48.7365 49.9808 48.5949 49.8481C48.4533 49.7154 48.2654 49.6433 48.0714 49.6473C47.978 49.6425 47.8846 49.6578 47.7976 49.6921C47.7106 49.7265 47.632 49.779 47.567 49.8464C47.5021 49.9137 47.4523 49.9941 47.4211 50.0823C47.3899 50.1704 47.378 50.2643 47.3861 50.3574C47.3948 50.5522 47.4794 50.7359 47.6218 50.869C47.7643 51.0022 47.9533 51.0742 48.1482 51.0697C48.2414 51.0739 48.3345 51.0581 48.4212 51.0234C48.5078 50.9887 48.586 50.9358 48.6505 50.8683C48.7151 50.8008 48.7644 50.7203 48.7952 50.6322C48.826 50.5441 48.8376 50.4504 48.8293 50.3574Z" fill="black"/>
<path d="M51.045 49.4314L51.1447 51.2836H50.9267L49.7389 49.9027L49.8137 51.2836H49.5479L49.4482 49.4314H49.6663L50.854 50.8122L50.7792 49.4314H51.045Z" fill="black"/>
<path d="M51.5183 51.08L51.6055 50.8723C51.7837 51.0099 52.0033 51.0831 52.2284 51.08C52.5503 51.08 52.6811 50.9554 52.6728 50.7934C52.6479 50.3428 51.5391 50.6273 51.5017 49.94C51.4871 49.6535 51.6969 49.4105 52.1848 49.4105C52.3976 49.4076 52.607 49.4644 52.7891 49.5745L52.7122 49.7822C52.5573 49.6848 52.3783 49.6323 52.1952 49.6306C51.8817 49.6306 51.7529 49.7635 51.7612 49.9255C51.7862 50.3781 52.895 50.0937 52.9303 50.7747C52.9469 51.0571 52.7226 51.3001 52.2409 51.3001C51.9822 51.3093 51.7279 51.2318 51.5183 51.08Z" fill="black"/>
</g>
<g opacity="0.4">
<path d="M55.6999 53.5717H23.1686C23.1292 53.5718 23.0913 53.5567 23.0627 53.5297C23.0342 53.5026 23.017 53.4656 23.0149 53.4264C23.0138 53.4077 23.0165 53.389 23.0228 53.3714C23.0292 53.3538 23.0391 53.3377 23.052 53.324C23.0648 53.3104 23.0803 53.2996 23.0975 53.2922C23.1147 53.2848 23.1332 53.281 23.1519 53.281H55.6833C55.7225 53.2814 55.7601 53.2967 55.7886 53.3236C55.8171 53.3505 55.8344 53.3872 55.837 53.4264C55.8381 53.445 55.8354 53.4638 55.829 53.4814C55.8226 53.499 55.8127 53.5151 55.7999 53.5287C55.787 53.5423 55.7716 53.5531 55.7544 53.5605C55.7372 53.5679 55.7186 53.5717 55.6999 53.5717Z" fill="black"/>
</g>
<g opacity="0.4">
<path d="M56.7369 54.8737H22.2682C22.2292 54.8732 22.1919 54.8579 22.1637 54.8309C22.1356 54.8039 22.1187 54.7673 22.1166 54.7283C22.1151 54.7097 22.1176 54.6909 22.1239 54.6733C22.1302 54.6556 22.1401 54.6395 22.1531 54.626C22.166 54.6125 22.1817 54.6018 22.199 54.5948C22.2163 54.5877 22.235 54.5844 22.2537 54.585H56.7223C56.7614 54.585 56.7989 54.5997 56.8275 54.6263C56.856 54.6529 56.8734 54.6894 56.876 54.7283C56.8771 54.7472 56.8744 54.7661 56.8679 54.7838C56.8614 54.8015 56.8513 54.8177 56.8382 54.8314C56.8251 54.845 56.8094 54.8558 56.792 54.8631C56.7745 54.8704 56.7558 54.874 56.7369 54.8737Z" fill="black"/>
</g>
<g opacity="0.4">
<path d="M53.9053 56.1717H25.2506C25.2116 56.1718 25.174 56.157 25.1454 56.1304C25.1169 56.1038 25.0996 56.0673 25.0969 56.0284C25.0958 56.0097 25.0985 55.991 25.1049 55.9734C25.1113 55.9558 25.1212 55.9397 25.134 55.9261C25.1469 55.9125 25.1623 55.9016 25.1795 55.8942C25.1967 55.8868 25.2153 55.883 25.234 55.8831H53.8907C53.9298 55.884 53.9671 55.8993 53.9955 55.9262C54.0239 55.953 54.0413 55.9895 54.0444 56.0284C54.0452 56.0471 54.0423 56.0658 54.0356 56.0833C54.029 56.1007 54.0188 56.1167 54.0058 56.1301C53.9928 56.1435 53.9771 56.1542 53.9598 56.1613C53.9425 56.1685 53.924 56.172 53.9053 56.1717Z" fill="black"/>
</g>
<g opacity="0.5">
<path d="M47.3029 59.1094H32.1616C32.1226 59.109 32.0853 59.0937 32.0571 59.0667C32.029 59.0397 32.0121 59.003 32.01 58.9641C32.0089 58.9455 32.0116 58.9269 32.018 58.9094C32.0244 58.8919 32.0343 58.8759 32.0472 58.8625C32.0601 58.849 32.0756 58.8384 32.0928 58.8312C32.11 58.824 32.1284 58.8205 32.1471 58.8208H47.2863C47.3253 58.8207 47.3629 58.8355 47.3914 58.8621C47.42 58.8887 47.4373 58.9252 47.4399 58.9641C47.4411 58.9828 47.4384 59.0015 47.432 59.0191C47.4256 59.0367 47.4157 59.0528 47.4029 59.0664C47.39 59.08 47.3745 59.0909 47.3573 59.0983C47.3401 59.1057 47.3216 59.1095 47.3029 59.1094Z" fill="black"/>
</g>
<g opacity="0.5">
<path d="M44.4793 60.4842H35.1354C35.0963 60.4843 35.0587 60.4695 35.0302 60.4429C35.0017 60.4163 34.9843 60.3798 34.9817 60.3409C34.9806 60.3222 34.9833 60.3035 34.9896 60.2859C34.996 60.2683 35.0059 60.2522 35.0188 60.2386C35.0316 60.225 35.0471 60.2141 35.0643 60.2067C35.0815 60.1993 35.1 60.1955 35.1187 60.1956H44.4627C44.502 60.1955 44.5399 60.2105 44.5685 60.2376C44.5971 60.2646 44.6142 60.3016 44.6163 60.3409C44.6175 60.3595 44.6147 60.3781 44.6084 60.3956C44.602 60.4131 44.592 60.4291 44.5791 60.4425C44.5663 60.456 44.5507 60.4666 44.5336 60.4738C44.5164 60.481 44.4979 60.4845 44.4793 60.4842Z" fill="black"/>
</g>
<g opacity="0.4">
<path d="M57.2084 63.6237H22.7397C22.7007 63.6232 22.6634 63.608 22.6352 63.581C22.6071 63.554 22.5902 63.5173 22.5881 63.4784C22.587 63.4597 22.5897 63.441 22.5961 63.4234C22.6025 63.4058 22.6124 63.3897 22.6252 63.376C22.6381 63.3624 22.6536 63.3516 22.6707 63.3442C22.6879 63.3368 22.7065 63.333 22.7252 63.333H57.1939C57.2327 63.334 57.2698 63.3494 57.2978 63.3763C57.3259 63.4032 57.3429 63.4396 57.3454 63.4784C57.3469 63.4971 57.3444 63.516 57.3381 63.5337C57.3319 63.5514 57.322 63.5677 57.3091 63.5814C57.2962 63.595 57.2805 63.6059 57.2632 63.6132C57.2459 63.6205 57.2272 63.6241 57.2084 63.6237Z" fill="black"/>
</g>
<g opacity="0.4">
<path d="M54.3795 64.9215H25.7124C25.6734 64.921 25.636 64.9057 25.6079 64.8787C25.5797 64.8517 25.5629 64.815 25.5608 64.7761C25.5597 64.7575 25.5624 64.7389 25.5688 64.7214C25.5752 64.7039 25.5851 64.6879 25.598 64.6745C25.6109 64.661 25.6264 64.6504 25.6436 64.6432C25.6607 64.636 25.6792 64.6325 25.6978 64.6328H54.3629C54.4019 64.6327 54.4395 64.6475 54.468 64.6741C54.4966 64.7007 54.5139 64.7372 54.5166 64.7761C54.5177 64.7948 54.515 64.8135 54.5086 64.8311C54.5022 64.8487 54.4923 64.8648 54.4795 64.8784C54.4666 64.892 54.4511 64.9029 54.434 64.9103C54.4168 64.9177 54.3982 64.9215 54.3795 64.9215Z" fill="black"/>
</g>
<g opacity="0.5">
<path d="M30.344 71.1011C30.3206 71.1011 30.2976 71.0946 30.2776 71.0824C30.1762 71.0425 30.0848 70.981 30.0096 70.9021C29.9345 70.8232 29.8774 70.7289 29.8424 70.6257C29.8075 70.5225 29.7954 70.413 29.8071 70.3047C29.8187 70.1964 29.8539 70.0919 29.91 69.9985C30.5703 68.5679 34.4408 66.5537 35.8071 67.2161C36.3117 67.4611 36.5359 67.945 36.4487 68.5907L36.6958 68.4765C37.1111 68.2979 38.1327 67.9304 38.5646 68.3665C38.7895 68.6318 38.9104 68.9697 38.9051 69.3175C39.0516 69.2039 39.2113 69.1084 39.3806 69.033C39.7232 68.8814 40.1884 68.7838 40.4604 68.9707C40.5409 69.0395 40.6057 69.1248 40.6505 69.2208C40.6952 69.3168 40.7189 69.4213 40.7199 69.5272C41.5276 69.06 43.1888 68.9375 43.2199 68.9375C43.3964 68.9375 43.4587 69.0081 43.4795 69.0745C43.4904 69.1011 43.494 69.1301 43.49 69.1586C43.486 69.1871 43.4745 69.214 43.4566 69.2365C44.3682 69.1036 46.3636 68.9375 50.6494 68.9375C50.6887 68.9374 50.7266 68.9525 50.7552 68.9795C50.7838 69.0066 50.8009 69.0435 50.803 69.0828C50.8042 69.1015 50.8015 69.1202 50.7951 69.1378C50.7887 69.1554 50.7788 69.1715 50.766 69.1852C50.7531 69.1988 50.7376 69.2096 50.7204 69.217C50.7032 69.2244 50.6847 69.2282 50.666 69.2282C43.8865 69.2282 42.9147 69.6331 42.869 69.6559C42.8331 69.6746 42.7913 69.6785 42.7526 69.6668C42.7138 69.6552 42.6811 69.629 42.6614 69.5936C42.6421 69.5619 42.636 69.5239 42.6446 69.4877C42.6531 69.4516 42.6756 69.4202 42.7071 69.4005C42.7963 69.3507 42.8856 69.2988 42.9645 69.249C42.2855 69.3154 41.0958 69.5417 40.7012 69.8719C40.6926 70.0184 40.664 70.163 40.6161 70.3017C40.5559 70.445 40.4562 70.4346 40.4085 70.4263C40.261 70.3868 40.2631 70.2083 40.2673 70.0795C40.2716 69.9541 40.3227 69.8349 40.4105 69.7452C40.4105 69.5189 40.3918 69.2801 40.2797 69.2053C40.1676 69.1306 39.8644 69.1327 39.4844 69.2967C39.248 69.3986 39.0357 69.5493 38.8615 69.739C38.8454 69.9618 38.7891 70.1799 38.6954 70.3827C38.677 70.4195 38.6454 70.448 38.607 70.4626C38.5685 70.4772 38.526 70.4769 38.4878 70.4616C38.3486 70.4097 38.3632 70.2353 38.3715 70.1211C38.3892 69.9401 38.4567 69.7675 38.5667 69.6227C38.5999 69.2552 38.5667 68.8087 38.3237 68.5596C38.1285 68.3519 37.5118 68.4329 36.7892 68.7423C36.6314 68.8087 36.4799 68.8835 36.3345 68.9603C36.0874 69.8117 35.3482 70.8748 34.8935 70.8146C34.8208 70.8042 34.6464 70.7523 34.6173 70.4657C34.5592 69.8926 35.2402 69.2323 36.0833 68.761C36.1933 68.3125 36.2016 67.7373 35.6576 67.4715C34.4117 66.8673 30.7427 68.8254 30.1426 70.1273C29.991 70.4554 30.0595 70.6692 30.3648 70.825C30.3995 70.842 30.4263 70.8719 30.4395 70.9083C30.4526 70.9447 30.4512 70.9848 30.4354 71.0201C30.4276 71.0399 30.4153 71.0575 30.3994 71.0716C30.3835 71.0856 30.3645 71.0958 30.344 71.1011ZM35.9774 69.195C35.3316 69.6102 34.9059 70.1107 34.9391 70.4554C34.9394 70.4836 34.9465 70.5114 34.9599 70.5363C35.1115 70.5509 35.668 69.9549 35.9774 69.195Z" fill="black"/>
</g>
<path d="M51.2422 74.6453L55.8726 25.135H91.1947L86.5643 74.6453H51.2422Z" fill="#0D92F4"/>
<path opacity="0.2" d="M51.2422 74.6453L55.8726 25.135H91.1947L86.5643 74.6453H51.2422Z" fill="black"/>
<path d="M90.385 25.135L85.7587 74.6453H50.4346L51.9026 58.9579L52.2141 55.6024L52.7685 49.6929L55.0027 25.8036L55.065 25.135H90.385Z" fill="#0D92F4"/>
<path opacity="0.2" d="M71.5083 25.135L52.7686 49.6929L55.0028 25.8036L55.5115 25.135H71.5083Z" fill="white"/>
<path opacity="0.2" d="M77.7102 25.135L51.9023 58.9579L52.2138 55.6024L75.4635 25.135H77.7102Z" fill="white"/>
<path d="M84.3674 29.1759C84.4168 28.7465 84.3445 28.3118 84.1588 27.9215C83.973 27.5312 83.6812 27.201 83.3167 26.9687L83.379 26.2876H60.4033L60.339 26.9687C59.9359 27.1925 59.5924 27.5098 59.3373 27.8938C59.0822 28.2779 58.923 28.7176 58.873 29.1759C58.8245 29.6055 58.8974 30.04 59.0835 30.4302C59.2696 30.8204 59.5614 31.1505 59.9257 31.3831L59.8614 32.0642H82.837L82.9014 31.3831C83.3049 31.1599 83.6488 30.8427 83.9039 30.4586C84.1591 30.0744 84.318 29.6344 84.3674 29.1759Z" fill="#0D92F4"/>
<path opacity="0.4" d="M84.3674 29.1759C84.4168 28.7465 84.3445 28.3118 84.1588 27.9215C83.973 27.5312 83.6812 27.201 83.3167 26.9687L83.379 26.2876H60.4033L60.339 26.9687C59.9359 27.1925 59.5924 27.5098 59.3373 27.8938C59.0822 28.2779 58.923 28.7176 58.873 29.1759C58.8245 29.6055 58.8974 30.04 59.0835 30.4302C59.2696 30.8204 59.5614 31.1505 59.9257 31.3831L59.8614 32.0642H82.837L82.9014 31.3831C83.3049 31.1599 83.6488 30.8427 83.9039 30.4586C84.1591 30.0744 84.318 29.6344 84.3674 29.1759Z" fill="white"/>
<path opacity="0.4" d="M84.006 29.1759C83.9564 29.6343 83.7973 30.0741 83.5422 30.4583C83.2871 30.8424 82.9434 31.1596 82.5401 31.3831L82.4757 32.0642H59.8614L59.9257 31.3831C59.8904 31.3603 59.8551 31.3375 59.8219 31.3125C59.4881 31.0729 59.2241 30.7486 59.0573 30.3731C58.8905 29.9975 58.8269 29.5843 58.873 29.1759C58.9227 28.7172 59.082 28.2772 59.3375 27.8931C59.593 27.5089 59.9372 27.1918 60.341 26.9687L60.4033 26.2876H83.0177L82.9554 26.9687C83.3195 27.2014 83.611 27.5316 83.7968 27.9218C83.9825 28.312 84.055 28.7465 84.006 29.1759Z" fill="white"/>
<path d="M75.8377 70.0647L75.5699 72.9115H59.8223L60.0901 70.0647H75.8377Z" fill="#263238"/>
<g opacity="0.4">
<path d="M71.0148 71.1609H64.9309C64.8951 71.1609 64.8607 71.1467 64.8354 71.1214C64.8101 71.0961 64.7959 71.0618 64.7959 71.026C64.7959 70.99 64.81 70.9554 64.8353 70.9298C64.8606 70.9041 64.8949 70.8895 64.9309 70.8889H71.0148C71.0508 70.8895 71.0851 70.9041 71.1104 70.9298C71.1356 70.9554 71.1498 70.99 71.1498 71.026C71.1498 71.0618 71.1355 71.0961 71.1102 71.1214C71.0849 71.1467 71.0506 71.1609 71.0148 71.1609Z" fill="white"/>
<path d="M73.6329 72.0684H61.9426C61.9066 72.0679 61.8723 72.0532 61.847 72.0275C61.8218 72.0019 61.8076 71.9673 61.8076 71.9314C61.8076 71.8956 61.8218 71.8612 61.8471 71.8359C61.8725 71.8106 61.9068 71.7964 61.9426 71.7964H73.6329C73.6688 71.7964 73.7034 71.8105 73.729 71.8358C73.7547 71.861 73.7694 71.8954 73.7699 71.9314C73.7694 71.9675 73.7548 72.0021 73.7292 72.0277C73.7036 72.0533 73.669 72.0679 73.6329 72.0684Z" fill="white"/>
</g>
<path d="M66.6827 28.7501L66.664 28.939H65.5635L65.7047 27.417H66.7782L66.7595 27.6059H65.904L65.8604 28.0731H66.6225L66.6058 28.2579H65.8438L65.7981 28.7501H66.6827Z" fill="#263238"/>
<path d="M68.4249 28.939L68.5225 27.824L67.8996 28.7542H67.7999L67.3369 27.8364L67.233 28.939H67.0254L67.1687 27.417H67.3452L67.8788 28.4864L68.6035 27.417H68.782L68.6408 28.939H68.4249Z" fill="#263238"/>
<path d="M70.4097 27.9465C70.3786 28.2787 70.1211 28.478 69.7245 28.478H69.3528L69.3092 28.939H69.1016L69.2448 27.417H69.8366C70.2208 27.4087 70.4409 27.6163 70.4097 27.9465ZM70.2021 27.9465C70.2228 27.7388 70.0879 27.6059 69.8117 27.6059H69.4421L69.3777 28.2891H69.7473C70.0152 28.2891 70.1709 28.1645 70.1834 27.9465H70.2021Z" fill="#263238"/>
<path d="M70.78 27.4087H70.9876L70.863 28.7418H71.6936L71.6749 28.9307H70.6367L70.78 27.4087Z" fill="#263238"/>
<path d="M71.8446 28.1771C71.8665 27.96 71.9696 27.7592 72.1332 27.6148C72.2968 27.4704 72.5089 27.3932 72.7271 27.3984C72.8289 27.3918 72.931 27.4078 73.026 27.4452C73.121 27.4827 73.2065 27.5408 73.2764 27.6152C73.3462 27.6896 73.3988 27.7786 73.4302 27.8758C73.4616 27.9729 73.4711 28.0759 73.458 28.1771C73.4371 28.394 73.3349 28.5951 73.172 28.7399C73.0091 28.8847 72.7975 28.9625 72.5796 28.9578C72.4773 28.9648 72.3747 28.949 72.2792 28.9116C72.1837 28.8742 72.0977 28.816 72.0274 28.7413C71.9571 28.6667 71.9043 28.5773 71.8727 28.4798C71.841 28.3822 71.8314 28.2788 71.8446 28.1771ZM73.242 28.1771C73.2529 28.1022 73.247 28.0259 73.2248 27.9536C73.2025 27.8812 73.1645 27.8148 73.1134 27.7589C73.0624 27.7031 72.9996 27.6593 72.9295 27.6307C72.8594 27.6021 72.7839 27.5895 72.7084 27.5936C72.5453 27.5893 72.3867 27.6472 72.2649 27.7556C72.143 27.8639 72.0669 28.0147 72.0522 28.1771C72.0413 28.2524 72.0473 28.3293 72.0697 28.402C72.0922 28.4747 72.1306 28.5415 72.1821 28.5976C72.2336 28.6537 72.2969 28.6976 72.3674 28.7261C72.438 28.7547 72.514 28.7671 72.59 28.7627C72.7528 28.7664 72.9109 28.7079 73.0321 28.5991C73.1532 28.4903 73.2283 28.3394 73.242 28.1771Z" fill="#263238"/>
<path d="M74.2862 28.4137L74.2364 28.939H74.0287L74.0786 28.4095L73.5615 27.4087H73.7941L74.2094 28.2102L74.7742 27.4087H74.9818L74.2862 28.4137Z" fill="#263238"/>
<path d="M76.1534 28.7501L76.1347 28.939H75.0342L75.1775 27.417H76.2489L76.2302 27.6059H75.3747L75.3311 28.0731H76.0932L76.0765 28.2579H75.3145L75.2688 28.7501H76.1534Z" fill="#263238"/>
<path d="M77.6065 28.7501L77.5899 28.939H76.4873L76.6306 27.417H77.702L77.6854 27.6059H76.8278L76.7842 28.0731H77.5463L77.5276 28.2579H76.7656L76.7199 28.7501H77.6065Z" fill="#263238"/>
<path d="M62.7352 30.1724C62.7571 29.9556 62.8599 29.7551 63.0231 29.6108C63.1863 29.4665 63.3979 29.3889 63.6156 29.3937C63.7177 29.3867 63.82 29.4025 63.9153 29.4398C64.0105 29.4771 64.0963 29.5351 64.1664 29.6096C64.2365 29.6841 64.2892 29.7732 64.3207 29.8705C64.3522 29.9678 64.3618 30.0709 64.3486 30.1724C64.3277 30.3891 64.2255 30.5899 64.0625 30.7344C63.8996 30.8788 63.688 30.9562 63.4703 30.951C63.3681 30.9583 63.2655 30.9428 63.17 30.9057C63.0745 30.8685 62.9885 30.8105 62.9181 30.736C62.8478 30.6615 62.7949 30.5722 62.7633 30.4748C62.7316 30.3773 62.7221 30.274 62.7352 30.1724ZM64.1306 30.1724C64.1418 30.0975 64.1362 30.0211 64.1142 29.9487C64.0922 29.8763 64.0545 29.8096 64.0036 29.7536C63.9527 29.6976 63.89 29.6535 63.8201 29.6247C63.7501 29.5958 63.6746 29.5829 63.599 29.5868C63.4371 29.5846 63.2803 29.6438 63.1601 29.7524C63.04 29.861 62.9653 30.011 62.9512 30.1724C62.9403 30.2477 62.9463 30.3245 62.9687 30.3972C62.9912 30.47 63.0295 30.5368 63.081 30.5929C63.1325 30.6489 63.1958 30.6928 63.2664 30.7214C63.337 30.7499 63.413 30.7624 63.489 30.7579C63.6501 30.7595 63.8059 30.7 63.925 30.5913C64.044 30.4827 64.1175 30.333 64.1306 30.1724Z" fill="#263238"/>
<path d="M64.9534 29.6014L64.9036 30.1309H65.6636L65.647 30.3178H64.8849L64.8268 30.9407H64.6191L64.7624 29.4187H65.8235L65.8048 29.6077L64.9534 29.6014Z" fill="#263238"/>
<path d="M66.9986 29.6013H66.4795L66.4961 29.4124H67.7523L67.7357 29.6013H67.2145L67.09 30.9344H66.8823L66.9986 29.6013Z" fill="#263238"/>
<path d="M69.2943 29.4124L69.1448 30.9385H68.9372L69.0015 30.2595H68.1294L68.0651 30.9385H67.8574L67.9986 29.4165H68.2166L68.1544 30.0706H69.0265L69.0887 29.4165L69.2943 29.4124Z" fill="#263238"/>
<path d="M70.7297 30.7454L70.711 30.9344H69.6084L69.7517 29.4124H70.8231L70.8065 29.6013H69.951L69.9074 30.0685H70.6694L70.6508 30.2533H69.8908L69.843 30.7454H70.7297Z" fill="#263238"/>
<path d="M73.0553 30.9385L73.157 29.8297L72.5216 30.7537H72.422L71.9589 29.8359L71.8551 30.9385H71.6475L71.7907 29.4165H71.9693L72.5009 30.4859L73.2276 29.4165H73.4041L73.265 30.9385H73.0553Z" fill="#263238"/>
<path d="M73.6676 30.1724C73.69 29.9554 73.7932 29.7549 73.9567 29.6106C74.1202 29.4663 74.332 29.3889 74.5501 29.3937C74.6521 29.3867 74.7544 29.4025 74.8497 29.4398C74.9449 29.4771 75.0307 29.5351 75.1008 29.6096C75.1709 29.6841 75.2236 29.7732 75.2551 29.8705C75.2866 29.9678 75.2962 30.0709 75.283 30.1724C75.2616 30.3889 75.1593 30.5894 74.9964 30.7338C74.8336 30.8782 74.6223 30.9557 74.4047 30.951C74.3024 30.9583 74.1998 30.9428 74.1042 30.9056C74.0086 30.8684 73.9225 30.8105 73.852 30.736C73.7815 30.6615 73.7284 30.5724 73.6965 30.4749C73.6646 30.3774 73.6547 30.2741 73.6676 30.1724ZM75.065 30.1724C75.0758 30.0974 75.0699 30.021 75.0477 29.9486C75.0255 29.8761 74.9875 29.8095 74.9365 29.7536C74.8855 29.6976 74.8227 29.6536 74.7526 29.6248C74.6826 29.5959 74.607 29.583 74.5314 29.5868C74.3696 29.5847 74.2131 29.6439 74.0933 29.7525C73.9734 29.8612 73.8992 30.0112 73.8856 30.1724C73.8747 30.2477 73.8807 30.3245 73.9031 30.3972C73.9256 30.47 73.9639 30.5368 74.0154 30.5929C74.0669 30.6489 74.1302 30.6928 74.2008 30.7214C74.2714 30.7499 74.3474 30.7624 74.4234 30.7579C74.5846 30.7595 74.7403 30.7 74.8594 30.5913C74.9784 30.4827 75.0519 30.333 75.065 30.1724Z" fill="#263238"/>
<path d="M76.9917 29.4124L76.8505 30.9344H76.6719L75.8663 29.7986L75.7604 30.9344H75.5527L75.6939 29.4124H75.8725L76.6782 30.5461L76.7841 29.4124H76.9917Z" fill="#263238"/>
<path d="M77.7331 29.6013H77.2119L77.2306 29.4124H78.4889L78.4702 29.6013H77.949L77.8245 30.9344H77.6168L77.7331 29.6013Z" fill="#263238"/>
<path d="M80.0299 29.4124L79.8866 30.9344H79.679L79.7413 30.2554H78.8692L78.8069 30.9344H78.5889L78.7321 29.4124H78.9398L78.8796 30.0664H79.7517L79.8119 29.4124H80.0299Z" fill="#263238"/>
<path opacity="0.2" d="M82.9951 29.3958C83.0109 29.3469 83.0234 29.297 83.0324 29.2463C83.0864 28.8913 82.9245 28.5736 82.6711 28.5341C82.5881 28.5288 82.5052 28.5467 82.4318 28.586C82.3584 28.6253 82.2975 28.6842 82.2559 28.7563L82.9951 29.3958Z" fill="black"/>
<path opacity="0.2" d="M82.1637 28.9224C82.1416 28.9816 82.1249 29.0428 82.1139 29.1051C82.0599 29.4602 82.2219 29.7779 82.4752 29.8173C82.5648 29.8231 82.6542 29.8024 82.7321 29.7577C82.8101 29.713 82.8731 29.6464 82.9133 29.5661L82.1637 28.9224Z" fill="black"/>
<path opacity="0.2" d="M59.9158 28.9224C59.892 28.9812 59.8746 29.0425 59.8639 29.1051C59.8099 29.4602 59.9719 29.7779 60.2252 29.8173C60.3148 29.8231 60.4042 29.8024 60.4821 29.7577C60.5601 29.713 60.6231 29.6464 60.6633 29.5661L59.9158 28.9224Z" fill="black"/>
<path opacity="0.2" d="M60.744 29.3958C60.7608 29.3471 60.7733 29.2971 60.7813 29.2463C60.8353 28.8912 60.6754 28.5735 60.4221 28.5341C60.3391 28.5289 60.2563 28.547 60.183 28.5862C60.1096 28.6255 60.0486 28.6843 60.0068 28.7562L60.744 29.3958Z" fill="black"/>
<path opacity="0.2" d="M68.4685 26.2876L64.0603 32.0642H59.8617L59.9261 31.3831C59.8908 31.3603 59.8555 31.3375 59.8223 31.3125L63.6553 26.2876H68.4685Z" fill="white"/>
<path opacity="0.2" d="M70.3331 26.2876L65.9248 32.0642H65.25L69.6562 26.2876H70.3331Z" fill="white"/>
<path opacity="0.2" d="M75.8372 70.0647L75.5693 72.9115H71.2773L73.4493 70.0647H75.8372Z" fill="white"/>
<path opacity="0.2" d="M72.2599 70.0647L70.0879 72.9115H69.4131L71.585 70.0647H72.2599Z" fill="white"/>
<path d="M60.005 32.2592L60.8834 32.064L60.005 31.8688L59.8098 30.9905L59.6147 31.8688L58.7363 32.064L59.6147 32.2592L59.8098 33.1375L60.005 32.2592Z" fill="white"/>
<path d="M83.1095 26.5388L83.9878 26.3437L83.1095 26.1485L82.9143 25.2681L82.7191 26.1485L81.8408 26.3437L82.7191 26.5388L82.9143 27.4172L83.1095 26.5388Z" fill="white"/>
<path d="M80.2497 31.4576L80.7335 31.3517L80.2497 31.2437L80.1417 30.7578L80.0337 31.2437L79.5479 31.3517L80.0337 31.4576L80.1417 31.9434L80.2497 31.4576Z" fill="white"/>
<path d="M59.9177 73.0217L60.4015 72.9137L59.9177 72.8057L59.8097 72.3198L59.7017 72.8057L59.2158 72.9137L59.7017 73.0217L59.8097 73.5055L59.9177 73.0217Z" fill="white"/>
<path d="M72.7583 70.4841L73.2442 70.3761L72.7583 70.2681L72.6525 69.7822L72.5445 70.2681L72.0586 70.3761L72.5445 70.4841L72.6525 70.9679L72.7583 70.4841Z" fill="white"/>
<path opacity="0.2" d="M84.1991 68.0112L87.401 34.1384H55.86L52.6582 68.0112H84.1991Z" fill="black"/>
<path d="M84.199 68.0112L87.4009 34.1384H56.6677L53.4658 68.0112H84.199Z" fill="#263238"/>
<path opacity="0.5" d="M84.199 68.0112L87.4009 34.1384H56.6677L53.4658 68.0112H84.199Z" fill="white"/>
<path d="M87.4012 34.8962L84.3613 67.0393H54.4795L57.5173 34.8962H87.4012Z" fill="#0D92F4"/>
<path opacity="0.7" d="M87.4012 34.8962L84.3613 67.0393H54.4795L57.5173 34.8962H87.4012Z" fill="white"/>
<path d="M61.8032 60.5505L62.6545 61.9584C62.6545 61.9584 63.4581 61.8691 63.7155 61.9584C63.973 62.0476 63.8941 65.2557 63.674 65.4571C63.4539 65.6585 62.7832 65.1623 62.4489 64.9214C62.1146 64.6806 62.0876 63.416 62.0876 63.416L60.875 61.4808L61.8032 60.5505Z" fill="#EBB376"/>
<path d="M59.5171 55.5734C59.5171 56.0717 62.557 61.4663 62.557 61.4663L61.0246 62.5045C61.0246 62.5045 56.9756 56.7112 56.9756 55.4322C56.9756 54.1531 63.3793 47.6892 64.9781 47.7618L65.4225 51.026C65.4225 51.026 65.3083 51.1028 65.1131 51.2336C64.5836 51.5991 63.452 52.386 62.3494 53.1938C60.9146 54.2486 59.5171 55.3325 59.5171 55.5734Z" fill="white"/>
<path opacity="0.1" d="M65.1137 51.2419C64.5842 51.6073 63.4525 52.3943 62.35 53.202C62.3188 51.4744 64.3869 50.1248 64.3869 50.1248C64.5758 50.2538 64.7372 50.419 64.8619 50.6107C64.9867 50.8024 65.0722 51.0169 65.1137 51.2419Z" fill="black"/>
<path d="M75.5946 67.0393H74.9717C74.8778 67.1016 74.7784 67.1551 74.6747 67.1991C74.6436 67.2137 74.5792 67.1514 74.4962 67.0393H63.46C63.5347 66.5222 63.6074 66.0446 63.678 65.6148C63.6925 65.5359 63.705 65.4549 63.7174 65.376C63.7507 65.1809 63.7818 64.994 63.8109 64.8196C63.8119 64.8106 63.8119 64.8015 63.8109 64.7926C63.8379 64.6431 63.8649 64.5039 63.8898 64.3773C63.8898 64.3316 63.9064 64.2859 63.9126 64.2402H75.5614C75.5614 64.288 75.5614 64.3337 75.5614 64.3794C75.5614 64.751 75.5759 65.5193 75.5884 66.5658C75.5821 66.7112 75.5925 66.8731 75.5946 67.0393Z" fill="#263238"/>
<path opacity="0.2" d="M75.5946 67.0393H74.9717C74.8778 67.1016 74.7784 67.1551 74.6747 67.1991C74.6436 67.2137 74.5792 67.1514 74.4962 67.0393H63.46C63.5347 66.5222 63.6074 66.0446 63.678 65.6148C63.6925 65.5359 63.705 65.4549 63.7174 65.376C63.7507 65.1809 63.7818 64.994 63.8109 64.8196C63.8119 64.8106 63.8119 64.8015 63.8109 64.7926C63.8379 64.6431 63.8649 64.5039 63.8898 64.3773C63.8898 64.3316 63.9064 64.2859 63.9126 64.2402H75.5614C75.5614 64.288 75.5614 64.3337 75.5614 64.3794C75.5614 64.751 75.5759 65.5193 75.5884 66.5658C75.5821 66.7112 75.5925 66.8731 75.5946 67.0393Z" fill="white"/>
<path d="M63.8175 64.3647H75.541V65.7601L63.668 65.6148L63.8175 64.3647Z" fill="#263238"/>
<path d="M71.7739 63.7356H71.3545V66.2128H71.7739V63.7356Z" fill="#263238"/>
<path d="M65.8423 63.7356H65.4229V66.2128H65.8423V63.7356Z" fill="#263238"/>
<path d="M69.16 64.1199H66.9922V65.6813H69.16V64.1199Z" fill="#0D92F4"/>
<path opacity="0.2" d="M71.7739 63.7356H71.3545V66.2128H71.7739V63.7356Z" fill="white"/>
<path opacity="0.2" d="M65.8423 63.7356H65.4229V66.2128H65.8423V63.7356Z" fill="white"/>
<path opacity="0.4" d="M69.16 64.1199H66.9922V65.6813H69.16V64.1199Z" fill="white"/>
<path d="M77.9055 48.6172C77.9055 48.6172 77.5318 50.16 77.0749 52.3818C76.942 53.0379 76.8029 53.7522 76.6597 54.5018C76.0699 57.6953 75.5031 61.5616 75.5488 64.3648H63.817C63.817 64.3648 63.0549 53.6567 64.9777 47.7534C64.9777 47.7576 72.3864 47.4772 77.9055 48.6172Z" fill="white"/>
<path d="M73.5809 48.0628C72.5157 49.0304 69.9098 48.6732 69.9098 48.6732C69.9098 48.6732 68.2839 48.2268 68.6265 47.7202C69.5838 47.5603 70.0468 47.1139 70.2399 46.5408C70.3439 46.1859 70.3763 45.814 70.3354 45.4465C70.3203 45.2417 70.2939 45.0379 70.2565 44.836L73.4771 42.4502C73.0555 44.02 72.5385 46.927 73.5809 48.0628Z" fill="#EBB376"/>
<path opacity="0.2" d="M72.7339 43.9661C72.6052 45.8992 71.0167 46.4329 70.2422 46.5408C70.3462 46.186 70.3786 45.814 70.3377 45.4466L72.7339 43.9661Z" fill="black"/>
<path d="M68.0241 37.4419C68.0241 37.4419 67.125 40.3489 68.5328 41.7297C69.9406 43.1105 70.7712 37.5769 70.7712 37.5769L68.0241 37.4419Z" fill="#263238"/>
<path d="M72.7629 44.7822C72.3583 45.2224 71.8205 45.5177 71.232 45.6227C70.6435 45.7277 70.0367 45.6367 69.5049 45.3636C68.8093 45.0226 68.2707 44.4282 67.9995 43.7024C67.9608 43.6026 67.9275 43.5007 67.8999 43.3972C67.3953 41.462 67.6258 38.2456 69.7271 37.3403C70.1904 37.1381 70.6978 37.058 71.2009 37.1075C71.7039 37.157 72.186 37.3344 72.6011 37.6229C73.0161 37.9114 73.3504 38.3014 73.5721 38.7557C73.7938 39.21 73.8955 39.7135 73.8675 40.2182C73.7845 42.3839 73.8364 43.6568 72.7629 44.7822Z" fill="#EBB376"/>
<path d="M71.0764 40.8723C71.091 41.0467 70.9892 41.192 70.8688 41.1941C70.7483 41.1962 70.6611 41.055 70.6611 40.8806C70.6611 40.7062 70.7504 40.5587 70.8688 40.5567C70.9871 40.5546 71.0702 40.6979 71.0764 40.8723Z" fill="#263238"/>
<path d="M68.8157 40.9054C68.8323 41.0798 68.7285 41.2272 68.608 41.2293C68.4876 41.2314 68.4004 41.0881 68.4004 40.9137C68.4004 40.7392 68.4897 40.5939 68.608 40.5918C68.7264 40.5897 68.8115 40.7455 68.8157 40.9054Z" fill="#263238"/>
<path d="M69.2406 41.0071C69.0419 41.5496 68.7686 42.0619 68.4287 42.5291C68.5514 42.6132 68.691 42.6693 68.8377 42.6937C68.9844 42.7181 69.1347 42.7101 69.278 42.6703L69.2406 41.0071Z" fill="#D58745"/>
<path d="M71.2013 40.2349C71.1826 40.2378 71.1634 40.2358 71.1456 40.2293C71.1278 40.2228 71.112 40.2118 71.0996 40.1975C71.0218 40.0938 70.9208 40.0097 70.8047 39.952C70.6886 39.8943 70.5606 39.8646 70.431 39.8653C70.4173 39.8665 70.4036 39.865 70.3905 39.861C70.3775 39.8569 70.3653 39.8502 70.3548 39.8415C70.3443 39.8327 70.3356 39.8219 70.3293 39.8098C70.3229 39.7977 70.319 39.7844 70.3178 39.7708C70.3166 39.7572 70.318 39.7434 70.3221 39.7304C70.3262 39.7173 70.3328 39.7052 70.3416 39.6947C70.3504 39.6841 70.3611 39.6755 70.3733 39.6691C70.3854 39.6628 70.3986 39.6589 70.4123 39.6576C70.5766 39.6547 70.7393 39.6908 70.8869 39.763C71.0346 39.8352 71.163 39.9414 71.2615 40.0729C71.279 40.0939 71.2875 40.1209 71.2851 40.1482C71.2828 40.1754 71.2699 40.2005 71.2491 40.2183C71.2344 40.2269 71.2182 40.2326 71.2013 40.2349Z" fill="#263238"/>
<path d="M67.7375 40.2639C67.7179 40.27 67.6969 40.27 67.6773 40.2639C67.6523 40.2525 67.6327 40.2319 67.6226 40.2063C67.6125 40.1807 67.6128 40.1522 67.6233 40.1269C67.6897 39.9766 67.7907 39.8443 67.9181 39.7407C68.0455 39.6371 68.1957 39.5652 68.3563 39.5309C68.3833 39.5274 68.4105 39.5345 68.4323 39.5508C68.454 39.5671 68.4685 39.5913 68.4726 39.6181C68.4756 39.645 68.4683 39.672 68.4521 39.6936C68.4359 39.7152 68.412 39.7298 68.3854 39.7344C68.2588 39.7642 68.141 39.8234 68.0415 39.9071C67.9419 39.9907 67.8634 40.0966 67.8123 40.2161C67.804 40.229 67.7931 40.24 67.7802 40.2482C67.7672 40.2565 67.7527 40.2618 67.7375 40.2639Z" fill="#263238"/>
<path d="M72.2252 37.5562L72.084 38.5072C72.2426 38.5885 72.3649 38.7266 72.4264 38.8939C72.488 39.0613 72.4843 39.2456 72.4162 39.4104C72.0861 40.2036 72.5055 41.4598 73.1077 41.9727C73.1077 41.9727 73.1367 41.6259 73.4274 41.7152C73.7181 41.8045 73.5873 43.611 72.9914 44.4582C72.9914 44.4582 74.0296 43.5321 74.5653 41.6467C75.0657 39.9046 75.0138 38.6131 74.6712 37.9237L72.2252 37.5562Z" fill="#263238"/>
<path d="M74.8473 41.9747C74.6169 42.4689 74.2004 42.8518 73.6886 43.0399C73.0096 43.2829 72.6172 42.6869 72.7625 42.0183C72.8954 41.4245 73.4062 40.5648 74.1101 40.6167C74.814 40.6687 75.1214 41.3663 74.8473 41.9747Z" fill="#EBB376"/>
<path d="M69.1182 43.1998C69.2064 43.4496 69.2758 43.7058 69.3258 43.966C69.3736 43.966 69.4192 43.966 69.467 43.966C70.1024 43.9369 70.3869 43.7127 70.5052 43.4739C70.5637 43.3566 70.5929 43.2269 70.5903 43.096C70.5907 43.0209 70.581 42.9462 70.5613 42.8738C70.2332 43.0918 69.6435 43.1645 69.3258 43.1894C69.2033 43.1894 69.1182 43.1998 69.1182 43.1998Z" fill="#263238"/>
<path d="M69.334 43.1894L69.4025 43.4157C70.0005 43.3867 70.4179 43.2849 70.5985 43.096C70.5989 43.0209 70.5891 42.9462 70.5695 42.8738C70.2414 43.0877 69.6517 43.1603 69.334 43.1894Z" fill="white"/>
<path d="M69.4717 43.9618C70.1071 43.9328 70.3915 43.7085 70.5099 43.4697C70.269 43.4856 70.0328 43.5439 69.8122 43.6421C69.6686 43.7112 69.5497 43.8228 69.4717 43.9618Z" fill="#DE5753"/>
<path d="M71.5646 37.8842C71.5646 37.8842 71.4234 39.02 72.8437 39.6056C74.264 40.1912 74.7789 40.6895 74.7789 40.6895C74.7789 40.6895 75.7361 37.9009 73.9982 36.8709C73.9982 36.8709 73.9608 36.3394 72.4699 35.8327C70.9791 35.3261 68.8403 35.5628 67.8727 37.3589C67.1439 38.7086 67.8187 39.6679 67.8187 39.6679C67.8187 39.6679 67.9599 38.8851 69.3449 38.7086C70.1363 38.5998 70.894 38.3184 71.5646 37.8842Z" fill="#263238"/>
<path d="M68.8485 48.5155L69.162 50.0479C69.162 50.0479 67.3763 57.4919 66.9922 61.352L67.6421 62.004L68.6658 61.352C68.6658 61.352 68.7572 53.4907 69.6604 50.1871L71.2779 48.8623L70.0051 48.447L68.8485 48.5155Z" fill="#0D92F4"/>
<path d="M73.2152 46.6052L70.1213 48.0006L69.9386 46.8814L68.8028 47.2821C68.6036 47.3513 68.4337 47.4857 68.3206 47.6637C68.2075 47.8416 68.1579 48.0525 68.1799 48.2622L68.3086 49.4894L69.8784 48.6297L70.6612 49.7365L74.378 47.9466L73.2152 46.6052Z" fill="#0D92F4"/>
<path opacity="0.9" d="M73.2152 46.6052L70.1213 48.0006L69.9386 46.8814L68.8028 47.2821C68.6036 47.3513 68.4337 47.4857 68.3206 47.6637C68.2075 47.8416 68.1579 48.0525 68.1799 48.2622L68.3086 49.4894L69.8784 48.6297L70.6612 49.7365L74.378 47.9466L73.2152 46.6052Z" fill="white"/>
<path d="M73.2948 56.0903L72.2275 55.594L71.0605 55.9262L71.2537 53.3328L73.4858 53.4989L73.2948 56.0903Z" fill="#0D92F4"/>
<path opacity="0.2" d="M73.2948 56.0903L72.2275 55.594L71.0605 55.9262L71.2537 53.3328L73.4858 53.4989L73.2948 56.0903Z" fill="white"/>
<path d="M72.5317 51.2668L72.7456 51.4309L73.0031 51.3624L73.1692 51.5742L73.4371 51.5721L73.545 51.8192L73.8046 51.8835L73.8461 52.1473L74.0828 52.276L74.0579 52.5418L74.2552 52.7245L74.1638 52.9778L74.3112 53.2021L74.1596 53.4243L74.2448 53.6797L74.0434 53.8561L74.0621 54.124L73.8233 54.2465L73.7755 54.5102L73.5139 54.5704L73.4018 54.8134L73.1339 54.8051L72.9636 55.0127L72.7061 54.938L72.4902 55.0979L72.2597 54.9629L72.0105 55.0626L71.8216 54.8736L71.5558 54.9089L71.4188 54.6784L71.1509 54.6473L71.0762 54.3898L70.827 54.2922L70.8166 54.0243L70.5986 53.8686L70.6567 53.607L70.4844 53.4014L70.6069 53.1626L70.4906 52.9197L70.6671 52.7183L70.6152 52.4566L70.8353 52.3051L70.8498 52.0372L71.1031 51.9458L71.1841 51.6904L71.452 51.6634L71.5932 51.4371L71.859 51.4786L72.0521 51.2918L72.2992 51.3997L72.5317 51.2668Z" fill="#0D92F4"/>
<path opacity="0.4" d="M72.4601 54.7963C73.3549 54.7591 74.0502 54.0035 74.013 53.1086C73.9758 52.2138 73.2202 51.5185 72.3254 51.5557C71.4305 51.5929 70.7352 52.3485 70.7724 53.2433C70.8096 54.1382 71.5652 54.8335 72.4601 54.7963Z" fill="white"/>
<path d="M71.6804 53.5219L71.5953 53.8749L71.8216 53.8915L71.9088 53.5385L72.1061 53.5531L72.0189 53.9061L72.2494 53.9227L72.3324 53.5697L72.5691 53.5863L72.6024 53.4347L72.6211 53.362L72.3864 53.3454L72.457 53.061L72.6937 53.0796L72.7456 52.8533L72.511 52.8367L72.6065 52.4318L72.3802 52.4152L72.2805 52.8201L72.0853 52.8055L72.1829 52.4006L71.9566 52.384L71.859 52.7993L71.6327 52.7827L71.5787 53.009L71.805 53.0236L71.7344 53.308L71.5081 53.2914L71.4894 53.3641L71.4541 53.5157L71.6804 53.5219ZM72.2265 53.0423L72.1601 53.3267L71.9628 53.3122L72.0313 53.0277L72.2265 53.0423Z" fill="#0D92F4"/>
<path d="M72.9186 52.6435L72.9082 52.8034L73.1013 52.8159L73.0536 53.4658L73.0141 53.9787L73.2404 53.9953L73.2799 53.4824L73.3546 52.4878L73.1948 52.4753C73.1672 52.5244 73.127 52.5652 73.0785 52.5937C73.0308 52.6248 72.9755 52.642 72.9186 52.6435Z" fill="#0D92F4"/>
<path d="M78.7568 62.5585L78.3145 63.0464L77.0064 64.4999C77.0064 64.4999 76.9129 65.154 76.6451 65.4676C76.3161 65.8548 75.9631 66.2209 75.5882 66.5639C75.394 66.7418 75.1856 66.9036 74.9653 67.0477C74.8714 67.1101 74.772 67.1636 74.6683 67.2076C74.6372 67.2221 74.5728 67.1598 74.4898 67.0477C74.2037 66.6294 73.9423 66.1946 73.7069 65.7458C73.5533 65.4655 73.4453 65.2558 73.4453 65.2558C73.6192 64.9517 73.8091 64.6572 74.0143 64.3733C74.0456 64.3251 74.0796 64.2787 74.116 64.2342C74.4773 63.7483 74.9341 63.2354 75.3764 63.0444C75.4426 63.0183 75.5129 63.0043 75.584 63.0028C75.8699 62.993 76.156 63.0069 76.4395 63.0444L77.3116 62.164L78.3685 61.0967L78.7568 62.5585Z" fill="#EBB376"/>
<path d="M77.5758 48.6506C79.1726 48.7814 84.428 56.0136 84.2619 57.2823C84.0958 58.551 78.5331 63.2396 78.5331 63.2396L77.146 62.0124C77.146 62.0124 81.6581 57.5897 81.7141 57.0975C81.7702 56.6054 76.71 51.8296 76.71 51.8296L77.5758 48.6506Z" fill="white"/>
<path opacity="0.1" d="M77.0822 52.382C76.9493 53.0381 76.8102 53.7524 76.6669 54.502C75.8115 52.8409 76.3762 50.7395 76.3762 50.7395C76.4531 51.5514 77.0822 52.382 77.0822 52.382Z" fill="black"/>
<path opacity="0.2" d="M67.175 34.1365L55.1836 49.8529L56.6682 34.1365H67.175Z" fill="white"/>
<path opacity="0.2" d="M73.3767 34.1365L54.3047 59.1325L54.6245 55.7708L71.13 34.1365H73.3767Z" fill="white"/>
<path d="M58.0664 75.2911H60.5374C60.6717 75.2911 60.8006 75.2377 60.8956 75.1427C60.9906 75.0477 61.044 74.9189 61.044 74.7845C61.044 74.6501 60.9906 74.5212 60.8956 74.4262C60.8006 74.3312 60.6717 74.2778 60.5374 74.2778H58.0664V75.2911Z" fill="#263238"/>
<path opacity="0.5" d="M58.0664 74.2778V75.2911H60.6308C60.7323 75.2976 60.8322 75.2643 60.9097 75.1985C60.9872 75.1327 61.0361 75.0393 61.0461 74.9381V74.6288C61.0444 74.5734 61.0289 74.5193 61.001 74.4714C60.973 74.4235 60.9336 74.3834 60.8862 74.3547C60.8084 74.304 60.7174 74.2772 60.6246 74.2778H58.0664Z" fill="white"/>
<path opacity="0.5" d="M58.0664 74.2778V74.9714H60.4647C60.5663 74.9783 60.6665 74.9453 60.7441 74.8793C60.8217 74.8134 60.8705 74.7197 60.88 74.6184V74.3547C60.8022 74.304 60.7112 74.2772 60.6183 74.2778H58.0664Z" fill="white"/>
<path d="M29.927 74.9007H30.8926V74.666H29.927L29.6592 74.7844L29.927 74.9007Z" fill="#263238"/>
<path opacity="0.5" d="M29.927 74.9007H30.8926V74.666H29.927L29.6592 74.7844L29.927 74.9007Z" fill="white"/>
<path d="M30.4521 74.5312C31.4977 74.1975 32.5811 73.9973 33.6768 73.9353C43.2284 73.3871 49.1441 73.3497 58.6064 73.8252C58.7272 73.821 58.8451 73.8632 58.9359 73.9431C59.0266 74.023 59.0833 74.1346 59.0944 74.255V75.312C59.0828 75.4323 59.0261 75.5439 58.9355 75.624C58.8449 75.7042 58.7273 75.747 58.6064 75.7438C49.1441 76.2173 43.2201 76.1799 33.6768 75.6338C32.5812 75.57 31.4978 75.3691 30.4521 75.0358V74.5312Z" fill="#263238"/>
<path d="M30.4521 74.5312V75.0358C31.4977 75.3695 32.5811 75.5697 33.6768 75.6317C43.2284 76.1799 49.1441 76.2173 58.6064 75.7418C58.727 75.746 58.8447 75.7037 58.9351 75.6237C59.0254 75.5438 59.0817 75.4322 59.0923 75.312V74.2571C59.0822 74.1365 59.0262 74.0244 58.9357 73.944C58.8453 73.8636 58.7274 73.8211 58.6064 73.8252C49.1441 73.3497 43.2201 73.3871 33.6768 73.9353C32.5818 73.9971 31.499 74.1974 30.4542 74.5312H30.4521Z" fill="#263238"/>
<path opacity="0.1" d="M30.4551 74.5312C31.5003 74.8631 32.5829 75.0633 33.6777 75.1271C43.2292 75.6753 49.145 75.7106 58.6073 75.2372C58.7279 75.2403 58.8453 75.1975 58.9355 75.1172C59.0258 75.037 59.0821 74.9255 59.0931 74.8053V74.2571C59.0831 74.1365 59.027 74.0244 58.9366 73.944C58.8461 73.8636 58.7282 73.8211 58.6073 73.8252C49.145 73.3497 43.2209 73.3871 33.6777 73.9353C32.5826 73.9971 31.4998 74.1974 30.4551 74.5312Z" fill="white"/>
<path d="M48.2617 73.2978L49.2626 73.495L49.3685 73.2978C51.9635 73.1963 54.5625 73.2942 57.1426 73.5906V75.939L58.214 75.8559V73.331L57.1426 73.2459C55.332 73.1067 49.7962 72.7413 48.2617 73.2978Z" fill="#0D92F4"/>
<path d="M45.0127 76.072H45.4072V73.4931H45.0127V76.072Z" fill="#0D92F4"/>
<path opacity="0.2" d="M58.214 73.8045L57.1426 73.7546V74.3319H58.214V73.8045Z" fill="white"/>
<path opacity="0.2" d="M48.2617 73.2977C50.66 72.9011 58.214 73.5053 58.214 73.5053V73.3434L57.1426 73.2582C55.332 73.1067 49.7962 72.7412 48.2617 73.2977Z" fill="white"/>
<path opacity="0.2" d="M45.0127 74.6226H45.4072V73.493H45.0127V74.6226Z" fill="white"/>
</svg>
